<?xml version="1.0" encoding="utf-8"?>
<!-- Generator: Adobe Illustrator 23.0.2, SVG Export Plug-In . SVG Version: 6.00 Build 0)  -->
<svg version="1.1" id="Layer_1" xmlns="http://www.w3.org/2000/svg" xmlns:xlink="http://www.w3.org/1999/xlink" x="0px" y="0px"
	 viewBox="0 0 223 165" style="enable-background:new 0 0 223 165;" xml:space="preserve">
<style type="text/css">
	.st0{opacity:0.8;}
	.st1{fill:#E9EAEB;}
	.st2{fill:#FFFFFF;stroke:#676767;stroke-width:2;stroke-miterlimit:10;}
	.st3{fill:none;stroke:#676767;stroke-width:2;stroke-miterlimit:10;}
	.st4{fill:#A3D4FF;stroke:#676767;stroke-width:2;stroke-miterlimit:10;}
	.st5{fill:#676767;}
</style>
<title>Group 138@1x</title>
<desc>Created with Sketch.</desc>
<g class="st0">
	<ellipse class="st1" cx="118.3" cy="84.5" rx="70.6" ry="66.4"/>
	<g>
		<path class="st2" d="M86.7,141.1c5.4,0,9.4-4.5,9.4-10v-3.3c0-5.5-4-10-9.4-10c-5.4,0-9.4,4.5-9.4,10v3.3
			C77.4,136.6,81.4,141.1,86.7,141.1z"/>
		<path class="st2" d="M105.5,162.2v-11.8c0-6.5-11.7-9.4-17.6-9.4c-5.8,0-17.6,2.9-17.6,9.4v11.8"/>
		<path class="st2" d="M125.4,148.2c4.7,0,8.2-4,8.2-9v-3c0-5-3.5-9-8.2-9c-4.7,0-8.2,4-8.2,9v3
			C117.2,144.1,120.7,148.2,125.4,148.2z"/>
		<path class="st3" d="M142.9,162.2v-4.8c0-6.5-11-9.4-16.5-9.4c-3.8,0-10.4,1.4-14,4.5"/>
		<path class="st4" d="M125.3,108.4h-7.5l-9.8,12.5c-1.1,1.4-3.4,0.6-3.4-1.1l0-11.4H84.1c-2.1,0-3.7-1.7-3.7-3.7V71
			c0-2.1,1.7-3.7,3.7-3.7h41.2c2.1,0,3.7,1.7,3.7,3.7v33.7C129.1,106.8,127.4,108.4,125.3,108.4z"/>
		<path class="st2" d="M135,72h24.3c2.1,0,3.7,1.7,3.7,3.7v33.7c0,2.1-1.7,3.7-3.7,3.7h-9.4l-9.8,12.5c-1.1,1.4-3.4,0.6-3.4-1.1
			l0-11.4h-7.5"/>
		<path class="st3" d="M146.2,92.6L146.2,92.6c2.1,0,3.7-1.7,3.7-3.7V87c0-2.1-1.7-3.7-3.7-3.7h-7.5V102h7.5c2.1,0,3.7-1.7,3.7-3.7
			v-1.9C149.9,94.3,148.3,92.6,146.2,92.6L146.2,92.6h-7.5"/>
		<path class="st3" d="M99.1,99.1V82.2c0-2.1,1.7-3.7,3.7-3.7h3.7c2.1,0,3.7,1.7,3.7,3.7v16.9"/>
		<line class="st3" x1="110.3" y1="89.7" x2="99.1" y2="89.7"/>
	</g>
	<g>
		<path class="st2" d="M218.4,42.5h-43.3c-1.7,0-3.1,1.4-3.1,3.1v23.2c0,1.7,1.4,3.1,3.1,3.1h6.2l4.6,7.7l4.6-7.7h27.8
			c1.7,0,3.1-1.4,3.1-3.1V45.6C221.5,43.9,220.1,42.5,218.4,42.5z"/>
		<line class="st3" x1="201.4" y1="51.8" x2="212.2" y2="62.6"/>
		<line class="st3" x1="212.2" y1="51.8" x2="201.4" y2="62.6"/>
		<polyline class="st3" points="193.6,51.8 185.9,62.6 181.3,58 		"/>
	</g>
	<g>
		<path class="st2" d="M192.7,100.8c3.5,0,6.2-3,6.2-6.6v-2.2c0-3.7-2.6-6.6-6.2-6.6c-3.5,0-6.2,3-6.2,6.6v2.2
			C186.5,97.8,189.1,100.8,192.7,100.8z"/>
		<path class="st3" d="M205,108.5c-2.1-1.1-6.1-3-9.3-3.1c-5.2,0-6.6,0-7.7,0c-5.5,0-9.3,2.3-9.3,9.3v6.2c0,6.2,5,7.7,9.3,7.7h6.2"
			/>
		<path class="st3" d="M186.5,113.1v6.2c0,0.9,0.7,1.5,1.5,1.5h9.3"/>
		<line class="st3" x1="184.9" y1="128.6" x2="184.9" y2="136.3"/>
		<line class="st3" x1="201.9" y1="131.7" x2="201.9" y2="136.3"/>
		<path class="st2" d="M212.4,125.5h-5.8l3.1-6.2h5.2c1.1,0,1.9,1.2,1.4,2.2l-1.1,2.2C214.6,124.9,213.6,125.5,212.4,125.5z"/>
		<line class="st3" x1="192.7" y1="113.1" x2="200.4" y2="117.8"/>
		<polyline class="st2" points="214.3,119.3 217.4,113.1 201.9,113.1 192.7,131.7 208.1,131.7 211.2,125.5 		"/>
	</g>
	<g>
		<path class="st2" d="M62.3,99.2v-18c0-0.5,0.1-0.9,0.1-1.4c0-7.1-5-18.1-12.8-21.4c0.7-2.5,1.4-5,2.1-7.5c0.2-0.6-0.4-1.2-1.4-1.3
			c-0.9-0.1-1.8,0.3-1.8,1c0.1-0.6-0.6-1.2-1.5-1.2c-0.9,0-1.7,0.5-1.7,1.1c0-0.6-0.7-1.1-1.7-1.1c-0.9,0-1.6,0.6-1.5,1.2
			c-0.1-0.6-0.9-1.1-1.8-1c-0.9,0.1-1.5,0.7-1.4,1.3c0.7,2.5,1.4,5,2.1,7.5C33,61.7,28,72.7,28,79.8c0,0.5,0,0.9,0.1,1.4v18
			c-0.9,0.2-1.6,1-1.6,2v0.2c0,1.1,0.9,2,2,2h2.3h3.9h1.1h19h1.1h3.9h2.3c1.1,0,2-0.9,2-2v-0.2C63.9,100.3,63.2,99.4,62.3,99.2z"/>
		<line class="st3" x1="39" y1="58" x2="51.1" y2="58"/>
		<line class="st3" x1="15.6" y1="75.8" x2="24.7" y2="75.8"/>
		<line class="st3" x1="15.6" y1="80.9" x2="24.7" y2="80.9"/>
		<line class="st3" x1="15.6" y1="85.9" x2="24.7" y2="85.9"/>
		<line class="st3" x1="16.4" y1="91" x2="24.7" y2="91"/>
		<line class="st3" x1="21.8" y1="96.1" x2="24.7" y2="96.1"/>
		<line class="st3" x1="0.3" y1="85.9" x2="9.3" y2="85.9"/>
		<line class="st3" x1="0.3" y1="91" x2="9.3" y2="91"/>
		<line class="st3" x1="0.3" y1="96.1" x2="5.9" y2="96.1"/>
		<path class="st3" d="M19.9,96.9c0,3.8-3.1,6.9-6.9,6.9c-3.8,0-6.9-3.1-6.9-6.9c0-3.8,3.1-6.9,6.9-6.9
			C16.8,90.1,19.9,93.2,19.9,96.9z"/>
		<line class="st3" x1="13" y1="100.1" x2="13" y2="93.8"/>
		<g>
			<line class="st3" x1="45.3" y1="69" x2="45.3" y2="72.1"/>
			<g>
				<path class="st3" d="M45.2,87.9c-5.5,0-9.9-4.4-9.9-9.9c0-5.5,4.4-9.9,9.9-9.9c5.5,0,9.9,4.4,9.9,9.9
					C55.1,83.4,50.7,87.9,45.2,87.9z"/>
				<line class="st3" x1="45.3" y1="83.1" x2="45.3" y2="86.9"/>
				<g>
					<g>
						<path class="st5" d="M49.8,78.9c0.4,0.5,0.6,1.1,0.6,1.8c0,1-0.4,1.8-1.1,2.3c-0.7,0.6-1.7,0.9-3,0.9h-5.5V72.2h5.4
							c1.2,0,2.2,0.3,2.9,0.8c0.7,0.5,1.1,1.3,1.1,2.2c0,0.6-0.2,1.1-0.5,1.6c-0.3,0.5-0.8,0.8-1.3,1C48.9,78,49.5,78.4,49.8,78.9z
							 M43.3,76.9h2.4c0.7,0,1.2-0.1,1.5-0.3c0.3-0.2,0.5-0.6,0.5-1c0-0.5-0.2-0.8-0.5-1.1c-0.3-0.2-0.8-0.3-1.5-0.3h-2.4V76.9z
							 M47.5,81.5c0.3-0.2,0.5-0.6,0.5-1.1c0-0.5-0.2-0.9-0.5-1.1c-0.3-0.2-0.8-0.4-1.5-0.4h-2.7v3H46
							C46.7,81.9,47.2,81.8,47.5,81.5z"/>
					</g>
				</g>
			</g>
		</g>
	</g>
	<g>
		<line class="st3" x1="51.5" y1="24" x2="51.5" y2="36.6"/>
		<line class="st3" x1="45.3" y1="30.3" x2="57.8" y2="30.3"/>
		<line class="st3" x1="85" y1="40.1" x2="85" y2="49.5"/>
		<line class="st3" x1="80.3" y1="44.8" x2="89.7" y2="44.8"/>
	</g>
	<g>
		<path class="st2" d="M103.5,36.7c-6.7,0-12.1-5.4-12.1-12.1c0-6.7,5.4-12.1,12.1-12.1c6.7,0,12.1,5.4,12.1,12.1
			C115.6,31.3,110.2,36.7,103.5,36.7z"/>
		<g>
			<line class="st3" x1="103.7" y1="13.7" x2="103.7" y2="17.5"/>
			<g>
				<line class="st3" x1="103.7" y1="31" x2="103.7" y2="35.6"/>
				<g>
					<path class="st5" d="M109.2,25.8c0.5,0.6,0.7,1.3,0.7,2.2c0,1.2-0.4,2.1-1.3,2.8c-0.9,0.7-2.1,1.1-3.6,1.1h-6.8V17.6h6.6
						c1.5,0,2.7,0.3,3.5,1c0.9,0.7,1.3,1.6,1.3,2.7c0,0.7-0.2,1.4-0.6,1.9c-0.4,0.6-0.9,1-1.6,1.2C108.1,24.7,108.8,25.2,109.2,25.8
						z M101.2,23.4h3c0.8,0,1.4-0.1,1.8-0.4c0.4-0.3,0.6-0.7,0.6-1.3c0-0.6-0.2-1-0.6-1.3c-0.4-0.3-1-0.4-1.8-0.4h-3V23.4z
						 M106.4,29c0.4-0.3,0.6-0.7,0.6-1.4c0-0.6-0.2-1.1-0.6-1.4c-0.4-0.3-1-0.4-1.8-0.4h-3.3v3.6h3.3C105.4,29.5,106,29.3,106.4,29z
						"/>
				</g>
			</g>
		</g>
	</g>
	<g>
		<path class="st4" d="M139.3,22.9c-5.6,0-10.1-4.5-10.1-10.1c0-5.6,4.5-10.1,10.1-10.1c5.6,0,10.1,4.5,10.1,10.1
			C149.3,18.4,144.8,22.9,139.3,22.9z"/>
		<g>
			<line class="st3" x1="139.4" y1="3.7" x2="139.4" y2="6.9"/>
			<g>
				<line class="st3" x1="139.4" y1="18.1" x2="139.4" y2="21.9"/>
				<g>
					<path class="st5" d="M144,13.7c0.4,0.5,0.6,1.1,0.6,1.8c0,1-0.4,1.8-1.1,2.4c-0.7,0.6-1.7,0.9-3,0.9h-5.6V6.9h5.5
						c1.2,0,2.2,0.3,2.9,0.8c0.7,0.5,1.1,1.3,1.1,2.3c0,0.6-0.2,1.2-0.5,1.6c-0.3,0.5-0.8,0.8-1.4,1C143.1,12.9,143.6,13.2,144,13.7
						z M137.3,11.8h2.5c0.7,0,1.2-0.1,1.5-0.3c0.3-0.2,0.5-0.6,0.5-1.1c0-0.5-0.2-0.9-0.5-1.1c-0.3-0.2-0.8-0.3-1.5-0.3h-2.5V11.8z
						 M141.6,16.4c0.3-0.2,0.5-0.6,0.5-1.1c0-0.5-0.2-0.9-0.5-1.2c-0.3-0.2-0.8-0.4-1.5-0.4h-2.8v3h2.8
						C140.8,16.8,141.3,16.7,141.6,16.4z"/>
				</g>
			</g>
		</g>
	</g>
	<g>
		<path class="st2" d="M127.6,49.2c0,3.1,2.5,5.6,5.6,5.6c3.1,0,5.6-2.5,5.6-5.6c0-3.1-2.5-5.6-5.6-5.6S127.6,46.1,127.6,49.2z"/>
		<line class="st3" x1="133.2" y1="51.1" x2="133.2" y2="47.3"/>
	</g>
</g>
</svg>
