<?xml version="1.0" encoding="utf-8"?>
<!-- Generator: Adobe Illustrator 23.0.2, SVG Export Plug-In . SVG Version: 6.00 Build 0)  -->
<svg version="1.1" id="Layer_1" xmlns="http://www.w3.org/2000/svg" xmlns:xlink="http://www.w3.org/1999/xlink" x="0px" y="0px"
	 viewBox="0 0 223 165" style="enable-background:new 0 0 223 165;" xml:space="preserve">
<style type="text/css">
	.st0{fill:#E9EAEB;}
	.st1{opacity:0.8;}
	.st2{fill:#A3D4FF;}
	.st3{fill:#A3D4FF;stroke:#676767;stroke-width:2;stroke-miterlimit:10;}
	.st4{fill:none;stroke:#676767;stroke-width:2;stroke-miterlimit:10;}
	.st5{fill:#FFFFFF;stroke:#676767;stroke-width:2;stroke-miterlimit:10;}
	.st6{fill:none;stroke:#BCC0C4;stroke-width:2;stroke-miterlimit:10;}
</style>
<title>Group 138@1x</title>
<desc>Created with Sketch.</desc>
<g>
	<ellipse class="st0" cx="117.8" cy="102.4" rx="59.1" ry="55.5"/>
	<g class="st1">
		<path class="st2" d="M119.8,143.6c-1.2-3.4-4.4-5.7-8-5.7H99.9V126l3.4,3.4c0,0,7.4,0,11.9,0c7.8,0,6.8-8.5,6.8-8.5h-11.9
			l-11.9-11.9h-6.8c-3.8,0-6.8,3.1-6.8,6.8v25.6c0,5.6,4.6,5.7,10.2,5.7h15.3l3,15.7h9.5L119.8,143.6z"/>
		<path class="st3" d="M94.4,103.6c-5.9,0-10.6-4.8-10.6-10.8v-3.6c0-6,4.7-10.8,10.6-10.8c5.9,0,10.6,4.8,10.6,10.8v3.6
			C105,98.8,100.3,103.6,94.4,103.6z"/>
		<line class="st4" x1="104" y1="129.5" x2="162.5" y2="129.5"/>
		<polyline class="st4" points="125.7,121.2 136.8,121.2 136.8,130.3 		"/>
		<polyline class="st4" points="144.2,130.3 144.2,121.2 151.6,121.2 155.2,121.2 155.2,94 146,94 		"/>
		<path class="st5" d="M143.3,115h-7.2V67.4h7.2c1.1,0,2,0.9,2,2V113C145.3,114.1,144.4,115,143.3,115z"/>
		<line class="st4" x1="94.3" y1="153.3" x2="94.3" y2="163.5"/>
		<line class="st4" x1="87.4" y1="161.8" x2="84" y2="161.8"/>
		<line class="st4" x1="104.5" y1="161.8" x2="101.1" y2="161.8"/>
		<path class="st4" d="M113.1,162.6l-3-15.7H94.8c-5.6,0-10.2,0-10.2-5.7v-25.6c0-3.8,3.1-6.8,6.8-6.8h6.8l11.9,11.9H122
			c0,0,1,8.5-6.8,8.5c-4.5,0-11.9,0-11.9,0l-10.2-10.2"/>
		<path class="st4" d="M99.9,126v11.9h11.9c3.6,0,6.8,2.3,8,5.7l2.7,19.1"/>
		<path class="st4" d="M79.8,110.2v27.8c0,7.5,6.1,13.6,13.6,13.6h15.3"/>
		<polyline class="st4" points="77.7,137.9 91.4,137.9 96.5,140.2 		"/>
		<line class="st4" x1="165.5" y1="129.3" x2="169.2" y2="129.3"/>
		<line class="st4" x1="97.7" y1="161.8" x2="90.9" y2="161.8"/>
	</g>
	<g class="st1">
		<path class="st4" d="M37.8,98.1c0-4.5,2.9-7.2,6.1-10.3c3.6-3.5,5.9-8.5,5.9-14c0-10.8-8.6-19.5-19.1-19.2
			C20.2,54.3,11.6,63,11.6,73.8c0,5.5,2.3,10.5,5.9,14c3.2,3.1,6.1,5.8,6.1,10.3"/>
		<path class="st3" d="M44.3,76.3v-5.5h-3.6c-0.2-1.1-0.6-1.7-1-2.4l2.6-2.6L38.4,62l-2.6,2.6c-0.7-0.4-1.6-0.8-2.4-1V60H28v3.6
			c-0.9,0.2-1.7,0.6-2.4,1L23,62l-3.9,3.9l2.6,2.6c-0.4,0.7-0.8,1.3-1,2.4h-3.6v5.5h3.6c0.2,1.1,0.6,1.6,1,2.4l-2.6,2.6l3.9,3.8
			l2.6-2.6c0.7,0.4,1.6,0.8,2.4,1v3.7h5.5v-3.7c0.9-0.2,1.7-0.6,2.4-1l2.6,2.6l3.9-3.9l-2.6-2.5c0.4-0.7,0.8-1.3,1-2.4H44.3z"/>
		<circle class="st5" cx="30.7" cy="73.6" r="3.8"/>
		<polyline class="st4" points="36.7,110.1 34.5,110.1 32.3,112.3 29.1,112.3 26.9,110.1 24.7,110.1 		"/>
		<line class="st4" x1="22.5" y1="101.4" x2="38.9" y2="101.4"/>
		<line class="st4" x1="22.5" y1="105.8" x2="38.9" y2="105.8"/>
		<line class="st6" x1="1.1" y1="82" x2="8" y2="80.1"/>
		<line class="st6" x1="9.1" y1="95.8" x2="14.2" y2="90.8"/>
		<line class="st6" x1="22.9" y1="44.1" x2="24.8" y2="51.1"/>
		<line class="st6" x1="9.1" y1="52.1" x2="14.2" y2="57.2"/>
		<line class="st6" x1="1.1" y1="66" x2="8" y2="67.8"/>
		<line class="st6" x1="60.8" y1="66" x2="53.9" y2="67.8"/>
		<line class="st6" x1="60.8" y1="82" x2="53.9" y2="80.1"/>
		<line class="st6" x1="52.8" y1="95.8" x2="47.7" y2="90.8"/>
		<line class="st6" x1="38.9" y1="44.1" x2="37.1" y2="51.1"/>
		<line class="st6" x1="52.8" y1="52.1" x2="47.7" y2="57.2"/>
	</g>
	<g class="st1">
		<g>
			<path class="st6" d="M90.9,19.8c0-5.6,4.5-10.1,10.1-10.1"/>
			<path class="st4" d="M105.9,43.8H95.8c-5,0-9-4-9-9c0-5,4-9,9-9c0.1,0,0.2,0,0.3,0c-0.2-0.7-0.3-1.5-0.3-2.3c0-5,4-9,9-9
				c1,0,1.9,0.2,2.8,0.5c1.8-6.1,7.4-10.6,14.1-10.6c6.7,0,12.3,4.5,14.1,10.6c0.9-0.3,1.8-0.5,2.8-0.5c5,0,9,4,9,9
				c0,0.8-0.1,1.5-0.3,2.3c0.1,0,0.2,0,0.3,0c5,0,9,4,9,9c0,5-4,9-9,9h-10.1"/>
			<g>
				<line class="st6" x1="125.1" y1="42.6" x2="125.1" y2="44.9"/>
				<line class="st6" x1="125.1" y1="47.1" x2="125.1" y2="49.4"/>
				<line class="st6" x1="125.1" y1="51.7" x2="125.1" y2="53.9"/>
				<line class="st4" x1="125.1" y1="56.2" x2="125.1" y2="72"/>
			</g>
			<g>
				<line class="st6" x1="118.3" y1="72" x2="118.3" y2="69.7"/>
				<line class="st6" x1="118.3" y1="67.4" x2="118.3" y2="65.2"/>
				<line class="st6" x1="118.3" y1="62.9" x2="118.3" y2="60.7"/>
				<line class="st4" x1="118.3" y1="58.4" x2="118.3" y2="42.6"/>
			</g>
			<g>
				<path class="st4" d="M131.9,35.9v16.9c0,1.2,0.4,2.3,1.3,3.2c0.9,0.9,2,1.3,3.2,1.3h23.6"/>
				<circle class="st4" cx="164.5" cy="57.3" r="4.5"/>
				<line class="st4" x1="181.5" y1="57.3" x2="169" y2="57.3"/>
				<line class="st6" x1="204.1" y1="57.3" x2="185.6" y2="57.3"/>
				<line class="st4" x1="163.3" y1="57.3" x2="165.6" y2="57.3"/>
			</g>
			<g>
				<path class="st4" d="M111.6,35.9v16.9c0,1.2-0.4,2.3-1.3,3.2c-0.9,0.9-2,1.3-3.2,1.3H74"/>
				<circle class="st4" cx="69.5" cy="57.3" r="4.5"/>
				<line class="st4" x1="65.2" y1="57.3" x2="65" y2="57.3"/>
				<line class="st4" x1="70.7" y1="57.3" x2="68.4" y2="57.3"/>
			</g>
		</g>
		<g>
			<path class="st4" d="M109,33.1v-9c0-1.2,1-2.3,2.3-2.3h1.1c1.2,0,2.3,1,2.3,2.3v9"/>
			<line class="st4" x1="109" y1="28.6" x2="114.6" y2="28.6"/>
			<path class="st4" d="M119.1,28.6h3.4c1.2,0,2.3-1,2.3-2.3v-2.3c0-1.2-1-2.3-2.3-2.3h-3.4v11.3"/>
			<line class="st4" x1="130.4" y1="21.9" x2="130.4" y2="32"/>
			<line class="st4" x1="128.2" y1="21.9" x2="132.7" y2="21.9"/>
			<line class="st4" x1="128.2" y1="32" x2="132.7" y2="32"/>
		</g>
	</g>
	<g class="st1">
		<rect x="170.7" y="71.4" class="st5" width="50.3" height="35.5"/>
		<line class="st4" x1="170.7" y1="78.3" x2="221" y2="78.3"/>
		<line class="st6" x1="174.1" y1="74.8" x2="176.4" y2="74.8"/>
		<line class="st6" x1="178.7" y1="74.8" x2="181" y2="74.8"/>
		<line class="st6" x1="183.3" y1="74.8" x2="185.6" y2="74.8"/>
		<line class="st6" x1="217.6" y1="66.8" x2="174.1" y2="66.8"/>
		<line class="st6" x1="209.6" y1="62.3" x2="182.1" y2="62.3"/>
	</g>
</g>
</svg>
