<?xml version="1.0" encoding="utf-8"?>
<!-- Generator: Adobe Illustrator 23.0.2, SVG Export Plug-In . SVG Version: 6.00 Build 0)  -->
<svg version="1.1" id="Layer_1" xmlns="http://www.w3.org/2000/svg" xmlns:xlink="http://www.w3.org/1999/xlink" x="0px" y="0px"
	 viewBox="0 0 223 165" style="enable-background:new 0 0 223 165;" xml:space="preserve">
<style type="text/css">
	.st0{opacity:0.8;}
	.st1{fill:#E9EAEB;}
	.st2{fill:none;stroke:#676767;stroke-width:2;stroke-miterlimit:10;}
	.st3{fill:none;stroke:#BCC0C4;stroke-width:2;stroke-miterlimit:10;}
	.st4{fill:none;}
	.st5{fill:#FFFFFF;stroke:#676767;stroke-width:2;stroke-miterlimit:10;}
	.st6{fill:#A3D4FF;stroke:#676767;stroke-width:2;stroke-miterlimit:10;}
	.st7{fill:#E6F4FA;stroke:#676767;stroke-width:2;stroke-miterlimit:10;}
	.st8{fill:none;stroke:#BCC0C4;stroke-width:2;stroke-miterlimit:10;stroke-dasharray:2,2;}
</style>
<title>Group 138@1x</title>
<desc>Created with Sketch.</desc>
<g class="st0">
	<ellipse class="st1" cx="109" cy="90.2" rx="60.9" ry="57.2"/>
	<g>
		<path class="st2" d="M126.7,91.3H141v7.9h-3.2v55.3c0,4.4-3.5,7.9-7.9,7.9l0,0c-4.4,0-7.9-3.5-7.9-7.9v-1.6"/>
		<polyline class="st2" points="122,115 122,99.2 118.8,99.2 118.8,91.3 123.6,91.3 		"/>
		<line class="st2" x1="122" y1="99.2" x2="133.1" y2="99.2"/>
		<line class="st3" x1="129.9" y1="103.9" x2="129.9" y2="116.5"/>
		<path class="st4" d="M109.4,106.6V92.8h3.2v-7.9H98.3h-3.2h-4.7v7.9h3.2v13.8C81.7,110,73,121,73,133.9
			c0,15.7,12.7,28.4,28.4,28.4c15.7,0,28.4-12.7,28.4-28.4C129.9,121,121.2,110,109.4,106.6z"/>
		<path class="st5" d="M95.1,84.9h-4.7v7.9h3.2v13.8C81.7,110,73,121,73,133.9c0,15.7,12.7,28.4,28.4,28.4
			c15.7,0,28.4-12.7,28.4-28.4c0-13-8.7-23.9-20.5-27.3V92.8h3.2v-7.9H98.3"/>
		<path class="st6" d="M79.3,130.8c-0.1,1-0.4,1.8-0.4,2.7c0,12.5,10.1,22.6,22.6,22.6c12.5,0,22.6-10.1,22.6-22.6
			c0-1-0.3-1.8-0.4-2.7H79.3z"/>
		<path class="st2" d="M101.5,80.2v-1.6c0-7.9,6.4-14.2,14.3-14.2h0c7.9,0,14.2,6.4,14.2,14.2v7.9"/>
		<path class="st2" d="M95.1,112.7c-6.6,2-12,7-14.4,13.4"/>
		<line class="st2" x1="104.6" y1="92.8" x2="93.5" y2="92.8"/>
		<line class="st3" x1="101.5" y1="97.6" x2="101.5" y2="126"/>
	</g>
	<g>
		<circle class="st1" cx="28.7" cy="68.1" r="14.9"/>
		<polyline class="st2" points="49.6,57.2 43.7,57.2 39.6,63.2 37.7,63.2 		"/>
		<line class="st2" x1="50.6" y1="68.1" x2="39.6" y2="68.1"/>
		<circle class="st6" cx="49.6" cy="57.2" r="3"/>
		<polyline class="st2" points="49.6,79.1 43.7,79.1 39.8,73.1 37.7,73.1 		"/>
		<circle class="st6" cx="49.6" cy="79.1" r="3"/>
		<circle class="st6" cx="50.6" cy="68.1" r="3"/>
		<polyline class="st2" points="41.5,88.1 34.8,78.1 33.7,78.1 		"/>
		<circle class="st6" cx="41.6" cy="88.1" r="3"/>
		<polyline class="st2" points="41.5,50.2 34.8,58.2 28.7,58.2 		"/>
		<circle class="st6" cx="41.6" cy="50.2" r="3"/>
		<path class="st7" d="M21.7,45.2c-3.2,0-5.8,2.1-6.7,5c-4,0.1-7.3,3.9-7.3,8.5c0,0.4,0,0.7,0.1,1c-2.9,1.3-5,5-5,9.4
			c0,2.8,0.9,5.3,2.2,7.1c-0.2,1-0.3,2.1-0.2,3.2c0.5,4.6,4.3,8,8.4,7.6c1.1,2.9,4,5,7.5,5c4.4,0,8-3.3,8-7.5V52.2
			C28.7,48.4,25.6,45.2,21.7,45.2z"/>
		<path class="st2" d="M21.7,59.2c-3.9,0-7-3.1-7-7c0-0.7,0.1-1.4,0.3-2"/>
		<path class="st2" d="M12.8,68.8c2.2,1.3,4.7,0.2,6.5-2c2.3-2.7,6.1-3.8,8.4-1.1c0.4,0.5,0.8,1,1,1.6"/>
		<path class="st2" d="M28.6,55.2c-3.1,0.7-5.8-1.1-6.9-4"/>
		<path class="st2" d="M28.6,80.2c-3.1-0.7-5.8,1.1-6.9,4"/>
		<path class="st2" d="M16.7,57.2c-2,0.5-4,2-4,4"/>
		<path class="st2" d="M13.8,80.1c-2-0.5-4-2-4-4"/>
		<path class="st2" d="M13.8,88.2c-0.6-1.1-1-2.3-1-3.6c0-4.1,3.6-7.5,8-7.5c0-0.3,0-0.6,0-1c0-1.7,2.4-4,4-4"/>
		<path class="st2" d="M8.8,65.2c1.9,0,3.5,1.6,3.5,3.5s-1.6,3.5-3.5,3.5"/>
		<line class="st2" x1="28.7" y1="63.2" x2="31.7" y2="63.2"/>
		<line class="st2" x1="33.7" y1="63.2" x2="35.7" y2="63.2"/>
		<line class="st2" x1="35.7" y1="73.1" x2="33.7" y2="73.1"/>
		<line class="st2" x1="31.7" y1="73.1" x2="28.7" y2="73.1"/>
		<line class="st2" x1="28.7" y1="78.1" x2="31.7" y2="78.1"/>
		<line class="st2" x1="28.7" y1="68.1" x2="33.7" y2="68.1"/>
		<line class="st2" x1="35.7" y1="68.1" x2="37.7" y2="68.1"/>
		<line class="st2" x1="28.7" y1="43.2" x2="28.7" y2="94"/>
		<line class="st2" x1="28.7" y1="41.3" x2="28.7" y2="37.3"/>
		<line class="st2" x1="28.7" y1="96" x2="28.7" y2="100"/>
	</g>
	<g>
		<path class="st2" d="M170,63.1L170,63.1c-1.7,0-3,1.3-3,3V95c0,1.7,1.3,3,3,3h45.8c1.7,0,3-1.3,3-3V66.1c0-1.7-1.3-3-3-3h-2"/>
		<path class="st3" d="M178.3,47.3v-2c0-0.6,0.4-1,1-1h30.9c0.6,0,1,0.4,1,1v19.9"/>
		<polyline class="st2" points="182,107 184,105 202.9,105 204.9,107 		"/>
		<polyline class="st2" points="187,103 187,98 199.9,98 199.9,103 		"/>
		<line class="st2" x1="167" y1="92" x2="218.8" y2="92"/>
		<path class="st2" d="M173,86V51.2c0-0.6,0.4-1,1-1h30.9c0.6,0,1,0.4,1,1v22.9"/>
		<line class="st2" x1="172" y1="58.2" x2="198.9" y2="58.2"/>
		<line class="st3" x1="176" y1="54.2" x2="178" y2="54.2"/>
		<line class="st3" x1="180" y1="54.2" x2="182" y2="54.2"/>
		<line class="st3" x1="184" y1="54.2" x2="186" y2="54.2"/>
		<path class="st6" d="M201.9,72.6l-1.6-3.9l-3,1.3c-0.6-0.9-1.3-1.6-2.2-2.2l1.3-3l-3.9-1.6l-1.3,3c-1-0.2-2-0.2-3.1,0l-1.3-3
			l-3.9,1.6l1.3,3c-0.9,0.6-1.6,1.3-2.2,2.2l-3-1.3l-1.6,3.9l3,1.3c-0.2,1-0.2,2,0,3.1l-3,1.3l1.6,3.9l3-1.3
			c0.6,0.9,1.3,1.6,2.2,2.2l-1.3,3l3.9,1.6l1.3-3c1,0.2,2,0.2,3.1,0l1.3,3l3.9-1.6l-1.3-3c0.9-0.6,1.6-1.3,2.2-2.2l3,1.3l1.6-3.9
			l-3-1.3c0.2-1,0.2-2,0-3.1L201.9,72.6z"/>
		<path class="st5" d="M193.4,73.9c0.9,2.1-0.1,4.5-2.2,5.4c-2.1,0.9-4.5-0.1-5.4-2.2c-0.9-2.1,0.1-4.5,2.2-5.4
			C190.1,70.8,192.5,71.8,193.4,73.9z"/>
	</g>
	<g>
		<path class="st5" d="M99.4,35.8V5.2c0-1.5,1.3-2.8,2.8-2.8h18.9c2.6,2.6,4.1,4.1,6.7,6.7v26.7c0,1.5-1.3,2.8-2.8,2.8h-22.9
			C100.7,38.6,99.4,37.4,99.4,35.8z"/>
		<polyline class="st2" points="124,11.4 118.9,11.4 118.9,6.3 		"/>
		<line class="st3" x1="103.9" y1="25.7" x2="122" y2="25.7"/>
		<line class="st3" x1="103.9" y1="30.9" x2="115.5" y2="30.9"/>
		<line class="st3" x1="103.9" y1="14.9" x2="112.6" y2="14.9"/>
		<line class="st3" x1="103.9" y1="10" x2="112.2" y2="10"/>
		<line class="st3" x1="103.9" y1="20.5" x2="122" y2="20.5"/>
		<path class="st2" d="M117.6,43.8h-19c-2.4,0-4.3-1.9-4.3-4.3V10.1"/>
	</g>
	<path class="st2" d="M52.1,37.9"/>
	<path class="st8" d="M49,37c8.5-7.9,18.5-14.2,29.7-18.2"/>
	<path class="st8" d="M141.9,16.9c12,3.6,22.9,9.7,32.2,17.7"/>
</g>
</svg>
