<?xml version="1.0" encoding="utf-8"?>
<!-- Generator: Adobe Illustrator 23.0.2, SVG Export Plug-In . SVG Version: 6.00 Build 0)  -->
<svg version="1.1" id="Layer_1" xmlns="http://www.w3.org/2000/svg" xmlns:xlink="http://www.w3.org/1999/xlink" x="0px" y="0px"
	 viewBox="0 0 223 165" style="enable-background:new 0 0 223 165;" xml:space="preserve">
<style type="text/css">
	.st0{opacity:0.8;}
	.st1{fill:#E9EAEB;}
	.st2{fill:#FFFFFF;stroke:#676767;stroke-width:2;stroke-miterlimit:10;}
	.st3{fill:none;stroke:#BCC0C4;stroke-width:2;stroke-miterlimit:10;}
	.st4{fill:none;stroke:#676767;stroke-width:2;stroke-miterlimit:10;}
	.st5{fill:#FFFFFF;}
	.st6{fill:#A3D4FF;stroke:#676767;stroke-width:2;stroke-miterlimit:10;}
</style>
<title>Group 138@1x</title>
<desc>Created with Sketch.</desc>
<g class="st0">
	<ellipse class="st1" cx="111.9" cy="94.7" rx="65.7" ry="61.8"/>
	<g>
		<g>
			<path class="st2" d="M8.7,74.4V54.5c0-1.6,1.3-2.9,2.9-2.9h20.7c4.4,4.4,6.8,6.8,11.2,11.2v30c0,1.6-1.3,2.9-2.9,2.9H24.8"/>
			<polyline class="st3" points="38.1,63.7 31.5,63.7 31.5,57 			"/>
		</g>
		<line class="st3" x1="15.4" y1="59.7" x2="24.8" y2="59.7"/>
		<line class="st3" x1="15.4" y1="66.3" x2="24.8" y2="66.3"/>
		<line class="st3" x1="30.1" y1="79.7" x2="38.1" y2="79.7"/>
		<line class="st3" x1="30.1" y1="86.4" x2="38.1" y2="86.4"/>
		<line class="st3" x1="24.8" y1="73" x2="38.1" y2="73"/>
		<g>
			<path class="st4" d="M15.4,85.1H4.7c-0.7,0-1.3-0.6-1.3-1.3V81c0-0.7,0.6-1.3,1.3-1.3h18.8c0.7,0,1.3,0.6,1.3,1.3v2.8
				c0,0.7-0.6,1.3-1.3,1.3h-4.1"/>
			<path class="st4" d="M4.7,85.1V86c0,3.7,2.1,6.8,5.2,8.2c0.9,0.4,1.5,1.2,1.5,2.2v6l5.3-2.5v-3.5c0-1,0.6-1.8,1.5-2.2
				c3.1-1.4,5.2-4.6,5.2-8.2v-0.9"/>
		</g>
	</g>
	<g>
		<path class="st4" d="M189.3,97v-4h3.1c0.3-1.3,0.7-2,1.2-2.9l-3.1-3.1l4.7-4.7l3.1,3.1c0.9-0.5,1.9-0.9,2.9-1.2v-4.4h6.6v4.4
			c1,0.3,2,0.7,2.9,1.2l3.1-3.1l4.7,4.7l-3.1,3.1c0.5,0.9,0.9,1.6,1.2,2.9h3.1v4"/>
		<path class="st4" d="M209.1,97c0-2.5-2.1-4.6-4.6-4.6s-4.6,2.1-4.6,4.6"/>
		<g>
			<g>
				<polyline class="st4" points="189.2,55.4 189.2,51.9 220.2,51.9 220.2,71.3 				"/>
				<polyline class="st4" points="182.9,87.4 182.9,59.1 213.9,59.1 213.9,76.9 				"/>
				<path class="st4" d="M213.9,64.4"/>
				<path class="st4" d="M182.9,64.4"/>
				<line class="st3" x1="182.9" y1="89.2" x2="182.9" y2="90.9"/>
			</g>
			<g>
				<line class="st3" x1="186.6" y1="65.7" x2="206.2" y2="65.7"/>
				<line class="st3" x1="186.6" y1="70.1" x2="198.2" y2="70.1"/>
				<line class="st3" x1="186.3" y1="74.6" x2="201.3" y2="74.6"/>
			</g>
		</g>
		<line class="st3" x1="182.9" y1="92.5" x2="182.9" y2="94.3"/>
	</g>
	<g>
		<g>
			<rect x="95.4" y="87.5" class="st1" width="31.4" height="11"/>
			<polygon class="st5" points="112.7,78.1 112.7,87.5 126.8,87.5 126.8,98.5 144,98.5 144,78.1 			"/>
			<polyline class="st2" points="134.6,73.4 134.6,68.7 101.7,68.7 101.7,82.8 			"/>
			<polyline class="st2" points="126.8,98.5 126.8,87.5 95.4,87.5 95.4,98.5 			"/>
			<polyline class="st4" points="144,98.5 144,78.1 112.7,78.1 112.7,87.5 126.8,87.5 126.8,98.5 			"/>
		</g>
		<line class="st4" x1="79.7" y1="114.2" x2="68.7" y2="114.2"/>
		<line class="st4" x1="65.6" y1="114.2" x2="62.5" y2="114.2"/>
		<polyline class="st4" points="90.1,123.6 78.1,97 62.5,97 		"/>
		<path class="st6" d="M87.6,103.2h61.2c1.7,0,3.3,1.8,2.8,3.4l-8,24.3c-1,3.1-4,5.2-7.3,5.2H95.4"/>
		<line class="st4" x1="95.4" y1="123.6" x2="70.3" y2="123.6"/>
		<line class="st4" x1="82.8" y1="133" x2="65.6" y2="133"/>
		<g>
			<line class="st4" x1="104.8" y1="107.9" x2="104.8" y2="129.9"/>
			<line class="st4" x1="117.4" y1="107.9" x2="117.4" y2="129.9"/>
			<line class="st4" x1="129.9" y1="107.9" x2="129.9" y2="129.9"/>
			<line class="st4" x1="137.8" y1="123.6" x2="98.5" y2="123.6"/>
			<line class="st4" x1="140.9" y1="114.2" x2="95.4" y2="114.2"/>
		</g>
		<path class="st4" d="M92.3,128.3c0,0,5,12.9,6.3,15.7c1,2.1,2.7,3.1,4.7,3.1h36.1"/>
		<circle class="st4" cx="100.1" cy="156.6" r="4.7"/>
		<path class="st4" d="M141,156.6c0,2.6-2.1,4.7-4.7,4.7c-2.6,0-4.7-2.1-4.7-4.7c0-2.6,2.1-4.7,4.7-4.7
			C138.9,151.9,141,154,141,156.6z"/>
	</g>
	<g>
		<polygon class="st2" points="115.6,5.3 118.1,1.5 122.1,2.7 122.1,7.4 125.1,9.1 129.2,6.8 132.1,9.8 129.8,13.9 131.5,16.8 
			136.3,16.9 137.4,20.9 133.6,23.3 133.6,26.7 137.4,29.2 136.3,33.2 131.5,33.2 129.8,36.2 132.1,40.3 129.2,43.2 125.1,40.9 
			122.1,42.6 122.1,47.4 118.1,48.5 115.6,44.7 112.2,44.7 109.8,48.5 105.8,47.4 105.7,42.6 102.8,40.9 98.7,43.2 95.7,40.3 
			98,36.2 96.3,33.2 91.6,33.2 90.4,29.2 94.2,26.7 94.2,23.3 90.4,20.9 91.6,16.9 96.3,16.8 98,13.9 95.7,9.8 98.7,6.8 102.8,9.1 
			105.7,7.4 105.8,2.7 109.8,1.5 112.2,5.3 		"/>
		<polygon class="st6" points="113.9,13 101.9,18.5 101.9,31.6 113.9,37.1 126,31.6 126,18.5 		"/>
		<line class="st4" x1="105.2" y1="20.1" x2="113.9" y2="23.9"/>
		<line class="st4" x1="122.7" y1="20.1" x2="113.9" y2="23.9"/>
		<line class="st4" x1="113.9" y1="23.9" x2="113.9" y2="33.8"/>
	</g>
</g>
</svg>
