<svg xmlns="http://www.w3.org/2000/svg" viewBox="0 0 464.85 472.9"><defs><style>.cls-1{fill:#e9eaeb;}.cls-2{fill:#84b8e3;}.cls-3{fill:#6999d1;}.cls-4{fill:#8caedc;}.cls-5{fill:#003462;}.cls-6{fill:#014976;}.cls-7{fill:#325e89;}.cls-8{fill:#8e9cc1;}.cls-9{fill:#5381b4;}.cls-10{fill:#140e39;}.cls-11{fill:#779eba;}.cls-12{fill:#adc5d6;}.cls-13{fill:#386794;}.cls-14{fill:#005895;}.cls-15{fill:#130e39;}.cls-16{fill:#c7cce0;}.cls-17{fill:#7698c3;}.cls-18{fill:#668dbb;}.cls-19{fill:#005f9b;}.cls-20{fill:#0b1736;}.cls-21{fill:#5b8cc1;}.cls-22{fill:#a9c0e4;}.cls-23{fill:#3575b6;}.cls-24{fill:#006b9d;}.cls-25{fill:#006fba;}.cls-26{fill:#a3c7e9;}.cls-27{fill:#4789c8;}.cls-28{fill:#92b1c8;}.cls-29{fill:#59778b;}.cls-30{fill:#435968;}.cls-31{fill:#1e282f;}.cls-32{fill:#91b9dc;}.cls-33{fill:#4c98cb;}.cls-34{fill:#73a8d4;}.cls-35{fill:#ceddef;}.cls-36{fill:#acbbd2;}.cls-37{fill:#91a4c2;}.cls-38{fill:#7991b4;}.cls-39{fill:#4f719a;}.cls-40{fill:#b4d9f3;}.cls-41{fill:#d1e6f7;}.cls-42{fill:#1269a2;}.cls-43{fill:#007bc1;}.cls-44{fill:#98b1d6;}.cls-45{fill:#7c9fcd;}.cls-46{fill:#2f3640;}.cls-47{fill:#233065;}.cls-48{fill:#616d7d;}.cls-49{fill:#8aa7b7;}.cls-50{fill:#37384f;}.cls-51{fill:#ffaa81;}.cls-52{fill:#91c9d3;}.cls-53{fill:#fff;}.cls-54{fill:#171a1f;}.cls-55{fill:#b28767;}.cls-56{fill:#230e04;}.cls-57{fill:#bc9371;}.cls-58{fill:#a7c4e4;}.cls-59{fill:#47a5b5;}.cls-60{fill:#337782;opacity:0.29;}.cls-61{fill:#333;}.cls-62{fill:#b3b2b3;}.cls-63{fill:#f9b290;}.cls-64{fill:#94aebf;}.cls-65{fill:#343c52;}.cls-66{fill:#f4901e;}.cls-67{fill:#e5e5e4;}.cls-68{fill:#d9eff1;}.cls-69{fill:#477ca8;}</style></defs><title>Asset</title><g id="Layer_2" data-name="Layer 2"><g id="pic"><ellipse class="cls-1" cx="207.39" cy="428.79" rx="207.39" ry="16.3"/><polygon class="cls-2" points="148.83 98.85 185.83 105.19 183.71 83.6 148.83 98.85"/><path class="cls-3" d="M193.36,274l58.42,2.15v22H193.69S193.69,273.71,193.36,274Z"/><path class="cls-4" d="M163.41,275.17,195,274l.29,24.28-32.12.69S163.18,274.93,163.41,275.17Z"/><path class="cls-5" d="M233.68,274l58.42,2.15v22H234S234,273.71,233.68,274Z"/><path class="cls-6" d="M206.22,275.17,235.29,274l.27,24.28L206,299S206,274.93,206.22,275.17Z"/><polygon class="cls-5" points="298.53 148.86 307.09 148.47 306.23 145.99 298.53 148.86"/><polygon class="cls-7" points="296.45 87.79 286.03 82.95 286.03 101.83 296.45 106.21 296.45 87.79"/><polygon class="cls-8" points="203.69 209.06 160.42 207.36 186.92 204.42 205.95 206.23 203.69 209.06"/><polygon class="cls-9" points="186.96 205.32 251.83 209.25 251.52 200.94 214.82 199.59 186.96 205.32"/><path class="cls-10" d="M188.15,409.38l34.68,1.36v22.05l-35.34-1.66S187.9,409.16,188.15,409.38Z"/><polygon class="cls-11" points="255.3 434.66 308.08 421.57 308.08 403.62 255.3 412.82 255.3 434.66"/><polygon class="cls-11" points="155.02 385.42 206.06 377.64 251.22 377.64 310.65 381.8 302.27 387.16 256.96 392.45 157.13 388.52 155.02 385.42"/><path class="cls-12" d="M161.7,363.79l25.6-.57.49,22.32-26.32-.85S161.51,363.56,161.7,363.79Z"/><polygon class="cls-13" points="308.54 255.67 308.38 276.2 292.1 276.14 292.31 254.42 308.54 255.67"/><polygon class="cls-14" points="306.8 188.26 266.02 190.22 177.67 186.75 153.21 185.39 254.7 174.97 306.8 188.26"/><polygon class="cls-15" points="292.38 212.2 292.38 234.55 307.93 236.51 307.93 215.9 292.38 212.2"/><polygon class="cls-16" points="160.46 186.86 160.46 207.36 187.71 205.49 187.63 184.89 160.46 186.86"/><polygon class="cls-17" points="187.4 184.46 187.49 205.43 222.04 203.58 221.63 181.98 187.4 184.46"/><polygon class="cls-18" points="273.95 189.54 273.95 206.08 221.62 203.66 221.17 181.99 273.95 189.54"/><polygon class="cls-19" points="274.33 158.81 274.33 181.16 257.41 178.59 257.41 154.58 274.33 158.81"/><rect class="cls-20" x="196.7" y="137.82" width="35.49" height="24.32"/><polygon class="cls-3" points="189.88 136.77 198.85 140.16 198.85 161.15 189.75 159.71 189.88 136.77"/><polygon class="cls-21" points="189.88 136.77 198.79 140.32 257.04 135.48 257.11 130.99 189.88 136.77"/><polygon class="cls-22" points="156.07 139.78 156.07 162.28 189.91 159.71 189.91 136.76 156.07 139.78"/><polygon class="cls-23" points="290.67 121.54 272.21 114.78 272.21 137.08 291.47 143.63 290.67 121.54"/><polygon class="cls-24" points="290.11 122.33 306.8 129.28 307.08 148.46 290.26 142.76 290.11 122.33"/><polygon class="cls-25" points="159.79 103.68 198.38 114.78 221.79 111.97 187.79 99.45 159.79 103.68"/><polygon class="cls-26" points="254.7 85.26 148.83 98.85 148.83 78.16 254.7 64.57 254.7 85.26"/><polygon class="cls-27" points="187.79 99.45 159.79 103.68 159.55 82.24 187.55 78.01 187.79 99.45"/><polygon class="cls-6" points="218.11 88.43 218.31 111.09 254.53 107.77 254.53 84.21 218.11 88.43"/><polygon class="cls-2" points="254.47 64.61 271.35 74.35 271.35 94.13 254.58 85.45 254.47 64.61"/><polygon class="cls-15" points="270.93 74.08 270.93 96.28 286.19 102.02 286.19 81.94 270.93 74.08"/><polygon class="cls-13" points="188.43 431.18 155.92 429.37 155.92 407.62 188.43 409.44 188.43 431.18"/><polygon class="cls-28" points="255.26 434.62 222.75 432.81 222.75 411.06 255.26 412.87 255.26 434.62"/><polygon class="cls-28" points="274.22 410.08 255.72 413.48 255.72 389.16 274.29 387.12 274.22 410.08"/><polygon class="cls-28" points="310.76 403.74 291.5 407 291.44 384.55 310.54 381.69 310.76 403.74"/><polygon class="cls-12" points="155.02 385.42 155.02 407.85 256.06 413.51 256.06 389.27 155.02 385.42"/><polygon class="cls-29" points="274.24 387.19 233.97 385.08 256.21 381.72 294.42 384.14 274.24 387.19"/><polygon class="cls-5" points="221.47 387.84 277.58 379.08 277.58 361.86 220.72 365.6 221.47 387.84"/><polygon class="cls-30" points="294.49 406.57 274.18 410.19 274.25 387.19 294.42 384.06 294.49 406.57"/><path class="cls-6" d="M185.83,364.43l35.64,1.36v22l-35.34-1.66S185.58,364.2,185.83,364.43Z"/><polygon class="cls-31" points="185.83 364.43 236.01 359.14 277.58 361.86 221.47 365.79 185.83 364.43"/><polygon class="cls-11" points="161.7 363.79 187.34 360.88 215.43 361.79 185.83 364.43 161.7 363.79"/><polygon class="cls-32" points="156.15 339.66 156.15 360.96 252.88 364.81 252.88 340.34 156.15 339.66"/><polygon class="cls-33" points="272.67 339.29 272.82 361.94 294.87 359.67 294.87 337.77 272.67 339.29"/><polygon class="cls-34" points="274.18 339.06 274.33 361.94 252.58 364.73 252.58 340.49 274.18 339.06"/><polygon class="cls-32" points="293.55 337.96 293.93 359.79 310.73 357.86 310.12 336.94 293.55 337.96"/><polygon class="cls-5" points="252.77 320.18 310.08 317.01 310.06 337.38 252.77 341.25 252.77 320.18"/><rect class="cls-15" x="156.04" y="320.07" width="31.04" height="21.18"/><rect class="cls-35" x="186.96" y="320.07" width="31.04" height="21.18"/><rect class="cls-6" x="217.88" y="320.07" width="34.89" height="21.18"/><polygon class="cls-36" points="154.87 298.36 154.87 321.31 253.68 320.65 253.68 295.94 154.87 298.36"/><polygon class="cls-37" points="272.18 295.7 272.38 319.46 253.68 320.65 253.68 295.94 272.18 295.7"/><polygon class="cls-38" points="309.13 295.48 309.43 317.22 289.93 318.38 289.83 295.76 309.13 295.48"/><polygon class="cls-39" points="290.5 295.39 290.75 318.35 272.16 319.53 272.11 295.63 290.5 295.39"/><polygon class="cls-11" points="292.51 254.39 292.44 276.22 275.18 276.15 275.3 253.07 292.51 254.39"/><path class="cls-34" d="M281,213.93l11.41-1.81v22.43h-9.93S281.14,213.76,281,213.93Z"/><polygon class="cls-33" points="288.98 209.55 288.98 232.81 272.97 231.15 272.97 206.38 288.98 209.55"/><polygon class="cls-6" points="153.88 209.49 153.88 232.45 255.72 227.62 255.6 203.21 153.88 209.49"/><polygon class="cls-5" points="274.18 206.38 274.18 229.64 255.45 227.22 255.45 203.21 274.18 206.38"/><polygon class="cls-40" points="257.87 226.73 308.73 233.87 309.27 256.13 258.09 252.33 257.87 226.73"/><polygon class="cls-15" points="223.28 252.79 187.94 253.96 188.37 229.77 223.28 228.13 223.28 252.79"/><polygon class="cls-41" points="258.09 252.22 223.21 252.78 223.28 227.98 257.98 226.62 258.09 252.22"/><polygon class="cls-37" points="158.36 231.27 158.36 256.3 191.77 256.3 191.77 229.68 158.36 231.27"/><polygon class="cls-19" points="153.66 255.01 257.87 251.69 257.87 276.15 153.36 277.36 153.66 255.01"/><polygon class="cls-20" points="231.13 183.35 274.33 181.16 290.04 184.78 251.41 186.41 231.13 183.35"/><polygon class="cls-42" points="306.12 188.18 289.36 184.71 289.36 163.11 305.97 167.34 306.12 188.18"/><polygon class="cls-5" points="289.88 163.19 274.33 158.81 274.33 181.16 290.04 184.78 289.88 163.19"/><polygon class="cls-42" points="153.21 162.51 153.21 185.39 257.41 178.59 257.41 154.58 153.21 162.51"/><polygon class="cls-43" points="218.29 110.68 187.49 99.61 187.47 78.01 218.11 88.43 218.29 110.68"/><polygon class="cls-5" points="305.89 109.27 254.54 84.2 254.54 107.76 305.74 128.9 305.89 109.27"/><polygon class="cls-44" points="153.36 117.87 153.36 140.69 255.15 131.27 255.15 106.7 153.36 117.87"/><polygon class="cls-45" points="273.13 114.03 255.15 106.7 255.15 131.27 273.23 136.53 273.13 114.03"/><polygon class="cls-4" points="306.16 167.34 257.64 154.73 257.64 130.79 306.16 147.75 306.16 167.34"/><polygon class="cls-22" points="222.38 134.04 222.38 157.68 258.02 154.58 257.72 130.72 222.38 134.04"/><polygon class="cls-14" points="275.48 252.99 275.5 276.17 257.6 276.11 257.6 251.61 275.48 252.99"/><path class="cls-46" d="M356.78,453.11c.05,0,.87.45.93.49,1.28.8,4.06.72,6.79.34a21.46,21.46,0,0,0,4.75-1.26c1.12-.47,3.39-3.72,2-4.76a4.44,4.44,0,0,0-1.41-.71c-1.34-.13-2.59.78-3.87.62-3.18-.42-5.56-1.39-7.31-.31C356.44,448.9,355.58,452.19,356.78,453.11Z"/><path class="cls-47" d="M359.84,437.81,335.66,460.3a3.45,3.45,0,0,1-4.72,0h0a3.45,3.45,0,0,1-.29-4.71l19.86-23.95a3.81,3.81,0,0,1,3.88-1.25l3.83,1A3.78,3.78,0,0,1,359.84,437.81Z"/><path class="cls-47" d="M346.81,438.19l-30.36-14.3a1.52,1.52,0,0,0-.06-.2l8.32-14.85a.15.15,0,0,1,.2,0l33.72,21.91.6.39.08.05c3.48,2.35,1.4,7.89-2.8,7.74l-8-.28A4.28,4.28,0,0,1,346.81,438.19Z"/><path class="cls-48" d="M357.73,453.34a16.73,16.73,0,0,0,5.46.05,21.24,21.24,0,0,0,4.75-1.27c1.29-.53,4.1-4.77,1.15-5.06-1.35-.13-3.12.38-4.39.21-3.19-.41-6.09-1.71-7.84-.64-1.06.65-2.1,3.31-2.1,4.44S357.09,453.2,357.73,453.34Z"/><path class="cls-47" d="M325.5,442.71l32.29,3.43a3.45,3.45,0,0,1,3.08,3.58h0a3.45,3.45,0,0,1-3.37,3.3l-32.46.67a5.51,5.51,0,0,1-5.52-4.39h0A5.51,5.51,0,0,1,325.5,442.71Z"/><path class="cls-47" d="M328.83,451.89a6.46,6.46,0,0,1-8.4-.31L297,429.82a2.24,2.24,0,0,1-.05-3.29l9-8.65a2.25,2.25,0,0,1,3.28.18l20.55,24.66a6.44,6.44,0,0,1-.93,9.17Z"/><path class="cls-47" d="M294.8,424.76c-.21-1.13-.34-7.8-.34-7.8,0-3.78,6-5.94,19-7.44,4.15-.48,12.35-1.73,12.71,2.12,1.3,13.72-3.58,15-13.27,18C303,432.81,295.55,432.88,294.8,424.76Z"/><polygon class="cls-49" points="362.92 418.2 330.97 436.82 310.41 424.95 342.36 406.33 362.92 418.2"/><polygon class="cls-50" points="362.92 418.2 330.97 436.82 347.91 419.33 379.85 400.71 362.92 418.2"/><path class="cls-51" d="M331.89,359.33l.95,31.31-.62-2,9.34,19.9a2.59,2.59,0,0,1-4.46,2.6l-12.73-17.92a3,3,0,0,1-.56-1.5l-.05-.5-3-31.18a5.58,5.58,0,1,1,11.1-1.06C331.88,359.09,331.89,359.22,331.89,359.33Z"/><path class="cls-52" d="M333.81,359.76v-.57a7.11,7.11,0,0,0-14.21.57l.48,11.93,13.27-.51Z"/><path class="cls-51" d="M333.34,414.44A7.1,7.1,0,0,1,334,411a7.58,7.58,0,0,1,2.67-2.63,1.69,1.69,0,0,1,1.93,2.78,1.94,1.94,0,0,1-.43.22,5.39,5.39,0,0,0-2.07,1,5.11,5.11,0,0,0-1,2.27v0a.84.84,0,0,1-1,.61A.85.85,0,0,1,333.34,414.44Z"/><path class="cls-51" d="M338.88,407.4c-1,.21-2.17.55-2.57,1.49s.6,3,1.65,4.07c1.81.73,7.79-.33,6.82-1.85C343.32,408.82,341.56,406.82,338.88,407.4Z"/><path class="cls-51" d="M342.31,417.35a16.81,16.81,0,0,0-.46-2.85,3.77,3.77,0,0,0-1.45-1.93,1.2,1.2,0,0,1-.13-1.67,1.18,1.18,0,0,1,1.67-.13l.1.09,0,0a5.93,5.93,0,0,1,1.61,3.21,17.27,17.27,0,0,1,0,3.21.69.69,0,0,1-.73.66A.71.71,0,0,1,342.31,417.35Z"/><path class="cls-51" d="M344.31,416.38a15.7,15.7,0,0,0-.85-2.76,3.79,3.79,0,0,0-1.69-1.72,1.18,1.18,0,0,1,1.27-2l.11.08,0,0a6,6,0,0,1,2,3,17.75,17.75,0,0,1,.45,3.18.7.7,0,0,1-.63.76A.71.71,0,0,1,344.31,416.38Z"/><path class="cls-51" d="M346.31,413.85a5.52,5.52,0,0,0-1.52-2.23,6,6,0,0,0-2.57-.63h0a1.18,1.18,0,0,1,.36-2.34l.18.05c.47.15,1,.28,1.58.49a4.46,4.46,0,0,1,1.71,1,7,7,0,0,1,1.59,3.18.68.68,0,0,1-.47.86.69.69,0,0,1-.83-.38Z"/><path class="cls-51" d="M338.62,417.73a10.84,10.84,0,0,0-.75-4.88,1.19,1.19,0,0,1,2.18-.94.76.76,0,0,1,.06.2l0,.06a12.65,12.65,0,0,1-.14,5.75.69.69,0,0,1-1.37-.19Z"/><path class="cls-52" d="M296.84,364.36c6.07-8.9,27.25-14.05,31.85-11,2.12,1.28,2.41,6.17,2.74,13.62.83,12.45-6.17,25.2-5.94,37.68.05,2.87,1.82,5.16.19,7.53-1.41,2.07-15.83,8.5-19.46,9-8.35,1-12.46-3.15-12.3-6.82C292,395.51,292.39,383.06,296.84,364.36Z"/><path class="cls-53" d="M323.16,356.56c-8-4.21-14.43-.54-14.69,1.77l10.82,12Z"/><path class="cls-51" d="M317.35,360.92c1.24-.11,1.9-1.18,2.36-3.57.28-1.47,1.52-5.51,1.15-6.87-.42-1.53-2.74-5.63-4.07-4.57-.83,2.43-1.41,4.28-1.73,5.18-.95,2.64-1.56,4.21-1.84,5.34C312.58,359.11,315.66,361.07,317.35,360.92Z"/><path class="cls-51" d="M316.59,346.79c-2-5.17,2-12.92,7.43-14.12,4.88-1.09,11.17,3.72,10.93,10.55-.16,4.77-7.37,15-12.82,13.81C319.21,356.39,315.72,349.55,316.59,346.79Z"/><path class="cls-54" d="M316.21,334.65c1.45-1.9,4-3.08,6.22-2,1.34-2.76,5.72-3.12,8.3-1.67,2.07,1.17,5.61,5.73,6.88,7.65a6.27,6.27,0,0,0,.6.66,4.42,4.42,0,0,1,.54,6c-2.8,3.25-9.19,1.3-14.66-4.55a18.88,18.88,0,0,1-4.5,5.07c-.51-1.83-1.41-2.83-2.78-1.95-1.26,2.68,1.71,5.92-3,5.86-1.7,0-1.71-1.68-1.41-2.93C313.8,340.85,314.33,337.11,316.21,334.65Z"/><path class="cls-51" d="M327.35,417.4c-1.37.16-2.71.2-3.88.42a4.8,4.8,0,0,0-1.5.49,1.24,1.24,0,0,0-.62.7,1.71,1.71,0,0,1-3.27-1,1.78,1.78,0,0,1,.22-.46l.19-.27a4.54,4.54,0,0,1,2.43-1.69,7.78,7.78,0,0,1,2.37-.26c1.45.05,2.76.29,4,.4a.85.85,0,0,1,.77.92A.86.86,0,0,1,327.35,417.4Z"/><path class="cls-51" d="M317.71,417.9c-.69.75-1.45,1.71-1.23,2.71s1.34,1.57,2.31,1.88c1.3.41,3.48.79,5,1.08,1.9-.46,2.58-5.39.91-6.07C322.15,416.48,319.55,415.87,317.71,417.9Z"/><path class="cls-51" d="M331,421.46a10.91,10.91,0,0,0-8.31-2.15,1.18,1.18,0,1,1-.36-2.33l.11,0h0a12.84,12.84,0,0,1,9.42,3.44.69.69,0,0,1,0,1A.71.71,0,0,1,331,421.46Z"/><path class="cls-51" d="M330.89,424a11.79,11.79,0,0,0-4-2.84,7.1,7.1,0,0,0-4.41-.68l-.05,0a1.19,1.19,0,0,1-.69-2.27l.15,0a8.93,8.93,0,0,1,5.84,1.29,13.31,13.31,0,0,1,4.29,3.65.7.7,0,0,1-1.08.88Z"/><path class="cls-51" d="M328.78,425a9.6,9.6,0,0,0-6.8-3.81,1.18,1.18,0,1,1,.13-2.36l.15,0h.05a10.78,10.78,0,0,1,4.42,1.9,13.46,13.46,0,0,1,3.17,3.41.7.7,0,0,1-1.12.83Z"/><path class="cls-51" d="M327.27,425.54a8.13,8.13,0,0,0-5.07-2.24,1.18,1.18,0,0,1,.18-2.36.69.69,0,0,1,.2,0h0a10.91,10.91,0,0,1,3.18,1.33,10.55,10.55,0,0,1,2.47,2.27.69.69,0,0,1-.08,1A.7.7,0,0,1,327.27,425.54Z"/><path class="cls-51" d="M305.89,370.11l-11.6,30.67-1.72-5.22L318.69,416a2.59,2.59,0,0,1-2.93,4.25l-28.35-17.15a4.19,4.19,0,0,1-1.84-4.83l.12-.39,9.66-31.33A5.57,5.57,0,1,1,306,369.78,3.19,3.19,0,0,1,305.89,370.11Z"/><path class="cls-52" d="M307.5,371.71a5.52,5.52,0,0,0,.18-.53,7.11,7.11,0,1,0-13.62-4.08L290,380.72l12.15,4.79Z"/><path class="cls-48" d="M334.87,458.18l-2.78-1.37a1.93,1.93,0,0,0-2.37.52l-2.64,3.28,9.68,12.29c1.19-.77,1.86-1.7,1.15-3.07a46.69,46.69,0,0,1-1.69-4.5l-.28-5.51A1.92,1.92,0,0,0,334.87,458.18Z"/><polygon class="cls-46" points="336.76 472.9 337.09 472.14 329.53 462.75 327.08 460.61 327.08 462.41 329.53 465.13 335.45 472.57 336.76 472.9"/><path class="cls-55" d="M55.36,421.5c.77-.63,2-.91,2.76-1.54.38-.31,1.27-.83,1.32-1.17a10.46,10.46,0,0,0,0-2.53,9.15,9.15,0,0,0,4.88-.74c0,.47,0,1.91,0,2.36a18.61,18.61,0,0,1,.5,2.28c.14,1.23.35,2.76-.58,3.75a3.69,3.69,0,0,1-2.82.8c-1.12,0-4.17.16-4.53.13C55.71,424.73,52.07,424.17,55.36,421.5Z"/><path class="cls-56" d="M64.65,423.09a2.32,2.32,0,0,1-.5.82,3.69,3.69,0,0,1-2.82.8c-1.12,0-5.76.13-6.12.09-.76-.07-1.19-.34-1.19-1.43C58,421.83,59.84,424.08,64.65,423.09Z"/><path class="cls-57" d="M73.39,309.2s-3,36.55-4.34,46.28-4.78,60.63-4.78,60.63l-2.38,1.37-2.48-.32s-2.23-40.64-3.13-48.48-3.42-49.57-2.19-62.48C54.83,298.37,67.46,283,73.39,309.2Z"/><path class="cls-55" d="M56.12,367.1c-.92-9.84-2.81-42.64-2.25-57.46l13.44,3.66C67.22,320,58.18,354.78,56.12,367.1Z"/><path class="cls-55" d="M87.39,419a11.48,11.48,0,0,0,1.26.27,6.86,6.86,0,0,0,4.78-1c0,.22,0,.35,0,.35a64.17,64.17,0,0,1,12,2.53c6.06,1.95,6.39,4.07-1.86,3.6-14.87.33-15.9.38-16-3.31A22.64,22.64,0,0,0,87.39,419Z"/><path class="cls-56" d="M107.84,423.34a1.74,1.74,0,0,0,1.29-.51c1.93,1.33.45,2.34-5.51,2-7.38.17-12.47.34-14.61-.06-1.49-.28-1-.87-1.2-1.78C94.49,423.14,101.15,423.34,107.84,423.34Z"/><path class="cls-57" d="M88.62,311.07s1.79,37.74,1.7,47.55,3,58.92,3,58.92L90.21,419l-3-.78S81.43,382.63,79.57,375s-8.59-49-9.7-56.75S79.49,285.79,88.62,311.07Z"/><path class="cls-58" d="M93.26,417.24c.1.66.18,1.2.2,1.39-1.28,2.06-3.92,1.48-6,.54,0-.24-.21-1.15-.24-1.38C89.27,418.22,91.49,418.59,93.26,417.24Z"/><path class="cls-58" d="M64.27,416.11c0,.12,0,1.37,0,1.49s-2.17,1.65-4,1.16c-.26-.07-.52-.17-.77-.26,0-.35,0-1.4,0-1.78A6.83,6.83,0,0,0,64.27,416.11Z"/><path class="cls-59" d="M126.31,271.1a.25.25,0,0,0-.37-.05c-4.48,3.68-13.92,10.5-18.43,8.21-2.14-1.09-6.38-4.71-9.59-8.78-1.24-1.59-2.39-3.25-2.62-3.65-2.62-4.57-9.9-9.7-13-8.27-2.81,1.27-1.25,7.33,3.46,12.49,1.33,1.45,3.86,3.43,6.35,5.57l.07.07c3.6,4.06,8.11,8,11.94,9.8a10.54,10.54,0,0,0,3,.87,12,12,0,0,0,6.31-1,22.72,22.72,0,0,0,5.64-3.6c1.62-1.36,5.91-5.19,7.32-6.77.41-.46,1.45-1.49,2-2.07a.25.25,0,0,0,0-.33C127.59,272.77,126.92,272,126.31,271.1Z"/><path class="cls-60" d="M96.67,270c-.14-.61-.29-1.22-.45-1.82-.46-.66-.81-1.17-.92-1.37-2.62-4.57-9.9-9.7-13-8.27-2.81,1.27-1.25,7.33,3.46,12.49,1.33,1.45,3.86,3.43,6.35,5.57l.07.07A54.23,54.23,0,0,0,99,283.24,56.39,56.39,0,0,1,96.67,270Z"/><path class="cls-59" d="M56.49,283.59c3.06-22.07,1.12-24.16,5.79-26.71a26.77,26.77,0,0,1,19.16-1.08,14.76,14.76,0,0,1,4.69,3c4.54,4.29,5.26,9.83,1.92,19.66-3.08,9.06.57,32.63.57,32.63-11,4.81-34.95,2.42-34.95,2.42S54.21,300.09,56.49,283.59Z"/><path class="cls-60" d="M66.35,308.47c-1.32-5.48-2.62-11-3.4-16.56A130.81,130.81,0,0,1,61.73,274c0-4-.4-8.28-.08-12.38-1.87,3.18-3.18,9.09-5.16,22a256.47,256.47,0,0,0-2.82,29.9s6.42.64,14.13.59Q67,311.29,66.35,308.47Z"/><path class="cls-51" d="M79.72,234.47a27.84,27.84,0,0,0,1.49,4.77c1.13,2.83,4,9.86-1,11.25s-7.39,1.46-8.78.46-7.34-7.69-6.07-12.08S74.05,226.36,79.72,234.47Z"/><path class="cls-61" d="M79.54,231.05a8.68,8.68,0,0,0-2.93-.94,9.52,9.52,0,0,0-2.06-.19,11.39,11.39,0,0,0-7.79,2.63,3.16,3.16,0,0,0-1.18,1.9,7.39,7.39,0,0,0-1,1.22A9,9,0,0,0,64,243.2a13.36,13.36,0,0,0,7.57,8.2,2.18,2.18,0,0,0,.78.19,1.14,1.14,0,0,0,.64-1.18,2.7,2.7,0,0,0-.2-.65,1.18,1.18,0,0,1-.83-.75c-.3-.75-1.12-1.36-1.47-2.16a2.35,2.35,0,0,1,.43-2.69,1.34,1.34,0,0,1,1.18-.29c.48.14.62.64,1,.81a.7.7,0,0,0,.85-.4c.09-.32-.27-.93-.37-1.23-.62-1.89-2.14-4.33-.55-6.15a7.37,7.37,0,0,1,3.14-1.8A8.19,8.19,0,0,1,78,235c.82-.11,2.33-.47,2.66-1.36A2.5,2.5,0,0,0,79.54,231.05Z"/><path class="cls-51" d="M71.65,254.72c.34-.88.47-1.83.72-2.72a9.41,9.41,0,0,1,.61-2.13c.46-.83,1.41-.9,2.26-1.09,1.65-.36,4.1-.38,4.28,1.4.14,1.41-1.35,3.59-.35,4.86v3.23a17.56,17.56,0,0,1-7.52,1.4Z"/><path class="cls-51" d="M69.13,257.84A4.34,4.34,0,0,1,70,257a2.17,2.17,0,0,0,.24-.29,4.51,4.51,0,0,0,1.1-1.79h0A21,21,0,0,0,72.37,252a7.89,7.89,0,0,0,6.69.88c-.1.63.56,5.51.56,5.51a19.14,19.14,0,0,1-8,1.37,4,4,0,0,1-1.87-.42A1.19,1.19,0,0,1,69.13,257.84Z"/><path class="cls-61" d="M81.65,227.14c-.27-.36-.7-.7-1.11-.53-.56.25-.36,1.08-.54,1.67-.3,1-1.6,1.11-2.61,1a39.84,39.84,0,0,0-5.11-.25c-2.54.13-6.25,1.28-6.78,4.22a2.53,2.53,0,0,0,0,1.18,9,9,0,0,0-4,5.22,5.31,5.31,0,0,0-.08,2.41,8,8,0,0,0,1.8,3.07,19.35,19.35,0,0,0,4,4,.81.81,0,0,0,.5.2c.59,0,.58-.87.51-1.45a5.48,5.48,0,0,1,1.56-4.06c1-1.14,2.18-2.06,3.14-3.21a12.8,12.8,0,0,0,2.64-5.91,10.87,10.87,0,0,0,4.27-.59,4.65,4.65,0,0,0,1.8-7Z"/><path class="cls-51" d="M140.08,265.09a1.39,1.39,0,0,0-.93-.08l0,0a.58.58,0,0,0,.13-.14.36.36,0,0,0-.07-.5,2.06,2.06,0,0,0-1.37,0,3,3,0,0,0-.86.15l-2,.59-.23.06-1.12.33c0-.32,1.09-1.64-.51-2.21-.94,2.61-5,4.38-5.78,6.23a2.9,2.9,0,0,1-1.25,1.57c-.83.6.83,2.38,1.59,2.78.18.1.36.2.53.08,1.78-1.19,3.3-.83,3.83-1a24.74,24.74,0,0,0,6.36-3.76A7.51,7.51,0,0,0,140,267.7a1,1,0,0,0,.23-.39.35.35,0,0,0-.23-.45h-.08l.1-.07a1,1,0,0,0,.33-.31.37.37,0,0,0-.11-.5.79.79,0,0,0-.4-.09,1,1,0,0,0,.34-.29A.36.36,0,0,0,140.08,265.09Z"/><path class="cls-59" d="M66.41,258.27c2,3.42-.84,11-5.53,14.53-.41.32-2.08,1.85-3.67,3.47h0c-4.06,4.19-7.5,9.49-8.42,12.08C45.74,297,61,309,61,309a11.84,11.84,0,0,1,1.46,1.8c1,1.43,1,3.4-.2,2.68-1.62-1-3.72-2.39-5.68-3.75-4.15-2.9-19.9-12.41-16.13-24.41,1.45-4.62,5.25-10.31,9.27-15,2-3.13,3.9-6.3,5.33-8C60.07,256.32,64.64,255.21,66.41,258.27Z"/><path class="cls-51" d="M60.65,308.74a8.76,8.76,0,0,0,3.35,1,21.33,21.33,0,0,1,4.49,1s-.11.62-.49.78a9,9,0,0,1-2.09.06,3.61,3.61,0,0,0,.12.46c2.6,1.81,3.51,2.84,3.8,3.4a2.5,2.5,0,0,1,.71.73.39.39,0,0,1-.16.54,1.64,1.64,0,0,1,.32.63.46.46,0,0,1,0,.26c-.08.22-.54.18-.77.14.1.18.11.45-.08.53a1.11,1.11,0,0,1-.6,0c.15.16,0,.4-.32.4a5.33,5.33,0,0,1-1.64-.39c-.19-.08-.57-.17-.9-.31a9.3,9.3,0,0,1-2.09-.85c-1.23-.72-3.25-2-3.59-3.25a6.87,6.87,0,0,0-1.84-2.57Z"/><polygon class="cls-62" points="405.96 287.77 417.88 246.78 408.05 244.84 401.24 269.3 387.41 258.55 384.1 260.81 405.96 287.77"/><path class="cls-63" d="M384.1,260.81l-2.35-2.26a3.71,3.71,0,0,1-1.15-2.77l.06-3.27a.21.21,0,0,1,.39-.11l2,3.39a1.08,1.08,0,0,0,1,.52h0a2.78,2.78,0,0,1,2.38,1.06l.93,1.18Z"/><polygon class="cls-46" points="407.74 350.46 407.74 299.06 435.16 299.06 442.7 350.32 458.31 405.35 453.21 405.35 431.14 350.32 424.44 314.74 419.3 350.46 411.51 405.49 406.41 405.49 407.74 350.46"/><polygon class="cls-64" points="443.69 410.56 448.45 410.56 453.21 409.15 453.21 405.35 448.45 407.46 443.69 408.49 443.69 410.56"/><polygon class="cls-64" points="454.7 410.56 458.31 410.56 458.31 405.35 453.21 405.35 453.21 409.15 454.7 410.56"/><polygon class="cls-64" points="396.88 410.69 401.65 410.69 406.41 409.28 406.41 405.49 401.65 407.6 396.88 408.63 396.88 410.69"/><polygon class="cls-64" points="407.9 410.69 411.51 410.69 411.51 405.49 406.41 405.49 406.41 409.28 407.9 410.69"/><path class="cls-53" d="M438.19,293.37l1.8,15.37H409.15v-63c0-3.72,3.29-6.73,7.35-6.73h20.26c4.38,0,7.79,3.5,7.29,7.49Z"/><path class="cls-62" d="M416.15,239,414.51,351.3h-9.13l-.92-57.81,3.37-46.83c-.05-4.23,3.68-7.69,8.31-7.69Z"/><path class="cls-62" d="M430.1,351.3l-4.34-58,8-54.29h4.34c5.12,0,9,4.2,8.2,8.82l-8.07,45.58L445,351.3Z"/><path class="cls-62" d="M436,306.37l26.48-24.55a5.6,5.6,0,0,0,1.1-8.12l-18-30.38-13.16,9.44,16.19,23a2.69,2.69,0,0,1,0,3.8l-15.68,22.55Z"/><path class="cls-63" d="M431.12,303l2.34-1.11,3.72,3.47-1.57,1.07a4.18,4.18,0,0,1-2.79.57Z"/><polygon class="cls-63" points="430.63 239.06 422.46 241.69 418.26 239.06 430.63 239.06"/><path class="cls-65" d="M385.53,256.71h0a1.32,1.32,0,0,0,.25-1.86l-9.29-12.16a1.33,1.33,0,0,0-1.87-.25h0a1.34,1.34,0,0,0-.25,1.87l9.29,12.15A1.33,1.33,0,0,0,385.53,256.71Z"/><rect class="cls-66" x="372.55" y="243.28" width="8.01" height="17.97" rx="1.57" transform="translate(828.92 223.99) rotate(142.6)"/><path class="cls-51" d="M424.11,243.47c-1.17-.29-1.64-1.41-1.72-3.78-.05-1.47-.63-5.54-.07-6.79.63-1.4,3.48-5,4.6-3.77.43,2.45.71,4.32.88,5.23.51,2.69.87,4.29,1,5.42C429,242.45,425.72,243.87,424.11,243.47Z"/><path class="cls-67" d="M428.28,236.76a15.93,15.93,0,0,1,2.35,3.26c.94,1.61-.7,6.44-3.43,9.28-2.65-1.51-4.23-4.67-3.36-6.9A5,5,0,0,0,428.28,236.76Z"/><path class="cls-67" d="M423.84,242.4l.27,1.37a9,9,0,0,1-6.23,2.13c.77-1.64,2.06-5.23,4.39-7.83C422.39,239.69,422.3,241.89,423.84,242.4Z"/><path class="cls-51" d="M428,230.46c4.33-3.21,5.12-11.65,1.32-15.48-3.43-3.45-11.11-2.8-14.5,2.92-2.37,4-1.83,16.17,3.26,18C420.84,237,427.29,233.18,428,230.46Z"/><path class="cls-46" d="M434.71,220.71c-.19-2.33-1.7-4.64-4-4.92.35-3-3.05-5.56-5.93-5.72-2.31-.14-7.6,1.75-9.65,2.65a5,5,0,0,1-.84.23,4.3,4.3,0,0,0-3.56,4.6c.59,4.13,6.85,5.88,14.4,4a18.31,18.31,0,0,0,1,6.52c1.38-1.24,2.64-1.59,3.3-.14-.37,2.86-4.5,4-.62,6.37,1.41.88,2.28-.48,2.69-1.67C433.44,227.05,435,223.72,434.71,220.71Z"/><circle class="cls-68" cx="311.36" cy="35.02" r="24.33" transform="translate(194.53 325.75) rotate(-74.53)"/><polygon class="cls-68" points="297.6 50.46 296.11 70.51 310.78 55.71 297.6 50.46"/><path class="cls-69" d="M311.92,29.78v9.8h-2.27v-4h-4.46v4h-2.27v-9.8h2.27v3.87h4.46V29.78Z"/><path class="cls-69" d="M313.81,29.78a1.25,1.25,0,0,1,1.36-1.22,1.23,1.23,0,0,1,1.36,1.18,1.37,1.37,0,0,1-2.72,0Zm.27,2.27h2.19v7.53h-2.19Z"/><path class="cls-68" d="M398,87.53l-2.43,29a8.84,8.84,0,0,1-8.9,8.1l-52.24-.53a8.85,8.85,0,0,1-8.72-8.09L323,83.83a8.84,8.84,0,0,1,9.38-9.58L389.77,78A8.84,8.84,0,0,1,398,87.53Z"/><polygon class="cls-68" points="341.92 124.03 329.41 133.62 332.53 123.88 341.92 124.03"/><path class="cls-69" d="M338.34,103.89l.77-1.71a5.8,5.8,0,0,0,3.24,1c1.34,0,1.89-.44,1.89-1,0-1.83-5.7-.57-5.7-4.21,0-1.67,1.34-3.06,4.13-3.06a6.61,6.61,0,0,1,3.4.87l-.7,1.73a5.49,5.49,0,0,0-2.71-.77c-1.35,0-1.87.5-1.87,1.12,0,1.8,5.7.56,5.7,4.16,0,1.64-1.35,3-4.16,3A7,7,0,0,1,338.34,103.89Z"/><path class="cls-69" d="M354.56,100.56v4.3h-2.05v-.94a2.45,2.45,0,0,1-2.29,1c-1.77,0-2.82-1-2.82-2.28s.94-2.26,3.24-2.26h1.73c0-.94-.56-1.48-1.73-1.48a3.62,3.62,0,0,0-2.18.7l-.78-1.53a5.8,5.8,0,0,1,3.25-.91C353.23,97.21,354.56,98.27,354.56,100.56Zm-2.19,1.92v-.77h-1.5c-1,0-1.34.37-1.34.88s.46.91,1.23.91A1.61,1.61,0,0,0,352.37,102.48Z"/><path class="cls-69" d="M356.53,94.46h2.18v10.4h-2.18Z"/><path class="cls-69" d="M367.41,100.56v4.3h-2.05v-.94a2.45,2.45,0,0,1-2.29,1c-1.77,0-2.82-1-2.82-2.28s.94-2.26,3.24-2.26h1.73c0-.94-.56-1.48-1.73-1.48a3.56,3.56,0,0,0-2.17.7l-.79-1.53a5.8,5.8,0,0,1,3.25-.91C366.08,97.21,367.41,98.27,367.41,100.56Zm-2.19,1.92v-.77h-1.49c-1,0-1.35.37-1.35.88s.46.91,1.23.91A1.61,1.61,0,0,0,365.22,102.48Z"/><path class="cls-69" d="M382.11,100.54v4.32h-2.18v-4c0-1.22-.55-1.78-1.43-1.78s-1.67.63-1.67,2v3.78h-2.18v-4c0-1.22-.52-1.78-1.43-1.78s-1.65.63-1.65,2v3.78h-2.19V97.32h2.09v.87a3.06,3.06,0,0,1,2.36-1,2.81,2.81,0,0,1,2.48,1.23A3.41,3.41,0,0,1,379,97.21C380.82,97.21,382.11,98.25,382.11,100.54Z"/><circle class="cls-68" cx="110.97" cy="65.2" r="24.33" transform="matrix(0.56, -0.83, 0.83, 0.56, -5.5, 119.97)"/><polygon class="cls-68" points="124.73 80.64 126.22 100.69 111.54 85.88 124.73 80.64"/><path class="cls-69" d="M95,63.15a5.4,5.4,0,0,1,9.36-3.33l-1.46,1.34A3.15,3.15,0,0,0,100.41,60a3.14,3.14,0,1,0,0,6.28,3.1,3.1,0,0,0,2.46-1.16l1.46,1.34A5.39,5.39,0,0,1,95,63.15Z"/><path class="cls-69" d="M105.43,58.25A1.25,1.25,0,0,1,106.79,57a1.23,1.23,0,0,1,1.36,1.18,1.37,1.37,0,0,1-2.72,0Zm.27,2.27h2.18v7.53H105.7Z"/><path class="cls-69" d="M116.58,63.75v4.3h-2v-.93a2.47,2.47,0,0,1-2.29,1c-1.77,0-2.82-1-2.82-2.29s.94-2.25,3.24-2.25h1.73c0-.94-.56-1.49-1.73-1.49a3.63,3.63,0,0,0-2.17.7l-.79-1.52a5.8,5.8,0,0,1,3.25-.91C115.25,60.41,116.58,61.47,116.58,63.75Zm-2.19,1.92V64.9H112.9c-1,0-1.35.38-1.35.89s.46.91,1.23.91A1.61,1.61,0,0,0,114.39,65.67Z"/><path class="cls-69" d="M118.07,64.29a4.15,4.15,0,1,1,4.15,3.88A3.88,3.88,0,0,1,118.07,64.29Zm6.07,0a1.93,1.93,0,1,0-1.92,2.08A1.9,1.9,0,0,0,124.14,64.29Z"/><path class="cls-68" d="M5,175.15l2.44,29a8.85,8.85,0,0,0,8.9,8.11l52.23-.54a8.85,8.85,0,0,0,8.72-8.09l2.76-32.2a8.85,8.85,0,0,0-9.38-9.58l-57.43,3.72A8.84,8.84,0,0,0,5,175.15Z"/><polygon class="cls-68" points="61.1 211.66 73.62 221.24 70.5 211.5 61.1 211.66"/><path class="cls-69" d="M28.17,177.79h2.07v4a6.75,6.75,0,0,1-4,1.24,5.08,5.08,0,1,1,0-10.14,5.25,5.25,0,0,1,4.11,1.7L29,175.91a3.32,3.32,0,0,0-2.54-1.11,3.14,3.14,0,1,0,0,6.28,3.57,3.57,0,0,0,1.76-.42Z"/><path class="cls-69" d="M39.78,175.31v7.53H37.7V182a3,3,0,0,1-2.34,1c-1.89,0-3.22-1.07-3.22-3.39v-4.26h2.19v3.94c0,1.26.56,1.82,1.53,1.82s1.73-.65,1.73-2v-3.72Z"/><path class="cls-69" d="M46.66,182.48a3.11,3.11,0,0,1-1.78.48,2.49,2.49,0,0,1-2.81-2.71v-3.09H40.91v-1.68h1.16v-1.84h2.18v1.84h1.88v1.68H44.25v3.07a.88.88,0,0,0,.94,1,1.5,1.5,0,0,0,.89-.28Z"/><path class="cls-69" d="M55,179.69h-5.7a2,2,0,0,0,2.16,1.52,2.55,2.55,0,0,0,1.89-.73l1.16,1.26A3.93,3.93,0,0,1,51.4,183c-2.61,0-4.31-1.64-4.31-3.88a3.84,3.84,0,0,1,4-3.88A3.73,3.73,0,0,1,55,179.1C55,179.27,55,179.51,55,179.69Zm-5.72-1.27H53a1.8,1.8,0,0,0-1.85-1.57A1.77,1.77,0,0,0,49.27,178.42Z"/><path class="cls-69" d="M64.19,178.53v4.31H62v-4c0-1.22-.56-1.78-1.53-1.78s-1.81.64-1.81,2v3.72H56.49v-7.53h2.09v.88a3.3,3.3,0,0,1,2.49-1C62.85,175.2,64.19,176.23,64.19,178.53Z"/><path class="cls-69" d="M23.58,191.69H20.44v-1.85H29v1.85H25.85v7.95H23.58Z"/><path class="cls-69" d="M36.33,195.34v4.3h-2v-.93a2.49,2.49,0,0,1-2.3,1c-1.76,0-2.81-1-2.81-2.29s.93-2.25,3.23-2.25h1.74c0-.94-.56-1.49-1.74-1.49a3.65,3.65,0,0,0-2.17.7l-.78-1.52A5.74,5.74,0,0,1,32.7,192C35,192,36.33,193.06,36.33,195.34Zm-2.18,1.92v-.77h-1.5c-1,0-1.35.38-1.35.89s.47.91,1.24.91A1.61,1.61,0,0,0,34.15,197.26Z"/><path class="cls-69" d="M46.16,192.11v6.27c0,2.81-1.51,4.09-4.23,4.09a6.27,6.27,0,0,1-3.7-1l.87-1.57a4.51,4.51,0,0,0,2.66.85c1.54,0,2.22-.7,2.22-2.06v-.32a3.12,3.12,0,0,1-2.39.94,3.64,3.64,0,1,1,0-7.28,3,3,0,0,1,2.5,1.08v-1ZM44,195.64a2,2,0,1,0-2,1.85A1.82,1.82,0,0,0,44,195.64Z"/><path class="cls-68" d="M249.67,13.29l-2.44,29a8.84,8.84,0,0,1-8.9,8.1l-52.23-.54a8.83,8.83,0,0,1-8.72-8.08L174.62,9.6A8.85,8.85,0,0,1,184,0l57.43,3.71A8.84,8.84,0,0,1,249.67,13.29Z"/><polygon class="cls-68" points="193.57 49.8 181.06 59.39 184.18 49.65 193.57 49.8"/><path class="cls-69" d="M193.61,30.57c0,1.7-1.35,2.68-3.92,2.68h-5.07V23.44h4.79c2.45,0,3.71,1,3.71,2.55a2.36,2.36,0,0,1-1.3,2.16A2.42,2.42,0,0,1,193.61,30.57Zm-6.74-5.42v2.31h2.26c1.1,0,1.71-.39,1.71-1.16s-.61-1.15-1.71-1.15Zm4.46,5.18c0-.82-.63-1.21-1.81-1.21h-2.65v2.42h2.65C190.7,31.54,191.33,31.17,191.33,30.33Z"/><path class="cls-69" d="M194.61,29.48a4.15,4.15,0,1,1,4.15,3.88A3.88,3.88,0,0,1,194.61,29.48Zm6.07,0a1.93,1.93,0,1,0-3.85,0,1.93,1.93,0,1,0,3.85,0Z"/><path class="cls-69" d="M212.05,28.93v4.32h-2.19v-4c0-1.22-.56-1.78-1.52-1.78s-1.81.65-1.81,2v3.73h-2.19V25.71h2.09v.88a3.31,3.31,0,0,1,2.49-1C210.7,25.6,212.05,26.64,212.05,28.93Z"/><path class="cls-69" d="M211.71,35.66l.58-1.59a1.6,1.6,0,0,0,.93.27c.54,0,.89-.35.89-1.09V25.71h2.19v7.52a2.62,2.62,0,0,1-2.84,2.85A3.2,3.2,0,0,1,211.71,35.66Zm2.14-12.22a1.25,1.25,0,0,1,1.36-1.22,1.23,1.23,0,0,1,1.36,1.18,1.26,1.26,0,0,1-1.36,1.26A1.24,1.24,0,0,1,213.85,23.44Z"/><path class="cls-69" d="M217.75,29.48a4.15,4.15,0,1,1,4.15,3.88A3.89,3.89,0,0,1,217.75,29.48Zm6.07,0a1.93,1.93,0,1,0-3.85,0,1.93,1.93,0,1,0,3.85,0Z"/><path class="cls-69" d="M235.08,25.71v7.54H233v-.9a3,3,0,0,1-2.34,1c-1.89,0-3.22-1.06-3.22-3.39V25.71h2.19v3.94c0,1.26.56,1.82,1.52,1.82s1.74-.65,1.74-2V25.71Z"/><path class="cls-69" d="M241.78,25.6v2a4.15,4.15,0,0,0-.49,0,1.85,1.85,0,0,0-2,2.1v3.56H237.1V25.71h2.09v1A3,3,0,0,1,241.78,25.6Z"/><path class="cls-68" d="M402.74,159.59l-2.43,29a8.84,8.84,0,0,1-8.9,8.1l-52.24-.53a8.85,8.85,0,0,1-8.72-8.09l-2.75-32.2a8.84,8.84,0,0,1,9.38-9.58L394.5,150A8.84,8.84,0,0,1,402.74,159.59Z"/><polygon class="cls-68" points="332.02 175.7 323.84 189.18 333.19 185.02 332.02 175.7"/><path class="cls-69" d="M357.25,166.21V176H355v-4h-4.46v4h-2.27v-9.81h2.27v3.87H355v-3.87Z"/><path class="cls-69" d="M358.85,172.25a4.15,4.15,0,1,1,4.15,3.88A3.88,3.88,0,0,1,358.85,172.25Zm6.07,0a1.94,1.94,0,1,0-1.92,2.09A1.91,1.91,0,0,0,364.92,172.25Z"/><path class="cls-69" d="M368.58,165.63h2.19V176h-2.19Z"/><path class="cls-69" d="M379.46,171.72V176h-2v-.94a2.47,2.47,0,0,1-2.3,1c-1.76,0-2.81-1-2.81-2.28s.93-2.26,3.23-2.26h1.74c0-.94-.56-1.48-1.74-1.48a3.59,3.59,0,0,0-2.17.7l-.78-1.53a5.74,5.74,0,0,1,3.24-.91C378.13,168.37,379.46,169.44,379.46,171.72Zm-2.18,1.92v-.77h-1.5c-1,0-1.35.38-1.35.88s.47.91,1.24.91A1.61,1.61,0,0,0,377.28,173.64Z"/></g></g></svg>