<?xml version="1.0" encoding="UTF-8"?>
<svg width="305px" height="306px" viewBox="0 0 305 306" version="1.1" xmlns="http://www.w3.org/2000/svg" xmlns:xlink="http://www.w3.org/1999/xlink">
    <!-- Generator: Sketch 51.3 (57544) - http://www.bohemiancoding.com/sketch -->
    <title>asset@1x</title>
    <desc>Created with Sketch.</desc>
    <defs></defs>
    <g id="Page-1" stroke="none" stroke-width="1" fill="none" fill-rule="evenodd">
        <g id="Demo" transform="translate(-997.000000, -232.000000)" fill-rule="nonzero">
            <g id="about" transform="translate(374.000000, 212.000000)">
                <g id="asset" transform="translate(623.000000, 20.000000)">
                    <ellipse id="Oval" fill="#E9EAEB" cx="136" cy="277.5" rx="136" ry="10.5"></ellipse>
                    <polygon id="Shape" fill="#84B8E3" points="98 58.8888374 122 63 120.624865 49"></polygon>
                    <path d="M126,175.001802 L165,176.515099 L165,192 L126.220301,192 C126.220301,192 126.220301,174.797683 126,175.001802 Z" id="Shape" fill="#6999D1"></path>
                    <path d="M106.14944,175.796556 L125.819427,175 L126,191.530236 L106,192 C106,192 106.006227,175.63316 106.14944,175.796556 Z" id="Shape" fill="#8CAEDC"></path>
                    <path d="M154,175.001802 L193,176.515099 L193,192 L154.213625,192 C154.213625,192 154.213625,174.797683 154,175.001802 Z" id="Shape" fill="#003462"></path>
                    <path d="M136.14885,175.7956 L155.817321,175 L156,191.5104 L136,192 C136,192 136,175.6324 136.14885,175.7956 Z" id="Shape" fill="#014976"></path>
                    <polygon id="Shape" fill="#003462" points="195 93 201 92.728223 200.397196 91"></polygon>
                    <polygon id="Shape" fill="#325E89" points="195 52.1212382 188 49 188 61.1754084 195 64"></polygon>
                    <polygon id="Shape" fill="#8E9CC1" points="133.510872 131 105 130.267241 122.461015 129 135 129.780172"></polygon>
                    <polygon id="Shape" fill="#5381B4" points="123 129.559006 166 132 165.794512 126.838509 141.467396 126"></polygon>
                    <path d="M123.448217,263.001052 L147,263.872413 L147,278 L123,276.936427 C123,276.936427 123.278438,262.860096 123.448217,263.001052 Z" id="Shape" fill="#140E39"></path>
                    <polygon id="Shape" fill="#779EBA" points="168 280 203 271.565722 203 260 168 265.927835"></polygon>
                    <polygon id="Shape" fill="#779EBA" points="102 247.727887 135.779605 243 165.667673 243 205 245.528022 199.453897 248.78528 169.466555 252 103.396453 249.611749"></polygon>
                    <path d="M106.148556,234.357527 L122.683511,234 L123,248 L106,247.466846 C106,247.466846 106.025836,234.213262 106.148556,234.357527 Z" id="Shape" fill="#ADC5D6"></path>
                    <polygon id="Shape" fill="#386794" points="203 162.803489 202.892944 176 192 175.961433 192.140511 162"></polygon>
                    <polygon id="Shape" fill="#005895" points="200 117.843279 173.448792 119 115.925516 116.952131 100 116.149508 166.078521 110"></polygon>
                    <polygon id="Shape" fill="#130E39" points="192 135 192 150.629371 201 152 201 137.587413"></polygon>
                    <polygon id="Shape" fill="#C7CCE0" points="105 118.227414 105 131 123 129.834891 122.947156 117"></polygon>
                    <polygon id="Shape" fill="#7698C3" points="123 115.586354 123.057159 129 145 127.816631 144.739607 114"></polygon>
                    <polygon id="Shape" fill="#668DBB" points="180 119.327937 180 131 145.298408 129.292237 145 114"></polygon>
                    <polygon id="Shape" fill="#005F9B" points="180 99.7054176 180 114 169 112.356283 169 97"></polygon>
                    <rect id="Rectangle-path" fill="#0B1736" x="129" y="86" width="24" height="17"></rect>
                    <polygon id="Shape" fill="#6999D1" points="124.085714 85 130 87.3638228 130 102 124 100.995898"></polygon>
                    <polygon id="Shape" fill="#5B8CC1" points="124 84.7170418 129.831325 87 167.954187 83.8874598 168 81"></polygon>
                    <polygon id="Shape" fill="#A9C0E4" points="103 87.0117555 103 102 125 100.288009 125 85"></polygon>
                    <polygon id="Shape" fill="#3575B6" points="191.460021 75.4519931 179 71 179 85.6863085 192 90"></polygon>
                    <polygon id="Shape" fill="#006B9D" points="190 75 200.818503 79.5216227 201 92 190.09723 88.2916188"></polygon>
                    <polygon id="Shape" fill="#006FBA" points="105 62.4833659 129.896774 69 145 67.3502935 123.064516 60"></polygon>
                    <polygon id="Shape" fill="#A3C7E9" points="167 51.2782964 98 60 98 46.7217036 167 38"></polygon>
                    <polygon id="Shape" fill="#4789C8" points="124 60.1986755 105.161473 63 105 48.8013245 123.838527 46"></polygon>
                    <polygon id="Shape" fill="#014976" points="143 51.8258929 143.131796 67 167 64.7767857 167 49"></polygon>
                    <polygon id="Shape" fill="#84B8E3" points="167 38 178 44.598916 178 58 167.071682 52.1192412"></polygon>
                    <polygon id="Shape" fill="#130E39" points="177 43 177 57.3020759 186 61 186 48.0637079"></polygon>
                    <polygon id="Shape" fill="#386794" points="124 278 103 276.847623 103 263 124 264.158744"></polygon>
                    <polygon id="Shape" fill="#92B1C8" points="168 281 147 279.847623 147 266 168 267.152377"></polygon>
                    <polygon id="Shape" fill="#92B1C8" points="180.950996 263.807284 168 266 168 250.31563 181 249"></polygon>
                    <polygon id="Shape" fill="#92B1C8" points="205 260.810352 192.040373 263 192 247.92098 204.851967 246"></polygon>
                    <polygon id="Shape" fill="#ADC5D6" points="102 248 102 263.171591 168 267 168 250.60413"></polygon>
                    <polygon id="Shape" fill="#59778B" points="179.980645 250 154 248.457038 168.348387 246 193 247.769653"></polygon>
                    <polygon id="Shape" fill="#003462" points="144.501231 250 182 244.267898 182 233 144 235.447267"></polygon>
                    <polygon id="Shape" fill="#435968" points="193 262.644853 180 265 180.044806 250.036357 192.955194 248"></polygon>
                    <path d="M122.043797,235.001154 L146,235.874374 L146,250 L122.245449,248.934157 C122.245449,248.934157 121.875754,234.853477 122.043797,235.001154 Z" id="Shape" fill="#014976"></path>
                    <polygon id="Shape" fill="#1E282F" points="122 235.977444 154.815259 232 182 234.045113 145.306812 237"></polygon>
                    <polygon id="Shape" fill="#779EBA" points="106 234.639437 122.702029 233 141 233.512676 121.718407 235"></polygon>
                    <polygon id="Shape" fill="#91B9DC" points="103 218 103 232.397614 167 235 167 218.459642"></polygon>
                    <polygon id="Shape" fill="#4C98CB" points="179 218.069094 179.094595 234 193 232.403393 193 217"></polygon>
                    <polygon id="Shape" fill="#73A8D4" points="179.903448 218 180 233.152318 166 235 166 218.94702"></polygon>
                    <polygon id="Shape" fill="#91B9DC" points="193 216.669584 193.265425 231 205 229.733042 204.573923 216"></polygon>
                    <polygon id="Shape" fill="#003462" points="166 205.223185 204 203 203.986739 217.285891 166 220"></polygon>
                    <rect id="Rectangle-path" fill="#130E39" x="103" y="205" width="20" height="14"></rect>
                    <rect id="Rectangle-path" fill="#CEDDEF" x="123" y="205" width="20" height="14"></rect>
                    <rect id="Rectangle-path" fill="#014976" x="143" y="205" width="24" height="14"></rect>
                    <polygon id="Shape" fill="#ACBBD2" points="102 190.6216 102 206 167 205.557745 167 189"></polygon>
                    <polygon id="Shape" fill="#91A4C2" points="178.860963 189 179 205.189178 166 206 166 189.163527"></polygon>
                    <polygon id="Shape" fill="#7991B4" points="202.80102 189 203 203.240175 190.066327 204 190 189.183406"></polygon>
                    <polygon id="Shape" fill="#4F719A" points="191.825644 189 192 205.169014 179.034871 206 179 189.169014"></polygon>
                    <polygon id="Shape" fill="#779EBA" points="193 162.855292 192.951529 177 181 176.954644 181.083093 162"></polygon>
                    <path d="M184,136.129737 L191,135 L191,149 L184.907975,149 C184.907975,149 184.08589,136.023629 184,136.129737 Z" id="Shape" fill="#73A8D4"></path>
                    <polygon id="Shape" fill="#4C98CB" points="191 133.038971 191 148 180 146.932274 180 131"></polygon>
                    <polygon id="Shape" fill="#014976" points="102 131.080711 102 146 168 142.861491 167.922231 127"></polygon>
                    <polygon id="Shape" fill="#003462" points="181 129.038971 181 144 168 142.443435 168 127"></polygon>
                    <polygon id="Shape" fill="#B4D9F3" points="169 144 202.642802 148.857143 203 164 169.145525 161.414966"></polygon>
                    <polygon id="Shape" fill="#130E39" points="147 161.229965 123 162 123.29202 146.079365 147 145"></polygon>
                    <polygon id="Shape" fill="#D1E6F7" points="171 160.636086 147 161 147.048165 144.883792 170.924312 144"></polygon>
                    <polygon id="Shape" fill="#91A4C2" points="104 147.015402 104 163 125 163 125 146"></polygon>
                    <polygon id="Shape" fill="#005F9B" points="100.198067 163.198675 169 161 169 177.198675 100 178"></polygon>
                    <polygon id="Shape" fill="#0B1736" points="151 114.668571 179.599559 113 190 115.758095 164.425904 117"></polygon>
                    <polygon id="Shape" fill="#1269A2" points="201 118 190 115.646988 190 101 200.901551 103.868369"></polygon>
                    <polygon id="Shape" fill="#003462" points="189.908339 101.867154 181 99 181 113.630343 190 116"></polygon>
                    <polygon id="Shape" fill="#1269A2" points="100 102.147679 100 117 169 112.585849 169 97"></polygon>
                    <polygon id="Shape" fill="#007BC1" points="143 67 123.012979 59.8842975 123 46 142.883193 52.697888"></polygon>
                    <polygon id="Shape" fill="#003462" points="201 65.8255034 167 49 167 64.8120805 200.900682 79"></polygon>
                    <polygon id="Shape" fill="#98B1D6" points="100 72.2297735 100 87 166 80.9029126 166 65"></polygon>
                    <polygon id="Shape" fill="#7C9FCD" points="179.933628 69.9145156 168 65 168 81.473349 180 85"></polygon>
                    <polygon id="Shape" fill="#8CAEDC" points="201 105 169 96.374829 169 80 201 91.6005472"></polygon>
                    <polygon id="Shape" fill="#A9C0E4" points="147 82.2166172 147 98 171 95.9302671 170.79798 80"></polygon>
                    <polygon id="Shape" fill="#005895" points="180.986592 161.955212 181 178 169 177.958469 169 161"></polygon>
                    <path d="M233.316304,293.229605 C233.345429,293.229605 233.823092,293.542499 233.858043,293.570312 C234.603664,294.126568 236.223057,294.070942 237.813325,293.806721 C238.760705,293.64212 239.689107,293.348159 240.580275,292.930618 C241.232693,292.603818 242.555004,290.344029 241.745307,289.620897 C241.498428,289.399095 241.22025,289.231893 240.92396,289.12722 C240.143389,289.036828 239.415244,289.669569 238.669624,289.558318 C236.817223,289.266284 235.430836,288.591824 234.411433,289.342769 C233.118248,290.30231 232.617285,292.589911 233.316304,293.229605 Z" id="Shape" fill="#2F3640"></path>
                    <path d="M235.229597,282.870857 L219.72163,297.397072 C218.870435,298.200976 217.545629,298.200976 216.694433,297.397072 C215.845819,296.590943 215.764434,295.259782 216.50844,294.354899 L229.245754,278.885675 C229.850517,278.154722 230.819493,277.840341 231.734211,278.078304 L234.190602,278.724201 C235.04513,278.94989 235.710109,279.625834 235.926254,280.488476 C236.142399,281.351117 235.87549,282.263876 235.229597,282.870857 Z" id="Shape" fill="#233065"></path>
                    <path d="M227.426067,282.506832 L207.040288,273.015004 C207.029953,272.969893 207.016492,272.925537 207,272.882252 L212.586617,263.025354 C212.62485,262.991549 212.682677,262.991549 212.72091,263.025354 L235.362822,277.568427 L235.765703,277.827295 L235.819421,277.860483 C238.156131,279.420329 236.759477,283.097582 233.93931,282.998018 L228.567563,282.812164 C228.169766,282.789709 227.78104,282.685731 227.426067,282.506832 Z" id="Shape" fill="#233065"></path>
                    <path d="M234.710053,292.830491 C235.749316,293.04449 236.811369,293.055945 237.853786,292.864399 C238.790664,292.70298 239.708456,292.413956 240.588719,292.003136 C241.331469,291.643712 242.949398,288.768315 241.25086,288.571648 C240.473564,288.483488 239.454441,288.829349 238.723207,288.714062 C236.886483,288.436017 235.216735,287.554409 234.209128,288.28004 C233.598806,288.720844 233,290.524748 233,291.291069 C233,292.057389 234.341557,292.735549 234.710053,292.830491 Z" id="Shape" fill="#616D7D"></path>
                    <path d="M213.967469,286.019699 L234.992382,288.199965 C236.17127,288.323005 237.049248,289.319249 236.997855,290.475577 C236.946689,291.629924 235.98683,292.547496 234.803555,292.573209 L213.66795,292.999091 C211.937123,293.037352 210.425192,291.863519 210.073725,290.208606 C209.842823,289.113581 210.161291,287.976737 210.930877,287.148813 C211.700463,286.32089 212.828686,285.901376 213.967469,286.019699 Z" id="Shape" fill="#233065"></path>
                    <path d="M217.321435,292.065971 C215.612768,293.385653 213.169419,293.298015 211.565485,291.859516 L195.510495,277.367747 C195.191677,277.09004 195.006683,276.695539 195.000178,276.279491 C194.993672,275.863444 195.166245,275.463662 195.476233,275.176666 L201.643323,269.415921 C201.95145,269.1293 202.367975,268.979539 202.793845,269.002254 C203.219716,269.024968 203.616878,269.218128 203.890884,269.535798 L217.972406,285.958916 C218.735047,286.845335 219.097422,287.993332 218.977464,289.142918 C218.857506,290.292503 218.265363,291.346415 217.33514,292.065971 L217.321435,292.065971 Z" id="Shape" fill="#233065"></path>
                    <path d="M193.213054,273.45739 C193.081462,272.710479 193,268.301724 193,268.301724 C193,265.803208 196.759785,264.375486 204.905985,263.384011 C207.506503,263.06674 212.644876,262.240511 212.870463,264.785295 C213.685083,273.853979 210.627125,274.700037 204.555072,276.682986 C198.351427,278.778301 193.683028,278.82457 193.213054,273.45739 Z" id="Shape" fill="#233065"></path>
                    <polygon id="Shape" fill="#8AA7B7" points="237 269.786159 216.312512 282 203 274.213841 223.687488 262"></polygon>
                    <polygon id="Shape" fill="#37384F" points="238.91653 270.624481 218 283 229.090016 271.375519 250 259"></polygon>
                    <path d="M216.887645,231.749869 L217.472805,252.606878 L217.090911,251.274587 L222.843961,264.530878 C223.201835,265.341144 222.925195,266.312812 222.207879,266.765049 C221.490563,267.217287 220.572424,266.998877 220.096787,266.262856 L212.255638,254.325533 C212.059079,254.032406 211.939854,253.687032 211.910702,253.326315 L211.879904,252.993242 L210.032029,232.222832 C209.860359,230.870928 210.38744,229.525986 211.40509,228.719221 C212.42274,227.912455 213.767323,227.773592 214.907769,228.357477 C216.048214,228.941362 216.801141,230.154109 216.869166,231.516718 C216.881485,231.589994 216.887645,231.676593 216.887645,231.749869 Z" id="Shape" fill="#FFAA81"></path>
                    <path d="M219,231.974986 L219,231.591561 C218.90035,228.951995 216.805674,226.898036 214.32141,227.003916 C211.837147,227.109796 209.904036,229.33542 210.003686,231.974986 L210.307573,240 L218.708775,239.656936 L219,231.974986 Z" id="Shape" fill="#91C9D3"></path>
                    <path d="M219.00843,267.423108 C218.961268,266.601419 219.11254,265.780518 219.448435,265.035348 C219.885659,264.281305 220.497706,263.653611 221.228455,263.209822 C221.740245,262.83989 222.443166,262.971966 222.798473,263.504822 C223.15378,264.037678 223.026926,264.769533 222.515136,265.139466 C222.426063,265.202602 222.32976,265.253902 222.228466,265.292171 C221.725872,265.417526 221.255162,265.654283 220.848451,265.986287 C220.505305,266.446522 220.276335,266.987679 220.181777,267.561931 C220.106309,267.86772 219.81078,268.055413 219.515102,267.985342 C219.235696,267.954621 219.020098,267.715381 219.00843,267.423108 Z" id="Shape" fill="#FFAA81"></path>
                    <path d="M222.841809,263.068718 C222.149432,263.211154 221.339351,263.441764 221.0624,264.079334 C220.785449,264.716904 221.477826,266.114132 222.204822,266.839877 C223.458025,267.335011 227.598441,266.616049 226.926835,265.585085 C225.915964,264.031856 224.69738,262.675323 222.841809,263.068718 Z" id="Shape" fill="#FFAA81"></path>
                    <path d="M224.242028,269.603621 C224.203815,268.959011 224.12136,268.319709 223.995575,267.692786 C223.856954,267.166555 223.584002,266.711903 223.218713,266.398782 C222.956753,266.110916 222.925856,265.614229 223.149063,265.2791 C223.258119,265.118361 223.413937,265.018753 223.581926,265.002388 C223.749916,264.986023 223.916175,265.054256 224.043794,265.191939 L224.097371,265.252281 C224.555742,265.84087 224.857093,266.592758 224.959955,267.404485 C225.013348,268.12033 225.013348,268.840843 224.959955,269.556688 C224.955817,269.680648 224.912064,269.797333 224.838523,269.880539 C224.764982,269.963745 224.667816,270.006498 224.568845,269.999198 C224.401992,269.972285 224.269081,269.811412 224.242028,269.603621 Z" id="Shape" fill="#FFAA81"></path>
                    <path d="M224.409987,269.625246 C224.319659,268.97001 224.189811,268.328828 224.022092,267.709837 C223.857324,267.194878 223.586538,266.77577 223.250867,266.516177 C222.998833,266.272794 222.924259,265.764785 223.0843,265.381505 C223.244341,264.998226 223.578394,264.884817 223.830427,265.128199 L223.880625,265.183719 C224.318019,265.718995 224.63664,266.445809 224.793318,267.265685 C224.905482,267.990364 224.974215,268.729015 224.998674,269.472569 C225.014546,269.738708 224.886089,269.974369 224.711176,270 C224.567137,269.990891 224.444381,269.838152 224.409987,269.625246 Z" id="Shape" fill="#FFAA81"></path>
                    <path d="M226.945564,266.708639 C226.70207,266.098582 226.297524,265.553551 225.768195,265.122409 C225.149218,264.838852 224.46912,264.685754 223.777512,264.674282 C223.453735,264.628539 223.181127,264.427647 223.062377,264.147281 C222.943627,263.866914 222.996775,263.549667 223.201802,263.315044 C223.406829,263.08042 223.732585,262.964065 224.056362,263.009808 L224.195788,263.045374 C224.559843,263.152071 224.970373,263.244542 225.419632,263.393917 C225.913627,263.536844 226.366305,263.779945 226.744172,264.105231 C227.359846,264.749323 227.784059,265.528446 227.975762,266.367208 C228.018708,266.492678 228.004163,266.628799 227.935479,266.74421 C227.866795,266.859622 227.749894,266.944373 227.611707,266.978938 C227.353851,267.050491 227.078308,266.934643 226.968801,266.708639 L226.945564,266.708639 Z" id="Shape" fill="#FFAA81"></path>
                    <path d="M221.635269,270.457451 C221.735363,269.310678 221.535767,268.158887 221.052012,267.091695 C220.89177,266.68508 221.113216,266.237781 221.559197,266.067231 C222.005179,265.89668 222.523945,266.060911 222.747345,266.443373 C222.76998,266.487231 222.785682,266.533649 222.794006,266.581314 L222.794006,266.622696 C223.101551,267.934507 223.064297,269.291513 222.685131,270.588494 C222.644329,270.84942 222.37275,271.031607 222.078544,270.99542 C221.784338,270.959233 221.578913,270.718376 221.619715,270.457451 L221.635269,270.457451 Z" id="Shape" fill="#FFAA81"></path>
                    <path d="M194.594903,234.764453 C198.518883,228.948568 212.210792,225.583196 215.184484,227.576281 C216.554968,228.412722 216.742439,231.608192 216.955769,236.476545 C217.492327,244.61225 212.967144,252.943995 213.115829,261.099304 C213.148152,262.974764 214.292376,264.47121 213.238655,266.019935 C212.327154,267.372618 203.005278,271.574432 200.658648,271.901167 C195.260752,272.554637 192.603823,269.842736 192.707256,267.4445 C191.466063,255.120051 191.71818,246.984347 194.594903,234.764453 Z" id="Shape" fill="#91C9D3"></path>
                    <path d="M211,229.104156 C206.098707,226.690104 202.159292,228.794515 202,230.11909 L208.628999,237 L211,229.104156 Z" id="Shape" fill="#FFFFFF"></path>
                    <path d="M209.245491,230.995224 C210.200011,230.930053 210.708061,230.296121 211.062157,228.880142 C211.277694,228.009226 212.232214,225.615688 211.947398,224.809942 C211.624092,223.903479 209.838217,221.474393 208.814418,222.1024 C208.175505,223.542078 207.729036,224.638129 207.482709,225.171343 C206.751423,226.735437 206.281861,227.665599 206.066325,228.335079 C205.573669,229.922872 207.944573,231.084093 209.245491,230.995224 Z" id="Shape" fill="#FFAA81"></path>
                    <path d="M207.360249,223.860392 C205.983869,220.289047 208.736628,214.935483 212.473499,214.106544 C215.831865,213.353591 220.160578,216.676254 219.995413,221.394298 C219.885302,224.689331 214.923454,231.756035 211.17282,230.934004 C209.163306,230.491903 206.761524,225.766951 207.360249,223.860392 Z" id="Shape" fill="#FFAA81"></path>
                    <path d="M207.59829,213.992507 C208.549889,212.730848 210.22339,211.947291 211.680321,212.664445 C212.559729,210.831719 215.434214,210.592668 217.127403,211.555513 C218.485893,212.332429 220.809106,215.360411 221.642575,216.63535 C221.763381,216.79071 221.894969,216.937168 222.03634,217.073611 C223.169151,218.101968 223.323863,219.841307 222.390729,221.057797 C220.553159,223.215898 216.359561,221.921038 212.769737,218.036456 C211.994134,219.329761 210.993597,220.470355 209.8165,221.403093 C209.481799,220.187917 208.891152,219.523885 207.992055,220.108233 C207.165149,221.887836 209.114285,224.039297 206.02323,223.999455 C204.907563,223.999455 204.901,222.883883 205.097882,222.053844 C206.016667,218.109499 206.364493,215.626023 207.59829,213.992507 Z" id="Shape" fill="#171A1F"></path>
                    <path d="M214.57419,269.706598 C213.756279,269.838018 212.956279,269.870874 212.257771,270.051577 C211.945169,270.116847 211.642573,270.252843 211.362248,270.454052 C211.189056,270.571905 211.056217,270.778248 210.992099,271.029017 C210.820038,271.757777 210.255185,272.162329 209.722592,271.938248 C209.189999,271.714166 208.886225,270.944151 209.03986,270.207639 C209.070234,270.073674 209.114469,269.946424 209.171203,269.829805 L209.284636,269.608033 C209.641928,268.935345 210.152667,268.446651 210.735383,268.219903 C211.196248,268.049122 211.673493,267.97709 212.150308,268.006345 C213.01598,268.047414 213.79807,268.244545 214.538369,268.334896 C214.816708,268.369646 215.02223,268.707489 214.998071,269.090564 C214.9721,269.402766 214.79935,269.653827 214.57419,269.706598 Z" id="Shape" fill="#FFAA81"></path>
                    <path d="M207.82674,269.958714 C207.377098,270.493276 206.881841,271.177515 207.025205,271.890264 C207.168569,272.603012 207.898422,273.009279 208.530527,273.230231 C209.377677,273.522458 210.798284,273.793303 211.788798,274 C213.026942,273.672136 213.470067,270.158284 212.381804,269.673615 C210.720085,268.946611 209.025784,268.511834 207.82674,269.958714 Z" id="Shape" fill="#FFAA81"></path>
                    <path d="M216.303344,270.945492 C214.77331,270.157212 212.826489,269.821101 210.915525,270.015308 C210.639539,270.052247 210.355447,269.985074 210.175887,269.840422 C209.996327,269.69577 209.950305,269.497006 210.056068,269.322937 C210.161831,269.148868 210.402294,269.027613 210.682117,269.007247 L210.753436,269.007247 C213.007429,268.930385 215.211596,269.467504 216.860928,270.495542 C216.949729,270.551895 217,270.63009 217,270.711864 C217,270.793639 216.949729,270.871833 216.860928,270.928186 C216.702104,271.017068 216.473846,271.024152 216.303344,270.945492 Z" id="Shape" fill="#FFAA81"></path>
                    <path d="M216.217693,274.844924 C215.514988,274.046457 214.659515,273.411433 213.706819,272.981087 C212.853923,272.525166 211.883221,272.368678 210.938581,272.534816 L210.907195,272.534816 C210.526598,272.622108 210.145755,272.388878 210.032435,271.999109 C209.919116,271.60934 210.111389,271.193976 210.47407,271.045058 L210.568227,271.045058 C211.846937,270.878336 213.141543,271.177315 214.234103,271.89166 C215.284911,272.480141 216.203106,273.296903 216.927014,274.287086 C217.051639,274.483988 217.013208,274.747597 216.838134,274.896741 C216.66306,275.045885 216.408359,275.031993 216.249078,274.864613 L216.217693,274.844924 Z" id="Shape" fill="#FFAA81"></path>
                    <path d="M215.197942,275.8407 C214.130422,274.135215 212.508269,273.049484 210.733254,272.852418 C210.45646,272.834204 210.208827,272.640973 210.083635,272.345514 C209.958443,272.050055 209.974711,271.697254 210.126312,271.420009 C210.277913,271.142764 210.541815,270.983194 210.818608,271.001408 L210.917094,271.001408 L210.949922,271.001408 C211.998896,271.230648 212.990949,271.740074 213.85197,272.491627 C214.670535,273.231951 215.374847,274.137005 215.933303,275.16618 C216.056438,275.408633 216.004738,275.723218 215.814009,275.892064 C215.62328,276.060911 215.356288,276.028453 215.197942,275.817171 L215.197942,275.8407 Z" id="Shape" fill="#FFAA81"></path>
                    <path d="M214.220882,273.934672 C213.278951,273.381435 212.050145,273.048538 210.74884,272.994061 C210.302545,272.973188 209.968346,272.734425 210.002386,272.460767 C210.036425,272.18711 210.425813,271.982187 210.872108,272.003059 C210.917521,271.99898 210.96366,271.99898 211.009072,272.003059 C211.77866,272.117287 212.513742,272.305802 213.186802,272.561547 C213.829942,272.821931 214.400995,273.143734 214.87831,273.514756 C214.965388,273.573937 215.00886,273.6525 214.998494,273.731953 C214.988128,273.811407 214.924839,273.884733 214.823524,273.934672 C214.647757,274.021776 214.396649,274.021776 214.220882,273.934672 Z" id="Shape" fill="#FFAA81"></path>
                    <path d="M201.17079,238.191269 L193.721096,258.731049 L192.616486,255.235201 L209.391142,268.923923 C210.060145,269.495864 210.197046,270.507088 209.706023,271.249807 C209.215,271.992525 208.259998,272.218759 207.509452,271.770159 L189.302657,260.284759 C188.241993,259.618481 187.75427,258.283409 188.120981,257.050095 L188.198047,256.788911 L194.401844,235.807128 C194.727516,234.477627 195.726862,233.441923 197.00378,233.110526 C198.280699,232.779128 199.628998,233.205551 200.514267,234.220778 C201.399536,235.236005 201.678824,236.676099 201.241434,237.970268 C201.221758,238.04522 201.198175,238.118997 201.17079,238.191269 Z" id="Shape" fill="#FFAA81"></path>
                    <path d="M201.657223,239.227004 C201.703135,239.1167 201.743154,239.004245 201.777126,238.89007 C202.295746,237.333859 201.894478,235.63168 200.727461,234.437392 C199.560445,233.243103 197.809169,232.742436 196.14635,233.12771 C194.483532,233.512985 193.167765,234.724285 192.704476,236.296315 L190,244.954881 L198.093443,248 L201.657223,239.227004 Z" id="Shape" fill="#91C9D3"></path>
                    <path d="M218.903461,296.062585 L217.153574,295.137703 C216.641318,294.862928 216.019703,295.009206 215.661763,295.488753 L214,297.703069 L220.093132,306 C220.842185,305.480176 221.26392,304.852337 220.817007,303.927455 C220.414013,302.935072 220.058949,301.921085 219.753226,300.889522 L219.576979,297.169743 C219.558004,296.69641 219.299755,296.27189 218.903461,296.062585 Z" id="Shape" fill="#616D7D"></path>
                    <polygon id="Shape" fill="#2F3640" points="219.802198 306 220 305.505289 215.468531 299.393002 214 298 214 299.171684 215.468531 300.942229 219.016983 305.785191"></polygon>
                    <path d="M35.8606277,271.848238 C36.3538699,271.442822 37.1417761,271.262637 37.6286125,270.85722 C37.8720307,270.65773 38.4421417,270.3231 38.4741705,270.104304 C38.5397433,269.563603 38.5397433,269.016905 38.4741705,268.476203 C39.5399203,268.608131 40.6212664,268.443403 41.6001725,268 C41.6001725,268.302454 41.6001725,269.22912 41.6001725,269.518703 C41.7373908,270.000562 41.8443635,270.490599 41.9204596,270.985924 C42.01014,271.777451 42.1446606,272.762034 41.5489266,273.399117 C41.0433755,273.813931 40.3895761,274.000259 39.7425074,273.913931 C39.0250643,273.913931 37.071313,274.016894 36.8407062,273.997589 C36.0848287,273.926802 33.7531386,273.566432 35.8606277,271.848238 Z" id="Shape" fill="#B28767"></path>
                    <path d="M42,273.138834 C41.9291132,273.291859 41.8169581,273.431899 41.6707432,273.549953 C41.151034,273.873135 40.4789247,274.018302 39.8137347,273.951045 C39.0761994,273.951045 36.0206961,274.016222 35.7836312,273.996167 C35.2831609,273.961072 35,273.825703 35,273.279216 C37.6208843,272.507115 38.8325494,273.635185 42,273.138834 Z" id="Shape" fill="#230E04"></path>
                    <path d="M48,197.534872 C48,197.534872 46.013428,221.320432 45.1260925,227.652402 C44.2387571,233.984372 41.9608212,267.108448 41.9608212,267.108448 L40.3848074,268 L38.7425746,267.791754 C38.7425746,267.791754 37.2658894,241.344555 36.6699178,236.242536 C36.0739462,231.140517 34.4052258,203.98398 35.2197203,195.582569 C35.7097414,190.487058 44.0732094,180.484758 48,197.534872 Z" id="Shape" fill="#BC9371"></path>
                    <path d="M36.563047,236 C35.9516085,229.492517 34.6955011,207.800905 35.0676811,198 L44,200.420466 C43.9401854,204.851375 37.9321375,227.852419 36.563047,236 Z" id="Shape" fill="#B28767"></path>
                    <path d="M58,271.551243 C58.2580777,271.636965 58.5199205,271.705034 58.7842914,271.755128 C59.8188437,271.954693 60.8777706,271.685941 61.759619,271 C61.759619,271.166128 61.759619,271.264295 61.759619,271.264295 C64.2939994,271.610366 66.795233,272.250111 69.2290606,273.174769 C73.0011287,274.647268 73.2065383,276.248139 68.0712972,275.893229 C58.815414,276.142422 58.174287,276.180178 58.1120416,273.393756 C58.1020968,272.777584 58.0646949,272.162515 58,271.551243 Z" id="Shape" fill="#B28767"></path>
                    <path d="M70.6792243,273.466674 C70.9844015,273.481461 71.2801309,273.312454 71.4958094,273 C72.717522,274.217012 71.7806646,275.14121 68.0079149,274.830094 C63.3362886,274.985652 60.1142591,275.14121 58.759614,274.775191 C57.8164266,274.518978 58.1266023,273.9791 58,273.146408 C62.2285181,273.283665 66.444376,273.466674 70.6792243,273.466674 Z" id="Shape" fill="#230E04"></path>
                    <path d="M58.0037599,198.277493 C58.0037599,198.277493 59.1448811,223.007108 59.0875063,229.435236 C59.0301315,235.863363 61,268.043316 61,268.043316 L59.0173816,269 L57.1048879,268.488895 C57.1048879,268.488895 53.4201501,245.168094 52.234404,240.168439 C51.0486579,235.168785 46.7582971,208.060565 46.0506744,202.982279 C45.3430517,197.903993 52.1834041,181.712451 58.0037599,198.277493 Z" id="Shape" fill="#BC9371"></path>
                    <path d="M62.8397436,269 C62.9198718,269.473959 62.9839744,269.861744 63,269.998187 C61.974359,271.477514 59.8589744,271.061004 58.1923077,270.385972 C58.1923077,270.213623 58.0240385,269.560134 58,269.394966 C59.6426282,269.703758 61.4214744,269.969462 62.8397436,269 Z" id="Shape" fill="#A7C4E4"></path>
                    <path d="M41,268 C41,268.087385 41,268.997644 41,269.085029 C41,269.172414 40.0901468,270.286571 39.3228512,269.92975 C39.2138365,269.878775 39.1048218,269.805955 39,269.740416 C39,269.485543 39,268.720925 39,268.444207 C39.6756284,268.722119 40.3863825,268.564258 41,268 Z" id="Shape" fill="#A7C4E4"></path>
                    <path d="M83.5583895,173.341313 C83.5315532,173.302732 83.4889994,173.277101 83.4414361,173.270869 C83.3938727,173.264637 83.3458286,173.278398 83.3093931,173.308689 C80.2945185,175.709829 73.9417468,180.159768 70.9066833,178.66558 C69.4665423,177.954373 66.6131787,175.592382 64.4529672,172.936774 C63.618493,171.899324 62.8445854,170.816202 62.6898039,170.555208 C60.9266406,167.573358 56.0274692,164.226116 53.9412836,165.159168 C52.0502573,165.987822 53.1000798,169.941873 56.2697359,173.308689 C57.1647769,174.254791 58.8673735,175.546708 60.5430516,176.943024 L60.590159,176.988697 C63.0128262,179.637781 66.0478897,182.208567 68.6253384,183.383038 C69.2654874,183.668428 69.9459208,183.859749 70.6442277,183.950698 C72.094499,184.109239 73.5619752,183.883753 74.8906248,183.298215 C76.2684258,182.701141 77.5474631,181.909579 78.6861367,180.949273 C79.7763369,180.061896 82.6633486,177.562883 83.6122265,176.531959 C83.8881414,176.231816 84.588023,175.559758 84.9581527,175.181318 C85.0139491,175.119738 85.0139491,175.027577 84.9581527,174.965998 C84.4197823,174.430961 83.968897,173.928549 83.5583895,173.341313 Z" id="Shape" fill="#47A5B5"></path>
                    <path d="M63.4551389,172.976566 C63.3623147,172.560834 63.2628601,172.145102 63.1567752,171.736185 C62.8517812,171.286376 62.6197205,170.938797 62.5467872,170.802491 C60.8096473,167.687907 55.9827853,164.191668 53.9273907,165.166253 C52.0642751,166.031794 53.0986026,170.161855 56.2214763,173.67854 C57.1033068,174.666756 58.780774,176.016182 60.4317199,177.474653 L60.478132,177.52236 C61.8555156,179.147585 63.3685722,180.645843 65,182 C64.1368387,179.066271 63.6182003,176.036938 63.4551389,172.976566 Z" id="Shape" fill="#337782" opacity="0.29"></path>
                    <path d="M36.856394,181.026936 C38.8707789,166.580816 37.5936852,165.212787 40.6679263,163.543662 C44.639904,161.766223 49.1331702,161.514387 53.2808726,162.836738 C54.4259678,163.290632 55.4737392,163.957044 56.3682796,164.800415 C59.3569422,167.608474 59.8309152,171.234731 57.6322074,177.669047 C55.6046565,183.599353 58.007436,199.027311 58.007436,199.027311 C50.7661829,202.17574 35,200.611344 35,200.611344 C35,200.611344 35.3554797,191.827161 36.856394,181.026936 Z" id="Shape" fill="#47A5B5"></path>
                    <path d="M43.0764331,196.345123 C42.2356688,192.795683 41.4076433,189.220334 40.910828,185.619077 C40.3908841,181.774918 40.1312495,177.898976 40.133758,174.018626 C40.133758,171.427794 39.8789809,168.655603 40.0828025,166 C38.8917197,168.059712 38.0573248,171.887666 36.7961783,180.249578 C35.8259597,186.663847 35.2262055,193.130422 35,199.616049 C35,199.616049 39.089172,200.030582 44,199.998197 C43.6602972,198.780505 43.3524416,197.562814 43.0764331,196.345123 Z" id="Shape" fill="#337782" opacity="0.29"></path>
                    <path d="M52.7587298,148.180564 C52.9954858,149.20936 53.3302577,150.216072 53.7590006,151.188536 C54.5175953,152.97314 56.4442914,157.406272 53.087678,158.282809 C49.7310645,159.159346 48.1266033,159.203488 47.1934648,158.572886 C46.2603262,157.942284 42.2659562,153.723556 43.118536,150.955213 C43.9711159,148.18687 48.9523302,143.066381 52.7587298,148.180564 Z" id="Shape" fill="#FFAA81"></path>
                    <path d="M52.1899536,146.736693 C51.5556521,146.4233 50.8662057,146.217742 50.1541083,146.129706 C49.6832053,146.040611 49.2032573,145.999472 48.7227632,146.007017 C46.7539349,145.927066 44.8238387,146.532646 43.3100551,147.705289 C42.8849541,148.007686 42.5933775,148.443999 42.4901584,148.932177 C42.2289682,149.170983 41.9960322,149.435084 41.7953306,149.719968 C40.9003583,151.20744 40.7530293,152.985021 41.3923305,154.58232 C42.2304419,156.975923 44.1516445,158.909963 46.6521765,159.877311 C46.8231013,159.949035 47.006872,159.990637 47.1941422,160 C47.5046252,159.862641 47.6842825,159.554804 47.6388319,159.238038 C47.6117307,159.093246 47.5650385,158.952219 47.4998664,158.818313 C47.2322745,158.7572 47.0156113,158.575254 46.9231593,158.334015 C46.714711,157.849717 46.1449523,157.455821 45.9017626,156.939237 C45.5932551,156.360168 45.7131621,155.663056 46.2005385,155.202221 C46.4259274,155.021612 46.7306392,154.952017 47.0204352,155.014959 C47.3539525,155.105362 47.4512284,155.428227 47.715263,155.538001 C47.9542964,155.60568 48.2096221,155.494017 48.3058665,155.279709 C48.368401,155.073075 48.118263,154.679179 48.0487803,154.48546 C47.6179871,153.265029 46.5618489,151.689447 47.666625,150.514217 C48.2786143,149.964266 49.0284782,149.564782 49.8483841,149.351902 C50.2682945,149.286234 50.6948093,149.264574 51.1199189,149.287329 C51.6896776,149.216298 52.7388675,148.983835 52.9681607,148.409135 C53.1044453,147.75588 52.7954596,147.09184 52.1899536,146.736693 Z" id="Shape" fill="#333333"></path>
                    <path d="M46,161.869828 C46.2589038,161.314594 46.3578964,160.715194 46.5482669,160.15365 C46.6386897,159.692084 46.7946048,159.240985 47.0127707,158.809732 C47.3630523,158.286045 48.08646,158.241879 48.7337195,158.121999 C49.9901644,157.894857 51.8557947,157.882238 51.9928614,159.005325 C52.0994689,159.894962 50.9648611,161.270428 51.7263428,162.071731 L51.7263428,164.109692 C49.9190904,164.749213 47.9639286,165.05081 46,164.993019 L46,161.869828 Z" id="Shape" fill="#FFAA81"></path>
                    <path d="M45.0502832,165.504687 C45.2154975,165.258449 45.4095081,165.040354 45.6266658,164.856753 C45.6851317,164.787692 45.7383325,164.712847 45.7856679,164.633061 C46.1185586,164.246036 46.3682532,163.772961 46.5144276,163.252344 C46.789183,162.522136 47.0172641,161.769309 47.1968116,161 C48.5123963,161.987481 50.1388288,162.236569 51.6289951,161.678789 C51.5627442,162.164739 52,165.92893 52,165.92893 C50.3185112,166.718274 48.5111908,167.078625 46.69993,166.985681 C46.2705191,166.996178 45.8453515,166.884998 45.4610387,166.661713 C45.0844094,166.461455 44.9050061,165.956107 45.0502832,165.504687 Z" id="Shape" fill="#FFAA81"></path>
                    <path d="M53.4027205,144.378932 C53.2247342,144.141727 52.9412745,143.9177 52.670999,144.029713 C52.3018422,144.194439 52.4336839,144.741329 52.3150264,145.130082 C52.1172639,145.788985 51.2602928,145.861465 50.5944922,145.788985 C49.4763309,145.661996 48.3511597,145.606974 47.2259367,145.62426 C45.5515471,145.709917 43.1058835,146.467656 42.756503,148.404832 C42.6951912,148.660378 42.6951912,148.926792 42.756503,149.182338 C41.4749552,149.955314 40.5330728,151.183902 40.1196689,152.621814 C39.9804913,153.140087 39.9624472,153.683414 40.0669322,154.209772 C40.3054927,154.964546 40.7110513,155.655929 41.2535076,156.232605 C41.9985357,157.235511 42.8869719,158.123536 43.8903416,158.868219 C43.9819579,158.948434 44.0982568,158.994932 44.2199459,159 C44.6088789,159 44.6022868,158.426754 44.5561422,158.04459 C44.5150622,157.049261 44.8872032,156.081188 45.5845075,155.369442 C46.243716,154.618292 47.021582,154.012101 47.6544222,153.254362 C48.5587235,152.126789 49.1579878,150.785875 49.3947327,149.360242 C50.3495618,149.419775 51.3066507,149.287592 52.2095531,148.971489 C53.0506296,148.587007 53.6730685,147.843506 53.9033975,146.948196 C54.1337265,146.052887 53.9473197,145.101493 53.3961284,144.359165 L53.4027205,144.378932 Z" id="Shape" fill="#333333"></path>
                    <path d="M91.7993873,169.175939 C91.6189574,169.089005 91.4156115,169.070542 91.2237663,169.123675 C91.2551929,169.098092 91.2823827,169.067186 91.3042295,169.032213 C91.3766655,168.929096 91.3573831,168.78372 91.2609032,168.705564 C90.9865283,168.603453 90.6873203,168.603453 90.4129455,168.705564 C90.2319362,168.710659 90.0526065,168.743674 89.8806509,168.803558 L88.6427564,169.189005 L88.5003986,169.228203 L87.8071777,169.443792 C87.8071777,169.234736 88.4818302,168.372381 87.4915146,168 C86.9097042,169.705112 84.3967785,170.861452 83.9139997,172.070056 C83.7799723,172.498241 83.5056404,172.861926 83.1403157,173.095736 C82.6265895,173.487716 83.6540419,174.650589 84.1244417,174.911909 C84.2358522,174.977239 84.3472627,175.042569 84.4524838,174.964173 C85.5542098,174.186747 86.4950096,174.421934 86.8230516,174.310874 C88.2443099,173.704659 89.5712715,172.876626 90.7595559,171.854467 C91.1328806,171.582722 91.4665206,171.254775 91.7498715,170.881051 C91.8151552,170.808727 91.863856,170.721564 91.8922293,170.626264 C91.9115946,170.567384 91.9073489,170.502712 91.8804748,170.447214 C91.8536006,170.391715 91.8064272,170.350202 91.7498715,170.332279 L91.7003557,170.332279 L91.7622504,170.286548 C91.8441087,170.236411 91.9139837,170.167128 91.966503,170.084026 C92.0303583,169.973469 92.0003376,169.829438 91.8984188,169.757376 C91.822233,169.715121 91.7368305,169.694839 91.6508399,169.698579 C91.733629,169.65299 91.8055726,169.588221 91.861282,169.509122 C91.896207,169.456693 91.9093474,169.39149 91.8976637,169.328596 C91.88598,169.265702 91.8504843,169.210565 91.7993873,169.175939 Z" id="Shape" fill="#FFAA81"></path>
                    <path d="M43.5702373,165.099824 C44.8943961,167.379283 43.0140906,172.431418 39.9089381,174.784193 C39.6374855,174.997476 38.5318129,176.017234 37.4791066,177.096978 C34.7910642,179.889649 32.513511,183.422144 31.9043979,185.148401 C29.8850557,190.9137 39.9883876,198.911802 39.9883876,198.911802 C40.3487983,199.278921 40.672561,199.680751 40.9550236,200.111517 C41.617103,201.064625 41.617103,202.377646 40.8226077,201.89776 C39.750039,201.231252 38.3596723,200.304805 37.0619966,199.398353 C34.314367,197.465479 23.8866161,191.126982 26.3826556,183.12888 C27.3426707,180.049611 29.8585725,176.257177 32.5201318,173.131252 C33.8442906,171.04508 35.1022415,168.932248 36.0490151,167.799184 C39.3726538,163.800133 42.3983567,163.060308 43.5702373,165.099824 Z" id="Shape" fill="#47A5B5"></path>
                    <path d="M40.2018144,198 C40.9027368,198.335371 41.6720013,198.540873 42.463656,198.60423 C43.4955547,198.707252 44.5119782,198.90984 45.4951989,199.208459 C45.4951989,199.208459 45.4209295,199.583082 45.1643624,199.679758 C44.6971607,199.740865 44.2235928,199.753031 43.7532433,199.716012 C43.773397,199.810153 43.8004627,199.903003 43.8342645,199.993958 C45.5897237,201.087613 46.2041344,201.70997 46.3999356,202.048338 C46.5918504,202.164377 46.7550269,202.314521 46.879311,202.489426 C46.9149015,202.54522 46.9234941,202.6116 46.9030997,202.673198 C46.8827054,202.734797 46.8350922,202.786273 46.7712827,202.81571 C46.8733541,202.927041 46.9470841,203.056944 46.9873392,203.196375 C47.0042203,203.247652 47.0042203,203.302197 46.9873392,203.353474 C46.9333251,203.486405 46.6227439,203.462236 46.4674533,203.438066 C46.5349709,203.546828 46.5417227,203.70997 46.4134391,203.758308 C46.2809642,203.791588 46.1408081,203.791588 46.0083332,203.758308 C46.1096097,203.854985 46.0083332,204 45.7922767,204 C45.411549,203.974513 45.0377788,203.894968 44.684987,203.76435 C44.5567035,203.716012 44.3001364,203.661631 44.0773281,203.577039 C43.5854069,203.457727 43.1115476,203.285259 42.666209,203.063444 C41.8357417,202.628399 40.471885,201.854985 40.242325,201.099698 C39.9687102,200.502699 39.5433448,199.971005 39,199.546828 L40.2018144,198 Z" id="Shape" fill="#FFAA81"></path>
                    <polygon id="Shape" fill="#B3B2B3" points="266.236827 184 274 157.265316 267.597987 156 263.162818 171.953413 254.155713 164.941999 252 166.416026"></polygon>
                    <path d="M251.589096,167 L249.851174,165.40693 C249.292005,164.899171 248.983245,164.1903 249.000702,163.454361 L249.045075,161.149344 C249.044459,161.082585 249.090801,161.023695 249.158213,161.005572 C249.225626,160.987449 249.297423,161.014578 249.333496,161.071805 L250.812578,163.46141 C250.96735,163.706235 251.252959,163.847795 251.552119,163.827957 C252.232529,163.783337 252.891867,164.063236 253.312227,164.57515 L254,165.40693 L251.589096,167 Z" id="Shape" fill="#F9B290"></path>
                    <polygon id="Shape" fill="#2F3640" points="266.871291 224.806258 266.871291 191 284.834297 191 289.773796 224.714178 300 260.907921 296.65896 260.907921 282.200771 224.714178 277.811561 201.312882 274.444316 224.806258 269.34104 261 266 261"></polygon>
                    <polygon id="Shape" fill="#94AEBF" points="291 265 294 265 297 263.917466 297 261 294 262.619962 291 263.410749"></polygon>
                    <polygon id="Shape" fill="#94AEBF" points="298.168627 265 301 265 301 261 297 261 297 263.917466"></polygon>
                    <polygon id="Shape" fill="#94AEBF" points="260 266 263.003148 266 266 264.915385 266 262 263.003148 263.623077 260 264.415385"></polygon>
                    <polygon id="Shape" fill="#94AEBF" points="267.168627 266 270 266 270 262 266 262 266 264.915385"></polygon>
                    <path d="M287.942343,187.860605 L289.178439,198 L268,198 L268,156.439696 C268,153.985659 270.259308,152 273.047391,152 L286.960334,152 C289.968167,152 292.309881,154.308906 291.966521,156.941058 L287.942343,187.860605 Z" id="Shape" fill="#FFFFFF"></path>
                    <path d="M274,152.019496 L272.877673,225 L266.629598,225 L266,187.430962 L268.306245,156.997507 C268.272027,154.248553 270.824636,152 273.993157,152 L274,152.019496 Z" id="Shape" fill="#B3B2B3"></path>
                    <path d="M281.732889,225 L279,187.29406 L284.037583,152 L286.770472,152 C289.994526,152 292.437753,154.73043 291.933995,157.733903 L286.852333,187.365571 L291.115388,225 L281.732889,225 Z" id="Shape" fill="#B3B2B3"></path>
                    <path d="M286.318438,196 L303.467108,180.035686 C304.288747,179.452342 304.832071,178.552433 304.967156,177.551155 C305.10224,176.549876 304.816939,175.537252 304.179477,174.755432 L292.522526,155 L284,161.13862 L294.48478,176.095004 C295.163273,176.777811 295.163273,177.883252 294.48478,178.566059 L284.33028,193.229818 L286.318438,196 Z" id="Shape" fill="#B3B2B3"></path>
                    <path d="M283,194.861381 L284.544554,194 L287,196.692786 L285.963696,197.523126 C285.412791,197.919431 284.761089,198.075964 284.122112,197.965457 L283,194.861381 Z" id="Shape" fill="#F9B290"></path>
                    <polygon id="Shape" fill="#F9B290" points="282 152 276.716249 154 274 152"></polygon>
                    <path d="M253.648793,163.832589 C253.837077,163.703644 253.960704,163.511705 253.992125,163.299543 C254.023546,163.087381 253.96015,162.872628 253.816064,162.70314 L247.600281,155.319219 C247.456986,155.147951 247.244344,155.035621 247.009481,155.007125 C246.774618,154.978629 246.536931,155.036319 246.349095,155.167411 C245.959442,155.440129 245.88479,155.946899 246.181825,156.302932 L252.397608,163.680781 C252.540903,163.852049 252.753545,163.964379 252.988408,163.992875 C253.223271,164.021371 253.460958,163.963681 253.648793,163.832589 Z" id="Shape" fill="#343C52"></path>
                    <rect id="Rectangle-path" fill="#F4901E" transform="translate(247.000000, 161.000000) rotate(142.600000) translate(-247.000000, -161.000000) " x="244" y="155" width="6" height="12" rx="1.57"></rect>
                    <path d="M278.509551,153.959041 C277.640421,153.78099 277.291283,153.093341 277.231855,151.638226 C277.194713,150.735687 276.763862,148.23682 277.179856,147.469355 C277.647849,146.609794 279.764962,144.399494 280.596951,145.15468 C280.916375,146.658912 281.124372,147.80704 281.250656,148.365754 C281.629507,150.01734 281.896932,150.999695 281.993502,151.693484 C282.142072,153.33279 279.705535,154.20463 278.509551,153.959041 Z" id="Shape" fill="#FFAA81"></path>
                    <path d="M281.206963,151 C281.835881,151.627181 282.376955,152.325989 282.817271,153.079745 C283.461395,154.106858 282.337605,157.188198 280.466906,159 C278.651026,158.036683 277.56835,156.020734 278.164507,154.598086 C279.086354,154.509152 279.930178,154.076324 280.503449,153.39836 C281.076719,152.720395 281.330527,151.855134 281.206963,151 Z" id="Shape" fill="#E5E5E4"></path>
                    <path d="M278.783307,154.314142 L279,155.362727 C277.609067,156.488912 275.822756,157.07135 274,156.993009 C274.617978,155.737769 275.653291,152.990016 277.523274,151 C277.619583,152.239933 277.547352,153.923793 278.783307,154.314142 Z" id="Shape" fill="#E5E5E4"></path>
                    <path d="M280.533517,147.361151 C283.374055,145.287849 283.892306,139.83655 281.399455,137.362797 C279.149329,135.134481 274.111147,135.554309 271.887262,139.248791 C270.33251,141.832345 270.686757,149.692809 274.025865,150.874785 C275.836462,151.585262 280.067748,149.117968 280.533517,147.361151 Z" id="Shape" fill="#FFAA81"></path>
                    <path d="M286.975354,140.382355 C286.84094,138.76685 285.772704,137.165211 284.145588,136.971073 C284.393193,134.891022 281.987892,133.116046 279.95046,133.00511 C278.31627,132.908041 274.573904,134.218473 273.123649,134.842488 C272.930675,134.912484 272.731838,134.965843 272.529398,135.001958 C270.97228,135.26292 269.878092,136.648597 270.010906,138.191369 C270.428297,141.054905 274.856881,142.268268 280.198065,140.964769 C280.152704,142.501199 280.392407,144.03293 280.905506,145.485412 C281.881775,144.625658 282.773152,144.382985 283.240063,145.388343 C282.97831,147.371324 280.056576,148.161744 282.801449,149.804983 C283.798942,150.415131 284.414416,149.472175 284.704467,148.647089 C286.076904,144.778195 287.180512,142.469339 286.975354,140.382355 Z" id="Shape" fill="#2F3640"></path>
                    <circle id="Oval" fill="#BBDBDE" transform="translate(68.000000, 46.000000) rotate(-55.620000) translate(-68.000000, -46.000000) " cx="68" cy="46" r="16"></circle>
                    <polygon id="Shape" fill="#BBDBDE" points="76.0865123 54 77 67 68 57.3975062"></polygon>
                    <path d="M34.0217019,108.715146 L35.6458935,127.692608 C35.9035828,130.713228 38.4869599,133.027483 41.5701989,132.999753 L76.3372182,132.64638 C79.3697534,132.613583 81.8814528,130.322756 82.1417062,127.352323 L83.9789065,106.280796 C84.1237548,104.601667 83.5174739,102.943788 82.3182427,101.739699 C81.1190115,100.535611 79.4457777,99.9047436 77.735088,100.01169 L39.5066768,102.44604 C37.9272291,102.545913 36.4552961,103.267075 35.4232196,104.446697 C34.3911431,105.626319 33.8859486,107.164935 34.0217019,108.715146 Z" id="Shape" fill="#BBDBDE"></path>
                    <polygon id="Shape" fill="#BBDBDE" points="68 132.098563 76 138 74.0063898 132"></polygon>
                    <path d="M258.978299,8.71209363 L257.354144,27.6970057 C257.096294,30.7177295 254.512027,33.030889 251.429975,32.9996881 L216.663757,32.6461759 C213.631159,32.6197879 211.116876,30.3284862 210.859403,27.3565866 L209.022245,6.29642722 C208.873284,4.61447202 209.477719,2.95228216 210.677425,1.74470046 C211.877132,0.537118764 213.552748,-0.0957103027 215.265919,0.0117666638 L253.49345,2.44052611 C255.072861,2.54043844 256.54476,3.26188318 257.576813,4.44196833 C258.608866,5.62205349 259.114049,7.16127326 258.978299,8.71209363 Z" id="Shape" fill="#BBDBDE"></path>
                    <polygon id="Shape" fill="#BBDBDE" points="222 32.0924025 214 38 215.995204 32"></polygon>
                    <path d="M265.977722,99.717207 L264.36001,118.698122 C264.102126,121.71821 261.517518,124.030883 258.435059,123.999688 L223.657595,123.652796 C220.624729,123.619993 218.112756,121.328748 217.852474,118.357775 L216.021731,97.2824138 C215.874558,95.6024204 216.480145,93.9428934 217.680041,92.7380505 C218.879936,91.5332075 220.554737,90.902943 222.26623,91.0121666 L260.492149,93.4404147 C262.073029,93.5402332 263.546217,94.2624409 264.578604,95.4437347 C265.61099,96.6250285 266.115379,98.1656383 265.977722,99.717207 Z" id="Shape" fill="#BBDBDE"></path>
                    <polygon id="Shape" fill="#BBDBDE" points="218.249198 110 213 119 219 116.222552"></polygon>
                </g>
            </g>
        </g>
    </g>
</svg>