<?xml version="1.0" encoding="utf-8"?>
<!-- Generator: Adobe Illustrator 23.0.2, SVG Export Plug-In . SVG Version: 6.00 Build 0)  -->
<svg version="1.1" id="Layer_1" xmlns="http://www.w3.org/2000/svg" xmlns:xlink="http://www.w3.org/1999/xlink" x="0px" y="0px"
	 viewBox="0 0 406 302" style="enable-background:new 0 0 406 302;" xml:space="preserve">
<style type="text/css">
	.st0{enable-background:new    ;}
	.st1{fill:#47A5B5;}
	.st2{fill-rule:evenodd;clip-rule:evenodd;fill:#045473;}
	.st3{fill-rule:evenodd;clip-rule:evenodd;fill:#47A5B5;}
	.st4{fill:#CBCBCA;}
	.st5{fill:#B3B2B3;}
	.st6{fill-rule:evenodd;clip-rule:evenodd;fill:#B3B2B3;}
</style>
<title>Group 140@1x</title>
<desc>Created with Sketch.</desc>
<g id="Page-1">
	<g id="ECOSYSTEM_cn" transform="translate(-374.000000, -1080.000000)">
		<g id="Group-140" transform="translate(374.000000, 1074.000000)">
			<g id="Group-11" transform="translate(0.000000, 218.594000)">
				<g class="st0">
					<path class="st1" d="M3.9,61.4c-0.9-0.5-1.6-1.3-2.1-2.3C1.3,58.1,1,57,1,55.6c0-1.3,0.2-2.5,0.7-3.4c0.5-1,1.2-1.7,2.1-2.2
						c0.9-0.5,2-0.8,3.2-0.8c0.9,0,1.7,0.1,2.4,0.4c0.7,0.3,1.4,0.7,1.9,1.2l-0.6,1.4C10.1,51.6,9.5,51.3,9,51s-1.2-0.3-1.9-0.3
						c-1.3,0-2.3,0.4-3.1,1.3C3.3,52.8,3,54.1,3,55.6c0,1.6,0.4,2.8,1.1,3.7c0.7,0.9,1.7,1.3,3.1,1.3c0.7,0,1.3-0.1,1.9-0.3
						c0.6-0.2,1.2-0.6,1.8-1.1l0.6,1.4c-0.5,0.5-1.1,0.9-1.9,1.2c-0.7,0.3-1.5,0.4-2.4,0.4C5.8,62.1,4.8,61.9,3.9,61.4z"/>
				</g>
				<g>
				</g>
				<g class="st0">
					<path class="st1" d="M14.6,61.6c-0.7-0.4-1.2-0.9-1.5-1.6c-0.4-0.7-0.5-1.5-0.5-2.4c0-0.9,0.2-1.7,0.5-2.4
						c0.4-0.7,0.9-1.2,1.5-1.6c0.7-0.4,1.4-0.6,2.3-0.6s1.6,0.2,2.3,0.6c0.7,0.4,1.2,0.9,1.5,1.6c0.4,0.7,0.5,1.5,0.5,2.4
						c0,0.9-0.2,1.7-0.5,2.4c-0.4,0.7-0.9,1.2-1.5,1.6c-0.7,0.4-1.4,0.6-2.3,0.6S15.3,61.9,14.6,61.6z M18.8,59.9
						c0.4-0.5,0.6-1.3,0.6-2.3c0-1-0.2-1.8-0.6-2.3c-0.4-0.5-1-0.8-1.8-0.8s-1.4,0.3-1.8,0.8c-0.4,0.5-0.6,1.3-0.6,2.3
						c0,1,0.2,1.8,0.6,2.3c0.4,0.5,1,0.8,1.8,0.8S18.3,60.4,18.8,59.9z"/>
					<path class="st1" d="M31,56.5V62h-1.8v-5.4c0-0.7-0.1-1.3-0.4-1.6s-0.8-0.5-1.4-0.5c-0.7,0-1.3,0.2-1.8,0.7s-0.7,1.1-0.7,1.8v5
						h-1.8v-8.8h1.8v1.4c0.3-0.5,0.7-0.9,1.2-1.2s1.1-0.4,1.7-0.4C29.9,53,31,54.2,31,56.5z"/>
					<path class="st1" d="M38.2,60.7l-0.1,1.4c-0.3,0-0.6,0.1-0.9,0.1c-1.1,0-2-0.3-2.5-0.8c-0.6-0.6-0.8-1.4-0.8-2.4v-4.2h-1.7
						v-1.4h1.7v-2.6h1.8v2.6h2.4v1.4h-2.4v4.2c0,1.3,0.6,1.9,1.8,1.9C37.7,60.7,38,60.7,38.2,60.7z"/>
					<path class="st1" d="M44.8,54.5l-1.1,0.1c-0.9,0.1-1.5,0.3-1.9,0.8c-0.4,0.4-0.6,1-0.6,1.7V62h-1.8v-8.8h1.8v1.5
						c0.5-1,1.4-1.6,2.9-1.7l0.6,0L44.8,54.5z"/>
					<path class="st1" d="M45.7,49.3h2.1v1.9h-2.1V49.3z M45.8,62v-8.8h1.8V62H45.8z"/>
					<path class="st1" d="M56.8,53.6c0.6,0.4,1,0.9,1.4,1.6c0.3,0.7,0.5,1.5,0.5,2.4c0,0.9-0.2,1.7-0.5,2.4
						c-0.3,0.7-0.8,1.2-1.4,1.6c-0.6,0.4-1.3,0.6-2,0.6c-0.7,0-1.2-0.1-1.7-0.4s-0.9-0.7-1.2-1.2V62H50V49.3h1.8v5.3
						c0.3-0.5,0.6-0.9,1.2-1.2s1.1-0.4,1.7-0.4C55.5,53,56.2,53.2,56.8,53.6z M56.1,59.9c0.4-0.6,0.7-1.3,0.7-2.3
						c0-1-0.2-1.7-0.6-2.3c-0.4-0.5-1-0.8-1.8-0.8s-1.4,0.3-1.8,0.8s-0.6,1.3-0.6,2.3s0.2,1.8,0.6,2.3s1,0.8,1.8,0.8
						C55.1,60.7,55.7,60.4,56.1,59.9z"/>
					<path class="st1" d="M68.2,53.2V62h-1.8v-1.4c-0.3,0.5-0.7,0.9-1.1,1.2c-0.5,0.3-1,0.4-1.6,0.4c-2.1,0-3.2-1.2-3.2-3.5v-5.4
						h1.8v5.4c0,0.7,0.1,1.2,0.4,1.6s0.7,0.5,1.3,0.5c0.7,0,1.3-0.2,1.7-0.7s0.6-1.1,0.6-1.8v-4.9H68.2z"/>
					<path class="st1" d="M75.5,60.7l-0.1,1.4c-0.3,0-0.6,0.1-0.9,0.1c-1.1,0-2-0.3-2.5-0.8c-0.6-0.6-0.8-1.4-0.8-2.4v-4.2h-1.7
						v-1.4h1.7v-2.6h1.8v2.6h2.4v1.4h-2.4v4.2c0,1.3,0.6,1.9,1.8,1.9C75,60.7,75.2,60.7,75.5,60.7z"/>
					<path class="st1" d="M78.3,61.6c-0.7-0.4-1.2-0.9-1.5-1.6c-0.4-0.7-0.5-1.5-0.5-2.4c0-0.9,0.2-1.7,0.5-2.4
						c0.4-0.7,0.9-1.2,1.5-1.6c0.7-0.4,1.4-0.6,2.3-0.6c0.9,0,1.6,0.2,2.3,0.6c0.7,0.4,1.2,0.9,1.5,1.6c0.4,0.7,0.5,1.5,0.5,2.4
						c0,0.9-0.2,1.7-0.5,2.4c-0.4,0.7-0.9,1.2-1.5,1.6s-1.4,0.6-2.3,0.6C79.7,62.1,78.9,61.9,78.3,61.6z M82.4,59.9
						c0.4-0.5,0.6-1.3,0.6-2.3c0-1-0.2-1.8-0.6-2.3c-0.4-0.5-1-0.8-1.8-0.8s-1.4,0.3-1.8,0.8c-0.4,0.5-0.6,1.3-0.6,2.3
						c0,1,0.2,1.8,0.6,2.3c0.4,0.5,1,0.8,1.8,0.8C81.3,60.7,82,60.4,82.4,59.9z"/>
				</g>
				<g>
				</g>
				<g class="st0">
					<path class="st1" d="M97.9,54.5l-1.1,0.1C96,54.7,95.3,55,95,55.4c-0.4,0.4-0.6,1-0.6,1.7V62h-1.8v-8.8h1.8v1.5
						c0.5-1,1.4-1.6,2.9-1.7l0.6,0L97.9,54.5z"/>
				</g>
				<g>
				</g>
				<g class="st0">
					<path class="st1" d="M99.1,61l0.6-1.3c0.9,0.7,2,1,3.2,1c0.6,0,1-0.1,1.3-0.3c0.3-0.2,0.5-0.5,0.5-0.8c0-0.3-0.1-0.6-0.3-0.7
						s-0.6-0.3-1.1-0.5l-1.5-0.3c-0.8-0.2-1.4-0.5-1.8-0.9s-0.6-0.9-0.6-1.5c0-0.8,0.3-1.4,1-1.9c0.6-0.5,1.5-0.7,2.5-0.7
						c0.6,0,1.2,0.1,1.8,0.3c0.6,0.2,1,0.5,1.5,0.8l-0.6,1.3c-0.9-0.7-1.8-1-2.7-1c-0.6,0-1,0.1-1.3,0.3s-0.5,0.5-0.5,0.9
						c0,0.3,0.1,0.5,0.3,0.7c0.2,0.2,0.5,0.3,0.9,0.4l1.5,0.3c0.9,0.2,1.5,0.5,1.9,0.9c0.4,0.4,0.6,0.9,0.6,1.6c0,0.8-0.3,1.4-1,1.9
						c-0.6,0.5-1.5,0.7-2.6,0.7C101.2,62.1,100,61.8,99.1,61z"/>
				</g>
				<g id="Stroke-2">
					<path class="st1" d="M60,25.3c-0.4,0-0.8-0.2-1.1-0.5l-3-3.5H50c-1.7,0-3-1.4-3-3v-0.8h1.5v0.8c0,0.9,0.7,1.5,1.5,1.5h6.5
						l3.5,4.1l0-4.1h3c0.9,0,1.5-0.7,1.5-1.5V7.5c0-0.9-0.7-1.5-1.5-1.5h-4.6V4.4h4.6c1.7,0,3,1.4,3,3v10.7c0,1.7-1.4,3-3,3h-1.5
						v2.5c0,0.6-0.4,1.2-1,1.4C60.3,25.3,60.2,25.3,60,25.3z"/>
				</g>
				<g id="Stroke-3">
					<path class="st1" d="M51.4,35.8c-2.1,0-3.8-1.8-3.8-4.2v-1.1c0-2.4,1.6-4.2,3.8-4.2s3.8,1.8,3.8,4.2v1.1
						C55.1,34,53.5,35.8,51.4,35.8z M51.4,27.8c-1.5,0-2.2,1.3-2.2,2.7v1.1c0,1.3,0.8,2.7,2.2,2.7s2.2-1.3,2.2-2.7v-1.1
						C53.6,29.2,52.8,27.8,51.4,27.8z"/>
				</g>
				<g id="Stroke-4">
					<path class="st1" d="M40.4,37.8c-2.1,0-3.8-1.8-3.8-4.2v-1.1c0-2.4,1.6-4.2,3.8-4.2s3.8,1.8,3.8,4.2v1.1
						C44.1,36,42.5,37.8,40.4,37.8z M40.4,29.8c-1.5,0-2.2,1.3-2.2,2.7v1.1c0,1.3,0.8,2.7,2.2,2.7s2.2-1.3,2.2-2.7v-1.1
						C42.6,31.2,41.8,29.8,40.4,29.8z"/>
				</g>
				<g id="Stroke-5">
					<path class="st1" d="M58.1,42.1h-1.5v-4c0-1.8-3.4-2.2-5.2-2.2s-5.2,0.5-5.2,2.2v4h-1.5v-4c0-2.8,3.5-3.8,6.8-3.8
						s6.8,1,6.8,3.8V42.1z"/>
				</g>
				<g id="Stroke-6">
					<path class="st1" d="M35.1,42.1h-1.5v-2c0-2.8,3.5-3.8,6.8-3.8c0.8,0,3.7,0.1,5.4,1.3l-0.9,1.2c-1.1-0.8-3.1-1-4.6-1
						c-1.8,0-5.2,0.5-5.2,2.2V42.1z"/>
				</g>
				<g id="Stroke-7">
					<path class="st1" d="M62.4,37.8c-2.1,0-3.8-1.8-3.8-4.2v-1.1c0-2.4,1.6-4.2,3.8-4.2s3.8,1.8,3.8,4.2v1.1
						C66.1,36,64.5,37.8,62.4,37.8z M62.4,29.8c-1.5,0-2.2,1.3-2.2,2.7v1.1c0,1.3,0.8,2.7,2.2,2.7s2.2-1.3,2.2-2.7v-1.1
						C64.6,31.2,63.8,29.8,62.4,29.8z"/>
				</g>
				<g id="Stroke-8">
					<path class="st1" d="M69.1,42.1h-1.5v-2c0-1.8-3.4-2.2-5.2-2.2c-1.5,0-3.5,0.3-4.6,1l-0.9-1.2c1.7-1.2,4.6-1.3,5.4-1.3
						c3.3,0,6.8,1,6.8,3.8V42.1z"/>
				</g>
				<g id="Fill-9">
					<path class="st2" d="M37,0.6h17.6c1.3,0,2.3,1,2.3,2.3v10.7c0,1.3-1,2.3-2.3,2.3h-10l-3.2,4.3c-0.4,0.6-1.4,0.3-1.4-0.5v-3.8
						H37c-1.3,0-2.3-1-2.3-2.3V2.9C34.7,1.6,35.7,0.6,37,0.6"/>
				</g>
				<g id="Stroke-10">
					<path class="st1" d="M40.8,21.3c-0.2,0-0.3,0-0.5-0.1c-0.6-0.2-1-0.8-1-1.4v-3.1H37c-1.7,0-3-1.4-3-3V2.9c0-1.7,1.4-3,3-3h17.6
						c1.7,0,3,1.4,3,3v10.7c0,1.7-1.4,3-3,3H45l-3,4C41.7,21,41.3,21.3,40.8,21.3z M37,1.3c-0.9,0-1.5,0.7-1.5,1.5v10.7
						c0,0.9,0.7,1.5,1.5,1.5h3.8v4.6l3.5-4.6h10.3c0.9,0,1.5-0.7,1.5-1.5V2.9c0-0.9-0.7-1.5-1.5-1.5H37z"/>
				</g>
			</g>
			<g class="st0">
				<path class="st1" d="M164.3,72.3c0.4,0.5,0.6,1.2,0.6,2c0,1.1-0.4,1.9-1.1,2.5c-0.8,0.6-1.8,0.9-3.1,0.9h-5.5V65h5.3
					c1.3,0,2.3,0.3,3.1,0.9c0.7,0.6,1.1,1.4,1.1,2.4c0,0.7-0.2,1.3-0.5,1.7c-0.4,0.5-0.8,0.9-1.5,1.1
					C163.3,71.4,163.9,71.8,164.3,72.3z M156.9,70.5h3.2c1.8,0,2.7-0.7,2.7-2c0-0.7-0.2-1.2-0.7-1.5s-1.1-0.5-2-0.5h-3.2V70.5z
					 M162.4,75.7c0.4-0.3,0.6-0.9,0.6-1.6c0-0.7-0.2-1.3-0.7-1.6c-0.4-0.4-1.1-0.5-2-0.5h-3.5v4.2h3.5
					C161.3,76.2,162,76.1,162.4,75.7z"/>
				<path class="st1" d="M172.4,70.2l-1.1,0.1c-0.9,0.1-1.5,0.3-1.9,0.8c-0.4,0.4-0.6,1-0.6,1.7v4.9h-1.8v-8.8h1.8v1.5
					c0.5-1,1.4-1.6,2.9-1.7l0.6,0L172.4,70.2z"/>
				<path class="st1" d="M173.5,65h2.1v1.9h-2.1V65z M173.7,77.7v-8.8h1.8v8.8H173.7z"/>
			</g>
			<g>
			</g>
			<g class="st0">
				<path class="st1" d="M187.6,77.7h-2.3l-4.2-4.1v4.1h-1.8V65h1.8v7.9L185,69h2.2l-4.2,4.2L187.6,77.7z"/>
			</g>
			<g>
			</g>
			<g class="st0">
				<path class="st1" d="M190.7,77.3c-0.7-0.4-1.2-0.9-1.5-1.6c-0.4-0.7-0.5-1.5-0.5-2.4c0-0.9,0.2-1.7,0.5-2.4
					c0.4-0.7,0.9-1.2,1.5-1.6c0.7-0.4,1.4-0.6,2.3-0.6c0.9,0,1.6,0.2,2.3,0.6c0.7,0.4,1.2,0.9,1.5,1.6c0.4,0.7,0.5,1.5,0.5,2.4
					c0,0.9-0.2,1.7-0.5,2.4c-0.4,0.7-0.9,1.2-1.5,1.6c-0.7,0.4-1.4,0.6-2.3,0.6C192.1,77.8,191.4,77.7,190.7,77.3z M194.8,75.6
					c0.4-0.5,0.6-1.3,0.6-2.3c0-1-0.2-1.8-0.6-2.3c-0.4-0.5-1-0.8-1.8-0.8s-1.4,0.3-1.8,0.8c-0.4,0.5-0.6,1.3-0.6,2.3
					c0,1,0.2,1.8,0.6,2.3c0.4,0.5,1,0.8,1.8,0.8C193.8,76.4,194.4,76.1,194.8,75.6z"/>
			</g>
			<g id="Group-43" transform="translate(156.000000, 0.594000)">
				<g id="Stroke-12">
					<path class="st1" d="M15.9,140.2c-0.1,0-0.2,0-0.3-0.1l-9.7-5.6c-0.2-0.1-0.3-0.3-0.3-0.6s0.1-0.4,0.3-0.6l3.8-2.2
						c0.2-0.1,0.4-0.1,0.7,0l9.7,5.6c0.2,0.1,0.3,0.3,0.3,0.6s-0.1,0.4-0.3,0.6l-3.8,2.2C16.1,140.2,16,140.2,15.9,140.2z M7.5,134
						l8.4,4.8l2.5-1.5l-8.4-4.8L7.5,134z"/>
				</g>
				<g id="Stroke-14">
					<path class="st1" d="M19.7,133.6c-0.1,0-0.2,0-0.3-0.1l-9.7-5.6c-0.2-0.1-0.3-0.3-0.3-0.6s0.1-0.4,0.3-0.6l3.8-2.2
						c0.2-0.1,0.4-0.1,0.7,0l9.7,5.6c0.2,0.1,0.3,0.3,0.3,0.6s-0.1,0.4-0.3,0.6l-3.8,2.2C20,133.5,19.8,133.6,19.7,133.6z
						 M11.3,127.3l8.4,4.8l2.5-1.5l-8.4-4.8L11.3,127.3z"/>
				</g>
				<g id="Stroke-16">
					<path class="st1" d="M23.3,107.7c-0.1,0-0.2,0-0.3-0.1l-9.7-5.6c-0.2-0.1-0.3-0.3-0.3-0.6c0-0.2,0.1-0.4,0.3-0.6l3.8-2.2
						c0.2-0.1,0.4-0.1,0.6,0l9.7,5.6c0.2,0.1,0.3,0.3,0.3,0.6s-0.1,0.4-0.3,0.6l-3.8,2.2C23.5,107.7,23.4,107.7,23.3,107.7z
						 M14.9,101.4l8.4,4.8l2.5-1.5l-8.4-4.8L14.9,101.4z"/>
				</g>
				<g id="Stroke-18">
					<path class="st1" d="M27.2,101c-0.1,0-0.2,0-0.3-0.1l-9.7-5.6c-0.2-0.1-0.3-0.3-0.3-0.6s0.1-0.4,0.3-0.6L21,92
						c0.2-0.1,0.4-0.1,0.7,0l9.7,5.6c0.2,0.1,0.3,0.3,0.3,0.6c0,0.2-0.1,0.4-0.3,0.6l-3.8,2.2C27.4,101,27.3,101,27.2,101z
						 M18.8,94.8l8.4,4.8l2.5-1.5l-8.4-4.8L18.8,94.8z"/>
				</g>
				<g id="Stroke-20">
					<path class="st1" d="M23.6,126.9c-0.1,0-0.2,0-0.3-0.1L0.5,113.7c-0.2-0.1-0.3-0.3-0.3-0.6c0-0.2,0.1-0.4,0.3-0.6l12.8-7.3
						c0.2-0.1,0.4-0.1,0.6,0l22.8,13.1c0.2,0.1,0.3,0.3,0.3,0.6c0,0.2-0.1,0.4-0.3,0.6l-12.8,7.3C23.8,126.9,23.7,126.9,23.6,126.9z
						 M2.1,113.2l21.5,12.3l11.5-6.6l-21.5-12.3L2.1,113.2z"/>
				</g>
				<g id="Stroke-22">
					<path class="st1" d="M19.7,138c-0.1,0-0.2,0-0.3-0.1l-9.7-5.6c-0.2-0.1-0.3-0.3-0.3-0.6v-4.4c0-0.2,0.1-0.4,0.3-0.6
						c0.2-0.1,0.4-0.1,0.7,0l9.7,5.6c0.2,0.1,0.3,0.3,0.3,0.6v4.4c0,0.2-0.1,0.4-0.3,0.6C20,138,19.8,138,19.7,138z M10.7,131.4
						l8.4,4.8v-2.9l-8.4-4.8V131.4z"/>
				</g>
				<g id="Stroke-24">
					<path class="st1" d="M15.9,144.6c-0.1,0-0.2,0-0.3-0.1L5.9,139c-0.2-0.1-0.3-0.3-0.3-0.6V134c0-0.2,0.1-0.4,0.3-0.6
						c0.2-0.1,0.4-0.1,0.7,0l9.7,5.6c0.2,0.1,0.3,0.3,0.3,0.6v4.4c0,0.2-0.1,0.4-0.3,0.6C16.1,144.6,16,144.6,15.9,144.6z M6.8,138
						l8.4,4.8v-2.9l-8.4-4.8V138z"/>
				</g>
				<g id="Stroke-26">
					<path class="st1" d="M27.2,105.5c-0.1,0-0.2,0-0.3-0.1l-9.7-5.6c-0.2-0.1-0.3-0.3-0.3-0.6v-4.4c0-0.2,0.1-0.4,0.3-0.6
						c0.2-0.1,0.4-0.1,0.7,0l9.7,5.6c0.2,0.1,0.3,0.3,0.3,0.6l0,4.4c0,0.2-0.1,0.4-0.3,0.6C27.4,105.4,27.3,105.5,27.2,105.5z
						 M18.1,98.8l8.4,4.8l0-2.9l-8.4-4.8V98.8z"/>
				</g>
				<g id="Stroke-28">
					<path class="st1" d="M23.3,112.1c-0.1,0-0.2,0-0.3-0.1l-9.7-5.6c-0.2-0.1-0.3-0.3-0.3-0.6v-4.4c0-0.2,0.1-0.4,0.3-0.6
						c0.2-0.1,0.4-0.1,0.7,0l9.7,5.6c0.2,0.1,0.3,0.3,0.3,0.6v4.4c0,0.2-0.1,0.4-0.3,0.6C23.5,112.1,23.4,112.1,23.3,112.1z
						 M14.3,105.5l8.4,4.8v-2.9l-8.4-4.8V105.5z"/>
				</g>
				<g id="Stroke-30">
					<path class="st1" d="M23.6,131.4c-0.1,0-0.2,0-0.3-0.1l-9.7-5.6c-0.2-0.1-0.3-0.3-0.3-0.6v-4.4c0-0.2,0.1-0.4,0.3-0.6
						c0.2-0.1,0.4-0.1,0.6,0l9.7,5.6c0.2,0.1,0.3,0.3,0.3,0.6v4.4c0,0.2-0.1,0.4-0.3,0.6C23.8,131.3,23.7,131.4,23.6,131.4z
						 M14.5,124.7l8.4,4.8v-2.9l-8.4-4.8V124.7z"/>
				</g>
				<g id="Fill-32">
					<polygon class="st2" points="31,115.9 31,98.2 27.2,100.4 27.2,104.8 23.3,107 23.3,111.4 					"/>
				</g>
				<g id="Stroke-34">
					<path class="st1" d="M31,116.5c-0.1,0-0.2,0-0.3-0.1L23,112c-0.2-0.1-0.3-0.3-0.3-0.6V107c0-0.2,0.1-0.4,0.3-0.6l3.5-2l0-4.1
						c0-0.2,0.1-0.4,0.3-0.6l3.8-2.2c0.2-0.1,0.4-0.1,0.7,0c0.2,0.1,0.3,0.3,0.3,0.6v17.7c0,0.2-0.1,0.4-0.3,0.6
						C31.2,116.5,31.1,116.5,31,116.5z M24,111.1l6.4,3.7V99.3l-2.5,1.5l0,4.1c0,0.2-0.1,0.4-0.3,0.6l-3.5,2V111.1z"/>
				</g>
				<g id="Fill-36">
					<polygon class="st2" points="36.4,119 23.6,126.3 23.6,130.7 19.7,132.9 19.7,137.3 15.9,139.6 15.9,144 36.4,132.2 					"/>
				</g>
				<g id="Stroke-38">
					<path class="st1" d="M15.9,144.6c-0.1,0-0.2,0-0.3-0.1c-0.2-0.1-0.3-0.3-0.3-0.6v-4.4c0-0.2,0.1-0.4,0.3-0.6l3.5-2v-4.1
						c0-0.2,0.1-0.4,0.3-0.6l3.5-2v-4c0-0.2,0.1-0.4,0.3-0.6l12.8-7.3c0.2-0.1,0.4-0.1,0.6,0c0.2,0.1,0.3,0.3,0.3,0.6v13.2
						c0,0.2-0.1,0.4-0.3,0.6l-20.5,11.8C16.1,144.6,16,144.6,15.9,144.6z M16.5,139.9v2.9l19.2-11.1v-11.7l-11.5,6.6v4
						c0,0.2-0.1,0.4-0.3,0.6l-3.5,2v4.1c0,0.2-0.1,0.4-0.3,0.6L16.5,139.9z"/>
				</g>
				<g id="Stroke-40">
					<path class="st1" d="M12.2,126.7c-0.1,0-0.2,0-0.3-0.1l-11.4-6.6c-0.2-0.1-0.3-0.3-0.3-0.6v-6.3c0-0.2,0.1-0.4,0.3-0.6
						c0.2-0.1,0.4-0.1,0.6,0l13.1,7.5c0.2,0.1,0.3,0.3,0.3,0.6v4.4c0,0.2-0.1,0.4-0.3,0.6l-1.7,1C12.4,126.7,12.3,126.7,12.2,126.7z
						 M1.4,119.1l10.7,6.2l1.1-0.6v-3.6l-11.8-6.8V119.1z M13.9,125.1L13.9,125.1L13.9,125.1z"/>
				</g>
				<g class="st0">
					<path class="st1" d="M157.7,5.5h4.4c2.1,0,3.6,0.6,4.8,1.7c1.1,1.1,1.7,2.7,1.7,4.7c0,2-0.6,3.6-1.7,4.7
						c-1.1,1.1-2.7,1.7-4.8,1.7h-4.4V5.5z M162,16.7c3.1,0,4.7-1.6,4.7-4.8c0-3.2-1.6-4.8-4.7-4.8h-2.5v9.6H162z"/>
				</g>
				<g>
				</g>
				<g class="st0">
					<path class="st1" d="M178.7,14.1h-6.2c0.1,1.9,1.1,2.8,2.8,2.8c1,0,1.9-0.3,2.7-1l0.6,1.3c-0.4,0.3-0.9,0.6-1.5,0.8
						c-0.6,0.2-1.2,0.3-1.8,0.3c-1.4,0-2.5-0.4-3.3-1.2c-0.8-0.8-1.2-1.9-1.2-3.3c0-0.9,0.2-1.7,0.5-2.4s0.9-1.2,1.5-1.6
						c0.6-0.4,1.4-0.6,2.2-0.6c1.2,0,2.1,0.4,2.8,1.2c0.7,0.8,1,1.8,1,3.2V14.1z M173.3,11.2c-0.4,0.4-0.7,1.1-0.7,1.9h4.6
						c0-0.8-0.2-1.4-0.6-1.9c-0.4-0.4-0.9-0.7-1.6-0.7C174.2,10.5,173.7,10.7,173.3,11.2z"/>
					<path class="st1" d="M186.6,9.4h1.8l-3.8,8.8H183l-3.8-8.8h1.9l2.7,6.7L186.6,9.4z"/>
				</g>
				<g>
				</g>
				<g class="st0">
					<path class="st1" d="M197.2,14.1H191c0.1,1.9,1.1,2.8,2.8,2.8c1,0,1.9-0.3,2.7-1l0.6,1.3c-0.4,0.3-0.9,0.6-1.5,0.8
						c-0.6,0.2-1.2,0.3-1.8,0.3c-1.4,0-2.5-0.4-3.3-1.2s-1.2-1.9-1.2-3.3c0-0.9,0.2-1.7,0.5-2.4c0.4-0.7,0.9-1.2,1.5-1.6
						c0.6-0.4,1.4-0.6,2.2-0.6c1.2,0,2.1,0.4,2.8,1.2c0.7,0.8,1,1.8,1,3.2V14.1z M191.7,11.2c-0.4,0.4-0.7,1.1-0.7,1.9h4.6
						c0-0.8-0.2-1.4-0.6-1.9c-0.4-0.4-0.9-0.7-1.6-0.7C192.7,10.5,192.2,10.7,191.7,11.2z"/>
					<path class="st1" d="M199.2,18.2V5.5h1.8v12.7H199.2z"/>
					<path class="st1" d="M205.1,17.8c-0.7-0.4-1.2-0.9-1.5-1.6c-0.4-0.7-0.5-1.5-0.5-2.4c0-0.9,0.2-1.7,0.5-2.4
						c0.4-0.7,0.9-1.2,1.5-1.6c0.7-0.4,1.4-0.6,2.3-0.6s1.6,0.2,2.3,0.6c0.7,0.4,1.2,0.9,1.5,1.6c0.4,0.7,0.5,1.5,0.5,2.4
						c0,0.9-0.2,1.7-0.5,2.4c-0.4,0.7-0.9,1.2-1.5,1.6c-0.7,0.4-1.4,0.6-2.3,0.6S205.7,18.1,205.1,17.8z M209.2,16.1
						c0.4-0.5,0.6-1.3,0.6-2.3c0-1-0.2-1.8-0.6-2.3c-0.4-0.5-1-0.8-1.8-0.8s-1.4,0.3-1.8,0.8c-0.4,0.5-0.6,1.3-0.6,2.3
						c0,1,0.2,1.8,0.6,2.3c0.4,0.5,1,0.8,1.8,0.8S208.8,16.6,209.2,16.1z"/>
					<path class="st1" d="M220.4,9.8c0.6,0.4,1.1,0.9,1.4,1.6c0.3,0.7,0.5,1.5,0.5,2.4c0,0.9-0.2,1.7-0.5,2.4
						c-0.3,0.7-0.8,1.2-1.4,1.6c-0.6,0.4-1.3,0.6-2,0.6c-0.7,0-1.2-0.1-1.7-0.4s-0.9-0.7-1.2-1.2v4.8h-1.8v-12h1.8v1.4
						c0.3-0.5,0.6-0.9,1.2-1.2s1.1-0.4,1.7-0.4C219.2,9.2,219.8,9.4,220.4,9.8z M219.8,16.1c0.4-0.5,0.6-1.3,0.6-2.3
						c0-1-0.2-1.8-0.7-2.3s-1-0.8-1.8-0.8c-0.8,0-1.4,0.3-1.8,0.8s-0.6,1.3-0.6,2.3s0.2,1.8,0.6,2.3s1,0.8,1.8,0.8
						S219.4,16.6,219.8,16.1z"/>
					<path class="st1" d="M231.9,14.1h-6.2c0.1,1.9,1.1,2.8,2.8,2.8c1,0,1.9-0.3,2.7-1l0.6,1.3c-0.4,0.3-0.9,0.6-1.5,0.8
						c-0.6,0.2-1.2,0.3-1.8,0.3c-1.4,0-2.5-0.4-3.3-1.2c-0.8-0.8-1.2-1.9-1.2-3.3c0-0.9,0.2-1.7,0.5-2.4s0.9-1.2,1.5-1.6
						c0.6-0.4,1.4-0.6,2.2-0.6c1.2,0,2.1,0.4,2.8,1.2c0.7,0.8,1,1.8,1,3.2V14.1z M226.4,11.2c-0.4,0.4-0.7,1.1-0.7,1.9h4.6
						c0-0.8-0.2-1.4-0.6-1.9c-0.4-0.4-0.9-0.7-1.6-0.7C227.4,10.5,226.8,10.7,226.4,11.2z"/>
				</g>
				<g>
				</g>
				<g class="st0">
					<path class="st1" d="M240.6,10.7l-1.1,0.1c-0.9,0.1-1.5,0.3-1.9,0.8c-0.4,0.4-0.6,1-0.6,1.7v4.9h-1.8V9.4h1.8v1.5
						c0.5-1,1.4-1.6,2.9-1.7l0.6,0L240.6,10.7z"/>
				</g>
				<g>
				</g>
				<g class="st0">
					<path class="st1" d="M241.8,17.2l0.6-1.3c0.9,0.7,1.9,1,3.2,1c0.6,0,1-0.1,1.3-0.3c0.3-0.2,0.5-0.5,0.5-0.8
						c0-0.3-0.1-0.6-0.3-0.7c-0.2-0.2-0.6-0.3-1.1-0.5l-1.5-0.3c-0.8-0.2-1.4-0.5-1.8-0.9s-0.6-0.9-0.6-1.5c0-0.8,0.3-1.4,1-1.9
						c0.6-0.5,1.5-0.7,2.5-0.7c0.6,0,1.2,0.1,1.8,0.3s1.1,0.5,1.5,0.8l-0.6,1.3c-0.9-0.7-1.8-1-2.7-1c-0.6,0-1,0.1-1.3,0.3
						s-0.5,0.5-0.5,0.9c0,0.3,0.1,0.5,0.3,0.7c0.2,0.2,0.5,0.3,0.9,0.4l1.5,0.3c0.9,0.2,1.5,0.5,1.9,0.9c0.4,0.4,0.6,0.9,0.6,1.6
						c0,0.8-0.3,1.4-1,1.9c-0.6,0.5-1.5,0.7-2.6,0.7C243.9,18.3,242.7,18,241.8,17.2z"/>
				</g>
			</g>
			<g class="st0">
				<path class="st1" d="M322.5,38.8l-1.4-1.5c-0.5,0.5-1.1,0.9-1.8,1.2c-0.7,0.3-1.4,0.4-2.1,0.4c-0.8,0-1.6-0.1-2.2-0.4
					s-1.1-0.7-1.5-1.2c-0.4-0.5-0.5-1.1-0.5-1.8c0-0.8,0.2-1.5,0.7-2.1c0.4-0.6,1.2-1.2,2.2-1.8c-0.5-0.6-0.9-1.1-1.1-1.5
					c-0.2-0.4-0.3-0.9-0.3-1.4c0-0.9,0.3-1.5,0.9-2.1c0.6-0.5,1.4-0.8,2.4-0.8c0.9,0,1.6,0.2,2.2,0.7c0.5,0.5,0.8,1.1,0.8,1.9
					c0,0.6-0.2,1.2-0.6,1.7c-0.4,0.5-1,1-1.9,1.6l2.8,3c0.5-1,0.8-2.2,0.8-3.7h1.5c-0.1,1.8-0.5,3.4-1.3,4.8l2.6,2.8H322.5z
					 M320.1,36.2l-3.3-3.5c-0.7,0.4-1.2,0.9-1.5,1.3s-0.5,0.9-0.5,1.4c0,0.6,0.2,1.1,0.7,1.5c0.5,0.4,1.1,0.5,1.8,0.5
					C318.4,37.5,319.3,37.1,320.1,36.2z M316.5,27.7c-0.3,0.3-0.4,0.7-0.4,1.1c0,0.3,0.1,0.6,0.2,0.9s0.5,0.7,0.9,1.2
					c0.7-0.4,1.2-0.8,1.5-1.1c0.3-0.3,0.4-0.7,0.4-1.1c0-0.4-0.1-0.8-0.4-1c-0.3-0.3-0.6-0.4-1-0.4
					C317.2,27.3,316.8,27.4,316.5,27.7z"/>
				<path class="st1" d="M331.7,37.6c-0.9-0.9-1.3-2.2-1.3-3.9v-7.7h1.8v7.8c0,1.2,0.3,2,0.8,2.6c0.6,0.6,1.4,0.9,2.5,0.9
					c1.1,0,1.9-0.3,2.5-0.9c0.6-0.6,0.8-1.5,0.8-2.6v-7.8h1.8v7.7c0,1.7-0.4,3-1.3,3.9c-0.9,0.9-2.2,1.3-3.8,1.3
					C333.9,38.9,332.6,38.5,331.7,37.6z"/>
				<path class="st1" d="M342.8,37.8l0.6-1.3c0.9,0.7,2,1,3.2,1c0.6,0,1-0.1,1.3-0.3c0.3-0.2,0.5-0.5,0.5-0.8c0-0.3-0.1-0.6-0.3-0.7
					c-0.2-0.2-0.6-0.3-1.1-0.5l-1.5-0.3c-0.8-0.2-1.4-0.5-1.8-0.9s-0.6-0.9-0.6-1.5c0-0.8,0.3-1.4,1-1.9s1.5-0.7,2.5-0.7
					c0.6,0,1.2,0.1,1.8,0.3c0.6,0.2,1,0.5,1.5,0.8l-0.6,1.3c-0.9-0.7-1.8-1-2.7-1c-0.6,0-1,0.1-1.3,0.3s-0.5,0.5-0.5,0.9
					c0,0.3,0.1,0.5,0.3,0.7c0.2,0.2,0.5,0.3,0.9,0.4l1.5,0.3c0.9,0.2,1.5,0.5,1.9,0.9c0.4,0.4,0.6,0.9,0.6,1.6c0,0.8-0.3,1.4-1,1.9
					c-0.6,0.5-1.5,0.7-2.6,0.7C344.9,38.9,343.7,38.5,342.8,37.8z"/>
				<path class="st1" d="M359.6,34.7h-6.2c0.1,1.9,1.1,2.8,2.8,2.8c1,0,1.9-0.3,2.7-1l0.6,1.3c-0.4,0.3-0.9,0.6-1.5,0.8
					c-0.6,0.2-1.2,0.3-1.8,0.3c-1.4,0-2.5-0.4-3.3-1.2s-1.2-1.9-1.2-3.3c0-0.9,0.2-1.7,0.5-2.4s0.9-1.2,1.5-1.6s1.4-0.6,2.2-0.6
					c1.2,0,2.1,0.4,2.8,1.2c0.7,0.8,1,1.8,1,3.2V34.7z M354.1,31.8c-0.4,0.4-0.7,1.1-0.7,1.9h4.6c0-0.8-0.2-1.4-0.6-1.9
					c-0.4-0.4-0.9-0.7-1.6-0.7C355.1,31.1,354.5,31.3,354.1,31.8z"/>
			</g>
			<g>
			</g>
			<g class="st0">
				<path class="st1" d="M367.9,31.3l-1.1,0.1c-0.9,0.1-1.5,0.3-1.9,0.8c-0.4,0.4-0.6,1-0.6,1.7v4.9h-1.8V30h1.8v1.5
					c0.5-1,1.4-1.6,2.9-1.7l0.6,0L367.9,31.3z"/>
			</g>
			<g>
			</g>
			<g class="st0">
				<path class="st1" d="M369,37.8l0.6-1.3c0.9,0.7,2,1,3.2,1c0.6,0,1-0.1,1.3-0.3c0.3-0.2,0.5-0.5,0.5-0.8c0-0.3-0.1-0.6-0.3-0.7
					s-0.6-0.3-1.1-0.5l-1.5-0.3c-0.8-0.2-1.4-0.5-1.8-0.9c-0.4-0.4-0.6-0.9-0.6-1.5c0-0.8,0.3-1.4,1-1.9c0.6-0.5,1.5-0.7,2.5-0.7
					c0.6,0,1.2,0.1,1.8,0.3c0.6,0.2,1,0.5,1.5,0.8l-0.6,1.3c-0.9-0.7-1.8-1-2.7-1c-0.6,0-1,0.1-1.3,0.3c-0.3,0.2-0.5,0.5-0.5,0.9
					c0,0.3,0.1,0.5,0.3,0.7c0.2,0.2,0.5,0.3,0.9,0.4l1.5,0.3c0.9,0.2,1.5,0.5,1.9,0.9c0.4,0.4,0.6,0.9,0.6,1.6c0,0.8-0.3,1.4-1,1.9
					c-0.6,0.5-1.5,0.7-2.6,0.7C371.2,38.9,370,38.5,369,37.8z"/>
			</g>
			<g id="Group-74" transform="translate(333.000000, 55.594000)">
				<g id="Fill-44">
					<path class="st2" d="M19.4,33.9c-0.5-1.5-1.9-2.5-3.5-2.5h-5.3v-5.3l1.5,1.5h5.3c3.4,0,3-3.8,3-3.8h-5.3l-5.3-5.3h-3
						c-1.7,0-3,1.3-3,3v11.3c0,2.5,2,2.5,4.5,2.5h6.8l1.3,7.8h4.2L19.4,33.9z"/>
				</g>
				<g id="Stroke-46">
					<path class="st1" d="M7.7,17c-2.7,0-5-2.3-5-5v-1.4c0-2.8,2.2-5,5-5s5,2.3,5,5V12C12.7,14.8,10.5,17,7.7,17z M7.7,7
						c-1.9,0-3.5,1.6-3.5,3.5V12c0,2,1.6,3.5,3.5,3.5s3.5-1.6,3.5-3.5v-1.4C11.2,8.6,9.6,7,7.7,7z"/>
				</g>
				<g id="Stroke-48">
					<rect x="12.4" y="26.9" class="st1" width="31.7" height="1.5"/>
				</g>
				<g id="Stroke-50">
					<polygon class="st1" points="30.9,28 29.4,28 29.4,24.8 24.2,24.8 24.2,23.3 30.9,23.3 					"/>
				</g>
				<g id="Stroke-52">
					<polygon class="st1" points="34.9,28 33.4,28 33.4,23.3 39.4,23.3 39.4,12.8 35.2,12.8 35.2,11.3 40.9,11.3 40.9,24.8 
						34.9,24.8 					"/>
				</g>
				<g id="Stroke-54">
					<path class="st1" d="M32.8,22H29V-0.5h3.8c1.5,0,2.8,1.2,2.8,2.8v17C35.5,20.8,34.3,22,32.8,22z M30.5,20.5h2.2
						c0.7,0,1.2-0.6,1.2-1.2v-17C34,1.6,33.5,1,32.8,1h-2.2V20.5z"/>
				</g>
				<g id="Stroke-56">
					<rect x="6.8" y="39.9" class="st1" width="1.5" height="4.5"/>
				</g>
				<g id="Stroke-58">
					<rect x="3.1" y="42.9" class="st1" width="1.5" height="1.5"/>
				</g>
				<g id="Stroke-60">
					<rect x="10.6" y="42.9" class="st1" width="1.5" height="1.5"/>
				</g>
				<g id="Stroke-62">
					<path class="st1" d="M15.6,43.3l-1.2-7.2H8.3c-2.5,0-5.3,0-5.3-3.3V21.6c0-2.1,1.7-3.8,3.8-3.8h3.3l5.3,5.3H21l0.1,0.7
						c0,0.1,0.2,2.1-1,3.5c-0.7,0.7-1.6,1.1-2.8,1.1h-5.6L7,23.6l1.1-1.1l4.3,4.3h4.9c0.7,0,1.3-0.2,1.7-0.6
						c0.4-0.5,0.6-1.1,0.6-1.6h-4.8l-5.3-5.3H6.8c-1.2,0-2.3,1-2.3,2.3v11.3c0,1.5,0.8,1.8,3.8,1.8h7.4l1.4,8.4L15.6,43.3z"/>
				</g>
				<g id="Stroke-64">
					<path class="st1" d="M19.8,43.3l-1.2-9.2c-0.4-1.2-1.6-1.9-2.8-1.9h-6v-6h1.5v4.5h4.5c1.9,0,3.6,1.2,4.3,3l0,0.2l1.2,9.3
						L19.8,43.3z"/>
				</g>
				<g id="Stroke-66">
					<path class="st1" d="M13.6,39.1H6.8c-3.7,0-6.8-3-6.8-6.8V20.1h1.5v12.3c0,2.9,2.4,5.3,5.3,5.3h6.8V39.1z"/>
				</g>
				<g id="Stroke-68">
					<polygon class="st1" points="8.8,33.1 6.7,32.1 0.8,32.1 0.8,30.6 7,30.6 9.4,31.7 					"/>
				</g>
				<g id="Stroke-70">
					<rect x="45.7" y="26.8" class="st1" width="2" height="1.5"/>
				</g>
				<g id="Stroke-72">
					<rect x="6.1" y="42.9" class="st1" width="3" height="1.5"/>
				</g>
			</g>
			<g class="st0">
				<path class="st1" d="M239.5,285v-12.7h8.2v1.5h-6.4v4h6.1v1.5h-6.1v4.2h6.4v1.5H239.5z"/>
			</g>
			<g>
			</g>
			<g class="st0">
				<path class="st1" d="M254.5,280.5l3.7,4.5h-2.2l-2.6-3.2l-2.5,3.2h-2.2l3.7-4.5l-3.5-4.3h2.2l2.3,3l2.3-3h2.2L254.5,280.5z"/>
			</g>
			<g>
			</g>
			<g class="st0">
				<path class="st1" d="M260.8,284.6c-0.7-0.4-1.2-0.9-1.5-1.6c-0.4-0.7-0.5-1.5-0.5-2.4s0.2-1.7,0.5-2.4s0.9-1.2,1.5-1.6
					s1.4-0.6,2.3-0.6c0.6,0,1.2,0.1,1.8,0.3c0.6,0.2,1,0.5,1.4,0.8l-0.6,1.3c-0.8-0.6-1.6-1-2.5-1c-0.8,0-1.5,0.3-2,0.8
					c-0.5,0.5-0.7,1.3-0.7,2.3c0,1,0.2,1.7,0.7,2.3s1.1,0.8,2,0.8c0.9,0,1.7-0.3,2.5-1l0.6,1.3c-0.4,0.3-0.9,0.6-1.4,0.8
					c-0.6,0.2-1.2,0.3-1.8,0.3C262.3,285.1,261.5,284.9,260.8,284.6z"/>
				<path class="st1" d="M275.9,279.5v5.5h-1.8v-5.4c0-0.7-0.1-1.3-0.4-1.6s-0.8-0.5-1.4-0.5c-0.7,0-1.3,0.2-1.8,0.7
					s-0.7,1.1-0.7,1.8v5H268v-12.7h1.8v5.2c0.3-0.5,0.7-0.9,1.2-1.2c0.5-0.3,1.1-0.4,1.7-0.4C274.8,276,275.9,277.2,275.9,279.5z"/>
				<path class="st1" d="M284.6,276.9c0.6,0.6,0.9,1.5,0.9,2.7v5.4h-1.7v-1.5c-0.2,0.5-0.6,0.9-1,1.2c-0.5,0.3-1,0.4-1.6,0.4
					c-0.6,0-1.1-0.1-1.6-0.4c-0.5-0.2-0.9-0.6-1.1-1c-0.3-0.4-0.4-0.9-0.4-1.4c0-0.6,0.2-1.1,0.5-1.5c0.3-0.4,0.9-0.6,1.6-0.8
					c0.8-0.2,1.8-0.2,3.1-0.2h0.4v-0.5c0-0.7-0.1-1.2-0.4-1.5c-0.3-0.3-0.7-0.4-1.4-0.4c-1,0-2,0.3-3,0.9l-0.5-1.3
					c0.5-0.3,1-0.6,1.7-0.8s1.3-0.3,1.9-0.3C283.2,276,284.1,276.3,284.6,276.9z M283.1,283.1c0.4-0.4,0.6-1,0.6-1.7v-0.5h-0.3
					c-0.9,0-1.7,0-2.2,0.1c-0.5,0.1-0.9,0.2-1.1,0.4c-0.2,0.2-0.3,0.5-0.3,0.9c0,0.4,0.2,0.8,0.5,1.1c0.3,0.3,0.7,0.4,1.2,0.4
					C282.1,283.8,282.7,283.6,283.1,283.1z"/>
				<path class="st1" d="M295.9,279.5v5.5h-1.8v-5.4c0-0.7-0.1-1.3-0.4-1.6s-0.8-0.5-1.4-0.5c-0.7,0-1.3,0.2-1.8,0.7
					c-0.4,0.5-0.7,1.1-0.7,1.8v5H288v-8.8h1.8v1.4c0.3-0.5,0.7-0.9,1.2-1.2c0.5-0.3,1.1-0.4,1.7-0.4
					C294.8,276,295.9,277.2,295.9,279.5z"/>
				<path class="st1" d="M306.5,276.2v8.1c0,1.3-0.4,2.4-1.1,3c-0.7,0.7-1.8,1-3.2,1c-0.8,0-1.5-0.1-2.2-0.3
					c-0.7-0.2-1.3-0.5-1.8-0.9l0.6-1.3c0.6,0.4,1.1,0.6,1.7,0.8s1.1,0.2,1.7,0.2c1.6,0,2.5-0.8,2.5-2.5v-1.4
					c-0.3,0.5-0.6,0.9-1.2,1.2s-1.1,0.4-1.8,0.4c-0.8,0-1.5-0.2-2.1-0.5c-0.6-0.4-1.1-0.9-1.4-1.5s-0.5-1.4-0.5-2.3s0.2-1.6,0.5-2.3
					s0.8-1.2,1.4-1.5s1.3-0.5,2-0.5c0.7,0,1.3,0.1,1.8,0.4c0.5,0.3,0.9,0.7,1.2,1.2v-1.4H306.5z M304.1,282.5
					c0.4-0.5,0.7-1.2,0.7-2.1c0-0.9-0.2-1.6-0.7-2.1c-0.4-0.5-1.1-0.8-1.8-0.8s-1.4,0.3-1.9,0.8c-0.5,0.5-0.7,1.2-0.7,2.1
					s0.2,1.6,0.7,2.1c0.5,0.5,1.1,0.8,1.9,0.8S303.6,283,304.1,282.5z"/>
				<path class="st1" d="M316.6,280.9h-6.2c0.1,1.9,1.1,2.8,2.8,2.8c1,0,1.9-0.3,2.7-1l0.6,1.3c-0.4,0.3-0.9,0.6-1.5,0.8
					c-0.6,0.2-1.2,0.3-1.8,0.3c-1.4,0-2.5-0.4-3.3-1.2c-0.8-0.8-1.2-1.9-1.2-3.3c0-0.9,0.2-1.7,0.5-2.4s0.9-1.2,1.5-1.6
					c0.6-0.4,1.4-0.6,2.2-0.6c1.2,0,2.1,0.4,2.8,1.2c0.7,0.8,1,1.8,1,3.2V280.9z M311.1,278c-0.4,0.4-0.7,1.1-0.7,1.9h4.6
					c0-0.8-0.2-1.4-0.6-1.9c-0.4-0.4-0.9-0.7-1.6-0.7C312.1,277.3,311.6,277.6,311.1,278z"/>
			</g>
			<g id="Group-113" transform="translate(251.000000, 219.594000)">
				<g id="Stroke-75">
					<path class="st1" d="M34.6,37.2l-0.6-1.4c1.4-0.6,2.7-1.5,3.7-2.7l1.2,0.9C37.8,35.4,36.3,36.5,34.6,37.2z"/>
				</g>
				<g id="Stroke-77">
					<path class="st1" d="M20.3,21.6l-0.5-0.3c-1.3-0.9-2.9-1.5-4.5-1.6l0.1-1.5c1.9,0.1,3.7,0.8,5.3,1.8l0.5,0.3L20.3,21.6z"/>
				</g>
				<g id="Stroke-79">
					<path class="st1" d="M33.5,37.6l-0.1-1.5c0.3,0,0.7-0.2,0.9-0.5c0.4-0.6,0.3-1.3-0.3-1.7l-0.1-0.1l-4.2-4l1-1.1l4.2,3.9
						c1.2,0.8,1.5,2.5,0.7,3.6C35,37.1,34.3,37.6,33.5,37.6z"/>
				</g>
				<g id="Stroke-81">
					<path class="st1" d="M7.5,36.3c-0.9-0.9-1.7-1.9-2.2-3l1.3-0.7c0.5,1,1.1,1.8,1.9,2.6L7.5,36.3z"/>
				</g>
				<g id="Stroke-83">
					<path class="st1" d="M31.8,41.3c-0.5,0-1-0.1-1.5-0.4L21.6,35l0.8-1.2l8.7,5.8c0.5,0.4,1.2,0.2,1.6-0.3
						c0.4-0.6,0.3-1.3-0.3-1.7l-8.6-5.8l0.8-1.2l8.6,5.8c1.2,0.8,1.5,2.5,0.7,3.7C33.5,40.9,32.6,41.3,31.8,41.3z"/>
				</g>
				<g id="Stroke-85">
					<path class="st1" d="M28.9,44.1c-0.5,0-1-0.1-1.5-0.4l-7.1-4.8l0.8-1.2l7.1,4.8c0.5,0.4,1.2,0.2,1.6-0.3
						c0.4-0.6,0.3-1.3-0.3-1.7l-8-5.4l0.8-1.2l8,5.4c1.2,0.8,1.5,2.5,0.7,3.7C30.6,43.7,29.8,44.1,28.9,44.1z"/>
				</g>
				<g id="Stroke-87">
					<path class="st1" d="M24.3,45.7c-0.5,0-1-0.1-1.5-0.4l-1.5-1l0.8-1.2l1.5,1c0.3,0.2,0.6,0.2,0.9,0.2c0.3-0.1,0.6-0.2,0.7-0.5
						c0.4-0.6,0.3-1.3-0.3-1.7l-4.7-3.2l0.8-1.2l4.7,3.2c1.2,0.8,1.5,2.5,0.7,3.7C26,45.3,25.2,45.7,24.3,45.7z"/>
				</g>
				<g id="Stroke-89">
					<path class="st1" d="M30.2,30c-2,0-4-1-5.1-2.8l-1.4-2.3l-2.5,1c-1.1,0.5-2.4,0.4-3.5,0c-1.1-0.5-2-1.4-2.5-2.5l-0.3-0.7
						l11.8-4.7c1.7-0.7,3.5-0.9,5.3-0.7l-0.2,1.5c-1.6-0.2-3.1,0-4.6,0.6l-10.3,4.1c0.8,1.1,2.4,1.6,3.7,1.1l3.7-1.5l2.1,3.4
						c1.3,2.1,4.1,2.7,6.2,1.4l0.8,1.3C32.4,29.7,31.3,30,30.2,30z"/>
				</g>
				<g id="Stroke-91">
					<path class="st1" d="M9.8,39.3c-0.6,0-1.1-0.2-1.6-0.5C7,37.9,6.8,36.2,7.6,35l2.6-3.6c0.9-1.2,2.6-1.5,3.8-0.6
						c0.6,0.4,1,1,1.1,1.8c0.1,0.7-0.1,1.4-0.5,2L12,38.2c-0.4,0.6-1,1-1.8,1.1C10.1,39.3,10,39.3,9.8,39.3z M12.5,31.8
						c-0.4,0-0.7,0.2-1,0.5l-2.6,3.6c-0.4,0.5-0.3,1.3,0.3,1.7c0.3,0.2,0.6,0.3,0.9,0.2c0.3,0,0.6-0.2,0.8-0.5l2.6-3.6
						c0.2-0.3,0.3-0.6,0.2-0.9c0-0.3-0.2-0.6-0.5-0.8C13,31.9,12.7,31.8,12.5,31.8z"/>
				</g>
				<g id="Stroke-93">
					<path class="st1" d="M13,41.6c-0.6,0-1.1-0.2-1.6-0.5c-1.2-0.9-1.5-2.6-0.6-3.8l3.7-5.1c0.9-1.2,2.6-1.5,3.8-0.6
						c0.6,0.4,1,1,1.1,1.8s-0.1,1.4-0.5,2l-3.7,5.1c-0.4,0.6-1,1-1.8,1.1C13.2,41.6,13.1,41.6,13,41.6z M16.7,32.6
						c-0.4,0-0.7,0.2-1,0.5L12,38.2c-0.4,0.5-0.3,1.3,0.3,1.7c0.3,0.2,0.6,0.3,0.9,0.2c0.3,0,0.6-0.2,0.8-0.5l3.7-5.1
						c0.2-0.3,0.3-0.6,0.2-0.9c0-0.3-0.2-0.6-0.5-0.8C17.2,32.7,16.9,32.6,16.7,32.6z"/>
				</g>
				<g id="Stroke-95">
					<path class="st1" d="M16.1,43.9c-0.6,0-1.1-0.2-1.6-0.5c-1.2-0.9-1.5-2.6-0.6-3.8l2.6-3.6c0.9-1.2,2.6-1.5,3.8-0.6
						c0.6,0.4,1,1,1.1,1.8c0.1,0.7-0.1,1.4-0.5,2l-2.6,3.6c-0.4,0.6-1,1-1.8,1.1C16.4,43.9,16.2,43.9,16.1,43.9z M18.8,36.4
						c-0.1,0-0.1,0-0.2,0c-0.3,0-0.6,0.2-0.8,0.5l-2.6,3.6c-0.4,0.5-0.3,1.3,0.3,1.7c0.3,0.2,0.6,0.3,0.9,0.2c0.3,0,0.6-0.2,0.8-0.5
						l2.6-3.6c0.2-0.3,0.3-0.6,0.2-0.9c0-0.3-0.2-0.6-0.5-0.8C19.3,36.4,19,36.4,18.8,36.4z"/>
				</g>
				<g id="Stroke-97">
					<path class="st1" d="M19.2,46.2c-0.6,0-1.1-0.2-1.6-0.5c-1.2-0.9-1.5-2.6-0.6-3.8l1.6-2.2c0.9-1.2,2.6-1.5,3.8-0.6
						s1.5,2.6,0.6,3.8l-1.6,2.2c-0.4,0.6-1,1-1.8,1.1C19.5,46.2,19.4,46.2,19.2,46.2z M20.8,40.1c-0.4,0-0.7,0.2-1,0.5l-1.6,2.2
						c-0.4,0.5-0.3,1.3,0.3,1.7c0.3,0.2,0.6,0.3,0.9,0.2c0.3,0,0.6-0.2,0.8-0.5l1.6-2.2c0.4-0.5,0.3-1.3-0.3-1.7
						C21.3,40.2,21.1,40.1,20.8,40.1z"/>
				</g>
				<g id="Stroke-99">
					<polygon class="st1" points="5.8,34.4 0.1,30 1,28.8 5.4,32.3 14.4,19 10.1,16 11,14.8 16.5,18.6 					"/>
				</g>
				<g id="Group-104" transform="translate(31.000000, 15.000000)">
					<g id="Fill-101">
						<polyline class="st2" points="6.6,0.4 0.9,2.6 7.4,18.9 13.6,16.4 						"/>
					</g>
					<g id="Stroke-103">
						<polygon class="st1" points="7,19.9 -0.1,2.1 6.3,-0.3 6.8,1.1 1.9,3 7.8,17.9 13.3,15.7 13.8,17.1 						"/>
					</g>
				</g>
				<g id="Stroke-105">
					<rect x="21.6" y="1" class="st1" width="1.5" height="2"/>
				</g>
				<g id="Stroke-107">
					<path class="st1" d="M22.3,13.9c-3.9,0-7.1-3.2-7.1-7.1c0-3.9,3.2-7.1,7.1-7.1c3.9,0,7.1,3.2,7.1,7.1
						C29.4,10.7,26.2,13.9,22.3,13.9z M22.3,1.1c-3.1,0-5.6,2.5-5.6,5.6c0,3.1,2.5,5.6,5.6,5.6c3.1,0,5.6-2.5,5.6-5.6
						C27.9,3.7,25.4,1.1,22.3,1.1z"/>
				</g>
				<g id="Stroke-109">
					<rect x="21.6" y="10.1" class="st1" width="1.5" height="2.4"/>
				</g>
				<g id="Fill-111">
					<path class="st3" d="M23.8,9.1c0.2-0.1,0.3-0.4,0.3-0.7c0-0.3-0.1-0.6-0.3-0.7c-0.2-0.2-0.5-0.2-1-0.2h-1.8v1.9h1.8
						C23.3,9.3,23.6,9.2,23.8,9.1z M21.1,6.1h1.6c0.4,0,0.7-0.1,0.9-0.2c0.2-0.1,0.3-0.4,0.3-0.7c0-0.3-0.1-0.5-0.3-0.7
						c-0.2-0.1-0.5-0.2-0.9-0.2h-1.6V6.1z M25.3,7.3c0.2,0.3,0.4,0.7,0.4,1.2c0,0.6-0.2,1.1-0.7,1.5c-0.5,0.4-1.1,0.6-1.9,0.6h-3.6
						V3.1h3.5c0.8,0,1.4,0.2,1.9,0.5c0.5,0.3,0.7,0.8,0.7,1.4c0,0.4-0.1,0.7-0.3,1c-0.2,0.3-0.5,0.5-0.9,0.6C24.7,6.8,25,7,25.3,7.3
						z"/>
				</g>
			</g>
			<g class="st0">
				<path class="st4" d="M245.9,73.5c0.5,0.5,0.8,1.1,0.8,2c0,1-0.3,1.8-0.9,2.3s-1.5,0.8-2.6,0.8h-2.8l-0.3,4H239l0.8-9.9h3.8
					C244.6,72.7,245.3,73,245.9,73.5z M245.6,75.5c0-1.2-0.7-1.8-2.1-1.8h-2.6l-0.3,3.9h2.6C244.8,77.6,245.6,76.9,245.6,75.5z"/>
			</g>
			<g>
			</g>
			<g class="st0">
				<path class="st4" d="M254,75.8l-0.5,6.8h-1.1l0.1-1.1c-0.2,0.4-0.5,0.7-0.9,0.9c-0.4,0.2-0.8,0.3-1.3,0.3
					c-0.8,0-1.3-0.2-1.7-0.6c-0.4-0.4-0.6-1-0.6-1.7c0-0.2,0-0.3,0-0.4l0.3-4.2h1.1l-0.3,4.1c0,0.1,0,0.2,0,0.3c0,1,0.5,1.5,1.5,1.5
					c0.6,0,1.1-0.2,1.5-0.6c0.4-0.4,0.6-0.9,0.6-1.6l0.3-3.9H254z"/>
			</g>
			<g>
			</g>
			<g class="st0">
				<path class="st4" d="M260,75.6v1l-0.8,0.1c-0.7,0.1-1.2,0.3-1.5,0.6s-0.5,0.8-0.6,1.4l-0.3,3.9h-1.1l0.5-6.8h1.1l-0.1,1.1
					c0.2-0.4,0.6-0.7,0.9-0.9c0.4-0.2,0.9-0.3,1.4-0.4L260,75.6z"/>
			</g>
			<g>
			</g>
			<g class="st0">
				<path class="st4" d="M261.9,82.3c-0.5-0.3-0.8-0.7-1.1-1.2s-0.4-1.1-0.4-1.7c0-0.8,0.1-1.4,0.4-2s0.7-1,1.2-1.3
					c0.5-0.3,1.1-0.5,1.8-0.5c0.5,0,1,0.1,1.4,0.2c0.4,0.2,0.8,0.4,1.1,0.7l-0.4,0.8c-0.3-0.3-0.7-0.5-1-0.6c-0.3-0.1-0.7-0.2-1-0.2
					c-0.7,0-1.3,0.3-1.7,0.8s-0.6,1.2-0.6,2.1c0,0.7,0.2,1.3,0.5,1.7c0.4,0.4,0.9,0.6,1.5,0.6c0.4,0,0.7-0.1,1-0.2
					c0.3-0.1,0.6-0.3,1-0.6l0.3,0.8c-0.3,0.3-0.7,0.5-1.1,0.7s-0.9,0.2-1.3,0.2C262.9,82.7,262.4,82.6,261.9,82.3z"/>
				<path class="st4" d="M272.8,76.2c0.4,0.4,0.6,1,0.6,1.8c0,0.2,0,0.3,0,0.4l-0.3,4.3h-1.1l0.3-4.2c0-0.1,0-0.2,0-0.3
					c0-1-0.5-1.6-1.5-1.6c-0.6,0-1.1,0.2-1.5,0.6c-0.4,0.4-0.6,0.9-0.6,1.6l-0.3,3.9h-1.1l0.8-9.9h1.1l-0.3,4.1
					c0.2-0.4,0.6-0.7,1-0.9c0.4-0.2,0.8-0.3,1.3-0.3C271.8,75.6,272.4,75.8,272.8,76.2z"/>
				<path class="st4" d="M280.7,77.9c0,0.2,0,0.3,0,0.4l-0.3,4.3h-1.1l0.1-1.1c-0.2,0.4-0.5,0.7-0.8,0.9c-0.4,0.2-0.8,0.3-1.2,0.3
					c-0.7,0-1.2-0.2-1.7-0.6c-0.4-0.4-0.7-0.8-0.7-1.4c0-0.5,0.1-0.9,0.4-1.2s0.7-0.5,1.3-0.7c0.6-0.1,1.4-0.2,2.4-0.2h0.5l0-0.4
					l0-0.3c0-0.5-0.1-0.8-0.4-1.1s-0.6-0.3-1.1-0.3c-0.8,0-1.5,0.2-2.3,0.7l-0.3-0.8c0.3-0.2,0.8-0.4,1.3-0.6c0.5-0.2,1-0.2,1.5-0.2
					C279.9,75.6,280.7,76.4,280.7,77.9z M278.9,81.2c0.4-0.4,0.6-0.9,0.6-1.4l0-0.4h-0.4c-0.8,0-1.4,0-1.9,0.1
					c-0.4,0.1-0.7,0.2-0.9,0.4c-0.2,0.2-0.2,0.4-0.2,0.7c0,0.4,0.1,0.6,0.4,0.8s0.6,0.3,1,0.3C278,81.8,278.5,81.6,278.9,81.2z"/>
				<path class="st4" d="M283.2,82.5c-0.5-0.2-0.9-0.4-1.3-0.7l0.4-0.8c0.4,0.3,0.7,0.5,1.1,0.6c0.4,0.1,0.8,0.2,1.2,0.2
					c1.1,0,1.6-0.3,1.6-1c0-0.3-0.1-0.5-0.4-0.7c-0.3-0.1-0.7-0.3-1.2-0.5c-0.5-0.1-0.9-0.3-1.2-0.4s-0.5-0.3-0.8-0.6
					s-0.3-0.6-0.3-1c0-0.6,0.2-1.1,0.7-1.5s1.1-0.6,2-0.6c0.5,0,0.9,0.1,1.4,0.2c0.4,0.2,0.8,0.4,1.1,0.7l-0.4,0.8
					c-0.6-0.5-1.3-0.8-2-0.8c-0.5,0-0.9,0.1-1.2,0.3s-0.4,0.4-0.4,0.8c0,0.3,0.1,0.5,0.4,0.7c0.3,0.1,0.7,0.3,1.2,0.5
					c0.5,0.1,0.9,0.3,1.2,0.4c0.3,0.1,0.6,0.3,0.8,0.6s0.3,0.6,0.3,1c0,0.6-0.3,1.1-0.8,1.4c-0.5,0.4-1.2,0.5-2,0.5
					C284.2,82.7,283.7,82.6,283.2,82.5z"/>
				<path class="st4" d="M289.9,79.4L289.9,79.4c0,0.8,0.2,1.4,0.6,1.8c0.4,0.4,0.9,0.6,1.6,0.6c0.8,0,1.6-0.3,2.2-0.8l0.3,0.8
					c-0.3,0.3-0.7,0.5-1.1,0.6c-0.5,0.2-1,0.2-1.5,0.2c-1,0-1.8-0.3-2.4-0.9s-0.9-1.4-0.9-2.4c0-0.7,0.1-1.4,0.4-2
					c0.3-0.6,0.7-1,1.2-1.3c0.5-0.3,1.1-0.5,1.8-0.5c0.9,0,1.6,0.3,2.1,0.8s0.8,1.3,0.8,2.3c0,0.2,0,0.4,0,0.7H289.9z M290.7,77
					c-0.4,0.4-0.6,0.9-0.7,1.6h4c0-0.7-0.1-1.2-0.4-1.6c-0.3-0.4-0.8-0.5-1.3-0.5C291.6,76.5,291.1,76.7,290.7,77z"/>
			</g>
			<g class="st0">
				<path class="st4" d="M240.2,98.4c-0.6-0.2-1.2-0.5-1.7-0.9l0.5-0.9c0.5,0.4,1,0.7,1.5,0.9c0.5,0.2,1.1,0.3,1.8,0.3
					c0.8,0,1.4-0.1,1.8-0.4c0.4-0.3,0.6-0.7,0.6-1.3c0-0.3-0.1-0.6-0.3-0.8s-0.5-0.4-0.8-0.5s-0.8-0.3-1.3-0.4
					c-0.7-0.2-1.3-0.4-1.7-0.6c-0.4-0.2-0.8-0.5-1.1-0.8c-0.3-0.4-0.5-0.9-0.5-1.4c0-0.6,0.1-1.1,0.4-1.5s0.7-0.8,1.3-1
					c0.6-0.2,1.2-0.3,1.9-0.3c0.7,0,1.3,0.1,1.9,0.3s1.1,0.5,1.5,0.9l-0.5,0.9c-0.9-0.8-1.9-1.2-3-1.2c-0.8,0-1.4,0.2-1.8,0.5
					c-0.4,0.3-0.6,0.7-0.6,1.3c0,0.4,0.1,0.7,0.3,0.9c0.2,0.2,0.5,0.4,0.8,0.6c0.3,0.1,0.8,0.3,1.4,0.5c0.7,0.2,1.2,0.4,1.6,0.6
					c0.4,0.2,0.8,0.4,1,0.8c0.3,0.3,0.4,0.8,0.4,1.3c0,0.8-0.3,1.5-1,2s-1.6,0.7-2.7,0.7C241.5,98.7,240.8,98.6,240.2,98.4z"/>
				<path class="st4" d="M248.4,95.4L248.4,95.4c0,0.8,0.2,1.4,0.6,1.8c0.4,0.4,0.9,0.6,1.6,0.6c0.8,0,1.6-0.3,2.2-0.8l0.3,0.8
					c-0.3,0.3-0.7,0.5-1.1,0.6c-0.5,0.2-1,0.2-1.5,0.2c-1,0-1.8-0.3-2.4-0.9c-0.6-0.6-0.9-1.4-0.9-2.4c0-0.7,0.1-1.4,0.4-2
					s0.7-1,1.2-1.3s1.1-0.5,1.8-0.5c0.9,0,1.6,0.3,2.1,0.8s0.8,1.3,0.8,2.3c0,0.2,0,0.4,0,0.7H248.4z M249.2,93
					c-0.4,0.4-0.6,0.9-0.7,1.6h4c0-0.7-0.1-1.2-0.4-1.6c-0.3-0.4-0.8-0.5-1.3-0.5C250.1,92.5,249.6,92.7,249.2,93z"/>
			</g>
			<g>
			</g>
			<g class="st0">
				<path class="st4" d="M259.3,91.6v1l-0.8,0.1c-0.7,0.1-1.2,0.3-1.5,0.6s-0.5,0.8-0.6,1.4l-0.3,3.9H255l0.5-6.8h1.1l-0.1,1.1
					c0.2-0.4,0.6-0.7,0.9-0.9c0.4-0.2,0.9-0.3,1.4-0.4L259.3,91.6z"/>
			</g>
			<g>
			</g>
			<g class="st0">
				<path class="st4" d="M266.3,91.8h1.2l-3.5,6.8H263l-2.4-6.8h1.2l1.9,5.6L266.3,91.8z"/>
				<path class="st4" d="M268.1,98.6l0.5-6.8h1.1l-0.5,6.8H268.1z M268.8,88.8h1.4l-0.1,1.3h-1.4L268.8,88.8z"/>
				<path class="st4" d="M272.7,98.3c-0.5-0.3-0.8-0.7-1.1-1.2s-0.4-1.1-0.4-1.7c0-0.8,0.1-1.4,0.4-2s0.7-1,1.2-1.3
					c0.5-0.3,1.1-0.5,1.8-0.5c0.5,0,1,0.1,1.4,0.2c0.4,0.2,0.8,0.4,1.1,0.7l-0.4,0.8c-0.3-0.3-0.7-0.5-1-0.6c-0.3-0.1-0.7-0.2-1-0.2
					c-0.7,0-1.3,0.3-1.7,0.8s-0.6,1.2-0.6,2.1c0,0.7,0.2,1.3,0.5,1.7c0.4,0.4,0.9,0.6,1.5,0.6c0.4,0,0.7-0.1,1-0.2
					c0.3-0.1,0.6-0.3,1-0.6l0.3,0.8c-0.3,0.3-0.7,0.5-1.1,0.7s-0.9,0.2-1.3,0.2C273.8,98.7,273.2,98.6,272.7,98.3z"/>
				<path class="st4" d="M279.1,95.4L279.1,95.4c0,0.8,0.2,1.4,0.6,1.8c0.4,0.4,0.9,0.6,1.6,0.6c0.8,0,1.6-0.3,2.2-0.8l0.3,0.8
					c-0.3,0.3-0.7,0.5-1.1,0.6c-0.5,0.2-1,0.2-1.5,0.2c-1,0-1.8-0.3-2.4-0.9s-0.9-1.4-0.9-2.4c0-0.7,0.1-1.4,0.4-2
					c0.3-0.6,0.7-1,1.2-1.3c0.5-0.3,1.1-0.5,1.8-0.5c0.9,0,1.6,0.3,2.1,0.8s0.8,1.3,0.8,2.3c0,0.2,0,0.4,0,0.7H279.1z M279.9,93
					c-0.4,0.4-0.6,0.9-0.7,1.6h4c0-0.7-0.1-1.2-0.4-1.6c-0.3-0.4-0.8-0.5-1.3-0.5C280.7,92.5,280.2,92.7,279.9,93z"/>
			</g>
			<g class="st0">
				<path class="st4" d="M279,161.3c0.2,0.2,0.3,0.4,0.4,0.7l1.5,3.2h-1.3l-1.4-3.2c-0.2-0.4-0.4-0.6-0.7-0.8
					c-0.3-0.1-0.6-0.2-1.1-0.2h-1.8l-0.3,4.2h-1.1l0.8-9.9h4c1,0,1.8,0.2,2.3,0.7c0.5,0.5,0.8,1.1,0.8,2c0,0.8-0.2,1.5-0.7,2
					c-0.5,0.5-1.1,0.8-2,0.9C278.6,161,278.8,161.1,279,161.3z M277.6,160.1c0.8,0,1.4-0.2,1.8-0.5s0.6-0.8,0.6-1.5
					c0-0.6-0.2-1-0.5-1.3c-0.4-0.3-0.9-0.4-1.6-0.4H275l-0.3,3.8H277.6z"/>
				<path class="st4" d="M283.6,162L283.6,162c0,0.8,0.2,1.4,0.6,1.8c0.4,0.4,0.9,0.6,1.6,0.6c0.8,0,1.6-0.3,2.2-0.8l0.3,0.8
					c-0.3,0.3-0.7,0.5-1.1,0.6c-0.5,0.2-1,0.2-1.5,0.2c-1,0-1.8-0.3-2.4-0.9c-0.6-0.6-0.9-1.4-0.9-2.4c0-0.7,0.1-1.4,0.4-2
					s0.7-1,1.2-1.3s1.1-0.5,1.8-0.5c0.9,0,1.6,0.3,2.1,0.8s0.8,1.3,0.8,2.3c0,0.2,0,0.4,0,0.7H283.6z M284.4,159.7
					c-0.4,0.4-0.6,0.9-0.7,1.6h4c0-0.7-0.1-1.2-0.4-1.6c-0.3-0.4-0.8-0.5-1.3-0.5C285.2,159.1,284.7,159.3,284.4,159.7z"/>
				<path class="st4" d="M295.3,158.7c0.4,0.3,0.8,0.7,1,1.2c0.2,0.5,0.4,1.1,0.4,1.7c0,0.7-0.1,1.4-0.4,2s-0.6,1-1.1,1.3
					s-1,0.5-1.7,0.5c-0.5,0-1-0.1-1.4-0.3s-0.7-0.5-0.9-1l-0.3,3.7h-1.1l0.7-9.3h1.1l-0.1,1c0.2-0.4,0.5-0.7,0.9-0.9
					c0.4-0.2,0.8-0.3,1.3-0.3C294.4,158.3,294.9,158.4,295.3,158.7z M295,163.6c0.4-0.5,0.6-1.2,0.6-2.1c0-0.7-0.2-1.3-0.5-1.7
					s-0.9-0.6-1.5-0.6c-0.7,0-1.2,0.3-1.6,0.8s-0.6,1.2-0.6,2.1c0,0.8,0.2,1.3,0.5,1.8c0.3,0.4,0.9,0.6,1.5,0.6
					C294.1,164.4,294.6,164.1,295,163.6z"/>
				<path class="st4" d="M304.4,158.4l-0.5,6.8h-1.1l0.1-1.1c-0.2,0.4-0.5,0.7-0.9,0.9c-0.4,0.2-0.8,0.3-1.3,0.3
					c-0.8,0-1.3-0.2-1.7-0.6c-0.4-0.4-0.6-1-0.6-1.7c0-0.2,0-0.3,0-0.4l0.3-4.2h1.1l-0.3,4.1c0,0.1,0,0.2,0,0.3c0,1,0.5,1.5,1.5,1.5
					c0.6,0,1.1-0.2,1.5-0.6s0.6-0.9,0.6-1.6l0.3-3.9H304.4z"/>
			</g>
			<g>
			</g>
			<g class="st0">
				<path class="st4" d="M310.6,158.3v1l-0.8,0.1c-0.7,0.1-1.2,0.3-1.5,0.6s-0.5,0.8-0.6,1.4l-0.3,3.9h-1.1l0.5-6.8h1.1l-0.1,1.1
					c0.2-0.4,0.6-0.7,0.9-0.9c0.4-0.2,0.9-0.3,1.4-0.4L310.6,158.3z"/>
			</g>
			<g>
			</g>
			<g class="st0">
				<path class="st4" d="M312.5,164.9c-0.5-0.3-0.8-0.7-1.1-1.2c-0.3-0.5-0.4-1.1-0.4-1.7c0-0.8,0.1-1.4,0.4-2
					c0.3-0.6,0.7-1,1.2-1.3c0.5-0.3,1.1-0.5,1.8-0.5c0.5,0,1,0.1,1.4,0.2c0.4,0.2,0.8,0.4,1.1,0.7l-0.4,0.8c-0.3-0.3-0.7-0.5-1-0.6
					c-0.3-0.1-0.7-0.2-1-0.2c-0.7,0-1.3,0.3-1.7,0.8s-0.6,1.2-0.6,2.1c0,0.7,0.2,1.3,0.5,1.7c0.4,0.4,0.9,0.6,1.5,0.6
					c0.4,0,0.7-0.1,1-0.2c0.3-0.1,0.6-0.3,1-0.6l0.3,0.8c-0.3,0.3-0.7,0.5-1.1,0.7c-0.4,0.2-0.9,0.2-1.3,0.2
					C313.5,165.3,313,165.2,312.5,164.9z"/>
				<path class="st4" d="M323.5,158.9c0.4,0.4,0.6,1,0.6,1.8c0,0.2,0,0.3,0,0.4l-0.3,4.3h-1.1l0.3-4.2c0-0.1,0-0.2,0-0.3
					c0-1-0.5-1.6-1.5-1.6c-0.6,0-1.1,0.2-1.5,0.6s-0.6,0.9-0.6,1.6l-0.3,3.9h-1.1l0.8-9.9h1.1l-0.3,4.1c0.2-0.4,0.6-0.7,1-0.9
					s0.8-0.3,1.3-0.3C322.5,158.3,323.1,158.5,323.5,158.9z"/>
				<path class="st4" d="M331.5,160.6c0,0.2,0,0.3,0,0.4l-0.3,4.3H330l0.1-1.1c-0.2,0.4-0.5,0.7-0.8,0.9c-0.4,0.2-0.8,0.3-1.2,0.3
					c-0.7,0-1.2-0.2-1.7-0.6c-0.4-0.4-0.7-0.8-0.7-1.4c0-0.5,0.1-0.9,0.4-1.2c0.3-0.3,0.7-0.5,1.3-0.7c0.6-0.1,1.4-0.2,2.4-0.2h0.5
					l0-0.4l0-0.3c0-0.5-0.1-0.8-0.4-1.1c-0.2-0.2-0.6-0.3-1.1-0.3c-0.8,0-1.5,0.2-2.3,0.7l-0.3-0.8c0.3-0.2,0.8-0.4,1.3-0.6
					s1-0.2,1.5-0.2C330.7,158.3,331.5,159,331.5,160.6z M329.6,163.9c0.4-0.4,0.6-0.9,0.6-1.4l0-0.4h-0.4c-0.8,0-1.4,0-1.9,0.1
					c-0.4,0.1-0.7,0.2-0.9,0.4c-0.2,0.2-0.2,0.4-0.2,0.7c0,0.4,0.1,0.6,0.4,0.8c0.3,0.2,0.6,0.3,1,0.3
					C328.8,164.4,329.3,164.3,329.6,163.9z"/>
				<path class="st4" d="M334.1,165.1c-0.5-0.2-0.9-0.4-1.3-0.7l0.4-0.8c0.4,0.3,0.7,0.5,1.1,0.6c0.4,0.1,0.8,0.2,1.2,0.2
					c1.1,0,1.6-0.3,1.6-1c0-0.3-0.1-0.5-0.4-0.7s-0.7-0.3-1.2-0.5c-0.5-0.1-0.9-0.3-1.2-0.4c-0.3-0.1-0.5-0.3-0.8-0.6
					c-0.2-0.2-0.3-0.6-0.3-1c0-0.6,0.2-1.1,0.7-1.5s1.1-0.6,2-0.6c0.5,0,0.9,0.1,1.4,0.2c0.4,0.2,0.8,0.4,1.1,0.7l-0.4,0.8
					c-0.6-0.5-1.3-0.8-2-0.8c-0.5,0-0.9,0.1-1.2,0.3s-0.4,0.4-0.4,0.8c0,0.3,0.1,0.5,0.4,0.7s0.7,0.3,1.2,0.5
					c0.5,0.1,0.9,0.3,1.2,0.4c0.3,0.1,0.6,0.3,0.8,0.6c0.2,0.3,0.3,0.6,0.3,1c0,0.6-0.3,1.1-0.8,1.4c-0.5,0.4-1.2,0.5-2,0.5
					C335.1,165.3,334.6,165.3,334.1,165.1z"/>
				<path class="st4" d="M340.9,162L340.9,162c0,0.8,0.2,1.4,0.6,1.8c0.4,0.4,0.9,0.6,1.6,0.6c0.8,0,1.6-0.3,2.2-0.8l0.3,0.8
					c-0.3,0.3-0.7,0.5-1.1,0.6c-0.5,0.2-1,0.2-1.5,0.2c-1,0-1.8-0.3-2.4-0.9c-0.6-0.6-0.9-1.4-0.9-2.4c0-0.7,0.1-1.4,0.4-2
					c0.3-0.6,0.7-1,1.2-1.3c0.5-0.3,1.1-0.5,1.8-0.5c0.9,0,1.6,0.3,2.1,0.8s0.8,1.3,0.8,2.3c0,0.2,0,0.4,0,0.7H340.9z M341.7,159.7
					c-0.4,0.4-0.6,0.9-0.7,1.6h4c0-0.7-0.1-1.2-0.4-1.6c-0.3-0.4-0.8-0.5-1.3-0.5C342.6,159.1,342.1,159.3,341.7,159.7z"/>
			</g>
			<g class="st0">
				<path class="st4" d="M280.2,181.2l-1.1-1.2c-0.4,0.4-0.9,0.8-1.4,1c-0.5,0.2-1.1,0.3-1.7,0.3c-0.6,0-1.2-0.1-1.7-0.3
					c-0.5-0.2-0.8-0.5-1.1-0.9c-0.3-0.4-0.4-0.8-0.4-1.3c0-0.6,0.2-1.2,0.6-1.6c0.4-0.5,1-1,1.8-1.4c-0.4-0.5-0.7-0.9-0.9-1.2
					s-0.2-0.7-0.2-1c0-0.7,0.2-1.2,0.7-1.6s1-0.6,1.7-0.6c0.7,0,1.2,0.2,1.6,0.5c0.4,0.4,0.6,0.8,0.6,1.4c0,0.5-0.1,0.9-0.4,1.3
					s-0.8,0.8-1.6,1.3l2.3,2.6c0.4-0.8,0.7-1.8,0.7-3h1c-0.1,1.5-0.4,2.7-1,3.8l1.8,2H280.2z M277.4,180.1c0.4-0.2,0.8-0.5,1.1-0.8
					l-2.6-2.9c-0.7,0.4-1.1,0.8-1.4,1.1c-0.3,0.4-0.4,0.8-0.4,1.2c0,0.5,0.2,0.9,0.6,1.2c0.4,0.3,0.9,0.5,1.5,0.5
					C276.6,180.4,277,180.3,277.4,180.1z M275.6,172.5c-0.2,0.2-0.4,0.6-0.4,0.9c0,0.3,0.1,0.5,0.2,0.8c0.1,0.2,0.4,0.6,0.7,1
					c0.6-0.4,1.1-0.7,1.3-1c0.2-0.3,0.4-0.6,0.4-0.9c0-0.4-0.1-0.6-0.3-0.8c-0.2-0.2-0.5-0.3-0.9-0.3
					C276.2,172.1,275.9,172.3,275.6,172.5z"/>
				<path class="st4" d="M293.3,177c0.3,0.4,0.4,0.9,0.4,1.4c0,0.9-0.3,1.6-0.9,2.1c-0.6,0.5-1.4,0.7-2.5,0.7h-4.2l0.8-9.9h3.8
					c1,0,1.8,0.2,2.4,0.6c0.5,0.4,0.8,1,0.8,1.8c0,0.6-0.2,1.1-0.5,1.5c-0.3,0.4-0.7,0.7-1.3,0.9C292.6,176.3,293,176.6,293.3,177z
					 M292.6,178.4c0-1.1-0.7-1.7-2.1-1.7h-2.9l-0.3,3.6h3C291.8,180.3,292.6,179.7,292.6,178.4z M287.9,172.3l-0.3,3.4h2.8
					c0.7,0,1.3-0.2,1.7-0.5c0.4-0.3,0.6-0.8,0.6-1.4c0-1-0.7-1.6-2.1-1.6H287.9z"/>
				<path class="st4" d="M301.6,174.4l-0.5,6.8H300l0.1-1.1c-0.2,0.4-0.5,0.7-0.9,0.9c-0.4,0.2-0.8,0.3-1.3,0.3
					c-0.8,0-1.3-0.2-1.7-0.6c-0.4-0.4-0.6-1-0.6-1.7c0-0.2,0-0.3,0-0.4l0.3-4.2h1.1l-0.3,4.1c0,0.1,0,0.2,0,0.3c0,1,0.5,1.5,1.5,1.5
					c0.6,0,1.1-0.2,1.5-0.6c0.4-0.4,0.6-0.9,0.6-1.6l0.3-3.9H301.6z"/>
				<path class="st4" d="M307.5,174.3v1l-0.8,0.1c-0.7,0.1-1.2,0.3-1.5,0.6s-0.5,0.8-0.6,1.4l-0.3,3.9h-1.1l0.5-6.8h1.1l-0.1,1.1
					c0.2-0.4,0.6-0.7,0.9-0.9c0.4-0.2,0.9-0.3,1.4-0.4L307.5,174.3z"/>
				<path class="st4" d="M313.8,174.9c0.4,0.4,0.6,1,0.6,1.8c0,0.2,0,0.3,0,0.4l-0.3,4.3h-1.1l0.3-4.2c0-0.1,0-0.2,0-0.3
					c0-1-0.5-1.6-1.5-1.6c-0.6,0-1.1,0.2-1.5,0.6c-0.4,0.4-0.6,0.9-0.6,1.6l-0.3,3.9h-1.1l0.5-6.8h1.1l-0.1,1.1
					c0.2-0.4,0.6-0.7,1-0.9s0.9-0.3,1.4-0.3C312.8,174.3,313.4,174.5,313.8,174.9z"/>
			</g>
			<g class="st0">
				<path class="st4" d="M108.5,301.6h3.5l-0.4,4.5c-0.4,0.2-0.9,0.4-1.5,0.5c-0.6,0.1-1.2,0.2-1.8,0.2c-1.4,0-2.6-0.4-3.3-1.2
					s-1.2-1.9-1.2-3.3c0-1.1,0.2-2.1,0.6-2.9c0.4-0.8,1-1.5,1.7-1.9c0.7-0.5,1.6-0.7,2.6-0.7c1.4,0,2.5,0.4,3.4,1.2l-0.5,0.9
					c-0.5-0.4-0.9-0.7-1.4-0.9c-0.5-0.2-1-0.3-1.5-0.3c-1.2,0-2.1,0.4-2.8,1.2c-0.7,0.8-1,1.9-1,3.3c0,1.2,0.3,2,0.9,2.7
					s1.4,0.9,2.5,0.9c0.8,0,1.5-0.1,2.3-0.4l0.2-3h-2.4L108.5,301.6z"/>
			</g>
			<g>
			</g>
			<g class="st0">
				<path class="st4" d="M114.8,303.5L114.8,303.5c0,0.8,0.2,1.4,0.6,1.8c0.4,0.4,0.9,0.6,1.6,0.6c0.8,0,1.6-0.3,2.2-0.8l0.3,0.8
					c-0.3,0.3-0.7,0.5-1.1,0.6c-0.5,0.2-1,0.2-1.5,0.2c-1,0-1.8-0.3-2.4-0.9c-0.6-0.6-0.9-1.4-0.9-2.4c0-0.7,0.1-1.4,0.4-2
					c0.3-0.6,0.7-1,1.2-1.3c0.5-0.3,1.1-0.5,1.8-0.5c0.9,0,1.6,0.3,2.1,0.8s0.8,1.3,0.8,2.3c0,0.2,0,0.4,0,0.7H114.8z M115.6,301.2
					c-0.4,0.4-0.6,0.9-0.7,1.6h4c0-0.7-0.1-1.2-0.4-1.6c-0.3-0.4-0.8-0.5-1.3-0.5C116.5,300.6,116,300.8,115.6,301.2z"/>
			</g>
			<g>
			</g>
			<g class="st0">
				<path class="st4" d="M122.8,304.3c0,0.1,0,0.2,0,0.3c0,0.9,0.5,1.4,1.4,1.4c0.2,0,0.4,0,0.6-0.1l-0.1,0.9
					c-0.2,0-0.4,0.1-0.7,0.1c-0.8,0-1.3-0.2-1.7-0.6s-0.6-0.9-0.6-1.6c0-0.1,0-0.2,0-0.3l0.3-3.5h-1.3l0.1-0.9h1.3l0.2-2.1h1.1
					l-0.2,2.1h1.9l-0.1,0.9h-1.9L122.8,304.3z"/>
			</g>
			<g class="st0">
				<path class="st4" d="M136.9,297.8h-5.1l-0.3,3.4h4.8l-0.1,1h-4.8l-0.3,3.6h5.1l-0.1,1h-6.2l0.8-9.9h6.2L136.9,297.8z"/>
			</g>
			<g>
			</g>
			<g class="st0">
				<path class="st4" d="M140.1,306.3c-0.7-0.4-1.2-0.9-1.5-1.6c-0.4-0.7-0.5-1.5-0.5-2.5c0-1.1,0.2-2.1,0.6-2.9
					c0.4-0.8,0.9-1.5,1.6-1.9s1.5-0.7,2.4-0.7c0.9,0,1.7,0.2,2.3,0.6c0.7,0.4,1.2,0.9,1.5,1.6c0.4,0.7,0.5,1.5,0.5,2.5
					c0,1.1-0.2,2.1-0.6,2.9s-0.9,1.5-1.6,1.9s-1.5,0.7-2.4,0.7C141.5,306.8,140.7,306.7,140.1,306.3z M144.3,305.3
					c0.5-0.4,0.9-0.9,1.2-1.5s0.4-1.5,0.4-2.4c0-1.2-0.3-2.1-0.8-2.7s-1.4-0.9-2.4-0.9c-0.7,0-1.3,0.2-1.8,0.5s-0.9,0.9-1.2,1.5
					c-0.3,0.7-0.4,1.5-0.4,2.4c0,1.2,0.3,2.1,0.8,2.7c0.6,0.6,1.4,0.9,2.4,0.9C143.1,305.8,143.8,305.7,144.3,305.3z"/>
				<path class="st4" d="M149.9,306.5c-0.6-0.2-1.2-0.5-1.7-0.9l0.5-0.9c0.5,0.4,1,0.7,1.5,0.9s1.1,0.3,1.8,0.3
					c0.8,0,1.4-0.1,1.8-0.4s0.6-0.7,0.6-1.3c0-0.3-0.1-0.6-0.3-0.8s-0.5-0.4-0.8-0.5s-0.8-0.3-1.3-0.4c-0.7-0.2-1.3-0.4-1.7-0.6
					c-0.4-0.2-0.8-0.5-1.1-0.8c-0.3-0.4-0.5-0.9-0.5-1.4c0-0.6,0.1-1.1,0.4-1.5c0.3-0.4,0.7-0.8,1.3-1s1.2-0.3,1.9-0.3
					c0.7,0,1.3,0.1,1.9,0.3c0.6,0.2,1.1,0.5,1.5,0.9l-0.5,0.9c-0.9-0.8-1.9-1.2-3-1.2c-0.8,0-1.4,0.2-1.8,0.5s-0.6,0.7-0.6,1.3
					c0,0.4,0.1,0.7,0.3,0.9c0.2,0.2,0.5,0.4,0.8,0.6c0.3,0.1,0.8,0.3,1.4,0.5c0.7,0.2,1.2,0.4,1.6,0.6c0.4,0.2,0.8,0.4,1,0.8
					c0.3,0.3,0.4,0.8,0.4,1.3c0,0.8-0.3,1.5-1,2c-0.7,0.5-1.6,0.7-2.7,0.7C151.2,306.8,150.6,306.7,149.9,306.5z"/>
				<path class="st4" d="M162.2,306.4c-0.5-0.3-0.8-0.7-1.1-1.2s-0.4-1.1-0.4-1.7c0-0.8,0.1-1.4,0.4-2c0.3-0.6,0.7-1,1.2-1.3
					c0.5-0.3,1.1-0.5,1.7-0.5c0.6,0,1.2,0.1,1.7,0.4s0.8,0.7,1.1,1.2s0.4,1.1,0.4,1.8c0,0.8-0.1,1.4-0.4,2c-0.3,0.6-0.7,1-1.2,1.3
					c-0.5,0.3-1.1,0.5-1.8,0.5C163.2,306.8,162.6,306.7,162.2,306.4z M165.4,305.1c0.4-0.5,0.6-1.2,0.6-2.1c0-0.7-0.2-1.3-0.5-1.7
					c-0.4-0.4-0.8-0.6-1.5-0.6c-0.7,0-1.2,0.3-1.6,0.8c-0.4,0.5-0.6,1.2-0.6,2.1c0,0.8,0.2,1.3,0.5,1.7c0.3,0.4,0.8,0.6,1.5,0.6
					C164.5,305.9,165.1,305.6,165.4,305.1z"/>
				<path class="st4" d="M172.9,299.7v1l-0.8,0.1c-0.7,0.1-1.2,0.3-1.5,0.6s-0.5,0.8-0.6,1.4l-0.3,3.9h-1.1l0.5-6.8h1.1l-0.1,1.1
					c0.2-0.4,0.6-0.7,0.9-0.9c0.4-0.2,0.9-0.3,1.4-0.4L172.9,299.7z"/>
			</g>
			<g class="st0">
				<path class="st4" d="M179.2,306.4c-0.5-0.3-0.8-0.7-1.1-1.2s-0.4-1.1-0.4-1.7c0-0.8,0.1-1.4,0.4-2c0.3-0.6,0.7-1,1.2-1.3
					c0.5-0.3,1.1-0.5,1.7-0.5c0.6,0,1.2,0.1,1.7,0.4s0.8,0.7,1.1,1.2s0.4,1.1,0.4,1.8c0,0.8-0.1,1.4-0.4,2c-0.3,0.6-0.7,1-1.2,1.3
					c-0.5,0.3-1.1,0.5-1.8,0.5C180.2,306.8,179.7,306.7,179.2,306.4z M182.5,305.1c0.4-0.5,0.6-1.2,0.6-2.1c0-0.7-0.2-1.3-0.5-1.7
					c-0.4-0.4-0.8-0.6-1.5-0.6c-0.7,0-1.2,0.3-1.6,0.8c-0.4,0.5-0.6,1.2-0.6,2.1c0,0.8,0.2,1.3,0.5,1.7c0.3,0.4,0.8,0.6,1.5,0.6
					C181.6,305.9,182.1,305.6,182.5,305.1z"/>
			</g>
			<g>
			</g>
			<g class="st0">
				<path class="st4" d="M187.4,304.3c0,0.1,0,0.2,0,0.3c0,0.9,0.5,1.4,1.4,1.4c0.2,0,0.4,0,0.6-0.1l-0.1,0.9
					c-0.2,0-0.4,0.1-0.7,0.1c-0.8,0-1.3-0.2-1.7-0.6s-0.6-0.9-0.6-1.6c0-0.1,0-0.2,0-0.3l0.3-3.5h-1.3l0.1-0.9h1.3l0.2-2.1h1.1
					l-0.2,2.1h1.9l-0.1,0.9h-1.9L187.4,304.3z"/>
				<path class="st4" d="M196.1,300.3c0.4,0.4,0.6,1,0.6,1.8c0,0.2,0,0.3,0,0.4l-0.3,4.3h-1.1l0.3-4.2c0-0.1,0-0.2,0-0.3
					c0-1-0.5-1.6-1.5-1.6c-0.6,0-1.1,0.2-1.5,0.6c-0.4,0.4-0.6,0.9-0.6,1.6l-0.3,3.9h-1.1l0.8-9.9h1.1l-0.3,4.1
					c0.2-0.4,0.6-0.7,1-0.9c0.4-0.2,0.8-0.3,1.3-0.3C195.1,299.7,195.7,299.9,196.1,300.3z"/>
				<path class="st4" d="M199.4,303.5L199.4,303.5c0,0.8,0.2,1.4,0.6,1.8c0.4,0.4,0.9,0.6,1.6,0.6c0.8,0,1.6-0.3,2.2-0.8l0.3,0.8
					c-0.3,0.3-0.7,0.5-1.1,0.6c-0.5,0.2-1,0.2-1.5,0.2c-1,0-1.8-0.3-2.4-0.9c-0.6-0.6-0.9-1.4-0.9-2.4c0-0.7,0.1-1.4,0.4-2
					c0.3-0.6,0.7-1,1.2-1.3c0.5-0.3,1.1-0.5,1.8-0.5c0.9,0,1.6,0.3,2.1,0.8c0.5,0.5,0.8,1.3,0.8,2.3c0,0.2,0,0.4,0,0.7H199.4z
					 M200.2,301.2c-0.4,0.4-0.6,0.9-0.7,1.6h4c0-0.7-0.1-1.2-0.4-1.6c-0.3-0.4-0.8-0.5-1.3-0.5C201,300.6,200.5,300.8,200.2,301.2z"
					/>
				<path class="st4" d="M210.1,299.7v1l-0.8,0.1c-0.7,0.1-1.2,0.3-1.5,0.6s-0.5,0.8-0.6,1.4l-0.3,3.9h-1.1l0.5-6.8h1.1l-0.1,1.1
					c0.2-0.4,0.6-0.7,0.9-0.9c0.4-0.2,0.9-0.3,1.4-0.4L210.1,299.7z"/>
				<path class="st4" d="M215.7,306.4c-0.5-0.3-0.8-0.7-1.1-1.2s-0.4-1.1-0.4-1.7c0-0.8,0.1-1.4,0.4-2s0.7-1,1.2-1.3
					c0.5-0.3,1.1-0.5,1.8-0.5c0.5,0,1,0.1,1.4,0.2c0.4,0.2,0.8,0.4,1.1,0.7l-0.4,0.8c-0.3-0.3-0.7-0.5-1-0.6c-0.3-0.1-0.7-0.2-1-0.2
					c-0.7,0-1.3,0.3-1.7,0.8s-0.6,1.2-0.6,2.1c0,0.7,0.2,1.3,0.5,1.7c0.4,0.4,0.9,0.6,1.5,0.6c0.4,0,0.7-0.1,1-0.2
					c0.3-0.1,0.6-0.3,1-0.6l0.3,0.8c-0.3,0.3-0.7,0.5-1.1,0.7s-0.9,0.2-1.3,0.2C216.7,306.8,216.2,306.7,215.7,306.4z"/>
				<path class="st4" d="M222.4,306.4c-0.5-0.3-0.8-0.7-1.1-1.2s-0.4-1.1-0.4-1.7c0-0.8,0.1-1.4,0.4-2c0.3-0.6,0.7-1,1.2-1.3
					c0.5-0.3,1.1-0.5,1.7-0.5c0.6,0,1.2,0.1,1.7,0.4c0.5,0.3,0.8,0.7,1.1,1.2c0.3,0.5,0.4,1.1,0.4,1.8c0,0.8-0.1,1.4-0.4,2
					c-0.3,0.6-0.7,1-1.2,1.3c-0.5,0.3-1.1,0.5-1.8,0.5C223.4,306.8,222.9,306.7,222.4,306.4z M225.7,305.1c0.4-0.5,0.6-1.2,0.6-2.1
					c0-0.7-0.2-1.3-0.5-1.7c-0.3-0.4-0.8-0.6-1.5-0.6c-0.7,0-1.2,0.3-1.6,0.8s-0.6,1.2-0.6,2.1c0,0.8,0.2,1.3,0.5,1.7
					c0.3,0.4,0.8,0.6,1.5,0.6C224.8,305.9,225.3,305.6,225.7,305.1z"/>
				<path class="st4" d="M228.8,306.7l0.5-6.8h1.1l-0.5,6.8H228.8z M229.5,296.9h1.4l-0.1,1.3h-1.4L229.5,296.9z"/>
				<path class="st4" d="M237.7,300.3c0.4,0.4,0.6,1,0.6,1.8c0,0.2,0,0.3,0,0.4l-0.3,4.3h-1.1l0.3-4.2c0-0.1,0-0.2,0-0.3
					c0-1-0.5-1.6-1.5-1.6c-0.6,0-1.1,0.2-1.5,0.6s-0.6,0.9-0.6,1.6l-0.3,3.9H232l0.5-6.8h1.1l-0.1,1.1c0.2-0.4,0.6-0.7,1-0.9
					c0.4-0.2,0.9-0.3,1.4-0.3C236.7,299.7,237.3,299.9,237.7,300.3z"/>
				<path class="st4" d="M240.9,306.6c-0.5-0.2-0.9-0.4-1.3-0.7l0.4-0.8c0.4,0.3,0.7,0.5,1.1,0.6s0.8,0.2,1.2,0.2
					c1.1,0,1.6-0.3,1.6-1c0-0.3-0.1-0.5-0.4-0.7s-0.7-0.3-1.2-0.5c-0.5-0.1-0.9-0.3-1.2-0.4c-0.3-0.1-0.5-0.3-0.8-0.6
					s-0.3-0.6-0.3-1c0-0.6,0.2-1.1,0.7-1.5c0.5-0.4,1.1-0.6,2-0.6c0.5,0,0.9,0.1,1.4,0.2c0.4,0.2,0.8,0.4,1.1,0.7l-0.4,0.8
					c-0.6-0.5-1.3-0.8-2-0.8c-0.5,0-0.9,0.1-1.2,0.3s-0.4,0.4-0.4,0.8c0,0.3,0.1,0.5,0.4,0.7s0.7,0.3,1.2,0.5
					c0.5,0.1,0.9,0.3,1.2,0.4c0.3,0.1,0.6,0.3,0.8,0.6s0.3,0.6,0.3,1c0,0.6-0.3,1.1-0.8,1.4c-0.5,0.4-1.2,0.5-2,0.5
					C241.9,306.8,241.4,306.7,240.9,306.6z"/>
			</g>
			<g class="st0">
				<path class="st4" d="M144.9,259.7c-0.6-0.2-1.2-0.5-1.7-0.9l0.5-0.9c0.5,0.4,1,0.7,1.5,0.9s1.1,0.3,1.8,0.3
					c0.8,0,1.4-0.1,1.8-0.4s0.6-0.7,0.6-1.3c0-0.3-0.1-0.6-0.3-0.8s-0.5-0.4-0.8-0.5s-0.8-0.3-1.3-0.4c-0.7-0.2-1.3-0.4-1.7-0.6
					c-0.4-0.2-0.8-0.5-1.1-0.8c-0.3-0.4-0.5-0.9-0.5-1.4c0-0.6,0.1-1.1,0.4-1.5c0.3-0.4,0.7-0.8,1.3-1s1.2-0.3,1.9-0.3
					c0.7,0,1.3,0.1,1.9,0.3c0.6,0.2,1.1,0.5,1.5,0.9l-0.5,0.9c-0.9-0.8-1.9-1.2-3-1.2c-0.8,0-1.4,0.2-1.8,0.5s-0.6,0.7-0.6,1.3
					c0,0.4,0.1,0.7,0.3,0.9c0.2,0.2,0.5,0.4,0.8,0.6c0.3,0.1,0.8,0.3,1.4,0.5c0.7,0.2,1.2,0.4,1.6,0.6c0.4,0.2,0.8,0.4,1,0.8
					c0.3,0.3,0.4,0.8,0.4,1.3c0,0.8-0.3,1.5-1,2c-0.7,0.5-1.6,0.7-2.7,0.7C146.2,260,145.5,259.9,144.9,259.7z"/>
				<path class="st4" d="M153.1,256.7L153.1,256.7c0,0.8,0.2,1.4,0.6,1.8c0.4,0.4,0.9,0.6,1.6,0.6c0.8,0,1.6-0.3,2.2-0.8l0.3,0.8
					c-0.3,0.3-0.7,0.5-1.1,0.6c-0.5,0.2-1,0.2-1.5,0.2c-1,0-1.8-0.3-2.4-0.9c-0.6-0.6-0.9-1.4-0.9-2.4c0-0.7,0.1-1.4,0.4-2
					c0.3-0.6,0.7-1,1.2-1.3c0.5-0.3,1.1-0.5,1.8-0.5c0.9,0,1.6,0.3,2.1,0.8s0.8,1.3,0.8,2.3c0,0.2,0,0.4,0,0.7H153.1z M153.9,254.4
					c-0.4,0.4-0.6,0.9-0.7,1.6h4c0-0.7-0.1-1.2-0.4-1.6c-0.3-0.4-0.8-0.5-1.3-0.5C154.8,253.8,154.3,254,153.9,254.4z"/>
				<path class="st4" d="M159.5,259.9l0.8-9.9h1.1l-0.8,9.9H159.5z"/>
				<path class="st4" d="M162.7,259.9l0.8-9.9h1.1l-0.8,9.9H162.7z"/>
				<path class="st4" d="M177,255.7c0.3,0.4,0.4,0.9,0.4,1.4c0,0.9-0.3,1.6-0.9,2.1s-1.4,0.7-2.5,0.7h-4.2l0.8-9.9h3.8
					c1,0,1.8,0.2,2.4,0.6s0.8,1,0.8,1.8c0,0.6-0.2,1.1-0.5,1.5s-0.7,0.7-1.3,0.9C176.3,255,176.7,255.3,177,255.7z M176.3,257.1
					c0-1.1-0.7-1.7-2.1-1.7h-2.9L171,259h3C175.5,259,176.3,258.3,176.3,257.1z M171.6,251l-0.3,3.4h2.8c0.7,0,1.3-0.2,1.7-0.5
					c0.4-0.3,0.6-0.8,0.6-1.4c0-1-0.7-1.6-2.1-1.6H171.6z"/>
				<path class="st4" d="M183.9,254.8h3.5l-0.4,4.5c-0.4,0.2-0.9,0.4-1.5,0.5c-0.6,0.1-1.2,0.2-1.8,0.2c-1.4,0-2.6-0.4-3.3-1.2
					s-1.2-1.9-1.2-3.3c0-1.1,0.2-2.1,0.6-2.9c0.4-0.8,1-1.5,1.7-1.9c0.7-0.5,1.6-0.7,2.6-0.7c1.4,0,2.5,0.4,3.4,1.2l-0.5,0.9
					c-0.5-0.4-0.9-0.7-1.4-0.9c-0.5-0.2-1-0.3-1.5-0.3c-1.2,0-2.1,0.4-2.8,1.2c-0.7,0.8-1,1.9-1,3.3c0,1.2,0.3,2,0.9,2.7
					s1.4,0.9,2.5,0.9c0.8,0,1.5-0.1,2.3-0.4l0.2-3h-2.4L183.9,254.8z"/>
				<path class="st4" d="M196.3,251h-5.1l-0.3,3.4h4.8l-0.1,1h-4.8l-0.3,3.6h5.1l-0.1,1h-6.2l0.8-9.9h6.2L196.3,251z"/>
			</g>
			<g class="st0">
				<path class="st4" d="M102.9,189c-0.6-0.2-1.2-0.5-1.7-0.9l0.5-0.9c0.5,0.4,1,0.7,1.5,0.9s1.1,0.3,1.8,0.3c0.8,0,1.4-0.1,1.8-0.4
					s0.6-0.7,0.6-1.3c0-0.3-0.1-0.6-0.3-0.8s-0.5-0.4-0.8-0.5s-0.8-0.3-1.3-0.4c-0.7-0.2-1.3-0.4-1.7-0.6c-0.4-0.2-0.8-0.5-1.1-0.8
					c-0.3-0.4-0.5-0.9-0.5-1.4c0-0.6,0.1-1.1,0.4-1.5c0.3-0.4,0.7-0.8,1.3-1s1.2-0.3,1.9-0.3c0.7,0,1.3,0.1,1.9,0.3
					c0.6,0.2,1.1,0.5,1.5,0.9l-0.5,0.9c-0.9-0.8-1.9-1.2-3-1.2c-0.8,0-1.4,0.2-1.8,0.5s-0.6,0.7-0.6,1.3c0,0.4,0.1,0.7,0.3,0.9
					c0.2,0.2,0.5,0.4,0.8,0.6c0.3,0.1,0.8,0.3,1.4,0.5c0.7,0.2,1.2,0.4,1.6,0.6c0.4,0.2,0.8,0.4,1,0.8c0.3,0.3,0.4,0.8,0.4,1.3
					c0,0.8-0.3,1.5-1,2c-0.7,0.5-1.6,0.7-2.7,0.7C104.2,189.3,103.5,189.2,102.9,189z"/>
			</g>
			<g>
			</g>
			<g class="st0">
				<path class="st4" d="M111.9,186.8c0,0.1,0,0.2,0,0.3c0,0.9,0.5,1.4,1.4,1.4c0.2,0,0.4,0,0.6-0.1l-0.1,0.9
					c-0.2,0-0.4,0.1-0.7,0.1c-0.8,0-1.3-0.2-1.7-0.6s-0.6-0.9-0.6-1.6c0-0.1,0-0.2,0-0.3l0.3-3.5h-1.3l0.1-0.9h1.3l0.2-2.1h1.1
					l-0.2,2.1h1.9l-0.1,0.9h-1.9L111.9,186.8z"/>
				<path class="st4" d="M120.5,184.6c0,0.2,0,0.3,0,0.4l-0.3,4.3h-1.1l0.1-1.1c-0.2,0.4-0.5,0.7-0.8,0.9c-0.4,0.2-0.8,0.3-1.2,0.3
					c-0.7,0-1.2-0.2-1.7-0.6c-0.4-0.4-0.7-0.8-0.7-1.4c0-0.5,0.1-0.9,0.4-1.2c0.3-0.3,0.7-0.5,1.3-0.7s1.4-0.2,2.4-0.2h0.5l0-0.4
					l0-0.3c0-0.5-0.1-0.8-0.4-1.1c-0.2-0.2-0.6-0.3-1.1-0.3c-0.8,0-1.5,0.2-2.3,0.7l-0.3-0.8c0.3-0.2,0.8-0.4,1.3-0.6
					c0.5-0.2,1-0.2,1.5-0.2C119.7,182.2,120.5,183,120.5,184.6z M118.7,187.9c0.4-0.4,0.6-0.9,0.6-1.4l0-0.4h-0.4
					c-0.8,0-1.4,0-1.9,0.1s-0.7,0.2-0.9,0.4c-0.2,0.2-0.2,0.4-0.2,0.7c0,0.4,0.1,0.6,0.4,0.8c0.3,0.2,0.6,0.3,1,0.3
					C117.9,188.4,118.3,188.2,118.7,187.9z"/>
			</g>
			<g>
			</g>
			<g class="st0">
				<path class="st4" d="M128.9,182.4l-3.6,3.3l3.4,3.5h-1.4l-3.2-3.3l-0.3,3.3h-1.1l0.8-9.9h1.1l-0.5,6.2l3.4-3.1H128.9z"/>
			</g>
			<g>
			</g>
			<g class="st0">
				<path class="st4" d="M130.6,186L130.6,186c0,0.8,0.2,1.4,0.6,1.8c0.4,0.4,0.9,0.6,1.6,0.6c0.8,0,1.6-0.3,2.2-0.8l0.3,0.8
					c-0.3,0.3-0.7,0.5-1.1,0.6c-0.5,0.2-1,0.2-1.5,0.2c-1,0-1.8-0.3-2.4-0.9c-0.6-0.6-0.9-1.4-0.9-2.4c0-0.7,0.1-1.4,0.4-2
					c0.3-0.6,0.7-1,1.2-1.3c0.5-0.3,1.1-0.5,1.8-0.5c0.9,0,1.6,0.3,2.1,0.8s0.8,1.3,0.8,2.3c0,0.2,0,0.4,0,0.7H130.6z M131.4,183.7
					c-0.4,0.4-0.6,0.9-0.7,1.6h4c0-0.7-0.1-1.2-0.4-1.6c-0.3-0.4-0.8-0.5-1.3-0.5C132.2,183.1,131.7,183.3,131.4,183.7z"/>
			</g>
			<g class="st0">
				<path class="st4" d="M108.9,201c0.3,0.4,0.4,0.9,0.4,1.4c0,0.9-0.3,1.6-0.9,2.1s-1.4,0.7-2.5,0.7h-4.2l0.8-9.9h3.8
					c1,0,1.8,0.2,2.4,0.6s0.8,1,0.8,1.8c0,0.6-0.2,1.1-0.5,1.5s-0.7,0.7-1.3,0.9C108.2,200.3,108.6,200.6,108.9,201z M108.2,202.4
					c0-1.1-0.7-1.7-2.1-1.7h-2.9l-0.3,3.6h3C107.4,204.3,108.2,203.6,108.2,202.4z M103.5,196.3l-0.3,3.4h2.8c0.7,0,1.3-0.2,1.7-0.5
					c0.4-0.3,0.6-0.8,0.6-1.4c0-1-0.7-1.6-2.1-1.6H103.5z"/>
				<path class="st4" d="M115.8,200.1h3.5l-0.4,4.5c-0.4,0.2-0.9,0.4-1.5,0.5c-0.6,0.1-1.2,0.2-1.8,0.2c-1.4,0-2.6-0.4-3.3-1.2
					s-1.2-1.9-1.2-3.3c0-1.1,0.2-2.1,0.6-2.9c0.4-0.8,1-1.5,1.7-1.9c0.7-0.5,1.6-0.7,2.6-0.7c1.4,0,2.5,0.4,3.4,1.2l-0.5,0.9
					c-0.5-0.4-0.9-0.7-1.4-0.9c-0.5-0.2-1-0.3-1.5-0.3c-1.2,0-2.1,0.4-2.8,1.2c-0.7,0.8-1,1.9-1,3.3c0,1.2,0.3,2,0.9,2.7
					s1.4,0.9,2.5,0.9c0.8,0,1.5-0.1,2.3-0.4l0.2-3h-2.4L115.8,200.1z"/>
				<path class="st4" d="M128.2,196.3h-5.1l-0.3,3.4h4.8l-0.1,1h-4.8l-0.3,3.6h5.1l-0.1,1h-6.2l0.8-9.9h6.2L128.2,196.3z"/>
			</g>
			<g class="st0">
				<path class="st4" d="M39.9,137.9h3.5l-0.4,4.5c-0.4,0.2-0.9,0.4-1.5,0.5c-0.6,0.1-1.2,0.2-1.8,0.2c-1.4,0-2.6-0.4-3.3-1.2
					s-1.2-1.9-1.2-3.3c0-1.1,0.2-2.1,0.6-2.9c0.4-0.8,1-1.5,1.7-1.9c0.7-0.5,1.6-0.7,2.6-0.7c1.4,0,2.5,0.4,3.4,1.2l-0.5,0.9
					c-0.5-0.4-0.9-0.7-1.4-0.9c-0.5-0.2-1-0.3-1.5-0.3c-1.2,0-2.1,0.4-2.8,1.2c-0.7,0.8-1,1.9-1,3.3c0,1.2,0.3,2,0.9,2.7
					s1.4,0.9,2.5,0.9c0.8,0,1.5-0.1,2.3-0.4l0.2-3h-2.4L39.9,137.9z"/>
			</g>
			<g>
			</g>
			<g class="st0">
				<path class="st4" d="M46.2,139.9L46.2,139.9c0,0.8,0.2,1.4,0.6,1.8c0.4,0.4,0.9,0.6,1.6,0.6c0.8,0,1.6-0.3,2.2-0.8l0.3,0.8
					c-0.3,0.3-0.7,0.5-1.1,0.6c-0.5,0.2-1,0.2-1.5,0.2c-1,0-1.8-0.3-2.4-0.9c-0.6-0.6-0.9-1.4-0.9-2.4c0-0.7,0.1-1.4,0.4-2
					c0.3-0.6,0.7-1,1.2-1.3c0.5-0.3,1.1-0.5,1.8-0.5c0.9,0,1.6,0.3,2.1,0.8s0.8,1.3,0.8,2.3c0,0.2,0,0.4,0,0.7H46.2z M47,137.5
					c-0.4,0.4-0.6,0.9-0.7,1.6h4c0-0.7-0.1-1.2-0.4-1.6c-0.3-0.4-0.8-0.5-1.3-0.5C47.8,137,47.3,137.2,47,137.5z"/>
			</g>
			<g>
			</g>
			<g class="st0">
				<path class="st4" d="M54.2,140.6c0,0.1,0,0.2,0,0.3c0,0.9,0.5,1.4,1.4,1.4c0.2,0,0.4,0,0.6-0.1l-0.1,0.9c-0.2,0-0.4,0.1-0.7,0.1
					c-0.8,0-1.3-0.2-1.7-0.6S53,141.7,53,141c0-0.1,0-0.2,0-0.3l0.3-3.5H52l0.1-0.9h1.3l0.2-2.1h1.1l-0.2,2.1h1.9l-0.1,0.9h-1.9
					L54.2,140.6z"/>
				<path class="st4" d="M68.2,138.8c0.3,0.4,0.4,0.9,0.4,1.4c0,0.9-0.3,1.6-0.9,2.1s-1.4,0.7-2.5,0.7H61l0.8-9.9h3.8
					c1,0,1.8,0.2,2.4,0.6s0.8,1,0.8,1.8c0,0.6-0.2,1.1-0.5,1.5s-0.7,0.7-1.3,0.9C67.5,138.2,67.9,138.4,68.2,138.8z M67.5,140.3
					c0-1.1-0.7-1.7-2.1-1.7h-2.9l-0.3,3.6h3C66.7,142.1,67.5,141.5,67.5,140.3z M62.8,134.2l-0.3,3.4h2.8c0.7,0,1.3-0.2,1.7-0.5
					c0.4-0.3,0.6-0.8,0.6-1.4c0-1-0.7-1.6-2.1-1.6H62.8z"/>
				<path class="st4" d="M75.2,137.9h3.5l-0.4,4.5c-0.4,0.2-0.9,0.4-1.5,0.5c-0.6,0.1-1.2,0.2-1.8,0.2c-1.4,0-2.6-0.4-3.3-1.2
					s-1.2-1.9-1.2-3.3c0-1.1,0.2-2.1,0.6-2.9c0.4-0.8,1-1.5,1.7-1.9c0.7-0.5,1.6-0.7,2.6-0.7c1.4,0,2.5,0.4,3.4,1.2l-0.5,0.9
					c-0.5-0.4-0.9-0.7-1.4-0.9c-0.5-0.2-1-0.3-1.5-0.3c-1.2,0-2.1,0.4-2.8,1.2c-0.7,0.8-1,1.9-1,3.3c0,1.2,0.3,2,0.9,2.7
					s1.4,0.9,2.5,0.9c0.8,0,1.5-0.1,2.3-0.4l0.2-3h-2.4L75.2,137.9z"/>
				<path class="st4" d="M87.5,134.2h-5.1l-0.3,3.4H87l-0.1,1h-4.8l-0.3,3.6h5.1l-0.1,1h-6.2l0.8-9.9h6.2L87.5,134.2z"/>
			</g>
			<g class="st0">
				<path class="st4" d="M39.3,152.1v1l-0.8,0.1c-0.7,0.1-1.2,0.3-1.5,0.6s-0.5,0.8-0.6,1.4l-0.3,3.9H35l0.5-6.8h1.1l-0.1,1.1
					c0.2-0.4,0.6-0.7,0.9-0.9c0.4-0.2,0.9-0.3,1.4-0.4L39.3,152.1z"/>
			</g>
			<g>
			</g>
			<g class="st0">
				<path class="st4" d="M41,155.9L41,155.9c0,0.8,0.2,1.4,0.6,1.8c0.4,0.4,0.9,0.6,1.6,0.6c0.8,0,1.6-0.3,2.2-0.8l0.3,0.8
					c-0.3,0.3-0.7,0.5-1.1,0.6c-0.5,0.2-1,0.2-1.5,0.2c-1,0-1.8-0.3-2.4-0.9c-0.6-0.6-0.9-1.4-0.9-2.4c0-0.7,0.1-1.4,0.4-2
					c0.3-0.6,0.7-1,1.2-1.3c0.5-0.3,1.1-0.5,1.8-0.5c0.9,0,1.6,0.3,2.1,0.8s0.8,1.3,0.8,2.3c0,0.2,0,0.4,0,0.7H41z M41.7,153.5
					c-0.4,0.4-0.6,0.9-0.7,1.6h4c0-0.7-0.1-1.2-0.4-1.6c-0.3-0.4-0.8-0.5-1.3-0.5C42.6,153,42.1,153.2,41.7,153.5z"/>
			</g>
			<g>
			</g>
			<g class="st0">
				<path class="st4" d="M57.1,152.3h1.2l-3.1,6.8h-1.1l-1.5-5.3l-2.3,5.3h-1.1l-2-6.8h1.1l1.5,5.5l2.4-5.5h1l1.5,5.5L57.1,152.3z"
					/>
			</g>
			<g>
			</g>
			<g class="st0">
				<path class="st4" d="M64.8,154.4c0,0.2,0,0.3,0,0.4l-0.3,4.3h-1.1l0.1-1.1c-0.2,0.4-0.5,0.7-0.8,0.9c-0.4,0.2-0.8,0.3-1.2,0.3
					c-0.7,0-1.2-0.2-1.7-0.6c-0.4-0.4-0.7-0.8-0.7-1.4c0-0.5,0.1-0.9,0.4-1.2c0.3-0.3,0.7-0.5,1.3-0.7s1.4-0.2,2.4-0.2h0.5l0-0.4
					l0-0.3c0-0.5-0.1-0.8-0.4-1.1c-0.2-0.2-0.6-0.3-1.1-0.3c-0.8,0-1.5,0.2-2.3,0.7l-0.3-0.8c0.3-0.2,0.8-0.4,1.3-0.6
					c0.5-0.2,1-0.2,1.5-0.2C64,152.1,64.8,152.9,64.8,154.4z M63,157.7c0.4-0.4,0.6-0.9,0.6-1.4l0-0.4h-0.4c-0.8,0-1.4,0-1.9,0.1
					s-0.7,0.2-0.9,0.4c-0.2,0.2-0.2,0.4-0.2,0.7c0,0.4,0.1,0.6,0.4,0.8c0.3,0.2,0.6,0.3,1,0.3C62.1,158.3,62.6,158.1,63,157.7z"/>
			</g>
			<g>
			</g>
			<g class="st0">
				<path class="st4" d="M71,152.1v1l-0.8,0.1c-0.7,0.1-1.2,0.3-1.5,0.6s-0.5,0.8-0.6,1.4l-0.3,3.9h-1.1l0.5-6.8h1.1l-0.1,1.1
					c0.2-0.4,0.6-0.7,0.9-0.9c0.4-0.2,0.9-0.3,1.4-0.4L71,152.1z"/>
			</g>
			<g>
			</g>
			<g class="st0">
				<path class="st4" d="M78.5,149.2l-0.8,9.9h-1.1l0.1-1.1c-0.2,0.4-0.5,0.6-0.9,0.9s-0.8,0.3-1.3,0.3c-0.6,0-1.1-0.1-1.5-0.4
					c-0.4-0.3-0.8-0.6-1-1.1c-0.2-0.5-0.4-1.1-0.4-1.7c0-0.8,0.1-1.4,0.4-2s0.6-1,1.1-1.3s1-0.5,1.7-0.5c0.5,0,1,0.1,1.4,0.4
					c0.4,0.2,0.7,0.6,0.9,1l0.3-4.2H78.5z M76.3,157.5c0.4-0.5,0.6-1.2,0.6-2.1c0-0.8-0.2-1.4-0.5-1.8c-0.3-0.4-0.9-0.6-1.5-0.6
					c-0.7,0-1.2,0.3-1.6,0.8c-0.4,0.5-0.6,1.2-0.6,2.1c0,0.8,0.2,1.3,0.5,1.8s0.9,0.6,1.5,0.6C75.4,158.2,75.9,158,76.3,157.5z"/>
			</g>
			<g>
			</g>
			<g class="st0">
				<path class="st4" d="M81,159c-0.5-0.2-0.9-0.4-1.3-0.7l0.4-0.8c0.4,0.3,0.7,0.5,1.1,0.6c0.4,0.1,0.8,0.2,1.2,0.2
					c1.1,0,1.6-0.3,1.6-1c0-0.3-0.1-0.5-0.4-0.7c-0.3-0.1-0.7-0.3-1.2-0.5c-0.5-0.1-0.9-0.3-1.2-0.4c-0.3-0.1-0.5-0.3-0.8-0.6
					s-0.3-0.6-0.3-1c0-0.6,0.2-1.1,0.7-1.5c0.5-0.4,1.1-0.6,2-0.6c0.5,0,0.9,0.1,1.4,0.2c0.4,0.2,0.8,0.4,1.1,0.7l-0.4,0.8
					c-0.6-0.5-1.3-0.8-2-0.8c-0.5,0-0.9,0.1-1.2,0.3s-0.4,0.4-0.4,0.8c0,0.3,0.1,0.5,0.4,0.7c0.3,0.1,0.7,0.3,1.2,0.5
					c0.5,0.1,0.9,0.3,1.2,0.4c0.3,0.1,0.6,0.3,0.8,0.6s0.3,0.6,0.3,1c0,0.6-0.3,1.1-0.8,1.4c-0.5,0.4-1.2,0.5-2,0.5
					C82,159.2,81.5,159.1,81,159z"/>
			</g>
			<g id="Group-139" transform="translate(67.000000, 46.594000)">
				<g id="Stroke-115">
					<path class="st5" d="M137.9,58.2l-1.2-0.9l0.2-0.3l1.2,0.9L137.9,58.2z M139.9,55.5l-1.2-0.9c1-1.3,2-2.7,3.1-4l1.2,0.9
						C141.9,52.9,140.9,54.2,139.9,55.5z M144.8,49.3l-1.1-1c1.1-1.3,2.2-2.5,3.3-3.8l1.1,1C147,46.8,145.9,48,144.8,49.3z
						 M150.1,43.4l-1.1-1c1.2-1.2,2.3-2.4,3.5-3.6l1.1,1.1C152.4,41,151.3,42.2,150.1,43.4z M155.8,37.8l-1-1.1
						c1.2-1.1,2.5-2.3,3.7-3.4l1,1.1C158.2,35.5,157,36.6,155.8,37.8z M161.7,32.5l-1-1.1c1.3-1.1,2.6-2.1,3.9-3.2l0.9,1.2
						C164.3,30.4,163,31.4,161.7,32.5z M168,27.5l-0.9-1.2c1.3-1,2.7-2,4.1-2.9l0.9,1.2C170.6,25.6,169.3,26.6,168,27.5z M174.5,23
						l-0.8-1.3c1.4-0.9,2.8-1.8,4.2-2.7l0.8,1.3C177.2,21.2,175.8,22.1,174.5,23z M181.2,18.8l-0.8-1.3c1.4-0.8,2.9-1.7,4.4-2.5
						l0.7,1.3C184.1,17.1,182.7,17.9,181.2,18.8z M188.2,14.9l-0.7-1.3c1.5-0.8,3-1.5,4.5-2.2l0.6,1.4
						C191.2,13.5,189.7,14.2,188.2,14.9z M195.4,11.5l-0.6-1.4c1.5-0.7,3.1-1.3,4.6-2l0.6,1.4C198.4,10.2,196.9,10.8,195.4,11.5z
						 M202.8,8.5l-0.5-1.4c1.6-0.6,3.2-1.2,4.7-1.7l0.5,1.4C205.9,7.3,204.3,7.9,202.8,8.5z M210.3,5.9l-0.5-1.4
						c1.6-0.5,3.2-1,4.8-1.4l0.4,1.4C213.5,4.9,211.9,5.4,210.3,5.9z M217.9,3.7l-0.4-1.5c1.7-0.4,3.3-0.8,4.9-1.1l0.3,1.5
						C221.2,2.9,219.6,3.3,217.9,3.7z M225.7,2l-0.3-1.5c3.2-0.6,5-0.7,5-0.8l0.1,1.5C230.6,1.2,228.8,1.4,225.7,2z"/>
				</g>
				<g id="Fill-117">
					<path class="st6" d="M137.5,49c0.3,0,0.5,0.3,0.5,0.6l-0.5,8l7.5-2.9c0.3-0.1,0.6,0,0.7,0.3c0.1,0.3,0,0.6-0.3,0.7l-8.3,3.2
						c-0.2,0.1-0.4,0-0.5-0.1c-0.1-0.1-0.2-0.3-0.2-0.5l0.6-8.8c0-0.1,0-0.2,0.1-0.3C137.1,49.1,137.3,49,137.5,49"/>
				</g>
				<g id="Stroke-119">
					<path class="st5" d="M4.1,156l-1.4-0.5c0.6-1.6,1.2-3.1,1.8-4.7l1.4,0.6C5.3,152.9,4.7,154.4,4.1,156z M7.1,148.6L5.7,148
						c0.7-1.5,1.4-3.1,2.1-4.5l1.3,0.7C8.5,145.6,7.8,147.1,7.1,148.6z M10.6,141.5l-1.3-0.7c0.8-1.5,1.6-3,2.5-4.4l1.3,0.8
						C12.2,138.6,11.4,140,10.6,141.5z M14.5,134.6l-1.3-0.8c0.9-1.4,1.8-2.8,2.8-4.2l1.2,0.8C16.3,131.8,15.4,133.2,14.5,134.6z
						 M19,128l-1.2-0.9c1-1.4,2-2.7,3-4l1.2,0.9C21,125.4,19.9,126.7,19,128z M23.9,121.8l-1.1-1c1.1-1.3,2.2-2.6,3.3-3.8l1.1,1
						C26,119.2,24.9,120.5,23.9,121.8z M29.2,115.9l-1.1-1c1.2-1.2,2.4-2.4,3.6-3.5l1,1.1C31.5,113.5,30.3,114.7,29.2,115.9z
						 M34.9,110.4l-1-1.1c1.2-1.1,2.5-2.2,3.8-3.3l1,1.2C37.4,108.2,36.1,109.3,34.9,110.4z M41,105.3l-0.9-1.2c1.3-1,2.7-2,4-3
						l0.9,1.2C43.6,103.2,42.3,104.2,41,105.3z M47.4,100.6l-0.8-1.2c1.4-0.9,2.8-1.9,4.2-2.7l0.8,1.3
						C50.2,98.8,48.8,99.7,47.4,100.6z M54.2,96.4l-0.8-1.3c1.5-0.8,2.9-1.7,4.4-2.4l0.7,1.3C57.1,94.7,55.6,95.5,54.2,96.4z
						 M61.2,92.6l-0.7-1.3c1.5-0.7,3.1-1.5,4.6-2.1l0.6,1.4C64.2,91.2,62.7,91.9,61.2,92.6z M68.5,89.4L67.9,88
						c3-1.2,4.7-1.7,4.8-1.7l0.4,1.4C73.1,87.8,71.4,88.3,68.5,89.4z"/>
				</g>
				<g id="Fill-121">
					<path class="st6" d="M0.9,148.2c0.3-0.1,0.6,0.1,0.6,0.4l1.7,7.9l6.4-4.8c0.2-0.2,0.6-0.1,0.7,0.1c0.2,0.2,0.1,0.6-0.1,0.7
						l-7.1,5.3c-0.1,0.1-0.3,0.1-0.5,0.1c-0.2-0.1-0.3-0.2-0.3-0.4l-1.8-8.7c0-0.1,0-0.2,0-0.3C0.5,148.4,0.7,148.2,0.9,148.2"/>
				</g>
				<g id="Stroke-123">
					<path class="st5" d="M11.9,171.2l-1.5-0.4c0.1-0.5,0.3-1.1,0.4-1.6l1.4,0.4C12.1,170.1,12,170.7,11.9,171.2z M13.1,166.8
						l-1.4-0.4c0.5-1.6,1-3.2,1.5-4.8l1.4,0.5C14.1,163.6,13.6,165.2,13.1,166.8z M15.6,159.2l-1.4-0.5c0.6-1.6,1.2-3.2,1.8-4.7
						l1.4,0.6C16.8,156.1,16.1,157.6,15.6,159.2z M18.5,151.8l-1.4-0.6c0.7-1.5,1.4-3.1,2.1-4.6l1.3,0.7
						C19.9,148.8,19.2,150.3,18.5,151.8z M22,144.7l-1.3-0.7c0.8-1.5,1.6-3,2.5-4.4l1.3,0.8C23.6,141.8,22.8,143.2,22,144.7z
						 M26,137.8l-1.3-0.8c0.9-1.4,1.8-2.8,2.8-4.2l1.2,0.9C27.8,135,26.9,136.4,26,137.8z M30.5,131.3l-1.2-0.9
						c1-1.3,2.1-2.7,3.1-3.9l1.1,1C32.5,128.7,31.5,130,30.5,131.3z M35.6,125.2l-1.1-1c1.1-1.2,2.3-2.5,3.5-3.6l1.1,1.1
						C37.8,122.8,36.7,124,35.6,125.2z M41.1,119.5l-1-1.1c1.2-1.1,2.5-2.3,3.8-3.3l1,1.2C43.6,117.3,42.3,118.4,41.1,119.5z
						 M47.2,114.4l-0.9-1.2c1.3-1,2.7-2,4.1-2.9l0.8,1.2C49.9,112.5,48.5,113.4,47.2,114.4z M53.7,109.9l-0.8-1.3
						c1.5-0.9,2.9-1.7,4.4-2.5l0.7,1.3C56.6,108.3,55.1,109.1,53.7,109.9z M60.7,106.2l-0.6-1.4c2.1-1,3.7-1.6,4.7-1.9l0.5,1.4
						C64.3,104.6,62.7,105.2,60.7,106.2z"/>
				</g>
				<g id="Fill-125">
					<path class="st6" d="M56.6,101.1c-0.1,0.3,0.1,0.6,0.4,0.6l7.8,1.9l-5.1,6.2c-0.2,0.2-0.1,0.6,0.1,0.7c0.2,0.2,0.6,0.1,0.7-0.1
						l5.6-6.9c0.1-0.1,0.1-0.3,0.1-0.5c-0.1-0.2-0.2-0.3-0.4-0.3l-8.6-2.1c-0.1,0-0.2,0-0.3,0C56.8,100.8,56.6,100.9,56.6,101.1"/>
				</g>
				<g id="Stroke-127">
					<path class="st5" d="M200.3,160.2c0,0-0.3-1.8-1.1-4.8l1.4-0.4c0.8,3.1,1.1,4.9,1.1,5L200.3,160.2z M198.4,152.5
						c-0.5-1.5-1-3.1-1.6-4.7l1.4-0.5c0.6,1.6,1.2,3.2,1.7,4.8L198.4,152.5z M195.7,145.1c-0.6-1.5-1.3-3-2.1-4.5l1.3-0.7
						c0.7,1.5,1.4,3.1,2.1,4.6L195.7,145.1z M192.3,137.9c-0.8-1.5-1.6-2.9-2.5-4.3l1.3-0.8c0.9,1.4,1.7,2.9,2.5,4.4L192.3,137.9z
						 M188.2,131.1c-0.9-1.4-1.8-2.7-2.8-4.1l1.2-0.9c1,1.4,2,2.7,2.9,4.1L188.2,131.1z M183.6,124.6c-1-1.3-2.1-2.6-3.2-3.8l1.1-1
						c1.1,1.3,2.2,2.6,3.2,3.9L183.6,124.6z M178.5,118.6c-1.1-1.2-2.3-2.4-3.5-3.5l1-1.1c1.2,1.2,2.4,2.4,3.5,3.6L178.5,118.6z
						 M172.8,113c-1.2-1.1-2.5-2.2-3.8-3.2l1-1.2c1.3,1.1,2.6,2.2,3.8,3.3L172.8,113z M166.7,107.9c-1.3-1-2.6-2-4-2.9l0.9-1.2
						c1.4,1,2.7,2,4.1,3L166.7,107.9z M160.3,103.3c-1.4-0.9-2.8-1.8-4.2-2.6l0.8-1.3c1.4,0.9,2.9,1.7,4.3,2.7L160.3,103.3z
						 M153.5,99.2c-1.4-0.8-2.9-1.6-4.4-2.3l0.7-1.3c1.5,0.7,3,1.5,4.5,2.3L153.5,99.2z M146.4,95.6c-1.5-0.7-3-1.4-4.5-2l0.6-1.4
						c1.5,0.6,3.1,1.3,4.6,2L146.4,95.6z"/>
				</g>
				<g id="Fill-129">
					<path class="st6" d="M150,90.8c0,0.3-0.1,0.6-0.4,0.6l-7.9,1.3l4.6,6.6c0.2,0.2,0.1,0.6-0.1,0.7c-0.2,0.2-0.6,0.1-0.7-0.1
						l-5-7.3c-0.1-0.1-0.1-0.3-0.1-0.5c0.1-0.2,0.2-0.3,0.4-0.3l8.7-1.5c0.1,0,0.2,0,0.3,0C149.8,90.5,149.9,90.6,150,90.8"/>
				</g>
				<g id="Stroke-131">
					<path class="st5" d="M110.8,246.3h-0.3v-1.5h0.3c1.5,0,3.1,0,4.6-0.1l0.1,1.5C113.9,246.2,112.4,246.3,110.8,246.3z
						 M107.5,246.2c-1.7,0-3.4-0.1-5-0.2l0.1-1.5c1.6,0.1,3.3,0.2,5,0.2L107.5,246.2z M118.5,246l-0.1-1.5c1.7-0.1,3.3-0.2,5-0.4
						l0.2,1.5C121.9,245.8,120.2,245.9,118.5,246z M99.4,245.8c-1.6-0.1-3.3-0.3-5-0.5l0.2-1.5c1.7,0.2,3.3,0.4,4.9,0.5L99.4,245.8z
						 M126.5,245.3l-0.2-1.5c1.6-0.2,3.3-0.5,4.9-0.7l0.3,1.5C129.9,244.8,128.2,245.1,126.5,245.3z M91.4,244.9
						c-1.6-0.2-3.3-0.5-5-0.8l0.3-1.5c1.6,0.3,3.3,0.5,4.9,0.8L91.4,244.9z M134.5,244l-0.3-1.5c1.6-0.3,3.2-0.7,4.8-1.1l0.4,1.5
						C137.8,243.2,136.1,243.6,134.5,244z M83.5,243.6c-1.6-0.3-3.3-0.7-4.9-1l0.3-1.5c1.6,0.4,3.3,0.7,4.9,1L83.5,243.6z
						 M142.3,242.1l-0.4-1.4c1.6-0.5,3.2-0.9,4.7-1.5l0.5,1.4C145.5,241.1,143.9,241.6,142.3,242.1z M75.6,241.9
						c-1.6-0.4-3.3-0.8-4.9-1.2l0.4-1.4c1.6,0.4,3.2,0.8,4.8,1.2L75.6,241.9z M67.9,239.8c-1.6-0.5-3.2-1-4.8-1.5l0.5-1.4
						c1.6,0.5,3.2,1,4.8,1.5L67.9,239.8z M149.9,239.6l-0.5-1.4c1.5-0.6,3.1-1.2,4.6-1.8l0.6,1.4C153.1,238.3,151.5,239,149.9,239.6
						z M60.2,237.4c-1.6-0.6-3.2-1.1-4.7-1.7l0.5-1.4c1.5,0.6,3.1,1.1,4.7,1.7L60.2,237.4z M52.7,234.6c-2.1-0.8-3.7-1.5-4.6-2
						l0.6-1.4c0.9,0.4,2.5,1.1,4.6,2L52.7,234.6z"/>
				</g>
				<g id="Fill-133">
					<path class="st6" d="M53.3,238.9c0.2-0.2,0.3-0.5,0.1-0.7l-4.9-6.3l7.8-1.8c0.3-0.1,0.5-0.3,0.4-0.6c-0.1-0.3-0.3-0.5-0.6-0.4
						l-8.6,2c-0.2,0-0.3,0.2-0.4,0.3c-0.1,0.2,0,0.4,0.1,0.5l5.5,7c0.1,0.1,0.1,0.1,0.2,0.2C53,239,53.2,239,53.3,238.9"/>
				</g>
				<g id="Stroke-135">
					<path class="st5" d="M108.3,234c-1.7,0-3.4,0-5-0.1l0.1-1.5c1.7,0.1,3.3,0.1,5,0.1L108.3,234z M111.3,234l0-1.5
						c1.7,0,3.3-0.1,5-0.2l0.1,1.5C114.7,233.9,113,234,111.3,234z M100.3,233.8c-1.7-0.1-3.3-0.2-5-0.4l0.1-1.5
						c1.7,0.1,3.3,0.3,5,0.4L100.3,233.8z M119.4,233.7l-0.1-1.5c1.7-0.1,3.3-0.3,4.9-0.5l0.2,1.5
						C122.7,233.4,121,233.5,119.4,233.7z M92.3,233.1c-1.6-0.2-3.3-0.4-5-0.6l0.2-1.5c1.6,0.2,3.3,0.4,4.9,0.6L92.3,233.1z
						 M127.4,232.8l-0.2-1.5c1.6-0.2,3.3-0.5,4.9-0.8l0.3,1.5C130.7,232.3,129,232.6,127.4,232.8z M84.3,232.1
						c-1.6-0.3-3.3-0.5-5-0.9l0.3-1.5c1.6,0.3,3.3,0.6,4.9,0.8L84.3,232.1z M135.3,231.4L135,230c1.6-0.3,3.3-0.7,4.8-1.1l0.4,1.5
						C138.6,230.7,136.9,231.1,135.3,231.4z M76.4,230.6c-1.6-0.3-3.3-0.7-4.9-1.1l0.3-1.5c1.6,0.4,3.2,0.7,4.9,1.1L76.4,230.6z
						 M143.1,229.5l-0.4-1.4c1.6-0.4,3.2-0.9,4.7-1.5l0.5,1.4C146.3,228.6,144.7,229.1,143.1,229.5z M68.5,228.8
						c-1.7-0.4-3.3-0.9-4.9-1.3l0.4-1.4c1.6,0.5,3.2,0.9,4.8,1.3L68.5,228.8z M150.7,227l-0.5-1.4c1.5-0.6,3.1-1.2,4.6-1.8l0.6,1.4
						C153.9,225.8,152.3,226.5,150.7,227z M60.8,226.6c-3-1-4.7-1.6-4.8-1.6l0.5-1.4c0,0,1.7,0.7,4.7,1.6L60.8,226.6z M158.2,224
						l-0.6-1.4c1-0.5,2-0.9,2.9-1.4l0.7,1.3C160.2,223,159.2,223.5,158.2,224z"/>
				</g>
				<g id="Fill-137">
					<path class="st6" d="M160.4,227.5c-0.2-0.2-0.3-0.5-0.2-0.7l4.2-6.8l-8-0.9c-0.3,0-0.5-0.3-0.5-0.6c0-0.3,0.3-0.5,0.6-0.5
						l8.8,1c0.2,0,0.3,0.1,0.4,0.3c0.1,0.2,0.1,0.4,0,0.5l-4.7,7.5c-0.1,0.1-0.1,0.2-0.2,0.2C160.7,227.6,160.5,227.6,160.4,227.5"
						/>
				</g>
			</g>
		</g>
	</g>
</g>
</svg>
