<svg xmlns="http://www.w3.org/2000/svg" viewBox="0 0 362.28 288.27"><defs><style>.cls-1{fill:#7ac8d6;opacity:0.39;isolation:isolate;}.cls-2{fill:#337782;}.cls-3{opacity:0.5;}.cls-4{fill:#fabf62;}.cls-5{fill:#339cb6;}</style></defs><title>ecosystem</title><g id="Layer_2" data-name="Layer 2"><g id="pic"><g id="ecosystem_main" data-name="ecosystem main"><path id="Shape" class="cls-1" d="M181.73,117.28c7.67-5.64,16.88-7.23,21.49-5.1.61,5.1-3.72,13.46-11.39,19.09s-16.88,7.23-21.49,5.1C169.73,131.27,174.06,122.91,181.73,117.28Z"/><path id="Shape-2" data-name="Shape" class="cls-1" d="M158.83,101.28c-7.67-5.64-16.88-7.23-21.49-5.1-.61,5.1,3.72,13.46,11.39,19.09s16.88,7.23,21.49,5.1C170.83,115.27,166.49,106.91,158.83,101.28Z"/><path id="Shape-3" data-name="Shape" class="cls-1" d="M162.28,80.77c0-9.55,4.34-18,9-20.5,4.66,2.49,9,10.95,9,20.5s-4.34,18-9,20.5C166.62,98.79,162.28,90.33,162.28,80.77Z"/><path id="Shape-4" data-name="Shape" class="cls-2" d="M132.78,252.27a2.5,2.5,0,1,0,2.5,2.5A2.5,2.5,0,0,0,132.78,252.27Z"/><path id="Shape-5" data-name="Shape" class="cls-2" d="M202.28,236.27a2,2,0,1,0,2,2A2,2,0,0,0,202.28,236.27Z"/><path id="Shape-6" data-name="Shape" class="cls-2" d="M232.78,224.27a2.5,2.5,0,1,0,2.5,2.5A2.5,2.5,0,0,0,232.78,224.27Z"/><path id="Shape-7" data-name="Shape" class="cls-2" d="M238.78,250.27a1.51,1.51,0,0,0-1.39.93,1.5,1.5,0,1,0,1.39-.93Z"/><path id="Shape-8" data-name="Shape" class="cls-2" d="M218.78,268.27a2.5,2.5,0,1,0,2.5,2.5A2.5,2.5,0,0,0,218.78,268.27Z"/><path id="Shape-9" data-name="Shape" class="cls-2" d="M208.28,257.27a2,2,0,1,0,2,2A2,2,0,0,0,208.28,257.27Z"/><path id="Shape-10" data-name="Shape" class="cls-2" d="M153.78,272.27a2.5,2.5,0,1,0,2.5,2.5A2.5,2.5,0,0,0,153.78,272.27Z"/><path id="Shape-11" data-name="Shape" class="cls-2" d="M185.28,284.27a2,2,0,1,0,2,2,2,2,0,0,0-2-2Z"/><path id="Shape-12" data-name="Shape" class="cls-2" d="M132.28,274.27a2,2,0,1,0,2,2A2,2,0,0,0,132.28,274.27Z"/><path id="Shape-13" data-name="Shape" class="cls-2" d="M175.78,267.27a2.5,2.5,0,1,0,2.5,2.5A2.5,2.5,0,0,0,175.78,267.27Z"/><path id="Shape-14" data-name="Shape" class="cls-2" d="M218.78,236.27a2.5,2.5,0,1,0,2.5,2.5A2.5,2.5,0,0,0,218.78,236.27Z"/><path id="Shape-15" data-name="Shape" class="cls-2" d="M114.77,221.27a2.5,2.5,0,1,0,2.51,2.5,2.51,2.51,0,0,0-2.51-2.5Z"/><path id="Shape-16" data-name="Shape" class="cls-2" d="M107.28,228.27a2,2,0,1,0,2,2A2,2,0,0,0,107.28,228.27Z"/><path id="Shape-17" data-name="Shape" class="cls-2" d="M183.71,203.23h-3c-2.07,0-5.21,0-8.58,0a3,3,0,0,1-2-.66,2.5,2.5,0,0,1-.79-1.92.2.2,0,0,1,0-.11,4.91,4.91,0,0,1,0-.67.35.35,0,0,0-.13-.3.32.32,0,0,0-.21-.08H169a2.21,2.21,0,0,1-.76.13,3.48,3.48,0,0,1-1.24-.26,5.07,5.07,0,0,1-1-.59,1,1,0,0,1-.29-.24l-.07-.08c-.92-1.29-2.41-4.06-4-7-1.7-3.09-3.53-6.58-4.95-8.72a6.58,6.58,0,0,1-1.13-2.65,4.92,4.92,0,0,1,.53-3c.57-1.15,1.81-3.24,3.5-5.89.73-1.15,1.53-2.41,2.41-3.74a.32.32,0,0,0,0-.37.32.32,0,0,0-.28-.15h-.08c-1.2.26-2.3.53-3.29.84s-2.22.7-3.61,1.23a18.67,18.67,0,0,0-2.49,1.14c-.71.42-3.14,2.21-5.94,4.27-3.94,2.9-8.81,6.48-10.09,7a11.78,11.78,0,0,1-4.71,1.1,6.39,6.39,0,0,1-2.72-.54,4.4,4.4,0,0,1-1.88-1.64,3.84,3.84,0,0,1-.54-2.36c.14-1.77,1.35-3.52,3.39-4.93,1.82-1.25,3.81-2.84,5.9-4.52a109,109,0,0,1,9-6.74.31.31,0,0,0,.12-.42.34.34,0,0,0-.3-.19h-.1c-2.47.76-5.4,1.68-6.22,1.79a10.87,10.87,0,0,1-2,.19,6.16,6.16,0,0,1-4-1.18,3.5,3.5,0,0,1-1.19-1.69,3.27,3.27,0,0,1,.07-2A6.1,6.1,0,0,1,135,154.9l3-1.13c4.92-1.89,12.35-4.75,19.15-6.07a31.19,31.19,0,0,1,5.63-.42c3.94,0,8.71.41,13.76.84h.12l4.78.4c.22,0,.9,0,1.59.07h34a.37.37,0,0,0,.24-.1.36.36,0,0,0,.09-.24v-1.74a3.28,3.28,0,0,1,3.26-3.24h141.7v2.12H220.58a1.12,1.12,0,0,0-1.12,1.12v31.82a1.06,1.06,0,0,0,.32.78,1.16,1.16,0,0,0,.85.34h96v2.11H220.62a3.26,3.26,0,0,1-3.26-3.23v-1.76a.34.34,0,0,0-.1-.23.32.32,0,0,0-.24-.09h-5.23c-2.72,0-3.46,2.52-3.86,3.86v.17l-.05.15c-3.21,10.65-9.23,14.8-16.21,19.6L190,201.2a11.9,11.9,0,0,1-2.38,1.29,10.16,10.16,0,0,1-3.73.78Zm-1-8.48a17.77,17.77,0,0,0-8.25,1.69c-1.89,1-2.91,2.41-2.95,4v.11a.43.43,0,0,0,.21.43,1.76,1.76,0,0,0,.46.06c3.39,0,6.52.05,8.6.05h3a8,8,0,0,0,2.94-.61,10.22,10.22,0,0,0,1.95-1.06s1.28-.84,1.7-1.2c6.67-4.59,12.41-8.53,15.41-18.52l.09-.28c.64-2.17,1.59-5.41,5.9-5.41H217a.37.37,0,0,0,.24-.1.36.36,0,0,0,.09-.24V150.94a.34.34,0,0,0-.33-.34H184.72l-1.75,0c-.8,0-1.52-.05-1.69-.06l-4.92-.41c-5-.43-9.78-.85-13.58-.85a28.61,28.61,0,0,0-5.15.38c-6.7,1.3-14,4.11-18.85,6h-.08l-2.93,1.12a4.17,4.17,0,0,0-2.66,2.1,1.27,1.27,0,0,0,0,.77,1.44,1.44,0,0,0,.5.69,4,4,0,0,0,2.54.7,9.68,9.68,0,0,0,1.7-.15c.92-.16,5-1.42,8.85-2.63,2.93-.91,5.63-1.76,6.44-2,.43-.1,1.44-.31,2.48-.5.67-.13,1.35-.25,1.89-.33l1.7-.61c2.68-.95,5.69-1.92,8.73-2.81l1.65-.47,1.64-.46a1.08,1.08,0,0,1,1.3.74,1,1,0,0,1-.1.8,1.05,1.05,0,0,1-.64.49l-1.62.46-1.64.46c-3,.84-5.87,1.81-8.61,2.78s-5,1.88-7,2.76c-6.32,2.84-11.42,6.94-15.93,10.56-2.09,1.68-4.06,3.25-6,4.61a5.18,5.18,0,0,0-2.54,3.36,1.78,1.78,0,0,0,.24,1.11,2.14,2.14,0,0,0,1,.85,4.44,4.44,0,0,0,1.84.36,9.65,9.65,0,0,0,3.84-.94c1-.45,5.6-3.82,9.65-6.78,2.72-2,5.3-3.9,6.16-4.41a20.71,20.71,0,0,1,2.79-1.29c1.43-.56,2.89-1,3.79-1.29,1.11-.32,2.26-.62,3.39-.84.85-.19,1.81-.37,2.79-.54a.39.39,0,0,0,.23-.15l1.17-1.68A1.1,1.1,0,0,1,166,162a1.06,1.06,0,0,1,.79.17,1.11,1.11,0,0,1,.45.67,1,1,0,0,1-.17.79l-1.46,2.15a.61.61,0,0,1-.07.1c-1.49,2.22-2.94,4.43-4.18,6.4-1.7,2.62-2.87,4.65-3.4,5.71a2.84,2.84,0,0,0-.32,1.69,4.38,4.38,0,0,0,.79,1.81c1.47,2.22,3.39,5.76,5,8.88,1.5,2.8,2.92,5.44,3.78,6.66a.28.28,0,0,0,.15.13l.36.14a.6.6,0,0,0,.33.16.65.65,0,0,0,.22-.08c3.3-2.79,0-9.85-1.48-12.88-.23-.48-.41-.84-.49-1.06a5.6,5.6,0,0,1-.35-2.89,5.71,5.71,0,0,1,1.17-2.69,15.18,15.18,0,0,1,5.66-4.06,18.75,18.75,0,0,1,7.26-1.68,12.13,12.13,0,0,1,5.95,2,12.73,12.73,0,0,1,3.8,3.69,10.12,10.12,0,0,1,1.7,5.62,15.34,15.34,0,0,1-2.8,8.23,6.39,6.39,0,0,1-2.54,2.21,7.9,7.9,0,0,1-3.4.84Zm-2.63-20.47a16.85,16.85,0,0,0-6.4,1.51,13.42,13.42,0,0,0-4.88,3.47,3.49,3.49,0,0,0-.71,1.68,3.58,3.58,0,0,0,.23,1.83c.08.22.23.53.43.94,1.13,2.39,3.47,7.34,3,11.37a.33.33,0,0,0,.17.33.34.34,0,0,0,.17.05.37.37,0,0,0,.2-.07,11.51,11.51,0,0,1,1.17-.73,20.05,20.05,0,0,1,9.27-2h.06a5.56,5.56,0,0,0,2.47-.6,4.25,4.25,0,0,0,1.7-1.47,13.23,13.23,0,0,0,2.46-7.09A8.12,8.12,0,0,0,188,179a10.37,10.37,0,0,0-3.17-3.05A10,10,0,0,0,180.06,174.28Z"/><path id="Shape-18" data-name="Shape" class="cls-2" d="M195.66,116.5a.89.89,0,0,1,.76-.21,1,1,0,0,1,.67.47,1.25,1.25,0,0,1,.17.87,1.18,1.18,0,0,1-.4.77l-2,1.65a.86.86,0,0,1-.6.22,1,1,0,0,1-.81-.48,1.35,1.35,0,0,1-.19-.88,1.24,1.24,0,0,1,.41-.77Z"/><path id="Shape-19" data-name="Shape" class="cls-2" d="M180.14,234.83l-9.78-21.75a.29.29,0,0,1,0-.13V175.27a4.74,4.74,0,0,0-2.14,2V213a.29.29,0,0,1,0,.13l-4.84,10.74a1.06,1.06,0,0,0,.1,1.07,1.07,1.07,0,0,0,1,.42,1.06,1.06,0,0,0,.86-.65l3.66-8.14a.35.35,0,0,1,.63,0l8.62,19.15a1.08,1.08,0,0,0,1.39.52,1,1,0,0,0,.56-1.36Z"/><path id="Shape-20" data-name="Shape" class="cls-2" d="M139.4,105.59a34,34,0,0,0,20.94,15,23.9,23.9,0,0,0,5.45.66,15.91,15.91,0,0,0,3.51-.36h.08a.31.31,0,0,1,.21.07.3.3,0,0,1,.13.26v11.42a10.43,10.43,0,0,0,0,2.09v11.51a4.09,4.09,0,0,1,2.14,0v-9.61a.37.37,0,0,1,.13-.27.4.4,0,0,1,.21-.07h.08a15.34,15.34,0,0,0,3.51.37,24.92,24.92,0,0,0,5.45-.66,34,34,0,0,0,20.94-15c2.27-3.73,3.42-7.5,3-10.36a1,1,0,0,0-.61-.84,13.36,13.36,0,0,0-5.45-1,24.46,24.46,0,0,0-5.45.65,34,34,0,0,0-20.93,15l-.26.43a.35.35,0,0,1-.3.17h-.09a.35.35,0,0,1-.25-.33v-5.38a10.53,10.53,0,0,0,0-2.1V100.83a.33.33,0,0,1,.15-.28,18.23,18.23,0,0,0,6-8.07,33.15,33.15,0,0,0,0-25.57c-1.7-4-4.14-7.08-6.67-8.49a1.08,1.08,0,0,0-.55-.15,1,1,0,0,0-.51.14c-2.56,1.4-5,4.49-6.7,8.5a33.15,33.15,0,0,0,0,25.57,18.68,18.68,0,0,0,6,8.07.31.31,0,0,1,.15.27v8.53a.35.35,0,0,1-.26.33h-.08a.39.39,0,0,1-.3-.17l-.26-.43a34,34,0,0,0-20.93-15,24.32,24.32,0,0,0-5.45-.65,13.39,13.39,0,0,0-5.45,1,1.06,1.06,0,0,0-.61.84C136,98.09,137.13,101.86,139.4,105.59ZM172,131.84a19.41,19.41,0,0,1,2.56-6.25,31.93,31.93,0,0,1,19.63-14.07,22.23,22.23,0,0,1,5-.61,12,12,0,0,1,3.72.51.34.34,0,0,1,.23.32,16.64,16.64,0,0,1-2.79,8.17A31.89,31.89,0,0,1,180.75,134a22.23,22.23,0,0,1-5,.61,13.79,13.79,0,0,1-1.82-.12.35.35,0,0,1-.29-.26.36.36,0,0,1,.13-.36l16.8-12.06a1.06,1.06,0,0,0,.43-.68,1.11,1.11,0,0,0-.19-.79,1.05,1.05,0,0,0-.86-.44,1.07,1.07,0,0,0-.62.2l-16.81,12.07a.32.32,0,0,1-.19.07.31.31,0,0,1-.19-.06A.34.34,0,0,1,172,131.84Zm-2.35-49.65,0,15a.32.32,0,0,1-.22.32.24.24,0,0,1-.12,0,.33.33,0,0,1-.25-.1,19.94,19.94,0,0,1-3.59-5.74,31.3,31.3,0,0,1,0-23.93,16.89,16.89,0,0,1,5-7,.36.36,0,0,1,.2-.06.39.39,0,0,1,.21.06,16.89,16.89,0,0,1,5.05,7,31.3,31.3,0,0,1,0,23.93,19.76,19.76,0,0,1-3.61,5.76.33.33,0,0,1-.25.11.35.35,0,0,1-.24-.1.37.37,0,0,1-.1-.24l0-15a1.05,1.05,0,0,0-.51-1,1.07,1.07,0,0,0-1.12,0,1,1,0,0,0-.5,1ZM138.44,96.35a.32.32,0,0,1,.23-.32,12,12,0,0,1,3.72-.52,21.59,21.59,0,0,1,5,.62A31.84,31.84,0,0,1,167,110.19a19.51,19.51,0,0,1,2.56,6.25.35.35,0,0,1-.14.35.26.26,0,0,1-.19,0,.36.36,0,0,1-.2-.06l-21.77-15.64a1.06,1.06,0,0,0-1.43.18,1,1,0,0,0-.25.84,1,1,0,0,0,.42.69l21.82,15.6a.35.35,0,0,1,.13.36.33.33,0,0,1-.29.24,12.27,12.27,0,0,1-1.82.11,22.14,22.14,0,0,1-5-.61,31.9,31.9,0,0,1-19.58-14.07,16.29,16.29,0,0,1-2.79-8.15Z"/><g id="Group" class="cls-3"><path id="Shape-21" data-name="Shape" class="cls-4" d="M59.18,39.27a16.43,16.43,0,0,0-32.71,1.06,16.13,16.13,0,0,0,14.86,16.4A22.72,22.72,0,0,1,59.18,39.27Z"/></g><path id="Shape-22" data-name="Shape" class="cls-5" d="M84.27,63.27H45.32a1,1,0,0,1-1-1A20,20,0,0,1,57.61,43.54a20.89,20.89,0,0,1,22.67,5.61,1,1,0,0,1-.1,1.43,1.06,1.06,0,0,1-1.48-.1,18.74,18.74,0,0,0-19.86-5.22,18,18,0,0,0-12.45,16H84.24a1,1,0,1,1,0,2Z"/><g id="Group-2" data-name="Group" class="cls-3"><path id="Shape-23" data-name="Shape" class="cls-5" d="M34.81,43.14a1.27,1.27,0,0,1-.88-.36,1.3,1.3,0,0,1-.37-.89A10.49,10.49,0,0,1,44,31.42a1.25,1.25,0,0,1,0,2.49,8,8,0,0,0-8,8A1.25,1.25,0,0,1,34.81,43.14Z"/></g><g id="Group-3" data-name="Group" class="cls-3"><path id="Shape-24" data-name="Shape" class="cls-5" d="M43.83,17.68a1.35,1.35,0,0,1-1.45-1.2V1.31A1.16,1.16,0,0,1,43.07.18a1.72,1.72,0,0,1,1.53,0,1.15,1.15,0,0,1,.69,1.13V16.48a1.08,1.08,0,0,1-.43.85A1.59,1.59,0,0,1,43.83,17.68Z"/></g><g id="Group-4" data-name="Group" class="cls-3"><path id="Shape-25" data-name="Shape" class="cls-5" d="M16.28,45.52H1.11A1.37,1.37,0,0,1,0,44.07a1.39,1.39,0,0,1,1.11-1.46H16.28a1.19,1.19,0,0,1,1.13.69,1.72,1.72,0,0,1,0,1.53A1.16,1.16,0,0,1,16.28,45.52Z"/></g><g id="Group-5" data-name="Group" class="cls-3"><path id="Shape-26" data-name="Shape" class="cls-5" d="M26.22,26.7a1.28,1.28,0,0,1-.89-.37L13.86,14.86A1.28,1.28,0,0,1,15.67,13L27.14,24.51a1.28,1.28,0,0,1,0,1.82A1.27,1.27,0,0,1,26.22,26.7Z"/></g><g id="Group-6" data-name="Group" class="cls-3"><path id="Shape-27" data-name="Shape" class="cls-5" d="M14.69,74.54a1.2,1.2,0,0,1-.85-.36,1.27,1.27,0,0,1-.36-.88,1.25,1.25,0,0,1,.36-.88L24.91,61.35a1.24,1.24,0,0,1,1.7,1.76L15.55,74.18A1.2,1.2,0,0,1,14.69,74.54ZM63,26.19a1.23,1.23,0,0,1-.85-.35,1.27,1.27,0,0,1-.36-.88,1.25,1.25,0,0,1,.36-.88L73.26,13a1.24,1.24,0,0,1,1.23-.39A1.25,1.25,0,0,1,75,14.77L63.94,25.84A1.24,1.24,0,0,1,63,26.19Z"/></g><g id="Group-7" data-name="Group" class="cls-3"><path id="Shape-28" data-name="Shape" class="cls-5" d="M37.85,50.44a1.6,1.6,0,0,1-.32-3.17h.32a1.6,1.6,0,0,1,1.42.85,1.59,1.59,0,0,1-.08,1.64,1.54,1.54,0,0,1-1,.69h-.34Z"/></g><path id="Shape-29" data-name="Shape" class="cls-5" d="M123.59,116.3a.67.67,0,0,1,.09-.75.77.77,0,0,1,1.33.27l.07.18h.26a4.93,4.93,0,0,1,2.21.46.7.7,0,0,1,.35,1,.76.76,0,0,1-1,.34,3.36,3.36,0,0,0-1.29-.32l.88,2.29c.25,0,.49,0,.74,0a3.58,3.58,0,0,1,2.15.91,2.6,2.6,0,0,1,.88,1.67,2,2,0,0,1,0,.6,3.15,3.15,0,0,1-.09.42,3.32,3.32,0,0,1-1.59,1.79l.08.21a.71.71,0,0,1-.46.91.76.76,0,0,1-1-.43l-.08-.19a6.11,6.11,0,0,1-1.48,0,9.12,9.12,0,0,1-1-.21.71.71,0,0,1-.44-.87.76.76,0,0,1,.87-.5,3.47,3.47,0,0,0,.78.15,3.57,3.57,0,0,0,.8,0l-1.18-3.1a4.28,4.28,0,0,1-1.76-.41,2.43,2.43,0,0,1-1.43-2,.49.49,0,0,0,0-.17,2.1,2.1,0,0,1,.22-1,2.77,2.77,0,0,1,1.12-1.13l-.05-.15Zm3.43,4.84,1,2.62a1.73,1.73,0,0,0,.67-.84v-.17a1.41,1.41,0,0,0,0-.29,1.25,1.25,0,0,0-.41-.83,2.1,2.1,0,0,0-1.27-.5Zm-2.12-1.49-.69-1.83a1.34,1.34,0,0,0-.32.39.48.48,0,0,0-.07.31.14.14,0,0,0,0,.09,1,1,0,0,0,.62.88,2.69,2.69,0,0,0,.45.16Z"/><path id="Shape-30" data-name="Shape" class="cls-5" d="M126.72,111a9.82,9.82,0,1,1-3.29.57,10.08,10.08,0,0,1,3.35-.57Zm.06-1.68a11.5,11.5,0,1,0,11.33,9.54A11.52,11.52,0,0,0,126.78,109.27Z"/><path id="Shape-31" data-name="Shape" class="cls-5" d="M199.4,87.25a.8.8,0,1,1,0-1.6h.26a5.59,5.59,0,0,1-.51-2.31,3.17,3.17,0,0,1,.95-2.1,3.3,3.3,0,0,1,1-.7,3,3,0,0,1,1.29-.27,4.08,4.08,0,0,1,2.79,1.29.79.79,0,0,1,0,1.13.82.82,0,0,1-1.14,0,2.56,2.56,0,0,0-1.69-.85,1.34,1.34,0,0,0-.59.13,1.73,1.73,0,0,0-1,1.37,4,4,0,0,0,.41,1.7c.07.21.16.4.22.61h1.73a.8.8,0,1,1,0,1.6h-1.41v.62a3,3,0,0,1-.51,1.37c.35,0,.69.12,1,.19A3.26,3.26,0,0,0,205,89.3a.83.83,0,0,1,1.13.15.79.79,0,0,1,.16.59.73.73,0,0,1-.31.53c-1.33,1-2.67.72-4,.44a3.56,3.56,0,0,0-2.41,0,.81.81,0,0,1-1.13-.18.79.79,0,0,1,.18-1.11,8.6,8.6,0,0,0,1-1,1.78,1.78,0,0,0,.48-.93,4.69,4.69,0,0,0,0-.53Z"/><path id="Shape-32" data-name="Shape" class="cls-5" d="M201.76,75a9.82,9.82,0,1,1-6.94,2.87A9.81,9.81,0,0,1,201.76,75Zm0-1.68a11.51,11.51,0,1,0,8.13,3.35A11.51,11.51,0,0,0,201.76,73.27Z"/><path id="Shape-33" data-name="Shape" class="cls-5" d="M148,63.67a.79.79,0,0,1,.17,1.1.77.77,0,0,1-1.08.18,6.79,6.79,0,0,0-1.38-.8,3.08,3.08,0,0,0-3.46.54L145.29,66a.79.79,0,0,1,.37,1,.77.77,0,0,1-.95.46L141.21,66a3.79,3.79,0,0,0-.18.42l-.09.22,2.88,1.18a.77.77,0,0,1,.43.42.81.81,0,0,1,0,.61.78.78,0,0,1-1,.44l-2.51-1a3.86,3.86,0,0,0,.32,1.38,3.28,3.28,0,0,0,1.82,1.69,6.37,6.37,0,0,0,1.49.37.8.8,0,0,1,.68.47.81.81,0,0,1-.11.83.78.78,0,0,1-.77.28,7.66,7.66,0,0,1-1.82-.49,4.78,4.78,0,0,1-2.67-2.5,5.61,5.61,0,0,1-.46-2.66l-.44-.18a.84.84,0,0,1-.43-.42.81.81,0,0,1,0-.61.78.78,0,0,1,1-.44l.17.07.08-.22c.06-.14.12-.28.19-.42l-.19-.07a.79.79,0,0,1-.42-.42.72.72,0,0,1,0-.61.78.78,0,0,1,1-.45l.48.21a5,5,0,0,1,2.06-1.49,4.74,4.74,0,0,1,3.55.13,7.65,7.65,0,0,1,1.71,1Z"/><path id="Shape-34" data-name="Shape" class="cls-5" d="M142.8,57a9.85,9.85,0,1,1-9.56,9.86A9.84,9.84,0,0,1,142.8,57Zm0-1.65a11.48,11.48,0,1,0,11.38,9.94A11.52,11.52,0,0,0,142.8,55.3Z"/></g></g></g></svg>