<?xml version="1.0" encoding="utf-8"?>
<!-- Generator: Adobe Illustrator 23.0.2, SVG Export Plug-In . SVG Version: 6.00 Build 0)  -->
<svg version="1.1" id="Layer_1" xmlns="http://www.w3.org/2000/svg" xmlns:xlink="http://www.w3.org/1999/xlink" x="0px" y="0px"
	 viewBox="0 0 1612.9 1036.6" style="enable-background:new 0 0 1612.9 1036.6;" xml:space="preserve">
<style type="text/css">
	.st0{fill:#FFFFFF;}
	.st1{opacity:0.39;fill:#7AC8D6;enable-background:new    ;}
	.st2{fill:#337782;}
	.st3{opacity:0.5;}
	.st4{fill:#FABF62;}
	.st5{fill:#339CB6;}
</style>
<title>ecosystem_main</title>
<g id="Page-1">
	<g id="ECOSYSTEM_cn" transform="translate(-336.000000, -177.000000)">
		<g id="ecosystem" transform="translate(336.000000, 177.000000)">
			<path id="Shape" class="st0" d="M1612.2,322.3H947.3c-1,24.1-20.9,43.1-45,43.1c-24.1,0-44-19-45-43.1H705.4
				c-65.4,0-76.4,93.1-123,141c-17.1,17.6-72.9,13.9-110.4,14.4l47.2,474.2h1093V322.3z"/>
			<path class="st0" d="M820,952.3H3c-0.5,0-1-49-1-49.6V523.4c0-12.2,4.8-23.9,13.5-32.6s20.3-13.5,32.6-13.5H774
				c25.4,0,46,20.6,46,46.1V952.3z"/>
			<path class="st1" d="M911.4,259.2c6.3-4.6,13.8-5.8,17.6-4.1c0.5,4.1-3,10.9-9.3,15.4c-6.3,4.5-13.8,5.8-17.6,4.1
				C901.5,270.5,905.1,263.7,911.4,259.2z"/>
			<path id="Shape-2" class="st1" d="M892.6,246.2c-6.3-4.6-13.8-5.8-17.6-4.1c-0.5,4.1,3,10.9,9.3,15.4s13.8,5.8,17.6,4.1
				C902.5,257.5,898.9,250.7,892.6,246.2z"/>
			<path id="Shape-3" class="st1" d="M895,229.3c0-7.9,3.6-14.9,7.5-17c3.9,2.1,7.5,9.1,7.5,17s-3.6,14.9-7.5,17
				C898.6,244.3,895,237.2,895,229.3z"/>
			<path id="Shape-4" class="st2" d="M871,370.3c-1.1,0-2,0.9-2,2c0,1.1,0.9,2,2,2s2-0.9,2-2C873,371.2,872.1,370.3,871,370.3z"/>
			<path id="Shape-5" class="st2" d="M927.5,357.3c-0.8,0-1.5,0.7-1.5,1.5s0.7,1.5,1.5,1.5s1.5-0.7,1.5-1.5S928.3,357.3,927.5,357.3
				z"/>
			<path id="Shape-6" class="st2" d="M953,347.3c-1.1,0-2,0.9-2,2c0,1.1,0.9,2,2,2s2-0.9,2-2c0-0.5-0.2-1-0.6-1.4
				C954,347.5,953.5,347.3,953,347.3z"/>
			<path id="Shape-7" class="st2" d="M958,368.3c-0.4,0-0.8,0.2-0.9,0.6c-0.2,0.4,0,0.9,0.3,1.2s0.8,0.3,1.2,0.1
				c0.4-0.2,0.5-0.7,0.4-1.1S958.4,368.3,958,368.3z"/>
			<path id="Shape-8" class="st2" d="M941,383.3c-1.1,0-2,0.9-2,2c0,1.1,0.9,2,2,2s2-0.9,2-2C943,384.2,942.1,383.3,941,383.3z"/>
			<path id="Shape-9" class="st2" d="M932.5,374.3c-0.8,0-1.5,0.7-1.5,1.5s0.7,1.5,1.5,1.5s1.5-0.7,1.5-1.5S933.3,374.3,932.5,374.3
				z"/>
			<path id="Shape-10" class="st2" d="M888,386.3c-1.1,0-2,0.9-2,2c0,1.1,0.9,2,2,2s2-0.9,2-2C890,387.2,889.1,386.3,888,386.3z"/>
			<path id="Shape-11" class="st2" d="M913.5,396.3c-0.8,0-1.5,0.7-1.5,1.5s0.7,1.5,1.5,1.5s1.5-0.7,1.5-1.5
				S914.3,396.3,913.5,396.3z"/>
			<path id="Shape-12" class="st2" d="M870.5,388.3c-0.8,0-1.5,0.7-1.5,1.5s0.7,1.5,1.5,1.5s1.5-0.7,1.5-1.5
				S871.3,388.3,870.5,388.3z"/>
			<path id="Shape-13" class="st2" d="M906,382.3c-1.1,0-2,0.9-2,2c0,1.1,0.9,2,2,2s2-0.9,2-2C908,383.2,907.1,382.3,906,382.3z"/>
			<path id="Shape-14" class="st2" d="M941,357.3c-1.1,0-2,0.9-2,2c0,1.1,0.9,2,2,2s2-0.9,2-2c0-0.5-0.2-1-0.6-1.4
				C942,357.5,941.5,357.3,941,357.3z"/>
			<path id="Shape-15" class="st2" d="M856,344.3c-1.1,0-2,0.9-2,2c0,1.1,0.9,2,2,2c1.1,0,2-0.9,2-2
				C858,345.2,857.1,344.3,856,344.3z"/>
			<path id="Shape-16" class="st2" d="M849.5,350.3c-0.8,0-1.5,0.7-1.5,1.5s0.7,1.5,1.5,1.5s1.5-0.7,1.5-1.5
				S850.3,350.3,849.5,350.3z"/>
			<path id="Shape-17" class="st2" d="M913.2,329.3h-2.5c-1.7,0-4.3,0-7.1,0c-0.6,0-1.2-0.2-1.6-0.5c-0.4-0.4-0.7-1-0.6-1.6
				c0,0,0-0.1,0-0.1c0-0.2,0-0.4,0-0.5c0-0.1,0-0.2-0.1-0.2c0,0-0.1-0.1-0.2-0.1c-0.2,0.1-0.4,0.1-0.6,0.1c-0.4,0-0.7-0.1-1-0.2
				c-0.3-0.1-0.6-0.3-0.8-0.5c-0.1,0-0.2-0.1-0.2-0.2l-0.1-0.1c-0.8-1.1-2-3.3-3.3-5.7c-1.4-2.5-2.9-5.4-4.1-7.1
				c-0.5-0.6-0.8-1.4-0.9-2.2c-0.1-0.8,0-1.7,0.4-2.4c0.5-0.9,1.5-2.6,2.9-4.8c0.6-0.9,1.3-2,2-3.1c0.1-0.1,0.1-0.2,0-0.3
				c0-0.1-0.1-0.1-0.2-0.1H895c-1,0.2-1.9,0.4-2.7,0.7c-0.8,0.3-1.8,0.6-3,1c-0.7,0.3-1.4,0.6-2,0.9c-0.6,0.3-2.6,1.8-4.9,3.5
				c-3.2,2.4-7.2,5.3-8.3,5.7c-1.2,0.6-2.5,0.9-3.9,0.9c-0.8,0-1.5-0.1-2.2-0.4c-0.6-0.3-1.2-0.8-1.5-1.3c-0.4-0.6-0.5-1.3-0.4-1.9
				c0.1-1.4,1.1-2.9,2.8-4c1.5-1,3.1-2.3,4.9-3.7c2.4-2,4.8-3.8,7.4-5.5c0.1-0.1,0.2-0.2,0.1-0.3c0-0.1-0.1-0.2-0.2-0.2h-0.1
				c-2,0.6-4.4,1.4-5.1,1.5c-0.5,0.1-1.1,0.2-1.6,0.2c-1.2,0.1-2.3-0.3-3.3-1c-0.5-0.4-0.8-0.8-1-1.4c-0.2-0.5-0.1-1.1,0.1-1.6
				c0.6-1.4,1.8-2.4,3.3-2.8l2.5-0.9c4-1.5,10.2-3.9,15.7-5c1.5-0.3,3.1-0.4,4.6-0.3c3.2,0,7.2,0.3,11.3,0.7h0.1l3.9,0.3
				c0.2,0,0.7,0,1.3,0.1h28c0.1,0,0.1,0,0.2-0.1c0-0.1,0.1-0.1,0.1-0.2V283c0-1.5,1.2-2.6,2.7-2.6H1060v1.7H943.5
				c-0.5,0-0.9,0.4-0.9,0.9v26c0,0.2,0.1,0.5,0.3,0.6c0.2,0.2,0.4,0.3,0.7,0.3h78.9v1.7h-78.9c-1.5,0-2.7-1.2-2.7-2.6v-1.4
				c0-0.1,0-0.1-0.1-0.2c-0.1-0.1-0.1-0.1-0.2-0.1h-4.3c-2.2,0-2.8,2.1-3.2,3.2v0.1l0,0.1c-2.6,8.7-7.6,12.1-13.3,16l-1.4,1
				c-0.6,0.4-1.3,0.8-2,1.1c-1,0.4-2,0.6-3.1,0.6L913.2,329.3z M912.3,322.4c-2.3-0.1-4.7,0.4-6.8,1.4c-1.6,0.8-2.4,2-2.4,3.3v0.1
				c0,0.1,0,0.3,0.2,0.4c0.1,0,0.3,0,0.4,0c2.8,0,5.4,0,7.1,0h2.5c0.8,0,1.7-0.2,2.4-0.5c0.6-0.2,1.1-0.5,1.6-0.9c0,0,1.1-0.7,1.4-1
				c5.5-3.7,10.2-7,12.7-15.1l0.1-0.2c0.5-1.8,1.3-4.4,4.9-4.4h4.3c0.1,0,0.1,0,0.2-0.1c0-0.1,0.1-0.1,0.1-0.2v-18.6
				c0-0.2-0.1-0.3-0.3-0.3H914h-1.4c-0.7,0-1.2,0-1.4,0l-4-0.3c-4.1-0.4-8-0.7-11.2-0.7c-1.4,0-2.8,0.1-4.2,0.3
				c-5.5,1.1-11.5,3.4-15.5,4.9h-0.1l-2.4,0.9c-0.9,0.2-1.7,0.9-2.2,1.7c-0.1,0.2-0.1,0.4,0,0.6c0.1,0.2,0.2,0.4,0.4,0.6
				c0.6,0.4,1.3,0.6,2.1,0.6c0.5,0,0.9,0,1.4-0.1c0.8-0.1,4.1-1.2,7.3-2.1c2.4-0.7,4.6-1.4,5.3-1.6c0.4-0.1,1.2-0.3,2-0.4
				c0.6-0.1,1.1-0.2,1.6-0.3l1.4-0.5c2.2-0.8,4.7-1.6,7.2-2.3l1.4-0.4l1.3-0.4c0.5-0.1,0.9,0.2,1.1,0.6c0.1,0.2,0,0.5-0.1,0.7
				c-0.1,0.2-0.3,0.3-0.5,0.4l-1.3,0.4l-1.3,0.4c-2.5,0.7-4.8,1.5-7.1,2.3s-4.1,1.5-5.8,2.3c-5.2,2.3-9.4,5.7-13.1,8.6
				c-1.7,1.4-3.3,2.7-4.9,3.8c-1.1,0.6-1.8,1.6-2.1,2.7c0,0.3,0,0.6,0.2,0.9c0.2,0.3,0.5,0.6,0.8,0.7c0.5,0.2,1,0.3,1.5,0.3
				c1.1,0,2.2-0.3,3.2-0.8c0.8-0.4,4.6-3.1,7.9-5.5c2.2-1.6,4.4-3.2,5.1-3.6c0.7-0.4,1.5-0.8,2.3-1.1c1.2-0.5,2.4-0.8,3.1-1.1
				c0.9-0.3,1.9-0.5,2.8-0.7c0.7-0.2,1.5-0.3,2.3-0.4c0.1,0,0.1-0.1,0.2-0.1l1-1.4c0.1-0.2,0.3-0.3,0.5-0.4c0.2,0,0.5,0,0.6,0.1
				c0.2,0.1,0.3,0.3,0.4,0.5c0,0.2,0,0.5-0.1,0.6l-1.2,1.8c0,0,0,0.1-0.1,0.1c-1.2,1.8-2.4,3.6-3.4,5.2c-1.4,2.1-2.4,3.8-2.8,4.7
				c-0.2,0.4-0.3,0.9-0.3,1.4c0.1,0.5,0.3,1,0.6,1.5c1.2,1.8,2.8,4.7,4.1,7.3c1.2,2.3,2.4,4.4,3.1,5.4c0,0,0.1,0.1,0.1,0.1l0.3,0.1
				c0.1,0.1,0.2,0.1,0.3,0.1c0.1,0,0.1,0,0.2-0.1c2.7-2.3,0-8-1.2-10.5c-0.2-0.4-0.3-0.7-0.4-0.9c-0.3-0.7-0.4-1.6-0.3-2.4
				c0.1-0.8,0.5-1.6,1-2.2c1.3-1.4,2.9-2.6,4.7-3.3c1.9-0.8,3.9-1.3,6-1.4c1.7,0.1,3.4,0.7,4.9,1.6c1.2,0.8,2.3,1.8,3.1,3
				c0.9,1.4,1.4,3,1.4,4.6c-0.1,2.4-0.9,4.7-2.3,6.7c-0.5,0.8-1.2,1.4-2.1,1.8C914.3,322.1,913.3,322.3,912.3,322.4L912.3,322.4z
				 M910.2,305.6c-1.8,0.1-3.6,0.5-5.3,1.2c-1.5,0.6-2.9,1.6-4,2.8c-0.3,0.4-0.5,0.9-0.6,1.4c-0.1,0.5,0,1,0.2,1.5
				c0.1,0.2,0.2,0.4,0.4,0.8c0.9,2,2.9,6,2.5,9.3c0,0.1,0,0.2,0.1,0.3c0,0,0.1,0,0.1,0c0.1,0,0.1,0,0.2-0.1c0.3-0.2,0.6-0.4,1-0.6
				c2.4-1.1,5-1.7,7.6-1.6h0c0.7,0,1.4-0.2,2-0.5c0.6-0.3,1-0.7,1.4-1.2c1.2-1.7,1.9-3.7,2-5.8c0-1.3-0.4-2.6-1.2-3.7
				c-0.7-1-1.6-1.9-2.6-2.5C912.9,306.2,911.6,305.8,910.2,305.6L910.2,305.6z"/>
			<path id="Shape-18" class="st2" d="M922.8,258.5c0.2-0.1,0.4-0.2,0.6-0.2c0.2,0,0.4,0.2,0.5,0.4c0.1,0.2,0.2,0.4,0.1,0.7
				c0,0.2-0.1,0.4-0.3,0.6l-1.5,1.2c-0.1,0.1-0.3,0.2-0.4,0.2c-0.2,0-0.5-0.1-0.6-0.4c-0.1-0.2-0.2-0.4-0.1-0.7
				c0-0.2,0.1-0.4,0.3-0.6L922.8,258.5z"/>
			<path id="Shape-19" class="st2" d="M909.9,356.1l-8-17.8c0,0,0-0.1,0-0.1v-30.9c-0.7,0.3-1.4,0.9-1.8,1.6v29.3c0,0,0,0.1,0,0.1
				l-4,8.8c-0.1,0.3-0.1,0.6,0.1,0.9c0.2,0.3,0.5,0.4,0.8,0.3c0.3,0,0.6-0.2,0.7-0.5l3-6.7c0-0.1,0.1-0.2,0.3-0.2
				c0.1,0,0.2,0.1,0.3,0.2l7.1,15.7c0.2,0.4,0.7,0.6,1.1,0.4c0.2-0.1,0.4-0.2,0.5-0.5C910,356.6,910,356.3,909.9,356.1L909.9,356.1z
				"/>
			<path id="Shape-20" class="st2" d="M876.6,250c3.9,6.2,10.1,10.6,17.3,12.3c1.5,0.4,3,0.5,4.5,0.5c1,0,1.9-0.1,2.9-0.3h0.1
				c0.1,0,0.1,0,0.2,0.1c0.1,0,0.1,0.1,0.1,0.2v9.3c-0.1,0.6-0.1,1.1,0,1.7v9.4c0.6-0.2,1.2-0.2,1.8,0v-7.9c0-0.1,0-0.2,0.1-0.2
				c0.1,0,0.1-0.1,0.2-0.1h0.1c1,0.2,1.9,0.3,2.9,0.3c1.5,0,3-0.2,4.5-0.5c7.2-1.7,13.4-6.1,17.3-12.3c1.9-3.1,2.8-6.1,2.5-8.5
				c0-0.3-0.2-0.6-0.5-0.7c-1.4-0.6-3-0.9-4.5-0.8c-1.5,0-3,0.2-4.5,0.5c-7.2,1.7-13.4,6.1-17.3,12.3l-0.2,0.4
				c-0.1,0.1-0.1,0.1-0.2,0.1h-0.1c-0.1,0-0.2-0.1-0.2-0.3v-4.4c0.1-0.6,0.1-1.1,0-1.7v-13.4c0-0.1,0-0.2,0.1-0.2c2.2-1.7,4-4,5-6.6
				c2.8-6.7,2.8-14.2,0-20.9c-1.4-3.3-3.4-5.8-5.5-6.9c-0.1-0.1-0.3-0.1-0.5-0.1c-0.1,0-0.3,0-0.4,0.1c-2.1,1.1-4.1,3.7-5.5,7
				c-2.8,6.7-2.8,14.2,0,20.9c1,2.6,2.7,4.9,5,6.6c0.1,0,0.1,0.1,0.1,0.2v7c0,0.1-0.1,0.2-0.2,0.3h-0.1c-0.1,0-0.2-0.1-0.2-0.1
				l-0.2-0.4c-3.9-6.2-10.1-10.6-17.3-12.3c-1.5-0.3-3-0.5-4.5-0.5c-1.5,0-3.1,0.2-4.5,0.8c-0.3,0.1-0.5,0.4-0.5,0.7
				C873.8,243.9,874.7,247,876.6,250z M903.5,271.5c0.4-1.8,1.1-3.5,2.1-5.1c3.7-5.8,9.5-9.9,16.2-11.5c1.4-0.3,2.7-0.5,4.1-0.5
				c1,0,2.1,0.1,3.1,0.4c0.1,0,0.2,0.1,0.2,0.3c-0.2,2.4-1,4.7-2.3,6.7c-3.7,5.8-9.5,9.9-16.2,11.5c-1.4,0.3-2.7,0.5-4.1,0.5
				c-0.5,0-1,0-1.5-0.1c-0.1,0-0.2-0.1-0.2-0.2c0-0.1,0-0.2,0.1-0.3l13.9-9.9c0.2-0.1,0.3-0.3,0.4-0.6c0-0.2,0-0.5-0.2-0.6
				c-0.2-0.2-0.4-0.4-0.7-0.4c-0.2,0-0.4,0.1-0.5,0.2l-13.9,9.9c0,0-0.1,0.1-0.2,0.1c-0.1,0-0.1,0-0.2,0
				C903.5,271.7,903.5,271.6,903.5,271.5z M901.6,230.9v12.3c0,0.1-0.1,0.2-0.2,0.3c0,0-0.1,0-0.1,0c-0.1,0-0.2,0-0.2-0.1
				c-1.3-1.4-2.3-3-3-4.7c-2.6-6.3-2.6-13.3,0-19.6c0.9-2.2,2.3-4.2,4.1-5.7c0,0,0.1,0,0.2,0c0.1,0,0.1,0,0.2,0
				c1.9,1.5,3.3,3.5,4.2,5.7c2.6,6.3,2.6,13.3,0,19.6c-0.7,1.7-1.7,3.3-3,4.7c-0.1,0.1-0.1,0.1-0.2,0.1c-0.1,0-0.1,0-0.2-0.1
				c-0.1-0.1-0.1-0.1-0.1-0.2v-12.3c0-0.3-0.1-0.6-0.4-0.8c-0.3-0.2-0.6-0.2-0.9,0C901.6,230.2,901.5,230.6,901.6,230.9L901.6,230.9
				z M875.8,242.5c0-0.1,0.1-0.2,0.2-0.3c1-0.3,2-0.4,3.1-0.4c1.4,0,2.8,0.2,4.1,0.5c6.7,1.6,12.5,5.7,16.2,11.5
				c1,1.6,1.7,3.3,2.1,5.1c0,0.1,0,0.2-0.1,0.3c-0.1,0-0.1,0-0.2,0c-0.1,0-0.1,0-0.2,0l-18-12.8c-0.4-0.3-0.9-0.2-1.2,0.1
				c-0.2,0.2-0.2,0.4-0.2,0.7c0,0.2,0.2,0.4,0.3,0.6l18,12.8c0.1,0.1,0.1,0.2,0.1,0.3c0,0.1-0.1,0.2-0.2,0.2c-0.5,0.1-1,0.1-1.5,0.1
				c-1.4,0-2.8-0.2-4.1-0.5c-6.7-1.6-12.5-5.7-16.2-11.5C876.7,247.1,875.9,244.8,875.8,242.5L875.8,242.5z"/>
			<g id="Group" transform="translate(781.000000, 20.000000)" class="st3">
				<path id="Shape-21" class="st4" d="M29.3,175.8c-0.9-6.9-6.9-12-13.9-11.8s-12.7,5.7-13.1,12.7c-0.1,7,5.2,12.9,12.2,13.4
					C16.2,182.8,22,177.2,29.3,175.8z"/>
			</g>
			<path id="Shape-22" class="st5" d="M831.2,215.3h-32.4c-0.5,0-0.8-0.4-0.8-0.8c0-6.8,4.5-12.9,11-15.2c6.6-2.4,14.1-0.6,18.8,4.5
				c0.1,0.2,0.2,0.4,0.2,0.6c0,0.2-0.1,0.4-0.3,0.6c-0.4,0.3-0.9,0.3-1.2-0.1c-4.1-4.5-10.6-6.1-16.5-4.2c-5.9,1.8-10,7-10.3,13
				h31.4c0.5,0,0.8,0.4,0.8,0.8S831.6,215.3,831.2,215.3L831.2,215.3z"/>
			<g id="Group-2" transform="translate(787.000000, 25.000000)" class="st3">
				<path id="Shape-23" class="st5" d="M3.5,173.6c-0.3,0-0.5-0.1-0.7-0.3c-0.2-0.2-0.3-0.5-0.3-0.8c0-4.9,4-8.8,8.8-8.9
					c0.5,0,1,0.5,1,1.1c0,0.5-0.4,1-1,1.1c-3.7,0-6.8,3-6.8,6.8C4.5,173.1,4.1,173.6,3.5,173.6z"/>
			</g>
			<g id="Group-3" transform="translate(794.000000, 0.000000)" class="st3">
				<path id="Shape-24" class="st5" d="M3.4,178.1c-0.5,0-1-0.4-1.1-1v-12.6c0-0.4,0.2-0.8,0.5-0.9c0.4-0.2,0.8-0.2,1.1,0
					c0.3,0.2,0.5,0.5,0.5,0.9v12.6c0,0.3-0.1,0.5-0.3,0.7C3.9,178,3.7,178.1,3.4,178.1z"/>
			</g>
			<g id="Group-4" transform="translate(759.000000, 34.000000)" class="st3">
				<path id="Shape-25" class="st5" d="M16.6,166H3.8c-0.6-0.1-1-0.6-0.9-1.1c0-0.5,0.4-1,0.9-1.1h12.8c0.4,0,0.8,0.2,1,0.5
					c0.2,0.4,0.2,0.8,0,1.1C17.3,165.8,17,166,16.6,166z"/>
			</g>
			<g id="Group-5" transform="translate(771.000000, 10.000000)" class="st3">
				<path id="Shape-26" class="st5" d="M12.6,175.1c-0.3,0-0.5-0.1-0.7-0.3l-9.2-9.2c-0.4-0.4-0.4-1.1,0-1.5c0.4-0.4,1.1-0.4,1.5,0
					l9.2,9.2c0.2,0.2,0.3,0.5,0.3,0.7c0,0.3-0.1,0.5-0.3,0.7C13.1,175,12.9,175.1,12.6,175.1z"/>
			</g>
			<g id="Group-6" transform="translate(771.000000, 10.000000)" class="st3">
				<path id="Shape-27" class="st5" d="M3.4,214.9c-0.3,0-0.5-0.1-0.7-0.3c-0.2-0.2-0.3-0.5-0.3-0.7c0-0.3,0.1-0.5,0.3-0.7l9.1-9.1
					c0.4-0.3,1-0.2,1.3,0.1c0.3,0.4,0.4,0.9,0.1,1.3l-9.1,9.1C3.9,214.8,3.7,214.9,3.4,214.9z M43.3,175c-0.3,0-0.5-0.1-0.7-0.3
					c-0.2-0.2-0.3-0.5-0.3-0.7c0-0.3,0.1-0.5,0.3-0.7l9.2-9.1c0.3-0.3,0.6-0.4,1-0.3c0.4,0.1,0.7,0.4,0.8,0.8s0,0.8-0.3,1l-9.1,9.1
					C43.8,174.9,43.6,175,43.3,175z"/>
			</g>
			<g id="Group-7" transform="translate(789.000000, 39.000000)" class="st3">
				<path id="Shape-28" class="st5" d="M3.4,165.9c-0.6,0-1.1-0.5-1.2-1.1c-0.1-0.6,0.4-1.2,1-1.3h0.2c0.4,0,0.9,0.2,1.1,0.6
					c0.2,0.4,0.2,0.9-0.1,1.2c-0.2,0.3-0.4,0.5-0.8,0.5L3.4,165.9L3.4,165.9z"/>
			</g>
			<path id="Shape-29" class="st5" d="M863.1,259.2c-0.1-0.2-0.1-0.4,0.1-0.6c0.2-0.2,0.4-0.3,0.7-0.2c0.2,0,0.4,0.2,0.5,0.4
				l0.1,0.1h0.2c0.7,0,1.3,0.1,1.9,0.4c0.2,0.1,0.3,0.2,0.4,0.3s0,0.3,0,0.5c-0.2,0.3-0.6,0.4-0.9,0.3c-0.4-0.2-0.7-0.2-1.1-0.3
				l0.8,1.9c0.2,0,0.4,0,0.6,0c0.7,0,1.4,0.3,1.9,0.7c0.4,0.3,0.7,0.8,0.8,1.4c0,0.2,0,0.3,0,0.5c0,0.1,0,0.2-0.1,0.3
				c-0.3,0.6-0.7,1.1-1.4,1.5l0.1,0.2c0.1,0.1,0,0.3,0,0.4s-0.2,0.2-0.4,0.3c-0.2,0.1-0.4,0.1-0.5,0c-0.2-0.1-0.3-0.2-0.4-0.3
				l-0.1-0.2c-0.4,0-0.9,0-1.3,0c-0.3,0-0.6-0.1-0.9-0.2c-0.3-0.1-0.5-0.4-0.4-0.7c0.1-0.3,0.4-0.5,0.8-0.4c0.2,0.1,0.5,0.1,0.7,0.1
				c0.2,0,0.5,0,0.7,0l-1-2.5c-0.5,0-1.1-0.1-1.5-0.3c-0.7-0.3-1.2-0.9-1.3-1.6c0,0,0-0.1,0-0.1c0-0.3,0.1-0.6,0.2-0.8
				C862.4,259.8,862.8,259.5,863.1,259.2L863.1,259.2L863.1,259.2z M866.1,263.1l0.9,2.1c0.3-0.2,0.5-0.4,0.6-0.7v-0.1
				c0-0.1,0-0.2,0-0.2c0-0.3-0.2-0.5-0.4-0.7C866.9,263.2,866.5,263.1,866.1,263.1L866.1,263.1z M864.3,261.9l-0.6-1.5
				c-0.1,0.1-0.2,0.2-0.3,0.3c-0.1,0.1-0.1,0.2-0.1,0.3c0,0,0,0,0,0.1c0,0.3,0.2,0.6,0.5,0.7C864,261.8,864.1,261.8,864.3,261.9
				L864.3,261.9z"/>
			<path id="Shape-30" class="st5" d="M866.5,254.7c4.2,0,7.7,3.2,8.1,7.4s-2.5,8-6.7,8.7c-4.1,0.7-8.2-1.9-9.2-5.9
				c-1.1-4.1,1.2-8.3,5.1-9.7C864.6,254.9,865.6,254.7,866.5,254.7L866.5,254.7z M866.5,253.4c-4,0-7.6,2.5-8.9,6.2
				c-1.4,3.7-0.2,7.9,2.8,10.5c3.1,2.6,7.4,3,10.8,1c3.5-2,5.3-5.9,4.6-9.8C875.1,256.7,871.1,253.3,866.5,253.4L866.5,253.4z"/>
			<path id="Shape-31" class="st5" d="M926,235c-0.4,0-0.7-0.3-0.7-0.7c0-0.4,0.3-0.7,0.7-0.7h0.2c-0.3-0.6-0.4-1.2-0.4-1.9
				c0-0.6,0.3-1.3,0.8-1.7c0.3-0.2,0.5-0.4,0.9-0.6c0.4-0.2,0.7-0.2,1.1-0.2c0.9,0,1.8,0.4,2.4,1.1c0.1,0.1,0.2,0.3,0.2,0.5
				s-0.1,0.3-0.2,0.5c-0.3,0.3-0.7,0.3-1,0c-0.4-0.4-0.9-0.6-1.5-0.7c-0.2,0-0.4,0-0.5,0.1c-0.5,0.2-0.8,0.6-0.9,1.1
				c0,0.5,0.1,1,0.4,1.4c0.1,0.2,0.1,0.3,0.2,0.5h1.5c0.4,0,0.7,0.3,0.7,0.7c0,0.4-0.3,0.7-0.7,0.7H928v0.5c0,0.4-0.2,0.8-0.4,1.1
				c0.3,0,0.6,0.1,0.9,0.2c0.8,0.3,1.7,0.3,2.4-0.1c0.3-0.2,0.7-0.2,1,0.1c0.1,0.1,0.2,0.3,0.1,0.5c0,0.2-0.1,0.3-0.3,0.4
				c-1.2,0.8-2.3,0.6-3.5,0.4c-0.7-0.2-1.4-0.2-2.1,0c-0.3,0.2-0.8,0.1-1-0.1c-0.1-0.1-0.2-0.3-0.1-0.5s0.1-0.3,0.3-0.4
				c0.3-0.2,0.6-0.5,0.9-0.8c0.2-0.2,0.4-0.5,0.4-0.8c0-0.1,0-0.3,0-0.4L926,235z"/>
			<path id="Shape-32" class="st5" d="M927.5,224.7c3.9,0,7.2,2.7,7.9,6.5s-1.3,7.6-4.9,9c-3.6,1.5-7.7,0.2-9.8-3s-1.7-7.5,1-10.2
				C923.3,225.6,925.3,224.7,927.5,224.7z M927.5,223.4c-4.5,0-8.4,3.2-9.3,7.6c-0.9,4.4,1.5,8.9,5.7,10.6c4.2,1.7,9,0.3,11.5-3.5
				c2.5-3.8,2-8.8-1.2-12C932.4,224.3,930,223.3,927.5,223.4L927.5,223.4z"/>
			<path id="Shape-33" class="st5" d="M882.7,215.4c0.3,0.2,0.3,0.6,0.1,0.9c-0.1,0.1-0.2,0.2-0.4,0.3s-0.3,0-0.5-0.1
				c-0.3-0.3-0.7-0.5-1.1-0.7c-0.9-0.5-2-0.3-2.8,0.4l2.4,1.1c0.3,0.2,0.4,0.5,0.3,0.8c-0.1,0.3-0.4,0.5-0.8,0.4l-2.8-1.2
				c-0.1,0.1-0.1,0.2-0.1,0.3l-0.1,0.2l2.3,1c0.2,0.1,0.3,0.2,0.3,0.3c0.1,0.2,0.1,0.3,0,0.5c-0.1,0.3-0.5,0.5-0.8,0.4l-2-0.8
				c0,0.4,0.1,0.8,0.3,1.1c0.3,0.6,0.8,1.1,1.5,1.4c0.4,0.1,0.8,0.3,1.2,0.3c0.2,0,0.4,0.2,0.5,0.4c0.1,0.2,0.1,0.5-0.1,0.7
				c-0.1,0.2-0.4,0.3-0.6,0.2c-0.5-0.1-1-0.2-1.5-0.4c-0.9-0.4-1.7-1.1-2.1-2c-0.3-0.7-0.4-1.4-0.4-2.2l-0.4-0.1
				c-0.2-0.1-0.3-0.2-0.3-0.3c-0.1-0.2-0.1-0.3,0-0.5c0.1-0.3,0.5-0.5,0.8-0.4l0.1,0.1l0.1-0.2c0-0.1,0.1-0.2,0.2-0.3l-0.2-0.1
				c-0.2-0.1-0.3-0.2-0.3-0.3c-0.1-0.2-0.1-0.3,0-0.5c0.1-0.3,0.5-0.5,0.8-0.4l0.4,0.2c0.4-0.5,1-1,1.6-1.2c0.9-0.3,1.9-0.3,2.8,0.1
				C881.9,214.9,882.3,215.1,882.7,215.4L882.7,215.4z"/>
			<path id="Shape-34" class="st5" d="M879.5,209.7c3.3-0.1,6.4,1.8,7.7,4.8c1.3,3,0.7,6.6-1.6,8.9c-2.3,2.4-5.8,3.1-8.9,1.9
				c-3.1-1.2-5.1-4.2-5.1-7.5C871.6,213.5,875.1,209.8,879.5,209.7z M879.5,208.4c-4,0-7.5,2.5-8.9,6.2c-1.4,3.7-0.3,7.9,2.6,10.5
				c3,2.6,7.3,3.1,10.8,1.2c3.5-1.9,5.4-5.7,4.9-9.6C888.3,211.9,884.3,208.3,879.5,208.4L879.5,208.4z"/>
		</g>
	</g>
</g>
</svg>
