<?xml version="1.0" encoding="utf-8"?>
<!-- Generator: Adobe Illustrator 23.0.1, SVG Export Plug-In . SVG Version: 6.00 Build 0)  -->
<svg version="1.1" id="Layer_1" xmlns="http://www.w3.org/2000/svg" xmlns:xlink="http://www.w3.org/1999/xlink" x="0px" y="0px"
	 viewBox="0 0 375 190" style="enable-background:new 0 0 375 190;" xml:space="preserve">
<style type="text/css">
	.st0{fill:#FFFFFF;}
	.st1{opacity:0.39;fill-rule:evenodd;clip-rule:evenodd;fill:#47A5B5;enable-background:new    ;}
	.st2{fill-rule:evenodd;clip-rule:evenodd;fill:#47A5B5;}
	.st3{fill:#47A5B5;}
	.st4{fill:#339CB6;}
</style>
<title>ecosystem_main@1x</title>
<desc>Created with Sketch.</desc>
<g id="en-version">
	<g id="ecosystem-mobile" transform="translate(0.000000, -617.000000)">
		<g id="ecosystem_main" transform="translate(-3.000000, 617.000000)">
			<path id="Shape" class="st0" d="M382.6,127H241.8c-0.9,20.3-17.5,36.2-37.8,36.2s-37-16-37.8-36.2H0.7v62.7h381.9V127z"/>
			<path class="st1" d="M211.5,50.8c6.3-4.5,13.8-5.8,17.5-4.1c0.5,4.1-3,10.9-9.3,15.4c-6.3,4.5-13.8,5.8-17.5,4.1
				C201.7,62,205.3,55.3,211.5,50.8z"/>
			<path class="st1" d="M192.9,38.2c-6.3-4.5-13.8-5.8-17.5-4.1c-0.5,4.1,3,10.9,9.3,15.4c6.3,4.5,13.8,5.8,17.5,4.1
				C202.7,49.5,199.2,42.7,192.9,38.2z"/>
			<path class="st1" d="M194.7,21.3c0-7.8,3.4-14.6,7-16.6c3.6,2,7,8.9,7,16.6s-3.4,14.6-7,16.6C198.1,35.9,194.7,29,194.7,21.3z"/>
			<path class="st2" d="M172.1,160.4c-1.2,0-2.1,0.9-2.1,2.1s0.9,2.1,2.1,2.1s2.1-0.9,2.1-2.1S173.2,160.4,172.1,160.4z"/>
			<path class="st2" d="M227.6,147.8c-0.8,0-1.4,0.6-1.4,1.4s0.6,1.4,1.4,1.4c0.8,0,1.4-0.6,1.4-1.4S228.4,147.8,227.6,147.8z"/>
			<path class="st2" d="M252.7,137.9c-1.2,0-2.1,0.9-2.1,2.1s0.9,2.1,2.1,2.1c1.2,0,2.1-0.9,2.1-2.1S253.9,137.9,252.7,137.9z"/>
			<path class="st2" d="M257.5,158.7c-0.7,0-1.3,0.6-1.3,1.3c0,0.7,0.6,1.3,1.3,1.3c0.7,0,1.3-0.6,1.3-1.3
				C258.8,159.3,258.2,158.7,257.5,158.7L257.5,158.7z"/>
			<path class="st2" d="M240.9,173.8c-1,0-1.9,0.8-1.9,1.9c0,1,0.8,1.9,1.9,1.9c1,0,1.9-0.8,1.9-1.9l0,0
				C242.7,174.6,241.8,173.8,240.9,173.8z"/>
			<path class="st2" d="M233.2,164.1c-0.8,0-1.4,0.6-1.4,1.4s0.6,1.4,1.4,1.4c0.8,0,1.4-0.6,1.4-1.4S233.9,164.1,233.2,164.1z"/>
			<path class="st2" d="M188.7,176.5c-1.2,0-2.1,0.9-2.1,2.1s0.9,2.1,2.1,2.1s2.1-0.9,2.1-2.1S189.8,176.5,188.7,176.5z"/>
			<path class="st2" d="M214.2,186.4c-0.8,0-1.4,0.6-1.4,1.4c0,0.8,0.6,1.4,1.4,1.4c0.8,0,1.4-0.6,1.4-1.4l0,0
				C215.7,187,215,186.4,214.2,186.4z"/>
			<path class="st2" d="M171.5,178.1c-0.8,0-1.4,0.6-1.4,1.4s0.6,1.4,1.4,1.4c0.8,0,1.4-0.6,1.4-1.4S172.2,178.1,171.5,178.1z"/>
			<path class="st2" d="M206.1,173c-1,0-1.7,0.8-1.7,1.8s0.8,1.7,1.8,1.7s1.7-0.8,1.7-1.8S207.1,173,206.1,173L206.1,173z"/>
			<path class="st2" d="M241,147.4c-1,0-1.8,0.8-1.8,1.8c0,1,0.8,1.8,1.8,1.8c1,0,1.8-0.8,1.8-1.8l0,0
				C242.8,148.3,242,147.4,241,147.4z"/>
			<path class="st2" d="M156.5,135.7c-1,0-1.7,0.8-1.7,1.8c0,1,0.8,1.7,1.8,1.7c1,0,1.7-0.8,1.7-1.7
				C158.3,136.6,157.4,135.7,156.5,135.7L156.5,135.7z"/>
			<path class="st2" d="M151.2,141c-0.8,0-1.4,0.6-1.4,1.4s0.6,1.4,1.4,1.4c0.8,0,1.4-0.6,1.4-1.4S152,141,151.2,141z"/>
			<path class="st3" d="M212.8,120.7h-2.4c-1.6,0-4.2,0-6.9-0.1c-0.6,0-1.2-0.1-1.6-0.5c-0.4-0.4-0.7-1-0.6-1.6v-0.1
				c0-0.2,0-0.3,0.1-0.5c0-0.1,0-0.2-0.1-0.3c-0.1-0.1-0.1-0.1-0.1-0.1h-0.1c-0.2,0.1-0.4,0.1-0.6,0.1c-0.3,0-0.7-0.1-1-0.2
				c-0.3-0.1-0.5-0.3-0.8-0.5c-0.1-0.1-0.1-0.1-0.2-0.2l-0.1-0.1c-0.8-1-1.9-3.3-3.2-5.7c-1.4-2.5-2.9-5.4-4-7.1
				c-0.5-0.6-0.8-1.4-0.9-2.1c-0.1-0.8,0.1-1.6,0.4-2.4c0.5-1,1.4-2.7,2.8-4.8c0.6-1,1.2-2,1.9-3c0.1-0.1,0.1-0.2,0-0.3
				c-0.1-0.1-0.1-0.1-0.2-0.1H195c-1,0.2-1.9,0.4-2.7,0.7c-0.7,0.2-1.8,0.5-2.9,1c-0.7,0.3-1.4,0.5-2,1c-0.5,0.3-2.5,1.8-4.8,3.5
				c-3.2,2.3-7.1,5.3-8.2,5.8c-1.2,0.5-2.5,0.9-3.8,0.9c-0.8,0-1.5-0.1-2.2-0.4c-0.6-0.3-1.2-0.8-1.5-1.3c-0.3-0.5-0.5-1.2-0.4-1.9
				c0.1-1.4,1.1-2.9,2.7-4.1c1.4-1,3.1-2.3,4.8-3.7c2.3-1.9,4.6-3.7,7.4-5.5c0.1-0.1,0.1-0.2,0.1-0.3c-0.1-0.1-0.1-0.1-0.3-0.1h-0.1
				c-2,0.6-4.3,1.4-5,1.4c-0.5,0.1-1,0.1-1.6,0.1c-1.2,0.1-2.3-0.3-3.2-1c-0.5-0.3-0.8-0.8-1-1.4c-0.1-0.5-0.1-1.2,0.1-1.6
				c0.4-1.2,1.5-2.1,3.2-2.7l2.4-0.9c4-1.5,10-3.8,15.5-4.9c1.5-0.3,3-0.3,4.5-0.3c3.2,0,7.1,0.3,11.1,0.7h0.1l3.8,0.3
				c0.2,0,0.8,0.1,1.3,0.1c0.4,0,0.9,0,1.4,0h26.1c0.1,0,0.3-0.1,0.3-0.3l0,0v-1.4c0-1.4,1.2-2.6,2.6-2.6h114.5v1.7H242.6
				c-0.5,0-0.9,0.4-0.9,0.9v25.8c0,0.2,0.1,0.5,0.3,0.6c0.2,0.2,0.4,0.3,0.7,0.3h77.8v1.7h-77.8c-1.4,0-2.6-1.2-2.6-2.6v-1.4
				c0-0.1-0.1-0.3-0.3-0.3l0,0h-4.3c-2.2,0-2.8,2.1-3.1,3.2c0,0.1,0,0.1,0,0.1l0,0l-0.1,0.1c-2.6,8.7-7.5,12.1-13.1,16
				c-0.6,0.3-1.1,0.8-1.4,1l0,0c-0.6,0.4-1.2,0.8-1.9,1c-1,0.4-2,0.6-3,0.6L212.8,120.7z M211.9,113.7c-2.3-0.1-4.6,0.4-6.7,1.4
				c-1.5,0.8-2.3,2-2.4,3.3v0.1c0,0.1,0.1,0.3,0.1,0.3c0.1,0,0.3,0.1,0.3,0.1c2.7,0.1,5.3,0.1,6.9,0.1h2.5c0.8,0,1.6-0.2,2.4-0.5
				c0.6-0.2,1.1-0.5,1.6-0.9c0,0,1-0.7,1.4-1c5.4-3.7,10-6.9,12.5-15.1l0.1-0.2c0.6-1.8,1.3-4.4,4.7-4.4h4.3c0.1,0,0.3-0.1,0.3-0.3
				l0,0V78.1c0-0.1-0.1-0.3-0.3-0.3l0,0h-26.1l-1.4-0.1c-0.6,0-1.2-0.1-1.4-0.1l-4-0.3c-4.1-0.3-7.9-0.7-11-0.7
				c-1.4,0-2.8,0.1-4.2,0.3c-5.4,1-11.3,3.4-15.3,4.9h-0.1l-2.4,0.9c-1.2,0.4-1.9,1-2.1,1.7c-0.1,0.2-0.1,0.4,0,0.6
				c0.1,0.2,0.2,0.4,0.4,0.5c0.6,0.4,1.3,0.6,2.1,0.5c0.5,0,0.9-0.1,1.4-0.1c0.8-0.1,4-1.2,7.1-2.1c2.4-0.8,4.5-1.4,5.2-1.6
				c0.3-0.1,1.2-0.3,2-0.4c0.5-0.1,1.1-0.2,1.5-0.3l1.4-0.5c2.2-0.8,4.6-1.6,7.1-2.3l1.3-0.4l1.3-0.3c0.5-0.1,0.9,0.1,1,0.6
				c0.1,0.2,0,0.5-0.1,0.6c-0.1,0.2-0.3,0.3-0.6,0.4l-1.3,0.3l-1.3,0.4c-2.4,0.7-4.7,1.4-6.9,2.3c-2.2,0.8-4.1,1.5-5.6,2.3
				c-5.1,2.3-9.3,5.6-12.9,8.6c-1.7,1.4-3.3,2.7-4.9,3.8c-1.2,0.8-1.9,1.9-2.1,2.7c0,0.3,0.1,0.6,0.2,0.9c0.2,0.3,0.5,0.5,0.8,0.7
				c0.5,0.2,1,0.3,1.5,0.3c1.1-0.1,2.1-0.3,3.1-0.8c0.8-0.3,4.5-3.1,7.8-5.6c2.2-1.6,4.3-3.2,5-3.6c0.8-0.4,1.5-0.8,2.3-1
				c1.2-0.5,2.3-0.8,3.1-1c0.9-0.3,1.9-0.5,2.7-0.7c0.7-0.1,1.4-0.3,2.3-0.4c0.1,0,0.1-0.1,0.2-0.1l1-1.4c0.3-0.4,0.8-0.5,1.2-0.2
				l0,0c0.4,0.3,0.5,0.8,0.2,1.2l0,0l-1.2,1.8c0,0,0,0.1-0.1,0.1c-1.2,1.8-2.4,3.6-3.4,5.2c-1.4,2.1-2.3,3.8-2.7,4.7
				c-0.2,0.4-0.3,0.9-0.3,1.4c0.1,0.5,0.3,1,0.6,1.4c1.2,1.8,2.7,4.7,4.1,7.3c1.2,2.3,2.3,4.5,3.1,5.4c0,0.1,0.1,0.1,0.1,0.1
				l0.3,0.1c0.1,0.1,0.1,0.1,0.3,0.1c0.1,0,0.1,0,0.2-0.1c2.7-2.3-0.1-8-1.2-10.5c-0.2-0.4-0.3-0.7-0.4-0.9
				c-0.3-0.8-0.4-1.6-0.3-2.3c0.1-0.8,0.4-1.6,1-2.2c1.2-1.4,2.8-2.5,4.6-3.3c1.9-0.8,3.8-1.3,5.9-1.4c1.7,0.1,3.4,0.7,4.8,1.6
				c1.2,0.8,2.3,1.8,3.1,3c0.9,1.4,1.4,3,1.4,4.6c-0.1,2.4-0.9,4.7-2.3,6.7c-0.6,0.8-1.2,1.4-2.1,1.8c-0.8,0.4-1.8,0.7-2.7,0.7
				L211.9,113.7z M209.8,97c-1.8,0.1-3.6,0.5-5.2,1.2c-1.5,0.6-2.9,1.6-4,2.8c-0.3,0.4-0.5,0.9-0.5,1.4s0,1,0.2,1.5
				c0.1,0.2,0.2,0.4,0.3,0.8c0.9,1.9,2.8,6,2.4,9.3c0,0.1,0.1,0.2,0.1,0.3c0.1,0,0.1,0.1,0.1,0.1s0.1,0,0.1-0.1
				c0.3-0.2,0.6-0.4,1-0.6c2.3-1.2,4.9-1.7,7.5-1.6h0.1c0.7,0,1.4-0.2,2-0.5c0.6-0.3,1-0.7,1.4-1.2c1.2-1.7,1.9-3.7,2-5.8
				c0-1.3-0.3-2.5-1.1-3.6c-0.7-1-1.5-1.9-2.5-2.5C212.6,97.6,211.2,97.1,209.8,97L209.8,97z"/>
			<path class="st3" d="M222.1,50.6c0.4-0.3,0.9-0.2,1.2,0.2l0,0c0.1,0.2,0.2,0.4,0.1,0.6c0,0.2-0.1,0.4-0.3,0.5l-1.6,1.2
				c-0.1,0.1-0.3,0.1-0.5,0.1c-0.3,0-0.6-0.1-0.7-0.3c-0.3-0.4-0.2-0.9,0.2-1.2l0,0L222.1,50.6z"/>
			<path class="st3" d="M211,146.7l-7.9-17.8c0-0.1,0-0.1,0-0.1V97.9c-0.8,0.3-1.3,0.9-1.7,1.6v29.2c0,0.1,0,0.1,0,0.1l-3.9,8.8
				c-0.2,0.4,0,1,0.4,1.2c0.4,0.2,1,0,1.2-0.4c0,0,0,0,0-0.1l3-6.7c0.1-0.1,0.1-0.1,0.3-0.1s0.2,0.1,0.3,0.1l6.9,15.7
				c0.2,0.4,0.7,0.6,1.2,0.4C211,147.6,211.2,147.2,211,146.7L211,146.7z"/>
			<path class="st3" d="M177,42.5c3.8,6.1,9.8,10.5,16.8,12.2c1.4,0.3,2.9,0.5,4.4,0.5c1,0,1.9-0.1,2.8-0.3h0.1c0.1,0,0.1,0,0.1,0.1
				c0.1,0.1,0.1,0.1,0.1,0.2v9.3c-0.1,0.5-0.1,1.2,0,1.7v9.3c0.5-0.1,1.2-0.1,1.7,0v-7.8c0-0.1,0.1-0.1,0.1-0.2
				c0.1-0.1,0.1-0.1,0.1-0.1h0.1c0.9,0.2,1.9,0.3,2.8,0.3c1.5,0,3-0.2,4.4-0.5c7-1.7,13.1-6.1,16.8-12.2c1.9-3,2.7-6.1,2.4-8.5
				c0-0.3-0.2-0.5-0.5-0.7c-1.4-0.5-2.9-0.8-4.4-0.8c-1.5,0-3,0.2-4.4,0.5c-7,1.7-13.1,6.1-16.8,12.2l-0.2,0.3
				c-0.1,0.1-0.1,0.1-0.2,0.1h-0.1c-0.1-0.1-0.2-0.1-0.2-0.3v-4.4c0.1-0.5,0.1-1.2,0-1.7V38.5c0-0.1,0.1-0.2,0.1-0.2
				c1.9-1.3,3.6-3.6,4.8-6.6c2.7-6.7,2.7-14.2,0-20.8c-1.4-3.2-3.3-5.8-5.4-6.9c-0.1-0.1-0.3-0.1-0.4-0.1c-0.1,0-0.3,0.1-0.4,0.1
				c-2.1,1.2-4,3.6-5.4,6.9c-2.7,6.7-2.7,14.2,0,20.8c1.2,3,3,5.3,4.8,6.6c0.1,0.1,0.1,0.1,0.1,0.2v6.9c0,0.1-0.1,0.2-0.2,0.3h-0.1
				c-0.1,0-0.2-0.1-0.2-0.1l-0.2-0.3c-3.8-6.1-9.8-10.6-16.8-12.2c-1.4-0.3-2.9-0.5-4.4-0.5c-1.5-0.1-3,0.2-4.4,0.8
				c-0.3,0.1-0.5,0.4-0.5,0.7C174.2,36.3,175.1,39.4,177,42.5z M203.2,63.8c0.4-1.8,1.1-3.5,2.1-5.1c3.6-5.8,9.2-9.9,15.8-11.5
				c1.3-0.3,2.7-0.5,4.1-0.5c1,0,2,0.1,3,0.4c0.1,0.1,0.2,0.1,0.2,0.3c0,1.9-0.8,4.3-2.3,6.7c-3.6,5.8-9.2,9.9-15.8,11.5
				c-1.3,0.3-2.7,0.5-4.1,0.5c-0.5,0-1-0.1-1.4-0.1c-0.1,0-0.3-0.1-0.2-0.3c0-0.1,0.1-0.1,0.1-0.2l13.5-9.8c0.4-0.3,0.5-0.8,0.2-1.2
				l0,0c-0.1-0.2-0.4-0.3-0.7-0.3c-0.2,0-0.3,0.1-0.5,0.1l-13.5,9.8c-0.1,0-0.1,0.1-0.1,0.1s-0.1,0-0.1-0.1
				C203.2,64,203.1,63.9,203.2,63.8z M201.3,23.3l0.1,12.2c0,0.1-0.1,0.2-0.2,0.3h-0.1c-0.1,0-0.1,0-0.2-0.1c-1.2-1.4-2.2-3-2.9-4.7
				c-2.5-6.3-2.5-13.3,0-19.5c1.1-2.6,2.5-4.6,4.1-5.7c0.1,0,0.1-0.1,0.1-0.1c0.1,0,0.1,0,0.1,0.1c1.5,1.1,3,3.2,4.1,5.7
				c2.5,6.3,2.5,13.3,0,19.5c-0.7,1.7-1.6,3.3-2.9,4.7c-0.1,0.1-0.1,0.1-0.2,0.1c-0.1,0-0.3-0.1-0.3-0.3l0,0V23.3
				c0.1-0.5-0.3-0.9-0.8-1c-0.5-0.1-0.9,0.3-1,0.8C201.3,23.3,201.3,23.3,201.3,23.3L201.3,23.3z M176.1,34.9c0-0.1,0.1-0.2,0.2-0.3
				c1-0.3,2-0.4,3-0.4c1.4,0,2.7,0.2,4.1,0.5c6.5,1.6,12.2,5.7,15.8,11.5c1,1.6,1.6,3.3,2.1,5.1c0,0.1,0,0.2-0.1,0.3
				c-0.1,0-0.1,0.1-0.1,0.1c-0.1,0-0.1,0-0.1-0.1l-17.5-12.7c-0.1-0.1-0.3-0.1-0.5-0.1c-0.5,0-0.9,0.4-0.9,0.9c0,0.1,0,0.1,0,0.1
				c0.1,0.2,0.1,0.4,0.3,0.5L199.9,53c0.1,0.1,0.1,0.2,0.1,0.3c0,0.1-0.1,0.2-0.2,0.2c-0.5,0.1-1,0.1-1.4,0.1
				c-1.4,0-2.7-0.2-4.1-0.5c-6.5-1.6-12.2-5.7-15.7-11.5C177,39.2,176.1,36.7,176.1,34.9L176.1,34.9z"/>
			<path class="st4" d="M164.5,50.1c-0.1-0.3,0-0.6,0.3-0.8c0.3-0.1,0.6,0,0.8,0.3c0,0.1,0,0.1,0.1,0.1l0.1,0.1h0.2
				c0.6,0,1.2,0.1,1.7,0.4c0.3,0.1,0.4,0.5,0.3,0.8c-0.1,0.3-0.5,0.4-0.8,0.3c-0.3-0.1-0.7-0.3-1-0.3l0.7,1.9c0.2,0,0.4,0,0.5,0
				c0.6,0.1,1.2,0.3,1.6,0.8c0.4,0.3,0.6,0.8,0.7,1.4c0,0.1,0,0.3,0,0.5s-0.1,0.2-0.1,0.3c-0.2,0.6-0.7,1.2-1.2,1.4l0.1,0.1
				c0.1,0.3-0.1,0.6-0.3,0.8c-0.3,0.1-0.6-0.1-0.8-0.3l-0.1-0.1c-0.4,0.1-0.8,0.1-1.2,0c-0.3-0.1-0.5-0.1-0.8-0.1
				c-0.3-0.1-0.4-0.5-0.3-0.8c0.1-0.3,0.4-0.4,0.7-0.3c0.2,0.1,0.4,0.1,0.6,0.1c0.2,0,0.4,0,0.6,0l-0.9-2.5c-0.5,0-1-0.1-1.4-0.3
				c-0.6-0.3-1-1-1.1-1.6c0-0.1,0-0.1,0-0.1c0-0.3,0.1-0.5,0.1-0.8C163.8,50.7,164.1,50.4,164.5,50.1L164.5,50.1L164.5,50.1
				L164.5,50.1z M167.2,54.1l0.8,2.1c0.3-0.1,0.4-0.4,0.5-0.7c0-0.1,0-0.1,0-0.1c0-0.1,0-0.1,0-0.2c0-0.3-0.1-0.5-0.3-0.7
				C167.9,54.2,167.5,54.1,167.2,54.1L167.2,54.1z M165.5,52.8l-0.5-1.5c-0.1,0.1-0.2,0.2-0.3,0.3c-0.1,0.1-0.1,0.1-0.1,0.3V52
				c0,0.3,0.2,0.6,0.5,0.8C165.3,52.8,165.4,52.8,165.5,52.8L165.5,52.8z"/>
			<path class="st4" d="M166.5,45.8c3.4,0,6.5,2.1,7.6,5.4c1.5,4.2-0.7,8.8-4.9,10.3c-0.9,0.3-1.8,0.5-2.7,0.5
				c-1.2,0-2.3-0.3-3.4-0.8c-4.1-1.9-5.8-6.7-3.8-10.7c0.9-1.9,2.5-3.4,4.6-4.1C164.6,45.9,165.6,45.8,166.5,45.8 M166.5,44.4
				c-5.2,0-9.5,4.3-9.4,9.5c0,3.6,2.1,6.9,5.4,8.5c2.3,1.1,4.9,1.2,7.2,0.3c4.9-1.8,7.5-7.1,5.7-12.1
				C174.1,46.9,170.5,44.4,166.5,44.4L166.5,44.4z"/>
			<path class="st4" d="M221.6,25.8c-0.3,0-0.6-0.3-0.6-0.6c0-0.3,0.3-0.6,0.6-0.6h0.2l0,0c-0.3-0.5-0.3-1.1-0.3-1.7
				s0.3-1.2,0.7-1.6c0.2-0.2,0.5-0.4,0.8-0.5c0.3-0.1,0.6-0.2,1-0.2c0.8,0.1,1.5,0.3,2,1c0.2,0.2,0.3,0.6,0,0.8
				c-0.2,0.2-0.6,0.3-0.8,0l0,0c-0.3-0.3-0.8-0.5-1.2-0.6c-0.1,0-0.3,0-0.4,0.1c-0.4,0.2-0.6,0.5-0.7,1c0,0.4,0.1,0.9,0.3,1.2
				c0.1,0.1,0.1,0.3,0.1,0.5h1.2c0.3,0,0.6,0.3,0.6,0.6s-0.3,0.6-0.6,0.6h-1c0,0.1,0,0.3,0,0.5c-0.1,0.3-0.1,0.7-0.3,1
				c0.3,0.1,0.5,0.1,0.8,0.1c0.7,0.1,1.4,0.3,1.9-0.1c0.3-0.2,0.6-0.1,0.8,0.1c0.2,0.3,0.1,0.6-0.1,0.8l0,0c-1,0.8-1.9,0.5-2.9,0.3
				c-0.5-0.2-1.2-0.2-1.7,0l0,0c-0.3,0.2-0.6,0.1-0.8-0.1c-0.2-0.3-0.1-0.6,0.1-0.8l0,0c0.3-0.2,0.6-0.5,0.8-0.8
				c0.2-0.2,0.3-0.4,0.3-0.7c0-0.1,0-0.3,0-0.4L221.6,25.8z"/>
			<path class="st4" d="M223.6,16.7c4.5,0,8.1,3.6,8.1,8.1s-3.6,8.1-8.1,8.1s-8.1-3.6-8.1-8.1c0-2.1,0.8-4.2,2.3-5.7
				C219.4,17.6,221.4,16.7,223.6,16.7 M223.6,15.4c-5.2,0-9.5,4.3-9.4,9.5c0,5.2,4.3,9.5,9.5,9.4c5.2,0,9.5-4.3,9.4-9.5
				c0-2.5-1-4.9-2.8-6.7C228.5,16.4,226.1,15.4,223.6,15.4z"/>
			<path class="st4" d="M178.9,7.3c0.3,0.2,0.3,0.5,0.1,0.8c-0.2,0.3-0.5,0.3-0.8,0.1l0,0c-0.3-0.2-0.7-0.4-1-0.6
				c-0.5-0.3-1.2-0.3-1.9-0.1c-0.3,0.1-0.5,0.3-0.8,0.5l2.3,1c0.3,0.1,0.4,0.5,0.3,0.8c-0.1,0.3-0.4,0.4-0.7,0.3L173.9,9
				c-0.1,0.1-0.1,0.2-0.1,0.3c-0.1,0.1-0.1,0.1-0.1,0.1l2.2,0.9c0.3,0.1,0.4,0.5,0.3,0.8l0,0c-0.1,0.3-0.5,0.5-0.8,0.3l-1.9-0.8
				c0,0.3,0.1,0.7,0.2,1c0.3,0.6,0.8,1,1.4,1.2l0,0c0.3,0.1,0.8,0.2,1.1,0.3c0.3,0,0.5,0.3,0.5,0.6c0,0.3-0.3,0.5-0.6,0.5h-0.1
				c-0.5-0.1-1-0.2-1.4-0.3l0,0c-0.9-0.3-1.6-1-2-1.9c-0.3-0.6-0.4-1.3-0.3-2l-0.3-0.1c-0.3-0.1-0.5-0.5-0.3-0.8l0,0
				c0.1-0.3,0.5-0.5,0.8-0.3l0.1,0.1l0.1-0.1c0.1-0.1,0.1-0.2,0.1-0.3l-0.1-0.1c-0.3-0.1-0.4-0.5-0.3-0.8l0,0
				c0.1-0.3,0.5-0.5,0.8-0.3l0.3,0.1c0.4-0.5,1-0.9,1.6-1.1c0.9-0.3,1.9-0.3,2.7,0.1C178.2,6.8,178.6,7,178.9,7.3L178.9,7.3z"/>
			<path class="st4" d="M176,2.4c4.5,0.1,8,3.7,8,8.2c0,3.2-1.9,6-4.9,7.4c-1,0.4-2.1,0.7-3.2,0.7c-4.5-0.1-8-3.8-7.8-8.3
				C168.3,5.9,171.7,2.5,176,2.4 M176,1c-5.2,0-9.5,4.3-9.5,9.4c0,1.3,0.3,2.5,0.8,3.7c2.1,4.8,7.6,7,12.4,4.9s7-7.6,4.9-12.4
				C183.1,3.2,179.8,1,176,1L176,1z"/>
		</g>
	</g>
</g>
</svg>
