<?xml version="1.0" encoding="UTF-8"?>
<svg width="406px" height="302px" viewBox="0 0 406 302" version="1.1" xmlns="http://www.w3.org/2000/svg" xmlns:xlink="http://www.w3.org/1999/xlink">
    <!-- Generator: Sketch 51.3 (57544) - http://www.bohemiancoding.com/sketch -->
    <title>Group 140@1x</title>
    <desc>Created with Sketch.</desc>
    <defs></defs>
    <g id="Page-1" stroke="none" stroke-width="1" fill="none" fill-rule="evenodd">
        <g id="ECOSYSTEM_cn" transform="translate(-374.000000, -1080.000000)">
            <g id="Group-140" transform="translate(374.000000, 1074.000000)">
                <g id="Group-11" transform="translate(0.000000, 218.594000)">
                    <text id="Contributors" font-family="NunitoSans-ExtraBold, Nunito Sans" font-size="18" font-weight="600" letter-spacing="-0.18" fill="#47A5B5">
                        <tspan x="0" y="62">C</tspan>
                        <tspan x="11.844" y="62">ontributo</tspan>
                        <tspan x="91.314" y="62" letter-spacing="-0.09">r</tspan>
                        <tspan x="98.352" y="62">s</tspan>
                    </text>
                    <path d="M47.7234,17.4346 L47.7234,18.2016 C47.7234,19.4706 48.7524,20.4996 50.0224,20.4996 L56.1534,20.4996 L59.4034,24.2916 C59.8664,24.8316 60.7514,24.5036 60.7514,23.7926 L60.7514,20.4996 L63.0504,20.4996 C64.3204,20.4996 65.3494,19.4706 65.3494,18.2016 L65.3494,7.4716 C65.3494,6.2026 64.3204,5.1726 63.0504,5.1726 L58.4524,5.1726" id="Stroke-2" stroke="#47A5B5" stroke-width="1.5"></path>
                    <path d="M51.3533,35.0625 C53.1573,35.0625 54.3533,33.5275 54.3533,31.6335 L54.3533,30.4905 C54.3533,28.5965 53.1573,27.0625 51.3533,27.0625 C49.5503,27.0625 48.3533,28.5965 48.3533,30.4905 L48.3533,31.6335 C48.3533,33.5275 49.5493,35.0625 51.3533,35.0625 Z" id="Stroke-3" stroke="#47A5B5" stroke-width="1.5"></path>
                    <path d="M40.3533,37.0625 C42.1573,37.0625 43.3533,35.5275 43.3533,33.6335 L43.3533,32.4905 C43.3533,30.5965 42.1573,29.0625 40.3533,29.0625 C38.5503,29.0625 37.3533,30.5965 37.3533,32.4905 L37.3533,33.6335 C37.3533,35.5275 38.5493,37.0625 40.3533,37.0625 Z" id="Stroke-4" stroke="#47A5B5" stroke-width="1.5"></path>
                    <path d="M57.3535,42.0625 L57.3535,38.0625 C57.3535,35.5845 53.4375,35.0625 51.3535,35.0625 C49.2695,35.0625 45.3535,35.5845 45.3535,38.0625 L45.3535,42.0625" id="Stroke-5" stroke="#47A5B5" stroke-width="1.5"></path>
                    <path d="M45.3538,38.248 C44.0518,37.306 41.7758,37.062 40.3538,37.062 C38.2698,37.062 34.3538,37.585 34.3538,40.062 L34.3538,42.062" id="Stroke-6" stroke="#47A5B5" stroke-width="1.5"></path>
                    <path d="M62.3535,37.0625 C60.5495,37.0625 59.3535,35.5275 59.3535,33.6335 L59.3535,32.4905 C59.3535,30.5965 60.5495,29.0625 62.3535,29.0625 C64.1565,29.0625 65.3535,30.5965 65.3535,32.4905 L65.3535,33.6335 C65.3535,35.5275 64.1575,37.0625 62.3535,37.0625 Z" id="Stroke-7" stroke="#47A5B5" stroke-width="1.5"></path>
                    <path d="M57.3535,38.248 C58.6555,37.306 60.9315,37.062 62.3535,37.062 C64.4375,37.062 68.3535,37.585 68.3535,40.062 L68.3535,42.062" id="Stroke-8" stroke="#47A5B5" stroke-width="1.5"></path>
                    <path d="M36.9941,0.5742 L54.6201,0.5742 C55.8901,0.5742 56.9201,1.6032 56.9201,2.8732 L56.9201,13.6022 C56.9201,14.8722 55.8901,15.9012 54.6201,15.9012 L44.6581,15.9012 L41.4391,20.1932 C40.9971,20.7822 40.0591,20.4702 40.0591,19.7332 L40.0591,15.9012 L36.9941,15.9012 C35.7241,15.9012 34.6951,14.8722 34.6951,13.6022 L34.6951,2.8732 C34.6951,1.6032 35.7241,0.5742 36.9941,0.5742" id="Fill-9" fill="#045473"></path>
                    <path d="M36.9941,0.5742 L54.6201,0.5742 C55.8901,0.5742 56.9201,1.6032 56.9201,2.8732 L56.9201,13.6022 C56.9201,14.8722 55.8901,15.9012 54.6201,15.9012 L44.6581,15.9012 L41.4391,20.1932 C40.9971,20.7822 40.0591,20.4702 40.0591,19.7332 L40.0591,15.9012 L36.9941,15.9012 C35.7241,15.9012 34.6951,14.8722 34.6951,13.6022 L34.6951,2.8732 C34.6951,1.6032 35.7241,0.5742 36.9941,0.5742 Z" id="Stroke-10" stroke="#47A5B5" stroke-width="1.5"></path>
                </g>
                <text id="Briko" font-family="NunitoSans-ExtraBold, Nunito Sans" font-size="18" font-weight="600" fill="#47A5B5">
                    <tspan x="153.6216" y="77.7188286">Bri</tspan>
                    <tspan x="178.0476" y="77.7188286" letter-spacing="-0.09">k</tspan>
                    <tspan x="187.9116" y="77.7188286">o</tspan>
                </text>
                <g id="Group-43" transform="translate(156.000000, 0.594000)">
                    <polygon id="Stroke-12" stroke="#47A5B5" stroke-width="1.3" stroke-linecap="round" stroke-linejoin="round" points="15.897 139.5625 6.199 133.9635 10.036 131.7485 19.735 137.3475"></polygon>
                    <polygon id="Stroke-14" stroke="#47A5B5" stroke-width="1.3" stroke-linecap="round" stroke-linejoin="round" points="19.7349 132.916 10.0369 127.316 13.8739 125.101 23.5729 130.7"></polygon>
                    <polygon id="Stroke-16" stroke="#47A5B5" stroke-width="1.3" stroke-linecap="round" stroke-linejoin="round" points="23.312 107.0391 13.614 101.4391 17.454 99.2241 27.151 104.8231"></polygon>
                    <polygon id="Stroke-18" stroke="#47A5B5" stroke-width="1.3" stroke-linecap="round" stroke-linejoin="round" points="27.1521 100.3916 17.4541 94.7916 21.2911 92.5766 30.9901 98.1756"></polygon>
                    <polygon id="Stroke-20" stroke="#47A5B5" stroke-width="1.3" stroke-linecap="round" stroke-linejoin="round" points="23.5725 126.2793 0.7875 113.1783 13.6135 105.8703 36.3985 118.9703"></polygon>
                    <polygon id="Stroke-22" stroke="#47A5B5" stroke-width="1.3" stroke-linecap="round" stroke-linejoin="round" points="19.7346 137.3477 10.0366 131.7477 10.0366 127.3167 19.7346 132.9157"></polygon>
                    <polygon id="Stroke-24" stroke="#47A5B5" stroke-width="1.3" stroke-linecap="round" stroke-linejoin="round" points="15.897 143.9932 6.199 138.3942 6.199 133.9642 15.897 139.5622"></polygon>
                    <polygon id="Stroke-26" stroke="#47A5B5" stroke-width="1.3" stroke-linecap="round" stroke-linejoin="round" points="27.1509 104.8232 17.4539 99.2232 17.4539 94.7922 27.1519 100.3912"></polygon>
                    <polygon id="Stroke-28" stroke="#47A5B5" stroke-width="1.3" stroke-linecap="round" stroke-linejoin="round" points="23.312 107.0391 13.614 101.4391 13.614 105.8701 23.312 111.4461"></polygon>
                    <polygon id="Stroke-30" stroke="#47A5B5" stroke-width="1.3" stroke-linecap="round" stroke-linejoin="round" points="13.8743 125.1006 23.5723 130.7006 23.5723 126.2796 13.8743 120.7036"></polygon>
                    <polygon id="Fill-32" fill="#045473" points="30.9897 115.8604 30.9897 98.1754 27.1517 100.3914 27.1507 104.8234 23.3117 107.0394 23.3117 111.4464"></polygon>
                    <polygon id="Stroke-34" stroke="#47A5B5" stroke-width="1.3" stroke-linecap="round" stroke-linejoin="round" points="30.9897 115.8604 30.9897 98.1754 27.1517 100.3914 27.1507 104.8234 23.3117 107.0394 23.3117 111.4464"></polygon>
                    <polygon id="Fill-36" fill="#045473" points="36.3989 118.9707 23.5729 126.2797 23.5729 130.6997 19.7349 132.9157 19.7349 137.3477 15.8969 139.5627 15.8969 143.9927 36.3989 132.1807"></polygon>
                    <polygon id="Stroke-38" stroke="#47A5B5" stroke-width="1.3" stroke-linecap="round" stroke-linejoin="round" points="36.3989 118.9707 23.5729 126.2797 23.5729 130.6997 19.7349 132.9157 19.7349 137.3477 15.8969 139.5627 15.8969 143.9927 36.3989 132.1807"></polygon>
                    <polygon id="Stroke-40" stroke="#47A5B5" stroke-width="1.3" stroke-linecap="round" stroke-linejoin="round" points="13.8743 125.1006 13.8743 120.7036 0.7873 113.1786 0.7873 119.5136 12.1633 126.0886"></polygon>
                    <text id="Developers" font-family="NunitoSans-ExtraBold, Nunito Sans" font-size="18" font-weight="600" fill="#47A5B5">
                        <tspan x="156.1821" y="18.1990286">D</tspan>
                        <tspan x="169.9161" y="18.1990286" letter-spacing="-0.18">ev</tspan>
                        <tspan x="188.4021" y="18.1990286">elope</tspan>
                        <tspan x="234.0141" y="18.1990286" letter-spacing="-0.0918">r</tspan>
                        <tspan x="241.0503" y="18.1990286">s</tspan>
                    </text>
                </g>
                <text id="&amp;-Users" font-family="NunitoSans-ExtraBold, Nunito Sans" font-size="18" font-weight="600" fill="#47A5B5">
                    <tspan x="312.1821" y="38.7930286">&amp; Use</tspan>
                    <tspan x="361.3041" y="38.7930286" letter-spacing="-0.09">r</tspan>
                    <tspan x="368.3421" y="38.7930286">s</tspan>
                </text>
                <g id="Group-74" transform="translate(333.000000, 55.594000)">
                    <path d="M19.3726,33.8936 C18.8456,32.3876 17.4246,31.3796 15.8286,31.3796 L10.5716,31.3796 L10.5716,26.1226 L12.0736,27.6236 L17.3306,27.6236 C20.7656,27.6236 20.3346,23.8696 20.3346,23.8696 L15.0776,23.8696 L9.8206,18.6126 L6.8166,18.6126 C5.1566,18.6126 3.8116,19.9566 3.8116,21.6166 L3.8116,32.8816 C3.8116,35.3706 5.8296,35.3876 8.3186,35.3876 L15.0776,35.3876 L16.3786,43.1956 L20.5456,43.1956 L19.3726,33.8936 Z" id="Fill-44" fill="#045473"></path>
                    <path d="M7.7236,16.2881 C5.3716,16.2881 3.5116,14.3641 3.5116,11.9901 L3.5116,10.5571 C3.5116,8.1831 5.3716,6.2591 7.7236,6.2591 C10.0756,6.2591 11.9356,8.1831 11.9356,10.5571 L11.9356,11.9901 C11.9356,14.3641 10.0756,16.2881 7.7236,16.2881 Z" id="Stroke-46" stroke="#47A5B5" stroke-width="1.5"></path>
                    <path d="M12.4006,27.6729 L44.1246,27.6729" id="Stroke-48" stroke="#47A5B5" stroke-width="1.5"></path>
                    <polyline id="Stroke-50" stroke="#47A5B5" stroke-width="1.5" points="24.1738 24.0303 30.1738 24.0303 30.1738 28.0303"></polyline>
                    <polyline id="Stroke-52" stroke="#47A5B5" stroke-width="1.5" points="34.1738 28.0303 34.1738 24.0303 38.1738 24.0303 40.1738 24.0303 40.1738 12.0303 35.1738 12.0303"></polyline>
                    <path d="M32.7837,21.2979 L29.7837,21.2979 L29.7837,0.2979 L32.7837,0.2979 C33.8877,0.2979 34.7837,1.1939 34.7837,2.2979 L34.7837,19.2979 C34.7837,20.4019 33.8877,21.2979 32.7837,21.2979 Z" id="Stroke-54" stroke="#47A5B5" stroke-width="1.5"></path>
                    <path d="M7.5671,39.8936 L7.5671,44.3996" id="Stroke-56" stroke="#47A5B5" stroke-width="1.5"></path>
                    <path d="M4.5632,43.6484 L3.0612,43.6484" id="Stroke-58" stroke="#47A5B5" stroke-width="1.5"></path>
                    <path d="M12.0732,43.6484 L10.5712,43.6484" id="Stroke-60" stroke="#47A5B5" stroke-width="1.5"></path>
                    <path d="M16.3789,43.1953 L15.0769,35.3873 L8.3179,35.3873 C5.8299,35.3873 3.8119,35.3703 3.8119,32.8823 L3.8119,21.6163 C3.8119,19.9573 5.1569,18.6123 6.8159,18.6123 L9.8199,18.6123 L15.0769,23.8693 L20.3349,23.8693 C20.3349,23.8693 20.7659,27.6243 17.3299,27.6243 L12.0729,27.6243 L7.5669,23.1183" id="Stroke-62" stroke="#47A5B5" stroke-width="1.5"></path>
                    <path d="M10.5713,26.1221 L10.5713,31.3801 L15.8283,31.3801 C17.4243,31.3801 18.8453,32.3881 19.3723,33.8931 L20.5453,43.1951" id="Stroke-64" stroke="#47A5B5" stroke-width="1.5"></path>
                    <path d="M0.8081,20.1143 L0.8081,32.3843 C0.8081,35.7023 3.4981,38.3913 6.8161,38.3913 L13.5751,38.3913" id="Stroke-66" stroke="#47A5B5" stroke-width="1.5"></path>
                    <polyline id="Stroke-68" stroke="#47A5B5" stroke-width="1.5" points="0.8081 31.3799 6.8161 31.3799 9.0691 32.3839"></polyline>
                    <path d="M45.7349,27.5908 L47.7349,27.5908" id="Stroke-70" stroke="#47A5B5" stroke-width="1.5"></path>
                    <path d="M9.0693,43.6484 L6.0653,43.6484" id="Stroke-72" stroke="#47A5B5" stroke-width="1.5"></path>
                </g>
                <text id="Exchange" font-family="NunitoSans-ExtraBold, Nunito Sans" font-size="18" font-weight="600" fill="#47A5B5">
                    <tspan x="238" y="285">E</tspan>
                    <tspan x="248.674" y="285" letter-spacing="-0.18">x</tspan>
                    <tspan x="258.034" y="285">change</tspan>
                </text>
                <g id="Group-113" transform="translate(251.000000, 219.594000)">
                    <path d="M38.3105,33.5752 C37.2975,34.8392 35.9545,35.8662 34.3445,36.5122" id="Stroke-75" stroke="#47A5B5" stroke-width="1.5"></path>
                    <path d="M20.6978,21.0225 L20.2008,20.6865 C18.7068,19.6785 17.0108,19.1155 15.3018,18.9905" id="Stroke-77" stroke="#47A5B5" stroke-width="1.5"></path>
                    <path d="M33.4353,36.8828 C33.9863,36.8338 34.5123,36.5458 34.8453,36.0518 L34.8903,35.9858 C35.4783,35.1138 35.2483,33.9318 34.3773,33.3438 L30.1683,29.3848" id="Stroke-79" stroke="#47A5B5" stroke-width="1.5"></path>
                    <path d="M5.8867,32.9463 C6.3947,33.9813 7.0907,34.9363 7.9657,35.7543" id="Stroke-81" stroke="#47A5B5" stroke-width="1.5"></path>
                    <path d="M24.2805,31.2197 L32.8805,37.0217 C33.7515,37.6097 33.9815,38.7907 33.3935,39.6627 L33.3485,39.7297 C32.7605,40.6007 31.5785,40.8297 30.7075,40.2417 L22.0495,34.4017" id="Stroke-83" stroke="#47A5B5" stroke-width="1.5"></path>
                    <path d="M22.042,34.4121 L30.024,39.7971 C30.895,40.3851 31.125,41.5671 30.537,42.4381 L30.492,42.5051 C29.904,43.3761 28.722,43.6061 27.851,43.0181 L20.706,38.2201" id="Stroke-85" stroke="#47A5B5" stroke-width="1.5"></path>
                    <path d="M21.7913,43.6182 L23.2723,44.6162 C24.1433,45.2042 25.3253,44.9742 25.9133,44.1032 L25.9583,44.0372 C26.5463,43.1662 26.3163,41.9832 25.4453,41.3952 L20.7053,38.2202" id="Stroke-87" stroke="#47A5B5" stroke-width="1.5"></path>
                    <path d="M31.8616,17.8887 C30.2226,17.6897 28.5126,17.8907 26.8896,18.5397 L25.3156,19.1717 L15.8306,22.9727 C16.6296,24.9647 18.8916,25.9327 20.8836,25.1337 L23.9846,23.9137 L25.7606,26.7807 C27.2966,29.2387 30.5336,29.9857 32.9926,28.4507" id="Stroke-89" stroke="#47A5B5" stroke-width="1.5"></path>
                    <path d="M11.3972,37.749 L14.0452,34.114 C14.6772,33.247 14.4862,32.032 13.6192,31.4 C12.7512,30.769 11.5362,30.959 10.9052,31.826 L8.2562,35.461 C7.6252,36.328 7.8152,37.544 8.6832,38.176 C9.5502,38.808 10.7652,38.616 11.3972,37.749 Z" id="Stroke-91" stroke="#47A5B5" stroke-width="1.5"></path>
                    <path d="M14.5378,40.0371 L18.2658,34.9201 C18.8978,34.0531 18.7068,32.8371 17.8398,32.2051 C16.9728,31.5731 15.7578,31.7651 15.1258,32.6321 L11.3968,37.7491 C10.7658,38.6161 10.9558,39.8321 11.8238,40.4641 C12.6908,41.0961 13.9058,40.9041 14.5378,40.0371 Z" id="Stroke-93" stroke="#47A5B5" stroke-width="1.5"></path>
                    <path d="M17.6782,42.3252 L20.3262,38.6902 C20.9582,37.8232 20.7672,36.6082 19.9002,35.9762 C19.0332,35.3452 17.8172,35.5352 17.1862,36.4022 L14.5382,40.0372 C13.9062,40.9042 14.0962,42.1202 14.9642,42.7522 C15.8312,43.3842 17.0462,43.1922 17.6782,42.3252 Z" id="Stroke-95" stroke="#47A5B5" stroke-width="1.5"></path>
                    <path d="M20.8188,44.6133 L22.4078,42.4323 C23.0388,41.5653 22.8488,40.3503 21.9808,39.7183 C21.1138,39.0873 19.8988,39.2773 19.2668,40.1443 L17.6778,42.3253 C17.0468,43.1923 17.2368,44.4083 18.1048,45.0403 C18.9718,45.6723 20.1868,45.4803 20.8188,44.6133 Z" id="Stroke-97" stroke="#47A5B5" stroke-width="1.5"></path>
                    <polyline id="Stroke-99" stroke="#47A5B5" stroke-width="1.5" points="10.5686 15.4121 15.4296 18.8041 5.6076 33.3631 0.5686 29.4121"></polyline>
                    <g id="Group-104" transform="translate(31.000000, 15.000000)">
                        <polyline id="Fill-101" fill="#045473" points="6.5762 0.4121 0.8972 2.5761 7.4312 18.8781 13.5682 16.4121"></polyline>
                        <polyline id="Stroke-103" stroke="#47A5B5" stroke-width="1.5" points="6.5762 0.4121 0.8972 2.5761 7.4312 18.8781 13.5682 16.4121"></polyline>
                    </g>
                    <path d="M22.3604,0.9756 L22.3604,3.0076" id="Stroke-105" stroke="#47A5B5" stroke-width="1.5"></path>
                    <path d="M22.2815,13.1279 C18.7595,13.1279 15.9065,10.2749 15.9065,6.7559 C15.9065,3.2389 18.7595,0.3889 22.2815,0.3889 C25.8015,0.3889 28.6485,3.2389 28.6485,6.7559 C28.6485,10.2749 25.8015,13.1279 22.2815,13.1279 Z" id="Stroke-107" stroke="#47A5B5" stroke-width="1.5"></path>
                    <path d="M22.3604,10.0947 L22.3604,12.5077" id="Stroke-109" stroke="#47A5B5" stroke-width="1.5"></path>
                    <path d="M23.7727,9.0693 C23.9707,8.9203 24.0707,8.6783 24.0707,8.3453 C24.0707,8.0113 23.9707,7.7663 23.7727,7.6103 C23.5737,7.4543 23.2537,7.3773 22.8147,7.3773 L21.0567,7.3773 L21.0567,9.2943 L22.8147,9.2943 C23.2537,9.2943 23.5737,9.2183 23.7727,9.0693 Z M21.0567,6.1083 L22.6227,6.1083 C23.0487,6.1083 23.3627,6.0363 23.5647,5.8903 C23.7677,5.7453 23.8687,5.5223 23.8687,5.2243 C23.8687,4.9123 23.7677,4.6833 23.5647,4.5373 C23.3627,4.3923 23.0487,4.3193 22.6227,4.3193 L21.0567,4.3193 L21.0567,6.1083 Z M25.2687,7.3393 C25.5067,7.6553 25.6257,8.0443 25.6257,8.5053 C25.6257,9.1363 25.3927,9.6373 24.9287,10.0063 C24.4627,10.3763 23.8227,10.5603 23.0057,10.5603 L19.4377,10.5603 L19.4377,3.0513 L22.8987,3.0513 C23.6797,3.0513 24.2997,3.2253 24.7577,3.5733 C25.2157,3.9223 25.4447,4.3973 25.4447,5.0013 C25.4447,5.3913 25.3397,5.7343 25.1307,6.0283 C24.9207,6.3233 24.6317,6.5393 24.2627,6.6733 C24.6957,6.8013 25.0307,7.0233 25.2687,7.3393 Z" id="Fill-111" fill="#47A5B5"></path>
                </g>
                <text id="Purchase-" font-family="NunitoSans-SemiBoldItalic, Nunito Sans" font-size="14" font-style="italic" font-weight="500" letter-spacing="-0.098" fill="#CBCBCA">
                    <tspan x="238.0208" y="82.5986222">P</tspan>
                    <tspan x="246.9528" y="82.5986222">u</tspan>
                    <tspan x="254.9188" y="82.5986222" letter-spacing="-0.14">r</tspan>
                    <tspan x="259.7628" y="82.5986222">chase </tspan>
                </text>
                <text id="Service" font-family="NunitoSans-SemiBoldItalic, Nunito Sans" font-size="14" font-style="italic" font-weight="500" fill="#CBCBCA">
                    <tspan x="238.0208" y="98.6006222">Se</tspan>
                    <tspan x="254.2048" y="98.6006222" letter-spacing="0.42">r</tspan>
                    <tspan x="260.1688" y="98.6006222">vice</tspan>
                </text>
                <text id="Repurchase" font-family="NunitoSans-SemiBoldItalic, Nunito Sans" font-size="14" font-style="italic" font-weight="500" fill="#CBCBCA">
                    <tspan x="272.2088" y="165.240622">Repu</tspan>
                    <tspan x="305.5148" y="165.240622" letter-spacing="-0.1414">r</tspan>
                    <tspan x="310.3574" y="165.240622">chase</tspan>
                </text>
                <text id="&amp;-Burn" font-family="NunitoSans-SemiBoldItalic, Nunito Sans" font-size="14" font-style="italic" font-weight="500" fill="#CBCBCA">
                    <tspan x="272.2088" y="181.242622">&amp; Burn</tspan>
                </text>
                <text id="Get-EOS-or-other-coins" font-family="NunitoSans-SemiBoldItalic, Nunito Sans" font-size="14" font-style="italic" font-weight="500" fill="#CBCBCA">
                    <tspan x="102.8707" y="306.717722">G</tspan>
                    <tspan x="113.0627" y="306.717722" letter-spacing="-0.07">e</tspan>
                    <tspan x="120.3287" y="306.717722">t </tspan>
                    <tspan x="128.9667" y="306.717722" letter-spacing="-0.042">E</tspan>
                    <tspan x="137.0727" y="306.717722">OS or </tspan>
                    <tspan x="177.0567" y="306.717722" letter-spacing="-0.028">o</tspan>
                    <tspan x="184.8967" y="306.717722">ther coins</tspan>
                </text>
                <text id="Sell-BGE" font-family="NunitoSans-SemiBoldItalic, Nunito Sans" font-size="14" font-style="italic" font-weight="500" fill="#CBCBCA">
                    <tspan x="142.6979" y="259.916022">Sell BGE</tspan>
                </text>
                <text id="Stake" font-family="NunitoSans-SemiBoldItalic, Nunito Sans" font-size="14" font-style="italic" font-weight="500" letter-spacing="-0.07" fill="#CBCBCA">
                    <tspan x="100.7259" y="189.216022">S</tspan>
                    <tspan x="109.3639" y="189.216022">ta</tspan>
                    <tspan x="121.7959" y="189.216022" letter-spacing="-0.112">k</tspan>
                    <tspan x="128.8099" y="189.216022">e</tspan>
                </text>
                <text id="BGE" font-family="NunitoSans-SemiBoldItalic, Nunito Sans" font-size="14" font-style="italic" font-weight="500" fill="#CBCBCA">
                    <tspan x="100.7259" y="205.218022">BGE</tspan>
                </text>
                <text id="Get-BGE" font-family="NunitoSans-SemiBoldItalic, Nunito Sans" font-size="14" font-style="italic" font-weight="500" fill="#CBCBCA">
                    <tspan x="34.2259" y="143.086022">G</tspan>
                    <tspan x="44.4179" y="143.086022" letter-spacing="-0.07">e</tspan>
                    <tspan x="51.6839" y="143.086022">t BGE</tspan>
                </text>
                <text id="rewards" font-family="NunitoSans-SemiBoldItalic, Nunito Sans" font-size="14" font-style="italic" font-weight="500" letter-spacing="-0.01" fill="#CBCBCA">
                    <tspan x="34.2259" y="159.088022">r</tspan>
                    <tspan x="39.1999" y="159.088022" letter-spacing="0.032">e</tspan>
                    <tspan x="46.5399" y="159.088022" letter-spacing="0.018">w</tspan>
                    <tspan x="58.3179" y="159.088022" letter-spacing="0.13">a</tspan>
                    <tspan x="65.9379" y="159.088022">r</tspan>
                    <tspan x="70.9119" y="159.088022" letter-spacing="0.13">d</tspan>
                    <tspan x="79.3159" y="159.088022">s</tspan>
                </text>
                <g id="Group-139" transform="translate(67.000000, 46.594000)">
                    <path d="M230.543,0.4971 C230.543,0.4971 174.644,5.6971 137.249,57.7991" id="Stroke-115" stroke="#B3B2B3" stroke-width="1.5" stroke-dasharray="5,3"></path>
                    <path d="M137.4595,49.0459 C137.7485,49.0659 137.9675,49.3169 137.9475,49.6059 L137.4065,57.6189 L144.8975,54.7209 C145.1685,54.6159 145.4735,54.7509 145.5775,55.0219 C145.6815,55.2909 145.5445,55.5959 145.2765,55.6999 L137.0165,58.8969 C136.8495,58.9609 136.6605,58.9359 136.5165,58.8289 C136.3715,58.7229 136.2915,58.5499 136.3035,58.3709 L136.8995,49.5339 C136.9075,49.4319 136.9435,49.3369 137.0015,49.2589 C137.1035,49.1189 137.2735,49.0339 137.4595,49.0459" id="Fill-117" fill="#B3B2B3"></path>
                    <path d="M72.96,87.0811 C72.96,87.0811 23.154,100.9421 3.048,156.6821" id="Stroke-119" stroke="#B3B2B3" stroke-width="1.5" stroke-dasharray="5,3"></path>
                    <path d="M0.8643,148.2051 C1.1473,148.1441 1.4263,148.3261 1.4873,148.6091 L3.1513,156.4681 L9.5683,151.6371 C9.8003,151.4621 10.1293,151.5091 10.3033,151.7401 C10.4773,151.9721 10.4293,152.3021 10.2003,152.4761 L3.1243,157.8031 C2.9813,157.9101 2.7923,157.9371 2.6243,157.8751 C2.4563,157.8111 2.3323,157.6671 2.2943,157.4921 L0.4593,148.8271 C0.4383,148.7261 0.4473,148.6251 0.4813,148.5351 C0.5423,148.3721 0.6823,148.2441 0.8643,148.2051" id="Fill-121" fill="#B3B2B3"></path>
                    <path d="M65.002,103.6006 C58.206,105.9736 24.329,120.1696 11.141,171.0086" id="Stroke-123" stroke="#B3B2B3" stroke-width="1.5" stroke-dasharray="5,3"></path>
                    <path d="M56.5977,101.1123 C56.5277,101.3923 56.6997,101.6783 56.9807,101.7483 L64.7747,103.6893 L59.7197,109.9313 C59.5377,110.1573 59.5717,110.4883 59.7977,110.6713 C60.0227,110.8523 60.3547,110.8153 60.5357,110.5923 L66.1097,103.7103 C66.2227,103.5703 66.2567,103.3833 66.1997,103.2133 C66.1427,103.0433 66.0027,102.9133 65.8287,102.8703 L57.2347,100.7293 C57.1337,100.7043 57.0327,100.7103 56.9417,100.7413 C56.7767,100.7963 56.6437,100.9313 56.5977,101.1123" id="Fill-125" fill="#B3B2B3"></path>
                    <path d="M201.0654,160.0889 C201.0654,160.0889 194.6924,114.4229 141.3994,92.6219" id="Stroke-127" stroke="#B3B2B3" stroke-width="1.5" stroke-dasharray="5,3"></path>
                    <path d="M149.9595,90.792 C150.0075,91.077 149.8145,91.349 149.5285,91.396 L141.6085,92.733 L146.1695,99.346 C146.3345,99.584 146.2735,99.912 146.0355,100.076 C145.7965,100.24 145.4685,100.178 145.3055,99.942 L140.2755,92.651 C140.1745,92.504 140.1545,92.314 140.2245,92.148 C140.2945,91.983 140.4445,91.865 140.6215,91.835 L149.3545,90.361 C149.4565,90.344 149.5565,90.357 149.6455,90.396 C149.8055,90.463 149.9285,90.608 149.9595,90.792" id="Fill-129" fill="#B3B2B3"></path>
                    <path d="M47.9858,236.6201 C56.5668,239.6641 110.2798,256.9981 155.6208,231.5391" id="Stroke-131" stroke="#B3B2B3" stroke-width="1.5" stroke-dasharray="5,3" transform="translate(101.803300, 238.373263) rotate(5.000000) translate(-101.803300, -238.373263) "></path>
                    <path d="M53.3000767,238.908137 C53.5290767,238.729137 53.5690767,238.399137 53.3900767,238.171137 L48.4460767,231.840137 L56.2740767,230.037137 C56.5560767,229.971137 56.7330767,229.689137 56.6680767,229.407137 C56.6020767,229.125137 56.3180767,228.949137 56.0380767,229.013137 L47.4070767,231.002137 C47.2330767,231.042137 47.0910767,231.169137 47.0300767,231.338137 C46.9700767,231.508137 47.0010767,231.695137 47.1120767,231.837137 L52.5630767,238.817137 C52.6270767,238.898137 52.7100767,238.957137 52.8010767,238.988137 C52.9640767,239.047137 53.1530767,239.022137 53.3000767,238.908137" id="Fill-133" fill="#B3B2B3"></path>
                    <path d="M56.2844,224.2773 C56.2844,224.2773 112.3224,246.0843 160.8414,221.8853" id="Stroke-135" stroke="#B3B2B3" stroke-width="1.5" stroke-dasharray="5,3"></path>
                    <path d="M160.385671,227.541471 C160.138671,227.389471 160.062671,227.064471 160.215671,226.818471 L164.441671,219.987471 L156.463671,219.046471 C156.175671,219.012471 155.969671,218.751471 156.003671,218.463471 C156.037671,218.176471 156.301671,217.970471 156.586671,218.003471 L165.382671,219.041471 C165.560671,219.062471 165.716671,219.172471 165.793671,219.334471 C165.871671,219.495471 165.862671,219.686471 165.767671,219.839471 L161.108671,227.371471 C161.053671,227.458471 160.977671,227.525471 160.890671,227.566471 C160.734671,227.643471 160.544671,227.639471 160.385671,227.541471" id="Fill-137" fill="#B3B2B3"></path>
                </g>
            </g>
        </g>
    </g>
</svg>