<?xml version="1.0" encoding="UTF-8"?>
<svg width="223px" height="165px" viewBox="0 0 223 165" version="1.1" xmlns="http://www.w3.org/2000/svg" xmlns:xlink="http://www.w3.org/1999/xlink">
    <!-- Generator: Sketch 51.3 (57544) - http://www.bohemiancoding.com/sketch -->
    <title>Group 138@1x</title>
    <desc>Created with Sketch.</desc>
    <defs>
        <polygon id="path-1" points="0 164 222 164 222 0 0 0"></polygon>
    </defs>
    <g id="Page-1" stroke="none" stroke-width="1" fill="none" fill-rule="evenodd" opacity="0.756975446">
        <g id="ECOSYSTEM_cn" transform="translate(-985.000000, -592.000000)">
            <g id="Group-138" transform="translate(986.000000, 592.000000)">
                <path d="M170,95.5 C170,125.047992 144.704224,149 113.5,149 C82.2970125,149 57,125.047992 57,95.5 C57,65.9520079 82.2970125,42 113.5,42 C144.704224,42 170,65.9520079 170,95.5" id="Fill-1" fill="#E9EAEB"></path>
                <path d="M111.477691,142.325725 C110.343279,139.140037 107.285137,137.005552 103.85304,137.005552 L92.5428054,137.005552 L92.5428054,125.88649 L95.7741216,129.063541 L107.084356,129.063541 C114.474345,129.063541 113.546988,121.120296 113.546988,121.120296 L102.236754,121.120296 L90.9265198,110 L84.4638873,110 C80.8937535,110 78,112.843924 78,116.354102 L78,140.183837 C78,145.447255 82.3406302,145.485503 87.6952036,145.485503 L102.236754,145.485503 L105.036392,162 L114,162 L111.477691,142.325725 Z" id="Fill-3" fill="#A3D4FF"></path>
                <path d="M111.477691,142.325725 C110.343279,139.140037 107.285137,137.005552 103.85304,137.005552 L92.5428054,137.005552 L92.5428054,125.88649 L95.7741216,129.063541 L107.084356,129.063541 C114.474345,129.063541 113.546988,121.120296 113.546988,121.120296 L102.236754,121.120296 L90.9265198,110 L84.4638873,110 C80.8937535,110 78,112.843924 78,116.354102 L78,140.183837 C78,145.447255 82.3406302,145.485503 87.6952036,145.485503 L102.236754,145.485503 L105.036392,162 L114,162 L111.477691,142.325725 Z" id="Stroke-5" stroke="#676767"></path>
                <path d="M87,105 C81.4156332,105 77,100.396707 77,94.7151875 L77,91.286075 C77,85.6058183 81.4156332,81 87,81 C92.5843668,81 97,85.6058183 97,91.286075 L97,94.7151875 C97,100.396707 92.5843668,105 87,105" id="Fill-7" fill="#FFFFFF"></path>
                <path d="M87,105 C81.4156332,105 77,100.396707 77,94.7151875 L77,91.286075 C77,85.6058183 81.4156332,81 87,81 C92.5843668,81 97,85.6058183 97,91.286075 L97,94.7151875 C97,100.396707 92.5843668,105 87,105 Z" id="Stroke-9" stroke="#676767" stroke-width="2"></path>
                <path d="M96,129 L163,129" id="Stroke-11" stroke="#676767" stroke-width="2"></path>
                <polyline id="Stroke-13" stroke="#676767" stroke-width="2" points="121 121 134 121 134 130"></polyline>
                <polyline id="Stroke-15" stroke="#676767" stroke-width="2" points="142 130 142 121.5 150.666667 121.5 155 121.5 155 96 144.166035 96"></polyline>
                <path d="M141.433504,116 L133,116 L133,71 L141.433504,71 C142.851493,71 144,72.1198756 144,73.4997223 L144,113.500278 C144,114.880124 142.851493,116 141.433504,116" id="Fill-17" fill="#FFFFFF"></path>
                <path d="M141.433504,116 L133,116 L133,71 L141.433504,71 C142.851493,71 144,72.1198756 144,73.4997223 L144,113.500278 C144,114.880124 142.851493,116 141.433504,116 Z" id="Stroke-19" stroke="#676767" stroke-width="2"></path>
                <path d="M86,155 L86,165" id="Stroke-21" stroke="#676767" stroke-width="2"></path>
                <path d="M79,163 L76,163" id="Stroke-23" stroke="#676767" stroke-width="2"></path>
                <path d="M95,163 L92,163" id="Stroke-25" stroke="#676767" stroke-width="2"></path>
                <path d="M104.593286,162 L101.839532,145.484269 L87.5350724,145.484269 C82.2694906,145.484269 78,145.447255 78,140.182603 L78,116.354102 C78,112.843924 80.8463271,110 84.3567149,110 L90.7146641,110 L101.839532,121.119062 L112.963166,121.119062 C112.963166,121.119062 113.876558,129.063541 106.606451,129.063541 L95.4815831,129.063541 L85.9465108,119.531154" id="Stroke-27" stroke="#676767" stroke-width="2"></path>
                <path d="M92,125 L92,136.084965 L103.068596,136.084965 C106.428596,136.084965 109.421404,138.211438 110.530351,141.387004 L113,161" id="Stroke-29" stroke="#676767" stroke-width="2"></path>
                <path d="M71,113 L71,139.179634 C71,146.26002 76.6888848,152 83.7062451,152 L98,152" id="Stroke-31" stroke="#676767" stroke-width="2"></path>
                <polyline id="Stroke-33" stroke="#676767" stroke-width="2" points="71 137 84.0917179 137 89 139"></polyline>
                <path d="M167,129 L171,129" id="Stroke-35" stroke="#676767" stroke-width="2"></path>
                <path d="M88,163 L82,163" id="Stroke-37" stroke="#676767" stroke-width="2"></path>
                <path d="M28,60.0071654 C18.1069274,59.7230382 10,67.9253436 10,78.081647 C10,83.3068471 12.1493655,88.009901 15.583108,91.3072726 C18.5999584,94.204623 21.3147493,96.7430758 21.3147493,101 L34.6852507,101 C34.6852507,96.7430758 37.4000416,94.204623 40.416892,91.3072726 C43.8506345,88.009901 46,83.3068471 46,78.081647 C46,67.9253436 37.8930726,59.7230382 28,60.0071654" id="Fill-39" fill="#FFFFFF"></path>
                <path d="M28,60.0071654 C18.1069274,59.7230382 10,67.9253436 10,78.081647 C10,83.3068471 12.1493655,88.009901 15.583108,91.3072726 C18.5999584,94.204623 21.3147493,96.7430758 21.3147493,101 L34.6852507,101 C34.6852507,96.7430758 37.4000416,94.204623 40.416892,91.3072726 C43.8506345,88.009901 46,83.3068471 46,78.081647 C46,67.9253436 37.8930726,59.7230382 28,60.0071654 Z" id="Stroke-41" stroke="#676767"></path>
                <path d="M34.6861066,101 C34.6861066,96.7443156 37.3997434,94.2058591 40.4166985,91.3085044 C43.85056,88.0098817 46,83.308067 46,78.0816131 C46,67.9252946 37.8940397,59.7242232 28.0006241,60.0071047 C18.1072085,59.7242232 10,67.9252946 10,78.0816131 C10,83.308067 12.14944,88.0098817 15.5833015,91.3085044 C18.6002566,94.2058591 21.3138934,96.7443156 21.3138934,101" id="Stroke-43" stroke="#676767" stroke-width="2"></path>
                <path d="M41,80.6 L41,75.4 L37.5229843,75.4 C37.3008592,74.36 36.9828164,73.7895146 36.5739042,73.0738835 L39.0311635,70.6026214 L35.353478,66.9171845 L32.8962186,69.3720388 C32.1818844,68.9618447 31.4120188,68.64 30.6005048,68.4191262 L30.6005048,65 L25.3994952,65 L25.3994952,68.4191262 C24.5879812,68.64 23.8181156,68.9580583 23.1037814,69.3682524 L20.646522,66.9108738 L16.9688365,70.5874757 L19.4260958,73.0738835 C19.0171836,73.7895146 18.6991408,74.36 18.4770157,75.4 L15,75.4 L15,80.6 L18.4770157,80.6 C18.6991408,81.64 19.0171836,82.1524272 19.4260958,82.8680583 L16.9688365,85.3102913 L20.646522,88.9805825 L23.1037814,86.5194175 C23.8181156,86.9296117 24.5879812,87.2438835 25.3994952,87.4647573 L25.3994952,91 L30.6005048,91 L30.6005048,87.4647573 C31.4120188,87.2438835 32.1818844,86.9258252 32.8962186,86.5156311 L35.353478,88.9742718 L39.0311635,85.2964078 L36.5739042,82.8680583 C36.9828164,82.1524272 37.3008592,81.64 37.5229843,80.6 L41,80.6 Z" id="Fill-45" fill="#A3D4FF"></path>
                <path d="M41,80.6 L41,75.4 L37.5229843,75.4 C37.3008592,74.36 36.9828164,73.7895146 36.5739042,73.0738835 L39.0311635,70.6026214 L35.353478,66.9171845 L32.8962186,69.3720388 C32.1818844,68.9618447 31.4120188,68.64 30.6005048,68.4191262 L30.6005048,65 L25.3994952,65 L25.3994952,68.4191262 C24.5879812,68.64 23.8181156,68.9580583 23.1037814,69.3682524 L20.646522,66.9108738 L16.9688365,70.5874757 L19.4260958,73.0738835 C19.0171836,73.7895146 18.6991408,74.36 18.4770157,75.4 L15,75.4 L15,80.6 L18.4770157,80.6 C18.6991408,81.64 19.0171836,82.1524272 19.4260958,82.8680583 L16.9688365,85.3102913 L20.646522,88.9805825 L23.1037814,86.5194175 C23.8181156,86.9296117 24.5879812,87.2438835 25.3994952,87.4647573 L25.3994952,91 L30.6005048,91 L30.6005048,87.4647573 C31.4120188,87.2438835 32.1818844,86.9258252 32.8962186,86.5156311 L35.353478,88.9742718 L39.0311635,85.2964078 L36.5739042,82.8680583 C36.9828164,82.1524272 37.3008592,81.64 37.5229843,80.6 L41,80.6 Z" id="Stroke-47" stroke="#676767" stroke-width="2"></path>
                <path d="M31,78.5006067 C31,80.433524 29.4332524,82 27.5,82 C25.5667476,82 24,80.433524 24,78.5006067 C24,76.5676894 25.5667476,75 27.5,75 C29.4332524,75 31,76.5676894 31,78.5006067" id="Fill-49" fill="#FFFFFF"></path>
                <path d="M31,78.5006067 C31,80.433524 29.4332524,82 27.5,82 C25.5667476,82 24,80.433524 24,78.5006067 C24,76.5676894 25.5667476,75 27.5,75 C29.4332524,75 31,76.5676894 31,78.5006067 Z" id="Stroke-51" stroke="#676767" stroke-width="2"></path>
                <polyline id="Stroke-53" stroke="#676767" stroke-width="2" points="33 112 31 112 29 114 26 114 24 112 22 112"></polyline>
                <path d="M20,104 L35,104" id="Stroke-55" stroke="#676767" stroke-width="2"></path>
                <path d="M20,108 L35,108" id="Stroke-57" stroke="#676767" stroke-width="2"></path>
                <path d="M0,86 L6,84" id="Stroke-59" stroke="#676767" stroke-width="2"></path>
                <path d="M8,99 L13,94" id="Stroke-61" stroke="#676767" stroke-width="2"></path>
                <path d="M21,50 L23,56" id="Stroke-63" stroke="#676767" stroke-width="2"></path>
                <path d="M8,58 L13,63" id="Stroke-65" stroke="#676767" stroke-width="2"></path>
                <path d="M0,71 L6,73" id="Stroke-67" stroke="#676767" stroke-width="2"></path>
                <path d="M56,71 L50,73" id="Stroke-69" stroke="#676767" stroke-width="2"></path>
                <path d="M56,86 L50,84" id="Stroke-71" stroke="#676767" stroke-width="2"></path>
                <path d="M49,99 L44,94" id="Stroke-73" stroke="#676767" stroke-width="2"></path>
                <path d="M36,50 L34,56" id="Stroke-75" stroke="#676767" stroke-width="2"></path>
                <path d="M49,58 L44,63" id="Stroke-77" stroke="#676767" stroke-width="2"></path>
                <path d="M87,17 C87,11.4771838 91.4771838,7 97,7" id="Stroke-79" stroke="#676767" stroke-width="2"></path>
                <g id="Group-84" transform="translate(81.000000, 1.000000)">
                    <path d="M18.8380426,37.2045742 L9.32156111,37.2045742 C4.64893148,37.2045742 0.862190741,33.4621871 0.862190741,28.8470258 C0.862190741,24.2306387 4.64893148,20.4894774 9.32156111,20.4894774 C9.41585741,20.4894774 9.50767222,20.5005097 9.60196852,20.5041871 C9.42454259,19.8299935 9.32156111,19.1276065 9.32156111,18.3994774 C9.32156111,13.7843161 13.1083019,10.041929 17.7809315,10.041929 C18.7102463,10.041929 19.6023389,10.1963806 20.4385981,10.4685097 C22.0875426,4.79547742 27.3681352,0.639993548 33.6425611,0.639993548 C39.916987,0.639993548 45.1963389,4.79547742 46.8452833,10.4697355 C47.6815426,10.1963806 48.5736352,10.041929 49.50295,10.041929 C54.1755796,10.041929 57.9635611,13.7843161 57.9635611,18.3994774 C57.9635611,19.1276065 57.8593389,19.8299935 57.681913,20.5041871 C57.7762093,20.5005097 57.8680241,20.4894774 57.9635611,20.4894774 C62.63495,20.4894774 66.4229315,24.2306387 66.4229315,28.8470258 C66.4229315,33.4621871 62.63495,37.2045742 57.9635611,37.2045742 L48.4458389,37.2045742" id="Fill-81" fill="#FFFFFF"></path>
                    <path d="M18.8380426,37.2045742 L9.32156111,37.2045742 C4.64893148,37.2045742 0.862190741,33.4621871 0.862190741,28.8470258 C0.862190741,24.2306387 4.64893148,20.4894774 9.32156111,20.4894774 C9.41585741,20.4894774 9.50767222,20.5005097 9.60196852,20.5041871 C9.42454259,19.8299935 9.32156111,19.1276065 9.32156111,18.3994774 C9.32156111,13.7843161 13.1083019,10.041929 17.7809315,10.041929 C18.7102463,10.041929 19.6023389,10.1963806 20.4385981,10.4685097 C22.0875426,4.79547742 27.3681352,0.639993548 33.6425611,0.639993548 C39.916987,0.639993548 45.1963389,4.79547742 46.8452833,10.4697355 C47.6815426,10.1963806 48.5736352,10.041929 49.50295,10.041929 C54.1755796,10.041929 57.9635611,13.7843161 57.9635611,18.3994774 C57.9635611,19.1276065 57.8593389,19.8299935 57.681913,20.5041871 C57.7762093,20.5005097 57.8680241,20.4894774 57.9635611,20.4894774 C62.63495,20.4894774 66.4229315,24.2306387 66.4229315,28.8470258 C66.4229315,33.4621871 62.63495,37.2045742 57.9635611,37.2045742 L48.4458389,37.2045742" id="Stroke-83" stroke="#676767" stroke-width="2"></path>
                </g>
                <path d="M117,37 L117,39" id="Stroke-85" stroke="#676767" stroke-width="2"></path>
                <path d="M117,41 L117,43" id="Stroke-87" stroke="#676767" stroke-width="2"></path>
                <path d="M117,46 L117,48" id="Stroke-89" stroke="#676767" stroke-width="2"></path>
                <path d="M117,50 L117,65" id="Stroke-91" stroke="#676767" stroke-width="2"></path>
                <path d="M111,65 L111,63" id="Stroke-93" stroke="#676767" stroke-width="2"></path>
                <path d="M111,60 L111,58" id="Stroke-95" stroke="#676767" stroke-width="2"></path>
                <path d="M111,56 L111,54" id="Stroke-97" stroke="#676767" stroke-width="2"></path>
                <path d="M111,52 L111,37" id="Stroke-99" stroke="#676767" stroke-width="2"></path>
                <path d="M124,31 L124,46.7895387 C124,47.8665473 124.390692,48.9435559 125.172077,49.7661335 C125.952288,50.5887112 126.976535,51 127.999609,51 L130,51" id="Stroke-101" stroke="#676767" stroke-width="2"></path>
                <path d="M138,51.0005868 C138,53.2091829 136.209446,55 134,55 C131.790554,55 130,53.2091829 130,51.0005868 C130,48.7908171 131.790554,47 134,47 C136.209446,47 138,48.7908171 138,51.0005868 Z" id="Stroke-103" stroke="#676767" stroke-width="2"></path>
                <path d="M196,51 L138,51" id="Stroke-105" stroke="#676767" stroke-width="2"></path>
                <path d="M133,51 L135,51" id="Stroke-107" stroke="#676767" stroke-width="2"></path>
                <path d="M104,31 L104,46.7895387 C104,47.8665473 103.609308,48.9435559 102.827923,49.7661335 C102.047712,50.5887112 101.023465,51 100.000391,51 L98,51" id="Stroke-109" stroke="#676767" stroke-width="2"></path>
                <path d="M90,51.0005868 C90,53.2091829 91.7905544,55 94,55 C96.2094456,55 98,53.2091829 98,51.0005868 C98,48.7908171 96.2094456,47 94,47 C91.7905544,47 90,48.7908171 90,51.0005868 Z" id="Stroke-111" stroke="#676767" stroke-width="2"></path>
                <path d="M87,51 L90,51" id="Stroke-113" stroke="#676767" stroke-width="2"></path>
                <path d="M95,51 L93,51" id="Stroke-115" stroke="#676767" stroke-width="2"></path>
                <path d="M102,29 L102,20.1994837 C102,18.9835719 102.89533,18 103.999531,18 L105.000469,18 C106.10467,18 107,18.9835719 107,20.1994837 L107,29" id="Stroke-117" stroke="#676767" stroke-width="2"></path>
                <path d="M102,24 L107,24" id="Stroke-119" stroke="#676767" stroke-width="2"></path>
                <path d="M112,24.5997418 L115.000469,24.5997418 C116.10467,24.5997418 117,23.6148791 117,22.4002582 L117,20.1994837 C117,18.9835719 116.10467,18 115.000469,18 L112,18 L112,29" id="Stroke-121" stroke="#676767" stroke-width="2"></path>
                <path d="M122,18 L122,28" id="Stroke-123" stroke="#676767" stroke-width="2"></path>
                <path d="M120,18 L124,18" id="Stroke-125" stroke="#676767" stroke-width="2"></path>
                <path d="M120,27 L124,27" id="Stroke-127" stroke="#676767" stroke-width="2"></path>
                <mask id="mask-2" fill="white">
                    <use xlink:href="#path-1"></use>
                </mask>
                <g id="Clip-130"></g>
                <polygon id="Fill-129" fill="#FFFFFF" mask="url(#mask-2)" points="167 103 221 103 221 65 167 65"></polygon>
                <polygon id="Stroke-131" stroke="#676767" stroke-width="2" mask="url(#mask-2)" points="167 103 221 103 221 65 167 65"></polygon>
                <path d="M167,72 L221,72" id="Stroke-132" stroke="#676767" stroke-width="2" mask="url(#mask-2)"></path>
                <path d="M171,68 L173,68" id="Stroke-133" stroke="#676767" stroke-width="2" mask="url(#mask-2)"></path>
                <path d="M175,68 L177,68" id="Stroke-134" stroke="#676767" stroke-width="2" mask="url(#mask-2)"></path>
                <path d="M180,68 L182,68" id="Stroke-135" stroke="#676767" stroke-width="2" mask="url(#mask-2)"></path>
                <path d="M218,60 L171,60" id="Stroke-136" stroke="#676767" stroke-width="2" mask="url(#mask-2)"></path>
                <path d="M208,55 L179,55" id="Stroke-137" stroke="#676767" stroke-width="2" mask="url(#mask-2)"></path>
            </g>
        </g>
    </g>
</svg>