<svg enable-background="new 0 0 385 182" viewBox="0 0 385 182" xmlns="http://www.w3.org/2000/svg"><path d="m83.9 155.1-.2-.4z" fill="#719496"/><path d="m83.5 154-.2-.6z" fill="#719496"/><path d="m83.7 154.6c-.1-.2-.2-.4-.2-.6 0 .2.1.4.2.6z" fill="#719496"/><path d="m84.5 156.3c-.1-.2-.2-.4-.3-.6.1.3.2.5.3.6z" fill="#719496"/><path d="m84.2 155.6-.2-.4z" fill="#719496"/><path d="m91.4 157.9c2.5 1 5.2 1.5 7.9 1.6 3 0 6-.7 8.7-1.9 1.5-.6 2.9-1.4 4.3-2.2 1.8-1.3 3.4-2.8 4.7-4.5 1.5-2 2.3-4.5 2.3-7.1-.2-.5-.4-1-.4-1.5-.2-1.7-1.2-3.4-2.7-4.3-1.1-.6-1.2-1.3-.3-2 .9-.6 1.2-1.7.6-2.7-.1-.1-.1-.2-.2-.2-1.5-2.5-4-3.6-6.5-4.5-.6-.3-1.3 0-1.5.6v.1c-.5.9-1.2.9-2 .7-2.7-.5-5.4-.5-8.1 0-1.2.3-2.3.1-3.4-.4-.8-.5-2-1.3-3.1-.2-1.6 1.6-3.5 3-5.3 4.6.7 1.2 2.3 2.5 1.8 3-1.1 1.1-3.9 6.2-3.8 8.1.2.8-.2 1.6-1.1 1.8-.1 0-.2 0-.3.1-.8.1-1.5.8-1.4 1.6 0 .1 0 .2.1.3.2 1 .5 1.9.8 2.8.4.5.8 1 1.2 1.4 2.2 2.1 4.8 3.9 7.7 4.8zm11.5-15.4c3.6.2 4.6 1.7 4.5 4.2-.3 2.4-2.3 4.2-4.7 4.1-2.2-.2-4.2-2-4.1-4 0-2.4 2-4.3 4.3-4.3z" fill="#719496"/><path d="m83 152.7c-.1-.4-.3-.8-.4-1.2.2.4.4.8.4 1.2z" fill="#719496"/><path d="m83.2 153.3c-.1-.2-.1-.3-.2-.5.1.2.2.3.2.5z" fill="#719496"/><path d="m62.9 130.5c1.9.3 3.9.4 5.8.4 4-.1 7.8-1 11.5-2.6 3.4-1.6 6.3-4.2 8.4-7.3 2.1-3 3.5-6.5 4.1-10.1.6-2.9.7-5.9.4-8.9.1.2.1.4.2.7-.1-.3-.2-.6-.2-.9s-.2-.6-.1-.8c-.2-1.5-.5-3.1-1-4.5-.6-1.8-1.4-3.7-2.2-5.3l-.2-.2c-1.6-1.5-2.7-1-5 .9-.7.5-1.4 1-2.1.2-3-2.9-6.8-3.3-10.6-3.6-1.6-.1-1.6 0-1.7-1.6s-.4-2.3-2-1.9c-2.9.9-6 1.7-8.9 2.4-2.2.6-2.7.8-1.7 2.8.6 1.4.3 2.1-.8 2.8-1.5 1-2.7 2.2-3.7 3.8-1.1 1.5-1.5 1.6-3.4 1.1-.5-.2-.9-.4-1.4-.5-2.1-.6-3-.1-3.9 1.9s-1.5 3.9-2.4 5.7c-.5 1.3-.7 2.6-.7 4-.1.8.2 1.5 1.1 1.5 1.8 0 2.2 1.3 2.3 2.7 0 .7.1 1.3.4 1.8.4 0 .8-.1 1.2-.4 1.6-1 3.8-.6 5 .9 1.4 1.5 1.1 2.9.7 4.9-.4 1.6-.9 3.2-1.5 4.7 2.2 1.5 4.7 2.9 7.3 3.9 1.5.8 3.3 1.3 5.1 1.5zm10.9-26.9c4 1.4 6.3 5.4 5.5 9.5-.3 1.5-1.5 2.4-2.5 3.5-3.5 3.5-9.1 3.5-12.6 0-.7-.7-1.3-1.5-1.7-2.4-.3-.8-.4-1.6-.4-2.5 0-5.7 6.1-9.8 11.7-8.1z" fill="#91c9d3"/><path d="m94.2 111.8v.3c0-.1 0-.2 0-.3z" fill="#91c9d3"/><path d="m94.2 111.1v.4c0-.2 0-.3 0-.4z" fill="#91c9d3"/><path d="m94.8 97.3.1.2z" fill="#91c9d3"/><path d="m95.1 97.8.1.2z" fill="#91c9d3"/><path d="m94.5 96.9.1.2z" fill="#91c9d3"/><path d="m49.7 126.7c.1-.2.2-.5.3-.7-.1.2-.2.4-.3.7z" fill="#91c9d3"/><path d="m94.3 96.4.2.2z" fill="#91c9d3"/><path d="m93.9 95.9.2.2z" fill="#91c9d3"/><path d="m92.9 94.6.1.2z" fill="#91c9d3"/><path d="m93.6 95.5.2.2z" fill="#91c9d3"/><path d="m93.3 95 .2.2z" fill="#91c9d3"/><path d="m92.6 94.2.1.2z" fill="#91c9d3"/><path d="m93.4 103.4.2.7z" fill="#91c9d3"/><path d="m93.9 106.2.1.6z" fill="#91c9d3"/><path d="m93.7 104.8.1.6z" fill="#91c9d3"/><path d="m93.5 104.1c0 .2.1.4.1.6 0-.2 0-.4-.1-.6z" fill="#91c9d3"/><path d="m93.2 102.8c.1.2.1.4.2.7-.1-.3-.1-.5-.2-.7z" fill="#91c9d3"/><path d="m94.2 108.9v.5z" fill="#91c9d3"/><path d="m94 106.8c0 .2.1.4.1.6 0-.2-.1-.4-.1-.6z" fill="#91c9d3"/><path d="m94.2 109.6v.4c.1-.1.1-.3 0-.4z" fill="#91c9d3"/><path d="m94.1 107.5v.5c0-.1 0-.3 0-.5z" fill="#91c9d3"/><path d="m94.2 108.2v.5z" fill="#91c9d3"/><path d="m93.8 105.5c0 .2.1.4.1.6 0-.2 0-.4-.1-.6z" fill="#91c9d3"/><path d="m50.2 117c-.7-1.1-2.1-1.4-3.2-.7-.1.1-.2.1-.2.2-.6.6-1.1 1.2-1.4 1.9-.7 1.5-1.3 2.9-1.9 4.4-.6 1.7-1.6 3.3-3.2 4.4-4.4 2.6-9.1 3.3-14 3-1.4-.2-2.7.3-3.6 1.3-1.1 1.1-1.9 2.4-2.4 3.9-1.4 4.1-2.3 8.3-2.8 12.6-.7 5.9-1.3 11.7-1.7 17.6-.3 3-.7 5.7.1 8.7.2 1.5 1.5 2.5 2.9 2.3 1.3.1 2.3-.9 2.4-2.1.3-1.9 1.2-14.2 2-18.3.5-2.2 1.7-3.1 3.1-3 2.1.1 2.9 1.2 3.3 3.2.1.4.1.8.2 1.2.4 2.3.2 12.5.6 15.7.5 3.3 1.5 3.5 3.5 3.5 3.5 0 1.6-14.3 1.7-18.8.2-5.9.1-11.8.6-17.7.1-1.3.7-2.5 1.6-3.4 2.1-1.9 4.4-3.7 6.9-5.2.8-.4 1.5-1.1 1.9-1.8 1.6-2.9 3-6 3.9-9.3.2-1.6.5-2.5-.3-3.6z" fill="#fff"/><path d="m36.4 120c-.4-6.9-5.9-8.2-8.3-8.3-4.6-.5-8.9 2.9-9.4 7.6-.1 1.3 0 2.6.5 3.8 1.1 2.9 3.3 4.4 5.9 5.4 4.4 1.6 9.2-.7 10.8-5 .4-1.2.6-2.3.5-3.5z" fill="#fff"/><path d="m32.5 111.6c1.1.9 2.2 1.6 3.5 2.3 1-1.3 2.1-2.5 3-3.9s.4-2.4-1.3-2.7c-1.6-.3-4.5 1.5-5.4 3.3-.2.3-.1.8.2 1z" fill="#fff"/><path d="m122.5 149.8c-.4-.6-.4-1.5.1-2 1.1-1.2.4-1.6-.7-2l-.4-.2h-.1l-.3-.2h-.1c-.1-.1-.2-.1-.3-.2l-.3-.2c-.2-.2-.4-.4-.6-.6-.2-.2-.3-.5-.4-.7 0 2.5-.9 5-2.3 7.1-1.4 1.7-2.9 3.3-4.7 4.5-1.4.9-2.7 1.6-4.3 2.2-2.7 1.3-5.7 1.9-8.7 1.9-2.7-.1-5.4-.6-7.9-1.6-2.9-1.1-5.5-2.7-7.6-4.8-.4-.5-.8-.9-1.2-1.4.1.4.3.8.4 1.2v.1c.1.2.1.3.2.5v.1l.2.6c.1.2.2.4.2.6v.1l.2.4h.1l.2.4c0 .1 0 .1.1.2s.2.4.3.6c.3.6 1 .9 1.5.7h.1c.5-.1.9-.4 1.5-.7 1.4 3.2 4.2 5.5 7.5 6.4 1.3.4 1.8.7 1.6 2-.2 1.4.4 1.8 1.6 2.1 2.5.5 5.1.5 7.6 0 1.4-.2 1.7-1.3 1.5-2.7-.1-.9.2-1.3 1.2-1.3 3.3-.2 5.5-2.3 7.3-4.8.7-1 1.2-1.4 2.2-1.2 1 .1 2.1.4 2.6-.6 1.5-2.1 3.2-4 1.7-6.5z" fill="#5e8484"/><path d="m91.8 126.6c.4-.4.8-.8 1.5-.2 1.5 1.3 1.9 1.2 2.9-.6 1-2.6 1.6-5.3 2.2-8.1.4-2.5-.1-2.8-2.5-3.5-.2 0-.3-.1-.5-.1-.7 0-1.2-.5-1.3-1.1 0-.1 0-.2 0-.4s0-.5.1-.7c0-.1 0-.2 0-.3s0-.3 0-.4 0-.2 0-.4 0-.2 0-.4v-.7c0-.1 0-.3 0-.4v-.3-.5c0-.1 0-.1 0-.2v-.3c0-.1 0-.1 0-.2s0-.4 0-.5 0-.1 0-.2 0-.4-.1-.6v-.1l-.1-.6v-.1c0-.2-.1-.4-.1-.6v-.1l-.1-.6v-.1c0-.2-.1-.4-.1-.6l-.2-.7c-.1-.2-.1-.4-.2-.7 0-.2-.1-.4-.2-.7.3 3 .2 5.9-.4 8.9-.6 3.6-2 7.1-4.2 10.1-2.1 3.1-5 5.6-8.4 7.3-3.6 1.6-7.6 2.5-11.5 2.6-1.9 0-3.9-.1-5.8-.4-1.8-.3-3.7-.7-5.3-1.5-2.5-1-5-2.3-7.3-3.9l-.3.7c-.1.2-.2.5-.3.7-1.1 2.2-.7 3.5 1.3 5 1.2.9 2.3 1.7 3.5 2.5s1.9 1 2.9-.2c.8-1 1.6-1.1 2.7-.5 3.3 1.6 6.7 2.9 10.4 2.9 1.2 0 1.5.2 1.4 1.4-.1.4-.1.8-.1 1.2-.1 1.7.4 2.1 2.1 1.9 2.4-.4 4.8-1 7.2-1.9 2.1-.9 2.4-1.5 1.1-3.1-.6-.8-.4-1.2.4-1.7 2.2-1.4 4.3-2.8 6.2-4.5 1-.5 2.1-1.5 3.1-2.5z" fill="#47a5b5"/><path d="m92 96.6c.5 1.5.8 3 1 4.5v-.1h.1.1.1.1.3c.9.1 1.7-.6 1.7-1.5 0-.3 0-.6-.2-.8l-.2-.5v-.2l-.2-.3-.1-.2-.2-.3-.1-.2-.2-.3-.2-.1c0-.1-.1-.2-.2-.2l-.2-.2-.2-.2-.2-.2c-.1-.1-.1-.2-.2-.2l-.2-.2-.2-.3-.1-.2-.2-.3-.1-.2-.2-.2-.1-.1-.3-.3-.1-.1c-.6-.7-1.3-1.4-2-2.2 1.1 1.5 1.9 3.2 2.5 5.1z" fill="#96bca9"/><path d="m149.5 128.2c1.8-1.6 2.9-4 2.8-6.4-.5-5.5-4.5-9-9.4-8.5-3.7.2-7.2 2.9-7.7 6.4-.7 4.1.7 7.5 4.3 9.1 3 1.8 7 1.6 10-.6z" fill="#fff"/><path d="m130.1 146.6c-1.5.2-3.1.5-4.6.9-.7.2-1.7.8-1.6 1.7.1 1.1.8 1.9 1.6 2.3.6.1 1.1.1 1.6 0 3.4-.2 6.7-.9 9.8-2.1 1.3-.4 2.3-1.2 3.2-2.1 1.6-2.3 3.7-4.2 5-6.7.2-.4.6-.7 1-.4s.2.6 0 .9c-.8 1.3-1.7 2.5-2.8 3.6s-1.6 2.4-1.6 3.9c0 1.3-.2 2.5-.5 3.8-1.6 6.1-2.7 12.3-4 18.5-.2 1-.8 4.9 1.2 4.9 2.8.3 3.4-.9 4-2.1 1-2 3-13.4 4-16.7.3-1.5 1.5-2.5 3-2.4 1.3.1 2.1 1.3 2.1 3 0 3-1.4 13.4-1.6 15.7-.1.7-.1 2.8 1.5 2.7 2.9.5 3-.9 3.5-2.3 1-2.9 2.3-13.9 2.1-21.6 0-2.4-.3-4.7-.8-7.1-.6-3.3-1.5-6.5-2.9-9.5-1.8-3.9-3.6-5-7.6-4.6-1.3 0-2.3.7-2.9 1.8-.7 1.4-1.6 2.5-2.3 3.9-1.1 2.1-2.3 4.3-3.8 6.1-1.7 2.1-4 3.4-6.6 3.9z" fill="#fff"/><path d="m121.7 142c2.5.9 5 1.9 7.6 2.9.4.2.8.2 1.2.1 3-.9 5.4-2.5 6.5-5.8-1.1.5-2.2 1-3.3 1.5-1.4.8-3 .7-4.3-.1-1.9-1.1-3.9-1.8-5.8-2.8-1.1-.5-2.1-.7-3.2-.8s-1.6.4-1.4 1.3c.4 1.4.8 3.1 2.7 3.7z" fill="#fff"/><path d="m205.5 81.2c.1.1.1.1 0 0z" fill="#bcbc44"/><path d="m247.8 127.3-.3-.4z" fill="#91c9d3"/><path d="m248.2 127.9-.3-.4z" fill="#91c9d3"/><path d="m248.5 128.3-.3-.4z" fill="#91c9d3"/><path d="m259.9 132.8c0-.1 0 0 0 0z" fill="#91c9d3"/><path d="m251 131.3-.2-.2z" fill="#91c9d3"/><path d="m248.9 128.9-.3-.3z" fill="#91c9d3"/><path d="m252 132.2-.2-.2z" fill="#91c9d3"/><path d="m251.5 131.8-.2-.2z" fill="#91c9d3"/><path d="m253.5 133.5-.3-.2z" fill="#91c9d3"/><path d="m249.7 129.9-.2-.3z" fill="#91c9d3"/><path d="m249.3 129.3-.2-.3z" fill="#91c9d3"/><path d="m250.6 130.9-.2-.3z" fill="#91c9d3"/><path d="m250.1 130.3-.2-.3z" fill="#91c9d3"/><path d="m260.2 133.3-.1-.2z" fill="#91c9d3"/><path d="m246.3 124.9c.9.1 1.8.1 2.8.1 1.2-.1 2.4-.3 3.6-.5l1.2-.2c-1.6-3.4-2.7-6.9-3.2-10.7-.3-2.2-.6-4.3-.9-6.5 0-.7-.5-1.4-1.2-1.5-3.4-1.1-4-1.8-4-5.3 0-2.2 0-4.4.2-6.5s-.5-1.9-2.1-1.5c-.7.1-1.3.7-1.5 1.5-.4 1.4-.5 2.6-.7 4-.5 5.6.5 10.9 1.8 16.2 1 4.6 2.7 9 5.3 12.9-.5-.7-1-1.4-1.3-2z" fill="#91c9d3"/><path d="m254.6 133.9h.4l.7-.1-.7.1c-.2 0-.3 0-.4 0z" fill="#91c9d3"/><path d="m252.5 132.7c.3.2.5.5.7.5-.3-.1-.5-.2-.7-.5z" fill="#91c9d3"/><path d="m225.7 116.9c-.1-.5-.2-1-.3-1.5 0 .6.1 1.1.3 1.5z" fill="#91c9d3"/><path d="m225.1 113.6c0-.3-.1-.5-.1-.8.1.2.1.5.1.8z" fill="#91c9d3"/><path d="m226.1 118.5c-.1-.4-.2-.7-.3-1 .1.3.2.7.3 1z" fill="#91c9d3"/><path d="m226.4 119.9c-.1-.2-.1-.3-.2-.5.1.3.2.4.2.5z" fill="#91c9d3"/><path d="m237.5 128.9.1.2z" fill="#91c9d3"/><path d="m225.1 113.7c0 .3.1.6.1.9 0 .2.1.3.1.5 0-.2-.1-.4-.1-.5 0-.2 0-.6-.1-.9z" fill="#91c9d3"/><path d="m226.1 112.7c.9 1.4 1.9 2.6 3 3.8.4.5.8.8 1.2 1.3 1.2 1 2.4 2 3.6 2.8-2.6-8.3-2.6-17-1.9-25.9-.6.1-1.3.5-1.6 1-1.8 1.9-3.2 4.2-4 6.7-1 3.3-1.5 6.7-1.2 10.2 0-.6-.1-1.2-.1-1.8.2.8.6 1.4 1 1.9z" fill="#91c9d3"/><path d="m239.3 132.6.6.1z" fill="#91c9d3"/><path d="m237.9 129.6c0 .1.1.1.1.2s-.1-.1-.1-.2z" fill="#91c9d3"/><path d="m239.3 131.8.1.2z" fill="#91c9d3"/><path d="m238.8 131.1.1.2z" fill="#91c9d3"/><path d="m237 124.4c-.4-.8-.7-1.6-1-2.5.3.9.6 1.7 1 2.5z" fill="#91c9d3"/><path d="m241 131-.2-.2z" fill="#91c9d3"/><path d="m240 129.7c-.1-.1-.1-.2-.2-.3.1.1.2.2.2.3z" fill="#91c9d3"/><path d="m240.4 130.3-.2-.3z" fill="#91c9d3"/><path d="m238.3 126.9c-.1-.2-.2-.3-.3-.5.1.3.2.4.3.5z" fill="#91c9d3"/><path d="m239.2 128.5c-.1-.1-.2-.2-.2-.4.1.2.1.3.2.4z" fill="#91c9d3"/><path d="m239.6 129.1-.2-.3z" fill="#91c9d3"/><path d="m243.7 133.2.8.2z" fill="#91c9d3"/><path d="m249.4 133.8h-.5z" fill="#91c9d3"/><path d="m245.8 133.7c-.5-.1-.8-.1-1.3-.2.4 0 .9.1 1.3.2z" fill="#91c9d3"/><path d="m241.7 124.1c.6.2 1.3.3 1.9.4l.8.1c-5-9.7-6-20.4-5-31.7l-2.5-.6c-1.5-.4-2.4.1-2.8 1.6-.5 1.7-.8 3.5-.9 5.2-.4 7.1.4 14.1 2.3 20.9.2.6.4 1.2.5 1.7.3.2.6.4.9.5 1.5.9 3.2 1.5 4.8 1.9z" fill="#91c9d3"/><path d="m237.9 126.3-.3-.5z" fill="#91c9d3"/><path d="m238.3 127c.2.3.4.6.5.9-.2-.3-.4-.6-.5-.9z" fill="#91c9d3"/><path d="m237.5 125.7c-.1-.2-.2-.4-.3-.5.1.1.2.3.3.5z" fill="#91c9d3"/><path d="m237.3 125-.3-.5z" fill="#91c9d3"/><g fill="#f9da58"><path d="m294.1 142.2-2.1-.5z"/><path d="m257.6 127.2-.4-.5z"/><path d="m276.5 137.4-.7-.2z"/><path d="m257.1 126.6c-.2-.2-.3-.5-.5-.6.1.1.3.4.5.6z"/><path d="m274.4 136.8-.7-.2z"/><path d="m258.1 128-.5-.6z"/><path d="m256.6 125.8-.4-.5z"/><path d="m255.3 123.6c-.1-.3-.2-.5-.4-.7.1.2.3.4.4.7z"/><path d="m254.9 122.8c-.1-.2-.2-.5-.3-.7.1.3.2.5.3.7z"/><path d="m256.1 125.1-.4-.6z"/><path d="m255.7 124.3c-.1-.2-.2-.4-.3-.5.1.1.2.3.3.5z"/><path d="m254.6 122c-.2-.5-.4-1-.5-1.5 0 .5.3 1 .5 1.5z"/><path d="m344.6 135.6-.5.4z"/><path d="m349.5 131.5-.6.5z"/><path d="m345.4 135.1-.8.5z"/><path d="m352.1 128.8c-.2.3-.4.5-.6.7.2-.3.4-.5.6-.7z"/><path d="m253.9 120.4-.3-.7c.1.2.2.5.3.7z"/><path d="m337.4 140.1-.7.4z"/><path d="m331.6 142.6-.5.2z"/><path d="m336.1 140.8-1 .5z"/><path d="m295.2 142.5-1.1-.3z"/><path d="m342.4 137.2-.8.5z"/><path d="m338.5 139.5-.7.4z"/><path d="m253.4 118.8-.2-.7z"/><path d="m323.9 49.8c0-.2 0-.1 0 0z"/><path d="m323.9 49.6c0-.1 0 0 0 0z"/><path d="m324 49.3c0-.1 0 0 0 0z"/><path d="m324 49.4c0-.1 0 0 0 0z"/><path d="m330.1 50.7c.1-.1.3-.1.4-.2-.1 0-.2.1-.4.2z"/><path d="m330.5 50.5c.1 0 .3-.1.4-.1-.1 0-.2.1-.4.1z"/><path d="m329.3 51.1c.1 0 .3-.1.4-.1-.2 0-.3 0-.4.1z"/><path d="m326.2 50.3.8.4z"/><path d="m329 51.1h.4z"/><path d="m325.3 49.8.5.2z"/><path d="m322.7 52.1.1-.2z"/><path d="m323.3 51c0-.1 0 0 0 0z"/><path d="m323.4 50.8c0-.1 0-.1 0 0z"/><path d="m330.9 50.4h.4c-.1 0-.3 0-.4 0z"/><path d="m290.4 56.4c1.5-1 3.1-1.9 4.7-2.6-1.7.7-3.3 1.6-4.7 2.6-.4.3-.6.4-.7.5 0-.2.3-.3.7-.5z"/><path d="m289.5 57.3c0 .1.1.2.1.3 0-.1 0-.2-.1-.3z"/><path d="m278.1 67.5-.3.2z"/><path d="m309.2 54.9.1-.2z"/><path d="m310.8 52.5c-.1.2-.2.4-.3.5.2-.1.3-.3.3-.5.2-.5.4-.9.4-1.4-.1.5-.2 1.1-.4 1.4z"/><path d="m310.3 50.5c-.3 0-.5-.1-.8-.1.2 0 .5 0 .8.1z"/><path d="m253.6 119.7c-.1-.3-.2-.5-.3-.7.2.1.3.4.3.7z"/><path d="m340.8 138.2.7-.5z"/><path d="m277.4 67.9c.1-.1.3-.2.4-.3-.1.2-.2.2-.4.3-.7.6-1.5 1.2-2.3 1.6.9-.4 1.7-.9 2.3-1.6z"/><path d="m269.5 135.4 1.4.4z"/><path d="m253 116.1c.6.5 1.3 1.1 1.9 1.6 1.5 1.2 3.2 2.5 4.9 3.5 1.6 1 3.4 1.9 5.1 2.6 4.8 2.1 9.8 3.7 15 4.9 5.2 1.1 10.4 1.8 15.7 2.3 8.7 1 17.7.3 26.2-2.1 3.4-1.1 6.6-2.4 9.7-4 2.1-1.1 4.1-2.4 6-3.9 2.7-2.1 5.3-4.4 7.5-7 2.3-2.7 4.3-5.6 5.9-8.7 3.1-6.2 5-12.8 5.7-19.8.4-3.2.5-6.4.5-9.6.2.3.3.5.5.8-5.6-10.8-14.3-19.7-25-25.6l.1.1-.4.7c-.2.2-.4.5-.6.6-.5.4-1.1.7-1.7 1-2.5.9-5.1 1.6-7.6 2.1l-2.4.4c-1.9 2.8-4.1 5.5-6.6 7.8-1.8 1.5-2.3 2.6-4.6 2.7-1.7 0-4-.9-4.8-2.5s-.1-2.8.8-4c.6-.8 1.4-1.6 2.1-2.5-1 .2-2.1.3-3.1.5-2 .5-3.9 1.3-5.6 2.3s-3.4 2.3-4.8 3.7c-1.5 1.4-2.7 2.9-3.8 4.6-.4 3.2-.7 6.4-.9 8.4-.1 1-.4 1.9-.9 2.7-.7 1.3-2.2 2-3.6 1.9-2.6-.1-4.2-1.7-4.2-4.6 0-1 0-2 .1-2.9-.4 0-.8 0-1.2.1-4.6.4-8.9 1.6-13 3.7-.8.5-1.6 1-2.5 1.6-1.6 1.3-3.3 2.5-4.7 4-.9.9-1.8 1.8-2.8 2.7-.5 0-1 .1-1.5.1.3 9.1-1.1 19-3.1 18.5-.4 1.1-.1 1.5.4 5.4.3 2.1.6 4.1 1.1 6.2l-.1-1c0 .3.1.5.3.7zm76.5-58c12.9-.2 33.3 24.3 12.1 11-7.9-5-27.1-10.8-12.1-11zm-19.5 9.7c3.3.1 6.5-.9 9.1-2.7.1 1-.5 2-1.5 2.4-2.3 1.3-4.8 1.8-7.4 1.7-.5 0-1-.1-1-.7s.4-.7.8-.7zm-52.4 28.3c.2.1.4.2.5.5.6 1.7-.5 5-2.4 6.6.5-2.3 1.4-4.3 1.3-6.5 0-.3.2-.5.5-.5 0-.1.1-.1.1-.1z"/><path d="m258 80.3c-.6.5-1.4.9-2 1.4l-.5.3.5-.3c.7-.6 1.4-1 2-1.4z"/><path d="m361.1 86.4c-.2-1.1-.5-2.3-.7-3.4-.1-.3-.2-.6-.4-.9.1.3.2.6.4.9.3 1.1.5 2.2.7 3.4z"/><path d="m358.6 78.5c.1.3.2.5.4.7-.3-.2-.3-.5-.4-.7z"/><path d="m358.9 79.3c.1.2.2.5.3.6-.1-.1-.2-.3-.3-.6z"/><path d="m359.3 80.2c.1.2.2.5.3.6 0-.1-.2-.3-.3-.6z"/><path d="m359.7 81.1c.1.2.2.5.3.6-.2-.1-.3-.3-.3-.6z"/><path d="m357.7 76.7.4.8z"/><path d="m358.1 77.6.4.7z"/><path d="m361.7 89.3c.3 1.8.5 3.5.6 5.2-.2-1.6-.4-3.3-.6-5.2z"/><path d="m362.2 104.7c-.1 1.1-.3 2.1-.4 3.1.2-1 .3-2 .4-3.1z"/><path d="m361.3 87.4c.1.3.1.5.2.8 0-.2-.1-.5-.2-.8z"/><path d="m362.5 101.6v.9c-.1-.2-.1-.6 0-.9z"/><path d="m332.2 50.7.4.2z"/><path d="m362.5 97.4v2.9c0-.9 0-1.9 0-2.9z"/><path d="m254.7 82.5.2-.2z"/><path d="m255.3 82 .3-.2z"/><path d="m259.2 79.5 1.9-1.3z"/><path d="m254.9 82.3.3-.2z"/><path d="m253.2 118c-.2-.5-.3-1.1-.5-1.6.1.5.3 1.1.5 1.6z"/><path d="m254.3 83c.1-.1.2-.2.3-.3-.1.1-.2.2-.3.3z"/><path d="m253.9 83.7c0-.1 0-.2.1-.3 0 .1 0 .2-.1.3z"/><path d="m273.8 70.3.5-.3z"/><path d="m280.2 68.8v.3c0-.1 0-.2 0-.3z"/><path d="m274.2 70 .6-.4z"/><path d="m289.5 57.3c0-.1 0-.2 0-.3z"/><path d="m300.8 51.5c.8-.1 1.6-.2 2.4-.3-.8.2-1.6.3-2.4.3z"/><path d="m310.8 50.7c.1.1.2.1.2.2-.1-.1-.1-.2-.2-.2z"/><path d="m310.5 50.5c.1 0 .2.1.4.2-.1-.1-.2-.2-.4-.2z"/><path d="m307.9 50.4h.8z"/><path d="m311 50.9c.1.1.1.2.1.3 0-.1 0-.2-.1-.3z"/><path d="m310.2 53.6c-.1.1-.2.3-.3.4.1-.1.2-.3.3-.4z"/><path d="m309.8 54.3-.3.3z"/><path d="m290 58.7c0-.1 0 0 0 0z"/></g><path d="m274.4 8.5.1.4z" fill="#ea493d"/><path d="m273.8 6.7c.1 0 .1.1.1.2 0-.1 0-.1-.1-.2z" fill="#ea493d"/><path d="m260.9 6.6c.4-.2.8-.3 1.3-.4-.4.2-.8.3-1.3.4z" fill="#ea493d"/><path d="m274.7 9.6.1.4z" fill="#ea493d"/><path d="m273.4 6.5.2.1z" fill="#ea493d"/><path d="m249.7 12.7c-.9.5-1.8 1.2-2.7 1.7 1-.7 1.8-1.2 2.7-1.7z" fill="#ea493d"/><path d="m253.8 10.1c2.3-1.4 4.6-2.5 7.1-3.5-2.4 1-4.8 2.1-7.1 3.5-1.4.8-2.7 1.6-4 2.5 1.3-.9 2.7-1.7 4-2.5z" fill="#ea493d"/><path d="m244.3 15.8c.9-.5 1.8-1 2.7-1.5-.8.5-1.7 1.1-2.7 1.5z" fill="#ea493d"/><path d="m275.1 11v.2z" fill="#ea493d"/><path d="m274.1 7.4c0-.2 0-.3-.1-.3 0 0 .1.1.1.3z" fill="#ea493d"/><path d="m273 6.3.3.1-.3-.1c-1.8-.8-3.9-1.1-5.9-.9 1.9-.2 3.9.1 5.9.9z" fill="#ea493d"/><path d="m273.5 12.2c-1.3-.1-2.5-.1-3.8 0-3.7.3-7.4 1.1-10.9 2.3-3.6 1.4-7 2.8-10.4 4.6-2.3 1.1-4.5 2.2-6.7 3.3-2.3 1-4.7 1.8-7.2 2.5l-.6.1c-.5.4-1.1.6-1.6.9-1.3.5-2.5 1.1-4.1 1.7 3.7 2.6 8.7 3 12.7 1 4.4-2 8.5-4.6 12.7-6.8 3.9-2.2 8-4 12.4-5.4 3.4-.9 6.9-1.3 10.4-1.1-.3-1-.5-2-.7-2.9z" fill="#ea493d"/><path d="m230.2 20.6c-.1-.1-.2-.2-.3-.3.2.2.3.3.3.3z" fill="#ea493d"/><path d="m231.2 21.1-.4-.2z" fill="#ea493d"/><path d="m230.8 20.9c-.2-.1-.3-.2-.5-.3.2.2.3.3.5.3z" fill="#ea493d"/><path d="m235.3 22.9c-.3-.3-.5-.4-.8-.5.2.2.5.4.8.5z" fill="#ea493d"/><path d="m235.3 23.3c0-.1 0-.2 0-.3z" fill="#ea493d"/><path d="m235.8 19.3.4-.1z" fill="#ea493d"/><path d="m229.8 20.1c-.1-.1-.1-.2-.1-.2s0 .1.1.2z" fill="#ea493d"/><path d="m238.7 18.4.5-.2z" fill="#ea493d"/><path d="m237 19c.5-.2 1.2-.4 1.7-.5-.6.1-1.2.3-1.7.5z" fill="#ea493d"/><path d="m233.2 19.7.7-.1z" fill="#ea493d"/><path d="m239.6 18 .7-.3z" fill="#ea493d"/><path d="m268.7 40.3c2.5-1.6 4.3-5.1 3.6-7.8-1-3.4-4.1-5.7-7.6-5.7-4.1.1-7.4 3.5-7.3 7.6 0 .5.1 1.1.2 1.6 2.1 6.5 8.4 6.2 11.1 4.3z" fill="#fff"/><path d="m263.3 46.1c-.5 1.5-.9 3.1-.9 4.7-.1 3.9.3 7.8 1.2 11.7.4 2 1 3.9 1.8 5.7.5 1.4 1.8 2.2 3.3 2 2.6-.2 7.1-3.3 9.8-4.6 2.1.1 3.1 1 3.1 3.2 0 2.5-.1 5-.2 7.5-.1.7 0 1.5.2 2.2.4 1.1 1.5 1.8 2.6 1.6 1.4-.2 2.4-1.2 2.7-2.5 1.1-6 1.1-9.4 1.6-17.3-.1-2.5-1.3-3.6-3.9-3.2-2.3.4-4.6.8-6.8 1.2-.7.1-1.7.7-2.1-.4s1.1-.6 1.4-1.3c-.1-1-1-1.8-2-1.7-.2 0-.4.1-.5.2-.7.2-1.5.3-2.2.4-.5 0-1 0-1.1-.6s.4-.8.9-.9c1.7-.3 3.5-.6 5.2-.9 2.5-.2 4.4-2.1 4.6-4.6.5-2.9.8-5.9 1.2-8.8.3-1 .3-1.9 0-2.9-.4-1.4-1.7-2.1-3-1.7-.2 0-.3.1-.4.2-1.2.1-1.9 6.5-2.2 8.7 0 1.7-1.3 3.1-2.9 3.3-2.6.5-5.3-.3-7.9-.5-.4 0-.7-.4-.7-.7v-.1c.1-.6.6-.6 1.1-.6 1.1.2 2.2.3 3.4.5 1.3.2 2.5.2 3.8-.1 1.4-.3 1.9-1.2 1.9-2.8 0-1.4-1-1.2-1.8-1.4-2.5-.5-4.6.4-7 1s-3.4 1.6-4.2 3.5z" fill="#fff"/><path d="m244.1 57.5c1.1-3.6-1.5-8.1-5.6-9.1-4.3-.9-8.6 1.6-9.7 5.9-1.1 4.6 1.6 8.2 4.6 8.8 5.6 1.9 9.3-1.3 10.7-5.6z" fill="#fff"/><path d="m219.7 78.4c-.1-.7-.4-1.4-.6-2-1-1.8-4-2.3-5.6-.9-1.2 1-1.3 2.1-.2 3.4 1.1 1.2 2.5 1.9 4.1 2.1 2.6.5 2.8.3 2.3-2.6z" fill="#fff"/><path d="m300 50c1.5 0 3.1-.2 4.6-.5 2-.5 4.1-.6 6.2-.5 1.5.3 1.7.8 1.8 2.3 0 .9-.3 1.7-.8 2.5-.8 1.5-5 6.2-5.7 7.4-1.1 1.7.6 3.4 2.5 3.7 1.7.2 4-2.5 5.5-4 2.8-2.9 5.3-6.2 7.3-9.8.9-1.6 1.9-2.7.5-3.8-1.5-1.1-2.8-2.4-4.8-2.8-.5 0-1.3-.5-1.6-.6-1.5-.5-3.3-1.4-1.7-4.2.8-1.2 1.5-2.5 1.8-3.9.1-.5.4-1 .9-.9s.5.7.5 1.2c.5 3 1.3 6 3.6 8.2 2.1 2 4.6 3.6 7.2 4.8 1.1.5 2.4.3 3.2-.6.6-.8.7-1.9.2-2.8-.9-2-2.8-3.1-4.4-4.6-1.4-1.3-2.1-3-2.1-4.9.1-2.7-.5-5.5-1.5-8-1.9-3.8-5.4-5.4-9.5-4.3-7.5 1.6-14.8 13.2-16 17.6-.5 1.9-.5 3.8-.3 5.7-.2 1.7.8 2.6 2.6 2.8z" fill="#fff"/><path d="m283 34.4c1.5 1.2 2.2 3.1 1.8 4.9-.1 1.5-.3 3.1-.5 4.6-.1.5-.2 1.1.4 1.3.5.3 1.2 0 1.5-.5.2-.5.4-.9.5-1.2.5-2.9.5-5.8.3-8.8-.1-.8.2-2.7-2.3-3.1-1 .1-1.8.6-2.3 1.5-.4.6.1 1 .6 1.3z" fill="#fff"/><path d="m222.6 81.6.6.1-1.3-.3c.2.1.4.2.7.2z" fill="#fff"/><path d="m247.9 67.9c.5 1.5 1.5 1.2 2.5 1 1.6-.4 3.2-.4 4.8-.7.7-.1 1.5-.4 2.1-.7 1.8-1.5 3.2-3.3 4.2-5.4.4-.7 0-3.6-.5-3.7-2.3-1.2-3.3 1.5-3.6 1.9-.7.9-1.5 1.8-2.5 2.5-1.2 1.1-2.3 1-3.9.5-2.1-.6-4.2-1.1-6.4-1.5-1.2-.2-1.5.3-2.5 1.1-1.7 1.4-3.9 2.1-6.1 2-.5 0-1.1-.4-1.5 0-1.3 1.2-2.8 1.8-3.8 3.3-1.2 1.7-2.5 3.3-4.2 4.6-1.6 1.5-3.4 2.7-5.9 2.6 0 .2.1.3.1.4l2.7.6-2.7-.6c.3 1.5.5 2.9.7 4.3 0 .4.2.7.5 1l1.3.3c1.5.2 3 .4 4.2-.7 1.5-1.4 3.6-2.4 3-5-.1-.4.1-.7.5-.8h.2c.4 0 .6.3.6.6.2 1.1.4 2.2.5 3.3.4 2.5.9 5.1 1.6 7.6.9 3.4 2.4 4.5 5.8 4.6.7 0 1.5 0 2.2-.2 3.7-.8 4.1-.5 4.1 3.4 0 2.3-.1 4.5 0 6.7.1 1.8 1 2.8 2.5 3 1.3.1 2.2-.1 2.8-2.1 1.5-4.9 1.7-10.1 1.5-15.3-.1-2.3-.6-2.8-2.8-3-2-.2-4-.5-6 .2-.7.3-1.5.2-2.1-.1-.3-.1-.5-.5-.5-.7.1-.2.3-.4.5-.4 2.9-.4 5.9-.9 8.8-.3 1.9.5 2.9-.5 4-1.8-.9-.6-1.8-.5-2.6-.7-.8-.3-1.9-.5-2.4-1.5-1.3-3.2-2.3-6.6-2.8-9.9-.1-.4.1-.6.4-.8.3 0 .6.1.7.4 0-.1 0 0 0 0z" fill="#fff"/><path d="m279.1 53.9c-.5.2-1 .4-.9.9s.3 1.4 1.1 1.5c.5 0 .9-.1 1.5-.2 2.5-.4 4.8-1.3 7.3-.5.5.1.8-.2.9-.6-.2-.1-.4-.3-.6-.3-2.7-.7-5.5-1-8.3-.9-.4-.1-.8 0-1 .1z" fill="#fff"/><path d="m259.9 132.8c-.4-.5-.7-.7-1-1.1-.3-.4-.5-.6-.8-1-.3-.4-.5-.6-.8-1v-.1c-.3-.4-.5-.6-.7-1-.3-.4-.5-.7-.7-1-.3-.4-.5-.7-.7-1.1-.2-.4-.5-.7-.6-1.1-.2-.4-.4-.7-.6-1.1l-1.2.2c-1.2.3-2.4.4-3.6.5-.9 0-1.9 0-2.8-.1.4.7.8 1.5 1.3 2.1l.3.4.1.1.3.4.1.2.3.4.2.2.3.3.2.2.2.3.2.2.2.3c.1.1.1.2.2.3l.2.3.2.3.2.3.3.3.2.2.3.3.2.2.4.3.2.2c.2.2.4.3.5.5.3.2.5.5.7.5l.3.2c.3.2.5.3.8.4.1 0 .2 0 .4.1h.4l.7-.1c.5 0 1-.1 1.5-.1 1 0 2-.2 3-.5l-.8-.7c.1 0 0-.1-.1-.2z" fill="#47a5b5"/><path d="m239.4 132-.1-.2-.4-.5-.1-.2c-.3-.5-.5-.9-.8-1.4 0 0-.1-.1-.1-.2s-.2-.4-.4-.5l-.1-.2c-.3-.5-.5-.9-.7-1.4v-.1c-.1-.2-.2-.5-.4-.6l-.1-.1c-.4-.7-.7-1.5-1-2.2-.5-1.3-1-2.5-1.4-3.8-1.3-.8-2.5-1.8-3.6-2.8-.5-.4-.8-.8-1.2-1.3-1.1-1.2-2.1-2.5-3-3.8-.4-.6-.7-1.3-1-1.9 0 .6 0 1.2.1 1.8 0 .3.1.5.1.8v.2c0 .3.1.6.1.9 0 .2.1.3.1.5l.1.4c.1.5.2 1 .3 1.5l.1.5c.1.4.2.7.3 1s.2.6.3 1c0 .2.1.3.2.5.2.5.4 1 .6 1.5.1.2.2.4.3.5 1 2.1 2.3 3.9 3.8 5.6.3.3.6.6.9.9 1.2 1 2.5 1.9 3.7 2.6.7.5 1.5.8 2.2 1.1l.5.2c.2.1.4.1.5.1l.6.1c-.1-.1-.3-.3-.4-.5z" fill="#47a5b5"/><path d="m249.6 132.6c-.3-.4-.5-.7-.8-1.1-.3-.4-.5-.7-.8-1.1-.3-.4-.5-.7-.8-1.1-1-1.5-1.9-3-2.7-4.6l-.8-.1c-.6-.1-1.3-.2-1.9-.4-1.6-.5-3.2-1.1-4.7-1.8-.3-.2-.6-.3-.9-.5.3.9.6 1.7 1 2.5v.1l.3.5c0 .1 0 .1.1.2.1.2.2.4.3.5l.1.2.3.5c0 .1.1.1.1.2.1.2.2.3.3.5s0 .1 0 .1c.2.3.4.6.5.9l.2.3c.1.1.1.2.2.4l.2.3.2.3.3.4c.1.1.1.2.2.3l.3.4.2.3.3.4.2.2.5.5c.4.5.9 1 1.5 1.4l.3.2c.2.1.4.1.5.2l.8.2c.5.1.8.2 1.3.2l.5.1c.5.1 1.1.1 1.6.1h.9.5c.4 0 .8-.1 1.3-.1-.9-.9-1.3-1.2-1.6-1.6z" fill="#47a5b5"/><path d="m324.2 25.2c2.6.5 4.5.3 6-1 1.3-1 2.3-2.4 2.7-4 1.6-4.9-2.7-9.4-8-8.9-3.8.3-6.6 3.6-6.5 7.5.3 3.3 2.4 5.7 5.8 6.4z" fill="#fff"/><path d="m329.8 53.7c.5-.3 1.1-.6 1.7-1 .2-.2.4-.5.6-.6l.4-.7-.1-.1-.4-.2-.4-.2c-.3-.2-.6-.3-1-.3-.1 0-.2 0-.4 0-.1 0-.3.1-.4.1s-.3.1-.4.2c-.2.1-.4.2-.5.3-.1 0-.3.1-.4.1h-.4-.2-.4c-.1 0-.3 0-.4-.1-.3-.1-.5-.1-.7-.3l-.3-.2-.8-.4-.5-.2-.5-.2-1.4-.6v.1.1s0 0 0 .1v.1.1.1.1.1.1.1.1.1.1.1.1.1.1l-.1.1v.1.1.1l-.1.1-.1.1s0 .1-.1.1l-.1.1s0 .1-.1.1l-.1.1s0 .1-.1.1l-.1.1-.1.2-.1.1-.1.2-.1.1c0 .1-.1.1-.1.2l-.1.1-.1.2-.1.1-.1.2-.1.1-.1.2-.1.1-.1.2-.1.1-.1.2v.1l-.1.2v.1l-.1.2v.1l-.2.2v.1c0 .1-.1.2-.2.2l-.2.3c-.1.1-.1.2-.2.3-.1.1-.1.2-.2.3l2.4-.4c3.4-.9 5.8-1.7 8.1-2.5z" fill="#eacb47"/><path d="m293.4 64.6c1.5-1.5 3.1-2.7 4.8-3.7s3.6-1.8 5.6-2.3c1-.2 2.1-.4 3.1-.5l2.1-2.5.1-.2.2-.3.3-.3.2-.3c.1-.1.2-.3.3-.4s.2-.4.3-.5.2-.4.3-.5c.2-.5.4-.9.4-1.4 0-.1-.1-.2-.1-.3-.1-.1-.1-.2-.2-.2-.1-.1-.2-.1-.4-.2l-.2-.1c-.3 0-.5-.1-.8-.1h-.8-.8c-.5 0-1 .1-1.5.2-1.1.2-2.1.5-3.2.6-.8.1-1.6.2-2.4.3h-.7c-.3 0-.6.1-.9.2l-.3.1c-1.3.6-2.5 1.2-3.8 1.8-1.6.7-3.2 1.6-4.7 2.6-.4.3-.6.4-.7.5v.1.3c0 .1.1.2.1.3s0 .1.1.1v.1.1.1.1.1.1s0 .1 0 .2v.2s0 0 0 .1v.2.1.2.3.2.1.2.1.3.1.2 1 .4.1.3.1.3.1.3.1.3.1.4.4.1.3.3.3.1.1c0 .3 0 .5-.1.8v.1.4.1.4.1.4c0 .3-.1.5-.1.9 1-1.8 2.4-3.3 3.8-4.7z" fill="#eacb47"/><path d="m258.1 83.9c1.5-1.5 3.1-2.7 4.7-4 .7-.6 1.5-1.2 2.5-1.6 4-2.1 8.5-3.4 13-3.7.4-.1.8-.1 1.2-.1 0-1.5.1-3.1.2-4.7v-.1c0-.1 0-.2 0-.3 0-.2 0-.4 0-.5 0-.2 0-.3-.1-.5 0-.1-.1-.1-.1-.2-.1-.1-.2-.2-.3-.3-.1 0-.2-.1-.3-.1-.2 0-.4 0-.5 0s-.2 0-.3.1c-.2 0-.3.1-.5.2l-.3.2c-.1.1-.3.2-.4.3-.7.6-1.5 1.2-2.3 1.6l-.3.2-.6.4-.5.3c-.4.2-.7.4-1 .5-1.1.6-2.2 1.3-3.2 1.9-2.8 1.7-5.6 3.6-8.4 5.5l-1.9 1.3-1.2.8c-.6.5-1.4.9-2 1.4l-.5.3-.3.2-.1.1-.3.2-.2.2-.2.2c-.1.1-.2.2-.3.3s-.2.3-.3.5c0 .1-.1.2-.1.3-.1.5.1 1.1.4 1.5v1.2c.5-.1 1-.1 1.5-.1 1.1-1.6 2-2.6 3-3.5z" fill="#eacb47"/><path d="m361.6 109.2c.1-.5.2-1 .3-1.4.2-1 .3-2 .4-3.1.1-.7.1-1.5.2-2.2 0-.3 0-.6 0-.9s0-.8 0-1.3c0-.9 0-1.9 0-2.9s-.1-1.9-.2-2.9c-.1-1.6-.4-3.4-.6-5.2-.1-.4-.1-.7-.2-1.1s-.1-.5-.2-.8-.1-.7-.2-1.1c-.2-1.1-.5-2.3-.7-3.4-.1-.3-.2-.6-.4-.9 0-.1-.1-.2-.1-.3-.1-.2-.2-.5-.3-.6l-.1-.3c-.1-.2-.2-.5-.3-.6 0-.1-.1-.2-.1-.2-.1-.2-.2-.5-.3-.6l-.1-.2c-.1-.3-.2-.5-.4-.7l-.1-.1-.4-.7v-.1l-.4-.8c-.1-.3-.3-.5-.5-.8 0 3.2-.2 6.4-.5 9.6-.7 6.8-2.6 13.6-5.7 19.8-1.6 3.1-3.6 6.1-5.9 8.7s-4.7 4.9-7.5 7c-1.9 1.5-3.9 2.8-6 3.9-3.1 1.6-6.4 2.9-9.7 4-8.5 2.4-17.4 3.1-26.2 2.1-5.3-.5-10.5-1.2-15.7-2.3-5.1-1.2-10.2-2.8-15-4.9-1.7-.7-3.5-1.6-5.1-2.6-1.7-1.1-3.3-2.3-4.9-3.5-.6-.5-1.3-1-1.9-1.6-.2-.2-.4-.4-.5-.5l.2.8v.1c.1.5.3 1.1.5 1.6v.1l.2.7v.1c.1.3.2.5.3.7v.1l.3.7v.1c.2.5.4 1 .5 1.5 0 .1 0 .1.1.2.1.2.2.5.3.7.1.2.2.5.4.7l.1.2c.1.2.2.4.3.5 0 .1.1.1.1.1l.4.6c0 .1.1.1.1.2l.4.5c0 .1.1.1.1.2.2.2.3.5.5.6l.1.1.4.5.1.2.5.6c2.6 3.3 5.6 6.2 9.9 7.1.5.1.9.2 1.5.3l1.4.4c.9.3 1.8.5 2.7.8l.7.2 1.4.5.7.2c.9.3 1.8.5 2.7.8 4.2 1.2 8.5 2.4 12.7 3.5l2.1.5 1.1.3c2.2.5 4.3 1 6.5 1.4l1.1.2c.7.1 1.5.3 2.2.4.4.1.7.1 1.1.2.7.1 1.5.2 2.2.3 1.8.2 3.6.4 5.5.5 1.5.1 2.9.1 4.4 0 .7 0 1.5-.1 2.2-.1 3.6-.3 7.2-1 10.7-2.2l.5-.2.5-.2c1-.4 2.2-.8 3.6-1.5l1-.5.7-.4.7-.4.4-.2.7-.4c.4-.2.7-.4 1.1-.6l.7-.5.4-.2.7-.5.8-.5c.4-.3.8-.5 1.2-.8.3-.2.5-.4.7-.5l.5-.4.8-.5.4-.3c.4-.3.8-.6 1.2-.9s.8-.6 1.2-1l.7-.7.6-.5.5-.5.4-.4.7-.8c.1-.1.3-.3.4-.4s.5-.5.6-.7c.2-.3.4-.4.5-.5.5-.5.9-1.2 1.4-1.7 3.2-5.4 5.8-11.2 7-17.5z" fill="#eacb47"/><path d="m234.3 24.9c2.5-.6 4.8-1.5 7.2-2.5 2.3-1.1 4.6-2.2 6.7-3.3 3.4-1.7 6.8-3.2 10.4-4.6 3.6-1.2 7.2-2 10.9-2.3 1.3-.1 2.5-.1 3.8 0l1.9.2c-.1-.5-.2-.8-.4-1.3v-.1c-.1-.4-.2-.6-.3-1l-.1-.4c-.1-.3-.1-.5-.2-.8l.1-.4-.3-1.1c0-.1 0-.2-.1-.2l.1-.2c0-.1-.1-.1-.1-.2-.1-.1-.2-.1-.2-.2l-.2-.1c-.1 0-.1-.1-.2-.1l-.3-.1c-1.8-.8-3.9-1.1-5.9-.9-.5 0-.9.1-1.4.1-1.2.2-2.3.4-3.5.7-.4.1-.8.3-1.3.4-2.5.9-4.8 2.1-7.1 3.5-1.4.8-2.7 1.6-4 2.5-.9.5-1.8 1.2-2.7 1.7s-1.8 1.1-2.7 1.5c-.5.3-1 .5-1.5.7l-1.5.7-.4.2-.6.3-.7.3-.5.2-.5.2c-.5.2-1.1.5-1.7.5l-.9.2-.4.1-.5.1-.8.2-.5.1-.7.1h-.4c-.5 0-.8 0-1.3 0s-.8-.1-1.3-.2c-.1 0-.1 0-.2 0h-.1c-.1 0-.1.1-.2.1l-.1.1c0 .1-.1.1-.1.2 0 .1.1.2.1.2l.2.2c.1.1.2.2.3.3l.1.1c.2.1.3.2.5.3l.4.2.1.1c1 .5 2 1 3.1 1.4.4.1.6.3.8.5l.1.1v.3c-.2.3-.4.5-.6.8-.2.1-.3.3-.5.4l-.1.1-.5.4z" fill="#e55353"/><path d="m191.1 117.9c1.9-.7 2.6-3.2 4.2-4.6s-5.2.7-6.6 1.2c-.9.3-1.5 1.1-1.3 2 .2 1 1.2 2.3 3.7 1.4z" fill="#fff1d2"/><path d="m202.1 108.1c.9.7 7.2-1.7 6.5-2.6-1.9-2.5-11.7-1.3-6.5 2.6z" fill="#fff1d2"/><path d="m341.6 69.1c21.1 13.3.8-11.2-12.1-11-15 .2 4.2 6 12.1 11z" fill="#fff8d9"/><path d="m32.7 178.7c-2.5 0-3.7-.9-4.2-3.1-.4-3-.6-6.1-.5-9.3.1-3.4 0-6.4-.4-9-.2-1-.4-1.6-1.4-1.6-1.1 0-1.3.4-1.6 1.4-.8 3.5-1.3 7.4-1.3 11.6-.1 1.3-.2 2.7-.4 4l-.3 2.6c-.3 1.9-1.7 3.3-3.6 3.4-.2 0-.5 0-.7 0-2.9 0-4.5-1.2-4.7-3.7-.3-3-.3-6.1 0-9v-.5l.1-.9c.5-5.5.9-11.2 1.7-16.8.5-4.6 1.6-9 3.2-13.1.6-1.8 1.8-3.5 3.5-4.9l.2-.1-.2-.2c-.1-.1-.2-.2-.4-.3 0 0-.1-.1-.1-.1s-.1 0-.1-.1c-4.6-3.2-6-8.9-3.4-13.9 1.4-3 5.1-5.1 8.8-5.1.6 0 1.3.1 1.9.2.2 0 .4.1.6.1.7 0 1.3-.3 1.6-.8.6-.6 1.1-1.2 1.7-1.8 1.1-1.2 2.7-1.8 4.4-1.8.3 0 .6 0 .9.1.2 0 .4 0 .6.1.2 0 .3 0 .4.1.1 0 .3.1.4.1h.1v-.1c.9-2.5 1.7-5 2.8-7.3 1.1-2.5 2.2-3.4 4-3.4.6 0 1.3.1 2.1.3.5.1 1 .3 1.3.5.1.1.1.1.2.1.1.1.2.1.3.1.3 0 .6-.2.8-.4.1 0 .1-.1.2-.2 1.4-1.7 2.6-2.9 3.7-3.8.4-.2.7-.6.3-1.8l-.1-.4c-.4-1.4-.6-2.2-.3-2.8s1.2-.8 3.1-1.2c1.7-.3 3.4-.8 5.1-1.3 1.4-.4 3.2-.9 5.1-1.4.4-.1.8-.2 1.2-.2 2 0 2.2 1 2.4 2.5v.9h.2c3.7.4 7.5 1 10.7 3.4l.1.1c.3.2.5.3.8.3s.6-.2.8-.4c1.1-1 2.4-1.6 3.6-1.6.5 0 .9.1 1.3.3l.1.1c2.6 2.5 4.9 5.3 7.1 8.5.7 1.3.9 2.5.7 3.4-.3.8-.9 1.4-1.7 1.8-.3.3-.4.4-.3 1l.9 7.8c0 1 .7 1.9 1.5 2.1 2.7 1 2.8 2.2 2.2 4.6-.2.7-.3 1.2-.4 2 0 .2-.1.4-.1.5 0 .2 0 .3-.1.5-.2.5-.3 1.1-.4 1.6v.2c-.1.3-.1.5-.2.8-.3 1.5-.6 3.1-1.4 4.4l-.1.2.2.1c.2.1.3.1.5.1s.3 0 .5-.1c.3-.1.5-.1.8-.1.8 0 1.7 0 2.5-.1.6 0 1.2-.1 1.8-.1 1 0 1.8.1 2.6.4.1.1.3.1.5.1.5 0 .9-.4 1-.7.5-.7 1-1.1 1.7-1.1.4 0 .9.1 1.4.4l1 .5c2.7 1.3 5.5 2.7 6.8 5.9l.1.2c.4 1 .8 1.9-.4 2.9l-.6.6h.8l.1-.1c.7-.8 1.5-1.2 2.4-1.2s1.7.3 2.6.7c.2 0 .4.1.6.2 2.3.8 4.2 1.6 6 2.7.7.3 1.5.5 2.1.5s1.2-.1 1.8-.4c3.4-1.3 6.2-3.8 7.7-7.1v-.3c.1-.2.2-.3.2-.5v-.1l-.1-.1c-.1-.1-.2-.1-.3-.2-.1 0-.1 0-.2-.1h-.1c-2.6-.4-4.6-1.6-5.9-3.6-1.9-2.9-1.9-6.8-1.1-9.6.9-3.5 5.5-6.3 10.3-6.3.8 0 1.6.1 2.3.2 5.1 1.1 7.5 6.4 7.6 9.8.1 3.5-.9 6-3.2 7.7l-.2.2.2.2c3.4 2.7 4.8 6.7 5.7 10.2 1.4 5 2 10.1 1.8 14.7 0 4.3-.7 15.7-2.7 21.4-.5 1.1-1.7 1.6-3.5 1.6-.1 0-.3 0-.5 0-3.2-.3-3.8-1.4-3.8-3.6.1-1.7.6-5.4 1.1-8.7l.2-1.3c.3-2.5.6-4.7.6-5.5v-.3c.1-.8 0-1.3-.2-1.5-.1-.1-.3-.2-.5-.2-.9 0-1.1.5-1.4 1.5l-.1.3c-.5 1.7-.8 3.4-1.1 5.1-.1.7-.3 1.4-.4 2.1l-.3 1.8c-.5 2.7-1.1 5-1.8 7.2-.4 1.6-1.8 2.9-3.4 3.1-.2 0-.4 0-.6 0-2 0-3.4-.4-4.2-1.3-.5-.5-.8-1.4-.7-2.2.2-1.6.4-3.2.9-5.2l.6-2.7c1.4-6.1 2.5-11.4 3.3-16.1v-.2h-.2c-.1 0-.2.1-.2.1s-.1.1-.1.1c-.1.1-.1.1-.1.1-.1 0-.1.1-.2.1-4.3 2.6-7.5 3-13.6 3.1h-.6c-.2 0-.4-.1-.5-.1-.4 0-.4.2-.5.5-.3.6-.6 1.3-.9 2-.1.2-.2.4-.3.7-.1.2-.2.4-.3.6-.4 1.1-1.4 1.7-2.6 1.7-.2 0-.4 0-.7-.1-.1 0-.2 0-.3 0-.9 0-1.8.4-2.3 1.2-2 2-4.1 4.1-7 4.7-.5.1-.7.5-.7 1.2.1 1.3-.7 2.4-1.9 2.8-1.5.4-3.2.7-4.8.7-1.5 0-3.1-.2-4.6-.6-2.2-.7-2.7-.8-2.8-3.1 0-.9-.1-1.2-1.1-1.4-2.4-.6-4.6-2.1-6.3-4.5-.4-.6-.7-.9-1.1-.9-.2 0-.4.1-.7.2-.3.2-.7.3-.9.3-.1 0-.2 0-.3 0-.3-.1-.6-.4-.9-1-1.7-3.4-2.9-6.9-3.7-10.3-.1-.1-.1-.3-.1-.5-.1-.3.1-.8.3-1.1.3-.3.6-.5 1-.5.8-.2 1.3-.8 1.5-1.5.2-1.7 1-3.2 1.8-4.5l-.3-.2c-.1.1-.3.2-.5.3l-.2.1c-2.1 1.2-4.4 2.1-6.7 2.6l-1.5.3c-.7.1-1.4.3-2 .5-.4.1-.7.2-1.1.2-.5 0-.8-.1-1.2-.4-.7-.4-1.2-1.3-1.3-2.5v-1.1c0-.3 0-.5-.1-.8-.3-.3-.6-.3-.9-.3-3.2-.2-6-.9-8.9-2.2-.3-.2-.6-.3-.9-.3-.5 0-1 .2-1.4.6-.5.6-1.1.9-1.7.9-.5 0-1-.2-1.6-.6-2.5-1.5-4.4-2.9-6-4.5l-.1-.1c-.1-.1-.2-.2-.2-.2-.1-.1-.2-.3-.4-.3h-.2v.2s0 0-.1 0c-.9.8-1.9 1.5-2.9 2.1l-.6.4c-1.7 1.1-3.5 2.3-5 4-.7.7-1.1 1.6-1.2 2.5-.3 5.7-.5 10.6-.5 16.6 0 1.9 0 3.9.1 5.7.1 3.7.2 7.6-.1 11.6-.1 1.5-1.2 3.7-2.9 3.9-.2-.1-.7-.1-1.2-.1zm-6.6-26c2.6.1 3.2 1.8 3.6 3.4v.3.2.2c0 .1.1.2.1.3.1 1.2.2 3.6.2 6.4 0 .9 0 1.8.1 2.6.1 2.8.1 5.4.3 6.8.5 3.1 1.2 3.3 3.2 3.3h.2c.2 0 .4-.1.5-.3 1.5-1.5 1.3-7.5.9-13.7v-.7c-.1-1.5-.2-2.9-.2-3.8 0-1 0-2 0-2.9 0-1 0-2 0-3v-.1c.1-3.8.2-7.7.5-11.7.1-1.3.7-2.6 1.8-3.5 2.1-1.8 4.5-3.6 6.9-5.2.9-.6 1.4-1.1 1.8-1.7 1.8-3.1 2.9-6 3.6-9.3.4-1.3.6-2.3.1-3.1l-.1-.1h-.1s0-.1-.1-.1c-.4-.5-1-.8-1.5-.8s-1 .2-1.5.5c-.5.5-1 1-1.3 1.8-.7 1.4-1.4 2.9-1.9 4.4-.5 1.7-1.7 3.3-3.3 4.5-3.4 2.1-7.5 3.1-12.3 3.1-.6 0-1.2 0-1.9-.1h-.6c-1 0-2 .5-2.8 1.2-1.1 1.1-1.9 2.3-2.4 3.8-1.4 4.3-2.4 8.5-2.8 12.5l-.6 5.4c-.1 1.2-.2 2.4-.4 3.6-.3 2.8-.6 5.8-.8 8.6v.7.7c-.2 2.3-.4 4.7.2 7.1.1.7.4 1.2.9 1.7.5.4 1 .6 1.5.6h.3c1.1 0 2.1-.8 2.2-1.9.1-.6.3-2.3.5-4.6.6-7.2 1.1-11.7 1.5-13.8.9-2.4 2.4-3.3 3.7-3.3zm123.2 1.5c1.5.3 2.4 1.5 2.4 3.3 0 2.1-.7 8.2-1.2 12.3-.1 1.1-.2 2-.3 2.7l-.1.8c0 .7.1 1.7.5 2.2.3.3.5.3.7.3.5.1.9.1 1.2.1 1.4 0 1.6-.8 1.9-1.8l.2-.2c1-2.9 2.4-13.8 2.2-21.5 0-2.1-.3-4.4-.8-7-.6-3.4-1.6-6.6-2.9-9.4-1.5-3.4-3-4.5-5.9-4.5-.4 0-.9 0-1.5.1-1.1 0-2 .6-2.7 1.6-.2.4-.4.8-.7 1.2-.2.2-.3.5-.5.8-.5.6-.9 1.2-1.2 1.9-.9 2-2.1 4-3.8 6.3-1.8 2.1-4.2 3.6-6.8 4.1-1.5.2-3.1.5-4.7.9-.5.2-1.5.5-1.4 1.5 0 .9.6 1.8 1.5 2.1.3.1.5.1.8.1s.5 0 .8-.1c3.4-.2 6.6-.9 9.7-2.1 1.2-.4 2.2-1.1 3.1-2.1.4-.6.9-1.2 1.3-1.7.2-.3.5-.6.7-.9 1.2-1.5 2.1-2.7 2.9-4 .1-.2.4-.5.7-.6.2 0 .3-.1.4-.1s.2 0 .3.1c.2.1.3.2.3.4.1.3 0 .6-.2.9-.8 1.2-1.8 2.6-2.9 3.6s-1.6 2.2-1.6 3.6-.1 2.6-.5 3.8c-.9 3.5-1.6 7.2-2.3 10.7l-.2.9c-.2 1.1-.5 2.2-.7 3.3-.2 1.2-.5 2.3-.7 3.4 0 0-.7 3 .1 4.1.1.3.3.5.7.5.3 0 .6.1.8.1 1.8 0 2.3-.9 2.8-1.9l.1-.1c.6-1.2 1.5-5.5 2.4-9.6v-.2c.7-3.4 1.2-5.8 1.5-7 .2-1.5 1.5-2.7 3.1-2.7zm-61.5 1.8c.1 0 .2.1.3.2 1.4 3 4.2 5.4 7.3 6.2 1.2.4 2.1.8 1.9 2.4-.1.9.1 1.5 1.4 1.8 1.2.2 2.5.4 3.8.4s2.5-.1 3.8-.4c.9-.1 1.5-.6 1.3-2.3 0-.4 0-.8.3-1.1.2-.2.5-.3.7-.3l.1.1h.1c2.7-.2 5-1.7 7-4.7.5-.9 1.1-1.3 2-1.3.2 0 .4 0 .6.1h.3c.4.1.6.1.8.1.5 0 .9-.2 1.1-.7.3-.3.5-.6.7-1.1l.1-.1c.9-1.5 1.9-3 .8-4.9-.6-.7-.5-1.7.1-2.4.3-.4.4-.8.4-.9 0-.2-.1-.4-1-.8l-.3-.2h-.1c-.1 0-.1 0-.1 0l-.2-.1c-.2 0-.2 0-.2-.1l-.1-.1h-.1s-.1-.1-.1-.1l-.2-.1-.2-.2-.2-.2c0-.1-.1-.1-.2-.2l-.1-.1c0-.1-.1-.1-.1-.1 0-.1-.1-.2-.1-.2-.1-.1-.1-.2-.2-.4-.2-.5-.3-1-.4-1.4v-.2c-.1-1.7-1.1-3.3-2.6-4.1l-.1-.1c-.4-.3-.9-.7-.9-1.2 0-.4.2-.7.6-1.2l.3-.3c.3-.3.5-.8.5-1.2.1-.3 0-.7-.3-1.2-1.6-2.4-4-3.5-6.3-4.4h-.2c-.1 0-.2-.1-.3-.1s-.2 0-.4.1-.3.3-.4.5c-.4.7-.8 1-1.5 1-.3 0-.6-.1-.9-.1-1.3-.2-2.7-.4-4-.4s-2.7.1-4 .4c-.4.1-.8.1-1.1.1-.8 0-1.6-.2-2.4-.6l-.3-.2c-.6-.3-1.1-.5-1.5-.5s-.7.1-1 .5c-.9.9-1.9 1.7-2.9 2.6-.3.3-.7.6-1.1.9-.3.3-.7.6-1.1.9l-.2.1.1.2c.1.2.2.3.4.5.1.1.2.3.3.4l.1.2c.7.9 1.1 1.4.7 1.9l-.1.1c-1 .8-3.7 5.8-3.6 7.7.1.2.1.4.1.5.1.3-.1.9-.3 1.2-.2.4-.6.6-1.2.7-.1 0-.1 0-.2.1h-.1c-.3.1-.6.3-.7.6-.2.3-.2.7-.1 1 0 .5.2 1 .4 1.5.1.2.1.5.2.7l.2.6c0 .1.1.2.1.3s.1.2.1.3.1.2.1.3.1.3.1.4v.1.1c0 .2.1.3.1.3v.2h.1l.2.5v.1c0 .1 0 .4.2.5l.1.1.2.4.4.3h.1v.2h.1l.3.6.1.1v.1c.2.3.5.5.8.5.1 0 .3 0 .4-.1.2-.1.3-.2.6-.3.2-.1.3-.1.5-.2l.4-.2h-.1zm36.2-10.9s0 .1 0 0c.1.1.1.2.2.3.3.5.8.8 1.5.8.3 0 .7-.1 1.2-.2l.5-.2-.5-.2c-.5-.2-1-.4-1.5-.5-.2 0-.4-.1-.5-.2-.2-.1-.4-.1-.6-.2l-.7-.2zm-4.2-7.8c-.2 0-.4 0-.5.2s-.3.6 0 .9l.2.6c.5 1.2.9 2.4 2.3 2.8 1.5.5 3.3 1.2 5 1.9.4.1.9.3 1.3.5s.8.3 1.3.5c.1.1.4.2.6.2.1 0 .3 0 .4-.1 3.1-1 4.9-2.4 5.8-4.6l.2-.4-.5.2c-.8.3-1.6.6-2.3 1-.6.4-1.3.6-2.1.6s-1.7-.2-2.5-.7c-.9-.6-2-1.1-3.5-1.8-.4-.2-.8-.4-1.2-.5-.4-.2-.8-.3-1.2-.5-.9-.4-1.9-.6-3.1-.7zm-61-4.2c.4 0 .9.1 1.4.4 3.1 1.4 6.4 2.8 10.3 2.8.5 0 1.2 0 1.5.4.2.4.2.9.2 1.3v.1.1.3.2.5c0 .8.1 1.2.3 1.5.2.2.5.2.7.2s.4 0 .7-.1c3-.5 5.2-1.1 7.1-2 .1 0 1.5-.4 1.7-1.1 0-.4-.2-.8-.7-1.5l-.1-.1c-.2-.3-.4-.7-.3-1.1.2-.4.5-.7.9-.9.8-.4 1.6-1 2.3-1.5.4-.3.8-.5 1.2-.8.3-.2.7-.5 1-.7.6-.5 1.3-.9 1.9-1.3l1.5-1.5c.5-.6 1-1.1 1.5-1.5l.1-.1c.2-.2.5-.5.9-.5.2 0 .5.1.8.3.5.4 1 .8 1.4.8.3 0 .6-.5 1-1.1l.1-.2c.8-2.3 1.5-4.9 2.2-8.1.5-2.1.1-2.4-2.3-3.1-.2-.1-.2-.1-.4-.1h-.5c-.8-.2-1.2-.8-1.2-1.7v-5.8l-.1-.1s0-.1 0-.2l-.1-.6v-.4l-.1-.1s0-.1 0-.2l-.1-.8v-.3l-.1-.1s0-.1 0-.2l-.2-.6c0-.1 0-.2-.1-.3v-.1l-.1-.1v-.2h-.1c0-.2 0-.3-.1-.5v-.1l-.1-.3s0-.1 0-.2c0-.2 0-.3 0-.5.1-.1.2-.2.3-.2h.8c.2 0 .5-.1.7-.2.3-.1.5-.4.6-.7.1-.4.1-.8 0-1.1l-.3-.7-.9-1.5-.3-.3-1-1-.7-1-.7-.7c-.3-.3-.7-.7-.9-1-.3-.4-.7-.8-1.1-1.2l-.2-.2c-.5-.4-1-.8-1.6-.8-.8 0-1.7.6-3 1.7l-.2.1c-.4.3-.9.6-1.4.6-.3 0-.7-.2-1-.5-2.9-2.8-6.5-3.3-10.5-3.5h-.4c-1.4 0-1.4-.2-1.5-1.8 0 0 0-1.4-.5-1.7-.1-.1-.2-.1-.3-.1-.2 0-.5.1-.8.1-1.2.4-2.5.7-3.7 1.1l-.8.2c-1.2.4-2.5.7-3.7 1.1h-.9c-1 .2-1.6.4-1.7.8-.2.3 0 .8.2 1.4l.1.2c.7 1.4.4 2.4-.9 3.2-1.4 1-2.7 2.3-3.6 3.6-.7 1.2-1.2 1.6-2 1.6-.4 0-.9-.1-1.7-.4l-.3-.1c-.4-.1-.7-.2-1-.3-.5-.1-.9-.2-1.2-.2-1.1 0-1.8.8-2.4 1.9-.9 1.9-1.7 3.8-2.4 5.7-.5 1-.7 2.3-.7 3.8 0 .4 0 .8.3 1 .1.1.3.3.5.3 2.3 0 2.5 1.9 2.6 2.9v.1c0 .6.1 1 .2 1.4l.1.2.8-.4c.7-.4 1.4-.6 2.2-.6 1.3 0 2.4.5 3.3 1.5 1.5 1.6 1.2 3.4.7 5.1-.3 1.6-.7 3.1-1.4 4.8l-.3.7v.1c0 .1-.1.1-.1.2s0 .1-.1.1c0 .1 0 .1-.1.1-1 2.1-.7 3.2 1.2 4.8.2.2.5.4.7.5.5.4 1 .8 1.6 1.1.2.1.4.3.6.4s.4.3.6.4c.5.4 1 .6 1.4.6.6 0 .9-.4 1.2-.7.5-.4 1.1-.7 1.6-.7zm26.2 2c-.1 0-.4 0-.5.2s-.2.3-.2.4v.1c.2.3.3.5.4.8 0 0 0 .1.1.2v.1c.2.4.2.9.1 1.4l.4.1c0-.1.1-.2.2-.3s.2-.2.2-.3l.2-.3c.1-.1.1-.2.2-.4 0-.1.1-.2.1-.3.1-.4 0-.8-.2-1.2-.3-.1-.6-.4-1-.5zm58-21.6c-3.7.2-7.1 2.9-7.5 6.2-.7 4.2.7 7.4 4.1 8.8 1.3.8 2.9 1.2 4.4 1.2 1.9 0 3.8-.6 5.3-1.8 1.7-1.3 2.8-3.6 2.9-6.1-.3-2.8-1.4-5.1-3.2-6.6-1.4-1.2-3.1-1.8-5.1-1.8h-.9zm-115.7-1.7c-1 0-1.8.2-2.9.5-2.1.8-3.8 2.3-4.7 4.3-1 2.1-1.1 4.3-.3 6.3.9 2.6 2.6 4.1 5.8 5.2 1.1.4 2 .5 2.8.5h.6c2.2-.1 4.1-1 5.6-2.7 1.4-1.6 2.1-3.7 2-6-.3-6.6-5.7-7.8-8-8zm11.7 1.2-.2.2c-.2.3-.5.7-.9.9-.8.5-1 1.6-.6 2.5.8 1.7.7 3.4.5 5.3v.5c-.1 1.6-.9 3-1.6 4.3l-.1.2.3.2h.1c.1 0 .2-.1.3-.1 2.2-.9 4.3-1.9 5-4.6.1-.3.2-.7.5-1l.2-.3c.5-1.2.9-2.2 1.1-2.8.1-.3.3-.8.3-.8v-.1c-.4-1.1-.7-2.1-.8-3.2 0-1.1-.6-1.7-1.9-2.1h-.2c-.1-.1-.4-.1-.6-.1s-.3 0-.6.1c-.4.1-.7.4-.8.9zm-1.7-5.5c-1.5 0-3.9 1.7-4.6 3.2-.1.2-.2.4 0 .6 1.2 1 2.2 1.7 3.1 2.2l.2.1.1-.2c.1-.2.3-.5.5-.7.1-.1.2-.2.3-.3.7-.8 1.4-1.7 1.9-2.5.2-.4.5-.9.4-1.4-.3-.5-.8-.8-1.5-.9z" fill="#4c4c4c"/><path d="m161.7 140.8h.2c1.2-1.6 1.5-3.8 1-5.7-.8-2.4-2.1-4.6-4-6.4-.4-.4-1.2.1-1.2.7.1.7.4 1.4 1 1.8 2.1 2.6 3.5 5.4 2.7 8.8-.1.3-.1.7.3.8z" fill="#4c4c4c"/><path d="m39.2 175.8c-.7-.1-1.1.1-1.1.9s.1 1.1.9 1.1c3.1-.1 6.2.5 9.3.2.7 0 1.5.2 2.2-.9-1.2-.1-2.3-.3-3.5-.5-2.6-.4-5.2-.6-7.8-.8z" fill="#4c4c4c"/><path d="m11.9 128.6c-1.4-1.9-1.8-4.4-1.2-6.7.2-1.2.6-2.3 1.2-3.4.2-.4.6-.9 0-1.2-.5-.2-1 .1-1.2.6-.8 1.5-1.3 2.9-1.5 4.5-.6 3.5 1 5.9 3.7 8.5 0-.7-.3-1.6-1-2.3z" fill="#4c4c4c"/><path d="m132 175.7c-3.2-.4-6.4-.6-9.5-.6-.6 0-1.2.2-1.2.9s.7.6 1.1.6c4.1-.1 8.1.9 12.4-.3-.8-.5-1.8-.7-2.8-.6z" fill="#4c4c4c"/><path d="m1.4 175.9c-.3-.1-.6.2-.7.5s.1.7.4.8c.4.2.8.3 1.2.4 3.6.4 7.1-.4 10.6-.4-1.1-.8-2.3-1.2-3.6-1.2-2.6-.2-5.2.5-7.9-.1z" fill="#4c4c4c"/><path d="m110.3 121.5c.3.2.6.3.9.4 2.7.7 5.2 1.9 7.5 3.7.5-.5.4-.9.2-1.1-1.1-1.8-6.2-4.5-8.2-4.3-.3 0-.7.1-.7.5-.2.3 0 .7.3.8z" fill="#4c4c4c"/><path d="m157.7 175.7c-.4 0-.8.4-.8.8 0 .5.4.6.9.6 1.9 0 3.9.3 6-.9-2.2-.9-4.2-.6-6.1-.5z" fill="#4c4c4c"/><path d="m73.9 103.3c-2.8-.9-6-.4-8.5 1.5-2.3 1.7-3.8 4.3-3.8 6.9-.1 1 .1 1.7.4 2.8 1.1 2.2 3 4 5.3 4.8 1 .4 2 .5 3.1.5 1.4 0 2.8-.3 4.1-1 1-.4 1.8-1.1 2.6-1.7l.4-.4c.9-.9 1.9-1.8 2.3-3.4.8-4.3-1.7-8.6-5.9-10zm3.6 8.8c-.1 1.5-1.4 3.1-3.2 4.2-4 2.3-8-.1-9.6-2.6-.9-1.2-.5-2.5-.1-3.9.8-2.7 4.6-5 7.6-4.5 3.5.5 5.1 2.6 5.3 6.8z" fill="#4c4c4c"/><path d="m102.9 141.8c-2.5 0-4.7 2.1-4.8 4.7 0 2.2 2.1 4.3 4.6 4.5h.2c2.6 0 4.7-1.9 5-4.5.1-1.4-.2-2.3-.9-3.1-.7-.9-2.1-1.4-4.1-1.6zm2.8 4.1c0 1.5-1.1 2.7-2.5 3-1.3.1-2.3-.8-2.6-2-.1-1.4 1-2.8 2-2.9 2.6 0 3 1.1 3.1 1.9z" fill="#4c4c4c"/><path d="m316.2 147c-.9 0-1.9 0-2.9-.1-6.9-.3-13.5-1.8-20-3.4l-.4-.1c-.5-.1-1-.3-1.6-.4-.5-.1-1-.2-1.5-.4-4.6-1.1-9.2-2.5-13.1-3.6l-2.3-.6c-3.1-.9-6.3-1.8-9.5-2.6-1.7-.4-3.5-.7-5.5-.7-.4 0-.8 0-1.1 0-2.3.2-5 .3-7.8.3-3.5 0-6.6-.3-9.5-.8-6.9-1.3-12-5.3-15.2-11.9-3.7-7.6-3.7-15.6-.1-24 1.5-3 3.8-5.5 6.5-7.1 1.5-.9 1.5-1 .7-2.6-1.1-2.2-1.6-4.6-2-7 0-.2-.1-.5-.2-.8s-.2-.6-.2-1l-.1-.4-.3.3h-.1l-.1.1c-1.4 1.9-3.5 3-5.8 3-.5 0-.9 0-1.4-.1h-.7c-1.2 0-2.1-.1-3.1-.4l-.3-.1c-.3-.1-.6-.1-.9-.1-2.1-.3-3.9-1.1-5.5-2.5-.4-.4-1.7-2.9-1.6-3.7.6-2.4 2.2-3.5 5-3.5h.6c1 0 1.9.2 2.9.5.6.2 1.2.3 1.8.3 1.2 0 2.3-.4 3.2-1.2.4-.4.8-.7 1.3-1.1 1.2-1 2.3-2.4 3-3.3 1-1.3 2-2.5 3.2-3.6l.2-.2-1.3-.7c-3-1.8-4.6-5.5-4-9.3.4-2.1 1.8-5.2 4.6-6.9 1.4-.8 3-1.2 4.7-1.2 1.4 0 2.9.3 4.5.8 2 .8 3.7 2.5 4.5 4.7.9 2.2.9 4.5 0 6.4-.3.6-.5 1.2-.5 1.7v.2h.2c2.6.5 4.5.9 6.3 1.5.2.1.4.1.6.1.6 0 1.1-.2 1.6-.6.8-.5 1.8-1.3 2.7-2.3.1-.1.2-.2.3-.3s.2-.2.3-.3c.6-.8 1.2-1.5 2.3-1.8 1.5-.3 2-1.1 1.8-2.4-.1-1.1-.1-2.3 0-3.4.2-2.3.6-5 2.2-7.4l.1-.2-.2-.1c-.6-.3-1.1-.5-1.7-.6-.2-.1-.3-.1-.5-.2-.3-.1-.6-.2-.9-.4-2.8-1.3-4.4-4.9-4.5-7.6 0-1.5.9-4.9 3.5-7.1 1.6-1.4 3.5-2.1 5.4-2.1.5 0 1 0 1.5.1 3.5.5 6.1 2.4 7.4 5.2 1.2 2.5 1.3 5.4 0 7.6v.1.1l-.2.3-.3.5h.3c.7.1 1.4.3 2.1.5.3.1.6.1.8.1.1 0 .2 0 .3-.1.3-.1.4-.6.5-1v-.1-.2c.1-.5.2-1 .3-1.6 0-.1.1-.3.1-.4s0-.2.1-.3l.1-.3c.2-.7.4-1.6 1.1-1.8 1.2-.5 1-1.1.8-2.1-.2-1.1-.4-2.1-.7-3.2-.2-1.1-.5-2.2-.7-3.3-.4-2.3-.9-4.6-1.3-6.4-.4-1.7-.5-1.8-2.1-1.9 0 0-.7 0-.9 0-4.2 0-8.4.9-12.1 2.7-4.3 1.9-8.5 4.2-11.9 6.2-1.1.6-2.2 1.3-3.4 1.9l-.2.1c-2.7 1.6-5.5 3.1-8.7 3.5-.7.1-1.4.2-2.1.2-3.5 0-6.7-1.3-10.1-4-.6-.5-.8-1.2-.5-1.8.2-.3.4-.4.7-.4h.4c.1.1.3.1.4.1h.8c1.9 0 3.7-.5 5.5-1.6l.2-.1-.2-.2c-.8-.7-1.5-1.1-2.3-1.4-1.6-.9-2.8-2.2-3.5-3.8-.5-.9-.1-1.4.1-1.6.2-.1.5-.2.8-.2s.6.1.8.2c1.2.8 2.5 1.2 4 1.2 1.2 0 2.6-.3 4.2-.8 3.9-1.3 7.6-3.1 11.3-5.6 3.5-2.6 7.6-4.8 12.1-6.6 2.9-1.1 5.5-1.7 7.9-1.7 1.5 0 3 .2 4.4.7.1 0 .3.1.4.1.3 0 .5-.1.7-.3.3-.2.7-.5 1.1-.5h.2c.5.2.6.7.8 1.3 1.2 4.8 2.3 9.8 3.3 15l.1.3c.4 1.9.9 3.8 1.3 5.8l1.2 5.3.3-.3c1-1 1.8-1.3 2.8-1.3h.6c1.2.1 2.4.9 2.9 2.1 1.1 4.6.6 9.1-.1 12.8-.2 1.4-1.4 2.6-2.9 2.6-.9.1-1.3.5-1.3 1.4-.2 1.4-.5 2.4-.9 3.4l-.1.3h.3c1.8 0 3.6.4 5.1 1 .7.2 1.4.3 2.2.3 1.4 0 2.8-.4 4.3-1.3.3-.1.6-.2.9-.4.2-.1.4-.2.5-.2.1-.1.2-.1.3-.1s.2-.1.3-.1l.2-.1-.1-.2c-2.1-2.8-1.8-5.9-1.2-8.6 1-5.8 8-18 17.2-19.9 1.9-.3 3.2-.5 4.3-.5h.3l-.1-.2c0-.2-.1-.3-.1-.5s0-.4-.1-.6c-.1-.4-.2-.9-.2-1.3-.2-2.9.8-6.9 4.2-8.7 1.3-.7 3.1-1.1 4.8-1.1 1.9 0 4.6.5 6.9 2.6 1.1 1.3 1.9 2.8 2.1 4.4.9 5.1-2.3 9.9-7.3 10.9-.9.1-1.8.1-2.7.1h-.3l.1.3c1 2.9 1.3 5.9 1.4 8.7l.1.8c.1 1.1.8 2 1.4 2.5.5.5 1.1 1.1 1.7 1.6l.3.3c1.1 1 2.2 2 2.7 3.2.4 1 .4 2.1.2 3.1-.1 1 .2 1.1.8 1.4 4.7 2.3 8.9 5.2 12.6 8.5 6.4 5.9 11.5 13.3 15 21.3 2.6 6.4 3.7 17.9 3.4 24.9-.6 13.8-9.9 25.3-13.1 28.2-5.8 5.4-13 9.6-21 12.2-3.5 2.3-8.3 3-13.2 3zm-59.6-21.2c.1.2.2.3.2.3s0 0 .1.1c0 .1.1.1.1.2l.1.1 1 1.4c2.4 3.1 5.3 6.1 9.8 7 .6.1 1 .2 1.5.3l1.4.4 8.3 2.5 2.4.6c2.9.9 5.9 1.6 8.8 2.4l1.6.4 3.2.6c2.2.6 4.2.9 6.1 1.3l.4.1 4.4.7 2.2.3c1.8.2 3.6.4 5.5.5.7 0 1.4.1 2.1.1s1.5 0 2.2-.1h.1c.7 0 1.4 0 2.1-.1 3.6-.3 7.1-1.1 10.5-2.3l.9-.4c.9-.3 1.8-.6 2.7-1.1l4.4-2.1.5-.3c.2-.2.4-.3.5-.4l1.8-1.1.8-.5c.1-.1.1-.1.2-.1.1-.1.3-.2.4-.3 0 0 .2-.1.3-.2s.2-.1.2-.2c.2-.1.3-.2.4-.3s.2-.2.3-.2l.5-.4 1.2-.8c.1-.1.2-.2.3-.2.1-.1.2-.1.3-.2l.2-.1c.2-.1.3-.2.5-.4.4-.4.8-.7 1.1-1l.7-.7.6-.5.9-.9 1.1-1.2c.1-.1.3-.3.4-.4s.1-.2.2-.2c.1-.2.4-.5.5-.6l.2-.3c.3-.4.7-.9 1.1-1.4 3.3-4.9 5.8-10.6 7.3-17.1l.3-1.5c0-.2.1-.4.1-.7 0-.2 0-.5.1-.7 0-.3.1-.6.1-.8 0-.3 0-.5.1-.8.1-.7.2-1.5.2-2.2v-3.2c0-.2 0-.4 0-.6 0-.4 0-.8 0-1.2 0-.2 0-.4 0-.6s0-.5 0-.8c0-.2 0-.5 0-.7s0-.5 0-.7c-.2-1.6-.4-3.3-.6-5.2 0 0 0-.1 0-.2s-.1-.2-.1-.3 0-.3-.1-.4v-.1c0-.1 0-.2-.1-.3 0-.1 0-.1 0-.2s0-.1 0-.2 0-.1 0-.2c0-.2 0-.3-.1-.4 0-.1 0-.1 0-.2s0-.1 0-.2 0-.2 0-.2c-.1-.6-.2-1.3-.3-1.9-.1-.3-.1-.6-.2-.9l-.5-1.4-.1-.2v-.1-.1c0-.1-.1-.2-.1-.3s-.1-.2-.1-.3l-.1-.5s0-.2-.1-.3c0-.1 0-.1-.1-.1v-.2h-.2v-.1c0-.1 0-.2-.1-.2 0-.1-.1-.2-.1-.3l-.1-.3c-.2-.2-.3-.3-.4-.6-.1-.1-.2-.2-.2-.2l-.4-.7-.1-.1-.4-.8c-5.9-10.8-14.5-19.6-25.2-25.5l-.7-.4h-.1c-.1 0-.1 0-.2 0s-.2-.1-.3-.1-.1 0-.2 0-.2-.1-.3-.1h-.4l-.1.1h-.1l-.1.1h-.2v.2l-.6.3-.1.1s-.1 0-.2 0h-.7c-.1 0-.1 0-.2 0s-.1 0-.2 0c0 0-.1-.1-.2-.1-.3-.1-.6-.2-.7-.3l-.4-.2-2.7-1.1v1.2.1l-.1.1v.1l-.1.1v.1l-.2.2h-.1l-.1.2v.1h-.1l-.1.2-.1.2h-.1l-.1.2h-.1c-.1.2-.2.3-.2.3l-.1.2h-.1l-.1.2h-.1l-.1.1-.2-.2-.3.3c-.1.1-.1.1-.1.2l-.1.1v.3l-.1.1v.2h-.3l-.2.1-.2.2c-.1 0-.2.2-.2.3 0 0-.1.1-.1.1l-.1.1v.1s-.1.1-.1.1c-1.8 2.6-4 5.3-6.6 7.8-.4.4-.8.7-1.1 1-1 1-1.8 1.8-3.6 1.9-1.9 0-4.3-1-5.1-2.6-.7-1.3-.4-2.7.9-4.2.2-.2.3-.4.5-.6s.3-.4.5-.6.4-.4.6-.6.4-.4.6-.6.3-.4.5-.6.3-.4.5-.6c.4-.5.7-.9 1-1.2l.3-.5.3-.3.1-.2.1-.1c.1-.1.1-.1.1-.2l.1-.1.1-.2s.1-.2.1-.2l.3-.6c.2-.4.3-.8.3-1.3v-.2h-.2-.1l-.1-.1h-.1l-.2-.1h-.7-1.6c-.4 0-.7.1-1.1.1h-.2-.1c-1.1.3-2.2.5-3.2.6-.7.1-1.5.2-2.4.3h-.9c-.2 0-.5.1-.8.2l-.3.1c-.3.1-.7.3-1 .5s-.6.3-.9.4-.6.3-1 .5c-.3.2-.6.3-.9.5l-.8.5c-1.1.7-2.3 1.4-3.6 2.3-.1.1-.1.1-.2.1s-.1.1-.2.1-.2.1-.2.1l-.1.1v.2l.1.1c.1.1.1.1.1.2v7.3c-.1.1-.1.3-.1.6v1.4.2c0 .1-.1.2-.1.3v.9c-.4 3-.7 6.2-.9 8.2-.1 1-.4 2-1 2.8-.7 1.3-2 2-3.5 2-.1 0-.3 0-.4 0-2.7-.1-4.4-1.9-4.4-4.8v-1.4c.1-.5.1-1 .1-1.5.1-.8.1-1.5.1-2.4 0-.8 0-1.5.1-2.3v-1.2l-.1-.1-.2-.2h-.6l-.1.1s0 0-.1 0h-.2v.1h-.1l-.3.2c-.1 0-.2.1-.2.1l-.1.1c-.5.6-1.2 1.1-2.3 1.7l-.3.2-1.1.6c-.3.2-.6.4-1 .5-.3.1-.5.3-.8.5-.2.2-.5.3-.8.4-.3.2-.6.3-.8.5-.3.2-.6.3-.8.5-1.9 1.2-3.8 2.4-5.7 3.7l-1.5 1-4.3 2.8c-.2.2-.4.3-.6.4-.1.1-.3.2-.4.3-.3.1-.5.3-.8.5l-1.3.9-.6.6v.1s-.1.1-.1.2-.1.1-.1.2v.1c-.1.3 0 .7.3 1.3.1.1.1.1.1.2v1.1c.3 7.6-.7 16.9-2.6 18.5-.2.2-.3.2-.4.2h-.1v.1c-.2.6-.1 1 0 2v.2c0 .2.1.5.1.8.1.5.1 1.2.3 1.9.3 2.2.7 4.3 1.1 6.1v.1c0 .1.1.3.1.4s0 .3.1.4c0 .2.1.6.2.8v.1l.2.8v.1c0 .1.1.3.1.4s.1.2.1.4v.1c0 .3.1.5.2.7l.1.1.1.1c.1.1.2.4.2.6.1.3.2.6.3.8v.1.1c.1.3.2.5.3.7.2.3.3.5.4.8l.3.6c.1.1.2.2.2.2v.1l.3.5c0 .2.1.2.1.3l.3.5zm-18.4.3.1.1.1.1.2.4c.1.1.1.1.1.2v.1.1c.1.1.2.2.2.4.1.1.1.2.2.4l.2.3c.1.1.1.1.1.2 0 .2.1.2.2.3.1 0 .2.1.3.2l.6.9v.1l.1.1 1.4 1.8.4.4c.3.3.6.6 1 .9l.3.2h.1.2l.8.2c.2.1.4.1.6.1s.3 0 .6.1l.5.1h3.8l-.3-.3c-.2-.2-.3-.2-.3-.4l-2.5-3.3c-1.1-1.9-2-3.3-2.7-4.7-4.5-8.8-6.2-19.1-5.1-31.5v-.2l-2.4-.6c-.3-.1-.6-.1-.8-.1-1 0-1.3.6-1.7 1.6-.5 1.4-.8 3.1-.9 5.2-.4 7 .4 14 2.3 20.8.1.2.1.3.2.5l.1.3.3.8c.3.8.6 1.7 1 2.5v.1l.2.7h.1c.1.1.2.2.2.4zm12.6 4.6.8.8.6.5.4.4.2.2c.1 0 .1.1.2.1l.2.2c.1 0 .1.1.2.1l.3.2c.2.1.3.1.4.2.1 0 .2.1.4.1 0 .1.1.1.2.1h.4l.7-.1h.6.3.3.2.1.1c.2 0 .4-.1.6-.1s.4 0 .6-.1c.4-.1.7-.2 1.1-.2h.5l-.7-.7c-.1-.2-.3-.4-.5-.5 0-.1-.1-.2-.2-.2-.1-.1-.1-.1-.1-.2-.1-.1-.2-.2-.2-.3-.1-.1-.1-.2-.2-.3 0-.1-.1-.2-.2-.2-.1-.1-.1-.1-.1-.2-.1-.1-.2-.2-.2-.3-.1-.1-.1-.2-.2-.3 0 0 0 0 0-.1-.1-.3-.2-.5-.4-.7-.1-.2-.2-.3-.3-.4-.2-.2-.5-.6-.7-1-.3-.3-.5-.7-.7-1.1l-.3-.5c-.2-.2-.3-.4-.4-.5-.3-.4-.5-.8-.6-1.1-1.7-3.4-2.7-6.9-3.2-10.8-.1-.6-.2-1.1-.2-1.6-.1-.5-.1-1.1-.2-1.6s-.2-1.1-.2-1.6c-.1-.6-.1-1.1-.2-1.7 0-.7-.4-1.2-1-1.3-3.4-1.1-4.1-2.1-4.2-5.5 0-1.8.1-3.7.2-5.7v-.3-.5c0-1.1-.1-1.5-.4-1.5h-.2c-.2 0-.7.1-1 .2l-.3.1c-.7.2-1.1.6-1.2 1.2-.4 1.5-.6 2.7-.7 4-.4 5.3.5 10.3 1.8 16.2.9 4.2 2.6 8.5 5.2 12.8l1.1 1.5.5.5.6.8v.2h.2zm-25.1-16.6c.1.2.1.4.1.5v.2.2l.1.3c0 .1.1.2.1.3s0 .3.1.4v.4.3l.1.6c.1.2.2.6.3.9 0 .1.1.2.1.3s.1.2.1.2c0 .1 0 .2.1.3v.2c0 .1 0 .2.1.2 0 .2.1.2.1.3.2.4.3.6.4.8.2.3.3.6.4.8l.3.5c.9 2.1 2.1 3.8 3.8 5.5.3.5.5.7.8.9 1.1 1.1 2.5 2 3.7 2.7.7.5 1.4.8 2.1 1.1l1.1.4-.8-1-.1-.2-.9-1.5-.1-.1c-.2-.1-.3-.3-.3-.5l-.1-.3c-.2-.5-.5-.9-.7-1.4l-.1-.1v-.1c-.1-.1-.2-.2-.2-.4l-.1-.1-.1-.1c-.3-.5-.7-1.3-1-2.1-.1-.3-.2-.6-.3-1l-.1-.3c-.4-.9-.7-1.7-.9-2.5-2.8-9.2-2.5-18.4-2-25.3v-.4l-.3.2c-.3.2-.6.4-.8.7-1.8 2-3.1 4.2-3.9 6.7-1 3-1.4 6.4-1.2 10.1v.4c0 .1.1.2.1.2 0 .1.1.2.2.3v.5zm18.2-23.5c.5 0 .9.1 1.2.3.6.5.7 1.5.7 3.7v2.3 1.5 2.9c0 1.5.9 2.5 2.4 2.7 1.1 0 2-.2 2.6-2 1.4-4.2 1.8-8.9 1.5-15.2-.1-2.1-.5-2.5-2.5-2.7l-.5-.1c-1-.1-1.8-.2-2.7-.2-1 0-1.9.1-2.7.4-.3.2-.7.3-1.1.3s-.9-.1-1.2-.3c-.4-.1-.6-.5-.6-.9s.1-.1.1-.2c.1-.2.3-.4.7-.4l.5-.1c1.8-.3 3.5-.6 5.2-.6 1.2 0 2.2.1 3.2.4.3.1.6.1.8.1 1 0 1.7-.4 2.6-1.4l.2-.2-.2-.1c-.3-.1-.5-.2-.8-.2-.1 0-.2 0-.3-.1-.3 0-.7-.1-1-.2l-.3-.1c-.9-.3-1.8-.6-2.2-1.5-1.1-2.8-2-6.1-2.8-10-.1-.5.2-1 .6-1.1h.1.2c.3 0 .6.2.7.6.2.7.5 1 1.2 1 .3 0 .6-.1 1-.1h.1c.8-.2 1.6-.3 2.4-.4h.3l2.1-.3c.8 0 1.5-.3 2-.7 2-1.6 3.3-3.4 4.1-5.3.4-.8 0-3.1-.3-3.4-.4-.2-.7-.3-1-.3-1 0-1.7 1-2.2 1.9 0 .1-.1.1-.1.2-.8 1.1-1.6 1.9-2.6 2.6-.7.7-1.4 1-2.3 1-.5 0-1.1-.1-1.8-.3-2-.7-4-1.2-6.3-1.5-.2 0-.4-.1-.5-.1-.5 0-.8.3-1.4.8l-.3.2c-1.8 1.4-3.8 2.1-6 2.1-.1 0-.2 0-.4 0-.1 0-.2 0-.3 0s-.3 0-.4 0-.1 0-.2 0-.2 0-.2 0-.2 0-.3.1c-.3.3-.7.6-1 .8-.2.1-.3.2-.4.3l-.4.3c-.7.5-1.4 1.1-1.9 1.8-1 1.5-2.4 3-4.2 4.7-1.7 1.4-3.4 2.7-6 2.7-.1 0-.3 0-.9-.1-2.1-.3-3.7-.5-4.8-.5s-1.4.2-1.5.3c-1 .9-1 1.8-.1 3 1 1.1 2.4 1.8 4 2 1.4.4 5.5.8 5.9.8h.3c.5.1 1 .1 1.5.1.9 0 1.6-.3 2.2-.8.3-.3.5-.5.9-.8 1.2-1 2.5-2 2-3.9v-.1-.2c0-.4.1-.5.6-.5s.9.4.9.9l.5 3.2c.4 2.7.9 5.2 1.6 7.5.9 3.3 2.2 4.2 5.5 4.3.7 0 1.5 0 2.1-.2l.3-.1c.6-.4 1.4-.6 1.9-.6zm34.6-25.1c2.3.1 3.3 1.2 3.3 3.4 0 2.6-.1 5.2-.2 7.5-.1.6 0 1.3.2 2.2.3.9 1.1 1.5 2 1.5h.4c1.2-.2 2.1-1 2.5-2.3.8-4.5 1-7.5 1.3-12.1v-.8c.1-1.3.2-2.7.3-4.4 0-1.2-.3-1.9-.9-2.4-.5-.4-1.1-.6-1.8-.6-.3 0-.6 0-.9.1-1.4.2-2.8.5-4.1.7-.9.1-1.8.3-2.7.5s-.1 0-.2 0-.2 0-.2 0h-.2c-.2 0-.4.1-.6.1-.3 0-.8-.1-1.1-.8-.2-.3-.1-.5 0-.8s.4-.3.8-.4.1 0 .2-.1h.1.2v-.2-.1l-.1-.1c-.1-.5-.4-.8-.9-1-.2-.1-.4-.2-.6-.2s-.4.1-.6.2c-.8.2-1.5.3-2.2.3s-1.3-.1-1.4-.8c-.1-.6.1-1 1.1-1.2.4-.1.8-.2 1.3-.2.4-.1.9-.1 1.3-.2s.9-.2 1.3-.2c.4-.1.9-.1 1.3-.2 2.3-.1 4.2-1.9 4.3-4.3l.1-.8c.1-.9.2-1.8.4-2.8.2-1.7.4-3.5.7-5.2.2-1 .3-1.8 0-2.7 0 0 0-.1-.1-.2v-.2h-.1c-.3-.8-1.1-1.3-2-1.3-.3 0-.6.1-.9.2h-.1c-.9.3-1.6 4.6-1.9 8.5.1.9-.2 1.7-.7 2.3-.6.7-1.4 1.1-2.4 1.2-.7.1-1.4.2-2.2.2-1.5 0-2.9-.2-4.2-.4l-1.7-.3h-.1c-.4-.2-.8-.6-.8-1.1.1-.4.2-.6.4-.7s.4-.2.7-.2h.3c.3 0 .6.1.8.1.3 0 .5 0 .8.1.3 0 1.5.2 1.7.3.6.1 1.2.1 1.7.1.7 0 1.4-.1 2-.2.9-.2 1.7-.6 1.6-2.5 0-.8-.3-.9-1-1-.2 0-.2 0-.3 0s-.2-.1-.3-.1c-.4-.1-.9-.2-1.5-.2-1.3 0-2.6.4-3.9.7l-.3.1c-.4.2-.7.3-1.1.4-2.4.7-3.3 2.2-3.9 3.8s-.9 3.1-.9 4.6c-.2 3.5.2 7.3 1.2 11.6.3 1.7 1 3.7 1.8 5.7.5 1.1 1.6 1.9 2.8 1.9h.2c1.7-.1 4-1.4 6.3-2.7l.8-.4c.9-.5 1.8-1.1 2.6-1.4zm-16.1-.3c-.7.6-1.2 1.2-1.7 1.8-.2.2-.3.4-.5.6-.3.3-.5.6-.8.9-.7.7-1.5 1.2-2.4 1.3-.8.1-1.5.2-2.2.3-.6.1-1.1.1-1.6.2-.9.1-1.8.3-2.8.3-.6.1-.8.2-.9.3l-.1.1c0 .1 0 .4.1.7.2.4.2.8.3 1.2l.3 1.6c.1.4.2.7.3 1 .8 2.5.8 2.6 3.4 2.9.4 0 .7 0 1.1.1l.3.1c.3.1.8.2 1.2.2.5 0 1-.1 1.3-.4l.8-.5c2.4-1.6 5.1-3.4 8.2-5.7l.3-.2-.3-.1c-2.3-1.2-3-3.2-3.7-5.5 0-.2-.1-.4-.2-.5s-.1-.3-.2-.5l-.1-.3zm46.1-16.2c.6 0 1.4 0 2 .1 1.6.3 1.9 1.1 2 2.5 0 1-.3 1.8-.9 2.6-.3.6-1.5 2.1-3.3 4.3-.4.5-.7.9-1.1 1.3-.6.7-1.1 1.3-1.3 1.7-.2.5-.4 1-.1 1.7.4.8 1.3 1.5 2.5 1.7h.1c1.4 0 3.2-1.9 4.3-3.2l.8-.8c2.9-3.1 5.4-6.4 7.2-9.8l.2-.3c.9-1.4 1.4-2.3.3-3.2l-1.2-.9c-1.1-.8-2.2-1.6-3.5-1.9-.4 0-.8-.1-1.3-.4-.1-.1-.2-.1-.3-.1h-.1-.1c-1.2-.3-2-.9-2.3-1.7-.3-.7-.2-1.7.4-2.8.8-1.2 1.5-2.5 1.8-3.9.2-1 .7-1.1 1.1-1.1h.2c.5.1.7.5.7 1.1v.3c.5 2.9 1.3 5.9 3.5 8.1 2.2 2 4.6 3.6 7.2 4.8.3.2.7.2 1 .2.7 0 1.3-.3 1.9-.8.6-.7.6-1.6.1-2.5-.6-1.4-1.7-2.2-2.7-3.1l-.3-.2c-.5-.4-.9-.7-1.3-1.2-1.3-1.3-2.1-3.2-2.2-5 .1-2.6-.4-5.2-1.6-7.9-1.4-2.9-3.7-4.4-6.7-4.4-.8 0-1.6.1-2.4.3-7.1 1.6-14.5 12.9-15.7 17.3-.5 1.8-.6 3.8-.3 5.6.2 1.5 1 2.4 2.5 2.9h.6c1.4 0 2.8-.3 3.9-.6 1.4-.5 2.8-.7 4.4-.7zm-71.7-.5c-3.6 0-6.8 2.4-7.7 5.9-1 4.2 1.4 7.9 4.3 8.6 1 .4 2.1.6 3.1.6 1.1 0 2.2-.3 3.2-.8 2-1.1 3.5-2.9 4.2-5.4.6-1.7.3-3.7-.8-5.3-1-1.8-2.8-3.1-4.6-3.5-.6 0-1.2-.1-1.7-.1zm43.4 5.4c-.3 0-.6.1-.9.2-.4.1-.6.1-.7.2l-.1.1v.3l.1.3c.2.6.3 1 .8 1 .4 0 .7-.1 1.1-.1h.2c.3 0 .6-.1.9-.2s.6-.1.9-.2c1.2-.2 2.3-.5 3.4-.5.6 0 1.2.1 1.7.2l.1-.4c-2.2-.5-4.4-.8-6.6-.9zm4.4-22.1c-.9.1-1.6.6-2 1.4-.2.3-.1.6.3.9l.1.1c1.5 1.2 2.2 3.3 1.9 5.2 0 1.5-.3 3-.5 4.5-.2.6-.1.8.1 1h.1c.1 0 .2.1.3.1h.3.1c.2-.1.3-.2.5-.5.3-.4.5-.7.6-1.1.5-2.7.7-5.5.4-8.6v-.1l-.1-.1c0-.1 0-.3 0-.4-.2-1.1-.3-2.1-2.1-2.4zm30.8 7.9c-.2.2-.3.3-.4.5-.5.6-.6.8-.3 1.4.5.6 1.1 1 1.9 1.2l.4.1-.1-.4c-.2-.7-.5-1.3-.7-1.9-.1-.3-.5-1.2-.5-1.2zm-50.9-12.6c-.5 0-1 0-1.5.2-1.8.5-3.4 1.6-4.4 3.3-.9 1.6-1.2 3.6-.8 5.4.8 2.4 2.2 4.1 4.3 4.9.8.3 1.6.4 2.5.4 1.4 0 2.9-.4 3.9-1.1 2.6-1.6 4.1-5.2 3.3-7.6-.9-3.2-3.9-5.5-7.3-5.5zm-29.6-2.6c-.1 0-.2.1-.2.1-.1.1-.2.2-.3.2l-.4.1c-.7.5-1.3.8-1.8 1-.6.3-1.2.5-1.8.8-.5.2-1 .4-1.5.7l-.3.2.3.2c1.9 1.2 4.1 1.8 6.3 1.8 1.9 0 3.7-.4 5.4-1.3 2.5-1.1 5.1-2.5 8.4-4.4.9-.5 1.9-1.1 2.9-1.6.5-.3 1-.6 1.5-.8 3.5-2 7.6-3.8 12.4-5.4 2.8-.8 5.7-1.2 8.8-1.2h1 .3l-.1-.3c0-.1-.1-.2-.1-.3s0-.2-.1-.4c-.1-.5-.2-1.1-.4-1.6l-.3-1.1-.1-.2c0-.1 0-.2-.1-.2 0-.1 0-.1 0-.2-.1-.2-.1-.2-.1-.3s-.1-.2-.1-.3v-.1s0-.1 0-.2c0-.2-.1-.3-.1-.5l-.1-.2v-.1-.1l-.1-.1s0 0 0-.1l-.2-1s0-.1-.1-.2v-.1l-.1-.1v-.1l-.2-.2h-.2s-.1-.1-.2-.1l-.2-.1c-1.4-.6-3-1-4.6-1-.4 0-.8 0-1.2.1h-.1c-.4 0-.7 0-1.2.1h-.2c-1.1.2-2.1.4-3.2.7-.4.1-.9.2-1.2.4-2.6 1-5 2.1-7.1 3.5l-.6.4c-.5.3-1 .6-1.4.9-.5.3-.9.6-1.4.9l-.6.4c-.9.6-1.8 1.2-2.7 1.7s-1.8 1.1-2.7 1.6c-.3.2-.8.4-1.4.7l-2.6 1.2-1.6.6c-.1 0-.3.1-.4.1-.2 0-.3.1-.5.1l-.8.3-1.2.4-2.7.4h-1.7c-.3-.1-.5-.1-.7-.1-.1 0-.1 0-.2 0s-.2-.1-.3-.1h-.7l.7.7h.1s.1.1.2.1c0 0 0 .1.1.1l.5.3c.5.2.9.4 1.3.5.5.2 1.1.5 1.7.7.3.1.6.2.9.5v.2.1.3s-.1.1-.1.2c.1.1-.1.5-.5.8zm90-13c-3.6.3-6.4 3.5-6.2 7.2.1 3.2 2.1 5.5 5.4 6.3.9.2 1.6.3 2.3.3 1.4 0 2.6-.4 3.5-1.2 1.2-1 2.1-2.4 2.6-3.9.7-2 .4-4.1-.9-5.8-1.4-1.8-3.6-2.8-6-2.8z" fill="#4c4c4c"/><path d="m200.2 141.1c-.8 0-1.5-.3-2-.9-.9-.8-1.7-1.5-2.6-2.3-.7-.9-2.1-1.5-3.4-1.5-1.9 0-3.7.2-5.7.5-.5.2-1 .3-1.5.4-3 .6-6 1.3-9.2 1.3-1.1 0-1.9-.3-2.5-.9-.5-.6-.8-1.5-.7-2.6.1-1.6.7-3.3 1.6-4.6l1.4-1.9.6-.8c1.9-2.6 3.8-5.2 6.4-7.3 1-.6 1.5-1.8 1.3-3-.3-2.2 1-3.5 2.1-4.4 2.6-1.8 5.5-3.1 8.4-3.6.6-.2 1.4-.3 2.1-.4h.1l.1-.1h.1c.6-.2.9-.8.7-1.3v-.2-.2c-.2-1.3-.4-2.6.6-3.8 1-1.4 2.4-1.7 3.9-1.9.2 0 .3-.1.4-.1s.2 0 .4-.1c.7-.1 1.4-.1 2.1-.1s1.4 0 2.1.1c.6 0 1.2.1 1.8.2s1.2.1 1.8.2h.4c1 .1 1.9.2 2.8.2 1.8.3 3 1.2 3.7 3.2 1.2 3.5 2 7.1 2.4 10.5.4 2.9 1.3 5.7 2.7 8.4.9 1.6 1.5 3 1.9 4.4 1.6 4.8-.3 8.5-5.5 10.8-1.1.5-2.3.8-3.5.8-2 0-3.9-.7-5.4-1.9-1.1-.8-1.7-1.1-2.3-1.1-.8 0-1.4.5-2.4 1.4-1.1 1-2.5 1.8-3.8 2.2-.5.3-.9.4-1.4.4zm-1.3-3.3.2.1.2.2h.1c.1 0 .3.1.3.1l.1.1h.1c.1.1.2.1.3.1h.5c.3 0 .7-.2 1.1-.4 1.2-.6 2.1-1.3 3.1-2.1.6-.6 1.3-1 2-1.1l.4-.1h.4c1.1 0 2 .3 2.9.8.2.1.4.3.7.4l.1.1.3.3c0 .1.2.2.3.3 0 0 .1 0 .1.1.2.1.3.2.5.4l.1.1c.1.1.2.2.3.2l.1.1.4.2h.1c.1 0 .1.1.2.1s.1.1.2.1c.1.1.3.1.4.1h1.1c.3 0 .6-.1.9-.1h.2c1.1-.3 1.9-.6 2.7-.9l.6-.3.2-.1c.4-.2.7-.4 1-.7l.1-.1c.2-.1.3-.2.4-.3l.3-.3c.1-.2.2-.3.3-.4l.1-.1c.1-.1.1-.1.2-.2 0-.1.1-.1.1-.2l.3-.3h-.4c0-.1 0-.2 0-.4 0 0 .1-.1.1-.2v-.1l.1-.1v-.1c.1-.1.1-.2.1-.3.1-.1.1-.2.1-.3v-.2s.1-.1.1-.2v-.9c0-.6-.2-1.5-.5-2.3l-.7-1.8c0-.2-.1-.4-.2-.6-.1-.1-.1-.2-.1-.3-.1-.2-.2-.4-.3-.6-.1-.1-.1-.2-.2-.4l-.5-1.2c-1-2-1.7-4.2-2.1-6.4l-.3-1.9c0-.1 0-.2 0-.3s0-.2 0-.2c0-.1 0-.3-.1-.4v-.1c-.4-2.7-.9-5.4-1.7-8.7-.3-1.2-1.3-2.1-2.5-2.3l-1.8-.3c-.5-.1-1-.1-1.5-.2-1-.1-2-.3-2.9-.3-.6-.1-1.2-.1-1.7-.1-1.3 0-2.5.2-3.6.5-1.8.6-2.4 1.5-2.2 3.2.4 3.3.1 3.5-3.3 4.3-2.8.4-5.5 1.4-8.5 3.1-1.6 1-2.1 2.1-1.8 3.6.3 1.4-.3 3-1.6 3.9-2.3 2.1-4.4 4.5-6.6 7.3-.6.8-1.3 1.8-1.9 2.6-.5.9-.9 1.9-1 2.8v.7c0 .2 0 .5.1.7v.1.2h.2v.1h.1c.4.1.7.1 1.1.1 1.8-.1 3.6-.3 5.4-.5l.3-.1h.1c.2 0 .5-.1.9-.1h.2c.3 0 .8-.1.9-.2.1 0 .4-.2.7-.2l.6-.1c1-.3 1.8-.5 2.9-.6h.2c.7-.1 1.3-.2 1.9-.2h1.3.1c.1 0 .2.1.4.1h.4c.3 0 .6.1 1.1.1h.3.2c.3.1.7.2 1 .3.2 0 .2 0 .3.1 0 0 .1.1.1.1.1.1.3.2.5.2.5.2 1 .6 1.6 1l1.4 1.4v.5z" fill="#4c4c4c"/><path d="m260.5 140.5c-.1.2-.2.2-.2.1-1-.3-2-.5-3.1-.5-6.7-.5-13.4.6-20 1.4-.7 0-1.5.4-1.8 1 2.9-.3 5.5-.1 8-.5 5.1-.8 10.3-.9 15.5-.3.5.1.9 0 1.5-.1.2-.1.5-.2.5-.5s-.1-.5-.4-.6z" fill="#4c4c4c"/><path d="m361.7 143.5c-.9-1.3-1.7-2.7-2.4-4.2-.2-.5-.5-1.1-1.3-.8-.7.3-.5.9-.3 1.5.5 1.1 1.2 2.1 1.7 3.1 2.6 4.6 6.9 7.7 9.3 12.5.1-2.3-.9-4.5-2.5-6.1-1.6-1.9-3.2-3.9-4.5-6z" fill="#4c4c4c"/><path d="m322.5 155.8c-.2-.3-.4-.5-.7-.5-.5.1-.7.5-.6.9 0 .3.1.5.2.7.7 2.8 1.3 5.6 1.6 8.5.4 2.3.8 4.6 1.3 6.8l.5-.1c0-5.3-1-10.5-2-15.7-.1-.1-.2-.4-.3-.6z" fill="#4c4c4c"/><path d="m278.6 146.2c-.5-.3-.9.2-1.1.6-.5 1.3-1.1 2.5-1.5 3.7-1.3 3.4-2.7 6.6-3.5 10.2 2-2.8 3-6.1 4.5-9.2.6-1.4 1.3-2.7 1.9-4.2.2-.3.2-.9-.3-1.1z" fill="#4c4c4c"/><path d="m382.1 88.6c-3.2.6-6.5 1-9.8 1.2-.9.1-1.7.2-2.6.4-.5.1-.9.4-.8.9s.6.6 1.1.5h.3c1.7-.4 3.5-.5 5.3-.6 2.8-.3 5.6-.7 8-2.5-.6-.1-1.1 0-1.5.1z" fill="#4c4c4c"/><path d="m185.2 142.7c.5-.2.6-.6.5-1.1 0 0 0-.1-.1-.1-.2-.6-.6-.5-1-.5-.2.1-.5.2-.6.3-2 .7-4.2 1-6.4.8-1.3-.1-2.5-.2-3.7-.2l-.1.5c2 .9 4.2 1.3 6.4 1.3 1.6.2 3.4-.3 5-1z" fill="#4c4c4c"/><path d="m349.8 54.4c2.7-2.5 5.3-5.3 7.6-8.3.6-.6 1-1.5 1-2.4-3 3.8-6.5 6.6-9.5 9.7-.4.4-.6.7-.3 1.2.5.5.9 0 1.2-.2z" fill="#4c4c4c"/><path d="m224.5 33.3c2.6 1.8 6 2.5 9.3 1.9.4-.1.6-.3.7-.6-3.4-.5-6.8-.6-9.7-2.7-.1-.1-.2-.1-.2-.1-.3 0-.5.1-.6.2-.3.3-.3.6 0 .8.1.2.2.3.5.5z" fill="#4c4c4c"/><path d="m292.4 32.8c-.2.7-.2 1.5 0 2.3 2.2-2.7 1.4-7.5-1.4-8.9-.4-.2-.8-.3-1.1 0s-.3 1 .2 1.4c1.6 1.2 2.4 3.2 2.3 5.2z" fill="#4c4c4c"/><path d="m207.4 140.3c-.4-.2-.8.1-1 .5-.9 2-2.8 2.4-4.6 3.1-.6.3-1.5.1-2.4 1.1 2.5.4 5-.3 7-1.7.6-.4 1.1-1 1.3-1.7.2-.5.2-1.1-.3-1.3z" fill="#4c4c4c"/><path d="m343.7 150.6c-.2-.4-.5-.6-.9-.5-.3.2-.5.5-.3.8.7 2.1 1 4.3 2.6 6.3.2-.8.2-1.7-.1-2.6-.3-1.2-.6-2.7-1.3-4z" fill="#4c4c4c"/><path d="m243.6 148.2c-1.9-.2-3.6.3-5.9 1 2.4.9 4.2.3 6 .4.4 0 .8-.2.8-.7s-.4-.6-.9-.7z" fill="#4c4c4c"/><path d="m299.2 154.4c-.4 0-.6.3-.6.6v.2c.2 1.5-.3 2.9.5 4.5.8-1.4 1.2-3 1-4.6-.2-.4-.5-.7-.9-.7z" fill="#4c4c4c"/><path d="m368.1 117.9c-.2 0-.5.1-.5.3-.1.2 0 .5.1.6 1.2 1.1 2.5 1.7 4.1 2-.9-1.8-2.3-2.2-3.7-2.9z" fill="#4c4c4c"/><path d="m362.3 70.7c.8-.5 1.5-1.3 1.7-2.2-1 0-1.9.4-2.5 1.1-.3.3-.4.7-.1 1.1.3.2.6.2.9 0z" fill="#4c4c4c"/><path d="m310.2 69.1c2.5.1 5.1-.5 7.4-1.7.9-.4 1.5-1.4 1.5-2.4-2.6 1.8-5.8 2.8-9.1 2.7-.5 0-.8.2-.8.7 0 .6.5.7 1 .7z" fill="#4c4c4c"/><path d="m257.7 96.1c-.3-.1-.5.1-.6.4v.2c.1 2.1-.7 4.2-1.3 6.5 1.9-1.5 3-4.9 2.4-6.6-.2-.3-.4-.4-.5-.5z" fill="#4c4c4c"/></svg>