<svg enable-background="new 0 0 385 182.2" viewBox="0 0 385 182.2" xmlns="http://www.w3.org/2000/svg"><path d="m248.9 154.2.1-.1z" fill="#c6a083"/><path d="m248.3 154.5.2-.1z" fill="#c6a083"/><path d="m247.8 154.7.2-.1z" fill="#c6a083"/><path d="m245.1 156.1.1-.1z" fill="#c6a083"/><path d="m290.9 170.9c.1.4.2.9.3 1.4-.1-.5-.2-1-.3-1.4z" fill="#c6a083"/><path d="m249.4 153.9.2-.1z" fill="#c6a083"/><path d="m246.8 155.2.1-.1z" fill="#c6a083"/><path d="m247.3 155 .1-.1z" fill="#c6a083"/><path d="m256.9 160c3 2.6 6.3 4.8 9.9 6.5 3.8 1.6 7.8 2.8 11.8 3.5 4 .9 8.2 1.2 12.3.9-.7-3.5-1.5-6.9-2.1-10.4-1.1-7.1-2.7-15.4-3.7-22.5-.1-1.1-.9-.1-2 .4-.7.3-1.4.8-2.1 1.1-3.2 1.6-20.7 9.2-31 14.2 2.1 2.2 4.4 4.3 6.9 6.3z" fill="#91c9d3"/><path d="m245.9 155.7h.1z" fill="#c6a083"/><path d="m303.6 166.2c3.5-2.4 6.5-5.4 9-8.9s4.5-7.3 5.8-11.4l.4.1-5.5-1.5c-4.5-1.3-21.5-7.1-25.6-7.7-1.7-.3-1.3.3-1.2 2.1.1 1 .2 2 .4 3 1.7 9 3 18 4.7 27 .1.6.2 1.1.4 1.7 2.5-.3 5-1 7.3-2 1.6-.6 3.1-1.4 4.3-2.4z" fill="#e6f4fa"/><path d="m293.1 175.2c-.3-1-.5-2-.8-2.9.3.9.6 1.9.8 2.9z" fill="#96625f"/><path d="m322.1 146.9h.1z" fill="#96625f"/><path d="m321.2 146.7.2.1z" fill="#96625f"/><path d="m321.5 146.8.2.1z" fill="#96625f"/><path d="m321.9 146.9h.2z" fill="#96625f"/><path d="m322.4 147h.1z" fill="#96625f"/><path d="m322.5 147.1h.1z" fill="#96625f"/><path d="m319.8 146.3.3.1z" fill="#96625f"/><path d="m318.9 146.1.3.1z" fill="#96625f"/><path d="m319.4 146.2.3.1z" fill="#96625f"/><path d="m293.6 176.8c-.1-.5-.3-.9-.4-1.4.2.5.2.9.4 1.4z" fill="#96625f"/><path d="m320.4 146.5.7.2z" fill="#96625f"/><path d="m320 146.4.3.1z" fill="#96625f"/><path d="m292.4 172.2c-.1-.5-.2-1-.4-1.5.1.5.2 1 .4 1.5z" fill="#96625f"/><g fill="#f7ce69"><path d="m334.9 109.3.4.6z"/><path d="m307.9 137-.3-.1z"/><path d="m308.1 137.1-.3-.1z"/><path d="m336.2 111.4c.1.2.2.4.4.6-.1-.2-.2-.4-.4-.6z"/><path d="m335.2 110 .5.6z"/><path d="m336.6 112 .4.6z"/><path d="m335.9 110.7.4.5z"/><path d="m307 136.8-.2-.1z"/><path d="m307.2 136.9-.2-.1z"/><path d="m337.1 112.8.3.5z"/><path d="m307.5 137-.2-.1z"/><path d="m306.8 136.7-.2-.1z"/><path d="m306.1 136.3c-.1-.1-.1-.3-.1-.4 0 .1.1.3.1.4z"/><path d="m306.5 136.6c-.1-.1-.2-.1-.3-.2.2.1.2.2.3.2z"/><path d="m306.2 136.4-.1-.1c.1.1.1.1.1.1z"/><path d="m306 135.7c0-.2 0-.5.1-.7-.1.2-.1.5-.1.7z"/><path d="m337.5 113.5c.1.2.2.4.4.7 0-.2-.3-.4-.4-.7z"/></g><path d="m316.2 136c3 .5 6.1.9 9.2 1.1 1.8.1 3.7-.1 5.5-.7 3.1-1.1 5.5-3.7 6.3-6.9 1.1-4.1 0-8.5-1.1-12.5-.8-2.8-1.2-5.6-1.9-8.4l.5.6c-.8-1-1.6-2-2.4-3.1-2-2.4-4.5-4.3-7.4-5.6-.9-.4-1.3-.3-1.7.6-.7 1.5-1.5 3-2.3 4.5-3.7 7.4-7.7 14.8-11.7 22.1-1.1 2.1-2 4.3-2.8 6.5-.1.2-.2.5-.3.8 1.3.2 2.6.4 3.9.5 2.1.3 4.2.3 6.2.5z" fill="#cf4b4b"/><path d="m246.4 153.8-.1.1z" fill="#a7d6aa"/><path d="m247.3 153.3-.1.1z" fill="#a7d6aa"/><path d="m248.4 151.8.6.7c1.7-.8 3.4-1.5 5.1-2.3 7.4-3.8 15.4-6.4 22.9-10.1l7.4-3.6c-2.7-.4-5.3-.9-8-1.2-9.5-1-19-1.5-28.5-2-1.9-.1-3.9-.3-5.8-.6-.9-.2-1.3.1-1.5 1.1-.2 1.6-.3 3.2-.3 4.9.1.3.2.6.2.8 1.6 4.6 4.7 8.6 7.9 12.3z" fill="#fff"/><path d="m291.5 173.8c-.1-.5-.2-1-.3-1.5s-.2-.9-.3-1.4c-4.1.3-8.3 0-12.3-.9-4.1-.7-8-1.9-11.8-3.5-3.6-1.7-6.9-3.9-9.9-6.5-2.4-2-4.6-4.1-6.7-6.4l-.5.2-.2.1-.4.2-.1.1-.4.2-.2.1-.3.2-.2.1-.4.2-.1.1-.3.2-.1.1-.4.2h-.1l-.3.2h-.1l-.4.2-.3.2-.3-.2-.3.2c-1.3.7-1.3 1.2-.7 2.1 2.6 3.8 7.7 13.1 21.8 18.1 14.5 3.8 23.8 2.6 24.9 2.4 1.5-.2 1.7-.5 1.4-2-.2-.9-.4-2-.7-3z" fill="#80b1ba"/><path d="m323 147.2h-.1-.1-.1-.1-.1-.1-.1-.2-.1-.2-.1l-.2-.1h-.1l-.2-.1h-.1l-.7-.2h-.1l-.3-.1h-.1l-.3-.1h-.1l-.3-.1h-.1l-.3-.1-.4-.1c-1.3 4.1-3.2 8-5.8 11.4-2.5 3.4-5.5 6.4-9 8.9-1.4.9-2.8 1.7-4.3 2.4-2.3 1-4.8 1.7-7.3 2 .1.5.2 1 .4 1.5.2 1 .5 2 .8 2.9 0 .1 0 .2.1.2.1.5.3.9.4 1.4.3.9.6 1.9 2 1.8 4.1-.3 8.1-1.6 11.7-3.7 7.8-4.4 12.8-11.2 16-19.4.5-1.6 1-3.2 1.2-4.9.5-2.3.3-2.6-1.6-3.6z" fill="#cad6db"/><path d="m341.5 144.5c1.1.2 1.6-.2 1.6-1.3v-6.3c0-.4 0-.8 0-1.3.1-7.6-1.9-14.6-5.2-21.4-.1-.2-.2-.5-.4-.7s-.1-.1-.1-.2l-.3-.5-.1-.2-.4-.6v-.1c-.1-.2-.2-.4-.4-.6l-.1-.2-.4-.5-.1-.1-.5-.6v-.1l-.4-.6-.1-.1-.5-.6c.6 2.8 1 5.7 1.9 8.4 1.1 4 2.2 8.3 1.1 12.5-.8 3.2-3.2 5.8-6.3 6.9-1.8.6-3.6.8-5.5.7-3.1-.2-6.1-.6-9.2-1.1-2.1-.2-4.2-.3-6.3-.5-1.3-.1-2.6-.3-3.9-.5-.1.2-.1.4-.1.7v.2c0 .2.1.3.1.4l.1.1c.1.1.2.1.3.2l.2.1.2.1.2.1.2.1.3.1.3.1c1.4.3 13.5 3.9 18.2 5.2 2.9.8 7.1 2 7.5 1.9 2.5-1.1 6.2-.1 8.1.3z" fill="#ad5151"/><path d="m360.9 134.7c-2.4-.3-4-.6-4.8-1-2 .5-7.3 1.4-9 2-2.3.8-2.7 1.6-2.4 3.9.1.8.5 1 1.2 1 1.4 0 2.2-.3 4.3-.3.6.1.8-.5 1.1-.9 1-1.3 1.9-2.5 3-3.8.3-.4.7-.9 1.3-.4s.2.9-.1 1.3c-2 2.7-4 5.4-6 8.1-.8 1.2-2.3 1.8-3.8 1.5-2.9-.4-5.8-1.1-8.8-1.4-2.1-.4-2.4 2.1-2.1 2.6.8 1.5 3 1.9 4.5 2.2 2.3.5 4.6.9 7 1.3 3.5.6 5.8-.7 7.6-3.6 1.4-2.3 3.1-4.4 4.5-6.7.3-.5.8-1 1.4-.6.8.5.1 1.1-.2 1.5-2.3 2.9-4 6.8-6.7 9.5-.8.8-1 1.1-1 2.2.1 1.5-.4 2.9-1.3 4-.9 1.2-1.7 2.5-2.6 3.7-1.2 1.7-2.3 3.5-2.1 5.6.1 1.6.5 9.7.6 12.1.1 1.9.6 2.3 2.3 2.2s2.1-.3 2.1-2.3c0-2.7.1-5.4.1-8.1-.1-.8.1-1.7.5-2.4 2.2-2.8 4.4-5.6 6.5-8.3.2-.3.6-.7 1-.3s.2.8-.1 1.1c-1.2 1.1-1.1 2.4-.8 3.9 1.1 4.7 2 9.2 3.4 13.9.6 2.1 1.4 2.7 3.3 2.9 2.4.1 3.3-.9 2.6-3.1-1.1-3.6-1.9-7.2-3.1-10.8-.4-1.4-.5-2.8-.4-4.2.4-4.1 1.2-8.2 1.2-12.3.1-4.3-.5-8.6-1.9-12.7-.4-1.3-.7-3.1-2.3-3.3z" fill="#fff"/><path d="m358.9 116.6c-5.2 1.1-7.4 5.2-6.2 10.5.6 2.8 1.5 6.2 8.5 6.4 4.7 0 7.8-3.2 7.7-9.1 0-3.6-3.1-8.7-10-7.8z" fill="#fff"/><path d="m245.4 154.3c.3-.2.5-.3.8-.4l.1-.1c.3-.1.5-.3.8-.4l.1-.1c.6-.3 1.1-.6 1.7-.8l-.6-.7c-3.2-3.7-6.3-7.7-7.8-12.5-.1-.3-.2-.6-.2-.8v.4c-.3 5 .9 9.9 2 14.7.2.8.6 1.1 1.4 1 .6.1 1.2-.1 1.7-.3z" fill="#e6f4fa"/><path d="m242.6 131c.9.2 1.8.4 2.7.4 4.7.4 9.4.7 14.1 1.1 7.2.6 14.4 1.1 21.6 2 .9.1 1.9.1 2.8-.1-.5-.5-1.1-.9-1.9-.9-5-.8-27.6-6.6-34.7-8.7-1.4-.4-3-1.7-4.2-.9s-1.1 2.9-1.4 4.4c-.1.2-.1.5-.2.7-.3 1.3.2 1.8 1.2 2z" fill="#dbdbdb"/><path d="m245.3 122.7c2.7.7 20.9 6 27.4 7.3 3.9.8 7.4 2 11.4 2.5 2.1.3 2.2.1 3.2-1.8 3.2-6.2 6.4-12.4 9.8-18.5 2.1-3.8 4.4-7.6 6.3-11.5 1.3-2.6 1.1-3.4-1.6-4.5-5.5-2.2-20.2-6.9-38 2-3.7 2.1-7.2 4.7-10.2 7.8-4.2 4-7.5 9-9.4 14.5-.6 1.6-.4 1.8 1.1 2.2z" fill="#b5e4fa"/><path d="m64.4 147.7c0-.1 0-.3 0-.4z" fill="#d8d2ba"/><path d="m84.6 130.3s0 .1 0 0z" fill="#d8d2ba"/><path d="m84.6 130.5s0 .1 0 0z" fill="#d8d2ba"/><path d="m71.7 147.7c2.2 0 4.3-.6 6.2-1.7 2.4-1.6 4.1-3.9 5-6.6.5-1.7.9-3.5 1-5.3.2-1.7 0-3.4-.6-5h.2c-.2 0-.4 0-.6 0-4.9.6-9.7 0-14.6 0-1.5 0-1.9.6-2 1.9-.2 2.5-.7 5-.9 7.5-.3 2.9-.7 5.8-.8 8.6v-.5c2.3.7 4.7 1 7.1 1.1z" fill="#fff"/><path d="m84.3 129.5c-.2-.2-.4-.3-.6-.4.2.1.4.2.6.4z" fill="#d8d2ba"/><path d="m84.3 129.6v.1z" fill="#d8d2ba"/><path d="m83.3 129.1h.2z" fill="#d8d2ba"/><path d="m83.5 129.1h.2z" fill="#d8d2ba"/><path d="m82.6 75.3v.3c0-.1 0-.2 0-.3z" fill="#75cccc"/><path d="m82.7 75.8v.3c0-.1 0-.2 0-.3z" fill="#75cccc"/><path d="m82.7 76.3v.3z" fill="#75cccc"/><path d="m82.3 73.7.1.5z" fill="#75cccc"/><path d="m82.8 76.8v.4z" fill="#75cccc"/><path d="m82.5 74.8v.3c.1 0 0-.2 0-.3z" fill="#75cccc"/><path d="m57.1 107.3c.5 3.4.8 6.8 1.2 10.2l-.2-1.3c2.7 3.2 6.2 5.6 10.2 6.8 5.9 1.9 12.4.6 17.1-3.4 2.1-1.9 3.6-4.3 4.5-7 .8-2.2 1.2-4.6 1.3-6.9.2-3 0-6-.6-8.9-.1-.5-.2-1-.4-1.4l-.6.1c-2.1.2-3.3-.7-3.9-2.8-.7-2.3-1-2.6-3.2-1.9-1 .3-2 1.2-2.8.2s.1-1.9.5-2.8c0-.1.1-.2.1-.2 1.8-3.1 2.6-6.6 2.4-10.1.1 1.3 0 2.6-.2 3.9l-.2-.2c0-.7-.1-1.3-.2-2-.6-3.5-2.7-5.9-4.8-8.5-.1-.2-.3-.4-.4-.7-.1-.4-.3-.7-.5-1.1.3 0 .5 0 .8-.1-.9 0-1.7.2-2.6.4-1.2.2-1.9 1.3-1.8 2.4.2 1.4.1 2.8.4 4.2.7 3.5-.7 6.1-3.3 8.1-3.4 2.7-6.9 5.2-10.5 7.6-2 1.1-3.2 3.3-3 5.6.2 3.3.4 6.5.7 9.8z" fill="#f9da58"/><path d="m58.5 119-.2-1.2z" fill="#75cccc"/><path d="m58.7 120.3-.2-1.3z" fill="#75cccc"/><path d="m58.9 121.8c-.1-.4-.1-.8-.2-1.2.1.4.2.8.2 1.2z" fill="#75cccc"/><path d="m82.8 77.2v.4z" fill="#75cccc"/><path d="m82.4 74.3.1.3z" fill="#75cccc"/><path d="m79.3 69.5.2.1z" fill="#75cccc"/><path d="m79 69.4h.2z" fill="#75cccc"/><path d="m79.5 69.6c.2.1.3.2.5.3-.2-.2-.3-.2-.5-.3z" fill="#75cccc"/><path d="m78.8 69.3.2.1z" fill="#75cccc"/><path d="m77.8 69.2h.2z" fill="#75cccc"/><path d="m78.1 69.2c.2 0 .4.1.6.1-.2 0-.4-.1-.6-.1z" fill="#75cccc"/><path d="m81.6 71.6s0 .1 0 0z" fill="#75cccc"/><path d="m81.3 71.1s0 .1 0 0z" fill="#75cccc"/><path d="m81.1 70.9s.1 0 0 0z" fill="#75cccc"/><path d="m50 109.9c.4 3.1.3 6.2.8 9.2.9.6 2 1 3.1 1.2 1 .1 1.9.1 2.9-.1.1 1.3.3 2.7.4 4-.8-7.9-1.6-15.6-2.4-23.9-1.4 2.1-2.4 3.6-3.5 5.1-1 1.3-1.5 2.9-1.3 4.5z" fill="#f9da58"/><path d="m120.6 94.2c5.8.1 8.7-3.9 8.8-8.4.1-5.6-3.1-9.1-8.1-9.1-7.8 0-9.8 4.7-9.7 8.7.2 4.8 4.1 8.8 9 8.8z" fill="#fff"/><path d="m90.1 93.7c.5-.1.9-.2 1.4-.3 2.3-.5 4.6-1 6.8.6.7.4 1.4.6 2.1.7 1.7.5 3.4 1.1 5 2 3.4 1.7 5.6 4.2 5.4 8.3.2 7.4-3.2 28.8-4.3 36.6-.3 2.4-1.1 4.8-.8 7.2 0 1.4 1.2 2.5 2.6 2.5 1.4.2 2.7-.6 3.1-1.9.9-3.8 3.8-17.4 4.3-20.3.3-1.8.7-2.7 2.2-3.4 1.1-.5 2.4-.2 3 .8.3.8.5 1.6.6 2.4.4 2.7.6 5.4.6 8.1.2 4.1.4 8.2.7 12.4 0 1.5 1.2 2.7 2.6 2.7h.4c1.9-.1 2.7-.8 2.9-2.6.6-8.5.8-16.3-.2-24.4-.7-5.1-1.5-10.2-2.3-15.3-.1-.6-.3-1.2.5-1.3s.8.6.9 1.1c.4 2.2.7 4.4 1.1 6.7.6 3.4 1.1 6.9 1.6 10.3.1.6.2 1.2.9 1.2s1.3-.5 1.3-1.2c.1-.5.1-.9 0-1.4-.4-3.5-.6-7.1-1.1-10.6-.6-3.8-.9-7.7-2.3-11.3-1.7-4.4-2.2-6.9-7.2-7.4-2.7-.3-6.7-.9-9.2-2.3-4.4-2.4-9.2-4.2-14.2-5.2-2.6-.5-6.2.3-8.6 1-.4.2-.9.4-1.2.7-.9.5-1.3 1.7-.9 2.7.4.9 1.4 1 2.3.9z" fill="#fff"/><path d="m84.7 130.8c0-.1 0-.1 0-.2 0 0 0 0 0-.1v-.1-.1-.1-.1-.1-.1-.1-.1s0 0 0-.1v-.1l-.1-.1c-.2-.2-.4-.3-.6-.4h-.2-.2-.5c.6 1.6.8 3.3.6 5-.1 1.8-.5 3.6-1 5.3-.9 2.7-2.6 5-5 6.6-1.9 1.1-4 1.7-6.2 1.7-2.4-.1-4.8-.5-7.2-1.1v.5.1.4s0 .2 0 .3v.9c0 2.4.4 2.7 2.8 2.9 2.7.2 5.4-.1 8.1.3 2.6.2 5.2.2 7.8.1 2.5-.1 2.7-.4 2.7-2.8 0-3-.5-6-.6-9 .2-3.1-.2-6.2-.4-9.4z" fill="#e6f4fa"/><path d="m76.9 70.3c.1.2.3.4.4.7 2.1 2.6 4.2 5.1 4.8 8.5.1.7.2 1.3.2 2l.2.2c.2-1.3.2-2.6.2-3.9v-.4-.1-.4-.1-.3-.2c0-.1 0-.2 0-.3s0-.1 0-.2 0-.2 0-.3v-.2c0-.1 0-.2 0-.3s0-.1 0-.2l-.1-.3v-.2l-.1-.5c0-.1 0-.2-.1-.3v-.1l-.2-.4v-.1l-.1-.2v-.1s-.1-.1-.1-.2v-.1c0-.1-.1-.2-.1-.2 0-.1-.1-.2-.1-.3v-.1l-.1-.2-.1-.1-.1-.1-.1-.1-.1-.1s0-.1-.1-.1l-.1-.1-.1-.1-.2-.2-.1-.1-.1-.1-.1-.1-.1-.1-.1-.1-.1-.1-.1-.1-.1-.1c-.2-.1-.3-.2-.5-.3h-.1l-.2-.1h-.1-.1l-.2-.1h-.1c-.2-.1-.4-.1-.6-.1h-.1-.6c-.3 0-.5 0-.8.1.1.4.2.7.3 1z" fill="#eacb47"/><path d="m90.7 96.8c.6 2.9.8 5.9.6 8.9-.1 2.4-.5 4.7-1.3 6.9-.9 2.7-2.5 5.1-4.5 7-4.7 4-11.2 5.3-17.1 3.4-4-1.2-7.5-3.6-10.2-6.8l.2 1.3v.2l.2 1.3.2 1.2v.3c.1.4.1.8.2 1.2.5 3 1.3 3.7 4.2 4.5 3.8.9 7.7 1.4 11.6 1.3 2.4.2 4.8.1 7.1-.2 2.5-.2 5-.9 7.3-1.9 2.7-1.2 3.6-3.2 2.8-6.1-.3-.9.2-1.3.7-1.9 1.3-1.8 2.3-3.6.9-5.9-.4-.6 0-.9.4-1.4 1.7-2.3 2.1-5.2 1.3-7.9-.4-1.4-.4-1.8.5-2.7 1-1 1.2-2.5.5-3.7-.7-1.5-2-1.3-3.2-1.2l-.4.1h-.1l-.3.1h-.2c-.6.1-1.2.3-1.8.4.2.6.3 1.1.4 1.6z" fill="#eacb47"/><path d="m53.9 120.3c-1.1-.2-2.2-.6-3.1-1.2l.1.5c.2 1.3.4 2.5 1.6 3.1 1.5.8 2.9 2 4.8 1.4-.1-1.3-.3-2.7-.4-4-1 .4-2 .4-3 .2z" fill="#eacb47"/><path d="m10.4 124.2c.6.4 1.3.3 1.8-.2.6-.4.9-1.3.7-2s-.6-1.4-1.1-2c-.8-1.1-1.6-2.3-2.2-3.6-.5-1.1-1.5-2.3-.4-3.7 1.3-1.6 3.3-3.4 5.5-3.8.7-.1-.8 9.8-.9 10.7-.3 1.4 1.9 1.3-.4 6.5-.1.4-.1.7-.1 1.1-.6 5-1.6 19.5-1.5 19.9.4 1.7 2.1 2.8 3.8 2.4.2 0 .4-.1.6-.2 1-.6 1.7-1.5 2-2.6.8-1.9 1.9-10.8 2.3-13.2.5-2.8.3-5.8 1.9-8.4.4-1 1.5-1.5 2.5-1.3 1.9.2 3.2 1.6 3.5 4.2.4 3.6 1.8 16.9 2.4 19.8.2 1 .5 2 1.6 2.3 3 .7 4.7-.9 4.3-3.9 0-.3-1.5-12-2-17.6s-1.1-11.2-1.4-16.8c-.1-1.9.3-2.3 2.1-1.8 1.5.4 3 1 4.6 1.3 2 .6 4.2 0 5.6-1.7 1.6-1.9 3.4-3.7 5-5.7 1-1.4 1.9-3 2.7-4.6.4-.7.8-1.6 0-2.3s-2-.9-2.9-.3c-.9.5-1.7 1.2-2.3 2-1.2 1.3-2.4 2.7-3.7 3.9-2.8 2.6-3.9 2.7-7.3 1-2.5-1.3-4.8-2.9-7.1-4.6-4.4-3.2-9-2.7-13.5-.6-4.9 2.5-9.2 6-12.6 10.4-2.7 3.3-3 5.7-.7 9.2 1.8 2.7 4.3 4.8 7.2 6.2z" fill="#fff"/><path d="m28.8 92c1.3-1.8 2.2-3.3 2.1-6.2.1-4.6-2-9.3-9.7-9-8.3.4-8.8 8.6-8.9 9.5 0 3.7 1.4 5.8 5.2 8.1 3.9 2.1 8.7 1.1 11.3-2.4z" fill="#fff"/><path d="m178.8 58.7c-.1.2-.2.6-.3 1.1-.8-.4-1.6-.7-2.5-.9-4.4-.9-8.7-2.9-7.5-10.9.1-.7 0-1.8-1.1-1.5 0 0 0 2.8-.1 3.4-.6 5 1.9 7.9 6.3 9.6 1.7.7 3.2.7 4.6 1.5v.1h.2c.3.2.6.5.9.7 1.4 1.4 1.5 3.7.1 5.2-1.1 1-2.6 1.3-3.9.7-4-1.3-8-2.7-12-3.9-1.4-.3-2.5-1.5-2.5-3-.2-4.7-1.2-9.5-.5-14.1.6-3.6 2.4-7.2 5.9-8.6 3.9-1.6 8.6-2.4 13-1.2 1.8.5 2.1 1 1.8 2.9-.9 6.3-.4 12.8-2.4 18.9z" fill="#fff"/><path d="m202.2 21.6c2.2.5 2.7 1.4 2 3.6-1 3.6-2.3 7.1-3.2 10.7-1.8 7.1-3.9 14-5.8 21-.1.9-.9 1.6-1.8 1.5-.2 0-.4-.1-.6-.2-3.4-.9-6.7-1.8-9.6-3.9-1.1-.6-1.7-1.8-1.5-3.1.4-6.9.7-13.9 1.1-20.8.3-5.6.8-11.2 1.2-17.3 1.7 1.5 3.5 2.9 5.5 4 4.1 2 8.4 3.5 12.7 4.5z" fill="#fff"/><path d="m188.2 108.8c.9-2.8 1.4-5.7 1.5-8.7 0-.2.2-.6.4-.6 2.2-.6 3.7-2.4 5.9-3.6-.2 5.3-3.2 10.2-7.8 12.9z" fill="#fffbe9"/><path d="m197.4 95.3c-.1-10.9-.4-21.8-.5-32.7 0-1.1-.6-2.3 1-3 4.1-1.8 5.5-1 5.8 3.4v.7c0 4.7-.2 9.4 0 14.1.3 8.9.8 17.8 1.1 26.7.1 3.7-1.1 5.1-4.7 5.5-3.3.3-8.7.3-12.1.4 1.2-.6 2.4-1.2 3.5-1.9 3.8-3.2 6-8.1 5.9-13.2z" fill="#e6f4fa"/><path d="m160.9 102.9c.7-10.5 1.5-19.8 2.2-30.1.1-1.8.3-3.6.5-5.4.1-1 .5-1.7 1.8-1.3 3.2 1.1 6.5 2 9.7 3.1 1.3.4 1.6 1.5 1.4 2.8s-.2 2.3-1.8 2.4c-2 .2-3.6 1.7-3.9 3.7-1.2 6.1-2.9 24.3-3.3 27.4-.4 2.8-1.9 3.8-4.6 3.2-3-.8-1.9-4.1-2-5.8z" fill="#fff"/><path d="m179.6 68.9c2.1-1.4 3.4-5.3.9-7.7-.3-.3-.6-.6-1-.8.3-.5.6-1 .7-1.5.3-1.3.7-2.7 1.1-4.2 3.5 2.8 7.7 4.6 12.2 5.2 1.7.2 2.2.7 2.2 2.4.1 8.9.2 17.9.5 26.8.1 3.2-.6 5.7-3.4 7.4-.7.6-1.5 1-2.4 1.3-2.1.2-2.3 1.5-2.2 3.3.2 2.9-.5 5.7-2 8.2-.9 1.4-2.1 1.2-3.8 1-2.1-.3-4.3-.1-6.4-.5-2.9-.6-3.8-2.4-3.4-5.3 1.6-11 4.5-22.2 5.2-33.4.3-1.4.7-1.6 1.8-2.2z" fill="#fff"/><path d="m202.5 56.9c-1.8.4-3.6 1.3-5.9 1.1.2-1 .4-1.8.6-2.6 2.9-10.8 5.7-21.6 9.2-32.2.5-1.6.3-2.3-1.4-2.5-3.8-.6-8-2.3-11.6-3.4-1.5-.5-1.3-1-.9-2.5.2-.8.2-1.7.8-2.3 7.3 4.4 15.3 4.2 23.6 3.5-.3 1.3-.5 2.3-.8 3.4-3.1 12-7.9 23.5-11.5 35.4-.2.9-1 1.8-2.1 2.1z" fill="#e6f4fa"/><path d="m203.5 14.6c-1.6-.2-1.2-.8-.6-2 .2-.5.4-1.1.6-1.6.5-1.4.3-2.3-1.5-2.6-2.1-.4-4.3-.5-6.4-.5-2.2.1-3.7 1.1-4 3.6-.2 1.4-.5 2.9-.9 4.3-2.1-.6-3.1-1.8-4.2-2.9-2.6-2.7-2.1-5.1 1.5-6.3 2.7-.8 5.5-1.2 8.3-1 6.3-.2 12.2 1.5 18 3.8 1.4.6 3.7 1.2 3.4 3.2s-2.8 2-4.2 2.2c-3.4.4-6.7.3-10-.2z" fill="#cad6db"/><path d="m195.8 9.2h1.5v-.1c1.1.1 2.3.3 3.4.4s1.6.9 1 1.9-.1 2.8-2.1 2.3c-1.7-.3-3.3-1-4.6-2.1-.5-.4-1.2-.7-.9-1.6.2-.5.9-.8 1.7-.8z" fill="#cad6db"/><path d="m166.3 36.4c-4.6-.2-8.2-3.9-8.3-8.5-.1-4.9 3.8-8.6 8.9-8.8 4.1-.2 8.4 3.9 8.4 8.6 0 4.8-3.9 8.8-8.7 8.8-.2-.1-.3-.1-.3-.1z" fill="#fff"/><path d="m284.7 181.1c-9.1 0-16.6-1.2-22.3-3.7-3.8-1.7-6.9-4.1-10-6.4-.5-.4-1-.7-1.5-1.1s-1-.8-1.5-1.1c-.8-.7-1.4-1.3-2-2.1l-.4-.5c-2.2-2.7-4.2-5.4-5.5-8.5-.4-.8-.7-1.7-1-2.6-.1-.7-.3-1.4-.5-2.1s-.3-1.4-.5-2.1l-.2-.7c-.7-3.2-1.4-6.2-1.2-9.2-.3-5.6.5-11.5 2.3-17 2-6.1 4.8-13 10.3-18.4 6.4-6.6 14.5-11.2 23.5-13.5 2.9-.7 6.2-1.1 9.7-1.1 8.4 0 16.5 2.1 18.4 3.5.6.2 1.1.5 1.6.9 2.3 1.7 2.5 2.2 1.3 4.9-.8 1.8-1.8 3.6-2.8 5.2-.2.4-.5.8-.7 1.2-.3.5-.6 1-.9 1.5-.7 1.3-1.5 2.6-2.2 4-1.4 3.1-3.1 6.1-4.8 8.9-2.2 3.8-4.7 8.1-6.4 12.4-.3.7-.2 1-.2 1.1.2.2 1.2.4 1.5.5 3.7.7 7.1 1.9 10.9 3.3 1.7.6 3.4 1.2 5.2 1.8l.2.1c1.9.6 3.5 1.1 4.9 1.4 1.1.3 2.4.6 3.8 1 2.4.7 4.8 1.4 7.2 2.2 1.3.4 2.5.8 4.1 1.3.8.2 1.4.9 1.4 1.6 0 .8 0 1.6-.2 2.4-1.2 6.5-4.1 12.6-8.5 17.6-4.5 5.7-10.8 9.8-17.8 11.6-4 1.1-8.3 1.6-12.5 1.6h-2.7zm-38.7-25-1 .5c-.5.2-.7.4-.8.5-.1 0-.1.1-.2.1l-.1.1v.1c0 .1.1.3.3.8.1.1.2.3.2.4.1.2.3.5.5.7 2.6 4 8 12.3 20.9 16.9 8.6 2.3 15.3 2.7 19.5 2.7 3 0 4.8-.2 5.3-.3s1-.1 1.1-.4c.1-.2 0-.4 0-.8 0-.1 0-.2 0-.3-.1-.7-.2-1.4-.4-2.1l-.3-1.2-.3-1.5c-.1-.2-.1-.4-.2-.7 0-.2-.1-.5-.2-.7v-.2l-.4-1.7c-.6-2.8-1.2-5.7-1.6-8.5-.4-2.7-.9-5.7-1.4-8.5-.6-3.7-1.5-9.2-2.2-14v-.2h-.2c-.2 0-.4.1-.5.3 0 0-.1.1-.3.1-.2.1-.4.2-.6.3-.3.2-.7.4-1.1.6-.2.1-.3.2-.5.2-.2.1-.3.2-.5.3-1.3.6-4.8 2.2-9.2 4.2l-5.5 2.5c-5.4 2.5-11.6 5.3-16.3 7.5l-3.6 1.8-.1.1-.3.1zm40.7-18.8v.2c0 .1.1.3.1.5.1.3.1.6.1.9 0 .2 0 .3.1.5v.5s.3 1.7.3 2c.7 3.5 1.3 7.1 1.8 10.5.2 1.3.4 2.7.7 4 .7 4.2 1.4 8.3 1.9 12.5 0 .3.1.6.1.8.1.3.1.6.2.9.2.5.3 1 .4 1.5l.1.4c.1.4.2.7.3 1.1.1.5.3.9.4 1.4v.1.1c.1.3.1.5.2.7s.1.4.2.7c.3.9.5 1.6 1.5 1.6h.3c4-.3 7.9-1.5 11.6-3.6 7-4 12.2-10.3 15.9-19.3.5-1.5.9-3.1 1.2-4.7v-.1c.5-1.7.4-2.1-1.4-3.4h-.1-1.3l-.2-.1h-.1l-.6-.2h-.1l-.2-.1h-.2l-.3-.1h-.1l-.2-.1h-.3l-5.8-1.5c-1.4-.5-4.5-1.5-8.1-2.6-6.2-2-14.8-4.7-17.4-5.1-.3-.1-.5-.1-.6-.1h-.4zm-45.3-4.4c-.2.1-.3.3-.4.7-.2 1.6-.3 3.2-.3 4.8v.4c-.4 4.7.7 9.3 1.8 13.8l.2.7v.1c.1.4.2.8.7.8h.3c.5-.1 1-.2 1.5-.4.1 0 .2-.1.2-.1.2-.1.4-.2.6-.3l.2-.1c.1 0 .2-.1.4-.2.1-.1.2-.1.4-.2h.1c.3-.1.6-.3.9-.4s.6-.3.9-.4c.5-.3 1-.5 1.5-.7.4-.2.7-.3 1.1-.5.8-.4 1.7-.7 2.4-1.1 3.7-1.9 7.5-3.5 11.3-5.1l1-.4c3.2-1.3 6.9-2.8 10.6-4.6l6.5-3.2-2.1-.4c-1.4-.3-2.9-.5-4.4-.6l-.5-.1c-8.1-.8-16.3-1.2-24.3-1.7l-1.4-.1-2.8-.2c-2-.1-4-.3-5.8-.6-.1 0-.3-.1-.4-.1 0 .1-.2.2-.2.2zm2.5-8.8c-.3 0-.5.1-.8.2-.8.6-1 1.8-1.1 2.9 0 .4-.1.9-.2 1.4v.2c0 .1-.1.2-.1.3v.2c-.1.3-.1.5 0 .8s.4.4.8.5h.2c.9.2 1.7.3 2.5.4 1.1.1 2.1.2 3.1.3s2 .2 3.1.2c2.4.3 4.9.5 7.4.7l8.4.7c4.5.4 9.1.8 13.7 1.4.2.1.5.1.8.1v-.4c-5-.8-26.9-6.5-34.8-8.7-.4-.1-.8-.3-1.3-.5-.4-.4-1.1-.7-1.7-.7zm41.2-30.9c-7.1 0-14.2 1.8-21.1 5.2-3.7 2.1-7.1 4.7-10.2 7.7-4.2 4-7.4 8.8-9.2 14.1v.4c0 .1-.1.2-.1.4-.2.5-.3.8-.2 1s.4.3.8.4c.1 0 .2.1.3.1.4.1 1 .3 1.9.5 1.1.3 2.6.7 4.3 1.2 7 2 16.8 4.7 21.2 5.6 1.5.3 3 .6 4.4 1 2 .5 4.3 1.1 6.9 1.4.5.1.8.1 1.1.1.9 0 1.1-.4 1.8-1.7.5-.9.9-1.7 1.3-2.5s.8-1.6 1.3-2.5l.2-.5c2.2-4.3 4.5-8.7 7-13.1.4-.7.7-1.3 1.1-2 .4-.6.8-1.3 1.1-1.9 1.4-2.5 2.8-5 4.1-7.6.7-1.4.9-2.1.7-2.7-.2-.5-.9-.9-2.1-1.4-5.4-2.1-11-3.2-16.6-3.2z" fill="#4c4c4c"/><path d="m365.6 182.5c-1.1 0-2.2-.2-3.2-.4-1-.1-1.8-.9-1.9-1.8-.1-.3-.2-.5-.3-.7s-.2-.5-.3-.7c-.3-.7-.5-1.4-.7-2.2-.6-3.3-2.3-10-2.9-12l-.1-.3-.2.2c-2.7 2.6-3.9 5-3.9 5.8.1.9.1 4.8.1 8.2v.8c0 1.7-.3 2.4-2.2 2.8-.2 0-.4 0-.6.1-.2 0-.3 0-.4 0-.4 0-.8 0-1.2 0-1.1 0-1.7-.2-2.2-.6-.7-.6-1-1.6-1.1-3.3-.2-3.3-.3-6.6-.3-9.8 0-.7 0-1.4-.1-2.1 0-.7 0-1.3 0-2-.1-1.4.4-2.7 1.3-3.7 1.3-1.6 2.5-3.3 3.4-4.9.5-.7.8-1.5 1-2.5.1-.5 0-.7-.1-.8 0 0-.2-.2-.6-.2-2 0-3.9-.4-5.8-.7l-4.4-.8c-2.4-.3-5.9-2-6.1-4.9-.3-.6-.7-.7-1.3-.8-.1 0-.2-.1-.4-.1s-.5-.1-.7-.2c-3.8-1.3-7.1-2.2-10.1-2.8-1.7-.4-3.5-.9-5.4-1.5l-.8-.2c-.7-.2-1.4-.4-2.1-.7-2.3-.7-4.6-1.4-6.6-1.7-.4 0-.7-.3-1.1-.8-.4-.8-.5-1.7-.2-2.4 1.9-4.9 4.5-9.6 6.9-14.2l.8-1.4c1.9-3.4 4.2-7.7 6.2-11.9.5-1 1-2 1.5-2.9l.2-.4c.8-1.4 1.5-2.9 2-4.4.3-.9.9-1.4 1.8-1.4h.6c1.1.2 2.1.7 2.9 1.4 6.6 4.2 11.3 10.5 14.7 19.8 1.5 4.6 2.5 9.2 2.9 13.8 0 .3.1 1.1.3 1.3.1.1.2.1.3.1.3 0 .9-.2 1.3-.3 2-.6 4.5-1.3 7.1-1.7l.4-.1-.3-.3c-1.4-1.3-2.4-3-2.7-4.8-.8-3.9.1-7.4 2.5-9.7 1.8-1.8 4.2-2.7 6.8-2.7 1.1 0 2.3.2 3.5.5 4.6 1.4 7.3 6.5 6.2 11.8-.8 3.6-2.5 5.9-5.4 7.2-.1.1-.3.1-.3.3-.1.2 0 .4.3.9 3.1 8 2.5 16.1 1.5 22.9l-.1.4-.1.4c-.5 3.3-.8 5.7.3 8.9.4 1.2.7 2.3 1 3.4l.3 1c.3.8.5 1.5.7 2.3s.5 1.5.7 2.3c.7 1.9.8 3.2.3 4-.3.5-.8.8-1.5 1-.7.1-1.4.2-2.1.2zm-7-23.5c.1 0 .3.1.6.3.3.3.3.6.3.6 0 .2-.2.6-.4.9-1.1 1-.9 2.2-.7 3.6.2.6.3 1.2.5 1.9.2.6.3 1.3.5 1.9.2 1 .5 1.9.7 2.9.5 2.4 1.1 4.8 1.8 7.2.5 2.1 1.3 2.5 3 2.6h.5c.8 0 1.4-.2 1.7-.6.3-.5.4-1.1 0-2.2-.4-1.3-.7-2.5-1.1-3.8l-.2-.9c-.2-.7-.4-1.5-.6-2.2-.4-1.3-.7-2.6-1.2-3.9-.4-1.1-.6-2.5-.6-4.2.1-1.4.3-2.8.5-4.2.1-.6.1-1.1.2-1.6.3-2.1.5-4.3.5-6.5.1-4.1-.5-8.4-1.9-12.7-.1-.1-.1-.2-.1-.3s-.1-.2-.1-.3c-.4-1.2-.7-2.3-1.9-2.4-2.4-.3-3.9-.6-4.7-1h-.1-.1c-.2 0-.4.1-.6.1-.4.1-.7.2-1.2.3l-.8.2c-2.2.5-5 1.1-6.1 1.4-2 .7-2.6 1.3-2.2 3.6.1.6.3.8.9.8s1.1 0 1.6-.1c.7-.1 1.5-.2 2.7-.2h.2c.2 0 .3-.2.5-.5 0 0 .1-.1.1-.2 0 0 0-.1.1-.1.6-.8 1.2-1.5 1.8-2.3.4-.5.8-1 1.2-1.5.2-.4.5-.6 1-.7.1 0 .5 0 .7.2.7.6.4 1.2 0 1.7l-2 2.7c-.7.9-1.3 1.8-2 2.7s-1.3 1.8-2 2.7c-.8 1-2.1 1.7-3.4 1.7-.2 0-.5 0-.7-.1l-3.6-.6c-1.6-.3-3.4-.6-5.2-.8-.1 0-.2 0-.4 0-.4 0-.8.2-1 .5-.5.7-.4 1.6-.3 1.8.8 1.3 2.7 1.7 4 2h.2c1 .2 2 .4 3 .6.6.1 1.1.2 1.7.3.4.1.8.1 1.1.2.4.1.8.2 1.2.2.5.1 1 .1 1.5.1 2.4 0 4.3-1.1 5.8-3.6.3-.4.6-.9.9-1.3s.6-.9.9-1.3l.4-.5c.8-1.2 1.6-2.4 2.3-3.6.2-.3.5-.8 1.1-.9h.2c.2 0 .4.1.6.2.3.2.5.4.5.6.1.5-.2.9-.4 1.2l-.1.1v.1s-.1 0-.1.1c-.2.3-.5.7-.7 1-.6.9-1.2 1.8-1.8 2.7l-.4.6c-1.2 1.8-2.4 3.7-3.8 5.1l-.2.2c-.6.6-.9.8-.8 1.8.2 1.5-.3 3-1.4 4.2l-1.5 2.1c-.2.2-.4.5-.6.8s-.3.5-.5.8c-1.1 1.5-2.2 3.4-2 5.4 0 .6.1 2.2.2 4 .1 2.1.2 4.5.3 6.2l.1 1.9c.1 1.4.2 1.9 1.4 1.9h.6c1.7-.1 1.8-.2 1.8-2v-8.1c-.2-.7 0-1.7.6-2.5l.1-.1c1.3-1.5 2.6-3.1 3.7-4.7.4-.6.9-1.2 1.4-1.8s1-1.2 1.4-1.8c.1-.2.4-.5.9-.6zm-11.7-17.1c-.6 0-1.2.1-1.8.2h-.1v.1c-.1.3-.2 1.3.2 2.1.1.2.3.5.8.5.3 0 .7-.1 1.1-.3.9-.3 1.3-1.1 1.8-2v-.3h-.2c-.6-.2-1.2-.3-1.8-.3zm-10.7 1.6c1.2 0 2.3.2 3.4.4.4.1.8.1 1.1.2h.3c.1 0 .3.1.4.1.2 0 .4.1.5.1.2 0 .3 0 .4-.1.2-.2.3-.5.3-.8v-7.6c.2-6.8-1.5-13.8-5.1-21.3 0-.1-.1-.3-.2-.4 0-.2-.1-.3-.2-.4v-.1l-.1-.1-.6-1.1.3-.3-.3-.3-.2.2s0 0 0-.1-.1-.1-.1-.2l-.5-.7-.1-.1-1-1.4c-.5-.6-1-1.3-1.4-1.8-.3-.3-.5-.6-.8-1l-.2-.3c-1.9-2.4-4.4-4.4-7.3-5.6-.1-.1-.4-.2-.6-.2-.1 0-.2 0-.2 0-.1 0-.3.2-.5.6-.5 1.1-1 2.2-1.6 3.3-.3.5-.5.9-.7 1.3-3.2 6.2-6.8 13.1-11.7 22.1-.9 1.8-1.8 4-2.7 6.4-.1.1-.2.3-.2.5 0 .1 0 .1-.1.2v.7.3l.2.2c.1.1.2.3.3.3l.4.2.4.2h.1l.2.1.5.1c1.2.3 4 1.1 7.1 2.1l2.1.6c3.2.9 6.5 1.9 8.5 2.4.3.1.7.2 1 .3.5.1 1 .3 1.6.4 2 .6 4.1 1.2 4.6 1.2h.1c.7-.5 1.5-.6 2.6-.6zm24.2-26.6c-.5 0-1 0-1.6.1-2.2.4-4 1.5-5 3.2-1.1 1.7-1.4 4.2-.9 7 .5 2.5 1.1 6 8.2 6.2 2.2 0 4-.7 5.3-2.1 1.5-1.6 2.3-4 2.2-6.8 0-1.6-.7-3.9-2.6-5.6-1.1-.9-2.9-2-5.6-2z" fill="#4c4c4c"/><path d="m262.2 178.7c-1.9.3-3.8.3-5.7 0-1.1-.3-2.2-.1-3.2.3-.2.1-.4.3-.3.6 0 .3.2.5.4.5.8.2 1.7.2 2.5.2 2.7-.2 5.3-.2 8 .1.8.2 1.6.1 2.3-.2-1-1.1-2.4-1.7-4-1.5z" fill="#4c4c4c"/><path d="m372.5 145.6c-.1.4-.7.8-.2 1.4.8.1 1-.6 1.2-1.1 1.5-3.2.8-6.2-.6-9.2-.3-.5-.6-1-1-1.4-.4-.5-.8-1-1.5-.4s-.2.9.1 1.3c.2.2.3.4.5.6 1.9 2.5 2.4 5.8 1.5 8.8z" fill="#4c4c4c"/><path d="m384.4 180.6c-3.8-.3-7.6-1.2-11.5-.9-.4 0-.9.1-.9.6s.4.7.9.7 1 0 1.5 0c2.9-.2 5.7 0 8.5.7.4.1.8.2 1.2.2.4-.1.8-.4.8-.8 0-.3-.3-.5-.5-.5z" fill="#4c4c4c"/><path d="m321.4 93c.9.2 1.8-.1 2.5-.7-1.9-.9-4.8-.8-6.3.4-1.9 1.7-3 4.2-2.9 6.7.7-1 1.3-2 1.8-3.1.9-2 2.4-3.3 4.9-3.3z" fill="#4c4c4c"/><path d="m310 179.3c-1.3.3-2.7.3-4 .1-1.1-.1-2.2-.2-3.3-.2-.3 0-.5.2-.5.4 0 .3.1.5.3.6.3.2.6.2 1 .3 3.4.3 6.9.3 10.4-.1-1.5-1.1-2.5-1.5-3.9-1.1z" fill="#4c4c4c"/><path d="m79.9 154.3c-2.3 0-4.5-.1-6.5-.2-.6 0-1.2-.1-1.8-.1-1.4-.1-2.9-.1-4.4-.1-.5 0-1 0-1.5 0-1.2 0-2-.2-2.6-.7-.6-.6-.8-1.5-.8-3 .1-4.6.6-9.3 1.4-14.1.2-1.7.4-3.5.4-5.4l.3-.1v-.4l-.3-.1c0-.8-.6-1.5-1.4-1.6-.9-.2-1.8-.5-2.7-.8l-.3-.1c-1.1-.4-2.1-.7-3.2-.8-1.6-.1-3-.8-4.3-1.5l-1.2-.6c-1.5-.8-2.5-2.4-2.4-4-.1-2.3-.3-4.6-.5-7l-.3-3.4-.3.1c-.6.3-1.1.8-1.6 1.5-1 1.2-2.5 1.9-4.1 1.9-.5 0-1.1-.1-1.6-.3l-2.1-.6c-1-.4-2-.7-3.2-.8h-.2v.2c-.1.7 0 1.4.1 2 0 .2.1.4.1.6l.1.3c.1.4.1.7.1 1 .7 8.1 1.5 16.4 2.3 24.1.1 1 .2 1.8.3 2.7l.1.5c.2 1.3.4 2.6.4 4.1.1 1.3-.2 2.4-.9 3.3-.9 1-2.3 1.6-3.8 1.6h-.2c-2.7 0-4.5-1.8-4.8-4.7s-.6-5.7-.9-8.5l-.9-8.6c-.1-.9-.2-1.7-.4-2.5l-.1-.4c-.2-.7-.8-1.5-1.8-1.5-.4 0-.6.2-.9.9 0 .1-.1.2-.1.3s0 .1-.1.2c-.6 1.5-1 2.8-1.1 4-.4 4.5-1 8.8-1.8 12.9-.3 1.5-.7 2.8-1.2 4.1-.3 1.2-1.2 2.1-2.5 2.5l-.3.1c-.1.1-.3.1-.4.1-.4.1-.7.2-.9.5-.1 0-.2.2-.2.2v.1c-.1.2-.2.2-.2.2h-.4v.2s0 0-.1 0c-.2 0-.5 0-1.4 0-.6 0-1.4 0-2.1 0-.9 0-1.9 0-2.8 0-1.2 0-2.1 0-2.7.1h-.6c-.3 0-.8 0-1-.3-.1-.1-.1-.3-.1-.5.1-.5.7-.6 1.1-.6h8.2l-.6-.4c-2.2-1.5-2-3.6-1.8-5.3.1-.5.1-.9.1-1.3 0-3.2.3-6.5.6-9.9.1-1.1.1-2.2.2-3.3.1-1 .1-2 .2-3s0-1.5-.8-1.7c-3.7-1.3-6.1-4.1-8.3-6.8-1.4-1.9-2.4-4.3-2.6-6.7-.1-1 .3-2.1 1-2.9 3.5-4.7 8.5-10.5 15.9-13.4h.1v-.3l-.1-.1c-.1-.1-.2-.2-.6-.3-.8-.4-1.5-1-2.1-1.6-4.4-4-4.6-10.9-.6-15.3 1.4-1.4 3-2.5 4.9-3.2 1.2-.5 2.5-.7 3.9-.7 3.6 0 7 1.8 9.1 4.7 2.7 4 1.7 11.3-1.9 14.7-.4.5-.9.9-1.5 1.2l-.4.2.4.2c1.9.9 3.7 2.1 5.2 3.1s3 2 4.6 2.8c1.1.5 2 .9 2.8.9 1.1 0 2-.7 3.3-2 1-1.1 2-2.1 3-3.1.5-.5 1-1 1.5-1.5.3-.3.5-.5.8-.8.5-.7 1.4-1.2 2.4-1.2.4 0 .8.1 1.2.2.1.1.1.1.3.1.1.1.4.2.7.2.7 0 1.3-.4 1.5-1 1.2-2 3.1-3.2 4.9-4.4l.3-.2.2-.4c2.7-1.7 5.5-3.7 8.3-6.1 2-1.5 3-3.7 2.7-6.1v-.2c-.1-.6-.2-1.1-.2-1.7 0-.3-.1-.6-.1-.9 0-.6-.1-1.2-.2-1.8-.4-2.2.3-3.3 2.6-4.2 1.4-.5 2.7-.7 3.9-.7h.6c3.2.1 5.5 2.2 6.1 5.7.8 4.7 1.3 10.1-1.9 15-.3.5-.3.9-.3.9v.1l.1.1s.2.1.4.1h.5c1.7-.2 3.5-.6 5.3-1.1 2.5-.9 5.1-1.4 7.7-1.4s5.2.5 7.7 1.4c2.3.8 4.6 1.7 6.9 2.7l.3.1v-.4c-2.1-5-1.3-9.5 2.2-12.5 2.1-1.9 4.8-2.9 7.6-2.9 1.4 0 2.8.3 4 .8 3.1 1.2 5.3 3.5 6.2 6.5.9 3.1.3 6.7-1.6 9.3-.9 1.5-1.9 2.6-3.1 3.4-.3.1-.3.3-.3.4 0 .2.3.5.9 1 3.5 2.5 4.2 6.1 4.8 9.7.1.3.1.5.2.7 0 .2.1.4.1.7 1.1 5.7 2 11.8 2.5 18.2.1 1.4.3 3.6-2.4 4.2h-.1c-.9.2-1.6 1-2 2.3.4 6.6.4 12.5-.2 18.1-.1 1.7-1 3.1-2.5 3.9-.7.3-1.5.5-2.2.5-1 0-2.1-.3-3.3-1-.7-.5-1.2-1.2-1.3-2-.5-1.9-.6-3.8-.7-5.7v-1c0-1.1 0-2.2-.1-3.3-.1-1.3-.2-2.7-.2-4 0-.7 0-1.3-.1-2 0-.8-.1-1.6-.1-2.3 0-.8 0-1.6-.1-2.4v-.5c0-1.2-.1-2.3-.9-2.4-.1 0-.1 0-.2 0-.8 0-1.1.9-1.4 2 0 .1-.1.2-.1.3s0 .2-.1.3c-.4 1.2-1.1 4.8-1.9 8.7l-.3 1.5c-.9 4.4-1.7 8.5-2.2 10.4-.4 1.7-1.9 2.7-4.1 2.7-.5 0-1-.1-1.5-.2-2.1-.3-3.7-2.3-3.5-4.5.5-4.2 1.2-8.7 2.1-15 .2-1.1 1-5.8 1.2-7 1.1-5.9 2-11.7 2.1-17.4v-2.8c.4-5.2-2.4-7.4-7-9.4-1.1-.4-2.1-.7-3.1-.9h-.2l-.1.2c-.1.4-.2.7-.2 1 0 .2 0 .3-.1.5-.2 1.1-.4 2.1-1.1 2.8-.1.2-.1.5-.1.8v.5c.2 1.7.2 3.2 0 4.5-.1 1.8-.6 3.3-1.4 4.5v.1.1c.3 1.1.3 2.3.1 3.5-.2 1.4-.6 2.2-1 3l-.1.2c-.3.5-.6 1-.6 1.6.5 5.8-3.6 7.7-5.4 8.2-2.4.7-2.4.8-2.2 3.2v.2c.5 6.4 1 12.8 1.5 19.1.2 2.8-.1 3.2-2.9 3.5-1.2.1-2.8.1-4.6.1zm-11.8-25c-1.2 0-1.6.4-1.7 1.7-.1.6-.2 1.3-.2 1.9-.1.7-.2 1.4-.3 2.1-.1.6-.1 1.2-.2 1.8s-.2 1.2-.2 1.8l-.3 3.2c-.2 1.7-.4 3.7-.5 5.5v1.6c0 2.2.2 2.4 2.5 2.6 1.2.1 2.3.1 3.4.1h.5c1.4 0 2.9 0 4.3.2 1.3.1 2.5.2 3.8.2s2.6-.1 3.9-.2c2.3-.1 2.4-.2 2.4-2.5 0-2.6-.4-5-.7-7.1l-.3-1.8c0-2-.2-4-.4-6.2l-.3-3.4v-1.1c0-.2-.2-.4-.4-.4h-.7c-1.4.2-2.8.2-4.5.2-1.3 0-2.7 0-4-.1h-1.3c-.7 0-1.5 0-2.3 0-.8-.1-1.6-.1-2.5-.1zm52.9-2.7c.3.8.6 1.6.7 2.5.4 2.6.6 5.5.6 8.2.2 4 .4 8.3.7 12.3v.3c.1 1.1 1.1 2 2.3 2h.4c1.7 0 2.4-.6 2.7-2.4.6-7 1-15.3-.2-24.4-.3-2.5-.7-4.9-1-7.4-.2-1-.3-2-.5-3-.3-1.4-.6-3.2-.8-4.9v-.2-.2c0-.6 0-1.2.8-1.3.2 0 .6 0 .7.1.3.2.4.5.5.8l-.3-.1.1.3c.4 2.2.8 4.4 1.1 6.6.2 1.1.3 2.2.5 3.3s.3 2.2.5 3.3c.1.6.5 3.1.6 3.7s.2 1 .6 1c.5 0 1-.5 1-1v-1.3c-.1-1.1-.2-2-.3-3v-.1c-.2-2.5-.4-5-.8-7.5-.2-.8-.3-1.7-.4-2.6v-.3c-.4-2.8-.8-5.6-1.9-8.2l-.4-1c-1.4-3.7-2.2-5.7-6.6-6.2-4.1-.4-7.3-1.2-9.3-2.3-4.4-2.4-9.1-4.1-14.1-5.1-.6-.1-1.2-.2-1.9-.2-1.8 0-4.1.4-6.5 1.2-.2.1-.4.2-.5.3-.2.1-.4.2-.5.3l-.1.1c-.8.6-1.1 1.4-.7 2.3.2.7.6 1 1.5 1h.5c.2-.1.5-.1.7-.2.2 0 .4-.1.6-.1l.3-.1h.3c.9-.2 1.9-.3 2.9-.3 1.4 0 2.5.4 3.6 1.2.7.3 1.3.5 2 .6 1.8.5 3.5 1.2 5.1 2.1 4 2.1 5.8 4.8 5.6 8.6.2 6.3-2.3 22.8-3.5 30.8-.2 1.4-.4 2.6-.5 3.7-.1.8-.2 1.5-.3 2.1-.1.4-.1.8-.2 1.2-.1.3-.1.7-.2 1v.2c-.3 1.7-.6 3.2-.4 4.9.1 1.3 1.1 2.3 2.3 2.3.2 0 .4.1.6.1 1.1 0 2-.7 2.2-1.7.9-3.9 3.8-17.4 4.3-20.3.4-1.8.7-2.8 2.4-3.7.3-.2.8-.3 1.2-.3.9 0 1.7.4 2.2 1.2zm-96.6-3.1h.3c.1 0 .2.1.3.1 2 .2 3.4 1.8 3.7 4.4.5 5.1 1.9 17.1 2.4 19.8.2 1.1.5 1.8 1.3 2.1.5.1.9.2 1.3.2.8 0 1.4-.2 1.8-.6.7-.7 1-1.9.8-3.2 0-.1-.1-.6-.2-1.7l-.2-1.9c-.5-3.7-1.2-10-1.6-13.7v-.3l-.1-1.1c-.5-5.6-1-10.7-1.3-15.7-.1-1.1 0-1.8.4-2.1.4-.2.9-.3 1.3-.3.2 0 .4 0 .6-.1.2.1.5.2.9.3l.9.3c.9.3 1.8.6 2.7.8.5.2 1 .2 1.5.2 1.5 0 2.9-.7 3.8-1.8.3-.3.6-.7.9-1s.6-.7.9-1c1.1-1.2 2.2-2.4 3.2-3.7 1-1.4 1.9-2.9 2.7-4.5.7-1.1.4-1.6.1-1.9-.4-.4-1-.6-1.5-.6-.4 0-.8.1-1.1.4-.8.5-1.6 1.2-2.2 1.9-.4.4-.7.7-1 1.1-.9 1.1-1.8 2.1-2.7 2.9-1.7 1.6-2.8 2.2-4 2.2-.9 0-2-.3-3.6-1.2-2.5-1.3-5-2.9-7.2-4.6-2.1-1.5-4.3-2.2-6.6-2.2-2.1 0-4.2.6-6.6 1.7-4.9 2.4-9 5.8-12.4 10.1v.1.1c-2.6 3.3-2.8 5.6-.7 8.9 1.7 2.6 4.1 4.7 7 6.2.3.1.5.2.7.2.3 0 .6-.1.8-.3.6-.4.8-1.1.5-1.7-.2-.7-.6-1.3-1-1.9-.9-1.1-1.7-2.4-2.3-3.6 0-.1-.1-.2-.1-.4l-.1-.1c-.5-1-1.1-2.2-.1-3.5.3-.4 2.6-3.4 5.7-3.9.1 0 .3.1.3.1.3.2.5 1.6-.9 10.6v.3c-.1.3 0 .4.1.7l.1.2c.4.9.9 2.1-.6 5.6-.1.2-.1.6-.1 1-.7 5.1-1.6 19.1-1.5 19.8.1.2.1.2.1.3s.1.2.1.3c.3.7.9 1.2 1.6 1.5.4.2.8.2 1.1.2s.8-.1 1.1-.2c.9-.5 1.5-1.4 1.8-2.4.7-1.4 1.4-6.4 1.9-10.1l.1-.8c.1-1.1.2-1.8.3-2.3.1-.4.4-2.9.4-2.9.3-1.9.5-3.9 1.6-5.6.8-1.2 1.6-1.7 2.6-1.7zm50.4 3.8c.9 0 1.8.1 2.6.1 1.7 0 3.1-.1 4.5-.3 2.6-.3 5-1 7.2-1.9 2.5-1.1 3.4-2.9 2.6-5.7-.2-.7-.1-1.1.1-1.7.1-.2.1-.5.2-.8l.2-.2c1.5-1.9 2.2-3.5.9-5.5-.4-.7-.1-1.1.2-1.4l.2-.2c1.6-2.2 2.1-5.1 1.2-7.7-.6-1.5-.5-2 .6-3 .9-.9 1.1-2.2.4-3.2-.5-1-1.2-1.1-1.9-1.1-.2 0-.5 0-.8 0l-.9.1h-.1c-.2.1-.3.1-.4.1s-.3.1-.4.1c0 0 0 0-.1 0-.3 0-.7.1-.9.2l-.6.1c-.2 0-.5 0-.7 0-1.8 0-3-1-3.6-3-.3-1.1-.5-1.7-.9-1.9-.1-.1-.2-.1-.5-.1s-.8.1-1.4.3c-.2 0-.4.1-.6.2-.4.1-.9.3-1.3.3-.5 0-.8-.2-1.1-.6-.5-.6-.4-1.1-.3-1.7v-.2c.1-.4.2-.8.1-1.3v-.1s0 0 0-.1c.1 0 .2-.1.2-.2 1.7-2.9 2.5-6.3 2.3-9.9v-3l-.1-.8c-.1-.2-.1-.4-.1-.5v-.7l-.1-.1s0-.1 0-.2-.1-.2-.1-.2v-.1c-.1-.1-.1-.1-.1-.3v-.1l-.3-.4v-.1h-.1l-.7-.7-.3-.2c-.1-.1-.2-.1-.2-.1-.1 0-.1 0-.1-.1l-.1-.1h-.7c-.1 0-.2 0-.3 0s-.2-.1-.3-.1h-.7c-.9 0-1.7.1-2.5.4-1.1.2-1.7 1.2-1.5 2.1v.9.9c0 .8 0 1.6.2 2.4.7 3.3-.5 6.1-3.4 8.4-3.1 2.4-6.5 4.9-10.4 7.5l-.1.2c-1.9 1.1-3 3.2-2.8 5.4 0 3.3.2 6.6.6 9.8.4 2.1.6 4.3.8 6.4v.3c0 .5.1 1.1.2 1.6.1.6.2 1.3.2 1.9v.3l.1 1.2.2 1.3v.4l.1.4v.4.4c.5 2.8 1.2 3.5 4 4.3 3.2.9 6.7 1.3 10.3 1.3.6-.1 1-.1 1.3-.1zm-20.3-25.6c-.1.1-.2.2-.2.3-.1.1-.2.3-.3.4l-.4.6c-.6 1-1.2 1.9-1.9 2.7-1 1.2-1.5 2.7-1.2 4.3.1 1 .2 2 .2 2.9 0 .5 0 1 .1 1.5 0 .4 0 .8.1 1.2.1 1.2.1 2.4.3 3.6l.1.8c.2 1 .4 2.1 1.4 2.7.1.1.3.2.5.3.1.1.3.1.4.2.9.5 1.8 1.1 2.8 1.1h.5.2l-2.2-22.8zm-43.2 13.4c0 .2.1.5.3.6.2.2.3.5.4.8.1.1.1.2.2.4.1.1.1.3.2.4l.4-.1c0-.2 0-.5 0-.8s.1-.6.1-.9c0-1 .1-2 .2-3v-.4l-.4.2c-.6.4-1.5 1.2-1.6 1.7-.3.2-.1.6.2 1.1zm11-38c-.3 0-.7 0-1 0-6.8.3-8.3 5.8-8.6 9.1v.2c0 3.6 1.3 5.6 5.1 7.8 1.2.7 2.6 1.1 4.1 1.1 2.6 0 5.2-1.3 6.8-3.4 1.3-1.9 2.1-3.3 2-6 0-3-.7-5.2-2.3-6.6-1.4-1.5-3.5-2.2-6.1-2.2zm99.1-.1c-3.2 0-5.7.8-7.3 2.5-1.9 2-2 4.5-2 5.9.1 4.8 3.9 8.6 8.6 8.6h.1c6 0 8.3-4.4 8.4-8.1.1-2.7-.7-5.1-2.3-6.6-1.4-1.6-3.3-2.3-5.5-2.3z" fill="#4c4c4c"/><path d="m89.9 151.9v.1c0 .6.5.8.9.9 3.1.6 6.3.4 9.3-.7-3.6-1-6.6-.7-9.6-.9-.3 0-.6.3-.6.6z" fill="#4c4c4c"/><path d="m139.4 152.2c-2.4 0-4.8.1-7.3.2-.5 0-1 .1-1 .7 0 .7.6.8 1.2.8.7 0 1.5 0 2.2-.1 1.6-.2 3.1-.5 4.7 0 .7.1 1.4.1 1.5-.8.1-.8-.7-.9-1.3-.8z" fill="#4c4c4c"/><path d="m191.3 112.2c-4.2 0-10.4-.2-16-1.3-1.3-.3-2.5-1.1-3.2-2.1s-1-2.3-.7-3.6l.3-2.1c.8-4.9 1.6-9.9 2.5-14.8.3-1.7.6-3.4.9-5.1s.5-3.4.8-5.1c.1-.5.1-1.3.1-1.8v-.1l-.1-.1c-.2-.1-.5-.1-.7-.1-1.4 0-2.5 1.2-2.5 2.6-.1.5-.4 2.6-.8 6.3-.2 1.9-.5 4-.8 6.3-.7 5.4-1.5 11.4-1.8 15.1-.1 1.6-.9 2.9-2.2 3.8-.8.5-1.7.8-2.8.8-.6 0-1.3-.1-1.9-.3-3.1-1.2-3.5-2.2-3.3-5.9.8-12.6 1.7-24.8 2.7-36.2.1-1.1.2-2.3.3-2.9v-.1l-.1-.1c-1.5-.8-2.4-2.1-2.6-3.6 0-.5-.1-1.1-.1-1.6s-.1-1.1-.1-1.6c-.1-1.9-.2-3.8-.5-5.7-.8-5.4.5-10.1 3.9-13.8.6-.6.7-.8.7-1 0-.1 0-.4-1-.9-3.3-1.8-5.4-5-5.6-8.6-.3-3.3 1.3-6.6 4.1-8.6 1.8-1.3 3.8-2 5.9-2 1.2 0 2.4.2 3.6.7 5.6 2.1 7.8 6.6 6.2 13.1-.4 1-1 2-1.8 3.1l-.2.3h.4c1.2 0 2.4.1 3.6.3.1 0 .7.2 1.2.3.4.1.8.2 1.1.3l.2.1v-.3c0-.4 0-1 .1-1.9.2-3.7.5-7.4.8-11.1.1-1.7.3-3.4.4-5 .2-2.2.4-4.4.6-6.7v-.4c.2-2.1 1.4-3.9 3.2-4.8 2.2-1.4 4.7-1.6 7.1-1.7h.6.5c.7 0 1.5-.1 2.2-.1 6.5 0 12.9 1.6 20.3 4.9 2.5 1.2 3.5 2.9 2.8 5.1l-1.1 4c-1.7 6.1-3.6 12.5-5.2 18-.5 1.7-1.2 3.5-1.8 5.2-.2.5-.4 1.1-.6 1.6-1 2.8-2 5.6-2.9 8.6l-.2.6.5-.3c.4-.3.9-.6 1.3-.8.3-.2.5-.3.7-.5l.3-.2c1.9-1.2 4.1-2.5 6.5-2.5.4 0 .7 0 1.1.1 2 .3 3.5 1.3 3.9 2.7.6 1.6-.4 2.6-1.2 3.6l-.1.3c-.8.9-2.1 1.6-3.2 2.3-.6.3-1.1.6-1.7 1l-.5.4h.7c1.9.5 4 1.2 5.5 2.6 1 1 1.8 2 1 3.6-.4 1.3-1.6 2.1-2.9 2.1-.1 0-.3 0-.4 0-1 0-2.1-.3-3.1-.8-1.1-.6-2.1-1-3.4-1.5h-.1c-.1 0-.1-.1-.2-.1h-.5l.1.3c.9 2.1 1.4 4.2 1.3 6.2-.1 3.8-.6 7.4-1.5 11.2-.2.8-.4 1.4-.6 2.1-.6 1.6-1.1 3.3-.7 5.1.4 2.4 2.3 4.4 4.7 5 .4.1.8.1 1.2.1 2 0 3.8-.9 4.9-2.4.7-.7.7-1.8 0-2.5-.4-.4-1-.6-1.6-.6-.4 0-.7.1-1 .3-.2 0-.3.1-.3.1-.1 0-.1.1-.2.1-.2.1-.3.2-.5.2s-.4-.1-.6-.4c-.2-.2-.2-.5-.2-.8s.2-.5.4-.7c.6-.6 1.5-.9 2.4-.9.7 0 1.3.2 1.9.5 1.6.8 2.1 2.6 2.1 3.8-.5 2.3-1.2 3.5-5.8 5-.4.1-.9.1-1.3.1-2.6 0-5-1.1-6.7-3.1-2.2-3.2-1.6-6.6-.8-9.9 1.2-4.3 1.8-8.4 2-12.4.4-3.5-1.4-7-4.6-8.9 0 0-.1-.1-.2-.1 0 0-.1 0-.1-.1-.3-.2-.6-.4-.9-.5l-.4-.2.1.4c.1.5.2 1 .2 1.3.1 1.5.2 3 .2 4.5-.5 8.5-.1 17 .4 24.3.1 1.5.1 3 .2 4.5.2 3.2.3 6.6.4 9.9.1 4.4-.6 5.3-4.9 6.5-.6-.4-4.8 0-10.3 0zm-9.8-56.8c-.1.1-.1.2-.1.3s0 .2-.1.3c-.1.6-.3 1.2-.4 1.7-.1.4-.2.8-.3 1.2-.1.5-.3.9-.5 1.2l-.1.2.1.1c.3.2.5.4.7.6 1.1 1.1 1.5 2.4 1.4 3.9-.2 1.6-1.2 3.3-2.4 4.1l-.2.1c-1 .5-1.3.7-1.3 1.6-.4 6.7-1.6 13.4-2.9 20l-.2 1.3c-.2 1.1-.4 2.3-.6 3.4-.5 2.9-1.1 5.9-1.5 8.8-.5 2.9.4 4.4 3.1 5.1 1.1.2 2.3.3 3.5.3.9 0 1.9.1 2.9.2h.1c.5.1 1 .1 1.3.1 1 0 1.5-.3 2-1 1.5-2.4 2.1-5.1 1.9-7.9-.1-1.7 0-3.3 2.4-3.6 1-.4 1.7-.8 2.2-1.2 2.4-1.5 3.4-3.6 3.3-7.2-.3-8.4-.4-16.9-.5-25.1v-.6-1.2c0-1.5-.4-1.9-2-2.1-4.2-.5-8.3-2.1-11.7-4.8l-.2-.1zm19.6 3.7c-.6 0-1.6.1-3.1.8-1 .4-1 1.1-.9 2 .1.2.1.5.1.7 0 1.8.1 3.5.1 5.3s0 3.6.1 5.4c.2 7.3.3 14.7.4 21.9.1 5.4-2.1 10.3-6.1 13.6-.5.4-1 .7-1.4.8v.4h2c3 0 5.8-.1 7.8-.3 3.4-.3 4.5-1.6 4.4-5.1-.1-4.2-.3-8.4-.5-12.4-.1-1.5-.1-3.1-.2-4.6-.2-3.2-.3-6.5-.4-9.7-.1-2.1 0-4.2 0-6.3 0-1 0-2.1 0-3.1v-5.4c-.1-2.1-.5-3.3-1.3-3.8-.4-.1-.7-.2-1-.2zm-36.4 7.2c-.1 0-.2 0-.3.1-.3.1-.4.5-.5 1-.1 1-.2 2-.3 3.2-.1.7-.1 1.4-.2 2.2-.2 2.6-.4 5.2-.5 7.7-.2 2.2-.3 4.4-.5 6.6-.2 4.1-.5 8.3-.9 12.7l-.2 3.1v.5c0 .3-.1.5-.1.8-.1 1.8-.2 3.6 1.9 4.1.4.1.8.1 1.2.1.7 0 1.4-.1 1.8-.4.7-.6 1.1-1.4 1.3-2.6.1-.5.2-1.3.3-2.4.1-.8.2-1.7.3-2.7.6-5.7 1.9-17.7 2.8-22.3.3-2.1 2-3.7 4.1-3.9 1.2-.1 1.3-.7 1.4-1.7v-.2-.2c.1-1.4-.2-2.1-1.2-2.4-1.5-.5-3.1-1-5-1.6-.8-.2-1.6-.5-2.3-.7-.8-.3-1.6-.5-2.4-.8-.2 0-.3 0-.3 0-.2-.2-.3-.2-.4-.2zm25.6 33.5c-.1 0-.2.2-.2.3 0 2.3-.4 4.8-1.1 7.5l-.1.5.4-.3c3.7-2.5 6-6.5 6.4-10.9v-.4l-.3.2c-.6.3-1.1.7-1.6 1.1l-.3.2c-1.1.8-2 1.5-3.2 1.8zm-15.2-62.8c-2.9 0-5.9.6-8.5 1.7-3 1.2-5.1 4.4-5.7 8.4-.5 3.3-.2 6.7.1 9.7.2 1.3.3 2.7.4 4v.3c0 1.3 1 2.5 2.3 2.7l6.6 2.1c1.9.6 3.7 1.2 5.5 1.8.5.2.9.3 1.4.3.8 0 1.6-.3 2.2-.9 1.3-1.4 1.3-3.4-.1-4.8-.1-.1-.2-.2-.4-.3-.1-.1-.2-.2-.3-.3l-.1-.1h-.1c-.2 0-.4-.1-.4-.2v-.1h-.1c-.7-.3-1.5-.5-2.3-.7-.2-.1-.5-.1-.7-.2-.5-.1-.9-.2-1.4-.4-5-2-7.1-5.1-6.6-10 .1-.5.1-2.3.1-3.4 0-.1.1-.2.3-.3.1 0 .3-.1.5-.1.3 0 .5.1.6.2.4.4.4 1.3.3 1.6-1.2 7.7 2.8 9.6 7.3 10.5.8.2 1.3.4 2 .7l.2.1.1-.2c.1-.3.2-.4.2-.6 1.3-3.5 1.6-7.3 1.8-11l.1-1c.1-2.3.3-4.6.6-6.8.1-.9.1-1.5-.2-1.9-.3-.3-.7-.4-1.3-.4-1.4-.2-2.9-.4-4.4-.4zm36.5 22.4c-1 0-2 .1-3 .2l-.7.1.7.3c1.6.7 3.3 1.4 5.4 2.3.7.2 1.3.5 1.8.7.2.1.4.2.6.3l.4.2c.9.5 1.6.7 2.1.7.2 0 .3 0 .4-.1.3-.1.5-.4.7-.8s.2-.8.1-1.2c-.3-.8-1.3-1.2-2.1-1.6l-.4-.2-.2-.1c-1.6-.5-3.6-.8-5.8-.8zm-27-45c-.1 1.4-.2 2.8-.3 4.1-.4 4.3-.7 8.3-.9 12.2l-1.2 20.8c-.2 1.1.3 2.2 1.3 2.8 2.8 1.9 5.9 2.8 9.5 3.8.2.1.4.1.6.1.4 0 .7-.1.9-.4.1-.1.5-.5.5-.9.7-2.6 1.4-5.4 2.2-7.9 1.2-4.1 2.5-8.5 3.6-13.1.4-1.4.8-2.9 1.3-4.3.2-.6.4-1.2.5-1.8.6-1.7 1-3.3 1.4-4.6.3-1.1.3-1.8.1-2.2-.4-.5-1-.8-1.8-.9-4.2-1-8.3-2.4-12.6-4.4-1.8-1.1-3.4-2.2-4.8-3.4l-.3-.3zm32.3 34.8c-3.2 0-10.8 5.6-11.9 8.3h-.1l-.1.1v.2l.1.2c.1.1.2.1.4.1.3 0 .8-.1 1.1-.1.2-.1.4-.1.6-.1 4.1-.4 8.1-2 11.5-4.7 1.1-.8 1.5-1.5 1.3-2.3-.5-1.5-1.1-1.7-2.9-1.7zm-23.5-36.3c-.2.2-.2.5-.3.7 0 .1 0 .2-.1.3s-.1.2-.1.4c0 .1 0 .2-.1.4s-.1.4-.2.6c-.1.5-.2.8-.1 1 0 .2.2.3.9.5.5.2 1.1.4 1.7.6.5.2 1.1.3 1.6.5l1 .3c2.5.8 5 1.6 7.3 2 1 .2 1.5.5 1.8.9.3.5.2 1.3 0 2-3.6 10.9-6.6 22.3-9.2 32.2-.2.5-.3 1.1-.4 1.6v.2c0 .1-.1.2-.1.3v.2h.2c1.1 0 2.1-.3 3.1-.5.2-.1.5-.1.7-.2.2 0 .5-.1.7-.2s.4-.1.7-.2c1-.3 1.7-1.1 2-2.1 1.2-3.8 2.5-7.6 3.7-11.3l1.1-3.1c2.4-6.8 4.9-13.9 6.7-21 .1-.4.2-.8.3-1.2.1-.3.1-.6.2-1l.2-.8h-.3c-2 .2-4.4.3-6.9.3-6.4 0-11.5-1.2-15.8-3.7l-.2-.1zm-26.5 6.5c-5 .2-8.7 3.9-8.6 8.5.1 4.4 3.6 8 8 8.2l.2.1c4.7 0 8.4-3.8 8.4-8.5 0-2.2-1-4.4-2.8-6-1.4-1.4-3.3-2.3-5-2.3 0 0-.1 0-.2 0zm28-13.5c-2.5 0-4.8.3-7 1-1.6.5-2.6 1.4-2.8 2.3-.2 1 .3 2.2 1.6 3.4l.4.4c.8.9 1.6 1.7 3.1 2.2l.2.1.1-.2c.4-1.5.6-2.7.8-3.7.3-2.4 1.8-3.7 4.3-3.8 2.7 0 4.7.2 6.5.5.9.1 1.5.4 1.8.9.3.6.2 1.3 0 2 0 .1-.1.2-.1.3s0 .2-.1.3c-.1.4-.2.7-.4 1.1l-.1.3c0 .1-.1.3-.2.4-.1.2-.2.4-.2.5v.1l.1.1c.1.1.4.2.8.3 1.8.3 3.6.4 5.6.4 1.4 0 2.8-.1 4.3-.2h.5c1.7-.2 3.2-.5 3.4-1.9.2-1.5-1.1-2.1-2.8-2.7l-.4-.2c-4.1-1.6-10.3-3.8-17-3.8-.3 0-.6 0-.9 0zm.8 3.7c-.5 0-1 .3-1.2.7 0 0-.2.2-.1.5.1.1.2.3.5.6.2.1.3.2.4.3 1.4 1.1 2.9 1.8 4.5 2.1.2.1.4.1.5.1.2 0 .3 0 .4-.1.2-.2.3-.6.5-1.1.1-.4.2-.8.4-1.2.1-.4.2-.7.1-1s-.5-.4-.9-.5c-1-.2-2-.3-2.9-.4h-.3l-.1.1s-.1 0-.2 0h-1.5c0-.1-.1-.1-.1-.1z" fill="#4c4c4c"/><path d="m225.1 83.8c-.2-.2-.5-.7-1-.2s-.2 1.1.3 1.5c1.8 1.9 2.3 4.6 1.4 7.1-.5 1.3-1.2 2.4-2.1 3.5 3.1-1.1 3.8-3.2 4-5.5.2-2.5-.7-4.8-2.6-6.4z" fill="#4c4c4c"/><path d="m157.8 64.7c-3-3.2-2.7-6.7-1.6-10.4.1-.5.2-1-.4-1.2s-.9.3-1 .8c-1.2 4.5-1.6 7.8 3 10.8z" fill="#4c4c4c"/><path d="m213.3 109.4c-2 0-4 .2-6.4.3 2.2 1.9 4.5.7 6.5 1.3.4.1.8-.3.8-.7.1-.7-.4-.9-.9-.9z" fill="#4c4c4c"/><path d="m225.8 51.6c1.8-3.1 1-4.8-3.1-7.1 1.6 2.5 3.5 4.3 3.1 7.1z" fill="#4c4c4c"/><path d="m158.2 108.5c-1.8.3-3.5.3-5.9.8 2 .8 4.1 1.1 6.2.8.5-.1 1-.1 1-.8-.1-.7-.6-.9-1.3-.8z" fill="#4c4c4c"/></svg>