<svg xmlns="http://www.w3.org/2000/svg" width="16" height="27" viewBox="0 0 16 27">
    <path fill="#47A5B5" fill-rule="evenodd" d="M14.531.008h-3.407a6.021 6.021 0 0 0-6.3 6.549v3.016H1.397a.55.55 0 0 0-.532.55v4.384c.007.29.242.525.532.532h3.425v11.038a.55.55 0 0 0 .534.55h4.472a.532.532 0 0 0 .532-.532V15.039h4.01a.545.545 0 0 0 .533-.532v-4.384a.55.55 0 0 0-.16-.391.596.596 0 0 0-.372-.159H10.36V7.018a1.532 1.532 0 0 1 1.881-1.846l2.29-.018a.533.533 0 0 0 .532-.533V.557a.534.534 0 0 0-.514-.55h-.019z"/>
</svg>
