<svg viewBox="0 0 660.74 247.84" xmlns="http://www.w3.org/2000/svg"><path d="m610.54 239.67a1.1 1.1 0 0 1 -1.1-1.1v-2.21a1.1 1.1 0 1 1 2.2 0v2.21a1.1 1.1 0 0 1 -1.1 1.1zm0-7.74a1.1 1.1 0 0 1 -1.1-1.1v-2.21a1.1 1.1 0 0 1 2.2 0v2.21a1.1 1.1 0 0 1 -1.1 1.1zm0-7.75a1.1 1.1 0 0 1 -1.1-1.1v-2.21a1.1 1.1 0 0 1 2.2 0v2.21a1.1 1.1 0 0 1 -1.1 1.1zm0-7.74a1.1 1.1 0 0 1 -1.1-1.1v-2.22a1.1 1.1 0 0 1 2.2 0v2.22a1.1 1.1 0 0 1 -1.1 1.1zm0-7.75a1.1 1.1 0 0 1 -1.1-1.1v-2.21a1.1 1.1 0 0 1 2.2 0v2.21a1.1 1.1 0 0 1 -1.1 1.1zm0-7.75a1.09 1.09 0 0 1 -1.1-1.09v-2.22a1.1 1.1 0 0 1 2.2 0v2.22a1.09 1.09 0 0 1 -1.1 1.09z" fill="#1c3e58"/><path d="m433.48 223.56a1.09 1.09 0 0 0 -1.09 1.1v2.21a1.1 1.1 0 1 0 2.19 0v-2.21a1.1 1.1 0 0 0 -1.1-1.1z" fill="#1c3e58"/><path d="m434.58 240.15a1.1 1.1 0 1 0 -2.19 0v2.15h2.19z" fill="#1c3e58"/><path d="m433.48 231.31a1.09 1.09 0 0 0 -1.09 1.09v2.22a1.1 1.1 0 0 0 2.19 0v-2.22a1.09 1.09 0 0 0 -1.1-1.09z" fill="#1c3e58"/><path d="m148.09 199.93 24.17-24.68 44.95 44.95-69.12.06z" fill="#91c9d3"/><path d="m162.49 220.16 34.52-34.53 32.35 32.35.06 2.28z" fill="#bcd6e0"/><path d="m635.59 194.85a25 25 0 0 0 -20.51-24.63v.43a5.64 5.64 0 0 1 -9.18 0v-.43a25.05 25.05 0 0 0 -20.51 24.63v.74a1.52 1.52 0 0 0 1.61 1.41h6.52a1.51 1.51 0 0 1 1.51 1.51 1.51 1.51 0 0 0 1.52 1.51h28a1.51 1.51 0 0 0 1.52-1.51 1.51 1.51 0 0 1 1.51-1.51h6.52a1.52 1.52 0 0 0 1.51-1.44c-.02-.22-.02-.46-.02-.71z" fill="#f4901e"/><path d="m344.82 242.3-6.86-11.51 49.5-28.07 24.83 39.58z" fill="#38a3dc"/><path d="m14.62 108.2h11.92v11.92h-11.92z" fill="#47a5b5"/><path d="m26.53 121.22h-11.91a1.1 1.1 0 0 1 -1.1-1.1v-11.92a1.09 1.09 0 0 1 1.1-1.09h11.91a1.09 1.09 0 0 1 1.1 1.09v11.92a1.1 1.1 0 0 1 -1.1 1.1zm-10.81-2.22h9.71v-9.7h-9.71z" fill="#1c3e58"/><path d="m14.62 127.78h11.92v11.92h-11.92z" fill="#38a3dc"/><path d="m26.53 140.79h-11.91a1.09 1.09 0 0 1 -1.1-1.09v-11.92a1.1 1.1 0 0 1 1.1-1.1h11.91a1.1 1.1 0 0 1 1.1 1.1v11.92a1.09 1.09 0 0 1 -1.1 1.09zm-10.81-2.19h9.71v-9.72h-9.71z" fill="#1c3e58"/><path d="m14.62 147.36h11.92v11.92h-11.92z" fill="#91c9d3"/><path d="m26.53 160.37h-11.91a1.1 1.1 0 0 1 -1.1-1.1v-11.91a1.1 1.1 0 0 1 1.1-1.1h11.91a1.1 1.1 0 0 1 1.1 1.1v11.91a1.1 1.1 0 0 1 -1.1 1.1zm-10.81-2.2h9.71v-9.72h-9.71z" fill="#1c3e58"/><path d="m83.51 74.64h22.59v17.1h-22.59z" fill="#91c9d3"/><path d="m83.51 116.11h99.07v11.78h-99.07z" fill="#38a3dc"/><circle cx="84.99" cy="54.8" fill="#fabf62" r="3.23"/><circle cx="95.8" cy="54.8" fill="#ebf0f6" r="3.23"/><circle cx="106.61" cy="54.8" fill="#91c9d3" r="3.23"/><path d="m199.79 111.72h11.65v15.13h-11.65z" fill="#38a3dc"/><path d="m227.36 74.64h14.76v17.1h-14.76z" fill="#91c9d3"/><path d="m469.48 83.84h15.35v16.3h-15.35z" fill="#e55353"/><path d="m536.99 109.82h26.86v27.39h-26.86z" fill="#91c9d3"/><path d="m443.73 202.76v-17.59h-20.49v17.59h-9.72l19.96 21.9 19.97-21.9z" fill="#38a3dc"/><path d="m190.25 139.8h-115.61a1.1 1.1 0 0 1 -1.1-1.1v-91.7a1.1 1.1 0 0 1 1.1-1.1h129a1.1 1.1 0 0 1 1.1 1.1v20.06a1.1 1.1 0 1 1 -2.2 0v-19h-126.8v89.54h114.51a1.1 1.1 0 1 1 0 2.2z" fill="#1c3e58"/><path d="m203.64 63.32h-129a1.1 1.1 0 1 1 0-2.2h129a1.1 1.1 0 1 1 0 2.2z" fill="#1c3e58"/><path d="m189.68 55.9h-55.5a1.1 1.1 0 1 1 0-2.2h55.5a1.1 1.1 0 0 1 0 2.2z" fill="#1c3e58"/><path d="m180.71 158.24a7 7 0 0 1 -1-.06 1.1 1.1 0 0 1 .29-2.18 9 9 0 0 0 6.53-2c2.12-1.91 3.14-5.09 3-9.43-.32-13.89 0-58 0-58.44a22.55 22.55 0 0 1 6.07-14.89c4.27-4.33 10.41-6.53 18.27-6.53h30c.77 0 9.86-.54 17.34 2.7a1.1 1.1 0 0 1 -.87 2c-7.16-3.11-16.27-2.53-16.36-2.53h-30.09c-7.25 0-12.87 2-16.7 5.87-5.5 5.59-5.44 13.26-5.44 13.34 0 .47-.32 44.54 0 58.4.11 5-1.16 8.77-3.79 11.13a10.89 10.89 0 0 1 -7.25 2.62z" fill="#1c3e58"/><path d="m238 166.31h-59.82c-3.05 0-5.43-.89-7.06-2.66a9.45 9.45 0 0 1 -2.22-6.6 1.11 1.11 0 0 1 1.1-1h60.67a1.1 1.1 0 0 1 .87.43 1.08 1.08 0 0 1 .19.95c-.12.44-1 4.34 3.65 6.1a9.44 9.44 0 0 0 11.36-4.05c2.2-3.75 3.32-9.11 3.32-15.93v-51.8c0-.13-.34-16.12 11.36-18a1.09 1.09 0 1 1 .35 2.16c-9.8 1.6-9.52 15.68-9.51 15.83v51.82c0 7.21-1.22 13-3.62 17a11.72 11.72 0 0 1 -10.48 5.71.65.65 0 0 1 -.16.04zm-66.84-8.08a6.82 6.82 0 0 0 1.63 4 7.11 7.11 0 0 0 5.43 1.94h53.78a7.11 7.11 0 0 1 -2.61-5.89z" fill="#1c3e58"/><path d="m105.62 100h-21.54a1.1 1.1 0 1 1 0-2.19h21.54a1.1 1.1 0 1 1 0 2.19z" fill="#1c3e58"/><path d="m105.62 105.27h-21.54a1.1 1.1 0 0 1 0-2.2h21.54a1.1 1.1 0 0 1 0 2.2z" fill="#1c3e58"/><path d="m105.62 110.51h-21.54a1.1 1.1 0 1 1 0-2.19h21.54a1.1 1.1 0 1 1 0 2.19z" fill="#1c3e58"/><path d="m116.55 74.36h22.59v17.1h-22.59z" fill="#2fc3f6"/><path d="m138.66 99.74h-21.54a1.1 1.1 0 1 1 0-2.19h21.54a1.1 1.1 0 0 1 0 2.19z" fill="#1c3e58"/><path d="m138.66 105h-21.54a1.1 1.1 0 0 1 0-2.2h21.54a1.1 1.1 0 0 1 0 2.2z" fill="#1c3e58"/><path d="m138.66 110.23h-21.54a1.1 1.1 0 0 1 0-2.2h21.54a1.1 1.1 0 0 1 0 2.2z" fill="#1c3e58"/><path d="m149.59 74.08h22.59v17.1h-22.59z" fill="#91c9d3"/><path d="m171.69 99.46h-21.54a1.1 1.1 0 0 1 0-2.2h21.54a1.1 1.1 0 0 1 0 2.2z" fill="#1c3e58"/><path d="m171.69 104.7h-21.54a1.1 1.1 0 1 1 0-2.19h21.54a1.1 1.1 0 1 1 0 2.19z" fill="#1c3e58"/><path d="m171.69 110h-21.54a1.1 1.1 0 1 1 0-2.2h21.54a1.1 1.1 0 1 1 0 2.2z" fill="#1c3e58"/><path d="m220.28 79.78h-20.49a1.1 1.1 0 0 1 0-2.2h20.49a1.1 1.1 0 0 1 0 2.2z" fill="#1c3e58"/><path d="m220.28 85.75h-20.49a1.1 1.1 0 0 1 0-2.2h20.49a1.1 1.1 0 0 1 0 2.2z" fill="#1c3e58"/><path d="m220.28 91.72h-20.49a1.1 1.1 0 0 1 0-2.2h20.49a1.1 1.1 0 0 1 0 2.2z" fill="#1c3e58"/><path d="m242.87 101.23h-43.08a1.1 1.1 0 1 1 0-2.19h43.08a1.1 1.1 0 1 1 0 2.19z" fill="#1c3e58"/><path d="m242.87 107.53h-43.08a1.1 1.1 0 0 1 0-2.2h43.08a1.1 1.1 0 0 1 0 2.2z" fill="#1c3e58"/><path d="m242.87 114.63h-25.09a1.1 1.1 0 0 1 0-2.2h25.09a1.1 1.1 0 1 1 0 2.2z" fill="#1c3e58"/><path d="m242.87 121h-25.09a1.1 1.1 0 0 1 0-2.2h25.09a1.1 1.1 0 0 1 0 2.2z" fill="#1c3e58"/><path d="m242.87 127.43h-25.09a1.1 1.1 0 1 1 0-2.2h25.09a1.1 1.1 0 1 1 0 2.2z" fill="#1c3e58"/><path d="m242.87 133.83h-43.08a1.1 1.1 0 1 1 0-2.2h43.08a1.1 1.1 0 1 1 0 2.2z" fill="#1c3e58"/><path d="m242.87 142h-43.08a1.1 1.1 0 0 1 0-2.2h43.08a1.1 1.1 0 0 1 0 2.2z" fill="#1c3e58"/><path d="m242.87 150.12h-43.08a1.1 1.1 0 1 1 0-2.19h43.08a1.1 1.1 0 1 1 0 2.19z" fill="#1c3e58"/><path d="m317.15 122.85a57.13 57.13 0 1 1 57.13-57.13 57.2 57.2 0 0 1 -57.13 57.13zm0-112.06a54.93 54.93 0 1 0 54.93 54.93 55 55 0 0 0 -54.93-54.93z" fill="#1c3e58"/><path d="m263.72 84.29h-11.18a1.1 1.1 0 1 1 0-2.19h11.18a1.1 1.1 0 1 1 0 2.19z" fill="#1c3e58"/><path d="m317.15 114.14a48.42 48.42 0 1 1 48.42-48.42 48.47 48.47 0 0 1 -48.42 48.42zm0-94.65a46.23 46.23 0 1 0 46.22 46.23 46.28 46.28 0 0 0 -46.22-46.23z" fill="#1c3e58"/><path d="m284.18 123.1a1.11 1.11 0 0 1 -.55-.15 67 67 0 0 1 -23-22.49 1.11 1.11 0 0 1 .37-1.46 1.1 1.1 0 0 1 1.51.35 64.6 64.6 0 0 0 22.22 21.75 1.1 1.1 0 0 1 -.56 2z" fill="#1c3e58"/><path d="m253.78 51.35a1.15 1.15 0 0 1 -.26 0 1.09 1.09 0 0 1 -.81-1.32 66.45 66.45 0 0 1 50.18-49.09 1.1 1.1 0 1 1 .47 2.15 64.42 64.42 0 0 0 -48.51 47.43 1.1 1.1 0 0 1 -1.07.83z" fill="#1c3e58"/><path d="m277.39 54.44a1.25 1.25 0 0 1 -.32 0 1.11 1.11 0 0 1 -.73-1.38 42.87 42.87 0 0 1 34.82-29.6 1.1 1.1 0 1 1 .31 2.17 40.67 40.67 0 0 0 -33 28.08 1.1 1.1 0 0 1 -1.08.73z" fill="#1c3e58"/><path d="m325.89 107.53a1.11 1.11 0 0 1 -1.08-.87 1.1 1.1 0 0 1 .85-1.3 40.67 40.67 0 0 0 28.53-23.16 1.1 1.1 0 0 1 2 .9 42.86 42.86 0 0 1 -30.08 24.4z" fill="#1c3e58"/><path d="m328.41 132.17h-22.51a6.79 6.79 0 0 1 -6.79-6.78v-3.88a6.74 6.74 0 0 1 .55-2.66 1.1 1.1 0 0 1 1.33-.62 55.17 55.17 0 0 0 32.32 0 1.09 1.09 0 0 1 1.33.62 6.57 6.57 0 0 1 .55 2.66v3.88a6.79 6.79 0 0 1 -6.78 6.78zm-27-11.53a5.12 5.12 0 0 0 -.08.87v3.88a4.6 4.6 0 0 0 4.57 4.61h22.51a4.59 4.59 0 0 0 4.58-4.59v-3.88a4.27 4.27 0 0 0 -.08-.87 57.3 57.3 0 0 1 -31.52 0z" fill="#1c3e58"/><path d="m236.15 227.09h-93.58a1.1 1.1 0 0 1 -1.1-1.1v-65.19a1.09 1.09 0 0 1 1.1-1.09h28.05a1.1 1.1 0 1 1 0 2.19h-27v63h91.38v-60a1.1 1.1 0 0 1 2.2 0v61.1a1.1 1.1 0 0 1 -1.05 1.09z" fill="#1c3e58"/><path d="m242.12 227.09a1.1 1.1 0 0 1 -1.12-1.09v-52.13a1.1 1.1 0 0 1 2.2 0v52.13a1.1 1.1 0 0 1 -1.08 1.09z" fill="#1c3e58"/><path d="m248.41 227.09a1.09 1.09 0 0 1 -1.09-1.1v-36.06a1.1 1.1 0 1 1 2.19 0v36.07a1.1 1.1 0 0 1 -1.1 1.09z" fill="#1c3e58"/><path d="m323.32 138.83h-12.32a1.1 1.1 0 1 1 0-2.2h12.34a1.1 1.1 0 1 1 0 2.2z" fill="#1c3e58"/><path d="m323.32 143.91h-12.32a1.1 1.1 0 1 1 0-2.19h12.34a1.1 1.1 0 1 1 0 2.19z" fill="#1c3e58"/><path d="m323.32 149h-12.32a1.1 1.1 0 1 1 0-2.19h12.34a1.1 1.1 0 1 1 0 2.19z" fill="#1c3e58"/><path d="m342.08 219.83a1.15 1.15 0 0 1 -.41-.08 1.09 1.09 0 0 1 -.63-.68 13.08 13.08 0 0 0 -8.15-7.68c-4.12-1.22-7.68-.89-12.18-.46-2.53.24-5.4.51-8.72.51-9.18 0-13.36-5.17-13.36-10a6 6 0 0 1 1.38-4.23 9 9 0 0 1 -4-7.31c0-4.05 2.84-7.07 4.5-8.49a9.52 9.52 0 0 1 -3.29-6.86c0-3.43 2.6-5.7 4.28-6.81-1.34-1.38-3.36-4-3.36-7a6.25 6.25 0 0 1 1.14-3.72 7 7 0 0 1 7.2-2.64 57.48 57.48 0 0 0 8.35 1.6c4.54.53 9.9-1.42 13.45-2.72a31.57 31.57 0 0 1 3.37-1.1 6.32 6.32 0 0 1 5.38.88 1.1 1.1 0 0 1 -1.4 1.69 4.3 4.3 0 0 0 -3.51-.43 31.26 31.26 0 0 0 -3.09 1c-3.74 1.36-9.4 3.42-14.46 2.83a60.65 60.65 0 0 1 -8.67-1.66 4.78 4.78 0 0 0 -4.88 1.86 4.09 4.09 0 0 0 -.68 2.38c0 3.3 3.64 6.29 3.68 6.32a1.11 1.11 0 0 1 .39 1 1.07 1.07 0 0 1 -.63.86s-4.36 2.07-4.36 5.6 3.42 5.94 3.46 6a1.09 1.09 0 0 1 .49.92 1.1 1.1 0 0 1 -.49.92c-.05 0-4.67 3.13-4.67 7.55s4.1 6.18 4.27 6.26a1.08 1.08 0 0 1 .64 1.12 1.11 1.11 0 0 1 -.86 1s-1.47.42-1.47 3.2 2.35 7.77 11.17 7.77c3.21 0 6-.26 8.51-.5 4.56-.43 8.49-.8 13 .55a14.93 14.93 0 0 1 9.1 7.91l33.43-17.77c-2.49-6.19-17.32-42.09-28.41-47.89a89.83 89.83 0 0 0 -20.77-7.64 1.1 1.1 0 0 1 .44-2.15 90.24 90.24 0 0 1 21.35 7.85c12.8 6.69 29.11 48.18 29.8 49.94a1.1 1.1 0 0 1 -.51 1.37l-35.34 18.8a1.14 1.14 0 0 1 -.48.13z" fill="#1c3e58"/><path d="m321.06 219.18h-7.82a7.12 7.12 0 0 1 -7.11-7.11v-2.3a1.1 1.1 0 0 1 1.38-1.06 17.82 17.82 0 0 0 4.48.53c3.21 0 6-.26 8.51-.5a60.38 60.38 0 0 1 6.59-.39 1.09 1.09 0 0 1 1.08 1.1v2.62a7.12 7.12 0 0 1 -7.11 7.11zm-12.73-8.05v.94a4.92 4.92 0 0 0 4.91 4.92h7.82a4.93 4.93 0 0 0 4.92-4.92v-1.52c-1.69 0-3.44.2-5.27.38-2.53.24-5.4.51-8.72.51a20.29 20.29 0 0 1 -3.66-.31z" fill="#1c3e58"/><path d="m316.5 158.33a17.15 17.15 0 0 1 -1.9-.1 61.12 61.12 0 0 1 -7.64-1.39 1.09 1.09 0 0 1 -.83-1.06v-24.7a1.1 1.1 0 0 1 1.1-1.1h19.84a1.1 1.1 0 0 1 1.1 1.1v23.92a1.09 1.09 0 0 1 -.73 1 33.86 33.86 0 0 1 -10.94 2.33zm-8.17-3.42a60.86 60.86 0 0 0 6.53 1.14c3.6.42 7.75-.73 11.12-1.88v-22h-17.65z" fill="#1c3e58"/><path d="m314.35 164.08a18 18 0 0 1 -6.39-1 1.1 1.1 0 1 1 .83-2s3.8 1.49 10.41.36a100.26 100.26 0 0 0 11.48-2.44 1.1 1.1 0 0 1 .66 2.1 98.7 98.7 0 0 1 -11.77 2.57 30.67 30.67 0 0 1 -5.22.41z" fill="#1c3e58"/><path d="m366.2 193.69a1.1 1.1 0 0 1 -1-.67 131.21 131.21 0 0 0 -13.74-23.49 1.09 1.09 0 0 1 .21-1.53 1.1 1.1 0 0 1 1.54.21 132.28 132.28 0 0 1 14 23.95 1.09 1.09 0 0 1 -.58 1.44 1.07 1.07 0 0 1 -.43.09z" fill="#1c3e58"/><path d="m342.08 229.11a1.11 1.11 0 0 1 -.95-.55l-4.11-7a1.07 1.07 0 0 1 -.11-.84 1.05 1.05 0 0 1 .53-.67l4.11-2.26a1.1 1.1 0 1 1 1.06 1.92l-3.13 1.72 3 5.11 41.31-23-2.49-4.54-3.3 1.89a1.1 1.1 0 0 1 -1.5-.42 1.11 1.11 0 0 1 .43-1.5l4.31-2.39a1.1 1.1 0 0 1 1.5.42l3.55 6.39a1.11 1.11 0 0 1 -.42 1.5l-43.26 24.11a1.13 1.13 0 0 1 -.53.11z" fill="#1c3e58"/><circle cx="382.77" cy="220.6" fill="#fff" r="6.09"/><path d="m382.77 227.79a7.19 7.19 0 1 1 7.23-7.19 7.2 7.2 0 0 1 -7.23 7.19zm0-12.18a5 5 0 1 0 5 5 5 5 0 0 0 -5-5z" fill="#1c3e58"/><path d="m321.87 226.31h-8.45c-8.57 0-14.55-5.37-14.55-13.07v-.84a1.1 1.1 0 1 1 2.19 0v.84c0 6.41 5.08 10.88 12.36 10.88h8.45a1.1 1.1 0 1 1 0 2.19z" fill="#1c3e58"/><path d="m154.33 47.16a1.1 1.1 0 0 1 -1.1-1.1v-15.45l-8.74 8.24a1.11 1.11 0 0 1 -1.56-.05 1.1 1.1 0 0 1 0-1.55l10.59-10a1.11 1.11 0 0 1 1.19-.21 1.1 1.1 0 0 1 .66 1v18a1.1 1.1 0 0 1 -1.04 1.12z" fill="#1c3e58"/><path d="m154.33 47.16a1.1 1.1 0 0 1 -1.1-1.1v-18a1.1 1.1 0 0 1 .66-1 1.11 1.11 0 0 1 1.19.21l10.59 10a1.1 1.1 0 0 1 .05 1.55 1.11 1.11 0 0 1 -1.56.05l-8.74-8.24v15.43a1.1 1.1 0 0 1 -1.09 1.1z" fill="#1c3e58"/><path d="m184 47.37a1.09 1.09 0 0 1 -1.1-1.09v-31.11l-8.74 8.24a1.1 1.1 0 0 1 -1.51-1.6l10.59-10a1.11 1.11 0 0 1 1.19-.21 1.09 1.09 0 0 1 .67 1v33.68a1.1 1.1 0 0 1 -1.1 1.09z" fill="#1c3e58"/><path d="m184 47.37a1.09 1.09 0 0 1 -1.1-1.09v-33.65a1.1 1.1 0 0 1 .66-1 1.11 1.11 0 0 1 1.19.21l10.59 10a1.1 1.1 0 1 1 -1.5 1.6l-8.74-8.24v31.08a1.1 1.1 0 0 1 -1.1 1.09z" fill="#1c3e58"/><path d="m497.56 74.54a1.11 1.11 0 0 1 -1.1-1.1v-23.25a1.1 1.1 0 0 1 1.86-.8l12.68 11.93a1.1 1.1 0 1 1 -1.51 1.6l-10.83-10.19v20.71a1.1 1.1 0 0 1 -1.1 1.1z" fill="#1c3e58"/><path d="m497.56 74.54a1.11 1.11 0 0 1 -1.1-1.1v-20.71l-10.81 10.19a1.1 1.1 0 0 1 -1.51-1.6l12.67-11.93a1.1 1.1 0 0 1 1.85.8v23.25a1.1 1.1 0 0 1 -1.1 1.1z" fill="#1c3e58"/><path d="m472.25 74.54a1.1 1.1 0 0 1 -1.1-1.1v-42a1.1 1.1 0 0 1 1.85-.8l12.67 11.96a1.1 1.1 0 1 1 -1.51 1.6l-10.81-10.2v39.44a1.1 1.1 0 0 1 -1.1 1.1z" fill="#1c3e58"/><path d="m472.25 74.54a1.1 1.1 0 0 1 -1.1-1.1v-39.44l-10.81 10.2a1.1 1.1 0 0 1 -1.51-1.6l12.67-11.93a1.1 1.1 0 0 1 1.85.8v42a1.1 1.1 0 0 1 -1.1 1.07z" fill="#1c3e58"/><path d="m414.23 84.19a1.09 1.09 0 0 1 -1.1-1.09l-.22-25.33a6.32 6.32 0 0 1 1.75-4.49 4.85 4.85 0 0 1 3.46-1.48c2.87 0 5.2 2.65 5.2 5.91v25.38a1.1 1.1 0 1 1 -2.2 0v-25.38c0-2.05-1.35-3.71-3-3.72a2.69 2.69 0 0 0 -1.9.84 4.08 4.08 0 0 0 -1.11 2.92l.21 25.33a1.09 1.09 0 0 1 -1.08 1.11z" fill="#1c3e58"/><path d="m429.87 72.73a1.1 1.1 0 0 1 -1.09-1.1 3.36 3.36 0 0 0 -3.35-3.35h-.22a4 4 0 0 0 -1.9.68 1.1 1.1 0 0 1 -2.18-.2c0-1.85 3-2.68 4.08-2.68h.22a5.55 5.55 0 0 1 5.57 5.55 1.1 1.1 0 0 1 -1.13 1.1z" fill="#1c3e58"/><path d="m437.86 85a1.1 1.1 0 0 1 -1.1-1.1v-8.49a3.8 3.8 0 0 0 -3.8-3.8h-1.18a.8.8 0 0 0 -.81.8v10.74a1.1 1.1 0 1 1 -2.19 0v-10.74a3 3 0 0 1 3-3h1.22a6 6 0 0 1 6 6v8.47a1.1 1.1 0 0 1 -1.14 1.12z" fill="#1c3e58"/><path d="m439.19 111.48a1.1 1.1 0 0 1 -1.1-1.1c0-6.76 1.49-8.62 2.93-10.42.31-.39.61-.76.89-1.18 1.18-1.8 1.45-5.51 1.45-6.79v-13.1a2.62 2.62 0 0 0 -2.63-2.62h-1a.74.74 0 0 0 -.73.73 1.1 1.1 0 1 1 -2.2 0 3 3 0 0 1 2.95-2.94h1a4.82 4.82 0 0 1 4.82 4.82v13.12c0 .21 0 5.28-1.81 8-.34.5-.68.93-1 1.34-1.31 1.64-2.44 3.06-2.44 9a1.1 1.1 0 0 1 -1.13 1.14z" fill="#1c3e58"/><path d="m416.46 111.24h-.07a1.1 1.1 0 0 1 -1-1.17c.11-1.78-.23-4.6-1.32-5-1.94-.74-6-2.29-6-7.68v-13.57c.09-1.53 1.48-4.43 6.16-4.43a1.1 1.1 0 0 1 0 2.2c-3.64 0-3.94 2.08-4 2.33v13.45c0 3.58 2.25 4.75 4.56 5.63 3 1.17 2.76 6.6 2.72 7.21a1.1 1.1 0 0 1 -1.05 1.03z" fill="#1c3e58"/><path d="m406 75.66a1.1 1.1 0 0 1 -1.1-1.1v-32.06h-7.71a1.1 1.1 0 0 1 -.75-1.9l21.31-19.89a1.09 1.09 0 0 1 1.5 0l21.3 19.89a1.11 1.11 0 0 1 .27 1.21 1.1 1.1 0 0 1 -1 .69h-7.72v22a1.1 1.1 0 0 1 -2.2 0v-23.09a1.1 1.1 0 0 1 1.1-1.1h6l-18.51-17.31-18.49 17.31h6a1.1 1.1 0 0 1 1.1 1.1v33.15a1.1 1.1 0 0 1 -1.1 1.1z" fill="#1c3e58"/><path d="m440.42 116v-3.47a2.42 2.42 0 0 0 -2.42-2.42h-20.95a2.42 2.42 0 0 0 -2.42 2.42v3.47z" fill="#38a3dc"/><path d="m440.42 117.13h-25.79a1.1 1.1 0 0 1 -1.1-1.1v-3.47a3.53 3.53 0 0 1 3.52-3.52h20.95a3.53 3.53 0 0 1 3.52 3.52v3.44a1.1 1.1 0 0 1 -1.1 1.13zm-24.7-2.2h23.6v-2.37a1.32 1.32 0 0 0 -1.32-1.32h-20.95a1.33 1.33 0 0 0 -1.33 1.32z" fill="#1c3e58"/><path d="m444.46 159.48a1.1 1.1 0 0 1 -1.1-1.1v-41.25h-31.12v35.87a1.1 1.1 0 0 1 -2.2 0v-37a1.1 1.1 0 0 1 1.1-1.1h33.32a1.09 1.09 0 0 1 1.09 1.1v42.35a1.09 1.09 0 0 1 -1.09 1.13z" fill="#1c3e58"/><circle cx="420.7" cy="124.7" fill="#fabf62" r="3.35"/><path d="m420.7 129.15a4.45 4.45 0 1 1 4.44-4.45 4.46 4.46 0 0 1 -4.44 4.45zm0-6.7a2.25 2.25 0 1 0 2.3 2.25 2.25 2.25 0 0 0 -2.3-2.25z" fill="#1c3e58"/><circle cx="420.7" cy="135.55" fill="#fabf62" r="3.35"/><path d="m420.7 140a4.45 4.45 0 1 1 4.44-4.44 4.45 4.45 0 0 1 -4.44 4.44zm0-6.69a2.25 2.25 0 1 0 2.25 2.25 2.25 2.25 0 0 0 -2.25-2.26z" fill="#1c3e58"/><path d="m403.6 147.06a1.1 1.1 0 0 1 -1.1-1.1v-29.69a1.1 1.1 0 1 1 2.2 0v29.73a1.11 1.11 0 0 1 -1.1 1.06z" fill="#1c3e58"/><path d="m364.22 142.18h-7.68a1.09 1.09 0 0 1 -1.1-1.09v-15.91a1.1 1.1 0 0 1 1.1-1.1h7.68a1.1 1.1 0 1 1 0 2.2h-6.58v13.72h6.58a1.1 1.1 0 1 1 0 2.19z" fill="#1c3e58"/><path d="m387.13 142.18h-7.68a1.1 1.1 0 1 1 0-2.19h6.55v-13.71h-3.71a1.1 1.1 0 1 1 0-2.2h4.8a1.1 1.1 0 0 1 1.1 1.1v15.91a1.09 1.09 0 0 1 -1.06 1.09z" fill="#1c3e58"/><path d="m372.32 141.57a1.1 1.1 0 0 1 -1-.56l-5.27-9.37h-2.65a1.1 1.1 0 1 1 0-2.2h3.33a1.12 1.12 0 0 1 1 .56l4.37 7.77 6.25-18.84a1.09 1.09 0 0 1 1-.75h3.86a1.1 1.1 0 1 1 0 2.2h-3.07l-6.78 20.44a1.09 1.09 0 0 1 -.94.74z" fill="#1c3e58"/><path d="m460.92 186.27h-59.36a7.05 7.05 0 0 1 -7.09-7v-.07c0-7 4.57-12.81 10.3-13.18a23.67 23.67 0 0 1 43.57-3.49 16 16 0 0 1 22.17 13v.2a9.54 9.54 0 0 1 -2.44 7.29 9.75 9.75 0 0 1 -7.15 3.25zm-55.55-18c-4.8 0-8.71 4.93-8.71 11a4.85 4.85 0 0 0 4.89 4.78h59.36a7.49 7.49 0 0 0 5.54-2.45 7.18 7.18 0 0 0 1.88-5.6v-.18a13.85 13.85 0 0 0 -20-10.84 1.14 1.14 0 0 1 -.85.06 1.12 1.12 0 0 1 -.64-.57 21.54 21.54 0 0 0 -19.53-12.59 21.76 21.76 0 0 0 -20.69 15.57 1.07 1.07 0 0 1 -1.07.77z" fill="#1c3e58"/><path d="m515.61 153.28a1.11 1.11 0 0 1 -.5-.12l-10.77-5.5h-43.67a1.1 1.1 0 0 1 -1.1-1.09v-72a1.11 1.11 0 0 1 1.1-1.1h43.94a1.14 1.14 0 0 1 .55.16l11 6.2a1.1 1.1 0 0 1 .56 1v71.4a1.1 1.1 0 0 1 -.52.93 1.12 1.12 0 0 1 -.59.12zm-9.91-7.39 8.81 4.49v-69l-8.81-5zm-43.93-.42h41.73v-69.81h-41.73z" fill="#1c3e58"/><path d="m511.5 90.23a1.15 1.15 0 0 1 -.41-.08l-3.71-1.5a1.09 1.09 0 0 1 -.61-1.43 1.11 1.11 0 0 1 1.43-.61l3.71 1.5a1.1 1.1 0 0 1 -.41 2.12z" fill="#1c3e58"/><path d="m511.5 100.84a1.15 1.15 0 0 1 -.41-.08l-3.71-1.5a1.09 1.09 0 0 1 -.61-1.43 1.11 1.11 0 0 1 1.43-.61l3.71 1.5a1.1 1.1 0 0 1 -.41 2.12z" fill="#1c3e58"/><path d="m511.5 111.45a1.15 1.15 0 0 1 -.41-.08l-3.71-1.5a1.1 1.1 0 1 1 .82-2l3.71 1.5a1.1 1.1 0 0 1 -.41 2.12z" fill="#1c3e58"/><path d="m511.5 122.06a1 1 0 0 1 -.41-.09l-3.71-1.49a1.1 1.1 0 1 1 .82-2l3.71 1.5a1.1 1.1 0 0 1 -.41 2.12z" fill="#1c3e58"/><path d="m511.5 132.66a1 1 0 0 1 -.41-.08l-3.71-1.49a1.1 1.1 0 0 1 .82-2l3.71 1.5a1.1 1.1 0 0 1 .61 1.43 1.12 1.12 0 0 1 -1.02.64z" fill="#1c3e58"/><path d="m511.5 143.27a1 1 0 0 1 -.41-.08l-3.71-1.5a1.08 1.08 0 0 1 -.61-1.42 1.09 1.09 0 0 1 1.43-.61l3.71 1.5a1.1 1.1 0 0 1 .61 1.42 1.11 1.11 0 0 1 -1.02.69z" fill="#1c3e58"/><path d="m515.62 153.28a1.1 1.1 0 0 1 -.58-.16 1.12 1.12 0 0 1 -.52-.94v-71.4a1.08 1.08 0 0 1 .56-1l11-6.21a1.13 1.13 0 0 1 .55-.15h43.94a1.1 1.1 0 0 1 1.1 1.1v72a1.1 1.1 0 0 1 -1.1 1.1h-43.68l-10.77 5.49a1.11 1.11 0 0 1 -.5.17zm1.1-71.85v69l8.81-4.49v-69.49zm11 64h41.73v-69.76h-41.72z" fill="#1c3e58"/><path d="m519.73 90.23a1.12 1.12 0 0 1 -1-.68 1.1 1.1 0 0 1 .61-1.43l3.71-1.5a1.1 1.1 0 1 1 .82 2l-3.71 1.49a1 1 0 0 1 -.43.12z" fill="#1c3e58"/><path d="m519.73 100.84a1.11 1.11 0 0 1 -1-.69 1.1 1.1 0 0 1 .61-1.42l3.71-1.5a1.09 1.09 0 1 1 .82 2l-3.71 1.5a1 1 0 0 1 -.43.11z" fill="#1c3e58"/><path d="m519.73 111.45a1.1 1.1 0 0 1 -.41-2.12l3.71-1.49a1.09 1.09 0 1 1 .82 2l-3.71 1.5a1 1 0 0 1 -.41.11z" fill="#1c3e58"/><path d="m519.73 122.06a1.1 1.1 0 0 1 -.41-2.12l3.71-1.49a1.09 1.09 0 1 1 .82 2l-3.71 1.5a1.15 1.15 0 0 1 -.41.11z" fill="#1c3e58"/><path d="m519.73 132.67a1.1 1.1 0 0 1 -.41-2.12l3.71-1.5a1.11 1.11 0 0 1 1.43.61 1.09 1.09 0 0 1 -.61 1.43l-3.71 1.5a1.15 1.15 0 0 1 -.41.08z" fill="#1c3e58"/><path d="m519.73 143.28a1.1 1.1 0 0 1 -.41-2.12l3.71-1.5a1.11 1.11 0 0 1 1.43.61 1.09 1.09 0 0 1 -.61 1.43l-3.71 1.5a1.15 1.15 0 0 1 -.41.08z" fill="#1c3e58"/><path d="m497.46 88.73h-9.17a1.1 1.1 0 0 1 0-2.2h9.17a1.1 1.1 0 1 1 0 2.2z" fill="#1c3e58"/><path d="m497.46 97.93h-9.17a1.1 1.1 0 0 1 0-2.2h9.17a1.1 1.1 0 1 1 0 2.2z" fill="#1c3e58"/><path d="m497.46 106.8h-28a1.1 1.1 0 1 1 0-2.19h28a1.1 1.1 0 1 1 0 2.19z" fill="#1c3e58"/><path d="m497.46 114.68h-28a1.1 1.1 0 0 1 0-2.2h28a1.1 1.1 0 1 1 0 2.2z" fill="#1c3e58"/><path d="m497.46 122.55h-28a1.1 1.1 0 1 1 0-2.19h28a1.1 1.1 0 1 1 0 2.19z" fill="#1c3e58"/><path d="m497.46 130.43h-28a1.1 1.1 0 0 1 0-2.2h28a1.1 1.1 0 1 1 0 2.2z" fill="#1c3e58"/><path d="m497.46 138.31h-28a1.1 1.1 0 0 1 0-2.2h28a1.1 1.1 0 1 1 0 2.2z" fill="#1c3e58"/><path d="m563.86 84.94h-26.86a1.1 1.1 0 0 1 0-2.2h26.87a1.1 1.1 0 0 1 0 2.2z" fill="#1c3e58"/><path d="m563.86 91.47h-26.86a1.1 1.1 0 1 1 0-2.19h26.87a1.1 1.1 0 0 1 0 2.19z" fill="#1c3e58"/><path d="m563.86 98h-26.86a1.1 1.1 0 0 1 0-2.2h26.87a1.1 1.1 0 0 1 0 2.2z" fill="#1c3e58"/><path d="m563.86 104.54h-26.86a1.1 1.1 0 1 1 0-2.19h26.87a1.1 1.1 0 0 1 0 2.19z" fill="#1c3e58"/><path d="m272.74 146.64-14.1 14.65h5.57v9.92h5.14v-2.72a3.39 3.39 0 1 1 6.77 0v2.72h5.14v-9.92h5.57z" fill="#38a3dc"/><path d="m411.14 170.78h-.14a1.1 1.1 0 0 1 -1-1.2c0-.13 1.46-12.85 14.62-14.13a1.1 1.1 0 1 1 .22 2.18c-11.35 1.11-12.6 11.72-12.65 12.17a1.1 1.1 0 0 1 -1.05.98z" fill="#1c3e58"/><path d="m464 175.05a1.08 1.08 0 0 1 -1-.72c-2.45-6.65-9.13-5.49-9.66-5.38a1.1 1.1 0 0 1 -1.3-1.74c.65-.66 3.33-.83 5.5-.35a10.05 10.05 0 0 1 7.52 6.72 1.1 1.1 0 0 1 -.65 1.41 1.26 1.26 0 0 1 -.41.06z" fill="#1c3e58"/><path d="m610.54 164.56a12.33 12.33 0 0 1 -12.31-12.31v-4.84c0-.17 0-.33 0-.48a1.1 1.1 0 1 1 2.19.08v.4 4.84a10.12 10.12 0 0 0 20.24 0v-4.84a9.5 9.5 0 0 0 -.09-1.31 1.1 1.1 0 1 1 2.18-.28 12 12 0 0 1 .1 1.59v4.84a12.33 12.33 0 0 1 -12.31 12.31z" fill="#1c3e58"/><path d="m593.87 167.85a14.87 14.87 0 0 1 -7.31-1.78 15.82 15.82 0 0 1 -7.23-9.45 1.07 1.07 0 0 1 .41-1.13c.08-.06 8.07-6.1 9.9-15.78 1.9-10 5.85-14.69 12.46-14.69a13.16 13.16 0 0 1 9.23 3.32 1.1 1.1 0 1 1 -1.58 1.52 11 11 0 0 0 -7.65-2.65c-3.66 0-8.14 1.47-10.3 12.9-1.71 9-8.1 15-10.14 16.65a13.65 13.65 0 0 0 6 7.4c3.56 2 8.14 2 13.62.12a1.1 1.1 0 0 1 .71 2.08 25.11 25.11 0 0 1 -8.12 1.49z" fill="#1c3e58"/><path d="m627.21 167.85a25.11 25.11 0 0 1 -8.1-1.49 1.1 1.1 0 0 1 .71-2.08c5.48 1.87 10.06 1.83 13.62-.12a13.62 13.62 0 0 0 6-7.4c-2-1.69-8.43-7.62-10.14-16.65-2.16-11.43-6.64-12.9-10.3-12.9a11 11 0 0 0 -7.65 2.65 1.1 1.1 0 0 1 -1.58-1.52 13.16 13.16 0 0 1 9.23-3.34c6.61 0 10.57 4.66 12.46 14.69 1.83 9.71 9.82 15.72 9.9 15.78a1.07 1.07 0 0 1 .41 1.13 15.82 15.82 0 0 1 -7.23 9.45 14.87 14.87 0 0 1 -7.33 1.8z" fill="#1c3e58"/><path d="m595.88 148.67a1.1 1.1 0 0 1 -.13-2.19 18.61 18.61 0 0 0 7.94-3.17c4.68-3.57 4.33-9.8 4.33-9.86a1.1 1.1 0 1 1 2.19-.15c0 .31.42 7.48-5.19 11.76a20.52 20.52 0 0 1 -9 3.6z" fill="#1c3e58"/><path d="m621.61 146.69a17.93 17.93 0 0 1 -14.25-7.41 1.1 1.1 0 0 1 1.83-1.22 15.58 15.58 0 0 0 13.73 6.38 1.1 1.1 0 1 1 .18 2.19c-.51.04-1.01.06-1.49.06z" fill="#1c3e58"/><path d="m610.54 174.11a6.16 6.16 0 0 1 -5.56-3 1.1 1.1 0 0 1 -.1-.62l1-7.78a1.1 1.1 0 0 1 2.12.29l-.93 7.39a4.68 4.68 0 0 0 6.9 0l-.93-7.39a1.1 1.1 0 0 1 2.18-.27l1 7.78a1.1 1.1 0 0 1 -.1.62 6.16 6.16 0 0 1 -5.56 3z" fill="#1c3e58"/><path d="m643.24 150.61h-.17c-6.27-1-7.86-7.33-9.39-13.47a51.33 51.33 0 0 0 -2-6.8c-3.14-7.8-7.2-6.79-7.24-6.78a1.09 1.09 0 1 1 -.58-2.11c.24-.07 6-1.52 9.86 8.06a55 55 0 0 1 2.12 7.1c1.49 5.94 2.77 11.08 7.6 11.84a1.1 1.1 0 0 1 .92 1.25 1.11 1.11 0 0 1 -1.12.91z" fill="#1c3e58"/><path d="m596 201.15a1.1 1.1 0 0 1 -1.06-1.14l.56-14.92a1.1 1.1 0 0 1 2.2.09l-.56 14.91a1.1 1.1 0 0 1 -1.14 1.06z" fill="#1c3e58"/><path d="m625.2 201.15a1.09 1.09 0 0 1 -1.09-1.06l-.56-14.91a1.1 1.1 0 0 1 1.05-1.18 1.09 1.09 0 0 1 1.09 1.05l.61 14.95a1.1 1.1 0 0 1 -1.06 1.14z" fill="#1c3e58"/><circle cx="638.67" cy="224.91" fill="#fabf62" r="18"/><g fill="#1c3e58"><path d="m585.52 82.85a1.54 1.54 0 0 1 -.3 0 1.11 1.11 0 0 1 -.76-1.36c1.38-4.87 6-11.57 11.82-14.4a1.1 1.1 0 0 1 1 2c-5.07 2.46-9.4 8.56-10.66 13a1.11 1.11 0 0 1 -1.1.76z"/><path d="m229.42 221.36h-81.33a1.09 1.09 0 0 1 -1.09-1.1v-53.36a1.09 1.09 0 0 1 1.09-1.1h17.91a1.1 1.1 0 1 1 0 2.19h-16.81v51.17h79.13v-52.26a1.1 1.1 0 1 1 2.19 0v53.36a1.09 1.09 0 0 1 -1.09 1.1z"/><path d="m659.65 91.47h-2.22a1.1 1.1 0 1 1 0-2.19h2.22a1.1 1.1 0 0 1 0 2.19zm-7.75 0h-2.21a1.1 1.1 0 1 1 0-2.19h2.21a1.1 1.1 0 1 1 0 2.19zm-7.75 0h-2.21a1.1 1.1 0 1 1 0-2.19h2.21a1.1 1.1 0 1 1 0 2.19zm-7.74 0h-2.22a1.1 1.1 0 0 1 0-2.19h2.22a1.1 1.1 0 1 1 0 2.19z"/><path d="m610.54 127.65a1.1 1.1 0 0 1 -1.1-1.1v-2.21a1.1 1.1 0 1 1 2.2 0v2.21a1.1 1.1 0 0 1 -1.1 1.1zm0-7.74a1.1 1.1 0 0 1 -1.1-1.1v-2.21a1.1 1.1 0 0 1 2.2 0v2.21a1.1 1.1 0 0 1 -1.1 1.1zm0-7.75a1.1 1.1 0 0 1 -1.1-1.1v-2.21a1.1 1.1 0 0 1 2.2 0v2.21a1.1 1.1 0 0 1 -1.1 1.1z"/><path d="m587.86 172.23h-.22c-7.21-1.42-10.9-8.55-11-8.85a1.1 1.1 0 0 1 2-1c0 .07 3.37 6.48 9.52 7.68a1.1 1.1 0 0 1 .86 1.29 1.09 1.09 0 0 1 -1.16.88z"/><path d="m575.47 157.62h-2.21a1.1 1.1 0 1 1 0-2.19h2.21a1.1 1.1 0 1 1 0 2.19zm-7.74 0h-2.22a1.1 1.1 0 0 1 0-2.19h2.22a1.1 1.1 0 1 1 0 2.19zm-7.75 0h-2.21a1.1 1.1 0 1 1 0-2.19h2.23a1.1 1.1 0 1 1 0 2.19zm-7.74 0h-1.82a1.09 1.09 0 0 1 -1.09-1.09v-.4a1.09 1.09 0 0 1 1.09-1.1 1.08 1.08 0 0 1 .85.4h1a1.1 1.1 0 0 1 0 2.19zm-1.82-5.93a1.09 1.09 0 0 1 -1.09-1.1v-2.21a1.1 1.1 0 1 1 2.19 0v2.21a1.1 1.1 0 0 1 -1.1 1.1z"/><path d="m656.63 190.36h-2.21a1.1 1.1 0 1 1 0-2.2h2.21a1.1 1.1 0 1 1 0 2.2zm-7.74 0h-2.22a1.1 1.1 0 1 1 0-2.2h2.22a1.1 1.1 0 0 1 0 2.2zm-7.75 0h-2.21a1.1 1.1 0 1 1 0-2.2h2.21a1.1 1.1 0 1 1 0 2.2z"/><path d="m468.66 242.3a1.1 1.1 0 0 1 -1.1-1.1v-.65a1.1 1.1 0 1 1 2.2 0v.65a1.1 1.1 0 0 1 -1.1 1.1zm0-6.18a1.1 1.1 0 0 1 -1.1-1.1v-2.21a1.1 1.1 0 1 1 2.2 0v2.19a1.1 1.1 0 0 1 -1.1 1.12zm0-7.75a1.1 1.1 0 0 1 -1.1-1.1v-2.21a1.1 1.1 0 1 1 2.2 0v2.21a1.1 1.1 0 0 1 -1.1 1.1zm0-7.74a1.1 1.1 0 0 1 -1.1-1.1v-2.21a1.1 1.1 0 1 1 2.2 0v2.21a1.1 1.1 0 0 1 -1.1 1.1zm0-7.75a1.1 1.1 0 0 1 -1.1-1.1v-2.21a1.1 1.1 0 1 1 2.2 0v2.21a1.1 1.1 0 0 1 -1.1 1.1zm0-7.74a1.1 1.1 0 0 1 -1.1-1.1v-2.22a1.1 1.1 0 0 1 2.2 0v2.18a1.1 1.1 0 0 1 -1.1 1.14zm0-7.75a1.1 1.1 0 0 1 -1.1-1.1v-2.21a1.1 1.1 0 1 1 2.2 0v2.21a1.1 1.1 0 0 1 -1.1 1.1zm0-7.75a1.09 1.09 0 0 1 -1.1-1.09v-2.22a1.1 1.1 0 1 1 2.2 0v2.22a1.09 1.09 0 0 1 -1.1 1.09z"/><path d="m395.57 169.08h-2.22a1.1 1.1 0 0 1 0-2.19h2.22a1.1 1.1 0 0 1 0 2.19zm-7.75 0h-2.21a1.1 1.1 0 1 1 0-2.19h2.21a1.1 1.1 0 1 1 0 2.19zm-7.74 0h-2.22a1.1 1.1 0 1 1 0-2.19h2.22a1.1 1.1 0 0 1 0 2.19zm-7.75 0h-2.21a1.1 1.1 0 1 1 0-2.19h2.21a1.1 1.1 0 1 1 0 2.19z"/><path d="m272.74 222.59a1.09 1.09 0 0 0 -1.1 1.09v2.22a1.1 1.1 0 0 0 2.19 0v-2.22a1.09 1.09 0 0 0 -1.09-1.09z"/><path d="m272.74 183.86a1.1 1.1 0 0 0 -1.1 1.1v2.21a1.1 1.1 0 1 0 2.19 0v-2.17a1.09 1.09 0 0 0 -1.09-1.14z"/><path d="m272.74 191.6a1.1 1.1 0 0 0 -1.1 1.1v2.21a1.1 1.1 0 1 0 2.19 0v-2.21a1.09 1.09 0 0 0 -1.09-1.1z"/><path d="m272.74 176.11a1.1 1.1 0 0 0 -1.1 1.1v2.21a1.1 1.1 0 1 0 2.19 0v-2.21a1.09 1.09 0 0 0 -1.09-1.1z"/><path d="m273.83 241.39v-2.22a1.1 1.1 0 0 0 -2.19 0v2.22a1.1 1.1 0 0 0 .48.91h1.23a1.1 1.1 0 0 0 .48-.91z"/><path d="m272.74 199.35a1.1 1.1 0 0 0 -1.1 1.1v2.21a1.1 1.1 0 1 0 2.19 0v-2.21a1.09 1.09 0 0 0 -1.09-1.1z"/><path d="m272.74 230.33a1.1 1.1 0 0 0 -1.1 1.1v2.21a1.1 1.1 0 1 0 2.19 0v-2.21a1.09 1.09 0 0 0 -1.09-1.1z"/><path d="m272.74 214.84a1.1 1.1 0 0 0 -1.1 1.1v2.21a1.1 1.1 0 1 0 2.19 0v-2.21a1.09 1.09 0 0 0 -1.09-1.1z"/><path d="m272.74 207.09a1.1 1.1 0 0 0 -1.1 1.1v2.22a1.1 1.1 0 0 0 2.19 0v-2.22a1.1 1.1 0 0 0 -1.09-1.1z"/><path d="m307.23 138.31h-2.23a1.1 1.1 0 1 1 0-2.2h2.21a1.1 1.1 0 0 1 0 2.2zm-7.75 0h-2.21a1.1 1.1 0 1 1 0-2.2h2.21a1.1 1.1 0 0 1 0 2.2zm-7.74 0h-2.22a1.1 1.1 0 0 1 0-2.2h2.22a1.1 1.1 0 0 1 0 2.2zm-7.75 0h-2.21a1.1 1.1 0 1 1 0-2.2h2.22a1.1 1.1 0 0 1 0 2.2zm-7.74 0h-2.25a1.1 1.1 0 1 1 0-2.2h2.22a1.1 1.1 0 0 1 0 2.2zm-7.75 0h-2.21a1.1 1.1 0 0 1 0-2.2h2.21a1.1 1.1 0 1 1 0 2.2zm-7.75 0h-2.21a1.1 1.1 0 0 1 0-2.2h2.21a1.1 1.1 0 1 1 0 2.2zm-7.74 0h-1.85a1.1 1.1 0 0 1 0-2.2h1.84a1.1 1.1 0 1 1 0 2.2z"/><path d="m407 94.78h-2.21a1.1 1.1 0 0 1 0-2.2h2.21a1.1 1.1 0 1 1 0 2.2zm-7.74 0h-2.26a1.1 1.1 0 0 1 0-2.2h2.22a1.1 1.1 0 0 1 0 2.2zm-7.75 0h-2.21a1.1 1.1 0 0 1 0-2.2h2.21a1.1 1.1 0 1 1 0 2.2zm-7.75 0h-2.21a1.1 1.1 0 0 1 0-2.2h2.21a1.1 1.1 0 1 1 0 2.2zm-7.74 0h-2.21a1.1 1.1 0 0 1 0-2.2h2.19a1.1 1.1 0 1 1 0 2.2zm-7.75 0h-2.21a1.1 1.1 0 0 1 0-2.2h2.21a1.1 1.1 0 1 1 0 2.2z"/><path d="m393 42.46h-2.21a1.1 1.1 0 1 1 0-2.19h2.21a1.1 1.1 0 1 1 0 2.19zm-7.74 0h-2.26a1.1 1.1 0 1 1 0-2.19h2.21a1.1 1.1 0 1 1 0 2.19zm-7.75 0h-2.21a1.1 1.1 0 1 1 0-2.19h2.21a1.1 1.1 0 1 1 0 2.19zm-7.74 0h-2.27a1.1 1.1 0 0 1 0-2.19h2.22a1.1 1.1 0 0 1 0 2.19z"/><path d="m138.62 181.06h-2.22a1.1 1.1 0 1 1 0-2.19h2.22a1.1 1.1 0 0 1 0 2.19zm-7.75 0h-2.21a1.1 1.1 0 1 1 0-2.19h2.21a1.1 1.1 0 1 1 0 2.19zm-7.75 0h-1.85a1.09 1.09 0 0 1 -1.1-1.09v-.36a1.1 1.1 0 0 1 1.91-.74h1a1.1 1.1 0 1 1 0 2.19zm-1.85-5.89a1.1 1.1 0 0 1 -1.1-1.1v-2.21a1.1 1.1 0 1 1 2.2 0v2.21a1.1 1.1 0 0 1 -1.1 1.1zm0-7.74a1.1 1.1 0 0 1 -1.1-1.1v-2.22a1.1 1.1 0 0 1 2.2 0v2.22a1.1 1.1 0 0 1 -1.1 1.1zm0-7.75a1.1 1.1 0 0 1 -1.1-1.1v-2.21a1.1 1.1 0 0 1 2.2 0v2.21a1.1 1.1 0 0 1 -1.1 1.1zm0-7.75a1.09 1.09 0 0 1 -1.1-1.09v-2.22a1.1 1.1 0 0 1 2.2 0v2.22a1.09 1.09 0 0 1 -1.1 1.09zm0-7.74a1.1 1.1 0 0 1 -1.1-1.1v-2.21a1.1 1.1 0 0 1 2.2 0v2.21a1.1 1.1 0 0 1 -1.1 1.1z"/><path d="m48 152.5a1.1 1.1 0 0 1 -1.1-1.1v-2.21a1.1 1.1 0 1 1 2.19 0v2.21a1.09 1.09 0 0 1 -1.09 1.1zm0-7.74a1.1 1.1 0 0 1 -1.1-1.1v-2.21a1.1 1.1 0 1 1 2.19 0v2.21a1.09 1.09 0 0 1 -1.09 1.1zm0-7.76a1.1 1.1 0 0 1 -1.1-1.1v-2.2a1.1 1.1 0 1 1 2.19 0v2.21a1.09 1.09 0 0 1 -1.09 1.09zm0-7.74a1.1 1.1 0 0 1 -1.1-1.1v-2.16a1.1 1.1 0 0 1 2.19 0v2.22a1.1 1.1 0 0 1 -1.09 1.05zm0-7.75a1.1 1.1 0 0 1 -1.1-1.1v-2.21a1.1 1.1 0 1 1 2.19 0v2.21a1.09 1.09 0 0 1 -1.09 1.11zm0-7.75a1.09 1.09 0 0 1 -1.1-1.09v-2.22a1.1 1.1 0 1 1 2.19 0v2.22a1.09 1.09 0 0 1 -1.09 1.1zm0-7.76a1.1 1.1 0 0 1 -1.1-1.1v-2.21a1.1 1.1 0 1 1 2.19 0v2.21a1.09 1.09 0 0 1 -1.09 1.1zm0-7.75a1.1 1.1 0 0 1 -1.1-1.1v-2.15a1.1 1.1 0 1 1 2.19 0v2.21a1.09 1.09 0 0 1 -1.09 1.07zm20-5.44h-2.18a1.1 1.1 0 1 1 0-2.19h2.18a1.1 1.1 0 1 1 0 2.19zm-7.75 0h-2.18a1.1 1.1 0 1 1 0-2.19h2.21a1.1 1.1 0 1 1 0 2.19zm-7.74 0h-2.19a1.1 1.1 0 0 1 0-2.19h2.22a1.1 1.1 0 1 1 0 2.19z"/><path d="m16.23 241.31a1.11 1.11 0 0 1 -1.1-1.13v-2.28a1.1 1.1 0 1 1 2.2 0v2.28a1.11 1.11 0 0 1 -1.1 1.13zm0-8a1.12 1.12 0 0 1 -1.1-1.13v-2.28a1.1 1.1 0 1 1 2.2 0v2.29a1.12 1.12 0 0 1 -1.1 1.13zm0-8a1.12 1.12 0 0 1 -1.1-1.13v-2.29a1.1 1.1 0 1 1 2.2 0v2.29a1.12 1.12 0 0 1 -1.1 1.15zm0-8a1.12 1.12 0 0 1 -1.1-1.14v-2.28a1.1 1.1 0 1 1 2.2 0v2.28a1.12 1.12 0 0 1 -1.1 1.17zm0-8a1.11 1.11 0 0 1 -1.1-1.13v-2.28a1.1 1.1 0 1 1 2.2 0v2.28a1.11 1.11 0 0 1 -1.1 1.16zm0-8a1.12 1.12 0 0 1 -1.1-1.13v-2.29a1.1 1.1 0 1 1 2.2 0v2.29a1.12 1.12 0 0 1 -1.1 1.17zm0-8a1.12 1.12 0 0 1 -1.1-1.13v-2.29a1.1 1.1 0 1 1 2.2 0v2.29a1.12 1.12 0 0 1 -1.1 1.18zm0-8a1.12 1.12 0 0 1 -1.1-1.14v-1.78a1.12 1.12 0 0 1 1.1-1.14h.48a1.12 1.12 0 0 1 1.1 1.14 1.16 1.16 0 0 1 -.48.94v.84a1.12 1.12 0 0 1 -1.1 1.2zm16-1.79h-2.23a1.14 1.14 0 0 1 0-2.27h2.2a1.14 1.14 0 0 1 0 2.27zm-7.74 0h-2.24a1.14 1.14 0 0 1 0-2.27h2.21a1.14 1.14 0 0 1 0 2.27z"/><path d="m93.18 241.63a1.1 1.1 0 0 1 -1.1-1.1v-1.77a1.1 1.1 0 0 1 2.19 0v1.77a1.09 1.09 0 0 1 -1.09 1.1zm0-7.3a1.1 1.1 0 0 1 -1.1-1.1v-2.23a1.1 1.1 0 1 1 2.19 0v2.21a1.09 1.09 0 0 1 -1.09 1.12zm0-7.75a1.09 1.09 0 0 1 -1.1-1.09v-2.22a1.1 1.1 0 1 1 2.19 0v2.22a1.09 1.09 0 0 1 -1.09 1.09z"/><path d="m93.18 218.63a1.1 1.1 0 0 1 -1.1-1.1v-1.77a1.1 1.1 0 0 1 2.19 0v1.77a1.09 1.09 0 0 1 -1.09 1.1zm0-7.3a1.1 1.1 0 0 1 -1.1-1.1v-2.23a1.1 1.1 0 1 1 2.19 0v2.21a1.09 1.09 0 0 1 -1.09 1.12zm0-7.75a1.09 1.09 0 0 1 -1.1-1.09v-2.22a1.1 1.1 0 1 1 2.19 0v2.22a1.09 1.09 0 0 1 -1.09 1.09z"/><path d="m93.18 195.3a1.1 1.1 0 0 1 -1.1-1.1v-1.77a1.1 1.1 0 1 1 2.19 0v1.77a1.1 1.1 0 0 1 -1.09 1.1zm0-7.3a1.1 1.1 0 0 1 -1.1-1.1v-2.21a1.1 1.1 0 1 1 2.19 0v2.21a1.09 1.09 0 0 1 -1.09 1.1zm0-7.75a1.1 1.1 0 0 1 -1.1-1.1v-2.21a1.1 1.1 0 1 1 2.19 0v2.21a1.09 1.09 0 0 1 -1.09 1.1z"/><path d="m93.18 172.3a1.1 1.1 0 0 1 -1.1-1.1v-1.77a1.1 1.1 0 1 1 2.19 0v1.77a1.1 1.1 0 0 1 -1.09 1.1zm0-7.3a1.1 1.1 0 0 1 -1.1-1.1v-2.21a1.1 1.1 0 1 1 2.19 0v2.21a1.09 1.09 0 0 1 -1.09 1.1zm0-7.75a1.1 1.1 0 0 1 -1.1-1.1v-2.21a1.1 1.1 0 1 1 2.19 0v2.21a1.09 1.09 0 0 1 -1.09 1.1z"/><path d="m92 147.78h-20.36a5.52 5.52 0 0 1 -5.52-5.51v-16.88a1.1 1.1 0 0 1 2.2 0v16.88a3.32 3.32 0 0 0 3.32 3.32h20.36a1.1 1.1 0 1 1 0 2.19z"/><path d="m96.67 147.89a1.22 1.22 0 0 1 -1.18-1 1.22 1.22 0 0 1 .94-1.42h.24a1.2 1.2 0 0 1 1 1.86 1.18 1.18 0 0 1 -.76.51h-.24z"/><path d="m195.57 56a1.21 1.21 0 0 1 -1.17-1 1.18 1.18 0 0 1 .17-.9 1.23 1.23 0 0 1 .76-.52h.24a1.2 1.2 0 0 1 .24 2.37 1 1 0 0 1 -.24 0z"/><path d="m289.68 125.14a1.2 1.2 0 0 1 -1.17-1 1.17 1.17 0 0 1 .17-.91 1.26 1.26 0 0 1 .76-.51 1 1 0 0 1 .24 0 1.19 1.19 0 0 1 1.17 1 1.15 1.15 0 0 1 -.17.9 1.22 1.22 0 0 1 -.76.51 1 1 0 0 1 -.24 0z"/><path d="m356.72 79.88a1.2 1.2 0 0 1 -1.17-1 1.14 1.14 0 0 1 .17-.9 1.23 1.23 0 0 1 .76-.52h.24a1.19 1.19 0 0 1 1 1.86 1.18 1.18 0 0 1 -.76.51 1 1 0 0 1 -.24 0z"/><path d="m317.31 25.12a1.2 1.2 0 0 1 -1.17-1 1.24 1.24 0 0 1 .17-.9 1.18 1.18 0 0 1 .76-.51 1.05 1.05 0 0 1 .24 0 1.21 1.21 0 0 1 1.18 1 1.22 1.22 0 0 1 -.94 1.42h-.24z"/><path d="m308.33 2.4a1.21 1.21 0 0 1 -1.17-1 1.22 1.22 0 0 1 .17-.9 1.22 1.22 0 0 1 .77-.5h.23a1.2 1.2 0 0 1 .24 2.37 1 1 0 0 1 -.24 0z"/><path d="m403.6 112.51a1.2 1.2 0 0 1 -.24-2.37 1 1 0 0 1 .24 0 1.2 1.2 0 0 1 1.17 1 1.18 1.18 0 0 1 -.17.9 1.23 1.23 0 0 1 -.76.52h-.24z"/><path d="m335.49 159.71a1.19 1.19 0 0 1 -1-1.86 1.17 1.17 0 0 1 .76-.51 1 1 0 0 1 .24 0 1.2 1.2 0 0 1 1.17 1 1.24 1.24 0 0 1 -.17.9 1.22 1.22 0 0 1 -.76.51 1.06 1.06 0 0 1 -.24 0z"/><path d="m368.3 197.93a1.19 1.19 0 0 1 -1-1.86 1.13 1.13 0 0 1 .76-.51 1 1 0 0 1 .24 0 1.21 1.21 0 0 1 1.17 1 1.22 1.22 0 0 1 -.94 1.42h-.24z"/><path d="m429.51 158.3a1.19 1.19 0 0 1 -1.17-1 1.15 1.15 0 0 1 .17-.9 1.18 1.18 0 0 1 .76-.51 1 1 0 0 1 .24 0 1.22 1.22 0 0 1 1.18 1 1.18 1.18 0 0 1 -.18.9 1.23 1.23 0 0 1 -.76.52h-.24z"/><path d="m464.87 179.59a1.22 1.22 0 0 1 -1.18-1 1.2 1.2 0 0 1 .18-.9 1.18 1.18 0 0 1 .76-.52h.24a1.2 1.2 0 0 1 1 1.86 1.18 1.18 0 0 1 -.76.51 1 1 0 0 1 -.24 0z"/><path d="m592.21 172.73a1.2 1.2 0 0 1 -.24-2.37 1 1 0 0 1 .24 0 1.2 1.2 0 0 1 1.17 1 1.14 1.14 0 0 1 -.17.9 1.23 1.23 0 0 1 -.76.52h-.24z"/><path d="m647.09 152.18a1.2 1.2 0 0 1 -.24-2.37 1 1 0 0 1 .24 0 1.22 1.22 0 0 1 1.18 1 1.22 1.22 0 0 1 -.94 1.42h-.24z"/></g><circle cx="610.54" cy="90.37" fill="#e55353" r="21.3"/><path d="m610.47 98.85a1.1 1.1 0 0 1 -1-.57c-3.13-5.66-1.49-7.53 1.36-9.73l.62-.48c3.07-2.45 3.32-2.89 3.32-5.93 0-2.37-2.16-3.67-4.17-3.87-1.82-.19-3.83.48-4.24 2.41-.55 2.6.84 3.45 1 3.54a1.09 1.09 0 0 1 .48 1.47 1.11 1.11 0 0 1 -1.48.48c-.12-.06-3.07-1.58-2.15-5.94.59-2.79 3.3-4.5 6.62-4.15 3 .31 6.13 2.33 6.13 6.06 0 4-.73 4.93-4.14 7.64l-.65.51c-2.17 1.71-3.17 2.49-.74 6.93a1.1 1.1 0 0 1 -.43 1.49 1.13 1.13 0 0 1 -.53.14z" fill="#1c3e58"/><path d="m611.81 103.61a1.2 1.2 0 0 1 -1-1.87 1.23 1.23 0 0 1 .76-.52 1.1 1.1 0 0 1 .25 0 1.2 1.2 0 0 1 1.18 1 1.22 1.22 0 0 1 -.18.91 1.17 1.17 0 0 1 -.76.52 1 1 0 0 1 -.24 0z" fill="#1c3e58"/><path d="m600.71 67.68a1.22 1.22 0 0 1 -1.18-1 1.22 1.22 0 0 1 .94-1.42h.24a1.2 1.2 0 0 1 1 1.86 1.18 1.18 0 0 1 -.76.51h-.24z" fill="#1c3e58"/><path d="m248.41 184a1.21 1.21 0 0 1 -1.17-1 1.2 1.2 0 0 1 .94-1.42h.24a1.19 1.19 0 0 1 1 1.86 1.13 1.13 0 0 1 -.76.51 1 1 0 0 1 -.24 0z" fill="#1c3e58"/><path d="m328.65 226.41a1.2 1.2 0 0 1 -1.17-.95 1.19 1.19 0 0 1 .93-1.42 1 1 0 0 1 .24 0 1.19 1.19 0 0 1 1 1.86 1.17 1.17 0 0 1 -.76.51 1 1 0 0 1 -.24 0z" fill="#1c3e58"/><path d="m188.76 224.89a1.1 1.1 0 0 0 -1.1 1.1v2.21a1.1 1.1 0 1 0 2.19 0v-2.2a1.09 1.09 0 0 0 -1.09-1.11z" fill="#1c3e58"/><path d="m189.85 241.48a1.1 1.1 0 1 0 -2.19 0v.82h2.19z" fill="#1c3e58"/><path d="m188.76 232.64a1.1 1.1 0 0 0 -1.1 1.1v2.26a1.1 1.1 0 1 0 2.19 0v-2.21a1.09 1.09 0 0 0 -1.09-1.15z" fill="#1c3e58"/><circle cx="213.19" cy="179.52" fill="#fabf62" r="6.59" transform="matrix(.16022575 -.9870804 .9870804 .16022575 1.84 361.2)"/><path d="m550.42 63.51a1.09 1.09 0 0 0 -1.09 1.09v2.22a1.1 1.1 0 1 0 2.19 0v-2.22a1.09 1.09 0 0 0 -1.1-1.09z" fill="#1c3e58"/><path d="m629.51 49.65h-2.21a1.1 1.1 0 1 0 0 2.19h2.21a1.1 1.1 0 1 0 0-2.19z" fill="#1c3e58"/><path d="m614 49.65h-2.21a1.1 1.1 0 1 0 0 2.19h2.21a1.1 1.1 0 1 0 0-2.19z" fill="#1c3e58"/><path d="m621.77 49.65h-2.22a1.1 1.1 0 0 0 0 2.19h2.22a1.1 1.1 0 1 0 0-2.19z" fill="#1c3e58"/><path d="m606.28 49.65h-2.22a1.1 1.1 0 0 0 0 2.19h2.22a1.1 1.1 0 0 0 0-2.19z" fill="#1c3e58"/><path d="m598.53 49.65h-2.21a1.1 1.1 0 1 0 0 2.19h2.21a1.1 1.1 0 1 0 0-2.19z" fill="#1c3e58"/><path d="m658.28 49.65a1.1 1.1 0 0 0 0 2.19h2.22a1 1 0 0 0 .24 0v-2.16a1 1 0 0 0 -.24 0z" fill="#1c3e58"/><path d="m652.75 49.65h-2.21a1.1 1.1 0 1 0 0 2.19h2.21a1.1 1.1 0 1 0 0-2.19z" fill="#1c3e58"/><path d="m645 49.65h-2.22a1.1 1.1 0 1 0 0 2.19h2.22a1.1 1.1 0 0 0 0-2.19z" fill="#1c3e58"/><path d="m637.26 49.65h-2.21a1.1 1.1 0 1 0 0 2.19h2.21a1.1 1.1 0 1 0 0-2.19z" fill="#1c3e58"/><path d="m550.42 55.76a1.09 1.09 0 0 0 -1.09 1.1v2.21a1.1 1.1 0 1 0 2.19 0v-2.21a1.1 1.1 0 0 0 -1.1-1.1z" fill="#1c3e58"/><path d="m552.06 49.65h-1.64a1.09 1.09 0 0 0 -1.09 1.1v.58a1.09 1.09 0 0 0 2.06.51h.67a1.1 1.1 0 0 0 0-2.19z" fill="#1c3e58"/><path d="m550.42 71.25a1.09 1.09 0 0 0 -1.09 1.1v2.21a1.1 1.1 0 1 0 2.19 0v-2.21a1.1 1.1 0 0 0 -1.1-1.1z" fill="#1c3e58"/><path d="m559.8 49.65h-2.21a1.1 1.1 0 1 0 0 2.19h2.21a1.1 1.1 0 1 0 0-2.19z" fill="#1c3e58"/><path d="m575.29 49.65h-2.21a1.1 1.1 0 1 0 0 2.19h2.21a1.1 1.1 0 1 0 0-2.19z" fill="#1c3e58"/><path d="m567.55 49.65h-2.22a1.1 1.1 0 0 0 0 2.19h2.22a1.1 1.1 0 1 0 0-2.19z" fill="#1c3e58"/><path d="m583 49.65h-2.21a1.1 1.1 0 1 0 0 2.19h2.21a1.1 1.1 0 1 0 0-2.19z" fill="#1c3e58"/><path d="m590.79 49.65h-2.22a1.1 1.1 0 1 0 0 2.19h2.22a1.1 1.1 0 0 0 0-2.19z" fill="#1c3e58"/><path d="m51.4 53.7h-2.21a1.1 1.1 0 1 0 0 2.2h2.21a1.1 1.1 0 1 0 0-2.2z" fill="#1c3e58"/><path d="m59.15 53.7h-2.21a1.1 1.1 0 1 0 0 2.2h2.21a1.1 1.1 0 1 0 0-2.2z" fill="#1c3e58"/><path d="m74.64 53.7h-2.21a1.1 1.1 0 0 0 0 2.2h2.21a1.1 1.1 0 1 0 0-2.2z" fill="#1c3e58"/><path d="m66.89 53.7h-2.21a1.1 1.1 0 0 0 0 2.2h2.21a1.1 1.1 0 1 0 0-2.2z" fill="#1c3e58"/><path d="m43.66 53.7h-2.22a1.1 1.1 0 0 0 0 2.2h2.22a1.1 1.1 0 1 0 0-2.2z" fill="#1c3e58"/><path d="m12.67 53.7h-2.21a1.1 1.1 0 1 0 0 2.2h2.21a1.1 1.1 0 1 0 0-2.2z" fill="#1c3e58"/><path d="m20.42 53.7h-2.21a1.1 1.1 0 1 0 0 2.2h2.21a1.1 1.1 0 0 0 0-2.2z" fill="#1c3e58"/><path d="m2.72 55.9h2.21a1.1 1.1 0 0 0 0-2.2h-2.21a1.09 1.09 0 0 0 -.87.43v1.34a1.09 1.09 0 0 0 .87.43z" fill="#1c3e58"/><path d="m28.17 53.7h-2.17a1.1 1.1 0 1 0 0 2.2h2.22a1.1 1.1 0 0 0 0-2.2z" fill="#1c3e58"/><path d="m35.91 53.7h-2.21a1.1 1.1 0 1 0 0 2.2h2.21a1.1 1.1 0 1 0 0-2.2z" fill="#1c3e58"/><path d="m571.52 234.17a1.1 1.1 0 0 0 -1.1 1.1v2.21a1.1 1.1 0 1 0 2.2 0v-2.21a1.1 1.1 0 0 0 -1.1-1.1z" fill="#1c3e58"/><path d="m571.52 226.43a1.1 1.1 0 0 0 -1.1 1.1v2.21a1.1 1.1 0 1 0 2.2 0v-2.21a1.1 1.1 0 0 0 -1.1-1.1z" fill="#1c3e58"/><path d="m571.52 210.94a1.09 1.09 0 0 0 -1.1 1.09v2.22a1.1 1.1 0 0 0 2.2 0v-2.25a1.09 1.09 0 0 0 -1.1-1.06z" fill="#1c3e58"/><path d="m571.52 241.92a1.08 1.08 0 0 0 -.82.38h1.64a1.08 1.08 0 0 0 -.82-.38z" fill="#1c3e58"/><path d="m571.52 218.68a1.1 1.1 0 0 0 -1.1 1.1v2.22a1.1 1.1 0 1 0 2.2 0v-2.21a1.1 1.1 0 0 0 -1.1-1.11z" fill="#1c3e58"/><path d="m638.84 219.81a1.23 1.23 0 0 0 -1.23 1.23v13.05a1.24 1.24 0 0 0 2.47 0v-13.09a1.23 1.23 0 0 0 -1.24-1.19z" fill="#1c3e58"/><path d="m638.84 215.32h-.25a1.25 1.25 0 0 0 -.8.55 1.2 1.2 0 0 0 -.18.94 1.27 1.27 0 0 0 1.23 1 1.15 1.15 0 0 0 .26 0 1.26 1.26 0 0 0 -.26-2.5z" fill="#1c3e58"/><path d="m318.67 44.82h-5.13l-7.26 25.59h5.17l1.44-5.54h6.4l1.45 5.54h5.19zm-4.77 16.18 2.1-8.15h.1l2.16 8.15z" fill="#61c4f2"/><path d="m292.12 44.82h14.62v3.88h-9.68v7.14h8.13v3.86h-8.13v10.71h-4.94z" fill="#61c4f2"/><path d="m322.15 92.41h-32a2 2 0 0 1 0-4h32a2 2 0 0 1 0 4z" fill="#61c4f2"/><path d="m338.15 82.41h-48a2 2 0 0 1 0-4h48a2 2 0 0 1 0 4z" fill="#61c4f2"/><path d="m344.05 67a8.86 8.86 0 0 0 1.16-2.61 12 12 0 0 0 .41-3.22v-7.11a9.57 9.57 0 0 0 -2.56-7.06 9.21 9.21 0 0 0 -6.8-2.55 9.06 9.06 0 0 0 -6.75 2.55 9.6 9.6 0 0 0 -2.51 7.06v7.14a9.57 9.57 0 0 0 2.53 7 9.15 9.15 0 0 0 6.77 2.53 11.44 11.44 0 0 0 2.45-.25 8.85 8.85 0 0 0 2.19-.75l3 3.41 3.2-2.6zm-3.38-5.83a6.87 6.87 0 0 1 -1.11 4.27 3.92 3.92 0 0 1 -3.28 1.42 3.86 3.86 0 0 1 -3.28-1.39 6.87 6.87 0 0 1 -1.1-4.27v-7.2a6.83 6.83 0 0 1 1.1-4.22 3.84 3.84 0 0 1 3.25-1.41 4 4 0 0 1 3.28 1.42 6.72 6.72 0 0 1 1.14 4.21z" fill="#61c4f2"/><path d="m72.45 159.7a45.35 45.35 0 0 0 -19 4.12l5.11 6.57-1.38 10-.06-.08-10-1.13-5.61-7.18a38.29 38.29 0 0 0 -11.85 27.51c0 22 19.16 39.81 42.79 39.81a45.26 45.26 0 0 0 19.43-4.32v-71a45.26 45.26 0 0 0 -19.43-4.3z" fill="#e55353"/><path d="m72.45 171.06a32.24 32.24 0 0 0 -14.45 3.36l-.83 6-.06-.08-6.53-.73a27.38 27.38 0 0 0 -8.75 19.92c0 15.71 13.69 28.45 30.58 28.45a31.88 31.88 0 0 0 19.43-6.48v-44a31.94 31.94 0 0 0 -19.39-6.44z" fill="#fff"/><path d="m72.45 226.92c-16.28 0-29.53-12.29-29.53-27.4a26.23 26.23 0 0 1 8.08-18.83l5.74.65a1 1 0 0 0 .75.08 1 1 0 0 0 .77-.87l.75-5.43a31.42 31.42 0 0 1 13.45-3 30.72 30.72 0 0 1 19.43 6.78v-2.66a33 33 0 0 0 -19.44-6.24 33.47 33.47 0 0 0 -14.88 3.47 1 1 0 0 0 -.57.79l-.68 4.92-5.59-.63a1 1 0 0 0 -.84.28 28.34 28.34 0 0 0 -9.07 20.68c0 16.28 14.18 29.49 31.63 29.49a33 33 0 0 0 19.43-6.22v-2.65a30.77 30.77 0 0 1 -19.43 6.79z" fill="#1c3e58"/><path d="m72.45 179.81c-11.7 0-21.18 8.82-21.18 19.71s9.48 19.71 21.18 19.71a21.29 21.29 0 0 0 19.43-11.86v-15.71a21.3 21.3 0 0 0 -19.43-11.85z" fill="#e55353"/><path d="m72.45 189.76c-5.79 0-10.48 4.37-10.48 9.76s4.69 9.75 10.48 9.75 10.48-4.37 10.48-9.75-4.69-9.76-10.48-9.76z" fill="#fff"/><path d="m72.45 188.72c-6.36 0-11.53 4.84-11.53 10.8s5.17 10.8 11.53 10.8 11.55-4.85 11.55-10.8-5.19-10.8-11.55-10.8zm0 19.5c-5.2 0-9.43-3.9-9.43-8.7s4.23-8.71 9.43-8.71 9.43 3.91 9.43 8.71-4.23 8.7-9.43 8.7z" fill="#1c3e58"/><path d="m72.45 195.42a4.11 4.11 0 1 0 4.4 4.1 4.26 4.26 0 0 0 -4.4-4.1z" fill="#e55353"/><path d="m48.53 155.74a1.06 1.06 0 0 0 -1.88.55l-.85 9.37-9.42-1.5a1 1 0 0 0 -1 1.67l10.9 14a1 1 0 0 0 .71.39l9.74 1.1a1 1 0 0 0 .48.12.84.84 0 0 0 .27 0 1 1 0 0 0 .77-.87l1.38-10a1.06 1.06 0 0 0 -.21-.79zm7.79 23.45-8.66-1-9-11.56 7.55 1.2a1.08 1.08 0 0 0 .81.09 1.05 1.05 0 0 0 .75-.91l.72-7.91 9 11.57z" fill="#1c3e58"/><path d="m51 170.66a1.06 1.06 0 0 0 -1.48-.19 1 1 0 0 0 -.18 1.47l21.94 28.22a1 1 0 0 0 .83.41 1.1 1.1 0 0 0 .64-.22 1.05 1.05 0 0 0 .18-1.48z" fill="#1c3e58"/><path d="m523.33 210.92a1.18 1.18 0 0 1 -.55-.14l-.27-.15a1.15 1.15 0 0 1 -.45-1.57l.14-.27a1.2 1.2 0 0 1 1.58-.45l.26.14a1.16 1.16 0 0 1 .45 1.58l-.14.26a1.15 1.15 0 0 1 -1.02.6zm-.11-2.17a.6.6 0 0 0 -.53.31l-.15.26a.62.62 0 0 0 .24.83l.26.14a.6.6 0 0 0 .29.08.61.61 0 0 0 .54-.32l.14-.26a.6.6 0 0 0 -.24-.82l-.26-.15a.59.59 0 0 0 -.29-.07z" fill="#fabf62"/><path d="m537.77 204.55a46.06 46.06 0 0 1 -5.95-7.07 8.28 8.28 0 0 1 -1.32.81 11.73 11.73 0 0 1 -1.24.54l3.29-2 .47-3.75 1.76-1.83-.65-3 1.88-2.6-1.88-2.59 1.23-2.46a5.25 5.25 0 0 0 -2-2c-2.72-1.48-5.7.28-5.89.4 1.39.89 1.7 1.67 1.74 2.21.07 1-.8 1.35-.74 2.51s.88 1.25.87 2.31-.82 1.19-.83 2.24.83 1.21.83 2.28-1 1.35-.87 2.44c.08.84.68 1 .64 1.84a2.3 2.3 0 0 1 -.74 1.44c-2.42 2.53-13.89.23-13.89.23-1.79-.35-3.15-.9-6.05-1.74.05.92.09 1.84.14 2.76 10.3 2.35 15.22 2.76 17.87 2.37.24.51.48 1 .76 1.56 3.65 7.06 7 8.22 9.5 13a21.16 21.16 0 0 1 .41 18.22c-3.81 7.9-13.08 12.37-20.2 11.22a20 20 0 0 0 2.91.37 23.3 23.3 0 0 0 18-39.72z" fill="#fabf62"/><path d="m529.69 222.53a9.42 9.42 0 1 0 -9.34 9.5 9.42 9.42 0 0 0 9.34-9.5zm-9.36 7.61a1.11 1.11 0 0 1 -1.11-1.1v-.22a5.6 5.6 0 0 1 -2.9-1.61 1.1 1.1 0 1 1 1.61-1.51 3.17 3.17 0 0 0 2.38 1c.63 0 1.72-.39 1.94-1.07a1.64 1.64 0 0 0 -.38-1.46c-.41-.48-1-.58-1.94-.69a4.23 4.23 0 0 1 -3.21-1.46 3.57 3.57 0 0 1 -.46-3.42 3.72 3.72 0 0 1 2.86-2.14v-.12a1.09 1.09 0 0 1 1.09-1.11 1.1 1.1 0 0 1 1.11 1.09v.27a4.77 4.77 0 0 1 2.13 1.48 1.1 1.1 0 0 1 -1.7 1.4 2.43 2.43 0 0 0 -1.64-.88 2 2 0 0 0 -1.82.83 1.42 1.42 0 0 0 .19 1.28c.3.4.82.48 1.71.59a4.69 4.69 0 0 1 3.35 1.44 3.83 3.83 0 0 1 .8 3.58 3.93 3.93 0 0 1 -2.92 2.42v.3a1.11 1.11 0 0 1 -1.09 1.11z" fill="#fabf62"/><path d="m519.61 210.43a1.11 1.11 0 1 0 0-2.21 13.5 13.5 0 0 0 -13.39 13.6 1.11 1.11 0 0 0 1.11 1.1 1.11 1.11 0 0 0 1.09-1.12 11.28 11.28 0 0 1 11.19-11.37z" fill="#fabf62"/><rect fill="#fabf62" height="2.06" rx=".88" transform="matrix(.48312958 -.87554886 .87554886 .48312958 87 566.48)" width="2.06" x="522.24" y="208.53"/><path d="m534.78 164.84c0 .24 0 .62-.08 1.1a26.81 26.81 0 0 1 -1.92 7.81c-.38.9-.74 1.59-.89 1.88a24.76 24.76 0 0 1 -1.42 2.35l-6.21 1.15a27.59 27.59 0 0 0 3.82-5.17c1.8-3.18 1.68-4.47 1.45-5.22a4 4 0 0 0 -.9-1.56h4.37a1.94 1.94 0 0 0 1.55-.75 1.88 1.88 0 0 0 .23-1.59z" fill="#fabf62"/><path d="m550.8 219.92a1.11 1.11 0 0 0 -1.11 1.11 28.65 28.65 0 0 1 -14.23 24.75 1.11 1.11 0 0 0 -.39 1.51 1.1 1.1 0 0 0 .95.55 1.08 1.08 0 0 0 .55-.15 30.89 30.89 0 0 0 15.33-26.69 1.11 1.11 0 0 0 -1.1-1.08z" fill="#1c3e58"/><path d="m496 234.63a28.27 28.27 0 0 1 -3.53-12.63 28.62 28.62 0 0 1 6.59-19.23 1.1 1.1 0 1 0 -1.7-1.41 30.64 30.64 0 0 0 -3.36 34.33 1.1 1.1 0 0 0 1 .58 1.13 1.13 0 0 0 .53-.14 1.11 1.11 0 0 0 .47-1.5z" fill="#1c3e58"/><circle cx="550.67" cy="218.04" fill="#1c3e58" r="1.1"/><path d="m545.7 221a24.25 24.25 0 0 0 -7.15-17.26 46.7 46.7 0 0 1 -5.26-6.1 3.15 3.15 0 0 0 1.06-2.22 3.81 3.81 0 0 0 -.35-1.6 3.83 3.83 0 0 0 1.86-3.29 3.87 3.87 0 0 0 -.41-1.74 3.83 3.83 0 0 0 .4-6 3.3 3.3 0 0 0 .61-2.37 3.84 3.84 0 0 0 -1.56-2.57 4.42 4.42 0 0 0 -2.53-.87 22.88 22.88 0 0 0 1.42-2.85 27.25 27.25 0 0 0 2-7.79 2.72 2.72 0 0 0 .15-.86 3 3 0 0 0 0-.31c0-.11 0-.21 0-.32a1.08 1.08 0 0 0 -.44-.91 3 3 0 0 0 -2.57-1.47h-11a3 3 0 0 0 -3 2.93h-5.18a3.32 3.32 0 0 0 -3.32 3.31 3.17 3.17 0 0 0 .18 1 16.54 16.54 0 0 0 2 5.57 18.89 18.89 0 0 0 -2.26 1.22 19.7 19.7 0 0 0 -1.84 1.39h-5.14a1.11 1.11 0 1 0 0 2.21h4a.92.92 0 0 0 .13.21.94.94 0 0 0 .29.2v17.13h-4.41a1.1 1.1 0 1 0 0 2.2h4.25a51.15 51.15 0 0 1 -3.54 3.86 24.18 24.18 0 0 0 -7.12 18.06 24.55 24.55 0 0 0 22.82 23.55c.53 0 1.06.05 1.58.05a24.12 24.12 0 0 0 16.63-6.55 24.47 24.47 0 0 0 7.7-17.81zm-20.63-43.09c-.89.08-1.78.16-2.67.2-1.49.07-3 .06-4.5 0a14.2 14.2 0 0 1 -3.29-3.67 14.49 14.49 0 0 1 -1.19-2.44 2.13 2.13 0 0 0 .25 0h14.09a1.81 1.81 0 0 0 .23 0 8.9 8.9 0 0 1 -.77 1.62 1.09 1.09 0 0 0 .36 1.51 1 1 0 0 0 .58.17 1.11 1.11 0 0 0 .94-.53 10.83 10.83 0 0 0 1.62-5.82.82.82 0 0 0 -.06-.27 1.23 1.23 0 0 0 0-.19h2.25.32a25.3 25.3 0 0 1 -1.44 4.82 23.14 23.14 0 0 1 -2.21 4.06c-1.67.26-2.79.41-4.51.57zm-4-12.41a.8.8 0 0 1 .8-.81h11a.8.8 0 0 1 .75.57v.61a.81.81 0 0 1 -.7.43h-4.42a1.1 1.1 0 0 0 -.43 2.12.74.74 0 0 1 -.28 1.42h-6.24c-.12-.54-.23-1.08-.3-1.62a18.14 18.14 0 0 1 -.16-2.56zm-7.39 2.12h5.28c0 .3 0 .6.08.89.06.44.16.89.25 1.33h-5.61a1.11 1.11 0 0 1 -1-.64c0-.19-.07-.36-.1-.55a1.11 1.11 0 0 1 1.08-1zm-2.16 10.78a17.22 17.22 0 0 1 2.32-1.24c.29.37.59.72.91 1.06a1.08 1.08 0 0 0 .51 2c1.46.1 2.94.16 4.41.16 1 0 1.9 0 2.85-.07s1.83-.12 2.74-.21h.25.49.07c1.83-.19 3.08-.38 5.47-.75l.43-.07a2.27 2.27 0 0 1 1.59.42 1.75 1.75 0 0 1 .71 1.19 2 2 0 0 1 -.76 1.31 1.09 1.09 0 0 0 .25 2 1.66 1.66 0 0 1 1.11 1.57 1.64 1.64 0 0 1 -1.38 1.61 1.08 1.08 0 0 0 -.9.81 1.11 1.11 0 0 0 .39 1.15 1.64 1.64 0 0 1 -.88 2.95 1.1 1.1 0 0 0 -.61 2 1.69 1.69 0 0 1 .64 1.29.87.87 0 0 1 -.22.44 4.23 4.23 0 0 1 -.79.72 8.5 8.5 0 0 1 -.79.51l-.36.19a14.69 14.69 0 0 1 -3.89 1.26 33.71 33.71 0 0 1 -12.16-.33c-.85-.15-1.7-.34-2.57-.55l-1.55-.39v-17.73a15.75 15.75 0 0 1 1.7-1.27zm8.38 64.75a22.34 22.34 0 0 1 -20.77-21.41 22 22 0 0 1 6.49-16.43 53.09 53.09 0 0 0 4.9-5.59c1 .26 2 .48 3 .66a42.06 42.06 0 0 0 7.82.78 27.13 27.13 0 0 0 5.15-.45 16.79 16.79 0 0 0 4.49-1.47l.53-.29a48.31 48.31 0 0 0 5.46 6.36 22.2 22.2 0 0 1 -17.11 37.84z" fill="#1c3e58"/><path d="m533 159.21a5.94 5.94 0 0 1 5.94 5.94 1.11 1.11 0 0 0 2.21 0 8.15 8.15 0 0 0 -8.15-8.15 1.11 1.11 0 0 0 0 2.21z" fill="#1c3e58"/><circle cx="545.24" cy="203.34" fill="#1c3e58" r="1.1"/><circle cx="504.42" cy="195.62" fill="#1c3e58" r="1.1"/><circle cx="540.14" cy="168.03" fill="#1c3e58" r="1.1"/><circle cx="485.7" cy="207.75" fill="#1c3e58" r="1.1"/><circle cx="496.89" cy="237.82" fill="#1c3e58" r="1.1"/><path d="m107.56 200.26h-3.3l-.09-.13 9.27-11.39h.18l9.28 11.39.86-.7-1 .83h-4.12a2.3 2.3 0 0 0 -2.3 2.29v15.45a1.1 1.1 0 1 0 2.2 0v-15.45a.1.1 0 0 1 .1-.09h4.12a2.3 2.3 0 0 0 2.08-1.3 2.27 2.27 0 0 0 -.28-2.42l-9.27-11.39a2.39 2.39 0 0 0 -3.61 0l-9.29 11.41a2.25 2.25 0 0 0 -.26 2.41 2.29 2.29 0 0 0 2.08 1.3h3.3a.1.1 0 0 1 .1.09v30.89a1.1 1.1 0 1 0 2.2 0v-30.9a2.3 2.3 0 0 0 -2.25-2.29z" fill="#1c3e58"/><path d="m561.09 190.76-9.28-11.91a2.3 2.3 0 0 0 -1.81-.85 2.3 2.3 0 0 0 -1.82.89l-9.28 11.91a2.32 2.32 0 0 0 -.25 2.45 2.28 2.28 0 0 0 2.07 1.29h3.42a.11.11 0 0 1 .1.11v5.82a1.11 1.11 0 0 0 2.21 0v-5.82a2.32 2.32 0 0 0 -2.31-2.31l-3.51-.06a.12.12 0 0 1 0-.12l9.28-11.91h.15l9.28 11.91s0 .06-.08.18h-4a2.31 2.31 0 0 0 -2.3 2.31v11.93a1.1 1.1 0 1 0 2.2 0v-11.97a.11.11 0 0 1 .1-.11h4a2.32 2.32 0 0 0 1.82-3.74z" fill="#1c3e58"/><circle cx="18" cy="79.58" fill="#91c9d3" r="18"/><path d="m18.06 88.85a1.1 1.1 0 0 1 -.92-.64c-2.68-5.89-.9-7.62 2.12-9.59l.66-.44c3.24-2.2 3.53-2.62 3.76-5.65.19-2.36-1.86-3.82-3.85-4.19-1.83-.34-3.83.19-4.42 2.08-.75 2.55.57 3.5.72 3.6a1.1 1.1 0 1 1 -1.13 1.88c-.12-.08-2.94-1.82-1.69-6.09.81-2.74 3.65-4.23 6.93-3.63 2.92.54 5.93 2.81 5.64 6.52-.31 4-1.11 4.86-4.72 7.3l-.69.46c-2.36 1.54-3.47 2.23-1.33 6.84a1.09 1.09 0 0 1 -.54 1.45 1.15 1.15 0 0 1 -.54.1z" fill="#1c3e58"/><path d="m19 93.71a1.22 1.22 0 0 1 -1.11-1.06 1.22 1.22 0 0 1 1.11-1.35h.25a1.19 1.19 0 0 1 1.1 1 1.22 1.22 0 0 1 -.24.89 1.2 1.2 0 0 1 -.81.46z" fill="#1c3e58"/><path d="m394.84 151.81a1.23 1.23 0 0 0 -1.23 1.23v13.05a1.24 1.24 0 0 0 2.47 0v-13.09a1.23 1.23 0 0 0 -1.24-1.19z" fill="#1c3e58"/><path d="m394.84 147.32h-.25a1.25 1.25 0 0 0 -.8.55 1.2 1.2 0 0 0 -.18.94 1.27 1.27 0 0 0 1.23 1 1.15 1.15 0 0 0 .26 0 1.26 1.26 0 0 0 -.26-2.5z" fill="#1c3e58"/></svg>