<?xml version="1.0" encoding="UTF-8"?>
<svg width="24px" height="24px" viewBox="0 0 24 24" version="1.1" xmlns="http://www.w3.org/2000/svg" xmlns:xlink="http://www.w3.org/1999/xlink">
    <!-- Generator: Sketch 51.3 (57544) - http://www.bohemiancoding.com/sketch -->
    <title>Path_2724-path@1x</title>
    <desc>Created with Sketch.</desc>
    <defs></defs>
    <g id="Symbols" stroke="none" stroke-width="1" fill="none" fill-rule="evenodd">
        <g id="footer" transform="translate(-848.000000, -1.000000)" fill="#47A5B5" fill-rule="nonzero">
            <g transform="translate(0.000000, 1.000000)" id="Group-133">
                <g transform="translate(848.000000, 0.000000)">
                    <path d="M15.7501054,23.450937 C15.1501054,23.600937 15.0001054,23.150937 15.0001054,22.850937 L15.0001054,19.5509369 C14.9860364,18.7418945 14.7242757,17.9566123 14.2501054,17.3009369 C16.9501054,17.0009369 19.8001055,15.9509369 19.8001055,11.4509368 C19.8458624,10.281317 19.412467,9.14365425 18.6001055,8.30093676 C19.0182944,7.28040298 18.9633759,6.12711529 18.4501055,5.15093671 C18.4501055,5.15093671 17.4001055,4.85093671 15.1501054,6.35093673 C13.1951077,5.75092138 11.1051031,5.75092138 9.15010533,6.35093673 C6.90010529,4.85093671 5.85010527,5.15093671 5.85010527,5.15093671 C5.32665954,6.0623326 5.21749923,7.15393569 5.55010527,8.15093676 C4.78561647,9.02324864 4.35977755,10.1410758 4.35010525,11.3009368 C4.35010525,15.9509369 7.2001053,17.0009369 9.75010533,17.3009369 C9.35479179,17.7725516 9.09549925,18.3429952 9.00010532,18.9509369 C8.25010531,19.2509369 6.60010529,19.8509369 5.55010527,17.9009369 C5.19888792,17.2157783 4.51764293,16.761615 3.75010524,16.7009369 C3.75010524,16.7009369 2.55010522,16.7009369 3.60010524,17.4509369 C3.60010524,17.4509369 4.35010525,17.7509369 4.95010526,19.2509369 C4.95010526,19.2509369 5.70010527,21.500937 9.00010532,20.900937 L9.00010532,23.000937 C9.00010532,23.300937 8.85010532,23.600937 8.25010531,23.600937 C3.36328282,21.8445099 0.0766749048,17.2432588 0.000105182811,12.0509368 C-0.0219436504,6.75956683 3.42444717,2.07828509 8.48357868,0.527713942 C13.5427102,-1.02285721 19.0203433,0.923304082 21.9670627,5.318293 C24.913782,9.71328193 24.6339964,15.5196343 21.2783555,19.6109369 C19.8336479,21.385627 17.9174757,22.7166271 15.7501054,23.450937 Z" id="Path_2724-path"></path>
                </g>
            </g>
        </g>
    </g>
</svg>