<svg xmlns="http://www.w3.org/2000/svg" viewBox="0 0 312.63 225.29"><defs><style>.cls-1{opacity:0.46;}.cls-2{fill:#b0bec5;}.cls-3{fill:#c2cdd2;}.cls-4{fill:none;stroke:#7ac8d6;stroke-miterlimit:10;stroke-width:1.5px;}.cls-5{fill:#7ac8d6;}.cls-6{fill:#47a5b5;}</style></defs><title>global</title><g id="Layer_2" data-name="Layer 2"><g id="pic"><g class="cls-1"><path class="cls-2" d="M221.75,180.12l2.95-31.42a1.29,1.29,0,0,1,1.28-1.17H226a1.28,1.28,0,0,1,1.23,1.28c.07,5.62,2,12.3,7.11,15.22.62-7.85-7.71-16.3.69-21.37,8.94-5.4,15.56-18.28,15.1-21.61s-4.62,4-9.71,1.27-5.55-5.4-8.32-9.22-2.16-7-5.24-12.23-8.32-9.38-3.39-7.79,6.16,2.38,8.32,8.26,2.47,4,5.24,10.17,3.39,8.43,10.63,4.61,7.86-.79,11.25-6.67,7.86-7.79,1.08-8.74-8.78,2.7-11.09-1.11-7.86-8.59-4.63-7.95,4.32,7.15,8.48,4.93,3.39-5.88,6-1.59a10.55,10.55,0,0,0,6.74,4.62c-.23-1.55-.68-7.6-1-9.13l-8.49-25.11a101.32,101.32,0,0,0-8.46-13.93c-6,2.41-8.31,9.77-8.37,15.89A1.29,1.29,0,0,1,238,68.6H238a1.28,1.28,0,0,1-1.28-1.17l-2.94-31.3c0-.33.07-.64.09-1-.94-.95-1.88-1.9-2.82-2.8-2.22,1.13-8,4-9.35,4.31-1.69.32-6.47-3.65-6.78-5.88s-5.18-6.32-14.35-1.09a14.46,14.46,0,0,1,.58,3.85l-.6,6.38a8.08,8.08,0,0,1,.81.39c4.31,2.39,7.4-.31,7.71,2.55s.61,1-4.17,4.45c-1.73,1.26-3.62,2.59-5.38,3.61L198.15,65a1.28,1.28,0,0,1-1.28,1.16h-.06a1.28,1.28,0,0,1-1.23-1.27c-.05-5-1.64-10.91-5.61-14.18.3.48.18.77-2.68,2-5.4,2.38-12.95,4-12.79,7.63s7.55,5.24.77,6.83-8.17-1.11-9.1,3.5-5.85,8.89,0,9.53,9.71,1.43,11.25-1.75-.15-6.51,6.48-7.94,9.86-1,12.17,2.7,4.47,1,3.85-1.59,4.47-2.7,4.78,1.75,0,12.07,2.62,6.35,5.09-3.49,7.09-7.62S228,61.62,226,67.5s-17.11,10-11.56,11.91,12.33-4.6,12.48,1.75,2.47,8.9-4.31,8.9-8.17-3-13.26-3.18-.77,4.13-5.39,3-1.08.16-5.7-2.7-3.55.32-5.7-4.29-3.24-8.42-11.56-3-6.32,1.27-11.41,4.45-4.77,4.77-5.23,5.72-11.87,8.9-11.1,19.07c.16,2.14.35,4,.58,5.65h32.31c7.71-1.33,10.61-10.61,10.69-18.15a1.35,1.35,0,0,1,1.29-1.33h.05a1.34,1.34,0,0,1,1.34,1.23l2.95,34.22a16.28,16.28,0,0,1-8.8,14.79,8.65,8.65,0,0,1,2.74,5.7c.92,7-5.55,10.49-3.85,14.46s5.7,6.83,5.54,14.78,6.17,10.17,5.86,15.57,5.39,2.23,10.94-2.38c5.2-4.32,4.76-5.6,7.59-9.27A14.43,14.43,0,0,1,221.75,180.12Z"/><path class="cls-2" d="M122.72,146.63c-6.47-5.72-5.86-1.75-10.17-5.72s-9.87-4.61-10.79-8.42-4.16,1.43-9.09-4.93c-.15-.18-.32-.34-.47-.52l-2,21.74a1.28,1.28,0,0,1-1.28,1.16h0a1.29,1.29,0,0,1-1.23-1.27c-.08-6.87-3-15.33-10.95-16.56H63.6c-1.21,2.73-2.92,5.66-5.3,6.42-4,1.27.77-.48.93,3.81s-2.62,4.13,1.54,7.95,3.85,7,7.86,10.32,3.08-6.51,7.7,7.16c3.61,10.66,2.72,15.71,4.06,20.28h8.5c7.94-1.25,10.92-9.9,11-16.93a1.32,1.32,0,0,1,1.26-1.3h.06a1.3,1.3,0,0,1,1.3,1.19l1.92,20.39c6.61-4.72,6.86-7,6.58-10.45-.31-3.65-.47,1,5.54-5.08s4.78-12.87,5.7-17S129.19,152.35,122.72,146.63Z"/><path class="cls-2" d="M107.77,46.2a4.17,4.17,0,0,1-2.12-.84L104.5,57.59a1.28,1.28,0,0,1-1.28,1.17h0a1.29,1.29,0,0,1-1.23-1.27c0-4.71-1.44-10.16-4.86-13.53-8.36,8.19-13,17.54-15.2,15S68,55.42,72.63,50.65s7.71-2.22,11.87-6.19a31.79,31.79,0,0,0,3.11-3.54H70.18A116.77,116.77,0,0,0,44,97.54C45.58,96,44.64,94.4,50,95c7.24.79,5.86,4.92,12.48.32s10.79-3.82,11.71-9.38-.3-6,5.86-8.74,19-.48,18.34-7.31-5.86-5.72,1.08-7.47,14.33-2.06,11.4-5.56S114.7,47.16,107.77,46.2Z"/><path class="cls-2" d="M149.51,18.78h27c.15-.24.28-.47.44-.76,2-3.58,8.77-1.71,3.18-4.21s-3.18-3.11-11.79-1.4-3.47-3.89-14.05-.62-11,3.74-13.6,5.61S137.24,20,137.24,20c-2.38,1.17-.85,2.17.77,4.37A14.69,14.69,0,0,1,149.51,18.78Z"/><path class="cls-2" d="M107.12,29.68l-.86,9.14c.9,2.65,3.38,3.06,6,1.19,3.08-2.23,3.54-2.07.31-6.2C110.53,31.23,109.1,30.14,107.12,29.68Z"/></g><path class="cls-3" d="M229.27,192.91c-.53,1.32-.91,2.08-1,2.14l.29.16a110.43,110.43,0,0,1-51.85,25.94,170.39,170.39,0,0,0,3.72-18.83,121.6,121.6,0,0,0,42.34-16.75,17.31,17.31,0,0,1-.6-1.93,119.26,119.26,0,0,1-41.46,16.6,233.83,233.83,0,0,0,1.83-32.52c18.78-4.55,35.33-13.54,47.95-25.53a108.86,108.86,0,0,1,3,21.29,10.63,10.63,0,0,0,2.23,1.21,104.67,104.67,0,0,0-1.34-14.42c-.5-3.06-1.18-6.35-2.06-9.84a80.88,80.88,0,0,0,20.82-34.71,96.58,96.58,0,0,1,6.72,36.11,100.18,100.18,0,0,1-16,23.54h2.71A102.28,102.28,0,0,0,261.2,143.7h0a110.38,110.38,0,0,1-9,21.66h2.29a112,112,0,0,0,11.3-32.49c.12-.35.26-.69.38-1l-.18-.07A112,112,0,0,0,249.17,51a10.47,10.47,0,0,0-3.49,1.51A71.41,71.41,0,0,1,254,85.78a70.29,70.29,0,0,1-1.35,13.59A112.8,112.8,0,0,0,224.11,61a52.85,52.85,0,0,0-11.33-30.6A90.93,90.93,0,0,1,234,39.29l-.22-2.42a96.36,96.36,0,0,0-23.16-9,67.84,67.84,0,0,0-23-17c2.62-1.1,4.4-1.8,4.88-2a105.89,105.89,0,0,1,20.87,9.88c.75.46,1.49.94,2.23,1.43.53.34,1.06.68,1.58,1,.89.61,1.77,1.25,2.65,1.88a92.46,92.46,0,0,1,13.89,12.51,15.56,15.56,0,0,1,.39-2.92,113.23,113.23,0,0,0-13.7-11.6c-.63-.46-1.25-.91-1.89-1.35s-1.49-1-2.24-1.48c-.54-.35-1.08-.7-1.63-1A111.73,111.73,0,0,0,171,1.15l-.52-.47-.31.36A114.08,114.08,0,0,0,155,0a112.39,112.39,0,0,0-16,1.16l-.42-.48-.68.61a111.12,111.12,0,0,0-18.1,4.37,108.69,108.69,0,0,0-19.29,8.06,14.77,14.77,0,0,1,2,1.56,108.52,108.52,0,0,1,14-6.41c.66.25,2.43,1,4.88,2a70.94,70.94,0,0,0-15.19,9.62,14.82,14.82,0,0,1,.62,2A68.51,68.51,0,0,1,124,11.92c3,1.28,6.52,2.9,10.31,4.76a25.16,25.16,0,0,0-5.67,7.1,139.88,139.88,0,0,0-21.25,1.69c0,.24.07.46.07.7l-.13,1.41a135.48,135.48,0,0,1,20.36-1.78,21.73,21.73,0,0,0-1.7,8.34c0,.55,0,1.08.09,1.62A171.58,171.58,0,0,0,105.58,46.1l-.23,2.45a168,168,0,0,1,21-10.74A23.09,23.09,0,0,0,131.72,49,290.14,290.14,0,0,0,97.66,93.4,50.61,50.61,0,0,1,87.1,62.79c0-.37,0-.73,0-1.1a133.31,133.31,0,0,1,14-10.44c-.19-.66-.4-1.32-.65-2A136.29,136.29,0,0,0,87.27,59a49.44,49.44,0,0,1,4.91-17.79c-.39-.1-.77-.19-1.18-.26h-.92a51.31,51.31,0,0,0-4.9,19.83A111.66,111.66,0,0,0,56.35,99a70.4,70.4,0,0,1-1.26-13.2A72.91,72.91,0,0,1,69,43.44a36.91,36.91,0,0,1,3.12-2.51H68.28a112.12,112.12,0,0,0-25.45,61.65h2A110.09,110.09,0,0,1,58.22,59.1a72.72,72.72,0,0,0-5.11,26.68A71.87,71.87,0,0,0,55,102.11c-.07.16-.12.31-.19.47h2.33a2.76,2.76,0,0,0-.08-.27A109.17,109.17,0,0,1,85.13,63.45,52.78,52.78,0,0,0,96.56,95.22c-2.61,4.36-4.92,8.58-7,12.65a14.05,14.05,0,0,1,1.36,1.88c2.07-4.16,4.37-8.44,7-12.85a69.67,69.67,0,0,0,33,21.44,355.19,355.19,0,0,0-4.33,47.36,106.63,106.63,0,0,1-36.52-16.61,1.26,1.26,0,0,1-1.19.85h0a1.29,1.29,0,0,1-1.23-1.27c0-.49,0-1-.07-1.49a92.65,92.65,0,0,1-8.15-7c.53-2,1.14-4.18,1.81-6.33a10.08,10.08,0,0,0-1.94-1.06c-.61,1.92-1.17,3.81-1.66,5.63a83.79,83.79,0,0,1-5.6-6.36H69.47A87,87,0,0,0,77,140.68q-1.22,4.83-1.93,9.12a101.86,101.86,0,0,0-1.39,22.47,98.37,98.37,0,0,1-24.57-33.46c0-1.79.13-4.07.37-6.69h-2c-.07.79-.14,1.58-.19,2.3-.28-.76-.54-1.53-.81-2.3H44.1a112.33,112.33,0,0,0,27.36,55.93h2.72A110.66,110.66,0,0,1,48.8,143.6l.37,0a101.84,101.84,0,0,0,24.72,31.5,74.74,74.74,0,0,0,2.22,13h2.16a71.2,71.2,0,0,1-2-11,115,115,0,0,0,15,10.36,10.68,10.68,0,0,0,2-1.06A113.77,113.77,0,0,1,76,174.27a104.65,104.65,0,0,1,2.84-31.82c12.6,11.87,29.07,20.77,47.74,25.28a233.91,233.91,0,0,0,1.68,32,125.74,125.74,0,0,1-23.77-7.77l.21,2.23a127.74,127.74,0,0,0,23.84,7.61,168.74,168.74,0,0,0,3.72,19.17,110.1,110.1,0,0,1-28.69-10.38,15.39,15.39,0,0,1-1.1,1.66,112.28,112.28,0,0,0,130.06-17.95A14.79,14.79,0,0,1,229.27,192.91Zm19-139.78a110,110,0,0,1,15.65,79.2c-.63,1.76-1.32,3.5-2,5.21a103.16,103.16,0,0,0-7.82-35,72.44,72.44,0,0,0-5.78-49.38Zm-24.11,10.6a110.28,110.28,0,0,1,27.81,39,78.21,78.21,0,0,1-20.18,35.51c-3.29-12.11-9.08-26.56-19-43A52.74,52.74,0,0,0,224.14,63.73ZM170.56,3.59a114.21,114.21,0,0,1,19.07,4.27c-1.14.46-2.68,1.1-4.45,1.86A77.12,77.12,0,0,0,169.35,5C169.8,4.49,170.21,4,170.56,3.59ZM167.94,6.8a76.24,76.24,0,0,1,14.69,4c-2.84,1.26-6.11,2.77-9.54,4.48a29.87,29.87,0,0,0-8.35-4.3C165.87,9.46,167,8,167.94,6.8Zm-5.23,3.6a32.5,32.5,0,0,0-16.35,0c-1-1.42-2-2.74-3-3.93a79.37,79.37,0,0,1,22.27,0C164.74,7.65,163.74,9,162.71,10.4Zm-8.16-7.91a118,118,0,0,1,13.66.81l-1.12,1.36a81.26,81.26,0,0,0-25.1,0L140.86,3.3A118.7,118.7,0,0,1,154.55,2.49ZM124,9.77c-1.8-.78-3.35-1.42-4.52-1.89l1-.36a115.41,115.41,0,0,1,18-3.93c.36.42.77.93,1.23,1.49A77.21,77.21,0,0,0,124,9.77Zm2.55,1.11a75.3,75.3,0,0,1,14.61-4.06c1,1.24,2.06,2.66,3.19,4.2a29.61,29.61,0,0,0-8.33,4.3C132.61,13.63,129.37,12.13,126.54,10.88ZM128.19,37c2.15-.89,4.38-1.76,6.64-2.61,0-.29-.09-.56-.09-.86s.09-.84.13-1.27c-2.34.87-4.65,1.75-6.86,2.67,0-.27,0-.54,0-.81a19.92,19.92,0,0,1,1.87-8.35c2.28,0,4.66.06,7.09.16A14.19,14.19,0,0,1,138.34,24c-2.56-.13-5.05-.22-7.45-.23a23.58,23.58,0,0,1,5.35-6.13c2,1,4,2.06,5.94,3.16a14,14,0,0,1,2.17-1c-2.11-1.2-4.24-2.36-6.35-3.44a28,28,0,0,1,7.55-3.62c1.35,1.93,2.71,4,3.93,6.08h2.28c-1.28-2.27-2.71-4.52-4.17-6.62a30,30,0,0,1,13.89,0c-1.46,2.11-2.89,4.36-4.17,6.63h2.27c1.23-2.08,2.59-4.15,3.95-6.08a28.13,28.13,0,0,1,7.57,3.61c-1.54.79-3.09,1.62-4.64,2.47h4.23c.72-.37,1.45-.78,2.16-1.15.46.37.88.76,1.3,1.15h2.79a25.1,25.1,0,0,0-2.14-2.11c3.82-1.88,7.42-3.51,10.38-4.8a67.16,67.16,0,0,1,22,15.13c-2.68-.6-5.58-1.1-8.57-1.55a14.05,14.05,0,0,1,1.19,2.19c3.43.56,6.7,1.19,9.7,1.94A51.53,51.53,0,0,1,222,59.24a141.65,141.65,0,0,0-21.93-15.19l-.2,2.16A138.92,138.92,0,0,1,222.16,62c0,.27,0,.54,0,.81a50.62,50.62,0,0,1-10.54,30.59A290.62,290.62,0,0,0,177.37,49c.19-.22.35-.47.53-.7H174c.22.24.45.47.67.7a27,27,0,0,1-10,6.22c-.66-2.37-1.32-4.66-2-6.91h-2.1c.73,2.51,1.48,5,2.17,7.51A30.45,30.45,0,0,1,154.56,57a30.75,30.75,0,0,1-7.82-1c.74-2.63,1.48-5.18,2.22-7.67a14.88,14.88,0,0,1-2-.21c-.7,2.38-1.4,4.8-2.1,7.29A26.87,26.87,0,0,1,134.4,49c1.53-1.64,3.1-3.3,4.7-5a15.61,15.61,0,0,1-1.27-1.53c-1.62,1.69-3.22,3.37-4.76,5A20.9,20.9,0,0,1,128.19,37ZM99,95.1a283,283,0,0,1,34.09-44.67,29.1,29.1,0,0,0,11.24,6.83,538.88,538.88,0,0,0-13.08,59.11A67.47,67.47,0,0,1,99,95.1Zm33.85,23.79c2.18.62,4.43,1.11,6.7,1.54a15.47,15.47,0,0,1,1.6-1.73,76.6,76.6,0,0,1-8-1.78,533,533,0,0,1,13.07-59.08,32.12,32.12,0,0,0,8.35,1.09,32.48,32.48,0,0,0,8.74-1.2,523.93,523.93,0,0,1,12.53,57.05h2a540.62,540.62,0,0,0-12.66-57.65A28.86,28.86,0,0,0,176,50.45c14.79,16,25.95,30.91,34.3,44.62a62,62,0,0,1-10.11,9.83l.2,2.3a64.3,64.3,0,0,0,11-10.34C221,113,226.76,127.46,230,140c-12.37,12.05-28.75,21.11-47.41,25.71-.1-6.23-.46-12.49-.94-18.74h-2c.49,6.57.83,13,.91,19.22a117.91,117.91,0,0,1-52,0A354.4,354.4,0,0,1,132.83,118.89Zm-4.29,49.31a119.63,119.63,0,0,0,26,2.86,118.85,118.85,0,0,0,26-2.86,233.65,233.65,0,0,1-1.9,32.46,128.32,128.32,0,0,1-22.68,2,130.08,130.08,0,0,1-25.67-2.57A231.19,231.19,0,0,1,128.54,168.2ZM155,223.31a110.49,110.49,0,0,1-20.63-2,166.26,166.26,0,0,1-3.82-19.17A132.08,132.08,0,0,0,156,204.66a129.49,129.49,0,0,0,22.43-2,166.46,166.46,0,0,1-3.78,18.84A111.08,111.08,0,0,1,155,223.31Z"/><path class="cls-3" d="M193.58,109.38a71.84,71.84,0,0,1-11,5.4h3.57A10.85,10.85,0,0,0,193.58,109.38Z"/><path class="cls-4" d="M263.84,77.71h34.27a13.77,13.77,0,1,1,0,27.53h-2.43a1.37,1.37,0,0,0-1.36,1.13c-.76,4.31-10.64,8.86-19.22,8.86-.55,0-1.09,0-1.61-.06a15.18,15.18,0,0,0,6.13-8.08,1.38,1.38,0,0,0-.16-1.26,1.35,1.35,0,0,0-1.13-.59H269"/><path class="cls-5" d="M285.31,22.52a13.49,13.49,0,0,1,0,27H250c-9.3,1.45-12,11.4-12,17.82L235,36a13.53,13.53,0,0,1,13.48-13.49h36.82m0-1.5H248.49a15,15,0,0,0-15,15v.14l3,31.3,3-.12a22.84,22.84,0,0,1,2.38-10.09A11.17,11.17,0,0,1,250.1,51h35.21a15,15,0,0,0,0-30Z"/><path class="cls-5" d="M226,148.82c.07,6.42,2.73,16.37,12,17.82h35.33a13.49,13.49,0,0,1,0,27H236.52A13.52,13.52,0,0,1,223,180.12l2.94-31.3m-1.49-.14-3,31.3v.14a15,15,0,0,0,15,15h36.82a15,15,0,0,0,0-30H238.13a11.17,11.17,0,0,1-8.27-6.25,22.84,22.84,0,0,1-2.38-10.09l-3-.12Z"/><path class="cls-5" d="M101.2,171.13l3,32A13.84,13.84,0,0,1,90.42,217H52.75a13.8,13.8,0,0,1,0-27.6H88.89c9.52-1.48,12.24-11.66,12.31-18.23m1.5-.14-3,.13c0,1.53-.46,15-10.92,16.74h-36a15.3,15.3,0,0,0,0,30.6H90.42a15.33,15.33,0,0,0,15.3-15.3V203l-3-32Z"/><path class="cls-5" d="M198.15,96.64l2.95,34.23c0,8.1-6.07,14.74-13.49,14.74H150.8c-7.42,0-13.49-6.64-13.49-14.74s6.07-14.75,13.49-14.75h35.32c9.3-1.57,12-12.46,12-19.48m1.5-.12-3,.11c0,1.65-.45,16.15-10.66,18H150.8c-8.27,0-15,7.29-15,16.25s6.72,16.24,15,16.24h36.81c8.26,0,15-7.29,15-16.24v-.13l-2.94-34.22Z"/><path class="cls-5" d="M186.33,20.07a13.52,13.52,0,0,1,13.48,13.48l-2.94,31.31c-.07-6.42-2.73-16.38-12-17.82H149.51a13.49,13.49,0,0,1,0-27h36.82m0-1.5H149.51a15,15,0,0,0,0,30h35.21A11.14,11.14,0,0,1,193,54.78a22.91,22.91,0,0,1,2.38,10.09l3,.13,2.95-31.31v-.14a15,15,0,0,0-15-15Z"/><path class="cls-5" d="M78.34,103.87a13.53,13.53,0,0,1,13.49,13.48l-3,31.31c-.07-6.42-2.73-16.38-12-17.82H41.52a13.49,13.49,0,0,1,0-27H78.34m0-1.5H41.52a15,15,0,0,0,0,30H76.73A11.14,11.14,0,0,1,85,138.58a22.77,22.77,0,0,1,2.38,10.09l3,.13,2.94-31.31v-.14a15,15,0,0,0-15-15Z"/><path class="cls-5" d="M92.68,12.68a13.53,13.53,0,0,1,13.49,13.49l-3,31.3c-.07-6.42-2.73-16.37-12-17.82H55.87a13.49,13.49,0,1,1,0-27H92.68m0-1.5H55.87a15,15,0,1,0,0,30h35.2a11.16,11.16,0,0,1,8.27,6.25,22.71,22.71,0,0,1,2.38,10.09l3,.12,2.94-31.3v-.14a15,15,0,0,0-15-15Z"/><path class="cls-4" d="M44.47,86.26h-6.9a1.31,1.31,0,0,0-1.06.55A1.34,1.34,0,0,0,36.36,88a14.17,14.17,0,0,0,5.72,7.54c-.48,0-1,.06-1.5.06-8,0-17.22-4.25-17.94-8.27a1.29,1.29,0,0,0-1.26-1.06H13.59a12.84,12.84,0,0,1,0-25.68H51a12.52,12.52,0,0,1,3.14.43"/><path class="cls-6" d="M13.48,76a17.16,17.16,0,0,1-2.84.21,10.3,10.3,0,0,1-1.84-.12A1.8,1.8,0,0,1,7.18,74.3a3,3,0,0,1,1-2l.54.28a2.56,2.56,0,0,0-.82,1.67c0,.54.36,1,1.17,1.21a7.34,7.34,0,0,0,1.53.12,15.5,15.5,0,0,0,2.88-.26Zm-4.2-4.73a12.79,12.79,0,0,1,1.66-1.09h0c-.71.09-2.34.13-3.38.12,0-.18,0-.49,0-.66a30.22,30.22,0,0,0,5.34-.3L13,70a7.85,7.85,0,0,0-3.15,1.59Z"/><path class="cls-6" d="M10.64,76.35a11.73,11.73,0,0,1-1.86-.12A2,2,0,0,1,7.05,74.3a3.11,3.11,0,0,1,1-2.1l.07-.07.8.41-.13.14A2.41,2.41,0,0,0,8,74.25c0,.54.38.93,1.06,1.08a7.69,7.69,0,0,0,1.5.11,15.34,15.34,0,0,0,2.85-.25l.15,0,.07,1-.12,0A16.93,16.93,0,0,1,10.64,76.35ZM8.16,72.47a2.86,2.86,0,0,0-.84,1.83A1.68,1.68,0,0,0,8.83,76a11.1,11.1,0,0,0,1.81.12,17.74,17.74,0,0,0,2.7-.2l0-.39a16.48,16.48,0,0,1-2.75.22A8.42,8.42,0,0,1,9,75.6a1.42,1.42,0,0,1-1.28-1.35,2.55,2.55,0,0,1,.74-1.63Zm1.66-.7L9,71.28l.16-.12c.32-.25.74-.55,1.14-.8-.7,0-1.67.07-2.46.07H7.42v-.13c0-.18,0-.49,0-.65v-.15h1a26.2,26.2,0,0,0,4.48-.3l.16,0,.1,1-.13,0A7.59,7.59,0,0,0,9.9,71.71Zm-.3-.51.29.18a8,8,0,0,1,3-1.53l-.05-.41a30.39,30.39,0,0,1-5.07.27v.38h.19c1,0,2.42,0,3-.11l.15,0v.24l-.07,0A10,10,0,0,0,9.52,71.26Z"/><path class="cls-6" d="M14.5,76.31c.69-2,1.84-5.3,2.2-6.29.18-.51.43-1.22.49-1.46l1,.27c-.05.13-.17.17-.36.17-.52,1.29-1.31,3.48-1.66,4.41h0a3,3,0,0,1,2-1.15c.81,0,1.21.55,1.18,1.42l0,1.12a.94.94,0,0,0,1,1.09c.85,0,1.62-1,2.06-2.58a5.2,5.2,0,0,0,.6.35c-.51,1.78-1.44,2.91-2.68,2.91A1.49,1.49,0,0,1,18.7,75c0-.17,0-1,0-1.23,0-.59-.24-.9-.65-.9-1.08,0-2.16,1.56-2.4,2.17-.13.33-.33.93-.51,1.47Z"/><path class="cls-6" d="M20.34,76.71A1.63,1.63,0,0,1,18.56,75c0-.08,0-.33,0-.59s0-.54,0-.64c0-.35-.09-.76-.52-.76-1,0-2,1.46-2.27,2.08-.1.27-.28.76-.51,1.47l0,.13-.93-.31,0-.13.46-1.32c.65-1.86,1.45-4.18,1.74-5,.13-.35.42-1.18.49-1.44l0-.13,1.3.33-.06.14a.41.41,0,0,1-.4.27c-.41,1-1,2.63-1.39,3.69l0,0a2.89,2.89,0,0,1,1.72-.76,1.24,1.24,0,0,1,.94.36,1.62,1.62,0,0,1,.37,1.21l0,1.11a1,1,0,0,0,.23.73.85.85,0,0,0,.6.22c.78,0,1.51-1,1.92-2.47l.06-.19.15.11a4,4,0,0,0,.59.33l.11,0,0,.11C22.6,75.64,21.59,76.71,20.34,76.71Zm-2.27-4c.24,0,.79.1.79,1,0,.1,0,.38,0,.65s0,.5,0,.58a1.36,1.36,0,0,0,1.51,1.42c1.1,0,2-1,2.52-2.7l-.36-.2C22,75.1,21.25,76,20.36,76a1.06,1.06,0,0,1-.79-.3,1.27,1.27,0,0,1-.32-.92l0-1.12a1.44,1.44,0,0,0-.29-1,1,1,0,0,0-.75-.27,2.84,2.84,0,0,0-1.94,1.1l-.05,0H16l.06-.19.23-.63c.41-1.08,1-2.73,1.43-3.78l0-.08h.07l-.53-.14c-.1.35-.34,1-.45,1.33-.29.8-1.1,3.11-1.74,5l-.42,1.19.4.13c.22-.64.37-1.09.48-1.35C15.79,74.36,16.91,72.74,18.07,72.74Z"/><path class="cls-6" d="M25.79,69c0,.1-.12.16-.31.15a22.24,22.24,0,0,0-.5,4.21,10.65,10.65,0,0,0,.12,1.85c.18-.45.58-1.44.72-1.77l.39.42c-.39.94-.67,1.48-.8,1.9a1.9,1.9,0,0,0-.07.44,1.45,1.45,0,0,0,0,.29l-.66.12a10.29,10.29,0,0,1-.41-3.22,27.24,27.24,0,0,1,.49-4.56Zm6,6.84c-.34,0-.68,0-1,0a14,14,0,0,1-1.74-.1c-1.15-.17-1.68-.81-1.68-1.56a2.81,2.81,0,0,1,.88-1.8l.6.26A2.17,2.17,0,0,0,28,74.1c0,1.08,1.59,1.08,2.56,1.08.4,0,.82,0,1.21,0Zm-4.34-5.72a32,32,0,0,0,4.09-.35l.06.65a35.43,35.43,0,0,1-4.12.35Z"/><path class="cls-6" d="M24.63,76.73l0-.12a10.41,10.41,0,0,1-.42-3.26,27.92,27.92,0,0,1,.5-4.59l0-.13,1.27.22,0,.14a.33.33,0,0,1-.33.25,22,22,0,0,0-.47,4.08,12.43,12.43,0,0,0,.05,1.32l.34-.86.26-.63.6.64,0,.08c-.16.42-.32.76-.44,1a8.23,8.23,0,0,0-.35.85,1.77,1.77,0,0,0-.07.4,1.41,1.41,0,0,0,0,.25l0,.14ZM24.91,69a27.31,27.31,0,0,0-.46,4.4,10.72,10.72,0,0,0,.36,3.06l.41-.07a1.1,1.1,0,0,1,0-.18,1.91,1.91,0,0,1,.08-.48,8.26,8.26,0,0,1,.36-.88l.41-1-.19-.2-.09.23-.54,1.34-.16.43L25,75.2a10.21,10.21,0,0,1-.13-1.88,22.34,22.34,0,0,1,.51-4.24V69Zm5.81,7A12.52,12.52,0,0,1,29,75.86c-1.13-.16-1.8-.79-1.8-1.69a2.94,2.94,0,0,1,.91-1.89l.06-.08.89.38-.14.14a2.17,2.17,0,0,0-.76,1.38c0,1,1.52,1,2.43,1,.36,0,.77,0,1.2,0h.15v.94h-.13C31.42,76,31.07,76,30.72,76Zm-2.5-3.44a2.62,2.62,0,0,0-.79,1.64c0,.76.57,1.27,1.57,1.42a16.42,16.42,0,0,0,2.62.08v-.39c-.38,0-.74,0-1.07,0-1,0-2.7,0-2.7-1.22a2.15,2.15,0,0,1,.7-1.42Zm-.92-1.66,0-.92h.14a29.57,29.57,0,0,0,4.06-.35l.15,0,.08.93-.12,0a36,36,0,0,1-4.14.34Zm.26-.66v.38a36.91,36.91,0,0,0,3.84-.33l0-.37A33,33,0,0,1,27.56,70.21Z"/><path class="cls-6" d="M39.89,70.16a22.58,22.58,0,0,1-4,.54,11.58,11.58,0,0,1-.44,2.48,4.75,4.75,0,0,1,2.66-1,2,2,0,0,1,2.25,2c0,1.86-1.89,2.49-4.93,2.57a3.17,3.17,0,0,0-.18-.62c2.68-.06,4.42-.52,4.42-1.93,0-.84-.56-1.42-1.64-1.42a3.89,3.89,0,0,0-2.89,1.43l-.66-.31a8,8,0,0,0,.76-3.21H33v-.66h2.25c0-.53.06-1.13.06-1.69l1,.09c0,.16-.13.19-.3.21,0,.46,0,.94-.08,1.38a18,18,0,0,0,3.83-.57Z"/><path class="cls-6" d="M35.29,76.91l0-.12a4.08,4.08,0,0,0-.18-.58L35,76h.22c3-.06,4.3-.61,4.3-1.79,0-.82-.55-1.29-1.51-1.29a3.76,3.76,0,0,0-2.77,1.37l-.07.1L34.23,74l.12-.14a7.61,7.61,0,0,0,.71-3H32.88v-.93h2.25c0-.48,0-1,0-1.55v-.15l1.28.12v.13a.36.36,0,0,1-.31.32c0,.4,0,.78-.06,1.12a18.67,18.67,0,0,0,3.65-.56l.14,0,.18,1-.13,0a21.48,21.48,0,0,1-3.93.54,18.33,18.33,0,0,1-.32,2,4.93,4.93,0,0,1,2.41-.78,2.11,2.11,0,0,1,2.39,2.15c0,2.28-2.71,2.64-5.07,2.7Zm.13-.63c0,.11.07.23.09.34,3.24-.09,4.68-.84,4.68-2.42,0-1.17-.79-1.88-2.11-1.88a4.65,4.65,0,0,0-2.57,1l-.44.35.23-.52a11.9,11.9,0,0,0,.43-2.44v-.11h.12a21.59,21.59,0,0,0,3.87-.51l-.07-.4a18.25,18.25,0,0,1-3.73.54h-.15V70c0-.4.06-.87.08-1.38v-.1l-.43,0c0,.53,0,1.08-.05,1.55v.13H33.15v.38h2.21l0,.15a9.85,9.85,0,0,1-.68,3.14l.4.19A4.09,4.09,0,0,1,38,72.66c1.1,0,1.78.6,1.78,1.56C39.78,75.91,37.49,76.22,35.42,76.28Z"/><path class="cls-6" d="M47.83,76a2.22,2.22,0,0,0,.25-1.12l.27.16c.1-.19.18-.39.28-.58-.2-.1-.38-.22-.58-.3,0-.6-.07-1.69-.11-2.73a9.4,9.4,0,0,0,1.89-.34l-.08-.66a8.57,8.57,0,0,1-1.84.38c0-.71,0-1.32,0-1.92.15,0,.24-.1.25-.2l-1,0c0,.7.05,1.39.09,2.2-.79,0-1.58,0-2.36,0v.61h1.42c.27,0,.66,0,1,0,0,.92.11,1.9.14,2.49a3.48,3.48,0,0,0-.9-.12c-.86,0-1.82.42-1.82,1.38s.73,1.35,1.82,1.35a1.42,1.42,0,0,0,1.3-.54Zm-1.32,0c-.68,0-1.24-.27-1.24-.79s.69-.8,1.25-.8a3.32,3.32,0,0,1,.93.17v.33C47.46,75.68,47.21,76,46.51,76Z"/><path class="cls-6" d="M43.6,73c-.2.44-.58,1.34-.78,1.9a10.44,10.44,0,0,1-.09-1.77,17.82,17.82,0,0,1,.55-4,.25.25,0,0,0,.24-.17l-.91-.18a23.71,23.71,0,0,0-.5,4.37,10.33,10.33,0,0,0,.4,3.3l.63-.08a1.38,1.38,0,0,1-.09-.45,11,11,0,0,1,1-2.5Z"/><path class="cls-6" d="M43.47,73c-.15.33-.38.89-.58,1.38,0-.35,0-.78,0-1.19a17.52,17.52,0,0,1,.52-3.91.36.36,0,0,0,.27-.26l0-.14-1.18-.23,0,.13a23.68,23.68,0,0,0-.51,4.4,11.25,11.25,0,0,0,.41,3.35l0,.1.91-.11-.06-.16a1.4,1.4,0,0,1-.08-.41,10.75,10.75,0,0,1,1-2.44l0-.09-.63-.59Zm.38.48a10,10,0,0,0-.93,2.47,1.37,1.37,0,0,0,0,.34l-.36,0a11.14,11.14,0,0,1-.36-3.15,23.07,23.07,0,0,1,.48-4.21l.44.09,0,.06a18.29,18.29,0,0,0-.54,4.07,11.18,11.18,0,0,0,.08,1.8l.1.46L43,75c.18-.49.48-1.24.69-1.72Z"/><path class="cls-6" d="M48.18,75.39a2.3,2.3,0,0,0,0-.26l.08.05.12-.24c-.09,0-.18-.11-.27-.15l-.2-.09v.21c0,.75-.13,1.55-1.43,1.55-1,0-1.68-.48-1.68-1.21S45.7,74,46.51,74a3,3,0,0,1,.86.12l.18.05V74c0-.31,0-.72-.06-1.18s0-.87-.07-1.31v-.14h-.14l-1,0H45v-.33h.73c.6,0,1.06,0,1.5,0h.13v-.13c0-.75-.06-1.4-.08-2h.42v.07c0,.44,0,.89,0,1.37l0,.7h.14a9.44,9.44,0,0,0,1.71-.33l0,.37a9.07,9.07,0,0,1-1.75.3H47.8v.13c0,1,.09,2.14.11,2.74v.09l.08,0c.19.08.38.19.57.29l.12-.25c-.17-.09-.34-.19-.5-.26,0-.59-.07-1.57-.11-2.52a9.1,9.1,0,0,0,1.79-.33l.11,0-.12-.94-.16,0a8.22,8.22,0,0,1-1.65.36v-.4c0-.45,0-.86,0-1.27a.33.33,0,0,0,.24-.28l0-.15-1.24,0v.15c0,.65,0,1.31.08,2.06-.39,0-.81,0-1.34,0h-1v.88h1.56l.82,0c0,.39,0,.8.07,1.17s0,.72,0,1a3.08,3.08,0,0,0-.75-.08c-.94,0-2,.47-2,1.51,0,.89.79,1.48,2,1.48a1.68,1.68,0,0,0,1.16-.37C47.83,76,48,75.71,48.18,75.39Z"/><path class="cls-6" d="M266.17,87.69l.07-.1h8.47l.43.88-.07.1h-1.65l.05,8.34-.09.1-1-.27,0-4.64c-.43,0-.87-.07-1.35-.07a5.25,5.25,0,0,0-1.5.17v.69a2.35,2.35,0,0,1-.09.79.66.66,0,0,1-.61.34,2.78,2.78,0,0,1-1.59-2,.91.91,0,0,1,.64-.81,4.37,4.37,0,0,1,1.76-.29c.83,0,1.76.07,2.74.17V88.57h-5.77Z"/><path class="cls-6" d="M274.27,87.69l.07-.1h9.21l.43.88-.07.1h-1.65l.05,8.34-.09.1-1-.27,0-3.64h-3.44v.41a1.36,1.36,0,0,1-.21.88.61.61,0,0,1-.55.29,2.51,2.51,0,0,1-1.62-1.76.77.77,0,0,1,.34-.57,2.34,2.34,0,0,1,1-.33V88.57h-2Zm7,.88h-3.48v3.51h3.48Z"/><path class="cls-6" d="M283.11,87.69l.07-.1h9.66l.43.88-.07.1h-1.64l0,8.34-.09.1-1-.27,0-3.53a4.75,4.75,0,0,1-1.2.14,6.14,6.14,0,0,1-2.6-.67,3,3,0,0,1-1,1.13A12.17,12.17,0,0,0,289,96.2l-.62,1.18h-.08a14.9,14.9,0,0,1-3.5-3.64,3.48,3.48,0,0,1-.6-1.49.81.81,0,0,1,.81-.77,5.36,5.36,0,0,1,.82.1,4.75,4.75,0,0,0,.17-1.34,10.76,10.76,0,0,0-.14-1.67h-2.28Zm3.7.88a11.33,11.33,0,0,1,.21,2.16,5.57,5.57,0,0,1-.11,1.16,5,5,0,0,0,1.69.29,9.59,9.59,0,0,0,1.92-.22V88.57Z"/><path class="cls-6" d="M289.24,97.55a6.17,6.17,0,0,1,.75,0,3.41,3.41,0,0,1,1.9.61,24.68,24.68,0,0,1,2.78,2.48l-.28.44h-.05c-1.89-1.78-2.56-2.42-3.81-2.42a6.44,6.44,0,0,0-.87,0l0,0Z"/><path class="cls-6" d="M292.4,87.69l.08-.1H301l.44.88-.07.1h-1.65l0,8.34-.09.1-1-.27,0-5.33c-.44,0-.92,0-1.41,0-2,0-2.78.7-2.78,1.51s.92,2,2.56,3L296.29,97h-.08c-1.75-1.6-2.63-3.14-2.63-4.55s.76-2.19,3.11-2.19c.71,0,1.37,0,2,0V88.57h-5.86Z"/><path class="cls-6" d="M298.91,87.77c-.27-.61-.54-1.22-.85-1.83-.52-1-.83-1.48-1.89-1.48a6,6,0,0,0-1.62.24l-.07-.06L294,83.39a6.42,6.42,0,0,1,1.76-.23c1.72,0,2.08,1.12,3.84,4.52l-.06.09Z"/><path class="cls-6" d="M151,123.62v5.85h6.75v-5.85h1.83v14h-1.83V131H151v6.55h-1.81v-14Z"/><path class="cls-6" d="M163.65,132.91a3.22,3.22,0,0,0,3.44,3.48,6.58,6.58,0,0,0,2.78-.52l.31,1.31a8.11,8.11,0,0,1-3.33.62c-3.09,0-4.94-2-4.94-5.06s1.78-5.41,4.71-5.41c3.27,0,4.14,2.88,4.14,4.73a7.24,7.24,0,0,1-.06.85ZM169,131.6c0-1.16-.48-3-2.53-3-1.84,0-2.65,1.7-2.8,3Z"/><path class="cls-6" d="M173,122.88h1.82v14.71H173Z"/><path class="cls-6" d="M177.92,122.88h1.83v14.71h-1.83Z"/><path class="cls-6" d="M191.9,132.49c0,3.71-2.57,5.33-5,5.33-2.71,0-4.81-2-4.81-5.16,0-3.36,2.2-5.33,5-5.33S191.9,129.43,191.9,132.49Zm-8,.11c0,2.19,1.26,3.85,3.05,3.85s3-1.64,3-3.89c0-1.71-.85-3.86-3-3.86S183.94,130.69,183.94,132.6Z"/><path class="cls-6" d="M55.45,196.6v5.59h6.46V196.6h1.75V210H61.91V203.7H55.45V210H53.72V196.6Z"/><path class="cls-6" d="M75.28,205.09c0,3.54-2.45,5.09-4.77,5.09-2.6,0-4.6-1.9-4.6-4.93,0-3.22,2.1-5.1,4.75-5.1S75.28,202.15,75.28,205.09Zm-7.61.09c0,2.11,1.21,3.69,2.92,3.69s2.91-1.56,2.91-3.72c0-1.63-.81-3.69-2.88-3.69S67.67,203.36,67.67,205.18Z"/><path class="cls-6" d="M77.49,195.89h1.75V210H77.49Z"/><path class="cls-6" d="M87.49,210l-.14-1.21h-.06a3.55,3.55,0,0,1-2.93,1.43,2.73,2.73,0,0,1-2.94-2.75c0-2.32,2.06-3.59,5.77-3.57v-.2A2,2,0,0,0,85,201.44a4.77,4.77,0,0,0-2.5.71L82.12,201a6,6,0,0,1,3.15-.85c2.93,0,3.65,2,3.65,3.93v3.58a14.47,14.47,0,0,0,.15,2.3Zm-.26-4.89c-1.9,0-4.06.29-4.06,2.16a1.54,1.54,0,0,0,1.64,1.66,2.38,2.38,0,0,0,2.32-1.6,1.84,1.84,0,0,0,.1-.56Z"/><path class="cls-6" d="M91.4,209a1.17,1.17,0,0,1,1.17-1.23,1.23,1.23,0,0,1,0,2.46A1.16,1.16,0,0,1,91.4,209Zm.5-2.83-.28-9.52h1.9l-.27,9.52Z"/><path class="cls-6" d="M57.23,116.94c0,4.68-2.85,7.16-6.32,7.16s-6.11-2.78-6.11-6.9c0-4.32,2.68-7.14,6.31-7.14S57.23,112.9,57.23,116.94Zm-10.55.22c0,2.9,1.57,5.51,4.33,5.51s4.36-2.56,4.36-5.65c0-2.7-1.41-5.53-4.34-5.53S46.68,114.17,46.68,117.16Z"/><path class="cls-6" d="M59.46,109.55h1.77v14.33H59.46Z"/><path class="cls-6" d="M69.63,123.88l-.15-1.23h-.06a3.64,3.64,0,0,1-3,1.45,2.78,2.78,0,0,1-3-2.8c0-2.37,2.1-3.66,5.87-3.64v-.2a2,2,0,0,0-2.22-2.26,4.84,4.84,0,0,0-2.54.73l-.4-1.17a6,6,0,0,1,3.21-.87c3,0,3.71,2,3.71,4v3.66a14,14,0,0,0,.16,2.34Zm-.27-5c-1.93,0-4.13.31-4.13,2.2a1.57,1.57,0,0,0,1.67,1.7,2.43,2.43,0,0,0,2.36-1.64,1.84,1.84,0,0,0,.1-.56Zm.89-9-2.46,2.88H66.52l1.78-2.88Z"/><path class="cls-6" d="M252.22,29.46V39.77h-1.33V30.58H246.1v9.19h-1.33V29.46Z"/><path class="cls-6" d="M254.5,34.78c0-1,0-1.71-.06-2.41h1.2l.07,1.27h0a2.92,2.92,0,0,1,2.64-1.44c1.78,0,3.13,1.51,3.13,3.76,0,2.66-1.62,4-3.36,4a2.59,2.59,0,0,1-2.28-1.17h0v4H254.5Zm1.33,2a3.19,3.19,0,0,0,.06.55,2.07,2.07,0,0,0,2,1.57c1.42,0,2.24-1.16,2.24-2.86,0-1.48-.77-2.75-2.2-2.75a2.15,2.15,0,0,0-2,1.67,1.92,1.92,0,0,0-.09.55Z"/><path class="cls-6" d="M264.43,32.37v3.12c0,1.17,0,1.91-.07,3l.05,0c.44-.9.7-1.42,1.19-2.28l2.31-3.82h1.57v7.4H268.2V36.63c0-1.2,0-1.83.09-3h-.05c-.47.95-.79,1.55-1.22,2.3-.7,1.15-1.51,2.57-2.31,3.87h-1.54v-7.4Z"/><path class="cls-6" d="M271.64,32.46a15.92,15.92,0,0,1,2.35-.17c1.24,0,3.29.2,3.29,1.85a1.75,1.75,0,0,1-1.54,1.67v0c1.08.15,1.88.76,1.88,1.83,0,1.95-2.45,2.19-3.9,2.19-.83,0-1.68-.06-2.08-.09Zm1.27,6.42a7.48,7.48,0,0,0,1.08.06c.91,0,2.25-.21,2.25-1.28s-1.07-1.3-2.35-1.3h-1Zm0-3.41h1c1,0,2-.29,2-1.16s-.64-1.09-2-1.09a9.75,9.75,0,0,0-1,.06Z"/><path class="cls-6" d="M280.07,36.31a2.37,2.37,0,0,0,2.53,2.57,4.9,4.9,0,0,0,2-.38l.23,1a5.86,5.86,0,0,1-2.46.46,3.44,3.44,0,0,1-3.64-3.73c0-2.23,1.32-4,3.47-4,2.42,0,3.06,2.12,3.06,3.48a4.18,4.18,0,0,1-.05.63Zm3.94-1a1.91,1.91,0,0,0-1.86-2.19,2.24,2.24,0,0,0-2.07,2.19Z"/><path class="cls-6" d="M291.92,32.37v1.07h-2.31v6.33h-1.33V33.44H286V32.37Z"/><path class="cls-6" d="M229.33,174.39v4.12h4.77v-4.12h1.28v9.85H234.1v-4.62h-4.77v4.62h-1.27v-9.85Z"/><path class="cls-6" d="M243.46,182.31c0,.73,0,1.37,0,1.93h-1.14l-.07-1.15h0a2.67,2.67,0,0,1-2.34,1.31c-1.11,0-2.44-.61-2.44-3.1v-4.13h1.29v3.91c0,1.35.41,2.25,1.58,2.25a1.85,1.85,0,0,0,1.69-1.17,1.93,1.93,0,0,0,.12-.65v-4.34h1.29Z"/><path class="cls-6" d="M243.86,186.28a2.05,2.05,0,0,0,1.4-.54c.35-.41.48-1,.48-2.65v-5.92H247v6.41a3.86,3.86,0,0,1-.85,2.91,3.27,3.27,0,0,1-2.19.8Zm3.31-11.1a.75.75,0,0,1-.8.79.77.77,0,0,1-.79-.79.79.79,0,0,1,.82-.8A.75.75,0,0,1,247.17,175.18Z"/><path class="cls-6" d="M253,184.24l-.1-.89h-.05a2.63,2.63,0,0,1-2.16,1.05,2,2,0,0,1-2.16-2c0-1.71,1.52-2.65,4.25-2.63v-.15a1.46,1.46,0,0,0-1.6-1.64,3.57,3.57,0,0,0-1.85.53l-.29-.85a4.4,4.4,0,0,1,2.33-.62c2.16,0,2.68,1.47,2.68,2.89v2.64a9.7,9.7,0,0,0,.12,1.7Zm-.19-3.61c-1.4,0-3,.22-3,1.59a1.14,1.14,0,0,0,1.21,1.23,1.77,1.77,0,0,0,1.71-1.18,1.53,1.53,0,0,0,.07-.41Z"/><path class="cls-6" d="M256.16,179.08c0-.73,0-1.33-.06-1.91h1.13l.06,1.13h0a2.44,2.44,0,0,1,2.22-1.29,2.1,2.1,0,0,1,2,1.41h0a3,3,0,0,1,.79-.92,2.43,2.43,0,0,1,1.57-.49c.93,0,2.32.61,2.32,3.06v4.17H265v-4c0-1.36-.49-2.18-1.53-2.18a1.67,1.67,0,0,0-1.52,1.17,2,2,0,0,0-.1.64v4.37h-1.26V180c0-1.12-.5-1.94-1.48-1.94a1.76,1.76,0,0,0-1.59,1.28,1.85,1.85,0,0,0-.1.63v4.27h-1.26Z"/><path class="cls-6" d="M268.28,184.24c0-.48.06-1.2.06-1.83v-8.55h1.27v4.44h0a2.64,2.64,0,0,1,2.41-1.29c1.75,0,3,1.46,3,3.6,0,2.53-1.6,3.79-3.17,3.79a2.51,2.51,0,0,1-2.37-1.33h0l-.06,1.17Zm1.33-2.83a2.22,2.22,0,0,0,.06.46,2,2,0,0,0,1.92,1.51c1.35,0,2.15-1.1,2.15-2.72,0-1.42-.73-2.63-2.1-2.63a2,2,0,0,0-2,1.58,2.42,2.42,0,0,0-.07.52Z"/><path class="cls-6" d="M283,180.64a3.46,3.46,0,0,1-3.52,3.76,3.36,3.36,0,0,1-3.39-3.64,3.45,3.45,0,0,1,3.51-3.75A3.34,3.34,0,0,1,283,180.64Zm-5.61.08c0,1.55.89,2.72,2.15,2.72s2.15-1.16,2.15-2.75c0-1.2-.6-2.72-2.12-2.72S277.43,179.37,277.43,180.72Z"/><path class="cls-6" d="M148.29,34.11l-.53-1.73a18.62,18.62,0,0,0,3.93-6.92l1.53.72A19.54,19.54,0,0,1,151.49,30V41.34h-1.62v-9C149.37,33,148.84,33.53,148.29,34.11Zm5.25-1.56-1.4-.87a18.77,18.77,0,0,0,2.72-6.12l1.52.33c-.16.56-.31,1.11-.48,1.62h7.18v1.06a28.37,28.37,0,0,1-1,3.08l-1.56-.45a10.31,10.31,0,0,0,.89-2.12h-6.06A21.37,21.37,0,0,1,153.54,32.55Zm2.5.4a27.07,27.07,0,0,1-2.33,6.18l-1.52-.55a26.35,26.35,0,0,0,2.39-6Zm-.93,8.27-.36-1.54c.7.07,1.37.12,2,.12.41,0,.62-.22.62-.67v-8.8h1.57v9.21a1.47,1.47,0,0,1-1.64,1.68Zm8.39-2.45-1.41.65a51.87,51.87,0,0,0-2.16-6.58l1.44-.48A50.16,50.16,0,0,1,163.5,38.77Z"/><path class="cls-6" d="M169.37,25.55c-.19,1.12-.38,2.17-.56,3.14h2.85v.89a18.43,18.43,0,0,1-1.57,7,25.35,25.35,0,0,1,2.3,2l-1.11,1.29c-.54-.57-1.21-1.18-2-1.83a13.2,13.2,0,0,1-3.13,3.45l-1.11-1.37a11,11,0,0,0,3-3.13c-.78-.63-1.64-1.28-2.56-2,.51-1.47,1-3,1.37-4.74h-1.64V28.69h2c.2-1.06.41-2.15.58-3.28Zm.7,4.69h-1.59a38.44,38.44,0,0,1-1.21,4.24c.54.38,1.06.76,1.52,1.1A15.34,15.34,0,0,0,170.07,30.24Zm5.71,2.36v-2a19.16,19.16,0,0,0,2.48-2.75h-5.71V26.31h7.57v1.58a25.11,25.11,0,0,1-2.72,3.24V32.6h3.33v1.58H177.4v5.07c0,1.27-.49,1.9-1.45,1.9h-2.53L173,39.61l2.29,0c.33,0,.5-.29.5-.87V34.18h-3.71V32.6Z"/><path class="cls-6" d="M63.67,33.06a9.21,9.21,0,0,1-3.83.69c-4.09,0-7.17-2.58-7.17-7.34a7.21,7.21,0,0,1,7.58-7.61,7.73,7.73,0,0,1,3.44.64L63.24,21a6.74,6.74,0,0,0-2.93-.6c-3.4,0-5.66,2.17-5.66,6,0,3.55,2.05,5.83,5.58,5.83a7.39,7.39,0,0,0,3.05-.6Z"/><path class="cls-6" d="M68,20.19a1.12,1.12,0,0,1-1.2,1.17,1.13,1.13,0,0,1-1.14-1.17A1.15,1.15,0,0,1,66.84,19,1.12,1.12,0,0,1,68,20.19ZM65.9,33.54V23.12h1.89V33.54Z"/><path class="cls-6" d="M76.7,33.54l-.15-1.31h-.06a3.9,3.9,0,0,1-3.19,1.54,3,3,0,0,1-3.18-3c0-2.51,2.23-3.89,6.26-3.87v-.22A2.15,2.15,0,0,0,74,24.28a5.12,5.12,0,0,0-2.71.78l-.43-1.25a6.46,6.46,0,0,1,3.42-.93c3.19,0,4,2.18,4,4.27V31a15.68,15.68,0,0,0,.17,2.5Zm-.28-5.32c-2.06,0-4.41.33-4.41,2.35a1.68,1.68,0,0,0,1.79,1.81,2.61,2.61,0,0,0,2.52-1.75,2.09,2.09,0,0,0,.1-.6Z"/><path class="cls-6" d="M90.74,28.24c0,3.86-2.67,5.53-5.18,5.53-2.82,0-5-2.06-5-5.35,0-3.49,2.28-5.54,5.17-5.54S90.74,25.06,90.74,28.24Zm-8.26.11c0,2.28,1.31,4,3.16,4s3.16-1.7,3.16-4c0-1.77-.88-4-3.12-4S82.48,26.37,82.48,28.35Z"/></g></g></svg>