<svg xmlns="http://www.w3.org/2000/svg" viewBox="0 0 75.51 81.81"><defs><style>.cls-1{fill:#e9eaeb;}.cls-2,.cls-4{fill:#fff;}.cls-2,.cls-3,.cls-5{stroke:#676767;stroke-miterlimit:10;stroke-width:1.5px;}.cls-3{fill:#fddf7f;}.cls-5{fill:none;}</style></defs><title>icon1</title><g id="Layer_2" data-name="Layer 2"><g id="Layer_9" data-name="Layer 9"><circle class="cls-1" cx="40.25" cy="40.35" r="35.26" transform="translate(-16.74 40.28) rotate(-45)"/><path class="cls-2" d="M30.47,33.72,9.61,54.58,28.08,73.76l9.25-9.25c2.14-2.14,6.5,1.11,9.51-1.9L50,59.48l3.13-3.13Z"/><path class="cls-3" d="M24.32,16.71A12.09,12.09,0,0,0,7.64,1.93l7.12,7.12L9.05,14.76,1.93,7.64A12.09,12.09,0,0,0,16.71,24.32l44,44a5.38,5.38,0,0,0,7.62,0h0a5.38,5.38,0,0,0,0-7.61Z"/><path class="cls-4" d="M44.26,23.32,41.4,20.47a2.69,2.69,0,0,0-3.8,0l-5.71,5.71,6.66,6.66,5.71-5.71A2.7,2.7,0,0,0,44.26,23.32Z"/><path class="cls-5" d="M31.89,26.18l5.71-5.71a2.69,2.69,0,0,1,3.8,0l2.86,2.85a2.7,2.7,0,0,1,0,3.81l-5.71,5.71"/><path class="cls-4" d="M52.82,28.08,50,25.22a2.7,2.7,0,0,0-3.81,0l-7.61,7.62,6.66,6.66,7.61-7.61A2.7,2.7,0,0,0,52.82,28.08Z"/><path class="cls-5" d="M45.21,39.5l7.61-7.61a2.7,2.7,0,0,0,0-3.81L50,25.23a2.68,2.68,0,0,0-3.81,0l-7.61,7.61"/><path class="cls-2" d="M59.63,38.4a2.59,2.59,0,0,0-.15-3.66l-2.85-2.85A2.6,2.6,0,0,0,53,31.74l-7.91,7.91a2.6,2.6,0,0,0,.15,3.66l2.85,2.85a2.6,2.6,0,0,0,3.66.15Z"/><path class="cls-4" d="M36.14,24.72a6.39,6.39,0,0,0-6-2.16c-2.62.4-6.83.82-8.29,1.9S19.09,30.9,19.09,35c0,5-.19,9.85-1.24,10.9l-8.8,8.81,22.74-2c5.37-5.36,4.55-14.52.19-18.88l6,6c4.32,4.31,10.75,1.23,11.8-1.53Z"/><path class="cls-5" d="M9.05,54.73l8.8-8.81c1-1.05,1.24-5.9,1.24-10.9,0-4.12,1.3-9.48,2.77-10.56s5.67-1.5,8.29-1.9a6.39,6.39,0,0,1,6,2.16L49.82,38.4c-1,2.76-7.48,5.84-11.8,1.53l-6-6c4.36,4.36,5.18,13.52-.19,18.88"/><path class="cls-2" d="M63.6,46.05a2.29,2.29,0,0,0,0-3.24l-2.44-2.45a2.3,2.3,0,0,0-3.25,0l-7.24,7.25a2.29,2.29,0,0,0,0,3.24l2.45,2.45a2.29,2.29,0,0,0,3.24,0Z"/><rect class="cls-2" x="0.93" y="58.3" width="34.25" height="12.12" transform="translate(50.78 6.08) rotate(44.99)"/><line class="cls-5" x1="62.1" y1="62.04" x2="64.79" y2="64.73"/><line class="cls-5" x1="9.61" y1="55.31" x2="13.65" y2="59.35"/></g></g></svg>