<svg xmlns="http://www.w3.org/2000/svg" viewBox="0 0 80.75 74.21"><defs><style>.cls-1{fill:#e9eaeb;}.cls-2,.cls-5{fill:#fff;}.cls-3,.cls-6{fill:none;}.cls-3,.cls-4,.cls-5,.cls-6{stroke:#676767;stroke-miterlimit:10;stroke-width:1.5px;}.cls-4{fill:#fddf7f;}.cls-6{stroke-dasharray:4 2;}</style></defs><title>icon2</title><g id="Layer_2" data-name="Layer 2"><g id="Layer_9" data-name="Layer 9"><circle class="cls-1" cx="43.64" cy="37.11" r="37.11"/><path class="cls-2" d="M15.05,17.93,13.8,15.76H.75V63.62a6.52,6.52,0,0,0,6.53,6.52H61.66a6.52,6.52,0,0,0,6.53-6.52V17.93Z"/><path class="cls-3" d="M55.14,30.38V22.77h-37L13.8,15.15H.75V63a6.53,6.53,0,0,0,6.53,6.53H61.66"/><path class="cls-3" d="M14.89,17.33h53.3V63a6.53,6.53,0,0,1-6.53,6.53h0A6.52,6.52,0,0,1,55.14,63V40.17"/><line class="cls-3" x1="63.84" y1="64.1" x2="63.84" y2="42.35"/><line class="cls-3" x1="63.84" y1="27.12" x2="63.84" y2="21.68"/><line class="cls-3" x1="59.49" y1="64.1" x2="59.49" y2="42.35"/><line class="cls-3" x1="59.49" y1="27.12" x2="59.49" y2="21.68"/><rect class="cls-4" x="18.15" y="45.61" width="19.58" height="15.23"/><circle class="cls-5" cx="27.94" cy="52.14" r="2.18"/><line class="cls-3" x1="27.94" y1="57.57" x2="27.94" y2="54.31"/><path class="cls-3" d="M21.42,45.61V41.26a6.46,6.46,0,0,1,1.91-4.61,6.3,6.3,0,0,1,2.44-1.54"/><path class="cls-3" d="M30.12,35.11a6.51,6.51,0,0,1,4.35,6.15v4.35"/><polyline class="cls-3" points="30.12 40.17 30.12 30.38 68.19 30.38"/><polyline class="cls-3" points="25.77 40.17 25.77 30.38 0.75 30.38"/><line class="cls-3" x1="0.75" y1="39.08" x2="21.42" y2="39.08"/><line class="cls-3" x1="34.47" y1="39.08" x2="68.19" y2="39.08"/><line class="cls-6" x1="4.01" y1="34.73" x2="14.89" y2="34.73"/><line class="cls-6" x1="41" y1="34.73" x2="64.93" y2="34.73"/></g></g></svg>