<svg xmlns="http://www.w3.org/2000/svg" viewBox="0 0 80 80"><defs><style>.cls-1{fill:#e9eaeb;}.cls-2{fill:#fff;}.cls-3{fill:none;}.cls-3,.cls-4{stroke:#676767;stroke-miterlimit:10;stroke-width:1.5px;}.cls-4{fill:#fddf7f;}</style></defs><title>icon3</title><g id="Layer_2" data-name="Layer 2"><g id="Layer_9" data-name="Layer 9"><circle class="cls-1" cx="40" cy="40" r="40"/><path class="cls-2" d="M70.07,45.13V34.87H65a21.38,21.38,0,0,0-2.8-6.62l3.32-3.84L59,17.81l-4,3.19a21.85,21.85,0,0,0-6.71-2.85l0-5h-9v55h9l0-5.8a21.85,21.85,0,0,0,6.71-2.85l4,3.63,6.45-6.61-3.32-4.27A24.32,24.32,0,0,0,65,45.11Z"/><path class="cls-3" d="M39.37,68.14h9l0-5.8a21.85,21.85,0,0,0,6.71-2.85l4,3.63,6.45-6.61-3.32-4.27A24.32,24.32,0,0,0,65,45.11l5.12,0V34.87H65a21.38,21.38,0,0,0-2.8-6.62l3.32-3.84L59,17.81l-4,3.19a21.85,21.85,0,0,0-6.71-2.85l0-5h-9"/><line class="cls-3" x1="39.37" y1="8" x2="39.37" y2="73.26"/><path class="cls-1" d="M40.64,46.39h2.2a6.41,6.41,0,1,0,0-12.8h-2.2"/><path class="cls-3" d="M40.64,46.39h2.2a6.41,6.41,0,1,0,0-12.8h-2.2"/><line class="cls-3" x1="39.37" y1="5.45" x2="39.37" y2="2.89"/><line class="cls-3" x1="39.37" y1="78.37" x2="39.37" y2="75.81"/><path class="cls-4" d="M31.69,13.12c-4-.26-8.41,2.06-9.48,5.38-5.06-.18-9.12,3.94-9.12,9.34a10.19,10.19,0,0,0,.08,1.24c-3.69,1.34-6.34,5.51-6.34,10.64a14,14,0,0,0,2.8,8.52A10.24,10.24,0,0,0,9.4,52c.67,5.5,5.37,9.77,10.5,9.57a10.37,10.37,0,0,0,9.46,6.53c6.81,0,10-3.81,10-3.81V17A11.56,11.56,0,0,0,31.69,13.12Z"/><path class="cls-3" d="M30.61,29.57c-4.84-.32-8.76-4.24-8.76-8.77a7.41,7.41,0,0,1,.36-2.32"/><path class="cls-3" d="M19.35,40.14c2.73,1.71,5.92.58,8.2-1.81,2.89-3,7.65-3.95,10.54-.56a9.3,9.3,0,0,1,1.28,2"/><path class="cls-3" d="M39.25,24.71a8.09,8.09,0,0,1-8.64-5.42"/><path class="cls-3" d="M39.25,55.47a7,7,0,0,0-8.64,4.29"/><path class="cls-3" d="M21.6,53.33c-2.2-.66-4.4-2.3-4.4-4.4"/><path class="cls-3" d="M20.6,63a8.3,8.3,0,0,1-1.25-4.34c0-4.51,3.77-8.17,8.77-8.2a1,1,0,0,0,1-1.09h0c0-3.35,3.13-4.48,5.12-4.35"/><path class="cls-3" d="M14.34,35.53a4.6,4.6,0,0,1,4.38,4.38,3.92,3.92,0,0,1-4.38,3.81"/><path class="cls-3" d="M20.2,32a4.64,4.64,0,0,1,5.16-4.5"/><path class="cls-3" d="M43.46,24.89a15.1,15.1,0,0,1,0,30.2"/></g></g></svg>