<svg xmlns="http://www.w3.org/2000/svg" viewBox="0 0 80 69.5"><defs><style>.cls-1{fill:#e9eaeb;}.cls-2{fill:#fff;}.cls-3{fill:#fddf7f;}.cls-3,.cls-4{stroke:#676767;stroke-miterlimit:10;stroke-width:1.5px;}.cls-4{fill:none;}</style></defs><title>icon4</title><g id="Layer_2" data-name="Layer 2"><g id="Layer_9" data-name="Layer 9"><circle class="cls-1" cx="47.5" cy="30" r="30"/><rect class="cls-2" x="12.5" y="33.75" width="11.25" height="35"/><rect class="cls-2" x="35" y="27.5" width="11.25" height="41.25"/><rect class="cls-2" x="57.5" y="13.75" width="11.25" height="55"/><rect class="cls-3" x="23.75" y="38.75" width="11.25" height="30"/><rect class="cls-3" x="46.25" y="32.5" width="11.25" height="36.25"/><polyline class="cls-4" points="5 60 15 60 20 53.75 27.5 53.75 31.25 58.75 41.25 58.75 51.25 48.75 61.25 48.75 65 42.5 73.75 42.5"/><line class="cls-4" x1="27.5" y1="12.5" x2="27.5" y2="20"/><line class="cls-4" x1="31.25" y1="16.25" x2="23.75" y2="16.25"/><line class="cls-4" x1="10" y1="15" x2="10" y2="22.5"/><line class="cls-4" x1="13.75" y1="18.75" x2="6.25" y2="18.75"/><line class="cls-4" x1="20" y1="1.25" x2="20" y2="8.75"/><line class="cls-4" x1="23.75" y1="5" x2="16.25" y2="5"/><line class="cls-4" x1="11.25" y1="68.75" x2="5" y2="68.75"/><line class="cls-4" x1="2.5" y1="68.75" y2="68.75"/><line class="cls-4" x1="80" y1="68.75" x2="77.5" y2="68.75"/><line class="cls-4" x1="75" y1="68.75" x2="70" y2="68.75"/><polyline class="cls-4" points="46.25 48.75 46.25 27.5 35 27.5 35 38.75"/><polyline class="cls-4" points="35 68.75 46.25 68.75 46.25 58.75"/><polyline class="cls-4" points="57.5 52.5 57.5 68.75 46.25 68.75"/><polyline class="cls-4" points="46.25 32.5 57.5 32.5 57.5 45"/><polyline class="cls-4" points="35 62.5 35 68.75 23.75 68.75"/><polyline class="cls-4" points="23.75 38.75 35 38.75 35 55"/><polyline class="cls-4" points="23.75 57.5 23.75 68.75 12.5 68.75 12.5 63.75"/><polyline class="cls-4" points="12.5 56.25 12.5 33.75 23.75 33.75 23.75 50"/><polyline class="cls-4" points="68.75 46.25 68.75 68.75 57.5 68.75"/><polyline class="cls-4" points="68.75 38.75 68.75 13.75 57.5 13.75 57.5 32.5"/></g></g></svg>