<svg xmlns="http://www.w3.org/2000/svg" viewBox="0 0 105.19 125.08"><defs><style>.cls-1{fill:none;stroke:#86b9c1;stroke-miterlimit:10;stroke-width:1.5px;}.cls-2{fill:#86b9c1;}</style></defs><title>line_contributor</title><g id="Layer_2" data-name="Layer 2"><g id="text"><path class="cls-1" d="M77.38,11.67h23.78A3.28,3.28,0,0,1,104.44,15V39a3.27,3.27,0,0,1-3.28,3.27H97.88V50.8a1.09,1.09,0,0,1-1.93.7L85.61,42.26H69.48A3.27,3.27,0,0,1,66.2,39V33.54"/><path class="cls-1" d="M37.25,4v24a3.28,3.28,0,0,0,3.28,3.28h3.28v8.54a1.09,1.09,0,0,0,1.93.69l10.34-9.23H72.21a3.28,3.28,0,0,0,3.28-3.28V4A3.28,3.28,0,0,0,72.21.75H40.53A3.28,3.28,0,0,0,37.25,4Z"/><path class="cls-2" d="M59.39,18.62a23,23,0,0,1-1.32-5.26H54.4V16c.63-.25,1.15-.46,1.54-.65a.61.61,0,0,1,.49-.06.58.58,0,0,1,.33.32.61.61,0,0,1,.06.49c-.1.25-.9.65-2.42,1.21v3.46A1.45,1.45,0,0,1,53.74,22a2.16,2.16,0,0,1-1.76.16c-.8-.13-1.27-.32-1.4-.59a.69.69,0,0,1,0-.47,1,1,0,0,1,.32-.37,1,1,0,0,1,.53,0,5.4,5.4,0,0,0,1.29.27.31.31,0,0,0,.33-.15c.1-.06.14-.19.14-.4v-2.8c-.79.22-1.6.42-2.42.6a.61.61,0,0,1-.5-.08.57.57,0,0,1-.28-.41.71.71,0,0,1,.07-.5.6.6,0,0,1,.42-.28,21.59,21.59,0,0,0,2.71-.61v-3H50.67a.55.55,0,0,1-.43-.17.53.53,0,0,1-.17-.43.6.6,0,0,1,.17-.41.5.5,0,0,1,.43-.17h2.49V10.3c-.7.09-1.42.17-2.16.23a.81.81,0,0,1-.47-.12.78.78,0,0,1-.23-.48.76.76,0,0,1,.14-.49.61.61,0,0,1,.46-.21A15.51,15.51,0,0,0,56,8.39a.57.57,0,0,1,.54,0,.66.66,0,0,1,.29.38.72.72,0,0,1,0,.5c-.16.29-1,.56-2.42.83v2.08h3.53c-.1-1.24-.16-2.41-.18-3.49a.66.66,0,0,1,.15-.46A.59.59,0,0,1,58.39,8a.51.51,0,0,1,.46.23,1.08,1.08,0,0,1,.14.43c0,1.08.06,2.25.18,3.5h4.1a.58.58,0,0,1,.41,1,.47.47,0,0,1-.41.19h-4a20.48,20.48,0,0,0,1,4.13,2.61,2.61,0,0,1,.17-.28,14.85,14.85,0,0,0,1-2.32.62.62,0,0,1,.32-.42.63.63,0,0,1,.49,0,.78.78,0,0,1,.35.32.55.55,0,0,1,0,.53,11.49,11.49,0,0,1-1.87,3.46,7.12,7.12,0,0,0,.87,1.39c.3.4.51.59.65.58s.17-.26.27-.73c.05-1,.17-1.56.35-1.67a.55.55,0,0,1,.45-.11.6.6,0,0,1,.4.3.85.85,0,0,1,.09.5c-.11,1.86-.37,2.9-.78,3.14a.91.91,0,0,1-.6.12,1.36,1.36,0,0,1-.78-.28,5.69,5.69,0,0,1-1.8-2.2l0,0a7.82,7.82,0,0,1-1.76,1.34q-1.83,1-2.49.72a.62.62,0,0,1-.29-.41.61.61,0,0,1,.52-.81A8.06,8.06,0,0,0,59.39,18.62Zm1.19-9.16A.66.66,0,0,1,60.32,9a.53.53,0,0,1,.12-.44.64.64,0,0,1,.37-.23.85.85,0,0,1,.47.17q.77.66.87.78c.71.67,1.05,1.12,1,1.34a.52.52,0,0,1-.18.4.74.74,0,0,1-.43.16.76.76,0,0,1-.45-.25A11.69,11.69,0,0,0,60.58,9.46Z"/><path class="cls-1" d="M21.36,115.33l8-8,7-6,8.08-12a3.29,3.29,0,0,0-.72-4.44h0a3.29,3.29,0,0,0-4.57.53l-2.7,3.34-5.09,3.6H28.49"/><path class="cls-1" d="M29.36,73.33h5v8a4,4,0,0,0,4,4l.92,0"/><path class="cls-1" d="M32.66,92.16l-4.3-3.83v-13l4-7h6a3,3,0,0,0,3-3h0a3,3,0,0,0-3-3h-9l-11,13-3,24L1,114.33H0"/><line class="cls-1" x1="11.21" y1="104.17" x2="28" y2="121.33"/><polyline class="cls-1" points="4.36 111.33 17.39 124.33 26 124.33"/><polyline class="cls-1" points="77.86 124.33 35.68 124.33 35.68 104.33 55.68 104.33 55.68 121.33"/><polyline class="cls-1" points="62 85.33 62 104.33 42 104.33 42 97.29"/><line class="cls-1" x1="40" y1="84.33" x2="40" y2="68.16"/><polyline class="cls-1" points="41.33 64.33 60 64.33 60 84.33 42.67 84.33"/><line class="cls-1" x1="28" y1="124.33" x2="30" y2="124.33"/><line class="cls-1" x1="32" y1="124.33" x2="40" y2="124.33"/><path class="cls-2" d="M82.63,33.15V31.82h2.94V21.15H82.63V19.81h7.61v1.34H87.3V31.82h2.94v1.33Z"/></g></g></svg>