<svg xmlns="http://www.w3.org/2000/svg" viewBox="0 0 78.62 112.98"><defs><style>.cls-1{fill:#f6f7f7;}.cls-1,.cls-2,.cls-3{stroke:#2c7c8c;stroke-linecap:round;stroke-linejoin:round;stroke-width:1.2px;}.cls-2{fill:#d9eff1;}.cls-3{fill:#e0e0e0;}</style></defs><title>logo_stair</title><g id="Layer_2" data-name="Layer 2"><g id="pic"><polygon class="cls-1" points="33.45 102.74 12.36 90.57 20.71 85.76 41.79 97.93 33.45 102.74"/><polygon class="cls-1" points="41.79 88.29 20.71 76.12 29.05 71.31 50.13 83.48 41.79 88.29"/><polygon class="cls-1" points="49.57 32.04 28.48 19.87 36.83 15.05 57.91 27.22 49.57 32.04"/><polygon class="cls-1" points="57.91 17.59 36.83 5.42 45.17 0.6 66.26 12.77 57.91 17.59"/><polygon class="cls-1" points="50.13 73.87 0.6 45.39 28.48 29.5 78.02 57.98 50.13 73.87"/><polygon class="cls-2" points="41.79 97.93 20.71 85.76 20.71 76.12 41.79 88.29 41.79 97.93"/><polygon class="cls-2" points="33.45 112.38 12.36 100.2 12.36 90.57 33.45 102.74 33.45 112.38"/><polygon class="cls-2" points="57.91 27.22 36.83 15.05 36.83 5.42 57.91 17.59 57.91 27.22"/><polygon class="cls-2" points="49.57 32.04 28.48 19.87 28.48 29.5 49.57 41.62 49.57 32.04"/><polygon class="cls-2" points="29.05 71.31 50.13 83.48 50.13 73.87 29.05 61.74 29.05 71.31"/><polygon class="cls-3" points="66.26 51.22 66.26 12.77 57.91 17.59 57.91 27.22 49.57 32.04 49.57 41.62 66.26 51.22"/><polygon class="cls-3" points="78.02 57.98 50.13 73.87 50.13 73.87 50.13 83.48 41.79 88.29 41.79 97.93 33.45 102.74 33.45 112.38 78.02 86.7 78.02 57.98 78.02 57.98"/><polygon class="cls-2" points="29.05 71.31 29.05 61.74 0.6 45.39 0.6 59.16 25.33 73.45 29.05 71.31"/></g></g></svg>