<svg xmlns="http://www.w3.org/2000/svg" viewBox="0 0 893.15 493.2"><defs><style>.cls-1,.cls-22{fill:#d9eff1;}.cls-2,.cls-22{opacity:0.6;}.cls-3{fill:#3f4869;}.cls-10,.cls-11,.cls-3,.cls-4,.cls-5,.cls-6,.cls-7,.cls-8,.cls-9{fill-rule:evenodd;}.cls-13,.cls-4{fill:#fff;}.cls-5{fill:#535c80;}.cls-6{fill:#dbdee4;}.cls-7{fill:#c8c8c8;}.cls-8{fill:#292f47;}.cls-9{fill:#3f3c44;}.cls-10{fill:#e8f5ff;}.cls-11,.cls-12,.cls-15{fill:#bedbff;}.cls-14{fill:#d34f65;}.cls-15{opacity:0.5;}.cls-16{fill:#a7cafc;}.cls-17{fill:#ff7384;}.cls-18{fill:#f0f7ff;}.cls-19{fill:#ff889c;}.cls-20{fill:#ffabbd;}.cls-21{fill:#86b9c1;}.cls-23{opacity:0.65;}</style></defs><title>mobile</title><g id="Layer_2" data-name="Layer 2"><g id="pic"><path class="cls-1" d="M546.52,487.51a15.38,15.38,0,0,1-7.57-1.78L422.65,418l1.55-2.65,116.28,67.76c3.52,2,10,1.74,14.11-.65l139-80.79,1.54,2.65-139,80.79A19.59,19.59,0,0,1,546.52,487.51Z"/><path class="cls-1" d="M414.52,413.41l-25-14.75c-2.23-1.29-3.46-3.15-3.46-5.24,0-2.41,1.67-4.75,4.59-6.44L666,225.83c5.14-3,12.68-3.25,17.18-.65l149.44,87.07c2.23,1.29,3.46,3.16,3.46,5.25,0,2.4-1.67,4.75-4.59,6.43L703.32,399.58l-1.55-2.64,128.16-75.65c1.93-1.12,3.08-2.53,3.08-3.79a3.32,3.32,0,0,0-1.94-2.6L681.64,227.83c-3.52-2-10-1.73-14.11.65L392.18,389.63c-1.92,1.11-3.07,2.53-3.07,3.79a3.3,3.3,0,0,0,1.94,2.59l25,14.76Z"/><polygon class="cls-1" points="728.57 442.83 731.23 444.36 735.87 441.68 733.22 440.15 728.57 442.83"/><polygon class="cls-1" points="743.16 434.4 738.52 437.09 741.17 438.62 745.82 435.94 743.16 434.4"/><polygon class="cls-1" points="708.67 454.32 711.33 455.85 715.97 453.17 713.32 451.64 708.67 454.32"/><polygon class="cls-1" points="718.62 448.57 721.28 450.11 725.92 447.43 723.26 445.89 718.62 448.57"/><polygon class="cls-1" points="698.72 460.06 701.38 461.6 706.02 458.92 703.37 457.38 698.72 460.06"/><polygon class="cls-1" points="688.77 465.81 691.43 467.34 696.07 464.66 693.42 463.13 688.77 465.81"/><rect class="cls-1" x="722.63" y="390.72" width="3.06" height="50.41" transform="translate(-4.85 823.28) rotate(-59.07)"/><path class="cls-1" d="M748.56,437.05a9.88,9.88,0,0,1-4.84-1.18,4,4,0,0,1,0-7.36,10.6,10.6,0,0,1,9.68,0,4,4,0,0,1,0,7.36h0A9.91,9.91,0,0,1,748.56,437.05Zm0-6.65a6.8,6.8,0,0,0-3.31.77c-.56.32-.92.72-.92,1s.36.7.92,1a7.54,7.54,0,0,0,6.62,0c.56-.33.92-.73.92-1s-.36-.7-.92-1A6.83,6.83,0,0,0,748.56,430.4Z"/><path class="cls-1" d="M698.47,405.47a9.8,9.8,0,0,1-4.84-1.18,4,4,0,0,1,0-7.35,10.54,10.54,0,0,1,9.68,0,4,4,0,0,1,0,7.35A9.8,9.8,0,0,1,698.47,405.47Zm0-6.64a6.83,6.83,0,0,0-3.31.76c-.56.32-.92.73-.92,1s.36.7.92,1a7.54,7.54,0,0,0,6.62,0c.56-.32.92-.72.92-1s-.36-.71-.92-1A6.8,6.8,0,0,0,698.47,398.83Z"/><path class="cls-1" d="M681.16,483c-5.35,3.09-14,3.09-19.38,0s-5.35-8.1,0-11.19,14-3.09,19.38,0S686.51,479.94,681.16,483Z"/><rect class="cls-1" x="610.88" y="166.19" width="3.06" height="90.57" transform="matrix(0.5, -0.86, 0.86, 0.5, 120.81, 633.49)"/><path class="cls-1" d="M671.47,493.2c-6.6,0-13.21-1.45-18.23-4.35s-8-7-8-11.42,2.84-8.43,8-11.41c10-5.8,26.41-5.8,36.47,0,5.16,3,8,7,8,11.42s-2.84,8.43-8,11.41h0C684.68,491.75,678.08,493.2,671.47,493.2Zm0-28.51c-6.05,0-12.1,1.33-16.7,4-4.17,2.4-6.47,5.52-6.47,8.76s2.3,6.35,6.47,8.75c9.21,5.32,24.19,5.32,33.4,0h0c4.18-2.4,6.47-5.51,6.47-8.75s-2.29-6.35-6.47-8.76C683.57,466,677.52,464.69,671.47,464.69Z"/><polygon class="cls-1" points="613.99 211.13 616.4 212.52 546.5 253.2 544.09 251.81 613.99 211.13"/><polygon class="cls-1" points="540.84 255.08 552.33 253.38 543.78 248.44 540.84 255.08"/><path class="cls-1" d="M158.65,428.81a22.09,22.09,0,0,1-10.77-2.72L2.54,341.46a5.1,5.1,0,0,1,0-8.83L222.73,204.2l2-1.2a13.62,13.62,0,0,1,13.82-.07L383.5,287.08c3.24,1.87,5.1,4.46,5.1,7.1,0,2.29-1.36,4.34-3.83,5.77l-59,35.49-1.58-2.63,59-35.5c1.07-.62,2.32-1.65,2.32-3.13S384.2,291,382,289.73L237,205.58a10.54,10.54,0,0,0-10.71.06l-2,1.19L4.09,335.28a2,2,0,0,0-1,1.77,2,2,0,0,0,1,1.76l145.34,84.63c4.72,2.73,12.13,3.06,16.17.73l47.46-26.71,1.51,2.67-47.45,26.7A17.15,17.15,0,0,1,158.65,428.81Z"/><path class="cls-1" d="M115.06,220.13H112v-77.2a14.46,14.46,0,0,1,6.63-11.49L211.33,80l0,3.51L120.15,134.1a11.46,11.46,0,0,0-5.09,8.83Z"/><path class="cls-1" d="M562.26,30.26h-3.07V5a2.1,2.1,0,0,0-.68-1.85,2.13,2.13,0,0,0-2,.33L527.65,20.14l-.12-3.63L555,.86a5,5,0,0,1,5-.33A5,5,0,0,1,562.26,5Z"/><path class="cls-1" d="M558.89,42.5a4,4,0,0,1-2.08-.58,4.73,4.73,0,0,1-2-4.19,10.1,10.1,0,0,1,5.11-8.42,4.49,4.49,0,0,1,4.45,0,4.72,4.72,0,0,1,2,4.19,10.12,10.12,0,0,1-5.11,8.42A5.39,5.39,0,0,1,558.89,42.5Zm3.38-10.73a2.27,2.27,0,0,0-1,.28,7,7,0,0,0-3.42,5.68,1.86,1.86,0,0,0,.57,1.59,1.61,1.61,0,0,0,1.48-.17,7,7,0,0,0,3.42-5.68,1.86,1.86,0,0,0-.58-1.59A.84.84,0,0,0,562.27,31.77Z"/><path class="cls-1" d="M523.31,22.24l-4.64,2.68V21.86l4.64-2.68ZM513.36,28l-4.64,2.68V27.61l4.64-2.69Zm-9.95,5.74-4.64,2.68V33.35l4.64-2.68Zm-10,5.75-4.64,2.68V39.09l4.64-2.68Zm-9.95,5.74-4.64,2.68V44.84l4.64-2.68ZM473.56,51l-4.64,2.68V50.58l4.64-2.68Zm-9.95,5.74L459,59.39V56.33l4.64-2.68Zm-9.95,5.75L449,65.14V62.07l4.64-2.68Zm-10,5.74-4.64,2.68V67.82l4.64-2.68ZM433.76,74l-4.64,2.68V73.56l4.64-2.68Zm-9.95,5.74-4.64,2.68V79.31l4.64-2.68Zm-9.95,5.74-4.64,2.69V85.05l4.64-2.68Z"/><rect class="cls-1" x="215.68" y="364.98" width="107.28" height="3.06" transform="translate(-147.87 185.37) rotate(-30.22)"/><polygon class="cls-1" points="223.66 401.85 228.31 404.53 230.96 403 226.32 400.32 223.66 401.85"/><polygon class="cls-1" points="253.51 419.08 258.16 421.77 260.81 420.23 256.17 417.55 253.51 419.08"/><polygon class="cls-1" points="233.61 407.6 238.26 410.28 240.91 408.75 236.27 406.06 233.61 407.6"/><polygon class="cls-1" points="243.56 413.34 248.21 416.02 250.86 414.49 246.22 411.81 243.56 413.34"/><rect class="cls-1" x="359.09" y="321.6" width="3.06" height="82.99" transform="translate(-139 473.81) rotate(-57.69)"/><path class="cls-1" d="M218.9,400.72a9.9,9.9,0,0,1-4.84-1.17,4,4,0,0,1,0-7.36,10.54,10.54,0,0,1,9.68,0,4,4,0,0,1,0,7.36h0A9.88,9.88,0,0,1,218.9,400.72Zm0-6.64a6.83,6.83,0,0,0-3.31.76c-.56.32-.92.73-.92,1s.36.7.92,1a7.54,7.54,0,0,0,6.62,0h0c.56-.32.92-.72.92-1s-.36-.71-.92-1A6.8,6.8,0,0,0,218.9,394.08Z"/><path class="cls-1" d="M321.57,342.13a9.8,9.8,0,0,1-4.84-1.18,4,4,0,0,1,0-7.36,10.6,10.6,0,0,1,9.68,0,4,4,0,0,1,0,7.36A9.77,9.77,0,0,1,321.57,342.13Zm0-6.65a6.86,6.86,0,0,0-3.31.77c-.56.32-.92.72-.92,1s.36.71.92,1a7.54,7.54,0,0,0,6.62,0c.56-.32.92-.73.92-1s-.36-.7-.92-1A6.8,6.8,0,0,0,321.57,335.48Z"/><g class="cls-2"><path class="cls-1" d="M241.3,435l23.62,13.64c2.49,1.44,2.49,3.77,0,5.21h0a9.74,9.74,0,0,1-5.05,1.06,16.11,16.11,0,0,0-8.38,1.84c-4.57,2.64-4.26,7,.93,9.43a17.77,17.77,0,0,0,13.35.13c3.13-1.36,4.59-3.41,4.41-5.42a3.1,3.1,0,0,1,1.83-2.95h0a10,10,0,0,1,9,0l2.39,1.38,21.28,12.29,24.13-13.87c2.49-1.43,2.49-3.76,0-5.2h0a9.91,9.91,0,0,0-5.1-1.06c-3.48.11-7-.74-9.39-2.55-2.94-2.26-2.84-5.49.22-7.7,4.16-3,11.77-3.18,16.34-.54,2.3,1.33,3.36,3.1,3.19,4.84a3.07,3.07,0,0,0,1.83,2.91h0a9.94,9.94,0,0,0,9,0l24-13.93-63.4-36.67-24.08,14c-2.49,1.43-2.49,3.76,0,5.2h0a9.64,9.64,0,0,0,5,1.06,16.11,16.11,0,0,1,8.38,1.84c4.57,2.64,4.26,7-.93,9.43a17.77,17.77,0,0,1-13.35.13c-3.13-1.36-4.59-3.41-4.41-5.42a3.12,3.12,0,0,0-1.84-2.95,10,10,0,0,0-9,0Z"/></g><path class="cls-3" d="M547.26,439.44l-157.1-90.7c-4.7-2.72-4.11-7.46,1.32-10.59l323-189.07c5.43-3.13,13.65-3.47,18.35-.76L890,239c4.7,2.72,4.11,7.46-1.32,10.6l-323,189.06C560.18,441.82,552,442.16,547.26,439.44Z"/><path class="cls-4" d="M809.81,212.48l-30.76-17.76c-.79-.46-.69-1.26.22-1.78h0a3.4,3.4,0,0,1,3.08-.13l30.77,17.76c.79.46.69,1.26-.22,1.78h0A3.42,3.42,0,0,1,809.81,212.48Z"/><path class="cls-4" d="M494.36,394.93l-27.11-15.65c-.89-.51-.77-1.41.25-2l9.28-5.35a3.84,3.84,0,0,1,3.47-.14l27.11,15.65c.89.51.78,1.41-.25,2l-9.27,5.36A3.87,3.87,0,0,1,494.36,394.93Z"/><path class="cls-5" d="M888.66,246.36l-323,189.06c-5.43,3.14-13.65,3.48-18.35.76l-157.1-90.7a6.4,6.4,0,0,1-2.85-3c-.86,2.28.05,4.62,2.85,6.24l157.1,90.7c4.7,2.72,12.92,2.38,18.35-.76l323-189.06c3.75-2.17,5.19-5.11,4.17-7.61A9.12,9.12,0,0,1,888.66,246.36Z"/><path class="cls-6" d="M467.25,379.28l.05,0a1.63,1.63,0,0,1,.2-.17l9.28-5.36a3.84,3.84,0,0,1,3.47-.14l27.07,15.62c.79-.58.85-1.36,0-1.83l-27.11-15.65a3.84,3.84,0,0,0-3.47.14l-9.28,5.35C466.48,377.87,466.36,378.77,467.25,379.28Z"/><path class="cls-7" d="M778.93,194.61a1.64,1.64,0,0,1,.34-.28,3.46,3.46,0,0,1,3.08-.13L813.12,212c.06,0,.07.07.12.11a.85.85,0,0,0-.12-1.51l-30.77-17.76a3.4,3.4,0,0,0-3.08.13C778.42,193.43,778.31,194.14,778.93,194.61Z"/><path class="cls-8" d="M547.26,439.45a13.53,13.53,0,0,0,3.62,1.36v15.52a12.91,12.91,0,0,1-3.62-1.38l-157.1-90.7c-2.17-1.24-3.2-2.94-3.16-4.7h0V344h0c-.06,1.8.95,3.51,3.16,4.8Z"/><path class="cls-8" d="M888.66,265.14l-323,189.06a19.32,19.32,0,0,1-5.43,2.05V440.73a19.32,19.32,0,0,0,5.43-2.05l323-189.06c2.69-1.55,4.19-3.52,4.44-5.42v14.47C893.35,260.88,891.86,263.28,888.66,265.14Z"/><path class="cls-3" d="M560.18,440.73v15.52a22.12,22.12,0,0,1-9.3.08V440.81A21.79,21.79,0,0,0,560.18,440.73Z"/><polygon class="cls-4" points="591 419.88 421.78 321.95 691.28 166.35 858.86 263.21 591 419.88"/><path class="cls-9" d="M691.2,164.85l-272,157.06,171,99L860.6,262.75Zm-101,254-167.55-97,268.54-155,165.91,95.89Z"/><polygon class="cls-10" points="675.79 351.27 538.12 271.78 603.3 234.14 740.98 313.63 675.79 351.27"/><path class="cls-10" d="M818.6,253.43l8.59,5c1.45.84,1.27,2.3-.41,3.27h0a6.32,6.32,0,0,1-5.68.24l-8.59-5c-1.45-.84-1.27-2.31.41-3.28h0A6.32,6.32,0,0,1,818.6,253.43Z"/><polygon class="cls-10" points="696.85 181.71 713.53 191.34 706.21 195.56 689.53 185.94 696.85 181.71"/><polygon class="cls-4" points="704.23 187.56 710.53 191.2 705.98 193.82 699.68 190.19 704.23 187.56"/><path class="cls-10" d="M792.74,245.5l-.84-.48c-1.5-.87-1.31-2.37.42-3.37h0a6.45,6.45,0,0,1,5.83-.24l.84.48c1.49.86,1.31,2.37-.42,3.37h0A6.48,6.48,0,0,1,792.74,245.5Z"/><path class="cls-10" d="M803.13,251.5l-.84-.48c-1.49-.86-1.31-2.37.42-3.37h0a6.47,6.47,0,0,1,5.84-.24l.83.48c1.5.87,1.31,2.37-.42,3.37h0A6.44,6.44,0,0,1,803.13,251.5Z"/><path class="cls-11" d="M502.8,356.75l-.67-.39c-1.2-.69-1.05-1.9.34-2.71h0a5.23,5.23,0,0,1,4.69-.19l.67.39c1.2.69,1.05,1.9-.34,2.71h0A5.23,5.23,0,0,1,502.8,356.75Z"/><path class="cls-10" d="M516.05,364.4l-.68-.39c-1.2-.7-1-1.91.34-2.71h0a5.2,5.2,0,0,1,4.69-.19l.67.38c1.2.7,1,1.91-.33,2.71h0A5.23,5.23,0,0,1,516.05,364.4Z"/><path class="cls-10" d="M529.29,372l-.67-.39c-1.21-.69-1-1.9.33-2.7h0a5.2,5.2,0,0,1,4.69-.2l.68.39c1.2.69,1,1.91-.34,2.71h0A5.2,5.2,0,0,1,529.29,372Z"/><polygon class="cls-10" points="676.67 350.74 539 271.26 678.02 191.91 815.69 271.39 676.67 350.74"/><polygon class="cls-12" points="564.94 267.91 564.14 267.45 616.32 237.32 617.12 237.78 564.94 267.91"/><polygon class="cls-12" points="618.54 236.5 614.79 236.91 617.84 238.67 618.54 236.5"/><polygon class="cls-12" points="563.73 267.71 564.53 267.25 685.06 336.84 684.26 337.3 563.73 267.71"/><polygon class="cls-12" points="686.49 338.12 685.78 335.95 682.74 337.71 686.49 338.12"/><polygon class="cls-10" points="600.69 394.62 463.02 315.14 528.21 277.5 665.88 356.99 600.69 394.62"/><polygon class="cls-13" points="508.23 313.93 507.65 313.59 549.34 289.52 549.92 289.86 508.23 313.93"/><polygon class="cls-13" points="509.01 341.69 508.43 341.36 573.77 303.63 574.35 303.96 509.01 341.69"/><polygon class="cls-13" points="533.44 355.8 532.86 355.46 598.2 317.74 598.78 318.07 533.44 355.8"/><polygon class="cls-13" points="557.87 369.9 557.29 369.57 622.64 331.84 623.22 332.18 557.87 369.9"/><polygon class="cls-13" points="582.31 384.01 581.72 383.67 647.07 345.95 647.65 346.28 582.31 384.01"/><path class="cls-12" d="M478.82,306.35c0,12.91,20.55,2.18,30.25,7.78,10.61,6.13-1.17,10.91,8.14,16.29s45-11.95,56.28-5.46c9.21,5.32-12.89,14.34-2.76,19.23,7.12,3.44-4.51,11,1,14.19s18.17-.93,28.21-5.38c8.7-3.85,22.25-4.45,22.25.93s-8.53,10.13-2.57,13.57,11.15,1.79,14.2,3.56,0,4.53,0,4.53l-33.06,19.09L463,315.14S478.82,305.9,478.82,306.35Z"/><polygon class="cls-13" points="484.38 327.7 483.8 327.36 484.67 326.86 485.25 327.19 484.38 327.7"/><path class="cls-13" d="M487,326.19l-.59-.33,1.73-1,.59.34Zm3.46-2-.59-.34,1.73-1,.59.34Zm3.46-2-.59-.34,1.74-1,.58.34Zm3.46-2-.59-.33,1.74-1,.58.33Zm3.46-2-.58-.33,1.73-1,.58.33Zm3.46-2-.58-.34,1.73-1,.58.34Z"/><polygon class="cls-13" points="507.75 314.21 507.17 313.87 508.04 313.37 508.62 313.7 507.75 314.21"/><polygon class="cls-13" points="508.81 341.8 508.23 341.47 509.11 340.96 509.69 341.3 508.81 341.8"/><path class="cls-13" d="M511.42,340.3l-.58-.34,1.73-1,.58.33Zm3.46-2-.58-.33,1.73-1,.58.33Zm3.46-2-.58-.33,1.73-1,.58.34Zm3.46-2-.58-.34,1.73-1,.58.34Zm3.46-2-.58-.34,1.73-1,.58.34Zm3.46-2-.58-.33,1.73-1,.58.33Z"/><polygon class="cls-13" points="532.18 328.31 531.6 327.98 532.47 327.47 533.05 327.81 532.18 328.31"/><polygon class="cls-13" points="533.25 355.91 532.66 355.57 533.54 355.07 534.12 355.4 533.25 355.91"/><path class="cls-13" d="M535.9,354.38l-.58-.34,1.78-1,.58.33Zm3.56-2.06-.59-.33,1.78-1,.59.34Zm3.55-2.05-.58-.34,1.78-1,.58.33Zm3.56-2-.58-.34,1.78-1,.58.34Zm3.56-2.06-.58-.33,1.78-1,.58.34Zm3.56-2.05-.58-.34,1.77-1,.59.33Zm3.55-2.06-.58-.33,1.78-1,.58.34ZM560.8,340l-.58-.34,1.78-1,.58.33Zm3.56-2.05-.58-.34,1.78-1,.58.34Zm3.56-2.06-.58-.33,1.77-1,.59.33Zm3.56-2.05-.59-.34,1.78-1,.58.33Z"/><polygon class="cls-13" points="575.03 331.78 574.45 331.45 575.32 330.94 575.9 331.28 575.03 331.78"/><polygon class="cls-13" points="557.68 370.01 557.1 369.68 557.97 369.18 558.55 369.51 557.68 370.01"/><path class="cls-13" d="M560.28,368.51l-.58-.33,1.73-1,.58.33Zm3.46-2-.58-.33,1.73-1,.58.34Zm3.46-2-.58-.34,1.73-1,.58.34Zm3.46-2-.58-.34,1.73-1,.58.34Zm3.46-2-.58-.34,1.73-1,.58.33Zm3.46-2-.58-.33,1.73-1,.58.33Z"/><polygon class="cls-13" points="581.04 356.52 580.46 356.19 581.34 355.69 581.92 356.02 581.04 356.52"/><polygon class="cls-13" points="582.11 384.12 581.53 383.79 582.4 383.28 582.98 383.62 582.11 384.12"/><path class="cls-13" d="M584.73,382.61l-.58-.34,1.74-1,.58.33Zm3.49-2-.58-.33,1.74-1,.58.34Zm3.49-2-.58-.34,1.74-1,.58.33Zm3.49-2-.58-.33,1.74-1,.58.34Zm3.49-2-.58-.34,1.74-1,.58.33Zm3.49-2-.58-.33,1.74-1,.58.34Zm3.49-2-.58-.34,1.74-1,.58.33Zm3.49-2-.58-.33,1.74-1,.58.34Zm3.49-2-.58-.34,1.74-1,.59.33Zm3.49-2-.58-.33,1.74-1,.59.34Z"/><polygon class="cls-13" points="619.63 362.46 619.05 362.12 619.92 361.62 620.5 361.95 619.63 362.46"/><path class="cls-14" d="M738.12,281.28c6.65-8,7.27-17.33,1.82-25.6l-52.65,11.59Z"/><path class="cls-15" d="M682.42,312.53A103.13,103.13,0,0,1,649.23,307c-19.41-6.71-32.4-19-35.63-33.63-2.62-11.88,1.39-23.73,11.31-33.3,12.7-12.25,34.26-19.59,57.67-19.59a103.07,103.07,0,0,1,33.24,5.34,68.45,68.45,0,0,1,21.26,11.52l18.57,15.27L709,268.26l43,18.89-22.15,13.4c-12.75,7.62-29.59,12-47.42,12Z"/><path class="cls-16" d="M728.63,247.64a55.22,55.22,0,0,0-17.15-9.23c-26.72-9.23-61.34-4.21-77.33,11.22s-7.29,35.41,19.43,44.64c22.93,7.92,51.63,5.32,69.43-5.31l-51-22.38Z"/><polygon class="cls-16" points="728.63 247.64 728.63 234.24 704.4 234.24 704.4 249.11 728.63 247.64"/><rect class="cls-16" x="626.14" y="251.01" width="13.11" height="17.1"/><rect class="cls-14" x="721.81" y="219.36" width="21.81" height="49.09"/><polygon class="cls-16" points="723.01 275.56 723.01 288.96 697.94 288.96 697.94 274.57 723.01 275.56"/><path class="cls-12" d="M728.63,234.24A55.43,55.43,0,0,0,711.48,225c-26.72-9.23-61.34-4.21-77.33,11.22s-7.29,35.41,19.43,44.64c22.93,7.92,51.63,5.33,69.43-5.31l-51-22.37Z"/><polygon class="cls-17" points="687.29 236.66 687.29 259.94 723.13 275.52 726.26 272.44 728.4 239.03 687.29 236.66"/><path class="cls-18" d="M653.87,279.31c-19-6.58-28.91-18.61-27.25-30.57-2.8,12.46,7.1,25.27,27,32.13,22.93,7.92,51.63,5.33,69.43-5.31l-1.43-.62C703.7,284.76,676.08,287,653.87,279.31Z"/><path class="cls-18" d="M670.27,252.36l1.9.83,56.46-18.95c-.43-.35-.87-.69-1.32-1Z"/><path class="cls-19" d="M738.12,233.06c6.65-8.05,7.27-17.32,1.82-25.6l-52.65,11.59Z"/><path class="cls-17" d="M738.12,281.28c0-.58,0-48.39,0-48.39l-50.83-14v41.06L723,275.62V277Z"/><path class="cls-20" d="M743.13,214.83c.79,5.67-1,11.42-5.29,16.66l-47.55-13.1-3,.66,50.83,14C742.85,227.34,744.51,221,743.13,214.83Z"/><polygon class="cls-1" points="419.04 204.72 415.88 202.89 461.88 175.67 463.45 178.31 419.04 204.72"/><polygon class="cls-1" points="367.81 232.96 370.46 234.49 375.11 231.81 372.45 230.28 367.81 232.96"/><polygon class="cls-1" points="382.4 224.54 377.76 227.22 380.42 228.75 385.06 226.07 382.4 224.54"/><polygon class="cls-1" points="347.91 244.45 350.57 245.98 355.21 243.3 352.56 241.77 347.91 244.45"/><polygon class="cls-1" points="357.86 238.71 360.51 240.24 365.16 237.56 362.5 236.03 357.86 238.71"/><polygon class="cls-1" points="337.96 250.19 340.62 251.73 345.26 249.05 342.61 247.51 337.96 250.19"/><polygon class="cls-1" points="328.01 255.94 330.67 257.47 335.31 254.79 332.66 253.26 328.01 255.94"/><polygon class="cls-1" points="479.69 224.95 517.82 219.29 489.47 202.93 479.69 224.95"/><polygon class="cls-1" points="355.38 137.22 360.03 139.9 362.68 138.37 358.04 135.69 355.38 137.22"/><polygon class="cls-1" points="345.43 131.47 350.08 134.15 352.73 132.62 348.09 129.94 345.43 131.47"/><polygon class="cls-1" points="365.33 142.96 369.98 145.64 372.63 144.11 367.99 141.43 365.33 142.96"/><polygon class="cls-1" points="375.28 148.71 379.93 151.39 382.58 149.85 377.94 147.17 375.28 148.71"/><path class="cls-1" d="M569.24,190.89a9.9,9.9,0,0,1-4.84-1.17,4,4,0,0,1,0-7.36,10.54,10.54,0,0,1,9.68,0,4,4,0,0,1,0,7.36A9.85,9.85,0,0,1,569.24,190.89Zm0-6.64a6.85,6.85,0,0,0-3.31.76c-.56.33-.92.73-.92,1s.36.7.92,1a7.54,7.54,0,0,0,6.62,0c.56-.32.92-.72.92-1s-.36-.7-.92-1A6.8,6.8,0,0,0,569.24,184.25Z"/><path class="cls-1" d="M465.81,179a9.9,9.9,0,0,1-4.84-1.17,4,4,0,0,1,0-7.36,10.54,10.54,0,0,1,9.68,0,4,4,0,0,1,0,7.36h0A9.88,9.88,0,0,1,465.81,179Zm0-6.64a6.83,6.83,0,0,0-3.31.76c-.56.32-.92.73-.92,1s.36.7.92,1a7.54,7.54,0,0,0,6.62,0c.56-.32.92-.72.92-1s-.36-.71-.92-1A6.8,6.8,0,0,0,465.81,172.39Z"/><path class="cls-1" d="M528.13,209.46a10.48,10.48,0,0,1-5.31-1.43l-52.47-30.5,1.53-2.65,52.48,30.5a7.51,7.51,0,0,0,7.57,0L563,186.59l1.58,2.62L533.5,208A10.55,10.55,0,0,1,528.13,209.46Z"/><path class="cls-1" d="M573.57,184.4l-1.6-2.62,11.58-7.1a2.8,2.8,0,0,0,0-4.86L459.14,97.5a8,8,0,0,0-8,0l-53,31.5a1.73,1.73,0,0,0,0,3l64.67,37.59-1.54,2.65L396.6,134.67a4.8,4.8,0,0,1,0-8.28l53-31.51a11,11,0,0,1,11.09,0L585.1,167.18a5.85,5.85,0,0,1,0,10.12Z"/><g class="cls-2"><path class="cls-1" d="M269,95.27l23.69-13.68c2.5-1.44,2.5-3.78,0-5.22h0a9.78,9.78,0,0,0-5.06-1.07,16.13,16.13,0,0,1-8.41-1.84c-4.58-2.65-4.27-7,.94-9.46a17.85,17.85,0,0,1,13.38-.13c3.14,1.36,4.61,3.42,4.42,5.44a3.12,3.12,0,0,0,1.85,3h0a10,10,0,0,0,9,0l2.41-1.38,21.34-12.32,24.19,13.9c2.5,1.44,2.5,3.78,0,5.22h0a10,10,0,0,1-5.11,1.07c-3.5-.11-7.06.73-9.42,2.55-2.95,2.27-2.85,5.51.22,7.72,4.18,3,11.8,3.19,16.39.55,2.31-1.34,3.37-3.11,3.19-4.86a3.1,3.1,0,0,1,1.84-2.92h0a10,10,0,0,1,9,0l24.08,14-63.58,36.78-24.14-14c-2.5-1.44-2.5-3.78,0-5.22h0a9.68,9.68,0,0,1,5.06-1.06,16.23,16.23,0,0,0,8.41-1.85c4.58-2.65,4.27-7.05-.94-9.46a17.8,17.8,0,0,0-13.38-.12c-3.14,1.36-4.61,3.41-4.42,5.43a3.12,3.12,0,0,1-1.85,3,9.94,9.94,0,0,1-9,0Z"/></g><g class="cls-2"><path class="cls-1" d="M185.56,365.75a3,3,0,0,1-2.34-1.39l-17.76-25.29a10.58,10.58,0,0,0-3.23-3.1l-48-27.8a8.11,8.11,0,0,1-3.78-6.55V242.83a2.43,2.43,0,0,1,3.8-2.2l71.2,41.16a4.88,4.88,0,0,1,2.27,3.93v77.75a2.18,2.18,0,0,1-1.47,2.18A2.37,2.37,0,0,1,185.56,365.75Z"/><polygon class="cls-21" points="174.86 292.8 120.66 261.05 120.66 258.01 174.86 289.75 174.86 292.8"/><polygon class="cls-21" points="133.96 278.2 120.66 270.46 120.66 267.42 133.96 275.16 133.96 278.2"/><polygon class="cls-21" points="163.15 295.45 140.22 281.82 140.22 278.78 163.15 292.41 163.15 295.45"/><polygon class="cls-21" points="174.86 311.62 120.66 279.88 120.66 276.83 174.86 308.58 174.86 311.62"/><polygon class="cls-21" points="147.94 305.49 120.66 289.29 120.66 286.25 147.94 302.45 147.94 305.49"/><polygon class="cls-21" points="162.01 313.62 153.2 308.54 153.2 305.49 162.01 310.58 162.01 313.62"/><polygon class="cls-21" points="149.17 315.23 120.66 298.7 120.66 295.66 149.17 312.19 149.17 315.23"/></g><g class="cls-2"><path class="cls-1" d="M247.86,281.49a3.51,3.51,0,0,1-1.76-.51l-42.49-24.53a2.3,2.3,0,0,0-1.58-.4l-13.11,3.54a2.17,2.17,0,0,1-1.9-.44,3.21,3.21,0,0,1-1.26-2.47V199.3a2.2,2.2,0,0,1,3.41-2l59.57,34.39a4,4,0,0,1,1.88,3.26v43.39a3.06,3.06,0,0,1-1.42,2.76A2.61,2.61,0,0,1,247.86,281.49ZM202.31,253a5.73,5.73,0,0,1,2.83.83l42.42,24.49V235a1.05,1.05,0,0,0-.35-.61l-58.38-33.7v55.77l12.41-3.34A3.79,3.79,0,0,1,202.31,253Z"/></g><polygon class="cls-22" points="165.25 202.07 160.98 191.26 156.71 197.14 159.78 198.91 159.78 250.63 162.19 252.02 162.19 200.3 165.25 202.07"/><polygon class="cls-22" points="228.17 304.19 223.9 293.38 219.63 299.25 222.7 301.02 222.7 378.53 225.11 379.92 225.11 302.42 228.17 304.19"/><path class="cls-1" d="M687.8,112.22h-3.06V86.84a4.42,4.42,0,0,1,7.08-4.09l31.39,18.13,0,3.51-32.94-19a1.46,1.46,0,0,0-2.49,1.44Z"/><path class="cls-1" d="M837,170l-4.64-2.69V164.2l4.64,2.68Zm-10-5.75-4.64-2.68v-3.06l4.64,2.68Zm-10-5.74-4.64-2.68v-3.07l4.64,2.68Zm-9.95-5.75L802.47,150V147l4.64,2.68Zm-10-5.74-4.64-2.68v-3.07l4.64,2.68Zm-9.95-5.75-4.64-2.68v-3.06l4.64,2.68Zm-10-5.74-4.64-2.68v-3.07l4.64,2.68Zm-10-5.75-4.64-2.68V124l4.64,2.68ZM757.36,124l-4.64-2.68v-3.07l4.64,2.68Zm-10-5.75-4.64-2.68V112.5l4.64,2.68Zm-9.95-5.74-4.64-2.68v-3.07l4.64,2.69Z"/><path class="cls-1" d="M688.11,124.46a5.38,5.38,0,0,1-2.39-.6,10.15,10.15,0,0,1-5.11-8.43,4.73,4.73,0,0,1,2-4.19,4.52,4.52,0,0,1,4.45,0,10.1,10.1,0,0,1,5.11,8.43,4.73,4.73,0,0,1-2,4.19A3.93,3.93,0,0,1,688.11,124.46Zm-3.39-10.73a.84.84,0,0,0-.47.12,1.84,1.84,0,0,0-.57,1.58,7,7,0,0,0,3.41,5.69,1.63,1.63,0,0,0,1.48.16,1.84,1.84,0,0,0,.57-1.58,7,7,0,0,0-3.42-5.69A2.27,2.27,0,0,0,684.72,113.73Z"/><polygon class="cls-1" points="393.09 147.94 395.74 149.47 400.38 146.79 397.73 145.26 393.09 147.94"/><polygon class="cls-1" points="407.68 139.52 403.04 142.2 405.69 143.73 410.33 141.05 407.68 139.52"/><polygon class="cls-1" points="383.14 153.69 385.79 155.22 390.44 152.54 387.78 151 383.14 153.69"/><g class="cls-23"><path class="cls-1" d="M221.58,92.84l11.49,7q2.81,1.71,2.49,3.37t-3.66,3.38a12.54,12.54,0,0,1-4.33,1.41,11.07,11.07,0,0,1-3.77-.12,2.81,2.81,0,0,1,.57,1.13,2,2,0,0,1-.18,1.34,5.24,5.24,0,0,1-1.2,1.5,11.19,11.19,0,0,1-2.36,1.56,15.23,15.23,0,0,1-6.62,1.94,10.43,10.43,0,0,1-5.82-1.64l-12.35-7.52Zm-5,16.85c1.47-.76,1.64-1.49.49-2.19L211.3,104l-5.14,2.67,5.74,3.5a3.79,3.79,0,0,0,3.93-.1Zm9.44-5.86q2.2-1.15.48-2.2l-4.88-3-5.15,2.67,4.88,3a3.81,3.81,0,0,0,3.93-.09Z"/><path class="cls-1" d="M242,105.26,254,112.61c2,1.22,2.88,2.42,2.63,3.57s-1.67,2.41-4.25,3.74l-3.31,1.72a18.4,18.4,0,0,1-5.53,2,9.86,9.86,0,0,1-4.75-.37l-4.51,6.38-5.6-3.41,4.43-6-4-2.45-7.73,4-5.17-3.15Zm5.28,11.51q2.2-1.14.48-2.19l-5.74-3.5-7.73,4,5.75,3.5a3.81,3.81,0,0,0,3.93-.1Z"/><path class="cls-1" d="M246.37,137,236,130.68l5.14-2.67,2.59,1.58,15.44-8L256.63,120l5.15-2.67,10.33,6.3L267,126.3l-2.59-1.57-15.44,8,2.58,1.57Z"/><path class="cls-1" d="M254.12,141.71,249,138.56l25.74-13.35,5.17,3.15-10.12,5.24,2.59,1.58,14.59-2.52,5.46,3.33-18.32,3.15-7.46,10.18L261.16,146l6-8.14-2.58-1.58Z"/><path class="cls-1" d="M292.87,157.44a16.37,16.37,0,0,1-7,2.07,11.07,11.07,0,0,1-6.13-1.76l-7.18-4.37q-3-1.84-2.63-3.58c.26-1.16,1.67-2.4,4.24-3.74L286,140a16.26,16.26,0,0,1,7-2.08,11.15,11.15,0,0,1,6.13,1.76l7.18,4.38c2,1.22,2.89,2.42,2.63,3.57s-1.67,2.41-4.24,3.74Zm6.6-9.26q2.2-1.14.48-2.19l-4.88-3a3.81,3.81,0,0,0-3.93.1l-11.77,6.1q-2.21,1.15-.48,2.2l4.88,3a3.81,3.81,0,0,0,3.93-.09Z"/><path class="cls-1" d="M328.93,171.12l-13.21,2.32-4-2.45,5.18-7.22-14.35,7.44-5.16-3.15,25.74-13.35,5.45,3.32-7.86,10.56L340.05,165l5.45,3.33-25.74,13.35-5.17-3.15Z"/><path class="cls-1" d="M348.28,191.21a16.33,16.33,0,0,1-7,2.07,11.1,11.1,0,0,1-6.13-1.76L328,187.15q-3-1.85-2.64-3.58c.26-1.16,1.68-2.4,4.25-3.74l11.77-6.1a16.22,16.22,0,0,1,7-2.08,11.15,11.15,0,0,1,6.12,1.76l7.18,4.38q3,1.83,2.63,3.57c-.25,1.16-1.67,2.41-4.24,3.74Zm6.6-9.26q2.21-1.14.49-2.19l-4.89-3a3.79,3.79,0,0,0-3.92.1L334.79,183c-1.47.76-1.63,1.5-.49,2.2l4.89,3a3.79,3.79,0,0,0,3.92-.09Z"/><path class="cls-1" d="M369.91,183.23l11.48,7q2.82,1.71,2.5,3.37T380.23,197a12.61,12.61,0,0,1-4.33,1.41,11.06,11.06,0,0,1-3.77-.12,2.79,2.79,0,0,1,.56,1.13,1.9,1.9,0,0,1-.18,1.34,5,5,0,0,1-1.19,1.5A11.19,11.19,0,0,1,369,203.8a15.4,15.4,0,0,1-6.62,1.95,10.58,10.58,0,0,1-5.83-1.65l-12.34-7.52Zm-5,16.85q2.21-1.14.48-2.19l-5.74-3.5-5.15,2.67,5.75,3.5a3.77,3.77,0,0,0,3.92-.1Zm9.44-5.86q2.21-1.16.48-2.2l-4.88-3-5.15,2.67,4.88,3a3.81,3.81,0,0,0,3.93-.09Z"/><path class="cls-1" d="M374,214.78l-10.34-6.3,5.15-2.67,2.58,1.57,15.45-8-2.59-1.57,5.15-2.67,10.34,6.3-5.15,2.67L392,202.52l-15.45,8,2.59,1.58Z"/><path class="cls-1" d="M386.93,216.83l10.48,6.39-5.15,2.67-15.65-9.54L402.35,203l5.17,3.15Z"/><path class="cls-1" d="M410.2,236.82l-15.93-9.71L420,213.76,436,223.47l-5.15,2.67L420,219.58l-5,2.58,8.47,5.16L418.39,230l-8.47-5.16-5.33,2.76,10.76,6.56Z"/><path class="cls-1" d="M424.7,245.66l-5.6-3.41,33.36-8.72,5.74,3.5-18.14,18-5.59-3.41,3.3-3.17-7.18-4.38Zm12-3.29,4.59,2.8,6.34-5.88Z"/><path class="cls-1" d="M467.24,242.54l12.06,7.35q3,1.85,2.63,3.58c-.25,1.15-1.67,2.4-4.24,3.74l-3.68,1.9a16.22,16.22,0,0,1-7,2.08,11.18,11.18,0,0,1-6.13-1.76l-6.89-4.2L446.67,259l-5.17-3.15Zm5.28,11.52q2.21-1.16.48-2.2l-5.74-3.5-8.09,4.2,5.74,3.5a3.79,3.79,0,0,0,3.93-.1Z"/><path class="cls-1" d="M487.63,255l12.06,7.35c2,1.22,2.88,2.41,2.63,3.57s-1.67,2.4-4.25,3.74l-3.67,1.91a16.37,16.37,0,0,1-7,2.07,11.06,11.06,0,0,1-6.12-1.76l-6.89-4.2-7.36,3.82-5.16-3.15Zm5.28,11.51c1.47-.76,1.63-1.5.48-2.19l-5.74-3.5L479.56,265l5.74,3.5a3.81,3.81,0,0,0,3.93-.09Z"/></g></g></g></svg>