<?xml version="1.0" encoding="UTF-8"?>
<svg width="87px" height="19px" viewBox="0 0 87 19" version="1.1" xmlns="http://www.w3.org/2000/svg" xmlns:xlink="http://www.w3.org/1999/xlink">
    <!-- Generator: Sketch 51.3 (57544) - http://www.bohemiancoding.com/sketch -->
    <title>GBI.news@1x</title>
    <desc>Created with Sketch.</desc>
    <defs></defs>
    <g id="Symbols" stroke="none" stroke-width="1" fill="none" fill-rule="evenodd">
        <g id="footer" transform="translate(-107.000000, -67.000000)" fill="#4E4E4E">
            <g id="Group-4">
                <g transform="translate(103.000000, 6.000000)">
                    <path d="M11.15625,72.2617188 L11.15625,70.2460938 L17.1210938,70.234375 L17.1210938,76.609375 C16.2070267,77.5000045 15.2617236,78.1699196 14.2851562,78.6191406 C13.3085889,79.0683616 12.3046927,79.2929688 11.2734375,79.2929688 C9.89843062,79.2929688 8.67188039,78.9492222 7.59375,78.2617188 C6.51561961,77.5742153 5.66211252,76.5703191 5.03320312,75.25 C4.40429373,73.9296809 4.08984375,72.3437593 4.08984375,70.4921875 C4.08984375,68.6171781 4.40624684,66.984382 5.0390625,65.59375 C5.67187816,64.203118 6.49999488,63.1777377 7.5234375,62.5175781 C8.54688012,61.8574186 9.75780551,61.5273438 11.15625,61.5273438 C12.1875052,61.5273438 13.0898399,61.7187481 13.8632812,62.1015625 C14.6367226,62.4843769 15.273435,63.0273402 15.7734375,63.7304688 C16.27344,64.4335973 16.6484362,65.3984314 16.8984375,66.625 L15.2226562,67.1875 C14.9960926,66.2187452 14.7109392,65.494143 14.3671875,65.0136719 C14.0234358,64.5332007 13.5703153,64.1562514 13.0078125,63.8828125 C12.4453097,63.6093736 11.8125035,63.4726562 11.109375,63.4726562 C10.0859324,63.4726562 9.20508182,63.7207006 8.46679688,64.2167969 C7.72851193,64.7128931 7.13476787,65.4843698 6.68554688,66.53125 C6.23632588,67.5781302 6.01171875,68.8554612 6.01171875,70.3632812 C6.01171875,72.6601677 6.4921827,74.3808537 7.453125,75.5253906 C8.4140673,76.6699276 9.6640548,77.2421875 11.203125,77.2421875 C11.9375037,77.2421875 12.6894493,77.066408 13.4589844,76.7148438 C14.2285195,76.3632795 14.8398415,75.9453149 15.2929688,75.4609375 L15.2929688,72.2617188 L11.15625,72.2617188 Z M19.7695312,79 L19.7695312,61.8203125 L25.0546875,61.8203125 C26.1250054,61.8203125 26.9726531,61.9863265 27.5976562,62.3183594 C28.2226594,62.6503923 28.734373,63.1679652 29.1328125,63.8710938 C29.531252,64.5742223 29.7304688,65.3515582 29.7304688,66.203125 C29.7304688,66.9921914 29.5585955,67.7031218 29.2148438,68.3359375 C28.871092,68.9687532 28.3867219,69.4765606 27.7617188,69.859375 C28.5820354,70.1562515 29.2285133,70.6621058 29.7011719,71.3769531 C30.1738305,72.0918004 30.4101562,72.972651 30.4101562,74.0195312 C30.4101562,75.0585989 30.1972678,75.9706992 29.7714844,76.7558594 C29.345701,77.5410196 28.7773473,78.1113263 28.0664062,78.4667969 C27.3554652,78.8222674 26.3789125,79 25.1367188,79 L19.7695312,79 Z M21.6328125,69.0390625 L24.6796875,69.0390625 C25.4765665,69.0390625 26.0429671,68.9843755 26.3789062,68.875 C26.8632837,68.7109367 27.2363268,68.4355488 27.4980469,68.0488281 C27.7597669,67.6621074 27.890625,67.1367221 27.890625,66.4726562 C27.890625,65.8554657 27.7714856,65.3417989 27.5332031,64.9316406 C27.2949207,64.5214823 26.9785176,64.238282 26.5839844,64.0820312 C26.1894512,63.9257805 25.4804739,63.8476562 24.4570312,63.8476562 L21.6328125,63.8476562 L21.6328125,69.0390625 Z M21.6328125,76.9726562 L25.1367188,76.9726562 C25.9101601,76.9726562 26.4804669,76.9023445 26.8476562,76.7617188 C27.3789089,76.5585927 27.7832017,76.2246117 28.0605469,75.7597656 C28.337892,75.2949196 28.4765625,74.710941 28.4765625,74.0078125 C28.4765625,73.3593718 28.3437513,72.8105491 28.078125,72.3613281 C27.8124987,71.9121071 27.4550804,71.5839854 27.0058594,71.3769531 C26.5566384,71.1699208 25.8515673,71.0664062 24.890625,71.0664062 L21.6328125,71.0664062 L21.6328125,76.9726562 Z M33.3164062,79 L33.3164062,61.8203125 L35.1796875,61.8203125 L35.1796875,79 L33.3164062,79 Z M38.7304688,79 L38.7304688,76.5976562 L40.6992188,76.5976562 L40.6992188,79 L38.7304688,79 Z M53.0859375,79 L50.3789062,79 L50.3789062,72.6484375 C50.3789062,71.3749936 50.3281255,70.5273459 50.2265625,70.1054688 C50.1249995,69.6835916 49.9355483,69.3593761 49.6582031,69.1328125 C49.380858,68.9062489 49.066408,68.7929688 48.7148438,68.7929688 C48.2617165,68.7929688 47.8515643,68.9394517 47.484375,69.2324219 C47.1171857,69.5253921 46.8593757,69.9296849 46.7109375,70.4453125 C46.5624993,70.9609401 46.4882812,71.9335866 46.4882812,73.3632812 L46.4882812,79 L43.78125,79 L43.78125,66.5546875 L46.2890625,66.5546875 L46.2890625,68.3828125 C46.7343772,67.679684 47.2363253,67.1523455 47.7949219,66.8007812 C48.3535184,66.449217 48.9726529,66.2734375 49.6523438,66.2734375 C50.4414102,66.2734375 51.1074192,66.4785136 51.6503906,66.8886719 C52.1933621,67.2988302 52.5683583,67.8261687 52.7753906,68.4707031 C52.9824229,69.1152376 53.0859375,70.0468689 53.0859375,71.265625 L53.0859375,79 Z M61.7460938,75.0390625 L64.4296875,75.5898438 C64.0703107,76.83985 63.5117225,77.7675751 62.7539062,78.3730469 C61.99609,78.9785187 61.0742242,79.28125 59.9882812,79.28125 C58.4804612,79.28125 57.3164104,78.7773488 56.4960938,77.7695312 C55.5273389,76.5976504 55.0429688,74.9570418 55.0429688,72.8476562 C55.0429688,70.7695209 55.5312451,69.105475 56.5078125,67.8554688 C57.3359416,66.800776 58.4062434,66.2734375 59.71875,66.2734375 C61.1796948,66.2734375 62.3242146,66.8124946 63.1523438,67.890625 C64.1054735,69.1250062 64.5820312,70.9453005 64.5820312,73.3515625 L64.5703125,73.7265625 L57.8085938,73.7265625 C57.8242188,74.7109424 58.0449197,75.4726536 58.4707031,76.0117188 C58.8964865,76.5507839 59.4101532,76.8203125 60.0117188,76.8203125 C60.8789106,76.8203125 61.4570298,76.2265684 61.7460938,75.0390625 Z M61.8984375,71.7109375 C61.8749999,70.7421827 61.6679707,70.0136743 61.2773438,69.5253906 C60.8867168,69.0371069 60.4218777,68.7929688 59.8828125,68.7929688 C59.3124971,68.7929688 58.8320332,69.0468725 58.4414062,69.5546875 C58.0429668,70.0703151 57.8476562,70.7890579 57.8554688,71.7109375 L61.8984375,71.7109375 Z M68.6835938,79 L65.4492188,66.5546875 L68.0742188,66.5546875 L69.984375,74.7109375 L71.7421875,66.5546875 L74.34375,66.5546875 L76.0429688,74.7109375 L78,66.5546875 L80.6601562,66.5546875 L77.3789062,79 L74.7890625,79 L73.03125,70.9960938 L71.296875,79 L68.6835938,79 Z M81.140625,75.4492188 L83.8476562,74.9453125 C84.0820324,76.2500065 84.8085877,76.9023438 86.0273438,76.9023438 C86.6757845,76.9023438 87.1601546,76.777345 87.4804688,76.5273438 C87.8007829,76.2773425 87.9609375,75.953127 87.9609375,75.5546875 C87.9609375,75.2812486 87.8906257,75.066407 87.75,74.9101562 C87.6015618,74.7539055 87.3085959,74.6171881 86.8710938,74.5 C84.6523327,73.9140596 83.2421905,73.3554714 82.640625,72.8242188 C81.8906212,72.1601529 81.515625,71.2500058 81.515625,70.09375 C81.515625,68.9374942 81.8828088,68.0117222 82.6171875,67.3164062 C83.3515662,66.6210903 84.4179618,66.2734375 85.8164062,66.2734375 C87.1523504,66.2734375 88.1679653,66.5332005 88.8632812,67.0527344 C89.5585972,67.5722682 90.0468736,68.4101505 90.328125,69.5664062 L87.7851562,70.140625 C87.5585926,69.14062 86.917974,68.640625 85.8632812,68.640625 C85.1992154,68.640625 84.7265639,68.7363272 84.4453125,68.9277344 C84.1640611,69.1191416 84.0234375,69.367186 84.0234375,69.671875 C84.0234375,69.9453139 84.1523425,70.1718741 84.4101562,70.3515625 C84.66797,70.5390634 85.4687433,70.8203106 86.8125,71.1953125 C88.32032,71.6171896 89.3437473,72.1289032 89.8828125,72.7304688 C90.4140652,73.3320343 90.6796875,74.1328075 90.6796875,75.1328125 C90.6796875,76.3359435 90.2675822,77.3281211 89.4433594,78.109375 C88.6191365,78.8906289 87.480476,79.28125 86.0273438,79.28125 C84.7070246,79.28125 83.6289104,78.9550814 82.7929688,78.3027344 C81.9570271,77.6503874 81.4062513,76.699225 81.140625,75.4492188 Z" id="GBI.news"></path>
                </g>
            </g>
        </g>
    </g>
</svg>