<?xml version="1.0" encoding="UTF-8"?>
<svg width="154px" height="27px" viewBox="0 0 154 27" version="1.1" xmlns="http://www.w3.org/2000/svg" xmlns:xlink="http://www.w3.org/1999/xlink">
    <!-- Generator: Sketch 51.3 (57544) - http://www.bohemiancoding.com/sketch -->
    <title>eos laomao@1x</title>
    <desc>Created with Sketch.</desc>
    <defs></defs>
    <g id="Symbols" stroke="none" stroke-width="1" fill="none" fill-rule="evenodd">
        <g id="footer" transform="translate(-103.000000, -6.000000)">
            <g id="Group-4">
                <g transform="translate(103.000000, 6.000000)">
                    <g id="eos-laomao">
                        <rect id="Rectangle" fill="#4E4E4E" fill-rule="nonzero" x="0" y="0" width="27" height="27"></rect>
                        <path d="M14.6431809,9.65363054 L18.2536369,12.6236835 L21.5154228,4 L14.6431809,9.65363054 Z M9.7458784,12.6231988 L13.3567818,9.65318309 L6.48453991,4 L9.7458784,12.6231988 Z M18.902243,13.1572595 L24,17.3504729 L22.2409146,4.32954187 L18.902243,13.1572595 Z M4,17.3504729 L9.09723499,13.1572595 L5.75908543,4.32954187 L4,17.3504729 Z M10.0508855,13.4300134 L13.9990492,23.8713601 L17.9485925,13.4300134 L13.9995339,10.1818372 L10.0508855,13.4300134 Z M14.8017995,24 L23.8313512,18.2695211 L18.5972732,13.9641113 L14.8017995,24 Z M4.1677166,18.2695211 L13.1981632,24 L9.40224206,13.9641113 L4.1677166,18.2695211 Z" id="Fill-2" fill="#FFFFFF"></path>
                        <path d="M149.158171,11.625 C150.081965,11.625 150.817792,12.0080914 151.365177,12.7745277 C151.827253,13.4680968 152.066667,14.3257756 152.066667,15.3840609 C152.066667,16.4061027 151.827253,17.2819032 151.365177,17.9753455 C150.817792,18.7417818 150.081965,19.125 149.158171,19.125 C148.217149,19.125 147.48156,18.7417818 146.968156,17.9753455 C146.48909,17.2819032 146.266667,16.4242244 146.266667,15.3840609 C146.266667,14.3257756 146.48909,13.4680968 146.968156,12.7745277 C147.48156,12.0080914 148.217149,11.625 149.158171,11.625 Z M149.166667,9.75 C147.664808,9.75 146.49004,10.2865676 145.60425,11.4012749 C144.756972,12.454054 144.333333,13.7751886 144.333333,15.385178 C144.333333,16.9746681 144.756972,18.2958026 145.60425,19.327939 C146.49004,20.442503 147.664808,21 149.166667,21 C150.649402,21 151.843293,20.442503 152.748206,19.327939 C153.576361,18.2958026 154,16.9746681 154,15.385178 C154,13.7751886 153.576361,12.454054 152.729084,11.4012749 C151.843293,10.2865676 150.649402,9.75 149.166667,9.75 Z M140.466667,15.375 L140.466667,16.2040438 C140.466667,16.9578389 140.090695,17.6362546 139.358134,18.2204458 C138.606053,18.8234819 137.754721,19.125 136.784893,19.125 C136.151308,19.125 135.63677,18.9741101 135.240866,18.6915678 C134.844824,18.3900497 134.666667,18.031997 134.666667,17.5797199 C134.666667,16.166354 135.814927,15.4503795 138.111035,15.4126898 L140.466667,15.375 Z M137.938473,9.75 C136.621217,9.75 135.580307,9.99756938 134.772956,10.4929949 C133.880621,11.0297058 133.306977,11.8760576 133.07327,12.9907649 L134.75171,13.1144779 C134.921679,12.4332679 135.282862,11.9173431 135.856506,11.5870594 C136.366411,11.2567758 137.025039,11.1121333 137.832243,11.1121333 C139.744389,11.1121333 140.700462,11.999914 140.700462,13.795688 L140.700462,14.353185 L138.065949,14.3944704 C136.408903,14.4151132 135.133992,14.7247541 134.241657,15.3026071 C133.221993,15.9218889 132.733333,16.830169 132.733333,18.0480899 C132.733333,18.9150845 133.07327,19.63758 133.753145,20.1949336 C134.411773,20.7316445 135.282862,21 136.38751,21 C137.407469,21 138.320902,20.77293 139.1284,20.3394327 C139.808127,19.9678636 140.381771,19.4929375 140.806692,18.9150845 L140.806692,20.7108585 L142.4,20.7108585 L142.4,13.8577595 C142.4,12.6191958 142.06021,11.6489876 141.422828,10.9471349 C140.65797,10.1420685 139.510682,9.75 137.938473,9.75 Z M117.266667,6 L117.266667,21 L118.770285,21 L118.770285,9.06717049 L118.825301,9.06717049 L123.354877,21 L124.711917,21 L129.241366,9.06717049 L129.296381,9.06717049 L129.296381,21 L130.8,21 L130.8,6 L128.929614,6 L124.070074,18.7941992 L124.015059,18.7941992 L119.137053,6 L117.266667,6 Z M110.491445,11.625 C111.415377,11.625 112.1511,12.0080914 112.698615,12.7745277 C113.160581,13.4680968 113.4,14.3257756 113.4,15.3840609 C113.4,16.4061027 113.160581,17.2819032 112.698615,17.9753455 C112.1511,18.7417818 111.415377,19.125 110.491445,19.125 C109.550404,19.125 108.814799,18.7417818 108.301385,17.9753455 C107.822428,17.2819032 107.6,16.4242244 107.6,15.3840609 C107.6,14.3257756 107.822428,13.4680968 108.301385,12.7745277 C108.814799,12.0080914 109.550404,11.625 110.491445,11.625 Z M110.5,9.75 C108.997966,9.75 107.823299,10.2865676 106.937618,11.4012749 C106.090317,12.454054 105.666667,13.7751886 105.666667,15.385178 C105.666667,16.9746681 106.090317,18.2958026 106.937618,19.327939 C107.823299,20.442503 108.997966,21 110.5,21 C111.982777,21 113.176701,20.442503 114.081772,19.327939 C114.909683,18.2958026 115.333333,16.9746681 115.333333,15.385178 C115.333333,13.7751886 114.909683,12.454054 114.062516,11.4012749 C113.176701,10.2865676 111.982777,9.75 110.5,9.75 Z M101.8,15.375 L101.8,16.2040438 C101.8,16.9578389 101.423753,17.6362546 100.69133,18.2204458 C99.9392491,18.8234819 99.0879171,19.125 98.1180887,19.125 C97.4846416,19.125 96.9699659,18.9741101 96.5740614,18.6915678 C96.178157,18.3900497 96,18.031997 96,17.5797199 C96,16.166354 97.1481229,15.4503795 99.4443686,15.4126898 L101.8,15.375 Z M99.2718743,9.75 C97.9546381,9.75 96.9135966,9.99756938 96.1062582,10.4929949 C95.2139369,11.0297058 94.6403018,11.8760576 94.4065986,12.9907649 L96.0850125,13.1144779 C96.2549785,12.4332679 96.6161561,11.9173431 97.1897913,11.5870594 C97.6996891,11.2567758 98.3583073,11.1121333 99.165498,11.1121333 C101.077615,11.1121333 102.033821,11.999914 102.033821,13.795688 L102.033821,14.353185 L99.3992012,14.3944704 C97.7421806,14.4151132 96.4674359,14.7247541 95.5751146,15.3026071 C94.5553188,15.9218889 94.0666667,16.830169 94.0666667,18.0480899 C94.0666667,18.9150845 94.4065986,19.63758 95.0864625,20.1949336 C95.7450806,20.7316445 96.6161561,21 97.7209349,21 C98.7405831,21 99.6542977,20.77293 100.461489,20.3394327 C101.1415,19.9678636 101.715135,19.4929375 102.139902,18.9150845 L102.139902,20.7108585 L103.733333,20.7108585 L103.733333,13.8577595 C103.733333,12.6191958 103.393549,11.6489876 102.756029,10.9471349 C101.99133,10.1420685 100.843912,9.75 99.2718743,9.75 Z M84.4,6 L84.4,21 L94.0666667,21 L94.0666667,19.5085057 L85.9849289,19.5085057 L85.9849289,6 L84.4,6 Z M70.7849745,6 C69.27367,6 68.0278649,6.32359355 67.0679822,6.97035949 C65.9855614,7.65769746 65.4545625,8.64841315 65.4545625,9.90165377 C65.4545625,11.1146031 66.0061263,12.044531 67.1292513,12.6912969 C67.5989811,12.9340272 68.722248,13.3383436 70.478629,13.863955 C72.1124718,14.3289189 73.1539047,14.6725879 73.5623654,14.9150374 C74.522248,15.420433 75.0124009,16.1279867 75.0124009,17.0376988 C75.0124009,17.8059 74.6447862,18.4123747 73.909557,18.8571228 C73.1743277,19.3017305 72.1940221,19.5241046 71.0096279,19.5241046 C69.7025537,19.5241046 68.722248,19.2412234 68.0482879,18.715612 C67.3130586,18.1293532 66.8637519,17.1994253 66.7207906,15.9460443 L65.0666667,15.9460443 C65.189063,17.7250367 65.8223189,19.0390652 66.9658671,19.9083456 C67.9461727,20.6359748 69.294093,21 71.0096279,21 C72.7455858,21 74.1139292,20.6359748 75.1349391,19.9285614 C76.1560908,19.2007918 76.6666667,18.1900007 76.6666667,16.9366197 C76.6666667,15.6225912 76.0539756,14.6118001 74.8490166,13.8841708 C74.2363255,13.520286 72.9702392,13.0551817 71.050474,12.4892791 C69.6412846,12.0849626 68.7426711,11.7817253 68.3750564,11.579567 C67.537712,11.1348189 67.1292513,10.5485601 67.1292513,9.82079048 C67.1292513,8.99194175 67.4764429,8.38560746 68.1708261,7.981291 C68.7835171,7.6174062 69.6208616,7.45567962 70.7032824,7.45567962 C71.8878184,7.45567962 72.806855,7.6981291 73.4603921,8.22374049 C74.0933643,8.72913605 74.501825,9.49733731 74.6856323,10.5485601 L76.3398981,10.5485601 C76.1969369,9.03237339 75.6455149,7.8800715 74.6652093,7.11187024 C73.7257497,6.36388481 72.4186755,6 70.7849745,6 Z M56.3760442,7.875 C57.9032314,7.875 59.0952833,8.38479061 59.9520706,9.42298595 C60.7716063,10.4421739 61.2,11.801266 61.2,13.5190074 C61.2,15.2178725 60.7716063,16.5579572 59.9520706,17.5772762 C59.0952833,18.5965953 57.8846056,19.125 56.3574184,19.125 C54.8301019,19.125 53.6194242,18.5965953 52.7626369,17.5395237 C51.9431012,16.5202046 51.5333333,15.1801199 51.5333333,13.5190074 C51.5333333,11.8390186 51.9431012,10.4988028 52.7626369,9.4794837 C53.63805,8.40353581 54.8487277,7.875 56.3760442,7.875 Z M56.3765741,6 C54.2365599,6 52.5721044,6.72791 51.3437153,8.18330884 C50.1746335,9.55798478 49.6,11.3369772 49.6,13.520286 C49.6,15.6832386 50.1746335,17.462231 51.3437153,18.836907 C52.5721044,20.27209 54.2365599,21 56.3567592,21 C58.4768209,21 60.1610913,20.27209 61.389618,18.836907 C62.5388849,17.462231 63.1333333,15.7035949 63.1333333,13.520286 C63.1333333,11.316621 62.5388849,9.53790935 61.389618,8.16323341 C60.1610913,6.70755379 58.4768209,6 56.3765741,6 Z M38,6 L38,21 L47.6666667,21 L47.6666667,19.5085057 L39.5156553,19.5085057 L39.5156553,14.0041434 L46.908839,14.0041434 L46.908839,12.5126492 L39.5156553,12.5126492 L39.5156553,7.49164016 L47.3524454,7.49164016 L47.3524454,6 L38,6 Z" id="Fill-3" fill="#4E4E4E"></path>
                    </g>
                </g>
            </g>
        </g>
    </g>
</svg>