<svg xmlns="http://www.w3.org/2000/svg" viewBox="0 0 263.36 24.74"><defs><style>.cls-1{fill:#3692a7;}.cls-2{fill:#989898;}</style></defs><title>slogan</title><g id="Layer_2" data-name="Layer 2"><g id="pic"><path class="cls-1" d="M0,8.8V.06H3.93c1.59,0,2.39.68,2.39,2A2.2,2.2,0,0,1,4.76,4.23a1.84,1.84,0,0,1,1.67,2A2.3,2.3,0,0,1,3.81,8.8ZM3.74,7.39c.69,0,1-.36,1-1.1,0-.91-.51-1.36-1.54-1.36H2.76v-1C4.05,3.66,4.7,3.1,4.7,2.2c0-.49-.29-.73-.87-.73H1.55V7.39Z"/><path class="cls-2" d="M10.15,8.79V.06H14c1.71,0,2.57.78,2.57,2.34,0,1.06-.66,1.93-2,2.62L17.19,8.8h-2L12.68,5V4.25c1.48-.26,2.23-.86,2.23-1.8,0-.64-.35-1-1.05-1H11.73V8.79Z"/><path class="cls-2" d="M21.88.06V8.8H20.32V.06Z"/><path class="cls-2" d="M27.59.06V8.8H26V.06Zm5.9,0L29.92,4.14,33.87,8.8H31.72L28.47,4.72v-1L31.59.06Z"/><path class="cls-2" d="M36.57,4.44Q36.57,0,40.78,0t4.14,4.44q0,4.42-4.14,4.42T36.57,4.44Zm4.21,3c1.68,0,2.53-1,2.53-3s-.85-3-2.53-3-2.6,1-2.6,3S39,7.45,40.78,7.45Z"/><path class="cls-1" d="M53.83,8.79V.06h3.82c1.71,0,2.56.78,2.56,2.34,0,1.06-.66,1.93-2,2.62L60.87,8.8h-2L56.36,5V4.25c1.49-.26,2.23-.86,2.23-1.8,0-.64-.35-1-1-1H55.42V8.79Z"/><path class="cls-2" d="M69.75.06V1.45h-4.2v2.2h4V5.1h-4V7.39h4.3V8.8H64V.06Z"/><path class="cls-2" d="M74.53,8.8H72.94L76.5.06h1.67L81.8,8.8H80.13l-.95-2.38H76.39L76.92,5h1.69L77.29,1.73Z"/><path class="cls-2" d="M86.79.06V7.39h3.33V8.8H85.23V.06Z"/><path class="cls-2" d="M95.54.06V8.8H94V.06Z"/><path class="cls-2" d="M99.56,8.43V7a7.74,7.74,0,0,0,2.85.49c1.28,0,1.93-.44,1.93-1.34,0-.65-.4-1-1.19-1h-1.31c-1.72,0-2.58-.81-2.58-2.44C99.26.9,100.49,0,102.93,0a8.12,8.12,0,0,1,2.67.43V1.89a7.44,7.44,0,0,0-2.67-.48c-1.41,0-2.11.42-2.11,1.28,0,.65.34,1,1,1h1.31c1.83,0,2.74.81,2.74,2.44q0,2.75-3.48,2.75A8.71,8.71,0,0,1,99.56,8.43Z"/><path class="cls-2" d="M115.1.06V1.47h-2.41V8.8h-1.55V1.47h-2.41V.06Z"/><path class="cls-2" d="M119.93.06V8.8h-1.55V.06Z"/><path class="cls-2" d="M130.78,8.43a6.54,6.54,0,0,1-2.46.43q-4.51,0-4.52-4.55,0-4.3,4.52-4.31a6.54,6.54,0,0,1,2.46.43V1.89a5.7,5.7,0,0,0-2.34-.48c-2,0-3,1-3,2.9,0,2.1,1,3.14,3,3.14A5.55,5.55,0,0,0,130.78,7Z"/><path class="cls-1" d="M141.25.06V8.8h-1.56V.06Z"/><path class="cls-2" d="M145.41,8.8V.06H147l4.43,6.37V.06h1.5V8.8h-1.56L146.9,2.3V8.8Z"/><path class="cls-2" d="M162.53.06V1.47h-2.4V8.8h-1.56V1.47h-2.4V.06Z"/><path class="cls-2" d="M171.56.06V1.45h-4.2v2.2h4V5.1h-4V7.39h4.3V8.8h-5.83V.06Z"/><path class="cls-2" d="M175.48,8.79V.06h3.81c1.71,0,2.57.78,2.57,2.34,0,1.06-.67,1.93-2,2.62l2.66,3.78h-2L178,5V4.25c1.49-.26,2.23-.86,2.23-1.8,0-.64-.34-1-1-1h-2.13V8.79Z"/><path class="cls-2" d="M185.65,8.8V.06h1.56l4.42,6.37V.06h1.5V8.8h-1.55l-4.43-6.5V8.8Z"/><path class="cls-2" d="M198.15,8.8h-1.59L200.12.06h1.67l3.64,8.74h-1.68l-.95-2.38H200L200.55,5h1.69l-1.32-3.28Z"/><path class="cls-2" d="M214.34.06V1.47h-2.41V8.8h-1.55V1.47H208V.06Z"/><path class="cls-2" d="M219.17.06V8.8h-1.55V.06Z"/><path class="cls-2" d="M223,4.44c0-3,1.41-4.44,4.21-4.44s4.15,1.48,4.15,4.44S230,8.86,227.25,8.86,223.17,7.39,223,4.44Zm4.21,3c1.69,0,2.54-1,2.54-3s-.85-3-2.54-3-2.59,1-2.59,3S225.52,7.45,227.25,7.45Z"/><path class="cls-2" d="M235.27,8.8V.06h1.55l4.43,6.37V.06h1.5V8.8h-1.56l-4.43-6.5V8.8Z"/><path class="cls-2" d="M247.77,8.8h-1.59L249.74.06h1.67L255,8.8h-1.67l-1-2.38h-2.79L250.17,5h1.68l-1.31-3.28Z"/><path class="cls-2" d="M260,.06V7.39h3.33V8.8h-4.89V.06Z"/><path class="cls-1" d="M1.55,16v8.73H0V16Zm5.9,0L3.88,20l4,4.66H5.68L2.43,20.6V19.55L5.55,16Z"/><path class="cls-2" d="M10.82,24.68V16h1.55l4.43,6.36V16h1.5v8.73H16.74l-4.43-6.5v6.5Z"/><path class="cls-2" d="M22.17,20.33c0-3,1.4-4.45,4.21-4.45s4.14,1.49,4.14,4.45-1.38,4.41-4.14,4.41S22.29,23.27,22.17,20.33Zm4.21,3c1.69,0,2.53-1,2.53-3.05s-.84-3-2.53-3-2.6,1-2.6,3S24.64,23.34,26.38,23.34Z"/><path class="cls-2" d="M33.72,16h1.57l.9,6.27L38.37,16h1.5l2,6,1-6h1.53l-1.58,8.73H41.34L39,17.83l-2.47,6.85H35.1Z"/><path class="cls-2" d="M49.43,16v7.33h3.33v1.4H47.88V16Z"/><path class="cls-2" d="M62.38,16v1.39h-4.2v2.2h4V21h-4v2.29h4.3v1.4H56.63V16Z"/><path class="cls-2" d="M66.3,24.68V16h3.28c2.78,0,4.17,1.37,4.17,4.13q0,4.61-4.17,4.6Zm3.28-1.4c1.74,0,2.61-1.07,2.61-3.2q0-2.73-2.61-2.73H67.85v5.93Z"/><path class="cls-2" d="M84.15,24.28a6.07,6.07,0,0,1-2.54.46c-3,0-4.44-1.51-4.44-4.55q0-4.31,4.52-4.31a6.75,6.75,0,0,1,2.46.43v1.47a5.55,5.55,0,0,0-2.34-.49c-2,0-3,1-3,2.9q0,3.15,2.85,3.15a3.64,3.64,0,0,0,1-.15V20.65h1.55Z"/><path class="cls-2" d="M93.76,16v1.39h-4.2v2.2h4V21h-4v2.29h4.3v1.4H88V16Z"/><path class="cls-1" d="M102.43,20.33c0-3,1.41-4.45,4.22-4.45s4.14,1.49,4.14,4.45-1.38,4.41-4.14,4.41S102.56,23.27,102.43,20.33Zm4.22,3c1.68,0,2.53-1,2.53-3.05s-.85-3-2.53-3-2.6,1-2.6,3S104.91,23.34,106.65,23.34Z"/><path class="cls-2" d="M114.66,24.67V16h3.81c1.71,0,2.57.78,2.57,2.34,0,1.05-.66,1.92-2,2.62l2.66,3.77h-2l-2.55-3.8v-.74c1.48-.27,2.23-.87,2.23-1.81q0-1-1-1h-2.13v7.3Z"/><path class="cls-2" d="M131.52,24.28a6.1,6.1,0,0,1-2.54.46c-3,0-4.44-1.51-4.44-4.55q0-4.31,4.52-4.31a6.75,6.75,0,0,1,2.46.43v1.47a5.59,5.59,0,0,0-2.35-.49c-2,0-3,1-3,2.9q0,3.15,2.85,3.15a3.65,3.65,0,0,0,1-.15V20.65h1.55Z"/><path class="cls-2" d="M136.25,24.68h-1.59L138.22,16h1.67l3.63,8.73h-1.67l-.95-2.38h-2.79l.53-1.41h1.69L139,17.61Z"/><path class="cls-2" d="M147,24.68V16h1.56l4.42,6.36V16h1.5v8.73h-1.55l-4.43-6.5v6.5Z"/><path class="cls-2" d="M160.15,16v8.73h-1.56V16Z"/><path class="cls-2" d="M170.38,16v1.4l-4.46,5.93h4.46v1.4h-6.22v-1.4l4.66-5.93h-4.54V16Z"/><path class="cls-2" d="M174.9,24.68h-1.59L176.87,16h1.67l3.64,8.73H180.5l-.95-2.38h-2.79l.54-1.41H179l-1.32-3.28Z"/><path class="cls-2" d="M191.09,16v1.4h-2.41v7.33h-1.55V17.35h-2.4V16Z"/><path class="cls-2" d="M195.92,16v8.73h-1.55V16Z"/><path class="cls-2" d="M199.79,20.33c0-3,1.41-4.45,4.22-4.45s4.14,1.49,4.14,4.45-1.38,4.41-4.14,4.41S199.92,23.27,199.79,20.33Zm4.22,3c1.68,0,2.53-1,2.53-3.05s-.85-3-2.53-3-2.6,1-2.6,3S202.27,23.34,204,23.34Z"/><path class="cls-2" d="M212,24.68V16h1.55L218,22.31V16h1.5v8.73h-1.56l-4.42-6.5v6.5Z"/></g></g></svg>