<?xml version="1.0" encoding="utf-8"?>
<!-- Generator: Adobe Illustrator 23.0.2, SVG Export Plug-In . SVG Version: 6.00 Build 0)  -->
<svg version="1.1" id="Layer_1" xmlns="http://www.w3.org/2000/svg" xmlns:xlink="http://www.w3.org/1999/xlink" x="0px" y="0px"
	 viewBox="0 0 272.3 250" style="enable-background:new 0 0 272.3 250;" xml:space="preserve">
<style type="text/css">
	.st0{fill:#FABF62;}
	.st1{fill:none;}
	.st2{fill:#1C3E58;}
	.st3{fill:#EBF0F6;}
	.st4{fill:#FFFFFF;}
	.st5{fill:#91C9D3;}
	.st6{fill:#47A5B5;}
	.st7{fill:#CBCBCA;}
	.st8{fill:#BCD6E0;}
	.st9{fill:#B0BEC5;}
</style>
<title>team_l</title>
<g>
	<g id="pic">
		<g id="TEAM_L">
			<path id="Shape" class="st0" d="M73.4,185h54.1c3,0,6,1.2,8.1,3.4c2.1,2.2,3.4,5.1,3.3,8.1V243l-8.2-9.2
				c-3.2-3.7-7.9-5.8-12.8-5.8H73.4c-6.3,0-11.4-5.1-11.4-11.5v-20c0-3.1,1.2-6,3.3-8.1C67.5,186.2,70.4,185,73.4,185z"/>
			<rect id="Rectangle-path" x="101" y="195" class="st1" width="25" height="11"/>
			<path id="Shape-2" class="st2" d="M126.1,207h-25.1c-0.5,0-0.9-0.4-0.9-0.9c0,0,0,0,0,0v-11.1c0-0.5,0.4-0.9,0.9-0.9h25.1
				c0.5,0,0.9,0.4,0.9,0.9v11.1C127,206.6,126.6,207,126.1,207L126.1,207z M101.9,205.1h23.3v-9.3h-23.3L101.9,205.1z"/>
			<path id="Shape-3" class="st2" d="M88.1,196H69.9c-0.3,0-0.7-0.2-0.8-0.5c-0.2-0.3-0.2-0.7,0-1c0.2-0.3,0.5-0.5,0.8-0.5h18.1
				c0.6,0,1,0.4,1,1S88.6,196,88.1,196z"/>
			<path id="Shape-4" class="st2" d="M88.1,202H69.9c-0.6,0-1-0.4-1-1s0.4-1,1-1h18.1c0.6,0,1,0.4,1,1S88.6,202,88.1,202z"/>
			<path id="Shape-5" class="st2" d="M88.1,207H69.9c-0.6,0-1-0.4-1-1s0.4-1,1-1h18.1c0.6,0,1,0.4,1,1S88.6,207,88.1,207z"/>
			<path id="Shape-6" class="st2" d="M127,213H70c-0.6,0-1-0.4-1-1s0.4-1,1-1h57c0.6,0,1,0.4,1,1S127.6,213,127,213z"/>
			<path id="Shape-7" class="st2" d="M127,218H70c-0.6,0-1-0.4-1-1s0.4-1,1-1h57c0.6,0,1,0.4,1,1S127.6,218,127,218z"/>
			<path id="Shape-8" class="st2" d="M123,179H90c-0.6,0-1-0.4-1-1s0.4-1,1-1h33c0.6,0,1,0.4,1,1S123.6,179,123,179z"/>
			<path id="Shape-9" class="st2" d="M128,179c-0.5,0-0.9-0.3-1-0.8c-0.1-0.5,0.2-1.1,0.8-1.2c0,0,0,0,0,0h0.2
				c0.6-0.1,1,0.3,1.1,0.9c0.1,0.6-0.3,1-0.9,1.1L128,179z"/>
			<path id="Shape-10" class="st3" d="M155.4,153.3l4.6-1.8v-22.6c0-4.3-3.5-7.9-7.8-7.9H73.3c0,0.1,0,0.3,0,0.4
				c0,1.3-1.1,2.4-2.4,2.4c0,0,0,0,0,0l-1.5,0.1l-0.4,1.9c0.4,27.3,0.1,34.5,1.3,37.2H150L155.4,153.3z"/>
			<path id="Shape-11" class="st4" d="M175.2,49.2l-1.2,0.4c-1,0.1-1.8-0.6-1.9-1.6c0,0,0,0,0,0c-0.1-1.4-0.3-3.5-0.4-5.9H105v14.9
				c1.6,0.3,3,1.1,4.1,2.2c0,0,1.8-3.9,8.6-3.7c5.9,0.2,11,3.6,14.1,14.5h32c4.1-3.8,8.6-6,10.4-7.1c0.9-0.6,1.8-1,2.8-1.3v-7.9
				l-0.1-0.1L175.2,49.2z"/>
			<path id="Shape-12" class="st2" d="M164.1,70h-31.7c-0.4,0-0.7-0.2-0.8-0.6c-3.6-12-9.3-13.6-13.3-13.7c-6-0.2-7.7,3.1-7.7,3.2
				c-0.1,0.2-0.4,0.4-0.6,0.4c-0.3,0-0.5-0.1-0.7-0.3c-1-1-2.3-1.7-3.7-1.9c-0.3-0.1-0.6-0.4-0.6-0.8V41.8c0-0.4,0.3-0.8,0.8-0.8
				c0,0,0,0,0,0H172c0.4,0,0.8,0.3,0.8,0.7c0.1,2.4,0.2,4.5,0.4,5.8c0,0.3,0.1,0.5,0.3,0.7c0.2,0.2,0.5,0.3,0.8,0.3l0.6,0
				c0.2,0,0.4,0,0.6,0.2c0.2,0.1,0.3,0.3,0.3,0.5c0.1,0.4-0.2,0.8-0.6,0.9c0,0,0,0,0,0h-0.6c-0.7,0.1-1.3-0.2-1.9-0.6
				c-0.5-0.4-0.8-1-0.9-1.7c-0.1-1.2-0.2-3-0.3-5.1h-64.7v13.2c1.1,0.3,2.2,0.9,3.2,1.6c1-1.2,3.5-3.3,8.7-3.2
				c7,0.2,11.6,4.7,14.6,14.2h30.9c2.7-2.3,5.7-4.3,8.8-6l1.4-0.8c0.8-0.5,1.6-0.9,2.4-1.2v-6.9c-0.1-0.2-0.1-0.5,0.1-0.8
				c0.2-0.3,0.7-0.5,1.1-0.2l0.1,0.1c0.2,0.1,0.4,0.4,0.4,0.6V61c0,0.4-0.2,0.7-0.6,0.8c-0.9,0.3-1.8,0.7-2.6,1.2
				c-0.4,0.2-0.9,0.5-1.5,0.9c-3.1,1.7-6.1,3.7-8.8,6C164.5,70,164.3,70,164.1,70z"/>
			<path id="Shape-13" class="st4" d="M170.8,35H105V7h72v15.5c0,0-5.4,0.8-5.4,12.5H170.8z"/>
			<path id="Shape-14" class="st2" d="M171.8,36h-66c-0.4,0-0.8-0.3-0.8-0.8V6.8c0-0.4,0.3-0.8,0.8-0.8h71.4c0.4,0,0.8,0.3,0.8,0.8
				v15.7c0,0.4-0.3,0.7-0.6,0.8c0,0-4.8,1-4.8,11.9c0,0.2-0.1,0.4-0.2,0.5C172.2,35.9,172,36,171.8,36z M106.6,34.4H171
				c0.2-9.4,3.9-11.9,5.4-12.5V7.6h-69.9V34.4z"/>
			<rect id="Rectangle-path-2" x="105" y="14" class="st5" width="10" height="21"/>
			<path id="Shape-15" class="st2" d="M116.2,36h-10.4c-0.4,0-0.8-0.3-0.8-0.8c0,0,0,0,0,0V13.8c0-0.4,0.4-0.8,0.8-0.8c0,0,0,0,0,0
				h10.4c0.4,0,0.8,0.3,0.8,0.8c0,0,0,0,0,0v21.4C117,35.7,116.6,36,116.2,36C116.2,36,116.2,36,116.2,36z M106.6,34.4h8.8V14.6
				h-8.8V34.4z"/>
			<rect id="Rectangle-path-3" x="115" y="14" class="st6" width="10" height="21"/>
			<path id="Shape-16" class="st2" d="M126.2,36h-10.4c-0.4,0-0.8-0.3-0.8-0.8c0,0,0,0,0,0V13.8c0-0.4,0.4-0.8,0.8-0.8c0,0,0,0,0,0
				h10.4c0.4,0,0.8,0.3,0.8,0.8c0,0,0,0,0,0v21.4C127,35.7,126.6,36,126.2,36C126.2,36,126.2,36,126.2,36z M116.6,34.4h8.8V14.6
				h-8.8V34.4z"/>
			<rect id="Rectangle-path-4" x="125" y="14" class="st0" width="10" height="21"/>
			<path id="Shape-17" class="st2" d="M136.2,36h-10.4c-0.4,0-0.8-0.3-0.8-0.8c0,0,0,0,0,0V13.8c0-0.4,0.4-0.8,0.8-0.8c0,0,0,0,0,0
				h10.4c0.4,0,0.8,0.3,0.8,0.8c0,0,0,0,0,0v21.4C137,35.7,136.6,36,136.2,36C136.2,36,136.2,36,136.2,36z M126.6,34.4h8.8V14.6
				h-8.8L126.6,34.4z"/>
			
				<rect id="Rectangle-path-5" x="138" y="16" transform="matrix(0.9258 -0.378 0.378 0.9258 1.1596 55.9093)" class="st6" width="10" height="18"/>
			<path id="Shape-18" class="st2" d="M142.8,36c-0.1,0-0.2,0-0.3-0.1c-0.2-0.1-0.3-0.2-0.4-0.4l-7-16.7c-0.2-0.4,0-0.8,0.4-1
				c0,0,0,0,0,0l9.4-3.8c0.4-0.2,0.8,0,1,0.4l7,16.7c0.2,0.4,0,0.8-0.4,1c0,0,0,0,0,0l-9.4,3.8C143,36,142.9,36,142.8,36z
				 M136.8,18.9l6.4,15.3l8-3.2l-6.4-15.3L136.8,18.9z"/>
			<path id="Shape-19" class="st2" d="M158.8,124c-0.4,0-0.8-0.2-0.9-0.6c-1.8-5.7,0.4-24,0.5-24.8c0.1-0.5,0.5-0.8,1-0.7
				c0.5,0,0.8,0.4,0.8,0.8c0,0.2-2.2,18.8-0.5,24.2c0.1,0.4-0.2,0.8-0.6,0.9c0,0-0.1,0-0.1,0L158.8,124z"/>
			<path id="Shape-20" class="st2" d="M162,129.8c0-4.8-3.8-8.7-8.6-8.8H74.1c-0.2,0-0.5,0.1-0.6,0.3c-0.2,0.2-0.2,0.4-0.2,0.6
				c0,0.1,0,0.2,0,0.3c0,0.9-0.7,1.7-1.6,1.7c0,0,0,0,0,0l0,0l-1.5,0.1c-0.4,0-0.7,0.3-0.7,0.6l-0.5,1.9c0,0.1,0,0.1,0,0.2
				c0.1,7.1,0.2,12.9,0.2,17.5c0.1,13.2,0.2,17.6,1,19.8h1.6c0-0.1,0-0.2-0.1-0.3c-0.8-1.8-0.9-6.6-1-19.5
				c-0.1-4.6-0.1-10.4-0.2-17.4l0.3-1.2h0.9c1.6,0,3-1.3,3.1-2.9h78.5c3.9,0,7.1,3.2,7.1,7.2c0,0,0,0,0,0v22c0.5-0.3,1-0.6,1.6-0.9
				L162,129.8z"/>
			<path id="Shape-21" class="st4" d="M240.7,11h-24.3c-3.5,0-6.3,2.8-6.3,6.3V43l4.6-5.1c1.8-2,4.4-3.2,7.1-3.1h19
				c3.5,0,6.3-2.8,6.3-6.3V17.3C247,13.9,244.2,11,240.7,11z"/>
			<path id="Shape-22" class="st2" d="M211,44c-0.1,0-0.2,0-0.3-0.1c-0.3-0.1-0.5-0.4-0.5-0.7v-26c0-4,3.2-7.2,7.2-7.2H242
				c4,0,7.2,3.2,7.2,7.2v11.3c0,4-3.2,7.2-7.2,7.2h-19.3c-2.5,0-4.9,1.1-6.5,2.9l-4.6,5.2C211.4,43.9,211.2,44,211,44z M217.4,11.5
				c-3.1,0-5.6,2.5-5.6,5.6v24l3.2-3.6c1.9-2.2,4.8-3.5,7.7-3.5H242c3.1,0,5.6-2.5,5.6-5.6V17.2c0-3.1-2.5-5.6-5.6-5.6L217.4,11.5z"
				/>
			<path id="Shape-23" class="st2" d="M241.2,18h-25.4c-0.5-0.1-0.8-0.5-0.8-1c-0.1-0.5,0.3-0.9,0.8-1h25.4c0.5,0.1,0.8,0.5,0.8,1
				C242.1,17.5,241.7,17.9,241.2,18z"/>
			<path id="Shape-24" class="st2" d="M241.2,23h-25.4c-0.6,0-1-0.4-1-1s0.4-1,1-1h25.4c0.6,0,1,0.4,1,1S241.8,23,241.2,23z"/>
			<path id="Shape-25" class="st2" d="M241.2,29h-25.4c-0.6,0-1-0.4-1-1s0.4-1,1-1h25.4c0.6,0,1,0.4,1,1S241.8,29,241.2,29z"/>
			<path id="Shape-26" class="st3" d="M12,105.3c4.8-1.2,9.7,1.7,10.9,6.5s-1.7,9.7-6.5,10.9c-0.7,0.2-1.5,0.3-2.2,0.3
				c-0.7,0-1.5-0.1-2.2-0.3V105.3z"/>
			<path id="Shape-27" class="st2" d="M24,115c0.1,5.5-4.3,9.9-9.8,10c-0.8,0-1.5-0.1-2.2-0.3v-1.6h0.2c3.9,1,7.9-1,9.5-4.6
				c1.4-3,1-6.5-1.1-9c-2-2.5-5.3-3.6-8.4-2.8c-0.1,0-0.1,0-0.2,0v-1.6c0.7-0.2,1.5-0.3,2.2-0.3c2.6,0,5.1,1.1,6.9,2.9
				C23,109.8,24,112.4,24,115z"/>
			<path id="Shape-28" class="st2" d="M50.2,88c0.4,0,0.8,0.3,0.8,0.8c0,0,0,0,0,0v46.4c0,0.4-0.3,0.8-0.8,0.8c0,0,0,0,0,0H20.7
				c-0.4,0-0.8-0.4-0.8-0.8c0-0.4,0.4-0.8,0.8-0.8l0,0h28.8V89.6H12V88H50.2z"/>
			<path id="Shape-29" class="st2" d="M21,159c0.5,0.1,0.9-0.3,1-0.8v-36.4c0-0.6-0.4-1-1-1s-1,0.4-1,1v36.4
				C20.1,158.7,20.5,159.1,21,159z"/>
			<path id="Shape-30" class="st2" d="M12,164.8h21.5v-5.7H12v-1.5h22.2c0.4,0,0.8,0.3,0.8,0.8v8.3H12V164.8z"/>
			<path id="Shape-31" class="st2" d="M62.5,127.6H50.8c-0.4,0-0.8-0.4-0.8-0.8s0.4-0.8,0.8-0.8h12.5c0.4,0,0.8,0.4,0.8,0.8
				c0,0,0,0,0,0v38c0,0.1,0,0.2,0,0.3h-1.5c0-0.1,0-0.2,0-0.3L62.5,127.6z"/>
			<path id="Shape-32" class="st2" d="M133,109.4h-0.1c-0.4-0.1-0.7-0.5-0.6-0.9c0-0.2,3.1-19.2,0.2-33.6
				c-3.3-16.4-9.4-18.7-14.4-18.8c-6-0.2-7.7,3.2-7.7,3.3c-0.2,0.4-0.7,0.6-1.1,0.4c-0.1,0-0.2-0.1-0.3-0.2c0,0-2.1-2.5-8-2.5
				s-16,7.9-18.1,19.8c0,0.3-0.2,0.5-0.5,0.6c-0.3,0.1-0.6,0-0.8-0.1c-0.2-0.2-0.3-0.5-0.3-0.7c2.1-11.7,12.5-21.1,19.7-21.1
				c4.7,0,7.3,1.5,8.5,2.4c1-1.3,3.5-3.5,8.6-3.3c8.1,0.2,13.2,6.6,15.9,20.1c3,14.8-0.1,34-0.1,34.2
				C133.7,109.1,133.3,109.4,133,109.4z"/>
			<path id="Shape-33" class="st2" d="M110.5,92C104.9,92,99,88,99,76.8c0-0.4,0.4-0.8,0.8-0.8s0.8,0.4,0.8,0.8
				c0,8.4,3.8,13.7,9.9,13.7c6.6,0,9.9-5,9.9-14.7c0-0.4,0.4-0.8,0.8-0.8s0.8,0.4,0.8,0.8C122,89.2,115.7,92,110.5,92z"/>
			<path id="Shape-34" class="st2" d="M97.7,78c-0.4,0-0.7-0.3-0.7-0.6c-0.1-0.3,0.1-0.7,0.4-0.8c6.4-2.6,12.1-13.9,12.1-14.1
				c0.1-0.3,0.4-0.4,0.6-0.5c0.4,0,0.8,0.3,0.8,0.7c0,0.2,0,0.3-0.1,0.5c-0.2,0.5-6,12-12.9,14.8C97.9,78,97.8,78,97.7,78z"/>
			<path id="Shape-35" class="st2" d="M123.2,77c-0.1,0-0.2,0-0.3-0.1c-6.7-2.8-12.6-11.4-12.8-11.8c-0.2-0.3-0.1-0.8,0.2-1
				c0.3-0.2,0.8-0.2,1.1,0.2c0,0.1,5.8,8.5,12.1,11.2c0.3,0.1,0.5,0.5,0.5,0.9C123.9,76.8,123.6,77,123.2,77L123.2,77z"/>
			<path id="Shape-36" class="st2" d="M90.8,103c-0.1,0-0.2,0-0.3-0.1c-0.4-0.2-0.5-0.6-0.4-1c0.9-2.2,1.6-7.8,2.2-13.3
				c0.5-4,1-8.1,1.6-10.9c1.4-6.8,5.8-9.5,6-9.6c0.4-0.2,0.8-0.1,1,0.3c0,0,0,0,0,0c0.2,0.4,0.1,0.8-0.2,1.1
				c-2.8,2.1-4.6,5.1-5.3,8.5c-0.6,2.7-1.1,6.8-1.6,10.7c-0.7,5.8-1.4,11.3-2.3,13.7C91.4,102.8,91.1,103,90.8,103z"/>
			<path id="Shape-37" class="st2" d="M110.5,110L110.5,110c-3.4-0.1-6.5-2-8.2-5c-1.2-2-1.6-4.2-0.9-5.3c0.8-1.5,2.6-7.8,3.2-10.1
				c0.1-0.3,0.3-0.5,0.6-0.6c0.3-0.1,0.6,0,0.8,0.2c0.2,0.2,0.3,0.5,0.2,0.8c-0.1,0.3-2.3,8.4-3.4,10.4c-0.3,0.5-0.2,2.1,0.9,3.9
				c2,3.8,6.7,5.3,10.5,3.3c1.4-0.7,2.6-1.9,3.3-3.3c1.1-1.8,1.2-3.4,0.9-3.9c-1.1-2-3.3-10.1-3.4-10.4c-0.1-0.4,0.2-0.8,0.6-0.9
				c0.4-0.1,0.9,0.1,1,0.5c0.6,2.3,2.4,8.6,3.2,10.1c0.7,1.2,0.3,3.3-0.9,5.3c-1.7,3-4.8,4.9-8.2,5L110.5,110z"/>
			<path id="Shape-38" class="st2" d="M84.8,123c-0.1,0-0.1,0-0.2,0c-0.4-0.1-0.7-0.5-0.6-0.9c0.1-0.4,2.5-11,5.9-14.4
				s11.7-6.4,12-6.6c0.3-0.1,0.6-0.1,0.8,0.1c0.2,0.2,0.3,0.5,0.3,0.8c-0.1,0.3-0.3,0.5-0.6,0.6c-0.1,0-8.4,3.1-11.5,6.2
				s-5.4,13.5-5.4,13.6C85.4,122.8,85.1,123,84.8,123z"/>
			<path id="Shape-39" class="st2" d="M137.2,122c-0.4,0-0.7-0.2-0.8-0.6c0-0.1-2.2-9.9-5.4-12.9s-11.6-6-11.6-6
				c-0.4-0.2-0.6-0.6-0.4-0.9c0.1-0.4,0.5-0.6,1-0.5c0.4,0.1,8.8,3.1,12.2,6.4s5.7,13.2,5.8,13.7c0.1,0.4-0.2,0.8-0.6,0.9
				c0,0,0,0,0,0L137.2,122z"/>
			<path id="Shape-40" class="st2" d="M46,127c0.5,0,0.9-0.3,1-0.8V95.8c0-0.6-0.4-1-1-1s-1,0.4-1,1v30.4
				C45.1,126.7,45.5,127,46,127z"/>
			<path id="Shape-41" class="st2" d="M188.4,56H185c-0.4,0-0.8-0.3-0.9-0.7s0.3-0.8,0.7-0.9c0.1,0,0.1,0,0.2,0h3.5
				c4.5,0,8.1-3.5,8.2-8c0,0,0,0,0,0V30.8c0-0.4,0.4-0.7,0.9-0.7c0.4,0,0.7,0.3,0.7,0.7v15.7C198.1,51.8,193.7,56.1,188.4,56z"/>
			<path id="Shape-42" class="st7" d="M181.9,39.3l-0.1-1.2c0-1.1,0.3-2.2,1.1-3c0.7-0.8,1.7-1.3,2.8-1.3c4.1-0.1,10.4-0.9,13-4.1
				s2.9-6,2-12.8c-4.4,3.2-9.7,5-15.2,5c-9.3,0.1-12.7,3.1-13.2,10.8c-0.3,5.2-0.1,10.4,0.3,15.5c0,0.5,0.2,0.9,0.6,1.3
				c0.4,0.3,0.8,0.5,1.3,0.4l0.6,0c1-0.1,1.8-1,1.7-2l-0.3-4.8c0-0.4,0.1-0.9,0.4-1.2c0.3-0.3,0.7-0.5,1.1-0.5h1.9
				c0.5,0,1-0.2,1.4-0.6C181.8,40.4,181.9,39.9,181.9,39.3z"/>
			<path id="Shape-43" class="st2" d="M174.1,50c-1.3,0-2.4-1-2.5-2.3c-0.5-5.1-0.5-10.3-0.3-15.4c0.6-8.1,4.3-11.2,13.7-11.4
				c5.2,0,10.2-1.7,14.4-4.7c0.2-0.2,0.5-0.2,0.8-0.1c0.3,0.1,0.4,0.3,0.5,0.6c0.9,6.7,0.8,9.6-2.1,13.2c-2.7,3.3-8.7,4.2-13.3,4.3
				c-0.8,0-1.6,0.4-2.2,1c-0.6,0.6-0.9,1.5-0.8,2.3v1.2c0,0.7-0.2,1.5-0.8,2c-0.5,0.5-1.2,0.8-1.9,0.8h-1.8c-0.2,0-0.4,0.1-0.5,0.2
				c-0.1,0.2-0.2,0.4-0.2,0.6l0.3,4.7c0.1,1.4-0.9,2.7-2.4,2.8l-0.6,0L174.1,50z M199.4,18.2c-4.3,2.7-9.2,4.2-14.3,4.3
				c-8.6,0.1-11.7,2.6-12.2,9.9c-0.3,5.1-0.1,10.1,0.3,15.2c0.1,0.5,0.5,0.9,1,0.9h0.6c0.6-0.1,1-0.6,1-1.2l-0.3-4.7
				c0-0.6,0.2-1.3,0.6-1.8c0.4-0.5,1-0.7,1.7-0.7h1.9c0.3,0,0.6-0.1,0.8-0.4c0.2-0.2,0.3-0.6,0.3-0.9l-0.1-1.2
				c0-1.3,0.4-2.5,1.3-3.5c0.9-0.9,2-1.5,3.3-1.5c3.5-0.1,9.8-0.7,12.2-3.8C199.6,26.1,200.1,24,199.4,18.2L199.4,18.2z"/>
			<path id="Shape-44" class="st2" d="M188.5,66c-4.7,0-9.7-4.3-9.9-4.5c-0.3-0.3-0.4-0.8-0.1-1.1c0.5-1,0.8-2.2,0.7-3.3
				c-0.1-2.2-0.6-2.6-1.5-3.2h-0.1c-1.2-0.8-1.4-3.8-1.4-5.1c0-0.4,0.3-0.8,0.8-0.8s0.8,0.3,0.8,0.8c0.1,1.8,0.4,3.6,0.8,3.9l0,0
				c1.2,0.8,2.1,1.7,2.1,4.4c0.1,1.2-0.1,2.5-0.6,3.6c1.4,1.1,5.5,4,8.9,3.8c1.1-2.8,1.6-5.8,1.7-8.9c0-0.4,0.3-0.8,0.8-0.8
				s0.8,0.3,0.8,0.8c-0.1,3.4-0.8,6.7-2,9.9c-0.1,0.2-0.3,0.4-0.6,0.5C189.2,66,188.9,66,188.5,66z"/>
			<path id="Shape-45" class="st2" d="M162,85c-0.4,0-0.8-0.3-0.8-0.7c0,0,0,0,0,0c0-0.4,0.1-9.2,10.9-14.2c0.4-0.2,0.8,0,1,0.3
				c0.2,0.4,0,0.8-0.3,1c0,0,0,0,0,0c-9.9,4.6-10,12.5-10,12.8C162.7,84.7,162.4,85,162,85z"/>
			<path id="Shape-46" class="st2" d="M199.8,78.6c-0.9-6.8-9.1-13.2-9.4-13.4c-0.3-0.3-0.8-0.2-1.1,0.1c0,0,0,0,0,0
				c-0.3,0.3-0.2,0.8,0.2,1.1c0.1,0.1,8,6.2,8.8,12.4c0.2,1.4,0.3,4.7,0.3,9c0.5,0.1,1,0.1,1.6,0.2C200.2,83.5,200,80.1,199.8,78.6z
				"/>
			<path id="Shape-47" class="st2" d="M169,134.1c-0.5,0-0.8,0.4-0.9,0.8c0,0,0,0,0,0c0,0.5,0.3,0.9,0.8,0.9c1,0.1,2.1,0.1,3.2,0.1
				c1.9,0,3.9-0.1,6-0.2c-0.2-0.6-0.3-1.2-0.4-1.8C174.8,134.2,171.9,134.3,169,134.1z"/>
			<path id="Shape-48" class="st2" d="M199.2,97H199c-0.4,0-0.8-0.3-0.9-0.7c0-0.4,0.3-0.8,0.7-0.9c0.1,0,0.1,0,0.2,0
				c0.1,0,4,0.1,5.8-1.6c0.5-0.5,0.8-1.1,0.8-1.8c0-4.2-6.5-31.9-6.5-32.2c-0.1-0.4,0.2-0.8,0.6-0.9c0.4-0.1,0.9,0.1,1,0.6
				c0.3,1.2,6.6,28.2,6.6,32.5c0,1.1-0.4,2.2-1.3,2.9C203.9,96.9,200.1,97,199.2,97z"/>
			<path id="Shape-49" class="st2" d="M157.2,105h-23.4c-0.6,0-1-0.4-1-1s0.4-1,1-1h23.5c0.6,0,1,0.4,1,1S157.8,105,157.2,105
				L157.2,105z"/>
			<path id="Shape-50" class="st2" d="M158.2,78h-24.4c-0.6,0-1-0.4-1-1s0.4-1,1-1h24.4c0.6,0,1,0.4,1,1S158.8,78,158.2,78L158.2,78
				z"/>
			<path id="Shape-51" class="st2" d="M97.8,57c-0.4,0-0.8-0.3-0.8-0.8c0,0,0,0,0,0V0.8C97,0.4,97.3,0,97.8,0c0,0,0,0,0,0h84.4
				c0.4,0,0.8,0.3,0.8,0.8c0,0,0,0,0,0V22c0,0.4-0.4,0.7-0.9,0.7c-0.4,0-0.7-0.3-0.7-0.7V1.6H98.6v54.6C98.6,56.6,98.2,57,97.8,57
				L97.8,57z"/>
			<path id="Shape-53" class="st2" d="M153.5,69.2c-0.4,0-0.8-0.4-0.8-0.8c0,0,0,0,0,0V51c0-0.4,0.3-0.8,0.8-0.8c0,0,0,0,0,0h21.5
				c0.4,0,0.7,0.4,0.7,0.9c0,0.4-0.3,0.7-0.7,0.7h-20.7v16.7C154.2,68.9,153.9,69.2,153.5,69.2z"/>
			<path id="Shape-54" class="st2" d="M176.2,61.1h-22.5c-0.6,0-1-0.3-1-0.7s0.4-0.7,1-0.7h22.5c0.6,0,1,0.3,1,0.7
				S176.8,61.1,176.2,61.1L176.2,61.1z"/>
			<rect id="Rectangle-path-6" x="135" y="47" class="st5" width="10" height="23"/>
			<path id="Shape-55" class="st2" d="M145.2,70h-10.4c-0.4,0-0.8-0.3-0.8-0.8c0,0,0,0,0,0V46.8c0-0.4,0.3-0.8,0.8-0.8c0,0,0,0,0,0
				h10.4c0.4,0,0.8,0.3,0.8,0.8c0,0,0,0,0,0v22.5C146,69.7,145.6,70,145.2,70C145.2,70,145.2,70,145.2,70z M135.6,68.5h8.9V47.5
				h-8.9V68.5z"/>
			<path id="Shape-56" class="st2" d="M198.8,60c-0.2,0-0.5-0.1-0.7-0.1c-0.6-0.2-1-0.6-1.3-1.1l-2.5-5.1c-0.2-0.4,0-0.8,0.4-1
				c0.4-0.2,0.8,0,1,0.3l2.5,5c0.2,0.3,0.6,0.5,0.9,0.3l2.1-1c0.2-0.1,0.3-0.2,0.4-0.4c0.1-0.2,0.1-0.4,0-0.5l-5.1-10.3
				c-0.2-0.2-0.2-0.6,0-0.8c0.2-0.2,0.4-0.4,0.7-0.3c0.3,0,0.5,0.2,0.6,0.5l5.1,10.3c0.6,1.1,0.1,2.4-1,3c0,0,0,0,0,0l-2.1,1
				C199.5,59.9,199.1,60,198.8,60z"/>
			<circle id="Oval" class="st4" cx="115" cy="144" r="6"/>
			<path id="Shape-57" class="st2" d="M115.5,150c-3.6,0-6.5-2.9-6.5-6.5c0-3.6,2.9-6.5,6.5-6.5s6.5,2.9,6.5,6.5c0,0,0,0,0,0
				C122,147.1,119.1,150,115.5,150z M115.5,138.5c-2.8,0-5,2.2-5,5s2.2,5,5,5s5-2.2,5-5S118.3,138.5,115.5,138.5z"/>
			<path id="Shape-58" class="st2" d="M114.5,158c-0.4,0-0.8-0.3-0.8-0.8v-3.1c0-0.4,0.4-0.7,0.9-0.7c0.4,0,0.7,0.3,0.7,0.7v3.1
				C115.3,157.7,115,158,114.5,158C114.5,158,114.5,158,114.5,158z M123.5,154.3c-0.2,0-0.4-0.1-0.5-0.2l-2.2-2.2
				c-0.3-0.3-0.2-0.8,0.1-1.1c0.3-0.3,0.7-0.3,1,0l2.2,2.2c0.3,0.3,0.3,0.8,0,1.1C123.9,154.2,123.7,154.3,123.5,154.3z
				 M105.5,154.3c-0.2,0-0.4-0.1-0.6-0.2c-0.3-0.3-0.3-0.8,0-1.1l2.2-2.2c0.3-0.3,0.8-0.3,1.1,0c0.3,0.3,0.3,0.8,0,1.1l-2.2,2.2
				C105.9,154.2,105.7,154.2,105.5,154.3L105.5,154.3z M127.2,145.3h-3.1c-0.4,0-0.8-0.3-0.8-0.8c0-0.4,0.3-0.8,0.8-0.8c0,0,0,0,0,0
				h3.1c0.4,0,0.8,0.3,0.8,0.8C128,144.9,127.7,145.3,127.2,145.3C127.2,145.3,127.2,145.3,127.2,145.3z M104.9,145.3h-3.1
				c-0.4,0-0.8-0.3-0.8-0.8c0-0.4,0.3-0.8,0.8-0.8c0,0,0,0,0,0h3.1c0.4,0,0.8,0.3,0.8,0.8C105.7,144.9,105.4,145.3,104.9,145.3
				C104.9,145.3,104.9,145.3,104.9,145.3z M121.3,138.5c-0.4,0-0.8-0.4-0.8-0.8c0-0.2,0.1-0.4,0.2-0.5l2.2-2.2
				c0.3-0.3,0.8-0.4,1.1-0.1c0.1,0.1,0.2,0.3,0.2,0.4c0.1,0.3,0,0.6-0.2,0.8l-2.2,2.2C121.7,138.4,121.5,138.5,121.3,138.5
				L121.3,138.5z M107.8,138.5c-0.2,0-0.4-0.1-0.5-0.2l-2.2-2.2c-0.3-0.3-0.3-0.8,0-1.1c0.3-0.3,0.8-0.3,1.1,0l2.2,2.2
				c0.3,0.3,0.3,0.8,0,1.1C108.2,138.4,108,138.5,107.8,138.5L107.8,138.5z M114.6,135.7c-0.4,0-0.8-0.3-0.8-0.8v-3.1
				c0-0.4,0.4-0.7,0.9-0.7c0.4,0,0.7,0.3,0.7,0.7v3.1C115.4,135.3,115,135.7,114.6,135.7C114.6,135.7,114.6,135.7,114.6,135.7
				L114.6,135.7z"/>
			<path id="Shape-59" class="st2" d="M176.2,71c-0.4,0-0.7-0.2-0.9-0.5c-0.2-0.3-0.1-0.8,0.1-1.1c0.1-0.2,0.4-0.4,0.6-0.4
				c0.1,0,0.1,0,0.2,0c0.5,0,0.9,0.3,1,0.8c0.1,0.5-0.2,1.1-0.8,1.2c0,0,0,0,0,0H176.2z"/>
			<path id="Shape-60" class="st2" d="M46,130c0.5,0,0.9-0.4,1-0.9c0.1-0.5-0.3-1-0.8-1.1H46c-0.4,0-0.7,0.2-0.9,0.5
				c-0.2,0.3-0.1,0.8,0.1,1.1c0.1,0.2,0.3,0.4,0.6,0.4L46,130z"/>
			<path id="Shape-61" class="st2" d="M86.5,50.1c-0.6,0.1-1-0.3-1.1-0.9s0.3-1,0.9-1.1c0.1,0,0.1,0,0.2,0c0.5,0,0.9,0.3,0.9,0.8
				c0.1,0.3,0,0.5-0.1,0.8c-0.1,0.2-0.4,0.4-0.6,0.4L86.5,50.1L86.5,50.1z"/>
			<path id="Shape-62" class="st2" d="M172.9,102h-0.1l-16.5-2.9c-0.3-0.1-0.6-0.3-0.6-0.7c-0.1-0.5-1.7-12.5,1.7-21
				c3.2-8,11.2-12.6,15-14.8c0.6-0.3,1.1-0.6,1.4-0.9c2.8-1.7,4.1-1.7,4.4-1.7l-0.2,1.6l0,0c0,0-1,0-3.3,1.5
				c-0.4,0.2-0.9,0.5-1.5,0.9c-3.7,2.1-11.4,6.6-14.4,14c-2.9,7.1-2,17.1-1.7,19.6l15,2.6c0-1.7,0.3-5.1,1.9-7.2
				c0.1-0.2,0.3-0.3,0.5-0.3c0.2,0,0.4,0,0.6,0.2c0.3,0.3,0.4,0.8,0.2,1.1c-1.7,2.3-1.6,7.1-1.6,7.2
				C173.6,101.6,173.3,101.9,172.9,102C172.9,102,172.9,102,172.9,102L172.9,102z"/>
			<path id="Shape-63" class="st6" d="M124,47v10.8c2.8,2.1,5.2,5.9,6.9,12.2h3.1V47H124z"/>
			<path id="Shape-64" class="st2" d="M135.2,70h-3.2c-0.4,0-0.7-0.2-0.8-0.6c-1.7-5.7-4-9.5-7-11.5c-0.2-0.1-0.3-0.4-0.3-0.6V46.8
				c0-0.4,0.3-0.8,0.8-0.8c0,0,0,0,0,0h10.4c0.4,0,0.8,0.3,0.8,0.8c0,0,0,0,0,0v22.5C135.9,69.6,135.6,70,135.2,70z M132.6,68.5h1.8
				V47.5h-8.9v9.4C128.6,59.2,130.9,63,132.6,68.5L132.6,68.5z"/>
			<path id="Shape-65" class="st0" d="M117.5,55.8c2.4,0,4.6,0.8,6.5,2.2V47h-10v9.1C115.1,55.8,116.3,55.7,117.5,55.8z"/>
			<path id="Shape-66" class="st2" d="M124.2,58c-0.2,0-0.3-0.1-0.5-0.1c-1.9-1.3-4.1-2-6.4-2h-0.5c-1,0-2,0.1-3,0.3
				c-0.2,0.1-0.5,0-0.7-0.2c-0.2-0.1-0.3-0.4-0.3-0.6v-8.7c0-0.4,0.4-0.8,0.8-0.8c0,0,0,0,0,0h10.4c0.4,0,0.8,0.3,0.8,0.8
				c0,0,0,0,0,0v10.5c0,0.3-0.2,0.5-0.4,0.7C124.4,58,124.3,58,124.2,58z M116.9,54.3h0.5c2.1,0,4.2,0.5,6,1.5v-8.3h-8.9v7
				C115.3,54.4,116.1,54.3,116.9,54.3z"/>
			<path id="Shape-67" class="st2" d="M193.5,70c-0.4,0-0.7-0.3-0.7-0.7c0-0.1-0.9-10-1.6-13.3c-0.1-0.4,0.1-0.8,0.5-0.9
				c0.4-0.1,0.8,0.2,0.8,0.5c0,0,0,0,0,0c0.7,3.4,1.6,13.1,1.6,13.5C194.2,69.6,193.9,69.9,193.5,70L193.5,70z"/>
			<path id="Shape-68" class="st2" d="M169,141c-0.4,0-0.7-0.3-0.7-0.7c-0.4-7,0.3-19.7,0.3-19.8c0,0,0-0.1,0-0.1
				c0-0.1,1.4-7.6,2.1-15.4c0.1-1,0.1-2.1,0-3.1c0-0.3,0.1-0.5,0.3-0.7c0.2-0.2,0.5-0.2,0.7-0.1c0.2,0.1,0.4,0.4,0.4,0.7
				c0.1,1.1,0.1,2.3,0,3.4c-0.7,7.5-2,14.8-2.1,15.5c-0.1,0.9-0.7,12.9-0.3,19.6C169.8,140.6,169.5,140.9,169,141L169,141z"/>
			<circle id="Oval-2" class="st8" cx="24.5" cy="43.5" r="18.5"/>
			<path id="Shape-69" class="st2" d="M0.8,44C0.3,44,0,43.7,0,43.2c0,0,0,0,0,0c-0.1-7.4,3.2-14.4,8.8-19.1c0.3-0.2,0.7-0.2,1,0.1
				c0,0,0,0,0,0c0.2,0.3,0.2,0.8-0.1,1.1c-5.3,4.4-8.3,10.9-8.3,17.8c0,0.2-0.1,0.4-0.2,0.6C1.1,43.9,0.9,44,0.8,44z"/>
			<path id="Shape-70" class="st4" d="M32.3,43.5c0-0.9-0.1-1.8-0.3-2.7l2-1.2l-2.2-3.8l-2.1,1.2c-1.2-1.3-2.8-2.2-4.5-2.6V32h-4.4
				v2.6c-1.7,0.4-3.2,1.3-4.3,2.6l-2.3-1.3L12,39.7l2.4,1.3c-0.5,1.6-0.5,3.4,0,5L12,47.3l2.2,3.8l2.3-1.3c1.2,1.3,2.7,2.2,4.3,2.6
				V55h4.3v-2.5c1.7-0.4,3.3-1.3,4.5-2.6l2.1,1.2l2.2-3.8l-2-1.2C32.2,45.3,32.4,44.4,32.3,43.5z M23,47.4c-2.2,0.1-4.1-1.6-4.2-3.8
				c-0.1-2.2,1.6-4.1,3.8-4.2c0.7,0,1.3,0.1,1.9,0.4c2,0.9,3,3.2,2.1,5.3c-0.2,0.4-0.5,0.8-0.8,1.2C25,47,24,47.4,23,47.4z"/>
			<path id="Shape-71" class="st2" d="M25.8,56.3h-4.4c-0.4,0-0.8-0.3-0.8-0.8v-2.1c-1.4-0.5-2.7-1.2-3.8-2.3l-1.9,1.1
				c-0.2,0.1-0.4,0.1-0.6,0.1c-0.2-0.1-0.4-0.2-0.5-0.4l-2.2-3.9c-0.2-0.4-0.1-0.8,0.3-1.1l1.9-1.1c-0.3-1.4-0.3-2.9,0-4.3L12,40.6
				c-0.4-0.2-0.5-0.7-0.3-1.1c0,0,0,0,0,0l2.2-3.9c0.1-0.2,0.3-0.3,0.5-0.4c0.2-0.1,0.4,0,0.6,0.1l1.8,1.1c1.1-1,2.3-1.8,3.8-2.3v-2
				c0-0.4,0.3-0.8,0.8-0.8h4.4c0.4,0,0.8,0.3,0.8,0.8c0,0,0,0,0,0v2c1.5,0.4,2.9,1.2,4,2.2l1.6-0.9c0.4-0.2,0.8,0,1,0.3l2.2,3.9
				c0.2,0.4,0.1,0.8-0.3,1.1l-1.5,0.9c0.4,1.5,0.4,3.1,0,4.7l1.5,0.9c0.4,0.2,0.5,0.7,0.3,1.1l-2.2,3.9c-0.1,0.2-0.3,0.3-0.5,0.4
				c-0.2,0-0.4,0-0.6-0.1l-1.6-1c-1.1,1-2.5,1.8-4,2.2v2C26.5,56.1,26.2,56.4,25.8,56.3z M22.1,54.8H25V53c0-0.4,0.2-0.7,0.6-0.8
				c1.6-0.4,3.1-1.2,4.3-2.4c0.2-0.3,0.6-0.3,0.9-0.1l1.5,0.8l1.4-2.5l-1.4-0.8C32,47,31.9,46.7,32,46.3c0.5-1.6,0.5-3.4,0-5
				c-0.1-0.3,0-0.7,0.4-0.9l1.4-0.8l-1.4-2.5L30.8,38c-0.3,0.2-0.7,0.1-0.9-0.1c-1.2-1.2-2.6-2-4.3-2.4C25.2,35.3,25,35,25,34.6
				v-1.8h-2.9v1.9c0,0.4-0.2,0.7-0.6,0.8c-1.6,0.4-3,1.3-4.1,2.4c-0.3,0.3-0.7,0.3-1,0.1l-1.7-1l-1.4,2.5l1.7,1
				c0.3,0.2,0.4,0.5,0.4,0.9c-0.4,1.5-0.4,3.1,0,4.7c0.1,0.3,0,0.7-0.4,0.9l-1.7,1l1.4,2.5l1.7-1c0.3-0.2,0.8-0.2,1,0.1
				c1.1,1.2,2.5,2.1,4.1,2.5c0.3,0.1,0.6,0.4,0.6,0.8L22.1,54.8z M23.6,48.6c-2.7,0-4.8-2.1-4.8-4.8c0-2.7,2.1-4.8,4.8-4.8
				s4.8,2.1,4.8,4.8c0,1.3-0.5,2.5-1.4,3.4C26.1,48.1,24.8,48.6,23.6,48.6z M23.6,40.6c-1.8,0-3.3,1.4-3.3,3.2
				c0,1.8,1.4,3.3,3.2,3.3c1.8,0,3.3-1.4,3.3-3.2c0,0,0,0,0,0C26.8,42,25.4,40.6,23.6,40.6z"/>
			<circle id="Oval-3" class="st5" cx="238.5" cy="74.5" r="25.5"/>
			<path id="Shape-72" class="st2" d="M271.6,74.6c-0.2,0-0.4-0.1-0.5-0.2c-0.1-0.1-0.2-0.3-0.2-0.5c0.1-10-5.2-19.4-14-24.3
				c-0.2-0.1-0.4-0.4-0.4-0.6c0-0.3,0.1-0.5,0.3-0.7c0.2-0.1,0.5-0.1,0.7,0c9.2,5.2,14.9,15,14.8,25.6c0,0.2-0.1,0.4-0.2,0.6
				C272,74.5,271.8,74.6,271.6,74.6z"/>
			<path id="Shape-73" class="st2" d="M238.5,58.2c-7,0.1-12.5,5.7-12.5,12.7v4.3c0.2,0.5,0.7,0.8,1.3,0.6c0.3-0.1,0.5-0.3,0.6-0.6
				v-4.3c-0.1-3.9,1.9-7.6,5.2-9.6c3.3-2,7.5-2,10.8,0c3.3,2,5.3,5.7,5.2,9.6v4.3c0,0.3,0.2,0.7,0.5,0.8c0.3,0.2,0.7,0.2,0.9,0
				c0.3-0.2,0.5-0.5,0.5-0.8v-4.3C251,64,245.5,58.3,238.5,58.2z"/>
			<polygon id="Shape-74" class="st5" points="227,86.4 250,86.4 250,72.4 227,72.4 			"/>
			<path id="Shape-75" class="st2" d="M239,75.2c0.9,0,1.6,0.5,1.9,1.3c0.2,0.8-0.1,1.7-0.8,2.1c-0.4,0.3-0.6,0.7-0.6,1.2v3.8
				c0,0.1,0,0.3-0.1,0.3c-0.1,0.1-0.2,0.2-0.4,0.2c-0.1,0-0.3-0.1-0.4-0.2c-0.1-0.1-0.2-0.2-0.2-0.3v-3.8c0-0.5-0.2-0.9-0.6-1.2
				c-0.7-0.4-1-1.3-0.8-2.1C237.4,75.8,238.1,75.2,239,75.2L239,75.2z"/>
			<path id="Shape-76" class="st2" d="M250.1,71.2H227c-0.5,0-1,0.5-0.9,1v14c0,0.3,0.1,0.5,0.3,0.7c0.2,0.2,0.4,0.3,0.7,0.3h23.1
				c0.5,0,0.9-0.4,0.9-0.9c0,0,0,0,0,0V72.2C251,71.6,250.6,71.2,250.1,71.2z M249.1,85.3h-21.2V73.1h21.3L249.1,85.3z"/>
			<path id="Shape-77" class="st9" d="M217.8,120.9c0,0,4.7-11.8,0.9-19.5s-8.2-8.3-13.9-9.7s-12.6-1-16-2.7c-2.1-1-4-2.4-5.6-4
				c0,0-3,6.8-3,11.9s1.4,5.7,1.4,5.7s-1,9.7-1,15.9s0.8,19,3.4,20.5c1.5,0.3,2.1-3.1,2.2-4.9c0.1-1.5-0.3-3-1-4.3
				c-0.5-0.9-1.6-2-1.3-4.1s1.2-6,2.4-6.1s1.6,0.3,1.9,1.2s0.9,2.3,1.6,2.5s1.4-3.7,1.4-5.6s0.5-5.4,2.2-6.6s3.2-2.8,7.4-2.6
				s9.5,0.8,13.6,4.5S217.8,120.9,217.8,120.9z"/>
			<g>
				<path class="st2" d="M215.4,107.2C215.4,107.2,215.4,107.2,215.4,107.2L215.4,107.2c0.2,0,0.5-0.1,0.6-0.3
					c0.2-0.2,0.2-0.4,0.2-0.6c0-0.1-0.4-8.3-8.5-10.8c-3.5-1.1-7.2-1.8-10.9-2.1c-1.4-0.1-2.7-0.3-4-0.6c-0.2-0.1-0.5-0.1-0.7,0
					c-0.2,0.1-0.4,0.3-0.4,0.5c-0.1,0.2-0.1,0.4,0,0.7c0.1,0.2,0.3,0.4,0.5,0.4c1.4,0.4,2.9,0.6,4.3,0.7c3.6,0.3,7.1,1,10.6,2.1
					c4.1,1.2,7.1,4.9,7.3,9.2C214.6,106.9,215,107.2,215.4,107.2z"/>
				<path class="st2" d="M234.4,166.6c-1.2-4.5-6.4-6.8-10.5-8.7l-1.2-0.5c-2.5-1.3-5-2.7-7.4-4.2c0-0.1,0-0.2,0-0.4
					c0-0.2-0.1-0.4-0.2-0.6c-0.2-0.2-0.4-0.2-0.6-0.3c-0.2,0-0.5,0.1-0.6,0.2c0,0-0.1,0.1-0.1,0.1c-0.7-0.4-1.3-0.9-2-1.3
					c-0.2-0.1-0.4-0.2-0.6-0.2c0,0,0-0.1,0-0.1c-0.9-1.5-2.4-2.6-4.1-2.8c-0.3-0.8-0.3-2.2-0.3-3c6.6-2.2,9.5-11.6,10.1-15.2
					c0.4-2.6,1-5.2,1.9-7.8l0,0l0-0.1c0.2-0.7,0.4-1.3,0.6-2l0.1-0.1c4.8-12.2-0.4-20-2.1-22.1l-0.4-0.5c-1.1-1.3-4.4-4.6-12-5.7
					c-1.5-0.2-3.1-0.4-4.7-0.6c-6.7-0.8-14.3-1.7-16.7-5.6c-0.2-0.3-0.5-0.4-0.8-0.4c-0.3,0-0.6,0.2-0.8,0.5
					c-0.4,0.9-4.2,9.3-2.8,14.7c0.2,1.1,0.6,2.1,1.1,3c-0.2,0.1-0.3,0.4-0.3,0.6c0,0,0,0.1,0,0.3c-0.5,4.6-1.2,13.3-0.9,19.3
					c0.4,5.8,1.1,11.1,1.7,14.5c0.2,1,0.6,1.9,1.3,2.7c0.4,0.5,1,0.8,1.7,0.9l0.1,0l0.1,0c0.2,0,0.4-0.1,0.6-0.2
					c-0.1,1.1-0.3,2.1-0.4,2.4l0,0c-2.2,2.1-4.4,4.4-4,6.1c1.6,9.7,14.4,11.5,15.9,11.7l0-0.2l0,0.2l0.1,0l0.1,0
					c0.3,0,0.6-0.2,0.7-0.5l2.3-4.6l0.7,10.6c0,0.3,0.2,0.6,0.6,0.7l0,0l0.1,0c0.4,0,0.6-0.3,0.7-0.6l1.7-11.6l1.3,4.4
					c0.1,0.3,0.3,0.5,0.5,0.6l0.1,0h0.1c0.2,0,0.4-0.1,0.5-0.2c0.1,0,4.7-3.7,5.8-7.6c0.8,0.5,1.6,1.1,2.4,1.6c-0.3,2.4-1,4.8-2,7
					c-2.6,5.5-6.7,8.7-12.5,9.4c-4.3,0.7-8.8-0.5-12.2-3.1c-4.5-3.5-7.6-9.8-8.2-16.9c0-0.2-0.2-0.4-0.4-0.6
					c0.3-0.2,0.6-0.5,0.9-0.7c0.3-0.3,0.3-0.8,0-1.2c-0.1-0.2-0.3-0.3-0.6-0.3c-0.2,0-0.4,0-0.6,0.2c-1.8,1.6-3.8,2.8-6,3.7
					c-0.5,0.2-1.1,0.4-1.8,0.6c-0.4,0.1-0.7,0.2-1.1,0.4c-5.4,1.6-13.6,4-15.2,11.3c-1.8,8-1.3,29.1,3.2,41.7
					c0.1,0.4,0.4,0.6,0.8,0.6c0,0,0,0,0.1,0h0.2l0,0c0.1,0.5,0.4,0.9,0.7,1.2c-0.6,0.5-0.9,1.2-0.9,2c0,1.1,0.6,2,1.5,2.4
					c-0.3,0.4-0.5,1-0.5,1.6c0,0.9,0.4,1.7,1.1,2.2c-0.1,0.2-0.1,0.5-0.1,0.8c0,1.5,1.2,2.7,2.7,2.7l0.1,0c1.7,0.1,3.5,0.1,5.2,0.1
					c4.4,0,10-0.3,12.2-1.5l0,0.3c-0.1,0.4,0.2,0.9,0.6,1c8.8,2.4,16.7,4.1,23.7,5.1c-7.9,1.4-28.4,5.1-30,5.3l-0.4,0
					c-2,0.2-4.9,0.5-6.8-2.6c-1.2-2-2.1-4.2-2.5-6.5c-0.1-0.4-0.5-0.7-1-0.7c-0.4,0-0.8,0.4-0.8,0.9c0,0.1,0,0.2,0.1,0.3
					c-0.2,0.2-0.4,0.4-0.4,0.7v0c0,0.2-0.2,21.7-0.7,28.1c0,0.1,0,0.3,0,0.4l0.1,0.2h1.7l0-0.2c0-0.1,0-0.1,0-0.2
					c0.4-4.9,0.6-18.2,0.7-24.6c0.4,0.9,0.8,1.7,1.3,2.5c1.2,2.2,3.6,3.5,6,3.5c0.1,0,0.3,0,0.4,0c0.7,0,1.3-0.1,2-0.1l0.4,0
					c2-0.2,32.9-5.8,33.2-5.9c0.3-0.1,0.6-0.3,0.7-0.6c3.4,0.4,6.6,0.6,9.6,0.6c0.3,0,0.5,0,0.8,0c0.4,0,0.8,0,1.2,0l0,23.5
					c0,0.1,0,0.2,0,0.3l0,0.2h1.4l0-0.2c0-0.1,0-0.2,0-0.3l0-23.6c2.2-0.1,4.3-0.5,6.4-1c6.3-1.7,7.9-9.3,9.3-16.7
					c0.3-1.4,0.5-2.7,0.8-3.8C239.6,195.1,235.5,171.3,234.4,166.6z M155.3,164.3c0.5-2.2,1.8-4,3.5-5.3c0.1,0.1,0.1,0.2,0.2,0.3
					c0.2,0.1,0.4,0.2,0.6,0.2c3.7-0.5,7.2,1.7,8.4,5.3c1.7,5,5,23.3,6.8,33.7l0,0.1l0.1,0.1c0.4,0.4,0.9,0.8,1.5,1.2l0.5,0.3
					l-0.1-0.6c-1.1-6.8-5-29.5-7.1-35.4c-2-5.6-6.7-6.4-9.1-6.5c2.7-1.6,6-2.7,8.6-3.5l0.7-0.2c1-0.3,1.9-0.6,2.5-0.9
					c1.6-0.6,3-1.4,4.4-2.4c0.7,7.4,3.9,14,8.8,17.7c3,2.3,6.8,3.6,10.6,3.6c0.1,0,0.2,0,0.3,0c0.9,0,1.8-0.1,2.7-0.2
					c6.3-0.8,11.1-4.4,13.8-10.4c1-2.1,1.6-4.3,2-6.6c2.3,1.4,4.6,2.7,6.9,3.9l1.2,0.6c1.1,0.5,2.3,1,3.5,1.7
					c-0.9,1-4.8,5.5-5.7,14.1c-0.5,5.4-0.9,11-1,14.7l0,0.3h1.7l0-0.2c0.2-3.7,0.5-9.3,1-14.6c0.9-8.6,5.1-13,5.3-13.2l0,0
					c0.1-0.1,0.1-0.1,0.1-0.2c2.2,1.3,4,2.9,4.6,5c1.2,4.6,5.2,28,3.4,36.2c-0.2,1.1-0.5,2.3-0.8,3.8c-1.4,7.2-2.8,14-8.1,15.4
					c-5.1,1.4-17.9,2.5-45.7-4.9l1.8-10.6c6,0.6,17,1.5,24.9,1.2c9.7-0.4,13.9,0.8,13.9,0.8c0.4,0.1,0.9-0.2,1-0.6
					c0.1-0.3,0-0.5-0.1-0.7c0.2-0.3,0.3-0.5,0.4-0.8l2.6-8.4c0.5-1.3-0.1-2.8-1.5-3.4c-0.2-0.1-0.4-0.1-0.6-0.1c0,0,0,0,0,0
					c-0.3,0-0.6,0.1-0.9,0.2l0-0.1c0.2-0.6,0.1-1.2-0.2-1.8c-0.3-0.5-0.8-0.9-1.4-1.1c-0.2-0.1-0.5-0.1-0.7-0.1
					c-0.6,0-1.1,0.2-1.6,0.6c-0.2-0.2-0.5-0.4-0.8-0.5c-0.2-0.1-0.5-0.1-0.7-0.1c-1,0-1.9,0.7-2.2,1.7l-0.2,0.7
					c-0.4-0.3-0.9-0.5-1.5-0.5c0,0,0,0,0,0c-1.2,0-2.3,0.9-2.6,2l-3.3,10c0,0.1-0.1,0.3-0.1,0.4c0,0.1,0,0.2,0,0.2
					c-8.6,0.3-20.7-0.8-24.5-1.2c0-0.1,0-0.1,0-0.2c-0.1-0.2-0.2-0.4-0.4-0.5l0,0c-0.1-0.1-0.3-0.2-0.8-0.5
					c-1.4-0.8-4.7-2.7-7.1-4.3l-1.5-1l-0.1-0.1c-2.7-1.9-5.3-3.6-7.9-2.8c-3.1,1-5.1,4.4-5.2,5.8c0,0.4,0,0.8,0.2,1.2
					c-1,0-1.8,0.6-2.3,1.4C154.1,191.7,153.6,172,155.3,164.3z M220.5,206.2c0-0.1,0-0.3,0.1-0.4l2.5-8.5l0-0.2
					c0.2-0.4,0.5-0.6,0.9-0.7h0.1c0.4,0.1,0.5,0.7,0.3,1.3l-2.6,8.5c0,0.1,0,0.1-0.1,0.2C221.5,206.4,221.1,206.3,220.5,206.2z
					 M220.2,193.9c0.1-0.4,0.5-0.6,0.9-0.5c0.4,0.1,0.6,0.5,0.5,0.9l-3.5,11.2l-0.2,0c-0.3,0-0.6-0.1-1-0.1l3.2-10.4
					c0.1-0.3,0.1-0.6,0.1-0.9L220.2,193.9z M214.9,205.5C214.9,205.5,214.9,205.5,214.9,205.5c-0.4,0-0.7,0-1.1,0l3.5-11.4
					c0.1-0.3,0.4-0.5,0.7-0.5c0.1,0,0.1,0,0.2,0c0.2,0.1,0.3,0.2,0.4,0.3L214.9,205.5z M214.4,196.7l-3,8.9h-1.6l3.1-9.2
					c0.2-0.6,0.7-1,1.1-0.9C214.4,195.7,214.6,196.2,214.4,196.7z M208,206.4L208,206.4L208,206.4L208,206.4z M165.4,202.9
					c0.1-0.1,0.2-0.2,0.2-0.3c1.1-1.2,1.4-1.2,1.3-1.2c0.5,0.1,0.8,0.5,0.9,0.9c0,0.2-0.1,0.5-0.9,0.6H165.4z M179,216.3
					c-3.2,1.8-16.6,1.2-16.7,1.1c-0.6,0-1-0.4-1-1c0-0.1,0-0.6,0-0.6c0,0,0.3,0,0.3,0c0,0,5.5,0.2,5.6-0.3c0.4,0,0.8-0.4,0.8-0.8
					c0.1-0.5-0.2-0.7-0.7-0.7c-0.1,0-0.1,0-0.2,0h-4.8c-0.6,0-1.2,0-1.7,0.3c-0.1-0.1-0.2-0.2-0.2-0.3c-0.2-0.3-0.2-0.7,0-1
					c0.2-0.3,0.5-0.5,0.9-0.5h5c0,0,0,0,0,0c0.2,0,0.4-0.1,0.6-0.2c0.2-0.2,0.2-0.4,0.3-0.6c0-0.5-0.5-1.1-1-1.1
					c0,0-0.7,0.1-0.9,0.1h-5c-0.4,0-0.7-0.2-0.9-0.5c-0.2-0.3-0.2-0.7,0-1c0.2-0.3,0.5-0.5,0.9-0.5h5c0.4,0,0.7-0.2,0.8-0.6
					c0.1-0.2,0.2-0.4,0.1-0.6c0-0.2-0.1-0.4-0.3-0.6c-0.2-0.1-0.4-0.2-0.6-0.2l-5,0c-0.1,0-0.1,0-0.2,0c-0.6,0-1-0.5-0.9-1.1
					c0-0.6,0.5-1,1.1-0.9l6.6,0c1.7-0.1,2.5-1.2,2.5-2.3c0-1.3-1-2.5-2.4-2.6c-1.1-0.1-2,0.8-2.8,1.8l0,0.1
					c-0.3,0.4-0.8,0.8-1.2,1.1c-0.3,0.1-0.6,0.1-0.9-0.1c-0.2-0.1-0.3-0.4-0.3-0.6c0.7-2,2.2-3.6,4.1-4.4c1.7-0.6,4,1,6.3,2.6l0.1,0
					c0.2,0.1,0.4,0.3,0.6,0.4c0.3,0.2,0.6,0.4,0.9,0.6c3.1,2.1,7.7,4.7,7.9,4.8l-1.8,10.4C179.8,216.2,179.4,216.1,179,216.3z
					 M198.1,154.1l-2.8,5.4c-11.6-1.9-13.5-8.3-13.8-10.2c-0.1-0.3,0.1-1.3,2.7-3.9C185.6,147.9,189.5,153.2,198.1,154.1z
					 M201.8,151.8c0,0,0,0.1-0.1,0.2c-0.1,0.1-0.1,0.2-0.2,0.3l-1.1,7.7l-0.4-6.3l0,0c0.1-0.2,0.1-0.6,0-0.8c0-0.1-0.1-0.1-0.1-0.1
					c0-0.1-0.1-0.3-0.2-0.4c-0.1-0.1-0.3-0.2-0.5-0.2c-0.2,0-0.3,0.1-0.5,0.2c-9.3-0.8-12.8-7-13.5-8.5c0.6-1.7,0.8-5.6,0.8-6.3
					c0-0.3-0.2-0.6-0.4-0.7c0.2-1.5,0.2-3.1,0-4.1c-0.1-0.9-0.5-1.8-1.1-2.5c-0.5-0.6-0.9-1.1-0.8-3.3c0.1-3.1,0.9-4.7,1.6-5.2
					c0.1-0.1,0.3-0.2,0.5-0.1c0.2,0,0.4,0.7,0.6,1.2l0,0.1c0.1,0.6,0.3,1.1,0.6,1.6c0.4,0.7,1.3,1,2.1,0.7c1.6-0.4,1.7-2.5,1.8-5
					l0-0.1c0.1-2.2,0.2-4.7,1.2-6.5c1-1.7,4.4-3.2,4.4-3.2c0.2-0.1,0.4-0.2,0.5-0.4c0-0.1,0-0.1,0.1-0.2c5.3-0.6,11.7,0.2,15.8,3.3
					c2.5,1.9,4,5,3.9,8.1c-0.9,2.6-1.5,5.3-1.9,8c-0.4,2.8-3.5,14.2-11.3,14.2h-0.4c-6.8-0.3-10.8-2.3-11.1-5.3
					c0-0.3-0.2-0.6-0.5-0.7c-0.3-0.1-0.6-0.1-0.9,0.1c-0.3,0.2-0.4,0.5-0.4,0.8c0.4,4,5,6.5,12.7,6.9h0.5c0.5,0,1,0,1.5-0.1
					c0,1.6,0.2,2.8,0.6,3.5c-0.9,1.1-2.3,2.5-3.3,2.8C202.1,151.5,201.9,151.6,201.8,151.8z M190.8,120.2L190.8,120.2
					C190.8,120.2,190.8,120.2,190.8,120.2L190.8,120.2z M194.5,108.6c-6.4,1.4-12.1-2.4-13.7-9.1c-1-4,1.4-10.3,2.2-12.2
					c3.3,3.6,10,4.3,17,5.2c1.4,0.2,3.1,0.4,4.6,0.6c7.6,1.1,10.5,4.6,10.8,5l0.5,0.6c5.8,7.1,3.3,16.1,2.2,19.2
					c-0.7-2.4-2.1-4.5-4.1-5.9c-3.7-2.9-8.7-3.9-13.3-3.9C198.5,108,196.3,108.2,194.5,108.6z M184.7,108.4c2.5,1.6,5.4,2.3,8.3,2.1
					c-0.9,0.6-1.8,1.4-2.3,2.3c-1.2,2.1-1.3,4.9-1.4,7.2c0,0.9-0.1,3.3-0.5,3.4c-0.1,0-0.1,0-0.2,0c-0.2-0.3-0.3-0.7-0.4-1.2
					c-0.3-0.9-0.6-2.2-1.8-2.5c-0.7-0.2-1.4,0-2,0.4c-1.3,1-2.1,3.3-2.2,6.5c-0.1,2.9,0.6,3.7,1.2,4.5c0.4,0.4,0.7,1,0.7,1.6
					c0.3,2.3-0.2,5.7-0.7,6.5c-0.1-0.1-0.3-0.2-0.4-0.3c-0.5-0.5-0.7-1.1-0.8-1.8c-0.8-4.7-1.3-9.5-1.6-14.3
					c-0.4-5.9,0.4-14.5,0.7-18C182.2,106.3,183.4,107.5,184.7,108.4z M207.1,149.5c1,0.2,1.8,0.8,2.4,1.7c-0.3,2.5-3,5.4-4.4,6.7
					l-1.5-5.2C204.9,151.9,206.1,150.8,207.1,149.5z"/>
				<path class="st2" d="M220.3,219.3c-3.2,0.2-6.4,0.2-9.6,0c-4.3-0.4-19.8-3.5-19.9-3.6c-0.5-0.1-0.9,0.2-1,0.7
					c-0.1,0.5,0.2,0.9,0.7,1c0.2,0,15.6,3.2,20.1,3.6c1.4,0.2,3.1,0.2,4.5,0.2c2.8,0,5.1-0.2,5.3-0.2c0.3,0,0.6-0.2,0.8-0.5
					c0.2-0.3,0.2-0.6,0-0.9C221,219.4,220.6,219.3,220.3,219.3z"/>
				<path class="st2" d="M158.1,187.2c0.2,0,0.4-0.2,0.6-0.3c0.1-0.2,0.2-0.4,0.2-0.6c-0.3-1.6-0.8-15.6,0.4-19.9
					c0.2-1.1,0.9-2.2,1.8-2.8c0.3-0.2,0.7-0.2,1.1-0.2c0.3,0.1,0.6,0,0.8-0.1c0.2-0.2,0.4-0.5,0.3-0.8c-0.1-0.3-0.3-0.5-0.6-0.6
					c-0.8-0.2-1.7-0.1-2.4,0.3c-1.4,0.9-2.4,2.3-2.6,3.9c-1.3,4.6-0.7,18.9-0.4,20.6c0.1,0.4,0.4,0.7,0.8,0.7c0,0,0,0,0,0
					L158.1,187.2z"/>
				<path class="st2" d="M196.4,177.2c1.4,0,2.7-0.1,4-0.4c5.8-1.2,11-4.7,14.2-9.6c1.6-2.3,2.8-4.8,3.6-7.5
					c0.1-0.4-0.2-0.8-0.6-0.9c-0.4-0.1-0.9,0.1-1,0.6c0,0.1-3.5,13.3-16.5,15.9c-8.5,1.7-15.9-2.5-18.7-7.4
					c-0.2-0.4-0.8-0.5-1.1-0.3c-0.4,0.2-0.6,0.7-0.3,1.1C182.9,173.9,189.4,177.2,196.4,177.2z"/>
				<path class="st2" d="M188.6,91.8L188.6,91.8c-0.3,0-0.5,0-0.6,0.2c-0.2,0.1-0.2,0.3-0.3,0.5c0,0.2,0,0.4,0.2,0.5
					c0.1,0.2,0.3,0.2,0.5,0.3h0.1c0,0,0,0,0.1,0c0.2,0,0.3-0.1,0.5-0.2c0.2-0.1,0.2-0.3,0.3-0.5c0-0.2,0-0.4-0.2-0.5
					C189,91.9,188.8,91.8,188.6,91.8z"/>
				<path class="st2" d="M178.4,167.3L178.4,167.3l0.2,0c0.4,0,0.7-0.3,0.7-0.7c0-0.4-0.2-0.7-0.6-0.8l-0.2,0
					c-0.4,0-0.7,0.3-0.7,0.6c0,0.2,0,0.4,0.1,0.6C178,167.1,178.2,167.2,178.4,167.3z"/>
				<path class="st2" d="M187.6,214.8h-0.1c-0.3,0-0.6,0.2-0.7,0.6c0,0.2,0,0.4,0.1,0.6c0.1,0.1,0.2,0.2,0.4,0.3v0.1h0.2
					c0.3,0,0.7-0.2,0.7-0.6c0.1-0.2,0-0.4-0.1-0.6C188,214.9,187.8,214.8,187.6,214.8z"/>
			</g>
			<circle id="Oval-4" class="st5" cx="70.5" cy="85.5" r="14.5"/>
			<path id="Shape-107" class="st2" d="M56.6,73c0.2,0,0.3-0.1,0.5-0.2c5.5-5.6,13.9-7.2,21.1-4.1c0.3,0.1,0.6,0,0.8-0.3
				c0.1-0.3,0-0.6-0.3-0.8C71,64.4,62.1,66.1,56.2,72C56,72.2,56,72.4,56,72.6C56.2,72.9,56.4,73,56.6,73L56.6,73z"/>
			<path id="Shape-108" class="st4" d="M72.3,89.9l0.1-0.1L65.5,84l-0.1,0.1c-0.8,1.1-2.4,1.3-3.5,0.4c-0.4-0.3-0.6-0.7-0.8-1.1
				c-0.3-0.9-0.2-1.8,0.4-2.5c0.1-0.1,0.3-0.3,0.4-0.4c0.1,0.6,0.4,1.1,0.9,1.5c0.9,0.7,2.1,0.7,3,0.1c0.4-0.8,0.3-1.7-0.2-2.4
				c-0.5-0.7-1.3-1.1-2.1-1.1c0.1-0.2,0.2-0.3,0.3-0.5c0.6-0.7,1.5-1.1,2.4-1c0.9,0.1,1.7,0.7,2,1.6c0.3,0.9,0.2,1.8-0.4,2.5
				l-0.1,0.1l7,5.8c0.9-1,2.4-1.1,3.4-0.3c1,0.9,1.2,2.4,0.4,3.5c-0.1,0.2-0.3,0.3-0.4,0.4c-0.2-0.8-0.7-1.5-1.5-1.8
				c-0.8-0.3-1.7-0.2-2.3,0.3c-0.3,0.8-0.3,1.7,0.2,2.4c0.5,0.7,1.3,1.2,2.1,1.1c-0.1,0.2-0.2,0.3-0.3,0.5c-0.9,1.1-2.4,1.2-3.5,0.4
				c0,0,0,0,0,0c-1.1-0.9-1.2-2.5-0.4-3.6L72.3,89.9z"/>
			<path id="Shape-109" class="st2" d="M70,120.3v-1.6c0-0.3,0.2-0.5,0.5-0.5s0.5,0.2,0.5,0.5v1.6c0,0.2-0.1,0.4-0.2,0.6
				c-0.2,0.1-0.4,0.1-0.5,0C70.1,120.8,70,120.5,70,120.3z M70,115v-1.6c0-0.2,0.1-0.4,0.2-0.6c0.2-0.1,0.4-0.1,0.5,0
				c0.2,0.1,0.3,0.4,0.2,0.6v1.6c0,0.3-0.2,0.5-0.5,0.5S70,115.3,70,115z M70,109.6V108c0-0.2,0.1-0.4,0.2-0.6
				c0.2-0.1,0.4-0.1,0.5,0c0.2,0.1,0.3,0.4,0.2,0.6v1.6c0,0.2-0.1,0.4-0.2,0.6c-0.2,0.1-0.4,0.1-0.5,0C70.1,110,70,109.8,70,109.6
				L70,109.6z M70,104.3v-1.6c0-0.2,0.1-0.4,0.2-0.6c0.2-0.1,0.4-0.1,0.5,0c0.2,0.1,0.3,0.4,0.2,0.6v1.6c0,0.2-0.1,0.4-0.2,0.6
				c-0.2,0.1-0.4,0.1-0.5,0C70.1,104.7,70,104.5,70,104.3L70,104.3z"/>
		</g>
	</g>
</g>
</svg>
