<svg xmlns="http://www.w3.org/2000/svg" viewBox="0 0 480.83 331.02"><defs><style>.cls-1{fill:#1c3e58;}.cls-2{fill:#bcd6e0;}.cls-3{fill:#91c9d3;}.cls-4{fill:#fff;}.cls-5{fill:#e55353;}.cls-6{fill:#fabf62;}.cls-7{fill:#62afbd;}.cls-8{fill:#47a5b5;}.cls-9{fill:none;}.cls-10{fill:#ebf0f6;}.cls-11{fill:#cbcbca;}</style></defs><title>team_mb</title><g id="Layer_2" data-name="Layer 2"><g id="text"><path class="cls-1" d="M415,53.32c4.95,0,9.61-2.22,13.89-6.62a1,1,0,0,0-1.43-1.39C422.83,50,418,52,412.73,51.16c-5-.74-6.69-13.83-6.33-17.85.08-1,.14-1.91.19-2.82.14-2.22.28-4.52.83-5.16a1,1,0,1,0-1.51-1.3c-1,1.15-1.12,3.33-1.31,6.34-.05.89-.11,1.81-.19,2.77-.29,3.27.88,18.92,8,20A16.9,16.9,0,0,0,415,53.32Z"/><path class="cls-2" d="M411.81,25.71c-6.45.69-9.33-5.43-9.37-5.62-1.88-8.18-.35-16.62,0-18.92a16.8,16.8,0,0,0,14.32,8.61c10.39.43,19.69,6.13,20.28,14.06s-2.38,21.4-2.38,21.4-1.37,3.49-4.35,2.73-2.56-3.41-1.54-7.59,1.11-6.39-2-7-3.5-.85-3.33-4.17S416.79,25.17,411.81,25.71Z"/><path class="cls-1" d="M430.06,48.93c-4.15-1.06-3.14-5.17-2.25-8.79.58-2.36.85-4.11.31-5-.09-.15-.38-.59-1.58-.82-3.47-.66-4.33-1.25-4.13-5.21a1.19,1.19,0,0,0-.37-.93c-1-1-3.75-1.69-7.2-1.69a28.3,28.3,0,0,0-2.93.16,10.46,10.46,0,0,1-1.11.06c-6.2,0-9.16-5.68-9.34-6.44-1.79-7.83-.56-15.77-.09-18.76l.08-.54a1,1,0,0,1,1.88-.28,15.67,15.67,0,0,0,13.47,8c11.5.48,20.63,6.92,21.24,15s-2.29,21.13-2.41,21.69a.78.78,0,0,1-.05.14c-.05.14-1.39,3.47-4.43,3.47A4.13,4.13,0,0,1,430.06,48.93Zm6-25c-.53-7.06-8.84-12.71-19.34-13.14A17.83,17.83,0,0,1,403,3.92a46.22,46.22,0,0,0,.35,15.87c.22.46,2.5,5,7.41,5,.29,0,.6,0,.9,0a27,27,0,0,1,3.14-.17c2.41,0,6.74.3,8.64,2.3a3.19,3.19,0,0,1,.92,2.42,5.15,5.15,0,0,0,.19,2.42,5.3,5.3,0,0,0,2.32.72,4.12,4.12,0,0,1,2.89,1.7c.93,1.45.68,3.48-.06,6.51-1.15,4.72-1,5.91.82,6.38a2.46,2.46,0,0,0,.59.08h0c1.52,0,2.39-1.79,2.55-2.14C434,43.77,436.6,31.28,436.05,23.92Z"/><path class="cls-1" d="M433.93,138.3a15.77,15.77,0,0,0,13.49-7c4.45-6.78,5.44-40.27,4.19-49.44-1-7.32-10.16-13.6-14.08-16.29l-1-.68a76.2,76.2,0,0,0-7.16-4.06,35.08,35.08,0,0,1-5.46-3.17c-1.6-1.46-1.83-6.16-1.87-7.57a1,1,0,0,1,1-1,1,1,0,0,1,1,1c.06,2.48.56,5.54,1.21,6.13a41.44,41.44,0,0,0,5.05,2.88,77.94,77.94,0,0,1,7.37,4.2l1,.67c4.48,3.07,13.81,9.46,14.93,17.66,1.14,8.39.49,43.2-4.5,50.8a17.24,17.24,0,0,1-9,6.91h-7.18A1,1,0,0,1,433.93,138.3Z"/><path class="cls-1" d="M440.48,107.21a98.64,98.64,0,0,0,12.44-1,1,1,0,1,0-.29-2c-3.89.56-14.26,1.63-18,.35.23-2.75.62-10.21-1.62-12.58a1,1,0,1,0-1.44,1.37c1.44,1.53,1.38,8,1,11.74a1,1,0,0,0,.52,1C434.62,106.94,437.44,107.21,440.48,107.21Z"/><path class="cls-1" d="M400.81,130.8l.17,0c2.75-.47,21.28-2.7,29.11-3.64a4.75,4.75,0,0,0,4.18-4.22l1.86-17a1,1,0,1,0-2-.21l-1.86,17a2.78,2.78,0,0,1-2.43,2.46c-7.85.94-26.42,3.18-29.21,3.66a1,1,0,0,0-.82,1.15A1,1,0,0,0,400.81,130.8Z"/><path class="cls-1" d="M394,127c6.92,0,12.55,5.36,12.55,12a1,1,0,0,1-.07.34h-1.87a1.28,1.28,0,0,1-.06-.34c0-5.49-4.73-10-10.55-10s-10.55,4.47-10.55,10a1,1,0,0,1-.07.34h-1.87a1.28,1.28,0,0,1-.06-.34C381.49,132.37,387.12,127,394,127Z"/><path class="cls-1" d="M401.52,67.76a1,1,0,0,0,.35-.06c8.95-3.37,10.85-15.1,10.92-15.6A1,1,0,0,0,412,51a1,1,0,0,0-1.14.84c0,.11-1.8,11.08-9.65,14a1,1,0,0,0-.58,1.28A1,1,0,0,0,401.52,67.76Z"/><path class="cls-1" d="M413.09,76a5.59,5.59,0,0,0,2-.41c4.78-1.78,12.22-8.83,15-15.6a1,1,0,0,0-1.84-.77c-2.8,6.74-10.09,13.09-13.89,14.5a2.47,2.47,0,0,1-1.58.24c-1.67-.84-4-7-5.15-11.06a1,1,0,0,0-1.22-.69,1,1,0,0,0-.7,1.23c.5,1.78,3.12,10.77,6.18,12.3A2.73,2.73,0,0,0,413.09,76Z"/><path class="cls-1" d="M415.9,64.82c3.12,0,8.42-6,9.46-7.26a1,1,0,0,0-.12-1.4,1,1,0,0,0-1.4.11c-2.32,2.72-6.32,6.56-7.94,6.56s-3.92-3.09-5.12-5.28a1,1,0,0,0-1.75,1C409.61,59.57,412.66,64.82,415.9,64.82Z"/><path class="cls-1" d="M397.85,128.32h.06a1,1,0,0,0,.93-1.06l-1.43-22a1,1,0,0,0-1.07-.93,1,1,0,0,0-.93,1.06l1.44,22A1,1,0,0,0,397.85,128.32Z"/><circle class="cls-3" cx="266.53" cy="106.21" r="24.93" transform="translate(-17.27 64.08) rotate(-13.28)"/><path class="cls-1" d="M256.7,137.85a1.06,1.06,0,0,1-.31,0,33.51,33.51,0,0,1-20.86-19.76,1,1,0,0,1,1.87-.71A31.47,31.47,0,0,0,257,135.91a1,1,0,0,1-.3,1.94Z"/><path class="cls-1" d="M241.7,86.74a1,1,0,0,1-.77-1.63A33.1,33.1,0,0,1,266.53,73a1,1,0,0,1,0,2,31.07,31.07,0,0,0-24.06,11.35A1,1,0,0,1,241.7,86.74Z"/><path class="cls-4" d="M266.53,122.83s14.58-11.13,14.32-24.18c0,0-13.17-1.94-14.32-9.06-1.15,7.12-14.32,9.06-14.32,9.06C252,111.7,266.53,122.83,266.53,122.83Z"/><path class="cls-1" d="M266.53,123.83a1,1,0,0,1-.6-.21c-.61-.46-15-11.59-14.71-25a1,1,0,0,1,.85-1c.12,0,12.46-1.93,13.48-8.24a1,1,0,0,1,1-.84h0a1,1,0,0,1,1,.84c1,6.32,13.36,8.22,13.48,8.24a1,1,0,0,1,.85,1c.26,13.4-14.1,24.53-14.71,25A1,1,0,0,1,266.53,123.83ZM253.21,99.49c.32,10.57,10.68,19.86,13.32,22.06,2.64-2.2,13-11.5,13.32-22.06-2.62-.5-10.44-2.37-13.32-7.1C263.66,97.12,255.84,99,253.21,99.49Z"/><path class="cls-1" d="M266.53,113a1,1,0,0,1-.8-.4l-5.62-7.52a1,1,0,0,1,1.6-1.2l4.71,6.3c1.35-2.35,4.24-7.16,6.58-9.46a1,1,0,0,1,1.4,1.43c-2.88,2.83-6.95,10.26-7,10.33a1,1,0,0,1-.81.52Z"/><path class="cls-1" d="M272.73,75.68a1,1,0,0,1-1-.84,1,1,0,0,1,.16-.78,1,1,0,0,1,.66-.44.76.76,0,0,1,.21,0,1,1,0,0,1,1,.84,1.06,1.06,0,0,1-.82,1.23l-.21,0Z"/><path class="cls-1" d="M266.53,196a1,1,0,0,1-1-1V192.4a1,1,0,0,1,2,0V195A1,1,0,0,1,266.53,196Zm0-8.75a1,1,0,0,1-1-1v-2.63a1,1,0,0,1,2,0v2.63A1,1,0,0,1,266.53,187.28Zm0-8.76a1,1,0,0,1-1-1V174.9a1,1,0,1,1,2,0v2.63A1,1,0,0,1,266.53,178.52Zm0-8.75a1,1,0,0,1-1-1v-2.62a1,1,0,1,1,2,0v2.62A1,1,0,0,1,266.53,169.77Zm0-8.75a1,1,0,0,1-1-1V157.4a1,1,0,1,1,2,0V160A1,1,0,0,1,266.53,161Zm0-8.75a1,1,0,0,1-1-1v-2.62a1,1,0,1,1,2,0v2.62A1,1,0,0,1,266.53,152.27Zm0-8.75a1,1,0,0,1-1-1v-2.63a1,1,0,0,1,2,0v2.63A1,1,0,0,1,266.53,143.52Zm0-8.76a1,1,0,0,1-1-1v-2.63a1,1,0,0,1,2,0v2.63A1,1,0,0,1,266.53,134.76Z"/><path class="cls-1" d="M378.82,133.09a1.18,1.18,0,0,0,1.18-1.18v-6.09a1.18,1.18,0,0,0-1-1.17l-20.62-3A1.18,1.18,0,1,0,358,124l19.61,2.83v5.07A1.18,1.18,0,0,0,378.82,133.09Z"/><path class="cls-1" d="M348.86,137.27a1.18,1.18,0,0,0,1.18-1.19V89.22a1.18,1.18,0,0,0-2.36,0v46.86A1.18,1.18,0,0,0,348.86,137.27Z"/><path class="cls-1" d="M359.29,137.27h.1a1.18,1.18,0,0,0,1.08-1.27l-3.6-43.83a1.17,1.17,0,0,0-1.27-1.08,1.19,1.19,0,0,0-1.09,1.28l3.6,43.82A1.19,1.19,0,0,0,359.29,137.27Z"/><path class="cls-1" d="M388.56,107.43A9.46,9.46,0,0,0,398,98V49.75a9.45,9.45,0,0,0-9.45-9.44h-.11L346.4,44.44A9.46,9.46,0,0,0,337,53.88V96.12a9.47,9.47,0,0,0,9.42,9.45l2,.08h.06a1.18,1.18,0,0,0,.05-2.36l-2-.09h-.05a7.09,7.09,0,0,1-7.08-7.08V53.88a7.09,7.09,0,0,1,7.08-7.08h.12l42-4.13a7.09,7.09,0,0,1,7,7.08V98a7.09,7.09,0,0,1-7.05,7.08l-31.46-1.4A1.18,1.18,0,1,0,357,106l31.49,1.4Z"/><path class="cls-1" d="M345.31,83.06a10.4,10.4,0,0,1,10.38-10.38,1.18,1.18,0,0,1,1.19,1.18v18.4a1.18,1.18,0,0,1-1.19,1.18A10.39,10.39,0,0,1,345.31,83.06Zm2.37,0A8,8,0,0,0,354.51,91V75.13A8,8,0,0,0,347.68,83.06Z"/><path class="cls-1" d="M390.22,85.73a1.18,1.18,0,0,0,1.18-1.18v-29a9,9,0,0,0-9.5-8.94l-4.41.28a1.18,1.18,0,1,0,.14,2.36l4.41-.27a6.57,6.57,0,0,1,7,6.57V84.55A1.18,1.18,0,0,0,390.22,85.73Z"/><path class="cls-1" d="M390.22,94.27a1.39,1.39,0,0,0,.27-2.75,1.24,1.24,0,0,0-.27,0,1.39,1.39,0,0,0-1.36,1.11,1.33,1.33,0,0,0,.2,1,1.4,1.4,0,0,0,.88.6,1.27,1.27,0,0,0,.28,0Z"/><path class="cls-2" d="M360.75,301.54l-3.41,2.88a4.15,4.15,0,0,1-5.37-6.34l3.41-2.88-.48-.57a6.69,6.69,0,0,0-9.43-.78h0a6.69,6.69,0,0,0-.78,9.43l-12.14,10.28a25.24,25.24,0,0,0,.79,2.52l1.2,3.5,1.5,4.5,15.29-12.95-.32-.38a6.68,6.68,0,0,0,9.43.79h0a6.69,6.69,0,0,0,.79-9.44Z"/><path class="cls-1" d="M361.52,300.89a1,1,0,0,0-1.42-.12l-3.41,2.88a3.14,3.14,0,1,1-4.06-4.8L356,296a1,1,0,0,0,.12-1.42l-.48-.57a7.7,7.7,0,0,0-12.35,9.14l-11.42,9.67a1,1,0,0,0-.33,1c.31,1.12.58,2,.83,2.61l1.19,3.47,1.49,4.5a1,1,0,0,0,.69.65,1.26,1.26,0,0,0,.27,0,1,1,0,0,0,.65-.24l14.63-12.39a7.71,7.71,0,0,0,10.68-11Zm-1.73,9.88a5.68,5.68,0,0,1-8-.66h0a1,1,0,0,0-1.42-.12,1,1,0,0,0-.34.94l-13.5,11.43-1-3.1-1.2-3.5,0-.05a17,17,0,0,1-.59-1.79l11.65-9.86a1,1,0,0,0,.11-1.42,5.69,5.69,0,0,1,8.51-7.55l-2.64,2.23a5.18,5.18,0,0,0-.6,7.28,5.16,5.16,0,0,0,7.28.6l2.63-2.23A5.69,5.69,0,0,1,359.79,310.77Z"/><path class="cls-1" d="M395.57,174.66a24.08,24.08,0,1,0,24.08,24.08A24.1,24.1,0,0,0,395.57,174.66Zm0,46.15a22.07,22.07,0,1,1,22.07-22.07A22.09,22.09,0,0,1,395.57,220.81Z"/><path class="cls-1" d="M383.91,193.22a1,1,0,0,0-1,1v9.5a1,1,0,1,0,2,0v-9.5A1,1,0,0,0,383.91,193.22Z"/><path class="cls-1" d="M387,189.26a6.05,6.05,0,0,0-6.22,0,1,1,0,0,0-.32,1.38,1,1,0,0,0,1.39.33,4,4,0,0,1,4.07,0,1,1,0,0,0,.54.16,1,1,0,0,0,.54-1.86Z"/><path class="cls-1" d="M388,186.29a10.85,10.85,0,0,0-8.13,0,1,1,0,0,0,.82,1.85,8.86,8.86,0,0,1,6.5,0,1,1,0,0,0,.4.09,1,1,0,0,0,.41-1.93Z"/><path class="cls-1" d="M407.8,193.19a1,1,0,0,0-1,1v9.5a1,1,0,0,0,2,0v-9.5A1,1,0,0,0,407.8,193.19Z"/><path class="cls-1" d="M410.91,189.24a6.05,6.05,0,0,0-6.23,0,1,1,0,0,0,1.08,1.7,4,4,0,0,1,4.07,0,1.09,1.09,0,0,0,.54.16,1,1,0,0,0,.85-.47A1,1,0,0,0,410.91,189.24Z"/><path class="cls-1" d="M411.86,186.27a10.74,10.74,0,0,0-8.13,0,1,1,0,1,0,.82,1.84,8.75,8.75,0,0,1,6.5,0,1,1,0,0,0,.4.09,1,1,0,0,0,.93-.6A1,1,0,0,0,411.86,186.27Z"/><path class="cls-1" d="M161.69,290.8a1,1,0,0,0-1,1V331h2V291.81A1,1,0,0,0,161.69,290.8Z"/><path class="cls-1" d="M204.25,150.63H161.69a1,1,0,0,0-1,1v104a1,1,0,0,0,2,0v-103h41.55a1,1,0,1,0,0-2Z"/><path class="cls-1" d="M281.05,150.63H204.69a1,1,0,1,0,0,2h76.36a1,1,0,0,0,0-2Z"/><path class="cls-1" d="M251.51,174.66H179.7a1,1,0,0,0-1,1v83.5a1,1,0,0,0,2,0V176.67h70.8a1,1,0,1,0,0-2Z"/><path class="cls-1" d="M179.7,287.24a1,1,0,0,0-1,1V331h2V288.24A1,1,0,0,0,179.7,287.24Z"/><path class="cls-1" d="M263,285.26a1,1,0,0,0-1,1V331h2V286.27A1,1,0,0,0,263,285.26Z"/><path class="cls-1" d="M193.29,160.38h-26a1,1,0,0,0-1,1v83.27a1,1,0,0,0,2,0V162.4h25a1,1,0,1,0,0-2Z"/><path class="cls-1" d="M238.35,194.07H179.7a1,1,0,0,0,0,2h58.65a1,1,0,0,0,0-2Z"/><path class="cls-1" d="M248.77,216.93H179.7a1,1,0,0,0,0,2h69.07a1,1,0,1,0,0-2Z"/><path class="cls-1" d="M263,239.8H179.7a1,1,0,1,0,0,2H263a1,1,0,1,0,0-2Z"/><path class="cls-1" d="M263,262.66H183.27a1,1,0,1,0,0,2H263a1,1,0,1,0,0-2Z"/><path class="cls-1" d="M263,285.52H181.37a1,1,0,1,0,0,2H263a1,1,0,1,0,0-2Z"/><path class="cls-1" d="M263,308.38H179.7a1,1,0,1,0,0,2H263a1,1,0,1,0,0-2Z"/><rect class="cls-5" x="187.84" y="182.89" width="25.05" height="5.3"/><path class="cls-1" d="M212.89,202.71h-25a1,1,0,0,0-1,1V209a1,1,0,0,0,1,1h25a1,1,0,0,0,1-1v-5.3A1,1,0,0,0,212.89,202.71Zm-1,5.3h-23v-3.28h23Z"/><rect class="cls-3" x="187.84" y="226.72" width="25.05" height="5.3"/><path class="cls-1" d="M212.89,247.85h-25a1,1,0,0,0-1,1v5.3a1,1,0,0,0,1,1h25a1,1,0,0,0,1-1v-5.3A1,1,0,0,0,212.89,247.85Zm-1,5.3h-23v-3.28h23Z"/><path class="cls-1" d="M212.89,271.11h-25a1,1,0,0,0-1,1v5.3a1,1,0,0,0,1,1h25a1,1,0,0,0,1-1v-5.3A1,1,0,0,0,212.89,271.11Zm-1,5.3h-23v-3.28h23Z"/><rect class="cls-6" x="187.84" y="294.64" width="25.05" height="5.3"/><path class="cls-1" d="M212.89,316.39h-25a1,1,0,0,0-1,1v5.3a1,1,0,0,0,1,1h25a1,1,0,0,0,1-1v-5.3A1,1,0,0,0,212.89,316.39Zm-1,5.3h-23v-3.28h23Z"/><path class="cls-1" d="M434.39,150.63H315a1,1,0,0,0,0,2H433.38v81a1,1,0,1,0,2,0v-82A1,1,0,0,0,434.39,150.63Z"/><path class="cls-1" d="M434.39,290.86a1,1,0,0,0-1,1V331h2V291.87A1,1,0,0,0,434.39,290.86Z"/><path class="cls-1" d="M416.38,174.66H333a1,1,0,0,0-1,1v31.48a1,1,0,0,0,2,0V176.67h81.32v6.22a1,1,0,0,0,2,0v-7.23A1,1,0,0,0,416.38,174.66Z"/><path class="cls-1" d="M416.38,274.54a1,1,0,0,0-1,1V331h2V275.55A1,1,0,0,0,416.38,274.54Z"/><path class="cls-1" d="M416.38,213.79a1,1,0,0,0-1,1v35.12a1,1,0,1,0,2,0V214.8A1,1,0,0,0,416.38,213.79Z"/><path class="cls-1" d="M385.8,160.38H330.7a1,1,0,0,0,0,2h55.1a1,1,0,0,0,0-2Z"/><path class="cls-1" d="M372.78,194.07H333a1,1,0,0,0,0,2h39.74a1,1,0,1,0,0-2Z"/><path class="cls-1" d="M382.77,216.93H333a1,1,0,0,0,0,2h49.73a1,1,0,0,0,0-2Z"/><path class="cls-1" d="M416.38,239.8H333a1,1,0,0,0,0,2h83.34a1,1,0,0,0,0-2Z"/><path class="cls-1" d="M413.55,262.66H333a1,1,0,0,0,0,2h80.51a1,1,0,0,0,0-2Z"/><path class="cls-1" d="M416.38,285.52H366.23a1,1,0,1,0,0,2h50.15a1,1,0,0,0,0-2Z"/><path class="cls-1" d="M416.38,308.38H375.84a1,1,0,0,0,0,2h40.54a1,1,0,0,0,0-2Z"/><path class="cls-1" d="M427.52,287.55a1,1,0,0,0-1,1v34a1,1,0,1,0,2,0v-34A1,1,0,0,0,427.52,287.55Z"/><path class="cls-1" d="M427.52,174.66a1,1,0,0,0-1,1V236.9a1,1,0,0,0,2,0V175.66A1,1,0,0,0,427.52,174.66Z"/><path class="cls-1" d="M366.23,181.88H341.18a1,1,0,0,0-1,1v5.3a1,1,0,0,0,1,1h25.05a1,1,0,0,0,1-1v-5.3A1,1,0,0,0,366.23,181.88Zm-1,5.3h-23v-3.29h23Z"/><path class="cls-1" d="M366.23,202.71H341.18a1,1,0,0,0-1,1V209a1,1,0,0,0,1,1h25.05a1,1,0,0,0,1-1v-5.3A1,1,0,0,0,366.23,202.71Zm-1,5.3h-23v-3.28h23Z"/><rect class="cls-7" x="341.18" y="226.72" width="25.05" height="5.3"/><path class="cls-1" d="M366.23,247.85H341.18a1,1,0,0,0-1,1v5.3a1,1,0,0,0,1,1h25.05a1,1,0,0,0,1-1v-5.3A1,1,0,0,0,366.23,247.85Zm-1,5.3h-23v-3.28h23Z"/><path class="cls-1" d="M366.23,271.11H341.18a1,1,0,1,0,0,2h24v3.28H348a1,1,0,0,0,0,2h18.21a1,1,0,0,0,1-1v-5.3A1,1,0,0,0,366.23,271.11Z"/><path class="cls-1" d="M167.28,253.77a19.84,19.84,0,1,0,19.83,19.84A19.85,19.85,0,0,0,167.28,253.77Zm0,37.66a17.82,17.82,0,1,1,17.82-17.82A17.85,17.85,0,0,1,167.28,291.43Z"/><path class="cls-1" d="M443.59,231.61a31.06,31.06,0,1,0,31.06,31.05A31.09,31.09,0,0,0,443.59,231.61Zm0,60.09a29,29,0,1,1,29-29A29.08,29.08,0,0,1,443.59,291.7Z"/><path class="cls-1" d="M441.72,236.77a26,26,0,0,0-24,23.71,1,1,0,0,0,.92,1.09h.08a1,1,0,0,0,1-.93,24.09,24.09,0,0,1,22.12-21.87,1,1,0,1,0-.14-2Z"/><path class="cls-1" d="M297.69,177.79a1,1,0,0,0-.94,1.07c.47,6.82-1.82,11.49-7.91,16.11-5,3.81-8,1.15-13.22-4.29l-1.35-1.39c-3.47-3.55-3.63-6.33-3.75-8.36a5.21,5.21,0,0,0-.73-3c-.79-1.08-1.35-6.24-1.49-9.57a1,1,0,0,0-1.05-1,1,1,0,0,0-1,1c.06,1.44.44,8.71,1.88,10.67a4.22,4.22,0,0,1,.34,1.9c.13,2.22.33,5.56,4.32,9.65.46.46.91.92,1.34,1.38,3.4,3.53,6.48,6.73,10.25,6.73a9.29,9.29,0,0,0,5.64-2.24c6.62-5,9.22-10.36,8.7-17.85A1,1,0,0,0,297.69,177.79Z"/><path class="cls-1" d="M284,196.83a1,1,0,0,0-.61,1.29s1.12,3.74-5,9.63a1,1,0,0,0,0,1.42,1,1,0,0,0,.72.31,1,1,0,0,0,.7-.27c7.19-6.88,5.62-11.58,5.55-11.77A1,1,0,0,0,284,196.83Z"/><path class="cls-6" d="M284.33,197.77c-3.77-.06-6.87-3.75-10.78-7.78-4.32-4.45-3.67-9.24-4.57-11.44a31.79,31.79,0,0,1-1.48-7.16l-2.62.3a10.56,10.56,0,0,0-4.69,8.55c-.07,4.08,1.62,6.3,3.91,12,1.31,3.25-1.56,3.86-3.16,5.54a10.43,10.43,0,0,0-2.75,7.42c.45,4.11,4.15,6.09,2,8.28-4.54,4.59-4.5,11.78,1.8,16.85l8.25-3.61,3.94-11.44,4.85-6.8c6.81-6.51,5.3-10.7,5.3-10.7Z"/><path class="cls-1" d="M285.16,197.2a1,1,0,0,0-.81-.44c-3,0-5.7-2.9-8.87-6.21q-.59-.63-1.2-1.26c-2.89-3-3.38-6-3.77-8.49a12,12,0,0,0-.6-2.63,31.66,31.66,0,0,1-1.41-6.87,1,1,0,0,0-.37-.69,1,1,0,0,0-.75-.22l-2.61.3a.94.94,0,0,0-.4.13,11.52,11.52,0,0,0-5.19,9.4c-.05,3.22.89,5.31,2.31,8.49.5,1.12,1.07,2.39,1.68,3.9s.07,2.12-1.42,3.2a11.27,11.27,0,0,0-1.54,1.27,11.49,11.49,0,0,0-3,8.23A11.8,11.8,0,0,0,259,210c1,1.78,1.09,2.16.5,2.77a11.51,11.51,0,0,0-3.46,8.82,13.38,13.38,0,0,0,5.35,9.53,1,1,0,0,0,.63.22,1.15,1.15,0,0,0,.41-.08l8.25-3.62a1,1,0,0,0,.55-.59l3.89-11.3,4.71-6.61c6.57-6.32,5.74-10.78,5.52-11.58A1,1,0,0,0,285.16,197.2Zm-14.92,29.52h0Zm8.1-19a.86.86,0,0,0-.13.14l-4.85,6.81a.85.85,0,0,0-.13.25l-3.8,11-7.27,3.18a11.18,11.18,0,0,1-4.14-7.69,9.55,9.55,0,0,1,2.88-7.29c1.77-1.79.73-3.6-.19-5.19a10,10,0,0,1-1.52-3.9,9.53,9.53,0,0,1,2.48-6.62,8.91,8.91,0,0,1,1.26-1c1.42-1,3.37-2.44,2.11-5.58-.63-1.55-1.2-2.84-1.71-4-1.36-3-2.18-4.87-2.14-7.64a9.52,9.52,0,0,1,4-7.59l1.38-.15a30.62,30.62,0,0,0,1.44,6.43,10.75,10.75,0,0,1,.47,2.17,16.22,16.22,0,0,0,4.31,9.58l1.2,1.25c3.21,3.36,6,6.29,9.43,6.77C283.5,200,283,203.25,278.34,207.75Z"/><path class="cls-6" d="M330,195.8c-3.7-7.61-10.11-.72-14.36-17.7-4.79-19.17-8.52-30.8-19.78-34.59s-17.45,3.55-17.45,3.55L273,161s8.37-4.52,13.07,2.95,10.9,30.53,21.25,39.05S332,223.59,332,223.59c6.7-8.31,3.34-12.3.69-16.45S332.38,200.86,330,195.8Z"/><path class="cls-1" d="M333.5,206.6a8.19,8.19,0,0,1-1.27-5,13.86,13.86,0,0,0-1.29-6.27c-1.6-3.29-3.71-4.17-5.75-5-3-1.26-6.06-2.55-8.54-12.47-4.83-19.31-8.61-31.32-20.44-35.31s-18.27,3.54-18.54,3.86a.91.91,0,0,0-.17.28l-5.49,14a1,1,0,0,0,1.42,1.26c.31-.17,7.61-4,11.74,2.6a87.06,87.06,0,0,1,5.1,11.12c4.1,9.92,9.2,22.27,16.36,28.17,10.24,8.42,24.54,20.43,24.68,20.55a1,1,0,0,0,.65.24h.1a1,1,0,0,0,.68-.37c6.76-8.38,3.83-12.9,1.24-16.89Zm-1.69,15.55c-3.17-2.66-15.05-12.62-23.9-19.9-6.77-5.57-11.77-17.67-15.78-27.38a87.92,87.92,0,0,0-5.26-11.43,9.59,9.59,0,0,0-8.46-4.78,12.82,12.82,0,0,0-3.66.56l4.56-11.62c.84-.92,6.46-6.44,16.26-3.14,10.85,3.66,14.46,15.24,19.12,33.88,2.73,10.9,6.44,12.46,9.72,13.84,1.93.81,3.45,1.46,4.71,4a11.86,11.86,0,0,1,1.1,5.43,10.13,10.13,0,0,0,1.58,6c.16.25.32.5.49.75C334.73,212.19,336.85,215.45,331.81,222.15Z"/><path class="cls-6" d="M261.93,149.2c-12.56,10.86-1,27.3-1,27.3,20.33-9.83,17.5-29.44,17.5-29.44S271.09,141.28,261.93,149.2Z"/><path class="cls-1" d="M279.06,146.27c-.08-.06-8.12-6.2-17.79,2.17-5.43,4.7-7.34,11.18-5.52,18.72a32.1,32.1,0,0,0,4.37,9.92,1,1,0,0,0,.82.42,1,1,0,0,0,.44-.1c10.83-5.23,15.17-13.23,16.9-19a29.09,29.09,0,0,0,1.15-11.46A1,1,0,0,0,279.06,146.27Zm-2.71,11.54c-2.27,7.59-7.33,13.44-15.05,17.38a30.75,30.75,0,0,1-3.6-8.56c-1.64-6.83,0-12.44,4.89-16.67,3.52-3,6.72-3.94,9.27-3.94a10.59,10.59,0,0,1,5.62,1.6A28.29,28.29,0,0,1,276.35,157.81Z"/><path class="cls-3" d="M333.56,226.72c-5.51-12.25-26.83-24.15-26.83-24.15-.24,7.69-4,12.71-12.52,13.92-10.11,1.43-15.18-8-15.18-8s-5.57,3.64-10.35,6.8-6,5.12-6.63,10.18c-.87,7.3,1.69,51,1.69,51l.9,10.07a195,195,0,0,0,73.65-3.16,5,5,0,0,0,3.76-5.31C341.06,266.92,338,236.65,333.56,226.72Z"/><path class="cls-1" d="M334.47,226.31c-5.58-12.42-26.37-24.13-27.25-24.62a1,1,0,0,0-1,0,1,1,0,0,0-.52.84c-.23,7.64-4.05,11.88-11.65,13-9.27,1.32-14-7.13-14.15-7.49a1,1,0,0,0-.64-.5,1,1,0,0,0-.8.13l-10.36,6.81c-5,3.29-6.43,5.53-7.07,10.9-.87,7.3,1.58,49.39,1.68,51.18v0l.9,10.07a1,1,0,0,0,.85.9,194.14,194.14,0,0,0,28.74,2.12,190.89,190.89,0,0,0,45.3-5.29,6,6,0,0,0,4.53-6.37C342,265.76,339,236.26,334.47,226.31ZM338,282.39a193.23,193.23,0,0,1-72.46,3.25l-.84-9.26c-.06-1-2.53-43.72-1.69-50.8.58-4.8,1.67-6.48,6.18-9.46l9.5-6.24c1.67,2.45,6.91,8.84,15.62,7.6,8-1.14,12.51-5.58,13.28-13.22,4.78,2.86,20.5,12.85,25,22.87s7.57,41.57,8.41,51A4,4,0,0,1,338,282.39Z"/><path class="cls-4" d="M277.8,230.33H219.69a8.34,8.34,0,0,0-8.33,8.34v31.61a8.33,8.33,0,0,0,8.33,8.34h66.45v-40A8.35,8.35,0,0,0,277.8,230.33Z"/><path class="cls-1" d="M277.8,229.33H219.69a9.35,9.35,0,0,0-9.34,9.34v31.61a9.35,9.35,0,0,0,9.34,9.35h66.45a1,1,0,0,0,1-1v-40A9.36,9.36,0,0,0,277.8,229.33Zm7.33,48.29H219.69a7.34,7.34,0,0,1-7.33-7.34V238.67a7.34,7.34,0,0,1,7.33-7.33H277.8a7.34,7.34,0,0,1,7.33,7.33Z"/><path class="cls-1" d="M265,285.57l-8.73-2.79a1,1,0,0,0-1.27.66,1,1,0,0,0,.66,1.26l8.73,2.78a.79.79,0,0,0,.3,0,1,1,0,0,0,.31-2Z"/><path class="cls-1" d="M261.49,277.64a1,1,0,0,0-1.2.77s-1.3,5.33-12.33,5-12.37-5-12.38-5.08a1,1,0,0,0-2,.48c.06.26,1.68,6.29,14.29,6.61h.88c11.86,0,13.4-6.36,13.46-6.64A1,1,0,0,0,261.49,277.64Z"/><path class="cls-1" d="M309.15,215.63a1,1,0,0,0-1.38.33c-.14.23-3.53,5.59-12.77,6.63-14.42,1.62-19.12-8.93-19.31-9.39a1,1,0,0,0-1.86.79,18.21,18.21,0,0,0,4.67,6,20.41,20.41,0,0,0,13.61,4.76,28.23,28.23,0,0,0,3.11-.18c10.28-1.16,14.11-7.32,14.27-7.58A1,1,0,0,0,309.15,215.63Z"/><path class="cls-1" d="M308.84,256.13c-11.06,4.21-22.31,1-22.42,1a1,1,0,1,0-.56,1.93,39.71,39.71,0,0,0,10.37,1.29A37.41,37.41,0,0,0,309.56,258a1,1,0,1,0-.72-1.88Z"/><path class="cls-1" d="M322.59,237.33a1,1,0,0,0-2,.46c.14.6,3.41,14.81,5.22,19.63a1,1,0,0,0,.94.66.92.92,0,0,0,.36-.07,1,1,0,0,0,.58-1.3C326,252,322.62,237.48,322.59,237.33Z"/><path class="cls-4" d="M303.32,271H286.14v7.58l16.42-1.15a1.28,1.28,0,0,0,1.13-.82l1.27-3.19A1.77,1.77,0,0,0,303.32,271Z"/><path class="cls-1" d="M303.32,270H286.14a1,1,0,0,0-1,1v7.58a1,1,0,0,0,.32.74,1,1,0,0,0,.69.27h.07l16.43-1.15a2.34,2.34,0,0,0,2-1.46l1.27-3.19a2.79,2.79,0,0,0-2.58-3.8Zm.7,3.05-1.26,3.2a.32.32,0,0,1-.27.19l-15.34,1.07V272h16.17a.77.77,0,0,1,.63.34A.75.75,0,0,1,304,273.08Z"/><path class="cls-1" d="M333.44,271c-.39,0-9.66-.92-17.3,2.17a53.87,53.87,0,0,1-13.93,3.35,1,1,0,0,0-.93,1.08,1,1,0,0,0,1,.93h.08A54.89,54.89,0,0,0,316.89,275c7.17-2.91,16.26-2.05,16.35-2a1,1,0,1,0,.2-2Z"/><path class="cls-1" d="M317.49,238.88a1,1,0,1,0-2,.19c1.45,14.54,9.23,32.57,9.56,33.33a1,1,0,0,0,.93.61,1,1,0,0,0,.4-.09,1,1,0,0,0,.52-1.32C326.81,271.41,318.9,253.09,317.49,238.88Z"/><path class="cls-1" d="M260.64,235H222.46a6.34,6.34,0,0,0-6.33,6.33V243a1,1,0,1,0,2,0v-1.72a4.33,4.33,0,0,1,4.32-4.32h38.18a1,1,0,1,0,0-2Z"/><path class="cls-3" d="M272.67,287.55c-1,9-2.37,27.87-2.37,27.87,25.65,7.22,63,.66,63,.66-1.88-4.69-4.71-22.31-5.94-30.41A198.57,198.57,0,0,1,272.67,287.55Z"/><path class="cls-1" d="M328.39,285.52a1,1,0,0,0-1.17-.84,197.6,197.6,0,0,1-54.44,1.87,1,1,0,0,0-1.11.89c-1,8.91-2.36,27.72-2.37,27.91a1,1,0,0,0,.73,1c9.14,2.57,19.81,3.4,29.76,3.4a222.13,222.13,0,0,0,33.73-2.72,1,1,0,0,0,.71-.5,1.06,1.06,0,0,0,0-.87C332.42,311.07,329.54,293.05,328.39,285.52Zm-57,29.15c.26-3.59,1.33-18,2.19-26a200,200,0,0,0,53-1.82c1.36,8.86,3.67,22.84,5.44,28.43C325.54,316.28,293.93,320.71,271.37,314.67Z"/><path class="cls-1" d="M342.74,276a1,1,0,1,0,0,2,32.1,32.1,0,0,1,24.35,53h2.6a34.12,34.12,0,0,0-26.95-55Z"/><path class="cls-1" d="M270.5,314.43a1,1,0,0,0-1.19.79c0,.1-1.89,9.65-2.78,15.8h2c.9-6.1,2.71-15.31,2.73-15.41A1,1,0,0,0,270.5,314.43Z"/><path class="cls-1" d="M333,315.12a1,1,0,0,0-.62,1.29c0,.1,3.28,9.44,4.75,14.61h2.09c-1.4-5.09-4.78-14.84-4.93-15.27A1,1,0,0,0,333,315.12Z"/><path class="cls-4" d="M252.74,253c-1-2.51-2.23-2.72-3.43-2.6s-1.78.61-1.66,4.1-2,2.59-2.21,6.37a3.26,3.26,0,0,0,3.09,3.68c3.22.43,5.59-1.6,5.38-4.41C253.66,256.62,253.45,254.77,252.74,253Z"/><path class="cls-1" d="M322,295.14c-21.93,8-42.88,2.2-43.09,2.14a1,1,0,0,0-1.25.7,1,1,0,0,0,.7,1.24A79.69,79.69,0,0,0,322.67,297a1,1,0,1,0-.69-1.89Z"/><path class="cls-1" d="M279.7,301.24a1,1,0,0,0-1.15.85l-1.45,9.53a1,1,0,0,0,.85,1.15h.15a1,1,0,0,0,1-.86l1.44-9.53A1,1,0,0,0,279.7,301.24Z"/><path class="cls-1" d="M286.9,302a1,1,0,0,0-1.13.87l-1.31,9.75a1,1,0,0,0,.87,1.13h.13a1,1,0,0,0,1-.87l1.31-9.76A1,1,0,0,0,286.9,302Z"/><path class="cls-1" d="M292.71,302.36h0a1,1,0,0,0-1,1l-.27,10.35a1,1,0,0,0,1,1h0a1,1,0,0,0,1-1l.27-10.34A1,1,0,0,0,292.71,302.36Z"/><path class="cls-1" d="M299.61,302.37a1,1,0,0,0-.93,1.08l.78,10.34a1,1,0,0,0,1,.93h.07a1,1,0,0,0,.93-1.08l-.78-10.34A1,1,0,0,0,299.61,302.37Z"/><path class="cls-1" d="M308.68,303.26a1,1,0,0,0-2,.22l1.08,9.67a1,1,0,0,0,1,.89h.12a1,1,0,0,0,.88-1.12Z"/><path class="cls-1" d="M315.57,302.51a1,1,0,0,0-1.19-.78,1,1,0,0,0-.78,1.2l2,9.28a1,1,0,0,0,1,.79.82.82,0,0,0,.22,0,1,1,0,0,0,.77-1.19Z"/><path class="cls-1" d="M323.11,300.91a1,1,0,1,0-2,.5l2.58,10a1,1,0,0,0,1.22.73,1,1,0,0,0,.73-1.23Z"/><path class="cls-1" d="M268,152.06c-9.05,5.87-6.13,14.63-6.09,14.72a1,1,0,0,0,.95.68.91.91,0,0,0,.32-.06,1,1,0,0,0,.63-1.28c-.1-.3-2.41-7.38,5.29-12.37a1,1,0,0,0,.29-1.4A1,1,0,0,0,268,152.06Z"/><path class="cls-1" d="M327.17,183.78s-2.21-.17-4.08-4.21a32.71,32.71,0,0,1-2.08-7.95A77,77,0,0,0,316,154c-5.57-13.17-18.87-15.75-19.43-15.86a1,1,0,0,0-1.18.81,1,1,0,0,0,.81,1.17c.13,0,12.8,2.52,17.95,14.67A74.58,74.58,0,0,1,319,172a35.32,35.32,0,0,0,2.24,8.44c2.41,5.22,5.54,5.37,5.88,5.37a1,1,0,0,0,1-1A1,1,0,0,0,327.17,183.78Z"/><path class="cls-1" d="M327,202.54a5.81,5.81,0,0,0-.87-4.95,10.34,10.34,0,0,0-4.9-3.51,7.81,7.81,0,0,1-2.25-1.21c-3-2.55-6.26-9.61-6.29-9.68a1,1,0,0,0-1.83.84c.14.31,3.51,7.53,6.8,10.37a9.92,9.92,0,0,0,2.81,1.55,8.23,8.23,0,0,1,4.05,2.85c.86,1.15.7,2.15.49,3.42s-.52,3.13,1.06,4.84a1,1,0,0,0,1.43.05,1,1,0,0,0,0-1.43C326.65,204.75,326.73,204,327,202.54Z"/><rect class="cls-3" x="404.76" y="158.08" width="8.13" height="7.41"/><rect class="cls-7" x="380.21" y="203.3" width="30.71" height="6.86"/><path class="cls-1" d="M383.91,204.64a1,1,0,0,0-1,1v2.59a1,1,0,0,0,2,0v-2.59A1,1,0,0,0,383.91,204.64Z"/><path class="cls-1" d="M395.57,204.64a1,1,0,0,0-1,1v2.59a1,1,0,0,0,2,0v-2.59A1,1,0,0,0,395.57,204.64Z"/><path class="cls-1" d="M400,204.64a1,1,0,0,0-1,1v2.59a1,1,0,0,0,2,0v-2.59A1,1,0,0,0,400,204.64Z"/><path class="cls-1" d="M404.43,204.64a1,1,0,0,0-1,1v2.59a1,1,0,0,0,2,0v-2.59A1,1,0,0,0,404.43,204.64Z"/><polygon class="cls-3" points="452.69 252.4 443.59 252.4 441.61 256.07 428.12 256.07 428.12 272.93 459.07 272.93 459.07 256.07 454.85 255.66 452.69 252.4"/><path class="cls-1" d="M459.17,255.07l-3.74-.37-1.91-2.86a1,1,0,0,0-.84-.45h-9.09a1,1,0,0,0-.88.53l-1.7,3.14H428.12a1,1,0,0,0-1,1v16.86a1,1,0,0,0,1,1h30.95a1,1,0,0,0,1-1V256.07A1,1,0,0,0,459.17,255.07Zm-1.11,16.85H429.13V257.08h12.48a1,1,0,0,0,.88-.53l1.7-3.15h7.95l1.87,2.82a1,1,0,0,0,.74.44l3.31.32Z"/><path class="cls-1" d="M459.07,251.39h-6.39a1,1,0,0,0,0,2h5.38v2.67a1,1,0,1,0,2,0V252.4A1,1,0,0,0,459.07,251.39Z"/><path class="cls-1" d="M443.59,251.39H430.75a3.64,3.64,0,0,0-3.64,3.64v1a1,1,0,1,0,2,0v-1a1.63,1.63,0,0,1,1.62-1.63h12.84a1,1,0,1,0,0-2Z"/><path class="cls-7" d="M176,268.48l1.75-1.74-3.49-3.49-1.81,1.81a9.27,9.27,0,0,0-2.35-.95v-2.59h-4.94v2.59a9.2,9.2,0,0,0-2.34.95L161,263.25l-3.49,3.49,1.74,1.74a10,10,0,0,0-1.06,2.41h-2.4v4.94H158a10,10,0,0,0,1,2.59L157.47,280l3.49,3.49,1.5-1.49a9.76,9.76,0,0,0,2.65,1.13v2.09h4.94v-2.09a10,10,0,0,0,2.66-1.13l1.5,1.49L177.7,280l-1.57-1.56a9.37,9.37,0,0,0,1-2.59h2.28v-4.94H177A9.3,9.3,0,0,0,176,268.48ZM167.58,277a3.42,3.42,0,1,1,3.42-3.41A3.41,3.41,0,0,1,167.58,277Z"/><path class="cls-1" d="M229.46,181.88a3.66,3.66,0,1,0,3.65,3.66A3.66,3.66,0,0,0,229.46,181.88Zm0,5.3a1.65,1.65,0,1,1,1.64-1.64A1.65,1.65,0,0,1,229.46,187.18Z"/><path class="cls-1" d="M237.82,181.88a3.66,3.66,0,1,0,3.66,3.66A3.66,3.66,0,0,0,237.82,181.88Zm0,5.3a1.65,1.65,0,1,1,1.64-1.64A1.65,1.65,0,0,1,237.82,187.18Z"/><path class="cls-1" d="M246.19,181.88a3.66,3.66,0,1,0,3.66,3.66A3.66,3.66,0,0,0,246.19,181.88Zm0,5.3a1.65,1.65,0,1,1,1.64-1.64A1.64,1.64,0,0,1,246.19,187.18Z"/><path class="cls-1" d="M229.46,202.62a3.66,3.66,0,1,0,3.65,3.66A3.66,3.66,0,0,0,229.46,202.62Zm0,5.3a1.64,1.64,0,1,1,1.64-1.64A1.64,1.64,0,0,1,229.46,207.92Z"/><path class="cls-7" d="M237.82,203.63a2.65,2.65,0,1,0,2.65,2.65A2.65,2.65,0,0,0,237.82,203.63Z"/><circle class="cls-6" cx="246.19" cy="206.28" r="2.65" transform="translate(-38.6 354.79) rotate(-67.5)"/><path class="cls-1" d="M228.52,293.63a3.66,3.66,0,1,0,3.66,3.66A3.66,3.66,0,0,0,228.52,293.63Zm0,5.3a1.64,1.64,0,1,1,1.64-1.64A1.63,1.63,0,0,1,228.52,298.93Z"/><path class="cls-1" d="M236.89,293.63a3.66,3.66,0,1,0,3.65,3.66A3.66,3.66,0,0,0,236.89,293.63Zm0,5.3a1.64,1.64,0,1,1,1.64-1.64A1.64,1.64,0,0,1,236.89,298.93Z"/><path class="cls-1" d="M245.25,293.63a3.66,3.66,0,1,0,3.66,3.66A3.66,3.66,0,0,0,245.25,293.63Zm0,5.3a1.64,1.64,0,1,1,1.65-1.64A1.64,1.64,0,0,1,245.25,298.93Z"/><path class="cls-1" d="M228.52,316.39a3.66,3.66,0,1,0,3.66,3.66A3.66,3.66,0,0,0,228.52,316.39Zm0,5.3a1.64,1.64,0,1,1,1.64-1.64A1.63,1.63,0,0,1,228.52,321.69Z"/><path class="cls-8" d="M236.89,317.4a2.65,2.65,0,1,0,2.65,2.65A2.65,2.65,0,0,0,236.89,317.4Z"/><path class="cls-7" d="M245.25,317.4a2.65,2.65,0,1,0,2.65,2.65A2.65,2.65,0,0,0,245.25,317.4Z"/><path class="cls-1" d="M229.46,225.39a3.65,3.65,0,0,0-3.2,5.43,1,1,0,0,0,.88.52h4.63a1,1,0,0,0,.88-.52,3.65,3.65,0,0,0-3.19-5.43Zm1.61,3.94h-3.23a1.33,1.33,0,0,1,0-.28,1.65,1.65,0,0,1,3.29,0A1.33,1.33,0,0,1,231.07,229.33Z"/><path class="cls-1" d="M237.82,225.39a3.67,3.67,0,0,0-3.2,5.43,1,1,0,0,0,.89.52h4.63a1,1,0,0,0,.88-.52,3.65,3.65,0,0,0-3.2-5.43Zm1.62,3.94H236.2a2.64,2.64,0,0,1,0-.28,1.64,1.64,0,1,1,3.28,0A1.32,1.32,0,0,1,239.44,229.33Z"/><path class="cls-1" d="M246.19,225.39a3.65,3.65,0,0,0-3.2,5.43,1,1,0,0,0,.88.52h4.64a1,1,0,0,0,.88-.52,3.65,3.65,0,0,0-3.2-5.43Zm1.62,3.94h-3.24a2.64,2.64,0,0,1,0-.28,1.64,1.64,0,1,1,3.28,0A2.64,2.64,0,0,1,247.81,229.33Z"/><path class="cls-1" d="M359.2,289a1,1,0,0,0-1.08,1.7A21.16,21.16,0,0,1,363.9,297c3.46,5.69,4.35,12.42,2.63,20a1,1,0,0,0,.76,1.2.91.91,0,0,0,.23,0,1,1,0,0,0,1-.79c2.3-10.17-.33-17.35-2.94-21.59A22.49,22.49,0,0,0,359.2,289Z"/><path class="cls-6" d="M308.12,197.28l-8.53-4A8.68,8.68,0,0,0,308.12,197.28Z"/><path class="cls-1" d="M308,196.28a7.62,7.62,0,0,1-7.52-3.5,1,1,0,0,0-1.37-.38,1,1,0,0,0-.38,1.38,9.67,9.67,0,0,0,8.11,4.59,11.93,11.93,0,0,0,1.43-.09,1,1,0,0,0,.86-1.14A1,1,0,0,0,308,196.28Z"/><path class="cls-6" d="M383.91,191.37a2.12,2.12,0,1,0,2.11,2.11A2.11,2.11,0,0,0,383.91,191.37Z"/><path class="cls-6" d="M407.8,191.35a2.11,2.11,0,1,0,2.11,2.11A2.11,2.11,0,0,0,407.8,191.35Z"/><path class="cls-1" d="M377.49,222.92l-.21,0a1,1,0,0,0-.65.44,1,1,0,0,0-.15.78,1,1,0,0,0,1,.82.65.65,0,0,0,.2,0,1,1,0,0,0,.66-.44,1,1,0,0,0-.86-1.6Z"/><path class="cls-1" d="M377.49,233a.75.75,0,0,0-.21,0,1,1,0,0,0-.65.44,1,1,0,0,0-.15.77,1,1,0,0,0,1,.83l.2,0a1,1,0,0,0,.66-.44,1.07,1.07,0,0,0,.15-.78A1,1,0,0,0,377.49,233Z"/><path class="cls-1" d="M386.76,222.92l-.21,0a1,1,0,0,0,.21,2,.75.75,0,0,0,.21,0,1,1,0,0,0,.8-1.21A1,1,0,0,0,386.76,222.92Z"/><path class="cls-1" d="M386.76,233a.75.75,0,0,0-.21,0,1,1,0,0,0-.8,1.21,1,1,0,0,0,1,.83l.21,0a1,1,0,0,0-.21-2Z"/><path class="cls-1" d="M396,222.92l-.2,0a1,1,0,0,0-.66.44,1.07,1.07,0,0,0-.15.78,1,1,0,0,0,1,.82.75.75,0,0,0,.21,0,1,1,0,0,0,.8-1.21A1,1,0,0,0,396,222.92Z"/><path class="cls-1" d="M396,233a.65.65,0,0,0-.2,0,1,1,0,0,0-.66.44,1,1,0,0,0,.86,1.6l.21,0a1,1,0,0,0-.21-2Z"/><path class="cls-1" d="M405.31,222.92l-.21,0a1,1,0,0,0-.81,1.22,1,1,0,0,0,1,.82.75.75,0,0,0,.21,0,1,1,0,0,0,.81-1.21A1,1,0,0,0,405.31,222.92Z"/><path class="cls-1" d="M405.31,233a.75.75,0,0,0-.21,0,1,1,0,0,0-.81,1.21,1,1,0,0,0,1,.83l.21,0a1,1,0,0,0,.81-1.22A1,1,0,0,0,405.31,233Z"/><path class="cls-6" d="M377.78,247a.65.65,0,0,0-.2,0,1,1,0,0,0-.66.44,1,1,0,0,0-.15.78,1,1,0,0,0,1,.82l.21,0a1,1,0,0,0-.21-2Z"/><path class="cls-1" d="M377.78,257.06l-.2,0a1,1,0,0,0-.66.45,1,1,0,0,0-.15.77,1,1,0,0,0,1,.83l.21,0a1,1,0,0,0-.21-2.05Z"/><path class="cls-6" d="M387.05,247a.68.68,0,0,0-.2,0,1,1,0,0,0-.66.44,1.07,1.07,0,0,0-.15.78,1,1,0,0,0,1,.82l.21,0a1,1,0,0,0-.21-2Z"/><path class="cls-1" d="M387.05,257.06l-.2,0a1.06,1.06,0,0,0-.66.45,1,1,0,0,0,.86,1.6l.21,0a1,1,0,0,0-.21-2.05Z"/><path class="cls-1" d="M396.33,247a.75.75,0,0,0-.21,0,1,1,0,0,0-.65.44,1,1,0,0,0-.16.78,1,1,0,0,0,1,.82l.2,0a1,1,0,0,0-.2-2Z"/><path class="cls-1" d="M396.33,257.06l-.21,0a1,1,0,0,0-.65.45,1,1,0,0,0-.16.77,1,1,0,0,0,1,.83l.2,0a1,1,0,0,0-.2-2.05Z"/><path class="cls-7" d="M405.6,247a.75.75,0,0,0-.21,0,1,1,0,0,0-.65.44,1,1,0,0,0,.86,1.6l.2,0a1,1,0,0,0-.2-2Z"/><path class="cls-1" d="M405.6,257.06l-.21,0a1,1,0,0,0-.65.45,1,1,0,0,0-.15.77,1,1,0,0,0,1,.83l.2,0a1,1,0,0,0-.2-2.05Z"/><path class="cls-3" d="M377.49,269.59a.75.75,0,0,0-.21,0,1,1,0,0,0-.8,1.22,1,1,0,0,0,1,.82l.2,0a1,1,0,0,0-.2-2Z"/><path class="cls-1" d="M377.49,279.7l-.21,0a1,1,0,0,0-.65.45,1,1,0,0,0-.15.77,1,1,0,0,0,1,.83l.2,0a1,1,0,0,0-.2-2.05Z"/><path class="cls-1" d="M386.76,269.59a.75.75,0,0,0-.21,0,1,1,0,0,0-.65.44,1,1,0,0,0-.15.78,1,1,0,0,0,1,.82l.21,0a1,1,0,0,0-.21-2Z"/><path class="cls-1" d="M386.76,279.7l-.21,0a1,1,0,0,0-.65.45,1,1,0,0,0-.15.77,1,1,0,0,0,1,.83l.21,0a1,1,0,0,0-.21-2.05Z"/><path class="cls-1" d="M396,269.59a.65.65,0,0,0-.2,0,1,1,0,0,0-.66.44,1.07,1.07,0,0,0-.15.78,1,1,0,0,0,1,.82l.21,0a1,1,0,0,0-.21-2Z"/><path class="cls-3" d="M396,279.7l-.2,0a1.06,1.06,0,0,0-.66.45,1,1,0,0,0,.86,1.6l.21,0a1,1,0,0,0-.21-2.05Z"/><path class="cls-1" d="M405.31,269.59a.75.75,0,0,0-.21,0,1,1,0,0,0-.66.44,1.07,1.07,0,0,0-.15.78,1,1,0,0,0,1,.82l.21,0a1,1,0,0,0-.2-2Z"/><path class="cls-1" d="M405.31,279.7l-.21,0a1.09,1.09,0,0,0-.66.45,1,1,0,0,0,.86,1.6l.21,0a1,1,0,0,0-.2-2.05Z"/><path class="cls-1" d="M377.49,291.86l-.21,0a1,1,0,0,0,.21,2h0a.65.65,0,0,0,.2,0,1,1,0,0,0-.2-2Z"/><path class="cls-1" d="M377.49,302l-.21,0a1,1,0,0,0-.8,1.21,1,1,0,0,0,1,.83h0l.2,0a1,1,0,0,0-.2-2Z"/><path class="cls-1" d="M386.76,291.86l-.21,0a1,1,0,0,0,.21,2h0a.75.75,0,0,0,.21,0,1,1,0,0,0-.21-2Z"/><path class="cls-1" d="M386.76,302l-.21,0a1,1,0,0,0,.21,2h0l.21,0a1,1,0,0,0-.21-2Z"/><path class="cls-1" d="M396,291.86l-.2,0a1,1,0,0,0,.2,2h0a.75.75,0,0,0,.21,0,1,1,0,0,0,.8-1.21A1,1,0,0,0,396,291.86Z"/><path class="cls-1" d="M396,302a.64.64,0,0,0-.2,0,1,1,0,0,0,.2,2h0l.21,0a1,1,0,0,0-.21-2Z"/><path class="cls-1" d="M405.31,291.86l-.21,0a1,1,0,0,0,.2,2h0a.75.75,0,0,0,.21,0,1,1,0,0,0,.81-1.21A1,1,0,0,0,405.31,291.86Z"/><path class="cls-1" d="M405.31,302l-.21,0a1,1,0,0,0-.81,1.21,1,1,0,0,0,1,.83h0l.21,0a1,1,0,0,0-.2-2Z"/><path class="cls-1" d="M377.06,314l-.21,0a1,1,0,0,0,.21,2,.75.75,0,0,0,.21,0,1,1,0,0,0-.21-2Z"/><path class="cls-1" d="M377.06,324.08a.75.75,0,0,0-.21,0,1,1,0,0,0,.21,2h0l.21,0a1,1,0,0,0,.8-1.22A1,1,0,0,0,377.06,324.08Z"/><path class="cls-1" d="M386.33,314l-.2,0a1,1,0,0,0,.2,2,.75.75,0,0,0,.21,0,1,1,0,0,0,.8-1.21A1,1,0,0,0,386.33,314Z"/><path class="cls-3" d="M386.33,324.08a.65.65,0,0,0-.2,0,1,1,0,0,0,.2,2h0l.21,0a1,1,0,0,0-.21-2Z"/><path class="cls-1" d="M395.61,314l-.21,0a1,1,0,0,0,.2,2,.75.75,0,0,0,.21,0,1,1,0,0,0,.81-1.21A1,1,0,0,0,395.61,314Z"/><path class="cls-1" d="M395.61,324.08a.75.75,0,0,0-.21,0,1,1,0,0,0-.81,1.21,1,1,0,0,0,1,.83h0l.2,0a1,1,0,0,0-.2-2Z"/><path class="cls-1" d="M404.88,314l-.21,0a1,1,0,0,0,.21,2,.65.65,0,0,0,.2,0,1,1,0,0,0-.2-2Z"/><path class="cls-1" d="M404.88,324.08a.75.75,0,0,0-.21,0,1,1,0,0,0-.8,1.21,1,1,0,0,0,1,.83h0l.2,0a1,1,0,0,0,.81-1.22A1,1,0,0,0,404.88,324.08Z"/><path class="cls-1" d="M199.25,160.36l-.2,0a1,1,0,0,0-.66.44,1.07,1.07,0,0,0-.15.78,1,1,0,0,0,1,.82.75.75,0,0,0,.21,0,1,1,0,0,0,.65-.44,1,1,0,0,0,.15-.77A1,1,0,0,0,199.25,160.36Z"/><path class="cls-1" d="M167.28,247.92l-.21,0a1,1,0,0,0,.21,2.05l.21,0a1,1,0,0,0-.21-2.05Z"/><path class="cls-1" d="M265.73,235l-.21,0a1,1,0,0,0-.65.44,1,1,0,0,0-.15.78,1,1,0,0,0,1,.83l.2,0a1.06,1.06,0,0,0,.66-.45,1,1,0,0,0-.86-1.6Z"/><path class="cls-1" d="M328.83,260.81l-.21,0a1,1,0,0,0,.21,2.05l.21,0a1,1,0,0,0-.21-2.05Z"/><path class="cls-1" d="M310.39,212.56l-.21,0a1,1,0,0,0,.21,2h0l.21,0a1,1,0,0,0-.21-2.05Z"/><path class="cls-1" d="M329.4,209a.65.65,0,0,0-.2,0,1,1,0,0,0,.2,2l.21,0a1,1,0,0,0-.21-2Z"/><path class="cls-1" d="M390.5,160.36l-.21,0a1,1,0,0,0,.21,2,.75.75,0,0,0,.21,0,1,1,0,0,0,.8-1.21A1,1,0,0,0,390.5,160.36Z"/><path class="cls-1" d="M427.52,168.36a.64.64,0,0,0-.2,0,1,1,0,0,0-.81,1.21,1,1,0,0,0,1,.83l.21,0a1,1,0,0,0,.65-.44,1,1,0,0,0,.15-.78A1,1,0,0,0,427.52,168.36Z"/><path class="cls-1" d="M448.3,236.75a.71.71,0,0,0-.2,0,1,1,0,0,0,.2,2l.21,0a1,1,0,0,0-.21-2Z"/><path class="cls-1" d="M381.8,144h-.91a1,1,0,0,0,0,2h.91a1,1,0,1,0,0-2Z"/><path class="cls-1" d="M387.25,144h-.91a1,1,0,1,0,0,2h.91a1,1,0,0,0,0-2Z"/><path class="cls-1" d="M392.69,144h-.91a1,1,0,0,0,0,2h.91a1,1,0,1,0,0-2Z"/><path class="cls-1" d="M376.35,144h-.9a1,1,0,1,0,0,2h.9a1,1,0,1,0,0-2Z"/><path class="cls-1" d="M414.48,144h-.91a1,1,0,1,0,0,2h.91a1,1,0,0,0,0-2Z"/><path class="cls-1" d="M370.91,144H370a1,1,0,1,0,0,2h.91a1,1,0,1,0,0-2Z"/><path class="cls-1" d="M398.14,144h-.91a1,1,0,1,0,0,2h.91a1,1,0,1,0,0-2Z"/><path class="cls-1" d="M409,144h-.91a1,1,0,1,0,0,2H409a1,1,0,1,0,0-2Z"/><path class="cls-1" d="M403.58,144h-.9a1,1,0,1,0,0,2h.9a1,1,0,1,0,0-2Z"/><path class="cls-1" d="M338.23,144h-.9a1,1,0,1,0,0,2h.9a1,1,0,1,0,0-2Z"/><path class="cls-1" d="M343.68,144h-.91a1,1,0,1,0,0,2h.91a1,1,0,1,0,0-2Z"/><path class="cls-1" d="M419.92,144H419a1,1,0,0,0,0,2h.91a1,1,0,1,0,0-2Z"/><path class="cls-1" d="M327.34,144h-.91a1,1,0,0,0,0,2h.91a1,1,0,1,0,0-2Z"/><path class="cls-1" d="M321.9,144H321a1,1,0,1,0,0,2h.91a1,1,0,0,0,0-2Z"/><path class="cls-1" d="M365.46,144h-.9a1,1,0,1,0,0,2h.9a1,1,0,1,0,0-2Z"/><path class="cls-1" d="M349.13,144h-.91a1,1,0,1,0,0,2h.91a1,1,0,0,0,0-2Z"/><path class="cls-1" d="M360,144h-.91a1,1,0,1,0,0,2H360a1,1,0,0,0,0-2Z"/><path class="cls-1" d="M354.57,144h-.91a1,1,0,0,0,0,2h.91a1,1,0,1,0,0-2Z"/><path class="cls-1" d="M332.79,144h-.91a1,1,0,1,0,0,2h.91a1,1,0,0,0,0-2Z"/><path class="cls-1" d="M479.83,144h-.91a1,1,0,1,0,0,2h.91a1,1,0,0,0,0-2Z"/><path class="cls-1" d="M425.37,144h-.91a1,1,0,1,0,0,2h.91a1,1,0,0,0,0-2Z"/><path class="cls-1" d="M441.7,144h-.9a1,1,0,1,0,0,2h.9a1,1,0,1,0,0-2Z"/><path class="cls-1" d="M447.15,144h-.91a1,1,0,0,0,0,2h.91a1,1,0,1,0,0-2Z"/><path class="cls-1" d="M436.26,144h-.91a1,1,0,1,0,0,2h.91a1,1,0,1,0,0-2Z"/><path class="cls-1" d="M430.81,144h-.9a1,1,0,1,0,0,2h.9a1,1,0,1,0,0-2Z"/><path class="cls-1" d="M468.93,144H468a1,1,0,1,0,0,2h.9a1,1,0,1,0,0-2Z"/><path class="cls-1" d="M452.6,144h-.91a1,1,0,1,0,0,2h.91a1,1,0,0,0,0-2Z"/><path class="cls-1" d="M474.38,144h-.91a1,1,0,1,0,0,2h.91a1,1,0,1,0,0-2Z"/><path class="cls-1" d="M463.49,144h-.91a1,1,0,1,0,0,2h.91a1,1,0,1,0,0-2Z"/><path class="cls-1" d="M458,144h-.91a1,1,0,0,0,0,2H458a1,1,0,1,0,0-2Z"/><path class="cls-1" d="M346.65,168.39h-.91a1,1,0,1,0,0,2h.91a1,1,0,0,0,0-2Z"/><path class="cls-1" d="M368.43,168.39h-.91a1,1,0,1,0,0,2h.91a1,1,0,1,0,0-2Z"/><path class="cls-1" d="M357.54,168.39h-.91a1,1,0,1,0,0,2h.91a1,1,0,1,0,0-2Z"/><path class="cls-1" d="M363,168.39h-.9a1,1,0,1,0,0,2h.9a1,1,0,1,0,0-2Z"/><path class="cls-1" d="M352.09,168.39h-.91a1,1,0,0,0,0,2h.91a1,1,0,1,0,0-2Z"/><path class="cls-1" d="M341.2,168.39h-.91a1,1,0,0,0,0,2h.91a1,1,0,1,0,0-2Z"/><path class="cls-1" d="M417.44,168.39h-.91a1,1,0,0,0,0,2h.91a1,1,0,1,0,0-2Z"/><path class="cls-1" d="M335.75,168.39h-.9a1,1,0,1,0,0,2h.9a1,1,0,1,0,0-2Z"/><path class="cls-1" d="M330.31,168.39h-.91a1,1,0,1,0,0,2h.91a1,1,0,1,0,0-2Z"/><path class="cls-1" d="M401.1,168.39h-.9a1,1,0,1,0,0,2h.9a1,1,0,1,0,0-2Z"/><path class="cls-1" d="M395.66,168.39h-.91a1,1,0,1,0,0,2h.91a1,1,0,1,0,0-2Z"/><path class="cls-1" d="M406.55,168.39h-.91a1,1,0,0,0,0,2h.91a1,1,0,1,0,0-2Z"/><path class="cls-1" d="M412,168.39h-.91a1,1,0,1,0,0,2H412a1,1,0,0,0,0-2Z"/><path class="cls-1" d="M384.77,168.39h-.91a1,1,0,1,0,0,2h.91a1,1,0,0,0,0-2Z"/><path class="cls-1" d="M379.32,168.39h-.91a1,1,0,0,0,0,2h.91a1,1,0,1,0,0-2Z"/><path class="cls-1" d="M373.88,168.39H373a1,1,0,1,0,0,2h.91a1,1,0,0,0,0-2Z"/><path class="cls-1" d="M390.21,168.39h-.9a1,1,0,1,0,0,2h.9a1,1,0,1,0,0-2Z"/><path class="cls-1" d="M192.64,167.43h-.91a1,1,0,1,0,0,2h.91a1,1,0,0,0,0-2Z"/><path class="cls-1" d="M198.08,167.43h-.91a1,1,0,0,0,0,2h.91a1,1,0,1,0,0-2Z"/><path class="cls-1" d="M203.53,167.43h-.91a1,1,0,1,0,0,2h.91a1,1,0,0,0,0-2Z"/><path class="cls-1" d="M176.3,167.43h-.91a1,1,0,1,0,0,2h.91a1,1,0,1,0,0-2Z"/><path class="cls-1" d="M187.19,167.43h-.91a1,1,0,0,0,0,2h.91a1,1,0,1,0,0-2Z"/><path class="cls-1" d="M181.74,167.43h-.9a1,1,0,1,0,0,2h.9a1,1,0,1,0,0-2Z"/><path class="cls-1" d="M225.31,167.43h-.91a1,1,0,0,0,0,2h.91a1,1,0,1,0,0-2Z"/><path class="cls-1" d="M236.2,167.43h-.9a1,1,0,1,0,0,2h.9a1,1,0,1,0,0-2Z"/><path class="cls-1" d="M241.65,167.43h-.91a1,1,0,1,0,0,2h.91a1,1,0,1,0,0-2Z"/><path class="cls-1" d="M230.76,167.43h-.91a1,1,0,1,0,0,2h.91a1,1,0,0,0,0-2Z"/><path class="cls-1" d="M209,167.43h-.9a1,1,0,1,0,0,2h.9a1,1,0,1,0,0-2Z"/><path class="cls-1" d="M219.87,167.43H219a1,1,0,1,0,0,2h.91a1,1,0,0,0,0-2Z"/><path class="cls-1" d="M214.42,167.43h-.91a1,1,0,1,0,0,2h.91a1,1,0,1,0,0-2Z"/><path class="cls-1" d="M170.61,309.82a1,1,0,0,0-1,1v.91a1,1,0,1,0,2,0v-.91A1,1,0,0,0,170.61,309.82Z"/><path class="cls-1" d="M170.61,320.72a1,1,0,0,0-1,1v.91a1,1,0,1,0,2,0v-.91A1,1,0,0,0,170.61,320.72Z"/><path class="cls-1" d="M170.61,315.27a1,1,0,0,0-1,1v.9a1,1,0,1,0,2,0v-.9A1,1,0,0,0,170.61,315.27Z"/><path class="cls-1" d="M170.61,304.38a1,1,0,0,0-1,1v.9a1,1,0,1,0,2,0v-.9A1,1,0,0,0,170.61,304.38Z"/><path class="cls-1" d="M170.61,298.93a1,1,0,0,0-1,1v.91a1,1,0,0,0,2,0v-.91A1,1,0,0,0,170.61,298.93Z"/><path class="cls-6" d="M282.84,10.07H213.71a14.59,14.59,0,0,0-14.59,14.59V83.74L209.65,72a21.81,21.81,0,0,1,16.24-7.25h56.95a14.59,14.59,0,0,0,14.59-14.59V24.66A14.59,14.59,0,0,0,282.84,10.07Z"/><rect class="cls-9" x="214.79" y="22.98" width="32.87" height="14.61" transform="translate(462.45 60.57) rotate(-180)"/><path class="cls-1" d="M213.57,37.59V23a1.22,1.22,0,0,1,1.22-1.22h32.87A1.22,1.22,0,0,1,248.88,23V37.59a1.22,1.22,0,0,1-1.22,1.22H214.79A1.22,1.22,0,0,1,213.57,37.59ZM246.44,24.2H216V36.37h30.43Z"/><path class="cls-1" d="M263.21,24.2H287.1a1.22,1.22,0,0,0,0-2.44H263.21a1.22,1.22,0,1,0,0,2.44Z"/><path class="cls-1" d="M263.21,31.5H287.1a1.22,1.22,0,0,0,0-2.44H263.21a1.22,1.22,0,1,0,0,2.44Z"/><path class="cls-1" d="M263.21,38.81H287.1a1.22,1.22,0,1,0,0-2.44H263.21a1.22,1.22,0,1,0,0,2.44Z"/><path class="cls-1" d="M214.79,46.11H287.1a1.22,1.22,0,0,0,0-2.44H214.79a1.22,1.22,0,0,0,0,2.44Z"/><path class="cls-1" d="M214.79,53.42H287.1a1.22,1.22,0,1,0,0-2.44H214.79a1.22,1.22,0,1,0,0,2.44Z"/><path class="cls-1" d="M220.63,2.5h41.12a1.22,1.22,0,1,0,0-2.44H220.63a1.22,1.22,0,1,0,0,2.44Z"/><path class="cls-1" d="M213.71,2.55a1.28,1.28,0,0,0,1.25-1,1.26,1.26,0,0,0-.19-1A1.24,1.24,0,0,0,214,0a1.07,1.07,0,0,0-.25,0,1.28,1.28,0,0,0-1.07,2,1.31,1.31,0,0,0,.81.55l.26,0Z"/><path class="cls-10" d="M134.08,227.32V184.07A10.06,10.06,0,0,0,124,174H23a2.35,2.35,0,0,1,.06.54,3.1,3.1,0,0,1-3.11,3.1l-1.89.08-.56,2.38c.54,34.54.11,43.75,1.65,47.12H121.32Z"/><path class="cls-10" d="M152.17,81.89l-1.54.47a2.27,2.27,0,0,1-2.44-2.07c-.15-1.78-.34-4.48-.47-7.55H62.84v19c3.83,1,5.26,2.87,5.26,2.87s2.3-5,10.87-4.69c7.57.23,13.93,4.65,18,18.54h40.68c5.17-4.79,11-7.67,13.26-9.08a15.45,15.45,0,0,1,3.54-1.69V87.57l-.13-.09Z"/><path class="cls-1" d="M137.61,109.41H96.93a1,1,0,0,1-1-.72C91.44,93,84.08,91,78.94,90.87,71.21,90.64,69.09,94.81,69,95a1,1,0,0,1-.79.56,1,1,0,0,1-.89-.38,9.84,9.84,0,0,0-4.74-2.52,1,1,0,0,1-.74-1v-19a1,1,0,0,1,1-1h84.88a1,1,0,0,1,1,1c.12,3.09.32,5.79.46,7.51a1.28,1.28,0,0,0,1.37,1.16l.8-.07a1,1,0,0,1,1.07.92,1,1,0,0,1-.91,1.07l-.8.07a3.27,3.27,0,0,1-3.51-3c-.13-1.56-.31-3.92-.43-6.65H63.84V91A13,13,0,0,1,67.92,93c1.28-1.6,4.46-4.35,11.08-4.16,9,.27,14.93,6.17,18.68,18.54h39.54a63.28,63.28,0,0,1,11.29-7.84c.73-.43,1.37-.79,1.83-1.08a17.09,17.09,0,0,1,3.07-1.56v-9a1,1,0,0,1,.06-1,1,1,0,0,1,1.36-.29l.13.09a1,1,0,0,1,.44.83V97.64a1,1,0,0,1-.69,1,15.05,15.05,0,0,0-3.31,1.58c-.49.31-1.14.69-1.9,1.13a59.33,59.33,0,0,0-11.21,7.84A1,1,0,0,1,137.61,109.41Z"/><path class="cls-10" d="M146.6,65.32H62.84V28.75h91.69V49s-6.93,1.08-6.93,16.33Z"/><path class="cls-1" d="M147.6,66.32H62.84a1,1,0,0,1-1-1V28.75a1,1,0,0,1,1-1h91.69a1,1,0,0,1,1,1V49a1,1,0,0,1-.84,1c-.05,0-6.09,1.29-6.09,15.34A1,1,0,0,1,147.6,66.32Zm-83.76-2h82.77c.25-12.09,5-15.26,6.93-16.06V29.75H63.84Z"/><rect class="cls-3" x="62.84" y="37.77" width="13" height="27.55"/><path class="cls-1" d="M75.84,66.32h-13a1,1,0,0,1-1-1V37.77a1,1,0,0,1,1-1h13a1,1,0,0,1,1,1V65.32A1,1,0,0,1,75.84,66.32Zm-12-2h11V38.76h-11Z"/><rect class="cls-7" x="75.84" y="37.77" width="13" height="27.55"/><path class="cls-1" d="M88.83,66.32h-13a1,1,0,0,1-1-1V37.77a1,1,0,0,1,1-1h13a1,1,0,0,1,1,1V65.32A1,1,0,0,1,88.83,66.32Zm-12-2h11V38.76h-11Z"/><rect class="cls-6" x="88.83" y="37.77" width="13" height="27.55"/><path class="cls-1" d="M101.83,66.32h-13a1,1,0,0,1-1-1V37.77a1,1,0,0,1,1-1h13a1,1,0,0,1,1,1V65.32A1,1,0,0,1,101.83,66.32Zm-12-2h11V38.76h-11Z"/><rect class="cls-7" x="105.82" y="40.08" width="13" height="23.66" transform="translate(-11.29 46.31) rotate(-22.21)"/><path class="cls-1" d="M110.77,66.32a1,1,0,0,1-.92-.62l-8.94-21.91a1,1,0,0,1,.54-1.3l12-4.91a1,1,0,0,1,1.3.54l9,21.91a1,1,0,0,1-.55,1.3l-12,4.91A1,1,0,0,1,110.77,66.32ZM103.13,44,111.32,64l10.18-4.16L113.31,39.8Z"/><path class="cls-1" d="M130.24,178.07a1,1,0,0,1-1-.75c-2-7.5.4-31.43.5-32.44a1,1,0,1,1,2,.19c0,.25-2.43,24.59-.56,31.75a1,1,0,0,1-.72,1.22A1.07,1.07,0,0,1,130.24,178.07Z"/><path class="cls-1" d="M135.07,184.06A11.06,11.06,0,0,0,124,173H23a1,1,0,0,0-.76.36,1,1,0,0,0-.22.82,1.82,1.82,0,0,1-.13,1.13A2.14,2.14,0,0,1,20,176.65h0l-1.86.07a1,1,0,0,0-.95.77l-.56,2.38,0,.25c.14,9,.22,16.26.28,22.13.17,16.59.23,22.16,1.29,25h2.07a1,1,0,0,0-.08-.41c-1.05-2.31-1.12-8.38-1.29-24.59-.06-5.84-.13-13.1-.28-22l.37-1.52,1.12-.05A4.11,4.11,0,0,0,24.07,175H124a9.06,9.06,0,0,1,9.06,9.06v43.78c.6-.37,1.28.1,2-.27Z"/><path class="cls-1" d="M98.2,158.2H98a1,1,0,0,1-.82-1.15c0-.24,4-24.16.22-42.42C93.18,93.93,85.31,91.06,78.94,90.87,71.21,90.64,69.09,94.81,69,95a1,1,0,0,1-.79.56,1,1,0,0,1-.89-.38S64.61,92,57,92s-20.56,10-23.26,24.93a1,1,0,0,1-1.16.81,1,1,0,0,1-.81-1.16C34.45,101.83,47.77,90,57,90c6.08,0,9.42,1.88,10.9,3,1.28-1.6,4.45-4.35,11.08-4.16,10.42.31,16.89,8.37,20.38,25.35,3.83,18.63-.16,42.91-.2,43.15A1,1,0,0,1,98.2,158.2Z"/><path class="cls-1" d="M71,137.15c-7,0-14.59-5.27-14.59-20.07a1,1,0,0,1,2,0c0,11.15,4.82,18.08,12.59,18.08,8.36,0,12.6-6.54,12.6-19.44a1,1,0,0,1,2,0C85.56,133.43,77.62,137.15,71,137.15Z"/><path class="cls-1" d="M54.21,119.81a1,1,0,0,1-.37-1.93c8.59-3.4,16.16-18.17,16.23-18.32a1,1,0,0,1,1.78.9c-.32.64-8,15.6-17.27,19.28A1.21,1.21,0,0,1,54.21,119.81Z"/><path class="cls-1" d="M85.87,117.33a.9.9,0,0,1-.38-.08C77,113.71,69.59,103,69.28,102.53a1,1,0,1,1,1.65-1.13c.07.1,7.4,10.7,15.33,14a1,1,0,0,1-.39,1.92Z"/><path class="cls-1" d="M45.62,150.13a1,1,0,0,1-.38-.07,1,1,0,0,1-.54-1.31c1.13-2.75,2-9.76,2.93-16.54.65-5,1.32-10.1,2.09-13.53,1.86-8.39,7.64-11.79,7.89-11.94a1,1,0,1,1,1,1.73,17,17,0,0,0-6.94,10.64c-.74,3.35-1.41,8.44-2,13.36-.94,7.22-1.84,14.05-3.07,17A1,1,0,0,1,45.62,150.13Z"/><path class="cls-1" d="M71,161.19h0a12.5,12.5,0,0,1-10.43-6.47c-1.51-2.64-2-5.46-1.15-7,1.06-2,3.33-10.21,4.12-13.2a1,1,0,1,1,1.93.51c-.12.45-2.9,11-4.29,13.62-.35.66-.23,2.73,1.12,5.09A10.62,10.62,0,0,0,71,159.19a10.63,10.63,0,0,0,8.75-5.46c1.35-2.36,1.47-4.43,1.12-5.09C79.44,146,76.66,135.47,76.54,135a1,1,0,1,1,1.93-.51c.78,3,3,11.18,4.12,13.2.82,1.55.36,4.37-1.15,7A12.5,12.5,0,0,1,71,161.19Z"/><path class="cls-1" d="M37.42,175a.91.91,0,0,1-.23,0,1,1,0,0,1-.75-1.19c.14-.57,3.27-13.89,7.69-18.22s15.29-8.16,15.76-8.33a1,1,0,1,1,.66,1.88c-.11,0-11,3.9-15,7.87s-7.11,17.11-7.14,17.25A1,1,0,0,1,37.42,175Z"/><path class="cls-1" d="M104.57,174.62a1,1,0,0,1-1-.78c0-.14-2.91-12.93-6.91-16.86s-14.92-7.83-15-7.87a1,1,0,0,1,.67-1.88c.46.17,11.38,4.05,15.75,8.33s7.34,17.26,7.47,17.85a1,1,0,0,1-.76,1.19A.78.78,0,0,1,104.57,174.62Z"/><path class="cls-1" d="M167.83,92.32H163.4a1,1,0,0,1,0-2h4.43A10.44,10.44,0,0,0,178.26,79.9V59.27a1,1,0,1,1,2,0V79.9A12.44,12.44,0,0,1,167.83,92.32Z"/><path class="cls-11" d="M160.15,69.05l-.05-1.48a5.12,5.12,0,0,1,5-5.31c5.37-.14,13.42-1.07,16.77-5.16,3.48-4.25,3.8-7.46,2.6-16.07a34.35,34.35,0,0,1-19.6,6.22c-12,.17-16.37,3.92-17,13.55a140,140,0,0,0,.39,19.49,2.27,2.27,0,0,0,2.44,2.07l.8-.06a2.38,2.38,0,0,0,2.19-2.53l-.4-6a2,2,0,0,1,2-2.1h2.46A2.5,2.5,0,0,0,160.15,69.05Z"/><path class="cls-1" d="M150.45,83.37a3.29,3.29,0,0,1-3.25-3,139.46,139.46,0,0,1-.39-19.65c.73-10.38,5.62-14.3,18-14.48a33.53,33.53,0,0,0,19-6,1,1,0,0,1,1.61.64c1.19,8.6.95,12.24-2.81,16.84-3.52,4.28-11.47,5.37-17.52,5.53a4.1,4.1,0,0,0-4,4.28l.05,1.47a3.49,3.49,0,0,1-3.5,3.62h-2.46a1,1,0,0,0-1,1l.39,6a3.38,3.38,0,0,1-3.1,3.58l-.8.07Zm33.23-40.59a36.38,36.38,0,0,1-18.82,5.47c-11.35.16-15.41,3.34-16.06,12.62a138.47,138.47,0,0,0,.38,19.34,1.28,1.28,0,0,0,1.37,1.16l.8-.07a1.37,1.37,0,0,0,1.27-1.46l-.39-6a2.92,2.92,0,0,1,.79-2.22,3,3,0,0,1,2.17-.94h2.46a1.49,1.49,0,0,0,1.09-.46,1.55,1.55,0,0,0,.42-1.1l-.06-1.47a6.13,6.13,0,0,1,6-6.35c4.61-.12,12.83-.9,16-4.8C184.05,52.85,184.61,50.24,183.68,42.78Z"/><path class="cls-1" d="M168.24,103.92c-6.29,0-12.94-5.58-13.24-5.83a1,1,0,0,1-.14-1.39,7.18,7.18,0,0,0,.89-4.25c-.07-2.83-.82-3.34-2-4.1l-.06,0c-1.54-1-1.84-5-1.89-6.59a1,1,0,0,1,1-1h0a1,1,0,0,1,1,1c.08,2.26.56,4.64,1,5l.06,0c1.61,1.08,2.76,2.12,2.85,5.71a10.45,10.45,0,0,1-.82,4.68c1.83,1.39,7.26,5.15,11.9,4.82a34.83,34.83,0,0,0,2.29-11.41,1,1,0,0,1,1-1h0a1,1,0,0,1,1,1,37,37,0,0,1-2.66,12.73,1,1,0,0,1-.78.6A9.87,9.87,0,0,1,168.24,103.92Z"/><path class="cls-1" d="M134.5,129.2h0a1,1,0,0,1-1-1c0-.5.14-12.19,13.85-18.86a1,1,0,1,1,.88,1.79c-12.55,6.11-12.74,16.62-12.74,17.07A1,1,0,0,1,134.5,129.2Z"/><path class="cls-1" d="M182.29,119.09c-1.15-8.72-11.71-16.72-12.15-17.06a1,1,0,0,0-1.4.2,1,1,0,0,0,.2,1.39c.1.08,10.33,7.84,11.37,15.73.24,1.8.37,6,.44,11.43a19.25,19.25,0,0,0,2,.23C182.67,125.34,182.54,121,182.29,119.09Z"/><path class="cls-1" d="M143.32,189.87a1,1,0,1,0-.1,2c1.24.06,2.6.09,4,.09,2.34,0,4.88-.08,7.49-.22a14,14,0,0,1-.52-2C150.23,190,146.43,190,143.32,189.87Z"/><path class="cls-1" d="M182,142.4h-.23a1,1,0,0,1-1-1,1,1,0,0,1,1-1s4.94.11,7.08-2a3,3,0,0,0,.94-2.27c0-5.32-7.95-40.72-8-41.08a1,1,0,1,1,2-.43c.32,1.46,8.07,36,8.07,41.51a5,5,0,0,1-1.54,3.7C187.83,142.25,183.12,142.4,182,142.4Z"/><path class="cls-1" d="M129.63,152H99a1,1,0,0,1,0-2h30.61a1,1,0,0,1,0,2Z"/><path class="cls-1" d="M130.24,118.9H99a1,1,0,0,1,0-2h31.22a1,1,0,1,1,0,2Z"/><path class="cls-1" d="M54.72,91.92a1,1,0,0,1-1-1V20.4a1,1,0,0,1,1-1H162.48a1,1,0,0,1,1,1v27a1,1,0,1,1-2,0v-26H55.72V90.92A1,1,0,0,1,54.72,91.92Z"/><path class="cls-1" d="M154.53,98.6a1,1,0,0,1-1-1V87.65a1,1,0,0,1,2,0V97.6A1,1,0,0,1,154.53,98.6Z"/><path class="cls-1" d="M125.13,109.21a1,1,0,0,1-1-1V86a1,1,0,0,1,1-1h28.3a1,1,0,0,1,0,2H126.12v21.26A1,1,0,0,1,125.13,109.21Z"/><path class="cls-1" d="M154.53,98.08h-29.4a1,1,0,0,1,0-2h29.4a1,1,0,0,1,0,2Z"/><rect class="cls-3" x="100.92" y="78.96" width="13.29" height="29.25"/><path class="cls-1" d="M114.22,109.21h-13.3a1,1,0,0,1-1-1V79a1,1,0,0,1,1-1h13.3a1,1,0,0,1,1,1v29.25A1,1,0,0,1,114.22,109.21Zm-12.3-2h11.3V80h-11.3Z"/><path class="cls-1" d="M181.54,96.24a2.77,2.77,0,0,1-.94-.16,2.88,2.88,0,0,1-1.66-1.46l-3.18-6.53a1,1,0,0,1,1.8-.87l3.18,6.52a.88.88,0,0,0,1.19.41l2.64-1.28a.94.94,0,0,0,.45-.51.89.89,0,0,0,0-.68l-6.45-13.35a1,1,0,1,1,1.79-.87l6.45,13.35a2.86,2.86,0,0,1-1.33,3.85L182.8,96A2.94,2.94,0,0,1,181.54,96.24Z"/><circle class="cls-4" cx="75.71" cy="203.09" r="7.48"/><path class="cls-1" d="M75.71,211.57a8.48,8.48,0,1,1,8.48-8.48A8.5,8.5,0,0,1,75.71,211.57Zm0-15a6.48,6.48,0,1,0,6.48,6.48A6.48,6.48,0,0,0,75.71,196.61Z"/><path class="cls-1" d="M75.71,220.32a1,1,0,0,1-1-1v-4a1,1,0,0,1,2,0v4A1,1,0,0,1,75.71,220.32Zm11.48-4.75a1,1,0,0,1-.7-.29l-2.81-2.81a1,1,0,1,1,1.41-1.41l2.81,2.81a1,1,0,0,1,0,1.41A1,1,0,0,1,87.19,215.57Zm-23,0a1,1,0,0,1-.71-.29,1,1,0,0,1,0-1.41l2.8-2.81a1,1,0,1,1,1.42,1.41l-2.81,2.81A1,1,0,0,1,64.23,215.57ZM92,204.09H88a1,1,0,0,1,0-2h4a1,1,0,0,1,0,2Zm-28.52,0h-4a1,1,0,0,1,0-2h4a1,1,0,1,1,0,2Zm21-8.68a1,1,0,0,1-.71-.29,1,1,0,0,1,0-1.41l2.81-2.81a1,1,0,0,1,1.41,1.41l-2.81,2.81A1,1,0,0,1,84.39,195.41Zm-17.36,0a1,1,0,0,1-.71-.29l-2.8-2.81a1,1,0,0,1,1.41-1.41l2.81,2.81a1,1,0,0,1-.71,1.7Zm8.68-3.6a1,1,0,0,1-1-1v-4a1,1,0,0,1,2,0v4A1,1,0,0,1,75.71,191.81Z"/><path class="cls-1" d="M151.89,109.45a1,1,0,0,1-1-.83,1.1,1.1,0,0,1,.15-.79,1,1,0,0,1,.66-.44.75.75,0,0,1,.21,0,1,1,0,0,1,1,.83,1,1,0,0,1-.81,1.23l-.21,0Z"/><path class="cls-1" d="M62,106.11a1,1,0,0,1-.2-2.06l.21,0a1,1,0,0,1,.86,1.62,1,1,0,0,1-.66.44.75.75,0,0,1-.21,0Z"/><path class="cls-1" d="M149.08,149.17h-.17l-21-3.67a1,1,0,0,1-.82-.84c-.09-.64-2.2-15.74,2.2-26.43,4.11-10,14.29-15.84,19.18-18.65.74-.42,1.38-.79,1.84-1.08,3.53-2.24,5.11-2.22,5.51-2.16l-.3,2h.06s-1.22,0-4.21,1.86c-.49.32-1.15.69-1.91,1.13-4.7,2.7-14.48,8.31-18.33,17.67-3.66,8.92-2.51,21.57-2.15,24.68L148.09,147c.06-2.1.44-6.39,2.36-9a1,1,0,0,1,1.39-.21,1,1,0,0,1,.22,1.4c-2.15,2.91-2,8.9-2,9a1,1,0,0,1-.35.79A1,1,0,0,1,149.08,149.17Z"/><path class="cls-7" d="M87.63,79v13.7c3.73,2.67,6.88,7.5,9.24,15.55h4V79Z"/><path class="cls-1" d="M100.92,109.21h-4a1,1,0,0,1-1-.72c-2.17-7.38-5.07-12.3-8.87-15a1,1,0,0,1-.41-.81V79a1,1,0,0,1,1-1h13.29a1,1,0,0,1,1,1v29.25A1,1,0,0,1,100.92,109.21Zm-3.3-2h2.31V80H88.63v12.2C92.47,95.1,95.42,100,97.62,107.21Z"/><path class="cls-6" d="M79,89.87a15.16,15.16,0,0,1,8.66,2.79V79H74.34V90.31A17.66,17.66,0,0,1,79,89.87Z"/><path class="cls-1" d="M87.63,93.66a1.05,1.05,0,0,1-.58-.19,14.12,14.12,0,0,0-8.11-2.6h-.6a15.86,15.86,0,0,0-3.76.42,1,1,0,0,1-.85-.19,1,1,0,0,1-.39-.78V79a1,1,0,0,1,1-1H87.63a1,1,0,0,1,1,1v13.7a1,1,0,0,1-.54.89A1,1,0,0,1,87.63,93.66Zm-9.29-4.8H79a16.62,16.62,0,0,1,7.64,2V80H75.34v9.13A19.22,19.22,0,0,1,78.34,88.86Z"/><path class="cls-1" d="M175,108.9a1,1,0,0,1-1-.91c0-.13-1.25-12.92-2.28-17.18a1,1,0,1,1,1.94-.47c1.06,4.4,2.27,16.93,2.32,17.46a1,1,0,0,1-.89,1.09Z"/><path class="cls-1" d="M143.43,197.92a1,1,0,0,1-1-.94c-.54-8.89.42-25,.43-25.15s0-.09,0-.13,1.91-9.67,2.88-19.51a25.74,25.74,0,0,0,0-3.93,1,1,0,1,1,2-.17,26.46,26.46,0,0,1,0,4.29c-.94,9.51-2.72,18.75-2.9,19.64-.06,1.13-.94,16.36-.42,24.84a1,1,0,0,1-.94,1.06Z"/><circle class="cls-3" cx="19.04" cy="128.77" r="19.04"/><path class="cls-1" d="M1.24,112.82a.78.78,0,0,0,.57-.24,23.66,23.66,0,0,1,26.9-5.4.77.77,0,1,0,.64-1.41A25,25,0,0,0,19,103.57,25.28,25.28,0,0,0,.68,111.51a.77.77,0,0,0,.56,1.31Z"/><path class="cls-4" d="M22,134.34l.16-.17-9-7.38a.86.86,0,0,1-.07.1,3.23,3.23,0,1,1-4.48-4.6,3.22,3.22,0,0,0,5.05,2h0a3.23,3.23,0,0,0-3-4.55,3.83,3.83,0,0,1,.4-.62,3.23,3.23,0,1,1,5,4.09l-.08.1,9,7.36h0a3.23,3.23,0,1,1,5,4.09,3.64,3.64,0,0,1-.53.51,3.22,3.22,0,0,0-5-2h0a3.23,3.23,0,0,0,2.94,4.55,3.2,3.2,0,0,1-.39.62,3.23,3.23,0,0,1-5-4.09Z"/><path class="cls-1" d="M18.27,172.32v-2a.77.77,0,0,1,.77-.78.78.78,0,0,1,.78.78v2a.78.78,0,0,1-.78.78A.77.77,0,0,1,18.27,172.32Zm0-6.82v-2.05a.76.76,0,0,1,.77-.77.77.77,0,0,1,.78.77v2.05a.78.78,0,0,1-.78.78A.77.77,0,0,1,18.27,165.5Zm0-6.82v-2.05a.77.77,0,0,1,.77-.78.78.78,0,0,1,.78.78v2.05a.77.77,0,0,1-.78.77A.76.76,0,0,1,18.27,158.68Zm0-6.83v-2A.77.77,0,0,1,19,149a.78.78,0,0,1,.78.78v2a.78.78,0,0,1-.78.78A.77.77,0,0,1,18.27,151.85Z"/></g></g></svg>