<svg xmlns="http://www.w3.org/2000/svg" viewBox="0 0 269 159"><defs><style>.cls-1{fill:#bcd6e0;}.cls-2{fill:#1c3e58;}.cls-3{fill:#e55353;}.cls-4{fill:#91c9d3;}.cls-5{fill:#fabf62;}.cls-6{fill:#47a5b5;}.cls-7{fill:#fff;}</style></defs><title>team_r</title><g id="Layer_2" data-name="Layer 2"><g id="pic"><g id="TEAM_R" data-name="TEAM R"><path id="Shape" class="cls-1" d="M175.29,134.59l-2.81,2.35a3.43,3.43,0,0,1-5.59-2,3.35,3.35,0,0,1,1.16-3.19l2.81-2.36-.39-.46a5.57,5.57,0,0,0-7.8-.64A5.44,5.44,0,0,0,162,136l-10,8.39a19,19,0,0,0,.66,2.06l1,2.86,1.24,3.68,12.63-10.59-.26-.31a5.57,5.57,0,0,0,7.79.66,5.45,5.45,0,0,0,.65-7.72Z"/><path id="Shape-2" data-name="Shape" class="cls-2" d="M175.15,134a.82.82,0,0,0-.55-.3.79.79,0,0,0-.6.2l-2.74,2.39a2.47,2.47,0,0,1-1.85.61,2.55,2.55,0,0,1-2.2-1.81,2.65,2.65,0,0,1,.77-2.78l2.74-2.4a.83.83,0,0,0,.29-.57.84.84,0,0,0-.19-.61l-.39-.46a6.08,6.08,0,0,0-8.41-1,6.53,6.53,0,0,0-1.54,8.58l-9.2,8a.85.85,0,0,0-.26.83q.28,1.09.66,2.16l1,2.88,1.21,3.73a.81.81,0,0,0,.55.54h.22a.77.77,0,0,0,.52-.2l11.8-10.27a6.07,6.07,0,0,0,8.31-.56,6.53,6.53,0,0,0,.28-8.57Zm-1.39,8.19a4.5,4.5,0,0,1-6.44-.54.78.78,0,0,0-1-.23.83.83,0,0,0-.45.91L155,151.79l-.81-2.57-1-2.91v0a13,13,0,0,1-.48-1.48l9.39-8.18a.87.87,0,0,0,.28-.57.84.84,0,0,0-.19-.61,4.81,4.81,0,0,1,.52-6.5,4.49,4.49,0,0,1,6.33.24L167,131a4.36,4.36,0,0,0-.48,6,4.07,4.07,0,0,0,5.86.5l2.12-1.85A4.82,4.82,0,0,1,173.76,142.17Z"/><path id="Shape-3" data-name="Shape" class="cls-2" d="M203.51,30A19.5,19.5,0,1,0,223,49.5,19.51,19.51,0,0,0,203.51,30Zm0,37.36A17.86,17.86,0,1,1,221.37,49.5,17.86,17.86,0,0,1,203.51,67.36Z"/><path id="Shape-4" data-name="Shape" class="cls-2" d="M194,45a.91.91,0,0,0-1,.78v7.44a1,1,0,0,0,2,0V45.78A.91.91,0,0,0,194,45Z"/><path id="Shape-5" data-name="Shape" class="cls-2" d="M196.6,41.63a5.68,5.68,0,0,0-5.2,0,.75.75,0,0,0-.38.46.64.64,0,0,0,.11.55.83.83,0,0,0,.52.34.94.94,0,0,0,.64-.1,3.79,3.79,0,0,1,3.41,0,.91.91,0,0,0,1.16-.22.65.65,0,0,0,.12-.57A.75.75,0,0,0,196.6,41.63Z"/><path id="Shape-6" data-name="Shape" class="cls-2" d="M197.46,39.58a10.74,10.74,0,0,0-7,0,.79.79,0,0,0-.45.41.61.61,0,0,0,0,.57.8.8,0,0,0,.47.39,1,1,0,0,0,.66,0,8.78,8.78,0,0,1,5.55,0,.84.84,0,0,0,.35.07.83.83,0,0,0,.87-.58A.72.72,0,0,0,197.46,39.58Z"/><path id="Shape-7" data-name="Shape" class="cls-2" d="M214,45a.91.91,0,0,0-1,.78v7.44a1,1,0,0,0,2,0V45.78A.91.91,0,0,0,214,45Z"/><path id="Shape-8" data-name="Shape" class="cls-2" d="M216.61,41.64a5.64,5.64,0,0,0-5.21,0,.75.75,0,0,0-.38.46.65.65,0,0,0,.11.55.8.8,0,0,0,.52.33.89.89,0,0,0,.64-.1,3.81,3.81,0,0,1,3.42,0,.79.79,0,0,0,.45.11.82.82,0,0,0,.71-.34.64.64,0,0,0,.11-.55A.73.73,0,0,0,216.61,41.64Z"/><path id="Shape-9" data-name="Shape" class="cls-2" d="M217.46,39.59a10.49,10.49,0,0,0-7,0,.75.75,0,0,0-.45.4.61.61,0,0,0,0,.57.8.8,0,0,0,.47.39,1,1,0,0,0,.66,0,8.64,8.64,0,0,1,5.55,0,.84.84,0,0,0,.35.07.83.83,0,0,0,.87-.58A.71.71,0,0,0,217.46,39.59Z"/><path id="Shape-10" data-name="Shape" class="cls-2" d="M12,126a.93.93,0,0,0-1,.82V159h2V126.83a.77.77,0,0,0-.29-.59A1.15,1.15,0,0,0,12,126Z"/><path id="Shape-11" data-name="Shape" class="cls-2" d="M46.19,10H11.81a.82.82,0,0,0-.81.82V96.18a.81.81,0,1,0,1.62,0V11.64H46.19a.82.82,0,0,0,0-1.64Z"/><path id="Shape-12" data-name="Shape" class="cls-2" d="M109.18,10H46.82A.93.93,0,0,0,46,11a.93.93,0,0,0,.82,1h62.36a.93.93,0,0,0,.82-1A.93.93,0,0,0,109.18,10Z"/><path id="Shape-13" data-name="Shape" class="cls-2" d="M84.2,30H25.81a.82.82,0,0,0-.81.82V99.18a.82.82,0,0,0,.81.82.82.82,0,0,0,.82-.82V31.65H84.19a.82.82,0,0,0,0-1.63Z"/><path id="Shape-14" data-name="Shape" class="cls-2" d="M26,123a.93.93,0,0,0-1,.82V159h2V123.82A.93.93,0,0,0,26,123Z"/><path id="Shape-15" data-name="Shape" class="cls-2" d="M96,121a.92.92,0,0,0-1,.81V158h2V121.82a.73.73,0,0,0-.29-.58A1.15,1.15,0,0,0,96,121Z"/><path id="Shape-16" data-name="Shape" class="cls-2" d="M37.18,18H15.82a.82.82,0,0,0-.82.82V87.18a.82.82,0,0,0,1.64,0V19.66H37.18a.82.82,0,1,0,0-1.64Z"/><path id="Shape-17" data-name="Shape" class="cls-2" d="M74.18,46H25.82a1,1,0,0,0,0,2H74.18a1,1,0,0,0,0-2Z"/><path id="Shape-18" data-name="Shape" class="cls-2" d="M82.18,64H25.82a1,1,0,0,0,0,2H82.18a1,1,0,0,0,0-2Z"/><path id="Shape-19" data-name="Shape" class="cls-2" d="M94.18,84H25.82a1,1,0,0,0,0,2H94.18a1,1,0,0,0,0-2Z"/><path id="Shape-20" data-name="Shape" class="cls-2" d="M94.18,103H28.82a1,1,0,0,0,0,2H94.18a1,1,0,0,0,0-2Z"/><path id="Shape-21" data-name="Shape" class="cls-2" d="M94.19,121H27.81a1,1,0,0,0,0,2H94.19a1,1,0,0,0,0-2Z"/><path id="Shape-22" data-name="Shape" class="cls-2" d="M94.18,140H25.82a1,1,0,0,0,0,2H94.18a1,1,0,0,0,0-2Z"/><rect id="Rectangle-path" class="cls-3" x="33" y="36" width="20" height="4"/><path id="Shape-23" data-name="Shape" class="cls-2" d="M53.19,53H32.81a.82.82,0,0,0-.81.82v4.36a.82.82,0,0,0,.81.82H53.19a.82.82,0,0,0,.81-.82V53.82A.82.82,0,0,0,53.19,53Zm-.82,4.36H33.63v-2.7H52.37Z"/><rect id="Rectangle-path-2" data-name="Rectangle-path" class="cls-4" x="33" y="73" width="20" height="4"/><path id="Shape-24" data-name="Shape" class="cls-2" d="M53.19,91H32.81a.82.82,0,0,0-.81.82v4.36a.82.82,0,0,0,.81.82H53.19a.82.82,0,0,0,.81-.82V91.82A.82.82,0,0,0,53.19,91Zm-.82,4.36H33.63v-2.7H52.37Z"/><path id="Shape-25" data-name="Shape" class="cls-2" d="M53.19,110H32.81a.82.82,0,0,0-.81.82v4.36a.82.82,0,0,0,.81.82H53.19a.82.82,0,0,0,.81-.82v-4.36A.82.82,0,0,0,53.19,110Zm-.82,4.36H33.63v-2.7H52.37Z"/><rect id="Rectangle-path-3" data-name="Rectangle-path" class="cls-5" x="33" y="129" width="20" height="4"/><path id="Shape-26" data-name="Shape" class="cls-2" d="M53.19,147H32.81a.82.82,0,0,0-.81.82v4.36a.82.82,0,0,0,.81.82H53.19a.82.82,0,0,0,.81-.82v-4.36A.82.82,0,0,0,53.19,147Zm-.82,4.36H33.63v-2.7H52.37Z"/><path id="Shape-27" data-name="Shape" class="cls-2" d="M236.18,10H137.82a.82.82,0,1,0,0,1.64h97.53V78.18a.83.83,0,0,0,1.65,0V10.82A.82.82,0,0,0,236.18,10Z"/><path id="Shape-28" data-name="Shape" class="cls-2" d="M236,126a.93.93,0,0,0-1,.82V159h2V126.83a.77.77,0,0,0-.29-.59A1.15,1.15,0,0,0,236,126Z"/><path id="Shape-29" data-name="Shape" class="cls-2" d="M221.19,30H152.82a.82.82,0,0,0-.82.81V56.19a.82.82,0,0,0,1.64,0V31.63h66.72v5a.82.82,0,0,0,1.64,0V30.81a.81.81,0,0,0-.23-.57A.84.84,0,0,0,221.19,30Z"/><path id="Shape-30" data-name="Shape" class="cls-2" d="M221,112a.92.92,0,0,0-1,.81V158h2V112.81A.92.92,0,0,0,221,112Z"/><path id="Shape-31" data-name="Shape" class="cls-2" d="M221,62a.92.92,0,0,0-1,.81V91.19a1,1,0,0,0,2,0V62.82a.73.73,0,0,0-.29-.58A1.15,1.15,0,0,0,221,62Z"/><path id="Shape-32" data-name="Shape" class="cls-2" d="M196.18,18H150.82a1,1,0,0,0,0,2h45.36a1,1,0,0,0,0-2Z"/><path id="Shape-33" data-name="Shape" class="cls-2" d="M185.19,46H152.81a1,1,0,0,0,0,2h32.38a1,1,0,0,0,0-2Z"/><path id="Shape-34" data-name="Shape" class="cls-2" d="M193.19,64H152.81a1,1,0,0,0,0,2h40.38a1,1,0,0,0,0-2Z"/><path id="Shape-35" data-name="Shape" class="cls-2" d="M221.18,84H152.82a1,1,0,0,0,0,2h68.36a1,1,0,0,0,0-2Z"/><path id="Shape-36" data-name="Shape" class="cls-2" d="M218.19,103H152.81a1,1,0,0,0,0,2h65.38a1,1,0,0,0,0-2Z"/><path id="Shape-37" data-name="Shape" class="cls-2" d="M221.18,121H179.82a1,1,0,0,0,0,2h41.36a1,1,0,0,0,0-2Z"/><path id="Shape-38" data-name="Shape" class="cls-2" d="M221.18,140H187.82a1,1,0,0,0,0,2h33.36a1,1,0,0,0,0-2Z"/><path id="Shape-39" data-name="Shape" class="cls-2" d="M230,123a.92.92,0,0,0-1,.81v27.38a1,1,0,0,0,2,0V123.81A.92.92,0,0,0,230,123Z"/><path id="Shape-40" data-name="Shape" class="cls-2" d="M230,30a.93.93,0,0,0-1,.82V81.18a1,1,0,0,0,2,0V30.83a.77.77,0,0,0-.29-.59A1.15,1.15,0,0,0,230,30Z"/><path id="Shape-41" data-name="Shape" class="cls-2" d="M180.19,36H159.81a.82.82,0,0,0-.81.82v4.36a.82.82,0,0,0,.81.82h20.38a.82.82,0,0,0,.81-.82V36.82A.82.82,0,0,0,180.19,36Zm-.82,4.36h-18.7V37.65h18.7Z"/><path id="Shape-42" data-name="Shape" class="cls-2" d="M180.19,53H159.81a.82.82,0,0,0-.81.82v4.36a.82.82,0,0,0,.81.82h20.38a.82.82,0,0,0,.81-.82V53.82A.82.82,0,0,0,180.19,53Zm-.82,4.36h-18.7v-2.7h18.7Z"/><rect id="Rectangle-path-4" data-name="Rectangle-path" class="cls-6" x="159" y="73" width="20" height="4"/><path id="Shape-43" data-name="Shape" class="cls-2" d="M180.19,91H159.81a.82.82,0,0,0-.81.82v4.36a.82.82,0,0,0,.81.82h20.38a.82.82,0,0,0,.81-.82V91.82A.82.82,0,0,0,180.19,91Zm-.82,4.36h-18.7v-2.7h18.7Z"/><path id="Shape-44" data-name="Shape" class="cls-2" d="M180.19,110H159.81a.83.83,0,0,0,0,1.65h19.52v2.7h-14a.83.83,0,0,0,0,1.65h14.81a.82.82,0,0,0,.81-.82v-4.37A.82.82,0,0,0,180.19,110Z"/><path id="Shape-45" data-name="Shape" class="cls-2" d="M16,95a16,16,0,1,0,16,16A16,16,0,0,0,16,95Zm0,30.37A14.37,14.37,0,1,1,30.37,111,14.37,14.37,0,0,1,16,125.37Z"/><path id="Shape-46" data-name="Shape" class="cls-2" d="M243.51,77A25.5,25.5,0,1,0,269,102.49,25.51,25.51,0,0,0,243.51,77Zm0,49.33a23.81,23.81,0,1,1,23.81-23.81,23.81,23.81,0,0,1-23.81,23.81Z"/><path id="Shape-47" data-name="Shape" class="cls-2" d="M242.11,82c-10.67.76-19.19,8.86-20.11,19.12a.79.79,0,0,0,.2.6.87.87,0,0,0,.57.28h.08a.83.83,0,0,0,.84-.75,19.84,19.84,0,0,1,18.53-17.64.82.82,0,0,0,.78-.86.84.84,0,0,0-.9-.75Z"/><path id="Shape-48" data-name="Shape" class="cls-2" d="M124,32.61a.8.8,0,0,0-.57.28.87.87,0,0,0-.2.6c.39,5.65-1.52,9.52-6.57,13.35-4.15,3.16-6.64,1-11-3.55-.35-.38-.73-.76-1.11-1.15a9.47,9.47,0,0,1-3.11-6.93,4.44,4.44,0,0,0-.61-2.49c-.66-.89-1.12-5.17-1.24-7.93a.83.83,0,0,0-.45-.7.85.85,0,0,0-.83,0,.84.84,0,0,0-.38.74c0,1.19.37,7.21,1.56,8.84a3.66,3.66,0,0,1,.29,1.57,11,11,0,0,0,3.59,8l1.1,1.14c2.82,2.93,5.38,5.58,8.5,5.58a7.69,7.69,0,0,0,4.68-1.86c5.49-4.14,7.65-8.58,7.23-14.79A.83.83,0,0,0,124,32.61Z"/><path id="Shape-49" data-name="Shape" class="cls-2" d="M112.8,48.05a.79.79,0,0,0-.45.41.74.74,0,0,0,0,.6s.9,2.94-4.07,7.57a.78.78,0,0,0,0,1.12.83.83,0,0,0,1.15,0c5.8-5.41,4.53-9.1,4.47-9.25a.79.79,0,0,0-.41-.45A.86.86,0,0,0,112.8,48.05Z"/><path id="Shape-50" data-name="Shape" class="cls-5" d="M111.89,48.48c-3,0-5.51-3-8.63-6.33-3.46-3.63-2.94-7.53-3.66-9.32A25.8,25.8,0,0,1,98.41,27l-2.09.24a8.63,8.63,0,0,0-3.76,7c0,3.32,1.29,5.12,3.13,9.77,1,2.65-1.25,3.15-2.53,4.52a8.53,8.53,0,0,0-2.2,6c.36,3.34,3.32,5,1.6,6.73C88.92,65,89,70.86,94,75l6.6-2.94,3.15-9.31,3.89-5.54c5.44-5.3,4.24-8.71,4.24-8.71Z"/><path id="Shape-51" data-name="Shape" class="cls-2" d="M113.74,48a.79.79,0,0,0-.66-.36c-2.44,0-4.63-2.38-7.21-5.1l-1-1a11.59,11.59,0,0,1-3.07-7,10,10,0,0,0-.49-2.15,25.79,25.79,0,0,1-1.15-5.64.81.81,0,0,0-.29-.56.76.76,0,0,0-.61-.18l-2.14.24a.76.76,0,0,0-.32.11,9.44,9.44,0,0,0-4.23,7.71c0,2.63.73,4.35,1.88,7,.41.92.87,2,1.37,3.2s.06,1.74-1.15,2.63a8.93,8.93,0,0,0-1.26,1,8.15,8.15,0,0,0-1,10.59c.82,1.47.9,1.78.41,2.28A9.48,9.48,0,0,0,90,68a11,11,0,0,0,4.36,7.82.82.82,0,0,0,.52.18.71.71,0,0,0,.32-.07l6.72-3a.82.82,0,0,0,.45-.48l3.17-9.27,3.83-5.42c5.35-5.18,4.67-8.85,4.49-9.5A.69.69,0,0,0,113.74,48Zm-5.55,8.63a.52.52,0,0,0-.1.11l-4,5.59a.78.78,0,0,0-.11.2l-3.08,9L95,74.16a9.17,9.17,0,0,1-3.37-6.31,7.84,7.84,0,0,1,2.35-6c1.44-1.47.59-3-.15-4.26a8.12,8.12,0,0,1-1.25-3.2,7.86,7.86,0,0,1,2-5.43,7.27,7.27,0,0,1,1-.82c1.16-.82,2.74-2,1.71-4.58-.5-1.27-1-2.33-1.39-3.28-1.11-2.46-1.77-4-1.73-6.27a7.75,7.75,0,0,1,3.25-6.22l1.12-.12A25.73,25.73,0,0,0,99.78,33a9,9,0,0,1,.39,1.78,13.42,13.42,0,0,0,3.5,7.86l1,1c2.62,2.76,4.88,5.16,7.68,5.56.07,1.1-.3,3.77-4.14,7.46Z"/><path id="Shape-52" data-name="Shape" class="cls-5" d="M150.27,46.41c-3-6.19-8.21-.59-11.64-14.4-3.89-15.59-6.91-25-16-28.13s-14.14,2.89-14.14,2.89L104,18.16s6.78-3.68,10.59,2.4,8.84,24.82,17.24,31.75,20,16.69,20,16.69c5.43-6.76,2.71-10,.56-13.38S152.16,50.52,150.27,46.41Z"/><path id="Shape-53" data-name="Shape" class="cls-2" d="M153.23,56.23a6.61,6.61,0,0,1-1-4.08A11.3,11.3,0,0,0,151.14,47a7.58,7.58,0,0,0-4.69-4.09c-2.45-1-4.95-2.08-7-10.18C135.54,17,132.45,7.22,122.81,4s-14.92,2.89-15.14,3.16a.68.68,0,0,0-.14.23l-4.47,11.43a.82.82,0,0,0,1.15,1c.25-.14,6.21-3.27,9.58,2.12A70.82,70.82,0,0,1,118,31c3.35,8.11,7.51,18.2,13.36,23,8.35,6.87,20,16.69,20.13,16.78a.81.81,0,0,0,.53.2h.08a.85.85,0,0,0,.57-.3c5.51-6.85,3.11-10.54,1-13.8Zm-1.38,12.7c-2.58-2.17-12.28-10.31-19.5-16.25-5.53-4.55-9.6-14.44-12.88-22.37A72.2,72.2,0,0,0,115.18,21a7.84,7.84,0,0,0-6.91-3.91,10.36,10.36,0,0,0-3,.46L109,8c.68-.75,5.27-5.26,13.27-2.57,8.85,3,11.8,12.45,15.61,27.68,2.22,8.9,5.24,10.18,7.92,11.3a6.14,6.14,0,0,1,3.84,3.27,9.59,9.59,0,0,1,.9,4.44,8.26,8.26,0,0,0,1.3,4.9c.12.2.26.4.39.61,2,3.14,3.72,5.81-.39,11.28Z"/><path id="Shape-54" data-name="Shape" class="cls-5" d="M94.69,9.45c-10.06,9-.8,22.55-.8,22.55a24.39,24.39,0,0,0,14-24.32S102,2.91,94.69,9.45Z"/><path id="Shape-55" data-name="Shape" class="cls-2" d="M108.56,6.8c-.06,0-6.61-5-14.5,1.75-4.44,3.79-6,9-4.51,15.11a25.77,25.77,0,0,0,3.56,8,.83.83,0,0,0,.68.34.9.9,0,0,0,.36-.08c8.83-4.22,12.37-10.68,13.78-15.33a23.11,23.11,0,0,0,.95-9.27A.74.74,0,0,0,108.56,6.8Zm-2.21,9.31c-1.85,6.13-6,10.85-12.28,14a25.05,25.05,0,0,1-2.93-6.91c-1.34-5.51,0-10,4-13.45a11.7,11.7,0,0,1,7.56-3.18,8.79,8.79,0,0,1,4.56,1.25A22.6,22.6,0,0,1,106.35,16.11Z"/><path id="Shape-56" data-name="Shape" class="cls-4" d="M153,72.63C148.45,62.67,130.91,53,130.91,53c-.2,6.25-3.29,10.34-10.3,11.32-8.32,1.16-12.49-6.51-12.49-6.51s-4.58,3-8.52,5.53-4.94,4.17-5.45,8.28c-.72,5.94,1.38,41.48,1.38,41.48l.75,8.18a162.42,162.42,0,0,0,60.6-2.56,4.07,4.07,0,0,0,3.1-4.32C159.16,105.32,156.66,80.71,153,72.63Z"/><path id="Shape-57" data-name="Shape" class="cls-2" d="M154,72.23c-4.55-10.15-21.49-19.72-22.2-20.12a.8.8,0,0,0-.82,0,.81.81,0,0,0-.41.69c-.2,6.24-3.3,9.71-9.51,10.62-7.55,1.08-11.41-5.83-11.53-6.12a.81.81,0,0,0-1.17-.3s-4.58,3-8.44,5.56c-4.08,2.69-5.24,4.52-5.76,8.91-.71,6,1.28,40.37,1.37,41.83l.74,8.22a.83.83,0,0,0,.7.75A159.45,159.45,0,0,0,120.37,124a155.66,155.66,0,0,0,36.92-4.32,4.93,4.93,0,0,0,3.69-5.22C160.12,104.47,157.66,80.37,154,72.23Zm2.91,45.84a157,157,0,0,1-59.06,2.66l-.67-7.57c0-.82-2.07-35.74-1.38-41.52.47-3.93,1.35-5.3,5-7.74l7.74-5.1c1.36,2,5.63,7.23,12.73,6.22,6.52-.94,10.2-4.57,10.82-10.81,3.9,2.34,16.71,10.5,20.38,18.69s6.17,34,6.85,41.69a3.26,3.26,0,0,1-2.42,3.48Z"/><path id="Shape-58" data-name="Shape" class="cls-7" d="M106.2,76H58.8A6.78,6.78,0,0,0,52,82.74v25.55A6.77,6.77,0,0,0,58.8,115H113V82.67A6.77,6.77,0,0,0,106.2,76Z"/><path id="Shape-59" data-name="Shape" class="cls-2" d="M106.34,75H58.67A7.65,7.65,0,0,0,51,82.61v25.77A7.64,7.64,0,0,0,58.67,116h54.51a.82.82,0,0,0,.82-.82V82.58A7.64,7.64,0,0,0,106.34,75Zm6,39.33H58.67a6,6,0,0,1-6-6V82.61a6,6,0,0,1,6-6h47.67a6,6,0,0,1,6,6Z"/><path id="Shape-60" data-name="Shape" class="cls-2" d="M97.29,121.36,90.08,119a.83.83,0,0,0-1,.54.84.84,0,0,0,.54,1.06L96.79,123a.69.69,0,0,0,.25,0,.82.82,0,0,0,.78-.31.85.85,0,0,0,.12-.83.83.83,0,0,0-.65-.52Z"/><path id="Shape-61" data-name="Shape" class="cls-2" d="M92.39,115a.83.83,0,0,0-.61.1.77.77,0,0,0-.35.48s-1,4.06-9.88,3.85-9.92-3.81-9.92-3.87a.84.84,0,0,0-1-.58.79.79,0,0,0-.61,1c0,.19,1.35,4.79,11.46,5h.71c9.5,0,10.74-4.84,10.79-5.06A.75.75,0,0,0,92.39,115Z"/><path id="Shape-62" data-name="Shape" class="cls-2" d="M132.61,63.5a.8.8,0,0,0-1.11.27c-.12.19-2.86,4.6-10.32,5.45-11.66,1.33-15.45-7.34-15.61-7.71a.81.81,0,0,0-1.07-.44.82.82,0,0,0-.43,1.08,14.75,14.75,0,0,0,3.78,4.93,16.25,16.25,0,0,0,11,3.91,23.65,23.65,0,0,0,2.52-.14c8.31-1,11.41-6,11.53-6.23A.83.83,0,0,0,132.61,63.5Z"/><path id="Shape-63" data-name="Shape" class="cls-2" d="M132.86,97.06c-9.27,3.93-18.68.94-18.78.94a.78.78,0,0,0-.82.22,1,1,0,0,0-.24.9,1,1,0,0,0,.59.68,30.42,30.42,0,0,0,8.68,1.2,28.72,28.72,0,0,0,11.17-2.18,1,1,0,0,0,.48-1.22A.82.82,0,0,0,132.86,97.06Z"/><path id="Shape-64" data-name="Shape" class="cls-2" d="M143.69,81.67A.86.86,0,1,0,142,82c.12.51,2.84,12.38,4.35,16.41a.83.83,0,0,0,.78.55.73.73,0,0,0,.3-.06.86.86,0,0,0,.48-.44.84.84,0,0,0,0-.64C146.5,93.94,143.71,81.79,143.69,81.67Z"/><path id="Shape-65" data-name="Shape" class="cls-7" d="M127.61,110H114v6l13-.92a1,1,0,0,0,.9-.65l1-2.54a1.41,1.41,0,0,0-.16-1.29A1.39,1.39,0,0,0,127.61,110Z"/><path id="Shape-66" data-name="Shape" class="cls-2" d="M127.74,109H113.81a.83.83,0,0,0-.81.84v6.29a.82.82,0,0,0,.26.61.79.79,0,0,0,.56.23h.06l13.32-1a1.88,1.88,0,0,0,1.62-1.22l1-2.65a2.37,2.37,0,0,0-.24-2.15,2.27,2.27,0,0,0-1.86-1Zm.57,2.54-1,2.67a.24.24,0,0,1-.21.16l-12.44.92v-4.58h13.11a.61.61,0,0,1,.57.83Z"/><path id="Shape-67" data-name="Shape" class="cls-2" d="M153.26,109.1c-.32,0-7.88-.72-14.12,1.7a44.91,44.91,0,0,1-11.36,2.63.8.8,0,0,0-.78.82.81.81,0,0,0,.85.75h.06a46.11,46.11,0,0,0,11.85-2.74c5.85-2.28,13.27-1.61,13.34-1.57a.84.84,0,0,0,.75-.32.78.78,0,0,0,.08-.79.85.85,0,0,0-.67-.46Z"/><path id="Shape-68" data-name="Shape" class="cls-2" d="M139.57,82.75a.8.8,0,0,0-.86-.75.84.84,0,0,0-.71.91c1.13,12,7.23,27,7.48,27.59a.81.81,0,0,0,.73.5.88.88,0,0,0,.32-.07.86.86,0,0,0,.42-.46.88.88,0,0,0,0-.64C146.9,109.68,140.71,94.52,139.57,82.75Z"/><path id="Shape-69" data-name="Shape" class="cls-2" d="M92.2,80H61.15A5,5,0,0,0,56,84.9v1.33a.79.79,0,0,0,.81.77.8.8,0,0,0,.82-.77V84.9a3.26,3.26,0,0,1,1-2.37,3.61,3.61,0,0,1,2.49-1h31a.77.77,0,1,0,0-1.54Z"/><path id="Shape-70" data-name="Shape" class="cls-4" d="M103,123.53c-.83,7.33-2,22.71-2,22.71,21.17,5.88,52,.54,52,.54-1.56-3.82-3.89-18.18-4.95-24.78A165.83,165.83,0,0,1,103,123.53Z"/><path id="Shape-71" data-name="Shape" class="cls-2" d="M149.19,121.71a1,1,0,0,0-.33-.56.84.84,0,0,0-.63-.14,158.79,158.79,0,0,1-44.39,1.57.84.84,0,0,0-.61.18.82.82,0,0,0-.3.56c-.81,7.36-1.92,22.89-1.93,23.05a.82.82,0,0,0,.6.82c7.44,2.12,16.13,2.81,24.24,2.81a178.19,178.19,0,0,0,27.48-2.25.79.79,0,0,0,.58-.42.84.84,0,0,0,0-.71C152.45,142.81,150.09,127.93,149.19,121.71Zm-46.44,24.07c.21-3,1.09-14.86,1.79-21.47a161,161,0,0,0,43.18-1.5c1.11,7.31,3,18.86,4.44,23.47-5.33.83-31.09,4.49-49.47-.5Z"/><path id="Shape-72" data-name="Shape" class="cls-2" d="M160.83,114a.82.82,0,1,0,0,1.64,26.53,26.53,0,0,1,24.09,15.3A26,26,0,0,1,181,159h2.15a27.66,27.66,0,0,0,3-29.39A28.22,28.22,0,0,0,160.79,114Z"/><path id="Shape-73" data-name="Shape" class="cls-2" d="M101.34,145a.82.82,0,0,0-.63.12.84.84,0,0,0-.36.54c0,.09-1.6,8.14-2.35,13.32h1.68c.76-5.14,2.29-12.9,2.3-13A.83.83,0,0,0,101.34,145Z"/><path id="Shape-74" data-name="Shape" class="cls-2" d="M152.59,145.05a.84.84,0,0,0-.5.42.73.73,0,0,0,0,.63c0,.08,2.85,7.69,4.13,11.9H158c-1.21-4.15-4.16-12.09-4.29-12.45a.9.9,0,0,0-.45-.47A.91.91,0,0,0,152.59,145.05Z"/><path id="Shape-75" data-name="Shape" class="cls-7" d="M86,95.21C85.2,93.1,84.2,92.92,83.21,93s-1.46.51-1.36,3.46S80.2,98.65,80,101.84a2.81,2.81,0,0,0,.61,2.13,2.63,2.63,0,0,0,1.93,1c2.65.36,4.6-1.35,4.43-3.72A20.08,20.08,0,0,0,86,95.21Z"/><path id="Shape-76" data-name="Shape" class="cls-2" d="M142.9,129.05c-17.74,6.36-34.69,1.75-34.86,1.7a.82.82,0,0,0-1,.55.8.8,0,0,0,.56,1,65.63,65.63,0,0,0,35.87-1.74.78.78,0,0,0,.46-.41.72.72,0,0,0,0-.61.83.83,0,0,0-.42-.46A.86.86,0,0,0,142.9,129.05Z"/><path id="Shape-77" data-name="Shape" class="cls-2" d="M109.26,134a1,1,0,0,0-.65.14.83.83,0,0,0-.35.53L107,142.1a.71.71,0,0,0,.16.59.85.85,0,0,0,.57.31h.13a.84.84,0,0,0,.87-.67l1.25-7.46A.79.79,0,0,0,109.26,134Z"/><path id="Shape-78" data-name="Shape" class="cls-2" d="M115.23,135a1,1,0,0,0-.68.17.83.83,0,0,0-.34.57L113,144a.85.85,0,0,0,.17.63,1,1,0,0,0,.6.33h.13a.88.88,0,0,0,.9-.74L116,136A.85.85,0,0,0,115.23,135Z"/><path id="Shape-79" data-name="Shape" class="cls-2" d="M120.12,135a.84.84,0,0,0-.88.81l-.24,8.38a.88.88,0,0,0,1.76,0l.24-8.39A.85.85,0,0,0,120.12,135Z"/><path id="Shape-80" data-name="Shape" class="cls-2" d="M125.67,135a.73.73,0,0,0-.5.28,1,1,0,0,0-.17.6l.57,8.37a.75.75,0,0,0,.71.75h0a.69.69,0,0,0,.5-.28.93.93,0,0,0,.17-.59l-.57-8.38a.85.85,0,0,0-.24-.56A.67.67,0,0,0,125.67,135Z"/><path id="Shape-81" data-name="Shape" class="cls-2" d="M132.94,135.77a.94.94,0,0,0-1.07-.76.88.88,0,0,0-.86,1l1,8.28a.94.94,0,0,0,1,.76h.11a1,1,0,0,0,.66-.32.8.8,0,0,0,.2-.64Z"/><path id="Shape-82" data-name="Shape" class="cls-2" d="M138.51,135.65A.8.8,0,0,0,138,135a.73.73,0,0,0-.75.17.83.83,0,0,0-.23.77l1.49,7.39a.74.74,0,0,0,.74.62h.16a.73.73,0,0,0,.47-.34.8.8,0,0,0,.1-.6Z"/><path id="Shape-83" data-name="Shape" class="cls-2" d="M144.72,133.63a.86.86,0,0,0-.61-.6.91.91,0,0,0-.85.21.82.82,0,0,0-.23.81l2.23,8.32a.87.87,0,0,0,.87.63h.21a.86.86,0,0,0,.54-.39A.78.78,0,0,0,147,142Z"/><path id="Shape-84" data-name="Shape" class="cls-2" d="M99.62,11.16c-7.72,4.89-5.25,12.2-5.22,12.27a.84.84,0,0,0,.85.57.93.93,0,0,0,.29-.05.86.86,0,0,0,.49-.43.84.84,0,0,0,0-.64c-.09-.25-2.07-6.15,4.54-10.31A.83.83,0,0,0,101,12a.79.79,0,0,0-.13-.63.8.8,0,0,0-.56-.38A.84.84,0,0,0,99.62,11.16Z"/><path id="Shape-85" data-name="Shape" class="cls-2" d="M148.19,37.34s-1.81-.14-3.35-3.44a26.56,26.56,0,0,1-1.71-6.49A62.15,62.15,0,0,0,139,13C134.39,2.21,123.45.1,123,0a.85.85,0,0,0-1,.67.84.84,0,0,0,.67,1c.11,0,10.54,2.06,14.77,12a61.22,61.22,0,0,1,4.05,14.09,28.39,28.39,0,0,0,1.83,6.89c2,4.27,4.56,4.39,4.85,4.39a.82.82,0,0,0,.82-.82.78.78,0,0,0-.23-.58A.84.84,0,0,0,148.19,37.34Z"/><path id="Shape-86" data-name="Shape" class="cls-2" d="M147.36,52.09a4.59,4.59,0,0,0-.72-4,8.59,8.59,0,0,0-4-2.84,6.47,6.47,0,0,1-1.86-1c-2.47-2.07-5.15-7.76-5.18-7.82a.85.85,0,0,0-1.1-.4.8.8,0,0,0-.4,1.08c.11.25,2.88,6.08,5.6,8.37A7.72,7.72,0,0,0,142,46.77a6.75,6.75,0,0,1,3.29,2.31,3,3,0,0,1,.41,2.75,4.1,4.1,0,0,0,.88,3.91.83.83,0,0,0,.79.24.81.81,0,0,0,.6-.56.79.79,0,0,0-.18-.79C147.09,53.85,147.16,53.21,147.36,52.09Z"/><rect id="Rectangle-path-5" data-name="Rectangle-path" class="cls-4" x="211" y="16" width="7" height="6"/><rect id="Rectangle-path-6" data-name="Rectangle-path" class="cls-6" x="191" y="53" width="25" height="6"/><path id="Shape-87" data-name="Shape" class="cls-2" d="M194,54a.94.94,0,0,0-1,.87v2.26a1,1,0,0,0,2,0V54.87A.94.94,0,0,0,194,54Z"/><path id="Shape-88" data-name="Shape" class="cls-2" d="M204,54a.94.94,0,0,0-1,.87v2.26a1,1,0,0,0,2,0V54.87A.94.94,0,0,0,204,54Z"/><path id="Shape-89" data-name="Shape" class="cls-2" d="M208,54a.94.94,0,0,0-1,.87v2.26a1,1,0,0,0,2,0V54.87A.94.94,0,0,0,208,54Z"/><path id="Shape-90" data-name="Shape" class="cls-2" d="M211,54a.94.94,0,0,0-1,.87v2.26a1,1,0,0,0,2,0V54.87A.94.94,0,0,0,211,54Z"/><polygon id="Shape-91" data-name="Shape" class="cls-4" points="249.85 94 242.5 94 240.9 97.04 230 97.04 230 111 255 111 255 97.04 251.59 96.7 249.85 94"/><path id="Shape-92" data-name="Shape" class="cls-2" d="M256.26,95.94l-3.06-.3-1.56-2.28A.81.81,0,0,0,251,93H243.5a.84.84,0,0,0-.73.42l-1.39,2.51H230.82a.81.81,0,0,0-.82.8V110.2a.81.81,0,0,0,.82.8h25.36a.81.81,0,0,0,.82-.8V96.74A.81.81,0,0,0,256.26,95.94Zm-.91,13.46h-23.7V97.55h10.22a.82.82,0,0,0,.69-.4l1.4-2.52h6.52L252,96.87a.8.8,0,0,0,.61.36l2.7.26Z"/><path id="Shape-93" data-name="Shape" class="cls-2" d="M257.17,93h-5.33a.88.88,0,0,0,0,1.76h4.49v2.36a.84.84,0,1,0,1.67,0V93.88A.86.86,0,0,0,257.17,93Z"/><path id="Shape-94" data-name="Shape" class="cls-2" d="M243.21,93H232.93A3.09,3.09,0,0,0,230,96.23v.88a.8.8,0,1,0,1.6,0v-.88a1.39,1.39,0,0,1,1.31-1.45H243.2a.84.84,0,0,0,.8-.88.85.85,0,0,0-.8-.89Z"/><path id="Shape-95" data-name="Shape" class="cls-6" d="M23.19,107.58l1.41-1.39-2.8-2.81-1.41,1.45a7.93,7.93,0,0,0-1.89-.75V102h-4v2.08a7.86,7.86,0,0,0-1.88.75l-1.45-1.45-2.82,2.81,1.4,1.39a7.79,7.79,0,0,0-.85,1.94H7v4H8.83a7.41,7.41,0,0,0,.8,2.08l-1.27,1.25,2.8,2.8,1.21-1.19a7.84,7.84,0,0,0,2.13.9V121h4v-1.68a7.91,7.91,0,0,0,2.14-.9l1.2,1.19,2.8-2.8-1.25-1.25a8.07,8.07,0,0,0,.8-2.08H26v-4H24.08A7.91,7.91,0,0,0,23.19,107.58Zm-6.71,6.86a2.75,2.75,0,1,1,1.95-.81A2.75,2.75,0,0,1,16.48,114.44Z"/><path id="Shape-96" data-name="Shape" class="cls-2" d="M67,36a3,3,0,1,0,3,3,3,3,0,0,0-3-3Zm0,4.34A1.35,1.35,0,0,1,66.06,38a1.35,1.35,0,0,1,2.29,1A1.34,1.34,0,0,1,67,40.34Z"/><path id="Shape-97" data-name="Shape" class="cls-2" d="M74,36a3,3,0,1,0,2.11.9A3,3,0,0,0,74,36Zm0,4.34A1.35,1.35,0,1,1,75.36,39,1.35,1.35,0,0,1,74,40.34Z"/><path id="Shape-98" data-name="Shape" class="cls-2" d="M81,36a3,3,0,1,0,3,3,3,3,0,0,0-3-3Zm0,4.34A1.35,1.35,0,1,1,82.35,39,1.35,1.35,0,0,1,81,40.34Z"/><path id="Shape-99" data-name="Shape" class="cls-2" d="M67,53a3,3,0,1,0,3,3A3,3,0,0,0,67,53Zm0,4.34A1.34,1.34,0,1,1,68.35,56,1.31,1.31,0,0,1,68,57a1.34,1.34,0,0,1-1,.41Z"/><path id="Shape-100" data-name="Shape" class="cls-6" d="M74,53a2,2,0,1,0,2,2A2,2,0,0,0,74,53Z"/><circle id="Oval" class="cls-5" cx="80" cy="55" r="2"/><path id="Shape-101" data-name="Shape" class="cls-2" d="M66,128a3,3,0,1,0,3,3A3,3,0,0,0,66,128Zm0,4.34A1.34,1.34,0,1,1,67.34,131,1.34,1.34,0,0,1,66,132.34Z"/><path id="Shape-102" data-name="Shape" class="cls-2" d="M73,128a3,3,0,1,0,3,3A3,3,0,0,0,73,128Zm0,4.34A1.34,1.34,0,1,1,74.34,131,1.33,1.33,0,0,1,73,132.34Z"/><path id="Shape-103" data-name="Shape" class="cls-2" d="M80,128a3,3,0,1,0,3,3A3,3,0,0,0,80,128Zm0,4.34A1.34,1.34,0,1,1,81.35,131,1.35,1.35,0,0,1,80,132.34Z"/><path id="Shape-104" data-name="Shape" class="cls-2" d="M66,147a3,3,0,1,0,3,3A3,3,0,0,0,66,147Zm0,4.34A1.34,1.34,0,1,1,67.34,150,1.34,1.34,0,0,1,66,151.34Z"/><path id="Shape-105" data-name="Shape" class="cls-6" d="M73,147a2,2,0,1,0,2,2,2,2,0,0,0-2-2Z"/><path id="Shape-106" data-name="Shape" class="cls-6" d="M80,147a2,2,0,1,0,2,2,2,2,0,0,0-2-2Z"/><path id="Shape-107" data-name="Shape" class="cls-2" d="M67,72a3,3,0,0,0-2.6,1.51,3.12,3.12,0,0,0,0,3,.82.82,0,0,0,.72.44h3.81a.82.82,0,0,0,.72-.44,3.13,3.13,0,0,0,0-3A3,3,0,0,0,67,72Zm1.32,3.31H65.68v-.23a1.35,1.35,0,1,1,2.7,0,2.23,2.23,0,0,1,0,.23Z"/><path id="Shape-108" data-name="Shape" class="cls-2" d="M74,72a3,3,0,0,0-2.59,1.51,3.12,3.12,0,0,0,0,3,.82.82,0,0,0,.72.44h3.8a.82.82,0,0,0,.72-.44,3.12,3.12,0,0,0,0-3A3,3,0,0,0,74,72Zm1.33,3.31H72.68a.88.88,0,0,1,0-.23,1.35,1.35,0,0,1,2.69,0A.93.93,0,0,1,75.33,75.31Z"/><path id="Shape-109" data-name="Shape" class="cls-2" d="M81,72a3,3,0,0,0-2.59,1.51,3.12,3.12,0,0,0,0,3,.82.82,0,0,0,.72.44h3.8a.82.82,0,0,0,.72-.44,3.12,3.12,0,0,0,0-3A3,3,0,0,0,81,72Zm1.32,3.31H79.67a.88.88,0,0,1,0-.23A1.36,1.36,0,0,1,81,73.8a1.37,1.37,0,0,1,1.35,1.28A1,1,0,0,1,82.32,75.31Z"/><path id="Shape-110" data-name="Shape" class="cls-2" d="M174.32,124.13a.87.87,0,0,0-1.18.25.8.8,0,0,0,.26,1.14,17.28,17.28,0,0,1,4.92,5.16c2.94,4.65,3.7,10.14,2.24,16.33a.79.79,0,0,0,.11.62.84.84,0,0,0,.54.36h.19a.84.84,0,0,0,.85-.64c2-8.31-.28-14.18-2.5-17.64A19,19,0,0,0,174.32,124.13Z"/><path id="Shape-111" data-name="Shape" class="cls-5" d="M132,47.94,125,45A7.43,7.43,0,0,0,132,47.94Z"/><path id="Shape-112" data-name="Shape" class="cls-2" d="M132,47.29a6.6,6.6,0,0,1-6.41-2.87.86.86,0,0,0-.52-.39.89.89,0,0,0-.66.08.83.83,0,0,0-.4.5.77.77,0,0,0,.09.63A8.3,8.3,0,0,0,131,49c.4,0,.81,0,1.21-.07a.87.87,0,0,0,.58-.32A.86.86,0,0,0,133,48a.84.84,0,0,0-.33-.55A.9.9,0,0,0,132,47.29Z"/><path id="Shape-113" data-name="Shape" class="cls-5" d="M194.5,43a1.5,1.5,0,1,0,1.5,1.5A1.5,1.5,0,0,0,194.5,43Z"/><path id="Shape-114" data-name="Shape" class="cls-5" d="M213.5,43a1.5,1.5,0,1,0,1.5,1.5A1.5,1.5,0,0,0,213.5,43Z"/><path id="Shape-115" data-name="Shape" class="cls-2" d="M189,69h-.19a1,1,0,0,0-.83,1.1.94.94,0,0,0,1,.89.67.67,0,0,0,.2,0,.93.93,0,0,0,.62-.43,1.09,1.09,0,0,0,.13-.77A1,1,0,0,0,189,69Z"/><path id="Shape-116" data-name="Shape" class="cls-2" d="M189,78a.67.67,0,0,0-.2,0,.91.91,0,0,0-.61.42,1,1,0,0,0-.14.76A1,1,0,0,0,189,80h.2a1,1,0,0,0,.83-1.08.94.94,0,0,0-1-.87Z"/><path id="Shape-117" data-name="Shape" class="cls-2" d="M197,69h-.19a.93.93,0,0,0-.64.43,1,1,0,0,0-.15.76,1,1,0,0,0,1,.8.74.74,0,0,0,.21,0,.94.94,0,0,0,.63-.43,1,1,0,0,0,.15-.75A1,1,0,0,0,197,69Z"/><path id="Shape-118" data-name="Shape" class="cls-2" d="M197,78a.6.6,0,0,0-.19,0,1,1,0,0,0-.63.43,1,1,0,0,0-.08,1,1,1,0,0,0,.9.51h.2a1,1,0,0,0,.62-.43,1,1,0,0,0,.15-.76A1,1,0,0,0,197,78Z"/><path id="Shape-119" data-name="Shape" class="cls-2" d="M204,69h-.2a1,1,0,0,0,.18,2,.67.67,0,0,0,.2,0,.93.93,0,0,0,.65-.42,1,1,0,0,0,.14-.76A1,1,0,0,0,204,69Z"/><path id="Shape-120" data-name="Shape" class="cls-2" d="M204,78a.67.67,0,0,0-.2,0,.93.93,0,0,0-.65.42,1,1,0,0,0-.14.76,1,1,0,0,0,1,.81h.2a1,1,0,0,0-.18-2Z"/><path id="Shape-121" data-name="Shape" class="cls-2" d="M212,69h-.2a1,1,0,0,0-.62.43,1,1,0,0,0-.15.76,1,1,0,0,0,1,.8.6.6,0,0,0,.19,0,1,1,0,0,0,.64-.43,1,1,0,0,0,.08-1A1,1,0,0,0,212,69Z"/><path id="Shape-122" data-name="Shape" class="cls-2" d="M212,78a.74.74,0,0,0-.21,0,.94.94,0,0,0-.63.43,1,1,0,0,0-.15.75,1,1,0,0,0,1,.81h.19a.93.93,0,0,0,.64-.43,1,1,0,0,0,.15-.76A1,1,0,0,0,212,78Z"/><path id="Shape-123" data-name="Shape" class="cls-5" d="M189,90a.61.61,0,0,0-.19,0,.88.88,0,0,0-.6.43,1,1,0,0,0-.08,1A.93.93,0,0,0,189,92h.19a1,1,0,0,0,.82-1.08.93.93,0,0,0-1-.87Z"/><path id="Shape-124" data-name="Shape" class="cls-2" d="M189,98h-.19a1,1,0,0,0-.6.44,1,1,0,0,0-.08,1,.93.93,0,0,0,.87.51h.19a1,1,0,0,0,.82-1.08.93.93,0,0,0-1-.87Z"/><path id="Shape-125" data-name="Shape" class="cls-5" d="M197,90a.67.67,0,0,0-.2,0,.92.92,0,0,0-.61.43,1,1,0,0,0-.15.75A1,1,0,0,0,197,92h.19a1,1,0,0,0,.85-1.07,1,1,0,0,0-1-.88Z"/><path id="Shape-126" data-name="Shape" class="cls-2" d="M197,98h-.2a.94.94,0,0,0-.61.44,1,1,0,0,0-.15.75,1,1,0,0,0,.94.81h.19a1,1,0,0,0-.19-2Z"/><path id="Shape-127" data-name="Shape" class="cls-2" d="M205,90a.61.61,0,0,0-.19,0,.9.9,0,0,0-.62.42,1,1,0,0,0-.14.76A1,1,0,0,0,205,92h.19a1,1,0,0,0,.85-1.07,1,1,0,0,0-1-.88Z"/><path id="Shape-128" data-name="Shape" class="cls-2" d="M205,98h-.2a.94.94,0,0,0-.61.44,1,1,0,0,0-.14.75,1,1,0,0,0,.94.81h.19a1,1,0,0,0-.19-2Z"/><path id="Shape-129" data-name="Shape" class="cls-6" d="M212,90a.61.61,0,0,0-.19,0,.94.94,0,0,0-.63.43,1,1,0,0,0-.08,1,1,1,0,0,0,.9.51h.2a1,1,0,0,0-.2-2Z"/><path id="Shape-130" data-name="Shape" class="cls-2" d="M212,98h-.19a1,1,0,0,0-.6.44,1,1,0,0,0-.08,1,.93.93,0,0,0,.87.51h.19a1,1,0,0,0,.82-1.08.93.93,0,0,0-1-.87Z"/><path id="Shape-131" data-name="Shape" class="cls-4" d="M189,108a.67.67,0,0,0-.2,0,.92.92,0,0,0-.61.43,1,1,0,0,0-.14.75,1,1,0,0,0,.94.81h.2a1,1,0,0,0,.83-1.08.94.94,0,0,0-1-.87Z"/><path id="Shape-132" data-name="Shape" class="cls-2" d="M189,117h-.2a.91.91,0,0,0-.6.43,1,1,0,0,0-.14.75.94.94,0,0,0,.93.81h.19a1,1,0,0,0,.85-1.1,1,1,0,0,0-1-.89Z"/><path id="Shape-133" data-name="Shape" class="cls-2" d="M197,108a.6.6,0,0,0-.19,0,.92.92,0,0,0-.62.43,1,1,0,0,0-.14.75,1,1,0,0,0,.94.81h.19a1,1,0,0,0,.84-1.08.94.94,0,0,0-1-.87Z"/><path id="Shape-134" data-name="Shape" class="cls-2" d="M197,117h-.19a.93.93,0,0,0-.6.43,1,1,0,0,0-.07,1,.91.91,0,0,0,.86.51h.19a1,1,0,0,0,.84-1.1A1,1,0,0,0,197,117Z"/><path id="Shape-135" data-name="Shape" class="cls-2" d="M204,108a.6.6,0,0,0-.19,0,.88.88,0,0,0-.6.43,1,1,0,0,0-.08,1,.93.93,0,0,0,.87.51h.19a1,1,0,0,0,.83-1.08,1,1,0,0,0-1-.87Z"/><path id="Shape-136" data-name="Shape" class="cls-4" d="M204,117h-.19a1,1,0,0,0-.61.44,1,1,0,0,0-.14.75.94.94,0,0,0,.93.81h.19a1,1,0,0,0,.77-.58,1,1,0,0,0-.09-1A1,1,0,0,0,204,117Z"/><path id="Shape-137" data-name="Shape" class="cls-2" d="M212,108a.67.67,0,0,0-.2,0,.92.92,0,0,0-.61.43,1,1,0,0,0-.14.75,1,1,0,0,0,.94.81h.19a1,1,0,0,0,.85-1.07,1,1,0,0,0-1-.88Z"/><path id="Shape-138" data-name="Shape" class="cls-2" d="M212,117h-.2a1,1,0,0,0-.6.44,1,1,0,0,0-.14.75.94.94,0,0,0,.93.81h.19a1,1,0,0,0-.19-2Z"/><path id="Shape-139" data-name="Shape" class="cls-2" d="M189,127h-.19a1,1,0,0,0-.8,1.09.92.92,0,0,0,1,.89h.19a1,1,0,0,0,.8-1.1A.92.92,0,0,0,189,127Z"/><path id="Shape-140" data-name="Shape" class="cls-2" d="M189,135.05a.61.61,0,0,0-.19,0,1,1,0,0,0-.8,1.08.92.92,0,0,0,1,.86h.19a1,1,0,0,0,.82-1.09,1,1,0,0,0-1-.89Z"/><path id="Shape-141" data-name="Shape" class="cls-2" d="M197,127h-.18a1,1,0,0,0-.85,1.1,1,1,0,0,0,1,.89h.2a.93.93,0,0,0,.62-.43,1.09,1.09,0,0,0,.13-.77A1,1,0,0,0,197,127Z"/><path id="Shape-142" data-name="Shape" class="cls-2" d="M197,135.05a.54.54,0,0,0-.18,0,1,1,0,0,0-.81,1.07.93.93,0,0,0,1,.88h.18a1,1,0,0,0,.83-1.1,1,1,0,0,0-1-.89Z"/><path id="Shape-143" data-name="Shape" class="cls-2" d="M204,127h-.2a1,1,0,0,0-.84,1.1,1,1,0,0,0,1,.89h.19a.89.89,0,0,0,.62-.43,1,1,0,0,0,.14-.77A1,1,0,0,0,204,127Z"/><path id="Shape-144" data-name="Shape" class="cls-2" d="M204,135h-.2a.94.94,0,0,0-.61.42,1,1,0,0,0-.14.76.94.94,0,0,0,.93.81h.19a1,1,0,0,0,.86-1.09,1,1,0,0,0-1-.91Z"/><path id="Shape-145" data-name="Shape" class="cls-2" d="M212,127h-.19a1,1,0,0,0-.8,1.09.92.92,0,0,0,1,.89h.18a1,1,0,0,0,.82-1.09A.93.93,0,0,0,212,127Z"/><path id="Shape-146" data-name="Shape" class="cls-2" d="M212,135h-.19a.94.94,0,0,0-.62.43,1,1,0,0,0-.13.75,1,1,0,0,0,.93.81h.19a1,1,0,0,0-.19-2Z"/><path id="Shape-147" data-name="Shape" class="cls-2" d="M189,145h-.18a1,1,0,0,0-.85,1.1,1,1,0,0,0,1,.89h.2a.93.93,0,0,0,.62-.43,1.09,1.09,0,0,0,.13-.77A1,1,0,0,0,189,145Z"/><path id="Shape-148" data-name="Shape" class="cls-2" d="M189,153h-.18a1,1,0,0,0-.82,1.09.93.93,0,0,0,1,.89h.19a1,1,0,0,0,.8-1.09A.92.92,0,0,0,189,153Z"/><path id="Shape-149" data-name="Shape" class="cls-2" d="M196,145h-.2a1,1,0,0,0-.84,1.1,1,1,0,0,0,1,.89h.19a.89.89,0,0,0,.62-.43,1,1,0,0,0,.14-.77A1,1,0,0,0,196,145Z"/><path id="Shape-150" data-name="Shape" class="cls-4" d="M196,153h-.2a.89.89,0,0,0-.62.42,1,1,0,0,0-.14.76,1,1,0,0,0,.94.81h.19a1,1,0,0,0,.85-1.07,1,1,0,0,0-1-.88Z"/><path id="Shape-151" data-name="Shape" class="cls-2" d="M204,145h-.19a1,1,0,0,0-.8,1.09.92.92,0,0,0,1,.89h.18a1,1,0,0,0,.82-1.09A.93.93,0,0,0,204,145Z"/><path id="Shape-152" data-name="Shape" class="cls-2" d="M204,153h-.2a1,1,0,0,0-.64.42,1,1,0,0,0-.14.76,1,1,0,0,0,1,.81h.2a1,1,0,0,0,.65-.42A1,1,0,0,0,204,153Z"/><path id="Shape-153" data-name="Shape" class="cls-2" d="M212,145h-.19a1,1,0,0,0-.83,1.1.94.94,0,0,0,1,.89h.2a.93.93,0,0,0,.62-.43,1.09,1.09,0,0,0,.13-.77A1,1,0,0,0,212,145Z"/><path id="Shape-154" data-name="Shape" class="cls-2" d="M212,153h-.19a1,1,0,0,0-.8,1.1.92.92,0,0,0,1,.88h.19a1,1,0,0,0,.8-1.09A.92.92,0,0,0,212,153Z"/><path id="Shape-155" data-name="Shape" class="cls-2" d="M42,18h-.21a1,1,0,0,0-.65.42A1,1,0,0,0,42,20a.61.61,0,0,0,.19,0,1,1,0,0,0,.65-.42,1,1,0,0,0,.14-.76A1,1,0,0,0,42,18Z"/><path id="Shape-156" data-name="Shape" class="cls-2" d="M16,91h-.18a.91.91,0,0,0-.74.58,1.09,1.09,0,0,0,.09,1A.89.89,0,0,0,16,93h.18A1,1,0,0,0,17,91.9.94.94,0,0,0,16,91Z"/><path id="Shape-157" data-name="Shape" class="cls-2" d="M98,80H97.8a1,1,0,0,0-.64.43.93.93,0,0,0-.13.76A1,1,0,0,0,98,82h.2a1,1,0,0,0,.64-.42,1,1,0,0,0,.14-.76A1,1,0,0,0,98,80Z"/><path id="Shape-158" data-name="Shape" class="cls-2" d="M149,101h-.19a1,1,0,0,0-.82,1.1,1,1,0,0,0,1,.89h.19a1,1,0,0,0,.8-1.07.93.93,0,0,0-1-.87Z"/><path id="Shape-159" data-name="Shape" class="cls-2" d="M134,61h-.19a1,1,0,0,0-.82,1.1,1,1,0,0,0,1,.89h.19a1,1,0,0,0,.8-1.07.93.93,0,0,0-1-.87Z"/><path id="Shape-160" data-name="Shape" class="cls-2" d="M150,58h-.2a1,1,0,0,0-.65.42,1,1,0,0,0-.14.76,1,1,0,0,0,1,.81h.2a1,1,0,0,0-.19-2Z"/><path id="Shape-161" data-name="Shape" class="cls-2" d="M200,18h-.18a1,1,0,0,0-.85,1.1,1,1,0,0,0,1,.89.67.67,0,0,0,.2,0,.94.94,0,0,0,.61-.44,1.06,1.06,0,0,0,.14-.76A1,1,0,0,0,200,18Z"/><path id="Shape-162" data-name="Shape" class="cls-2" d="M230,25h-.2a1,1,0,0,0-.65.42,1,1,0,0,0-.14.77,1,1,0,0,0,1,.81h.2a1,1,0,0,0,.65-.43.94.94,0,0,0,.13-.77A1,1,0,0,0,230,25Z"/><path id="Shape-163" data-name="Shape" class="cls-2" d="M248,81a.61.61,0,0,0-.19,0,.9.9,0,0,0-.62.42,1,1,0,0,0-.14.76A1,1,0,0,0,248,83h.19a1,1,0,0,0,.85-1.07,1,1,0,0,0-1-.88Z"/><path id="Shape-164" data-name="Shape" class="cls-2" d="M163.31,25h-.62c-.38,0-.69.45-.69,1s.31,1,.69,1h.62c.38,0,.69-.45.69-1S163.69,25,163.31,25Z"/><path id="Shape-165" data-name="Shape" class="cls-2" d="M181.31,25h-.62c-.38,0-.69.45-.69,1s.31,1,.69,1h.62c.38,0,.69-.45.69-1S181.69,25,181.31,25Z"/><path id="Shape-166" data-name="Shape" class="cls-2" d="M172.31,25h-.62c-.38,0-.69.45-.69,1s.31,1,.69,1h.62c.38,0,.69-.45.69-1S172.69,25,172.31,25Z"/><path id="Shape-167" data-name="Shape" class="cls-2" d="M177.31,25h-.62c-.38,0-.69.45-.69,1s.31,1,.69,1h.62c.38,0,.69-.45.69-1S177.69,25,177.31,25Z"/><path id="Shape-168" data-name="Shape" class="cls-2" d="M168.31,25h-.62c-.38,0-.69.45-.69,1s.31,1,.69,1h.62c.38,0,.69-.45.69-1S168.69,25,168.31,25Z"/><path id="Shape-169" data-name="Shape" class="cls-2" d="M159.31,25h-.62c-.38,0-.69.45-.69,1s.31,1,.69,1h.62c.38,0,.69-.45.69-1S159.69,25,159.31,25Z"/><path id="Shape-170" data-name="Shape" class="cls-2" d="M221.31,25h-.62c-.38,0-.69.45-.69,1s.31,1,.69,1h.62c.38,0,.69-.45.69-1S221.69,25,221.31,25Z"/><path id="Shape-171" data-name="Shape" class="cls-2" d="M154.31,25h-.62c-.38,0-.69.45-.69,1s.31,1,.69,1h.62c.38,0,.69-.45.69-1S154.69,25,154.31,25Z"/><path id="Shape-172" data-name="Shape" class="cls-2" d="M150.28,25h-.59c-.38,0-.69.45-.69,1s.31,1,.69,1h.62c.38,0,.69-.45.69-1s-.31-1-.69-1Z"/><path id="Shape-173" data-name="Shape" class="cls-2" d="M208.31,25h-.62c-.38,0-.69.45-.69,1s.31,1,.69,1h.62c.38,0,.69-.45.69-1S208.69,25,208.31,25Z"/><path id="Shape-174" data-name="Shape" class="cls-2" d="M203.31,25h-.62c-.38,0-.69.45-.69,1s.31,1,.69,1h.62c.38,0,.69-.45.69-1S203.69,25,203.31,25Z"/><path id="Shape-175" data-name="Shape" class="cls-2" d="M212.31,25h-.62c-.38,0-.69.45-.69,1s.31,1,.69,1h.62c.38,0,.69-.45.69-1S212.69,25,212.31,25Z"/><path id="Shape-176" data-name="Shape" class="cls-2" d="M217.31,25h-.62c-.38,0-.69.45-.69,1s.31,1,.69,1h.62c.38,0,.69-.45.69-1S217.69,25,217.31,25Z"/><path id="Shape-177" data-name="Shape" class="cls-2" d="M194.31,25h-.62c-.38,0-.69.45-.69,1s.31,1,.69,1h.62c.38,0,.69-.45.69-1S194.69,25,194.31,25Z"/><path id="Shape-178" data-name="Shape" class="cls-2" d="M190.29,25h-.6c-.38,0-.69.45-.69,1s.31,1,.69,1h.62c.38,0,.69-.45.69-1s-.31-1-.69-1Z"/><path id="Shape-179" data-name="Shape" class="cls-2" d="M186.31,25h-.62c-.38,0-.69.45-.69,1s.31,1,.69,1h.62c.38,0,.69-.45.69-1S186.69,25,186.31,25Z"/><path id="Shape-180" data-name="Shape" class="cls-2" d="M199.31,25h-.62c-.38,0-.69.45-.69,1s.31,1,.69,1h.62c.38,0,.69-.45.69-1S199.69,25,199.31,25Z"/><path id="Shape-181" data-name="Shape" class="cls-2" d="M36.31,24h-.62c-.38,0-.69.45-.69,1s.31,1,.69,1h.62c.38,0,.69-.45.69-1S36.69,24,36.31,24Z"/><path id="Shape-182" data-name="Shape" class="cls-2" d="M41.31,24h-.62c-.38,0-.69.45-.69,1s.31,1,.69,1h.62c.38,0,.69-.45.69-1S41.69,24,41.31,24Z"/><path id="Shape-183" data-name="Shape" class="cls-2" d="M45.31,24h-.62c-.38,0-.69.45-.69,1s.31,1,.69,1h.62c.38,0,.69-.45.69-1S45.69,24,45.31,24Z"/><path id="Shape-184" data-name="Shape" class="cls-2" d="M23.31,24h-.62c-.38,0-.69.45-.69,1s.31,1,.69,1h.62c.38,0,.69-.45.69-1S23.69,24,23.31,24Z"/><path id="Shape-185" data-name="Shape" class="cls-2" d="M32.31,24h-.62c-.38,0-.69.45-.69,1s.31,1,.69,1h.62c.38,0,.69-.45.69-1S32.69,24,32.31,24Z"/><path id="Shape-186" data-name="Shape" class="cls-2" d="M27.31,24h-.62c-.38,0-.69.45-.69,1s.31,1,.69,1h.62c.38,0,.69-.45.69-1S27.69,24,27.31,24Z"/><path id="Shape-187" data-name="Shape" class="cls-2" d="M63.28,24h-.59c-.38,0-.69.45-.69,1s.31,1,.69,1h.62c.38,0,.69-.45.69-1s-.31-1-.69-1Z"/><path id="Shape-188" data-name="Shape" class="cls-2" d="M72.31,24h-.62c-.38,0-.69.45-.69,1s.31,1,.69,1h.62c.38,0,.69-.45.69-1S72.69,24,72.31,24Z"/><path id="Shape-189" data-name="Shape" class="cls-2" d="M76.31,24h-.62c-.38,0-.69.45-.69,1s.31,1,.69,1h.62c.38,0,.69-.45.69-1S76.69,24,76.31,24Z"/><path id="Shape-190" data-name="Shape" class="cls-2" d="M67.31,24h-.62c-.38,0-.69.45-.69,1s.31,1,.69,1h.62c.38,0,.69-.45.69-1S67.69,24,67.31,24Z"/><path id="Shape-191" data-name="Shape" class="cls-2" d="M50.31,24h-.62c-.38,0-.69.45-.69,1s.31,1,.69,1h.62c.38,0,.69-.45.69-1S50.69,24,50.31,24Z"/><path id="Shape-192" data-name="Shape" class="cls-2" d="M59.31,24h-.62c-.38,0-.69.45-.69,1s.31,1,.69,1h.62c.38,0,.69-.45.69-1S59.69,24,59.31,24Z"/><path id="Shape-193" data-name="Shape" class="cls-2" d="M54.31,24h-.62c-.38,0-.69.45-.69,1s.31,1,.69,1h.62c.38,0,.69-.45.69-1S54.69,24,54.31,24Z"/><path id="Shape-194" data-name="Shape" class="cls-2" d="M19,141c-.55,0-1,.31-1,.69v.62c0,.38.45.69,1,.69s1-.31,1-.69v-.62C20,141.31,19.55,141,19,141Z"/><path id="Shape-195" data-name="Shape" class="cls-2" d="M19,150c-.55,0-1,.31-1,.69v.62c0,.38.45.69,1,.69s1-.31,1-.69v-.62C20,150.31,19.55,150,19,150Z"/><path id="Shape-196" data-name="Shape" class="cls-2" d="M19,146c-.55,0-1,.31-1,.69v.62c0,.38.45.69,1,.69s1-.31,1-.69v-.62C20,146.31,19.55,146,19,146Z"/><path id="Shape-197" data-name="Shape" class="cls-2" d="M19,137c-.55,0-1,.31-1,.69v.62c0,.38.45.69,1,.69s1-.31,1-.69v-.62C20,137.31,19.55,137,19,137Z"/><path id="Shape-198" data-name="Shape" class="cls-2" d="M19,132c-.55,0-1,.31-1,.69v.62c0,.38.45.69,1,.69s1-.31,1-.69v-.62C20,132.31,19.55,132,19,132Z"/></g></g></g></svg>