<svg xmlns="http://www.w3.org/2000/svg" width="29" height="24" viewBox="0 0 29 24">
    <path fill="#47A5B5" fill-rule="evenodd" d="M27.98 2.771c-.447.199-.907.37-1.376.511.56-.657.98-1.42 1.238-2.244a.465.465 0 0 0-.155-.511.439.439 0 0 0-.526-.031 10.807 10.807 0 0 1-3.22 1.3A6.096 6.096 0 0 0 19.64 0a6.22 6.22 0 0 0-6.144 6.285 7.03 7.03 0 0 0 .046.82A15.635 15.635 0 0 1 2.755 1.239a.46.46 0 0 0-.758.061 6.26 6.26 0 0 0-.836 3.158 6.424 6.424 0 0 0 1.455 4.085 5.731 5.731 0 0 1-.82-.386.427.427 0 0 0-.45.015.463.463 0 0 0-.231.387v.093a6.331 6.331 0 0 0 3.002 5.401 4.628 4.628 0 0 1-.465-.062.463.463 0 0 0-.433.155.475.475 0 0 0-.093.449A6.262 6.262 0 0 0 7.63 18.82a10.673 10.673 0 0 1-5.82 1.686 9.11 9.11 0 0 1-1.3-.077.466.466 0 0 0-.48.31.463.463 0 0 0 .187.557 16.224 16.224 0 0 0 8.96 2.693 15.787 15.787 0 0 0 12.35-5.556 17.812 17.812 0 0 0 4.287-11.468c0-.171 0-.34-.015-.526a12.007 12.007 0 0 0 2.755-2.972.489.489 0 0 0-.031-.572.465.465 0 0 0-.542-.124"/>
</svg>
