<svg xmlns="http://www.w3.org/2000/svg" viewBox="0 0 323.78 281.36"><defs><style>.cls-1{fill:#47a5b5;}.cls-2{fill:#045473;}.cls-3{fill:#1a3569;}.cls-4{fill:#22478b;}.cls-5{fill:#16607d;}.cls-6{fill:#b57947;}.cls-7{opacity:0.5;}.cls-8{fill:#256a85;}</style></defs><title>3_ecosystem</title><g id="Layer_2" data-name="Layer 2"><g id="pic"><g id="Layer_2-2" data-name="Layer 2"><g id="text"><path class="cls-1" d="M197.89,28.39V41.67a13,13,0,0,0,26.06,1,4.14,4.14,0,0,0,3.51-4.09v-.82A4.15,4.15,0,0,0,224,33.66V28.39a13.05,13.05,0,0,0-26.1,0Zm1.64,0a11.46,11.46,0,1,1,22.83-1.93,10.37,10.37,0,0,1,0,1.93v6a.87.87,0,0,0,.26.59.83.83,0,0,0,.6.22h.07a2.51,2.51,0,0,1,2.53,2.48v.84a2.5,2.5,0,0,1-2.5,2.5h-.14a.82.82,0,0,0-.56.22.8.8,0,0,0-.26.58,11.42,11.42,0,0,1-22.83-.2Z"/><path class="cls-2" d="M214.06,6.55c15.76-1.46,17.9,21.28,9.12,27.52,0,0-.21-9-14.1-10.64S189.92,10.56,193,.82C193,.82,199.12,7.93,214.06,6.55Z"/><path class="cls-1" d="M192.19.57a18,18,0,0,0,1.89,15.18c3,4.68,8.33,7.69,14.9,8.48,13,1.55,13.38,9.52,13.38,9.82a.83.83,0,0,0,.46.71.77.77,0,0,0,.36.09.87.87,0,0,0,.47-.15c5.08-3.6,7-12.55,4.24-20-2.35-6.34-7.42-9.64-13.92-9C199.7,7.06,193.65.34,193.58.27a.82.82,0,0,0-1.15-.06A.74.74,0,0,0,192.19.57Zm1.21,1.77c2.36,2,8.8,6.12,20.73,5,.44,0,.88-.06,1.3-.06,5.08,0,9,2.87,10.93,8.05,2.26,6.09,1,13.58-2.63,17.19-.75-2.79-3.63-8.63-14.55-9.93-7.8-.94-11.77-4.73-13.72-7.76A16.15,16.15,0,0,1,193.4,2.34Z"/><path class="cls-1" d="M209.4,25.37a.82.82,0,0,1,.82.82V39a1.87,1.87,0,0,0,1.87,1.87h.67a.82.82,0,0,1,0,1.64h-.67a3.5,3.5,0,0,1-3.5-3.5V26.19A.82.82,0,0,1,209.4,25.37Z"/><path class="cls-1" d="M215.62,33.78H218a.82.82,0,0,1,0,1.64h-2.4a.82.82,0,1,1,0-1.64Z"/><path class="cls-1" d="M202.49,33.78h2.4a.82.82,0,0,1,0,1.64h-2.4a.82.82,0,1,1,0-1.64Z"/><path class="cls-1" d="M212,47a6.42,6.42,0,0,0,4.56-2.37.82.82,0,0,1,1.35.93,8.11,8.11,0,0,1-5.73,3.07h-.09a.82.82,0,0,1-.85-.78.82.82,0,0,1,.78-.86Z"/><path class="cls-1" d="M194.12,116.72c9.29,1.88,27,1.74,37.77-6.34,5.73-4.31,8.66-10.31,8.66-17.81,0-24.47-24.64-31.11-24.9-31.18a.73.73,0,0,1-.55-.6l-1.15-8a.72.72,0,0,1,.63-.81h0a.82.82,0,0,1,.87.63l1.08,7.55c3.6,1.11,25.53,8.82,25.53,32.42,0,8-3.11,14.33-9.24,18.93-7.64,5.73-18.62,7.63-27.83,7.63a59,59,0,0,1-11.18-1,.72.72,0,0,1-.59-.82A.81.81,0,0,1,194.12,116.72Z"/><path class="cls-1" d="M195.14,112.21c19.25,1.49,33.92-5,35.67-15.79,1.8-11.15-8.06-19.19-8.19-19.27a.73.73,0,0,1-.15-1l.06-.06a.81.81,0,0,1,1.14-.08c.45.34,10.65,8.65,8.72,20.65-1.71,10.54-14.52,17.29-31.93,17.29-1.79,0-3.62-.06-5.49-.21a.82.82,0,0,1-.75-.82A.83.83,0,0,1,195.14,112.21Z"/><path class="cls-1" d="M205.05,61l1.5-7.79a.82.82,0,0,1,1.6.3l-1.59,8.29a.82.82,0,0,1-.59.64c-.13,0-13.1,3.54-17,14.06-4,10.77-2.72,36-2.71,36.23a.83.83,0,0,1-.77.82h-.05a.83.83,0,0,1-.82-.77c0-1-1.31-25.8,2.81-36.89C191.27,65.69,202.5,61.77,205.05,61Z"/><path class="cls-1" d="M218.08,104.3c3.84-1.77,6.26-4.27,7.19-7.43C227,90.94,223,84.52,223,84.46a.82.82,0,0,1,.14-1.15.83.83,0,0,1,1.15.15.57.57,0,0,1,.08.13c.18.28,4.43,7.09,2.46,13.73-1.08,3.64-3.79,6.48-8.08,8.46a.77.77,0,0,1-.34.07.81.81,0,0,1-.33-1.55Z"/><path class="cls-1" d="M195.65,81.29c.45,0,.82.32.77.68l-1.63,25.47a.76.76,0,0,1-.82.62h0a.74.74,0,0,1-.78-.68h0l1.64-25.47A.82.82,0,0,1,195.65,81.29Z"/><path class="cls-1" d="M192,122.79a.82.82,0,0,1,.82.82v13.65h33.77v-19a.82.82,0,0,1,1.64,0v19.83a.82.82,0,0,1-.82.82H192a.82.82,0,0,1-.82-.82V123.61A.82.82,0,0,1,192,122.79Z"/><path class="cls-1" d="M192,137.26a.82.82,0,0,1,.82.82v28.41a.82.82,0,0,1-1.64,0V138.08A.82.82,0,0,1,192,137.26Z"/><path class="cls-1" d="M227.42,137.26a.82.82,0,0,1,.82.82v38.74a.82.82,0,1,1-1.63,0V138.08A.82.82,0,0,1,227.42,137.26Z"/><path class="cls-1" d="M202.41,144.08a.81.81,0,0,1,1.11.3s2.32,4,6.29,4.39a.82.82,0,0,1,.73.82v25.06a.82.82,0,0,1-1.64,0V150.23c-4.32-.82-6.7-4.91-6.8-5.08A.81.81,0,0,1,202.41,144.08Z"/><path class="cls-3" d="M186.74,126.88a8.22,8.22,0,0,0,4.68-.36l.82-.32a8.2,8.2,0,0,0,5.3-7.59.69.69,0,0,0-.69-.69.68.68,0,0,0-.69.68h0a6.87,6.87,0,0,1-4.41,6.33l-.82.31a6.89,6.89,0,0,1-8.89-4l-1.87-4.85a6.9,6.9,0,0,1,4-8.9h0l.82-.32a6.89,6.89,0,0,1,8,2.38.7.7,0,0,0,1,.14.69.69,0,0,0,.15-1h0a8.29,8.29,0,0,0-9.65-2.86l-.81.32a8.27,8.27,0,0,0-4.75,10.64l1.86,4.86a8.23,8.23,0,0,0,4.35,4.59A8.58,8.58,0,0,0,186.74,126.88Z"/><path class="cls-3" d="M168.64,106.94l-.38-2.37a4.28,4.28,0,0,1,3.53-4.91h0l3.37-.54a4.24,4.24,0,0,1,4.84,3.54l.38,2.38a4.26,4.26,0,0,1-3.54,4.87l-3.3.6a4.15,4.15,0,0,1-1.57-.05h0A4.25,4.25,0,0,1,168.64,106.94Zm6.74-6.42-3.36.53a2.87,2.87,0,0,0-2.4,3.31l.38,2.37a2.89,2.89,0,0,0,2.24,2.37,2.7,2.7,0,0,0,1.06,0l3.37-.53a2.9,2.9,0,0,0,2.4-3.27l-.39-2.38a2.9,2.9,0,0,0-2.24-2.37,2.7,2.7,0,0,0-1.06,0Z"/><polygon class="cls-4" points="166.34 106.24 174.36 104.97 182.38 103.69 194.06 131.78 179.17 135.28 163.93 136.57 166.34 106.24"/><circle class="cls-2" cx="176.09" cy="117.86" r="5.39"/><path class="cls-1" d="M170.07,118.8a6.08,6.08,0,1,1,4.73,5h0A6.14,6.14,0,0,1,170.07,118.8Zm5.27-5.6a4.72,4.72,0,0,0-.25,9.26,4.58,4.58,0,0,0,1.73,0,4.71,4.71,0,0,0,.25-9.26A4.58,4.58,0,0,0,175.34,113.2Z"/><path class="cls-1" d="M178.51,132.2a.76.76,0,0,0,.3,0l10.7-2.52a.69.69,0,0,0,.59-.77.7.7,0,0,0-.78-.59l-.12,0-10.7,2.51a.69.69,0,0,0-.52.82.7.7,0,0,0,.52.53Z"/><polygon class="cls-3" points="165.37 118.46 150.34 114.53 151.2 119.93 164.32 131.81 165.37 118.46"/><path class="cls-4" d="M148.66,110.06A6.73,6.73,0,0,1,146,123.25Z"/><path class="cls-1" d="M138,113.61a.7.7,0,0,0,.56-.13,5,5,0,0,1,6.31-.26.69.69,0,0,0,.9-1l0,0a6.42,6.42,0,0,0-8,.21.7.7,0,0,0-.11,1,.67.67,0,0,0,.38.24Z"/><path class="cls-1" d="M135.48,121.64a.68.68,0,0,0,.78-.41c1.79-4.3,8.6-3.89,8.66-3.88a.69.69,0,0,0,.73-.64A.67.67,0,0,0,145,116h0c-.32,0-7.86-.49-10,4.72a.7.7,0,0,0,.37.9Z"/><path class="cls-1" d="M134.59,133.43h.15a.68.68,0,0,0,.68-.68h0c0-6.55,9.49-10.38,9.58-10.42a.68.68,0,1,0-.4-1.31l-.1,0c-.42.16-10.5,4.19-10.46,11.69A.69.69,0,0,0,134.59,133.43Z"/><path class="cls-1" d="M203.61,117.94l1.56-.11a.68.68,0,0,0,.65-.69l-.28-4.25a.65.65,0,0,0-.7-.59h0l-5.73.43a.68.68,0,0,0-.64.7.65.65,0,0,0,.72.58h0l5.05-.38.19,3-.88.07a.69.69,0,0,0-.65.69.67.67,0,0,0,.72.59Z"/><path class="cls-1" d="M197.94,113a.64.64,0,0,0,.43-.2.68.68,0,0,0,0-1h0L195.5,109a2,2,0,0,0-2.92,2.82l1.09,1.13a.67.67,0,0,0,1,0h0a.68.68,0,0,0,0-1h0l-1.09-1.13a.67.67,0,0,1,0-.93.66.66,0,0,1,.92,0l2.89,2.85A.75.75,0,0,0,197.94,113Z"/><path class="cls-2" d="M194.61,121a6,6,0,0,0,3.74.61,2.36,2.36,0,0,0,.38-.1l.92-.29c1.17-.36,2.09-.65,2.45-1.39a1.42,1.42,0,0,0,.08-1,1.79,1.79,0,0,0,.82-1.15,2.14,2.14,0,0,0-.43-1.6.83.83,0,0,0,.13-.18,2.11,2.11,0,0,0,.08-1.72,1.43,1.43,0,0,0-.27-.5,2.08,2.08,0,0,0-.71-2.45c-1.26-1-3.2-.07-4.49.56-.28.14-.55.28-.75.36a5,5,0,0,1-.66.19c-1,.27-2.16.59-2.46,1.56a1.73,1.73,0,0,0,.26,1.43c0,.07-.09.14-.13.22a1.64,1.64,0,0,0,.43,1.64,1.52,1.52,0,0,0-.25,1.38,1.15,1.15,0,0,0,.27.48l-.05.06a1.4,1.4,0,0,0,.63,1.86Z"/><path class="cls-1" d="M197.45,122.32a7.4,7.4,0,0,1-3.1-.78h0a2,2,0,0,1-1.06-2.35,2.6,2.6,0,0,1-.16-.34,2,2,0,0,1,.11-1.54,2.11,2.11,0,0,1-.28-1.9h0a2.13,2.13,0,0,1-.15-1.64c.4-1.29,1.84-1.68,2.88-2l.61-.18c.15-.06.43-.2.7-.33,1.35-.67,3.58-1.76,5.14-.49a2.69,2.69,0,0,1,1,2.77,1.57,1.57,0,0,1,.18.42,2.75,2.75,0,0,1-.06,2.09,2.64,2.64,0,0,1,.3,1.72,2.29,2.29,0,0,1-.74,1.29,1.93,1.93,0,0,1-.18,1c-.48,1-1.57,1.32-2.83,1.7l-.9.29a3.19,3.19,0,0,1-.44.13A5.91,5.91,0,0,1,197.45,122.32Zm3-10.87a7.34,7.34,0,0,0-2.85,1,6.28,6.28,0,0,1-.82.38c-.23.08-.45.14-.73.22-.82.22-1.83.5-2,1.15a1.06,1.06,0,0,0,.2.91.61.61,0,0,1,0,.64l-.06.1c-.09.22-.14.55.29,1.06a.62.62,0,0,1,0,.74,1,1,0,0,0-.18.82.74.74,0,0,0,.16.27.64.64,0,0,1,.08.69l-.05.07a.75.75,0,0,0,.4,1h0a5.42,5.42,0,0,0,3.33.57,1.68,1.68,0,0,0,.32-.09l.94-.29c1-.32,1.84-.57,2.07-1.07a.8.8,0,0,0,.05-.55.61.61,0,0,1,.25-.67,1.1,1.1,0,0,0,.52-.74,1.46,1.46,0,0,0-.31-1.12.63.63,0,0,1,0-.74.47.47,0,0,0,.09-.12,1.52,1.52,0,0,0,0-1.22.87.87,0,0,0-.16-.3.6.6,0,0,1-.11-.59,1.55,1.55,0,0,0-.94-2,1.52,1.52,0,0,0-.56-.08Z"/><path class="cls-1" d="M175.23,132.71a.76.76,0,0,0,.82-.44.83.83,0,0,0,0-.58.78.78,0,0,0-.4-.42l-.15,0a.75.75,0,0,0-.82.44.73.73,0,0,0,.37,1h0a.39.39,0,0,0,.14.05Z"/><path class="cls-1" d="M92.66,226.7c-3.62-4.63-3.69-13.83-.19-22.39,4.74-11.54,2.12-19.34,2.09-19.43a.82.82,0,0,1,1.47-.66c3.92,7,2.27,14.8.68,22.32-.48,2.27-1,4.63-1.31,6.93a14.81,14.81,0,0,0,5.18,14.11.82.82,0,0,1,0,1.28,4.59,4.59,0,0,1-2.79.91C96,229.77,94.25,228.74,92.66,226.7Zm1.14-13.47c.34-2.35.82-4.73,1.33-7,.94-4.4,1.84-8.66,1.71-12.73A38.74,38.74,0,0,1,94,204.93c-3.27,8-3.31,16.6,0,20.8,1.27,1.63,2.59,2.45,3.9,2.45a3.18,3.18,0,0,0,.82-.11,16.63,16.63,0,0,1-4.85-14.84Z"/><path class="cls-1" d="M72.36,260.85,66.55,233.4a.8.8,0,0,1,.16-.67.83.83,0,0,1,.62-.31h44.82a.83.83,0,0,1,.62.31.77.77,0,0,1,.17.67l-5.81,27.45a.82.82,0,0,1-.82.65H73.14A.81.81,0,0,1,72.36,260.85ZM111.16,234H68.33l5.47,25.84h31.89Z"/><rect class="cls-5" x="68.77" y="256.49" width="41.95" height="6.52"/><path class="cls-1" d="M68,263v-6.55a.82.82,0,0,1,.82-.82h41.94a.82.82,0,0,1,.82.82V263a.82.82,0,0,1-.82.82H68.77A.82.82,0,0,1,68,263Zm41.94-5.73H69.58v4.91h40.33Z"/><path class="cls-5" d="M67.51,233.23H112a3.91,3.91,0,0,0,3.91-3.91h0a3.91,3.91,0,0,0-3.91-3.91H67.51a3.91,3.91,0,0,0-3.91,3.91h0A3.91,3.91,0,0,0,67.51,233.23Z"/><path class="cls-1" d="M62.79,229.32a4.72,4.72,0,0,1,4.72-4.72H112a4.72,4.72,0,1,1,.39,9.44H67.51A4.72,4.72,0,0,1,62.79,229.32Zm4.72-3.1a3.1,3.1,0,1,0,0,6.2H112a3.1,3.1,0,1,0,0-6.2H67.51Z"/><path class="cls-1" d="M85.07,238.5h22.72a.82.82,0,1,0,0-1.64H85.07a.82.82,0,0,0,0,1.64Z"/><path class="cls-1" d="M96.44,204.75c.56,0,6.55-.27,12.07-11.46a.81.81,0,1,0-1.45-.72c-5.18,10.48-10.55,10.59-10.64,10.59h0a.82.82,0,1,0,0,1.63Z"/><path class="cls-5" d="M101.08,201.88s-1.44,3.81,2,5.6a9.85,9.85,0,0,0,7.06.54,15.78,15.78,0,0,1-2.77-4.09C106.35,201.81,105,201,101.08,201.88Z"/><path class="cls-1" d="M102.68,208.19a5.2,5.2,0,0,1-2.35-6.6.84.84,0,0,1,.57-.5,13.13,13.13,0,0,1,2.85-.39,4.36,4.36,0,0,1,4.33,2.91,15.19,15.19,0,0,0,2.62,3.84.81.81,0,0,1-.32,1.33,10.46,10.46,0,0,1-3.2.47A9.53,9.53,0,0,1,102.68,208.19Zm3.94-3.9a2.75,2.75,0,0,0-2.87-2,10.73,10.73,0,0,0-2,.25,3.51,3.51,0,0,0,1.71,4.19,8,8,0,0,0,3.75.87,10,10,0,0,0,1.45-.1,17.18,17.18,0,0,1-2-3.24Z"/><path class="cls-5" d="M90.7,215.52s.57-2.88-3.34-4.24c-2.46-1-4.5-.11-6.81-1.2,0,0,.43,3.7,3.16,5.44C85.78,216.84,87.84,217.53,90.7,215.52Z"/><path class="cls-1" d="M83.28,216.2c-3-1.93-3.52-5.86-3.54-6a.83.83,0,0,1,.75-.89.92.92,0,0,1,.4.07,7.7,7.7,0,0,0,3.14.57,10,10,0,0,1,3.59.59c3.62,1.26,4.09,3.93,3.87,5.16a.81.81,0,0,1-.33.51,6.82,6.82,0,0,1-3.9,1.41A7.62,7.62,0,0,1,83.28,216.2ZM87.05,212a8.67,8.67,0,0,0-3.07-.5,12,12,0,0,1-2.32-.23,6.51,6.51,0,0,0,2.45,3.54A5.86,5.86,0,0,0,87.23,216a5,5,0,0,0,2.66-.9c0-.64-.3-2.16-2.84-3Z"/><path class="cls-1" d="M92.75,206.64a.82.82,0,0,0,.78-.85.8.8,0,0,0-.48-.71,28.24,28.24,0,0,1-11.82-10.53c-3.08-4.91-3.16-9.05-3.27-13a29.22,29.22,0,0,0-.65-6.66c-1.54-6.24-3-8.31-3.1-8.4a.82.82,0,0,0-1.16,0,.8.8,0,0,0-.14,1s1.39,2,2.83,7.83a27.81,27.81,0,0,1,.6,6.3c.08,4,.17,8.54,3.48,13.85a29.39,29.39,0,0,0,12.6,11.18A.75.75,0,0,0,92.75,206.64Z"/><path class="cls-1" d="M78.59,191.73a.82.82,0,0,0,.78-.85.8.8,0,0,0-.35-.64c-.32-.21-8.13-5.22-13.69-6.69a.82.82,0,0,0-.71,1.48,1,1,0,0,0,.29.08c5.32,1.4,13.16,6.44,13.24,6.49A.84.84,0,0,0,78.59,191.73Z"/><path class="cls-5" d="M84.32,199.82a6.84,6.84,0,0,0-5.66-2.16,31.63,31.63,0,0,0-5.78,1.07s2,4,6.11,4.29C82.53,203.27,83.94,202.24,84.32,199.82Z"/><path class="cls-1" d="M79,203.84c-4.5-.33-6.68-4.56-6.77-4.74a.81.81,0,0,1,0-.68.78.78,0,0,1,.49-.45,32,32,0,0,1,5.9-1.12c.26,0,.52,0,.82,0a7.66,7.66,0,0,1,5.58,2.5.81.81,0,0,1,.18.65c-.46,2.66-2.1,3.91-5.16,3.91C79.68,203.84,79.33,203.84,79,203.84Zm.44-5.41c-.21,0-.41,0-.62,0a35.57,35.57,0,0,0-4.58.76,6.86,6.86,0,0,0,4.91,3H80c2.4,0,3.16-.82,3.48-2.16A6.11,6.11,0,0,0,79.41,198.43Z"/><path class="cls-1" d="M95.32,185.42a.71.71,0,0,0,.35-.07.82.82,0,0,0,.39-1.07,20.26,20.26,0,0,1,1.08-17,42.76,42.76,0,0,1,3.08-4.78c2.07-2.94,3.71-5.25,3.15-8.87a.82.82,0,0,0-.93-.68.83.83,0,0,0-.67.93c.46,3-.87,4.84-2.87,7.68a44.42,44.42,0,0,0-3.18,5A21.52,21.52,0,0,0,94.59,185,.82.82,0,0,0,95.32,185.42Z"/><path class="cls-1" d="M96.43,167.75a.79.79,0,0,0,.58-.25.83.83,0,0,0,0-1.14c-.08-.07-7.44-7.29-5-14.6a13.67,13.67,0,0,1,5.13-7.12c1.73-1.43,3.38-2.78,4.22-5.73,1.79-6.22-1.41-9.08-1.55-9.19a.82.82,0,0,0-1,1.22c.1.09,2.53,2.35,1,7.52-.71,2.46-2.09,3.61-3.71,4.91a15.34,15.34,0,0,0-5.63,7.86c-2.73,8.29,5.11,16,5.45,16.27A.78.78,0,0,0,96.43,167.75Z"/><path class="cls-1" d="M96,186.87a.82.82,0,0,0,.67-.36h0a24.68,24.68,0,0,1,15.56-9.35,9.39,9.39,0,0,0,7.51-10.95,8.68,8.68,0,0,0-.35-1.33.82.82,0,1,0-1.62.24.9.9,0,0,0,.06.22,7.77,7.77,0,0,1-4.78,9.91,8.48,8.48,0,0,1-1.1.29A25.81,25.81,0,0,0,95.37,185.6a.81.81,0,0,0,.26,1.12.76.76,0,0,0,.41.13Z"/><path class="cls-1" d="M119.68,178.1c8.19,0,13.32-7.52,13.39-7.62a.82.82,0,1,0-1.34-.9h0c-.29.44-7.22,10.47-17.66,5.58a.81.81,0,0,0-.69,1.46A14.82,14.82,0,0,0,119.68,178.1Z"/><path class="cls-5" d="M109.15,176.72s-2.87.28-3.36-4.61a9.1,9.1,0,0,1,3-7.66s3.64,4.41,3.48,7.61S111.08,176.71,109.15,176.72Z"/><path class="cls-1" d="M105,172.2a9.81,9.81,0,0,1,3.27-8.38.83.83,0,0,1,1.13.12c.16.18,3.83,4.68,3.66,8.18s-1.49,5.4-3.89,5.43H109C108.47,177.53,105.5,177.27,105,172.2Zm1.64-.17c.37,3.7,2.11,3.88,2.45,3.88h.08c.69,0,2.12,0,2.32-3.89.1-2-1.64-4.83-2.76-6.36A8.15,8.15,0,0,0,106.6,172Z"/><path class="cls-5" d="M90.87,152.65s-2.73,2.29-5.49-1a10.11,10.11,0,0,1-2-7.54s4.25,1.33,5.65,2.57c2,1.76,2,4.85,1.9,5.83Z"/><path class="cls-1" d="M88.31,154.21a5.18,5.18,0,0,1-3.53-2.08,11.24,11.24,0,0,1-2.25-8.19.83.83,0,0,1,.37-.56.8.8,0,0,1,.67-.09c.45.14,4.47,1.42,6,2.74,2.22,2,2.31,5.37,2.16,6.55a.8.8,0,0,1-.28.71,4.58,4.58,0,0,1-2.75,1Zm.13-7a16.38,16.38,0,0,0-4.37-2.07,9.33,9.33,0,0,0,2,5.95c1.78,2.14,3.44,1.5,4.09,1.1.09-1-.06-3.53-1.7-5Z"/><path class="cls-5" d="M93.16,162.74a5.09,5.09,0,0,0-5.73-2.54c-4,.94-5.29,2-5.29,2s2.39,4,6.49,3.52S93.16,162.74,93.16,162.74Z"/><path class="cls-1" d="M81.48,162.61a.83.83,0,0,1,.19-1.05c.16-.12,1.64-1.19,5.6-2.14a6.43,6.43,0,0,1,1.51-.18,5.94,5.94,0,0,1,5.1,3.14.76.76,0,0,1,.08.49c0,.12-.56,3.1-5.21,3.64-.26,0-.51.05-.76.05C83.89,166.56,81.58,162.77,81.48,162.61Zm7.3-1.76a4.79,4.79,0,0,0-1.13.14,20,20,0,0,0-4.3,1.46A6.28,6.28,0,0,0,88,164.94h.58c2.68-.31,3.49-1.54,3.71-2.06A4.22,4.22,0,0,0,88.78,160.85Z"/><path class="cls-5" d="M97.92,142.59a5.14,5.14,0,0,1-5-1.36,3.86,3.86,0,0,1-.87-1.78,35.87,35.87,0,0,1-1-5.73h0a8.25,8.25,0,0,1,5.73,2.46c2.23,2.45,2.8,5.69,1.09,6.4Z"/><path class="cls-1" d="M92.32,141.77a4.71,4.71,0,0,1-1.07-2.14,34.91,34.91,0,0,1-1-5.93.82.82,0,0,1,.82-.82,9,9,0,0,1,6.34,2.76c1.69,1.89,2.58,4.28,2.2,5.94a2.37,2.37,0,0,1-1.41,1.76h-.09a6.86,6.86,0,0,1-1.63.2h0A5.56,5.56,0,0,1,92.32,141.77Zm5.73-.54c.22-1-.34-2.84-1.84-4.5A7.09,7.09,0,0,0,92,134.59a44.06,44.06,0,0,0,.82,4.68,3.08,3.08,0,0,0,.68,1.42,3.91,3.91,0,0,0,3,1.27h0a6.11,6.11,0,0,0,1.12-.13.8.8,0,0,0,.47-.6Z"/><path class="cls-5" d="M101.62,137.19a4.14,4.14,0,0,1,2.75-2,25.2,25.2,0,0,1,5.87.22s-1.64,6.36-9.45,4.36Z"/><path class="cls-1" d="M102.84,141.37a7.74,7.74,0,0,0,4.1-1,7.6,7.6,0,0,0,3.27-4.31.82.82,0,0,0-.6-1h-.06a26.86,26.86,0,0,0-6.13-.21,4.93,4.93,0,0,0-3.28,2.45.82.82,0,0,0,1.44.73,3.29,3.29,0,0,1,2.17-1.57,19.67,19.67,0,0,1,4.6.1c-.74,1.49-2.85,4.24-8.12,2.9a.81.81,0,1,0-.4,1.56A12.31,12.31,0,0,0,102.84,141.37Z"/><path class="cls-5" d="M77,181.14a6.39,6.39,0,0,0-1.77-4.82,15.79,15.79,0,0,0-5.51-3.43s-.9,4.45,2.46,7.37C74.92,182.66,77,181.14,77,181.14Z"/><path class="cls-1" d="M71.58,180.85a8.89,8.89,0,0,1-2.73-8.11.82.82,0,0,1,1.05-.61,16.53,16.53,0,0,1,5.84,3.64,7.19,7.19,0,0,1,2,5.47.81.81,0,0,1-.31.54,3.63,3.63,0,0,1-2.14.63A5.66,5.66,0,0,1,71.58,180.85Zm3-4a13.67,13.67,0,0,0-4.22-2.83,7,7,0,0,0,2.29,5.57,4.12,4.12,0,0,0,2.68,1.18,2.1,2.1,0,0,0,.82-.16,5.7,5.7,0,0,0-1.57-3.76Z"/><circle class="cls-6" cx="102.67" cy="150.52" r="3.94"/><circle class="cls-6" cx="118.69" cy="163.49" r="4.59"/><circle class="cls-6" cx="107.79" cy="189.72" r="4.59"/><circle class="cls-6" cx="72.92" cy="163.49" r="4.59"/><path class="cls-6" d="M79.48,179.78a7.37,7.37,0,1,1,7.37,7.36h0A7.36,7.36,0,0,1,79.48,179.78Zm1.64,0A5.78,5.78,0,1,0,86.91,174h0a5.79,5.79,0,0,0-5.79,5.78h0Z"/><path class="cls-6" d="M128.09,162.72a9.2,9.2,0,1,1,9.19,9.19h0A9.21,9.21,0,0,1,128.09,162.72Zm1.64,0a7.57,7.57,0,1,0,7.57-7.58,7.57,7.57,0,0,0-7.57,7.58h0Z"/><path class="cls-6" d="M137.42,169.45a.94.94,0,0,1-.95-.92v-1.66l-.23-.12a.56.56,0,0,0-.62-.06,1,1,0,0,1-1.18-1.49,2.45,2.45,0,0,1,2.8-.06.89.89,0,0,0,1,.11,1.41,1.41,0,0,0,.65-1.09c0-.52,0-1-1.84-1.08a2.45,2.45,0,0,1-1.08-4.69v-1.48a.95.95,0,1,1,1.89-.17v1.47a3.66,3.66,0,0,1,1.58.65,1,1,0,0,1,.09,1.34.94.94,0,0,1-1.23.17,1.9,1.9,0,0,0-1.64-.22.58.58,0,0,0-.38.63c0,.35.52.41.82.41,2.45,0,3.71,1,3.71,3a3.27,3.27,0,0,1-1.64,2.74,2.72,2.72,0,0,1-.75.29v1.3a.92.92,0,0,1-.91,1Z"/><path class="cls-6" d="M47.35,183.37a9,9,0,1,1,10.93,6.54h-.05a9.36,9.36,0,0,1-2.18.27h0A9,9,0,0,1,47.35,183.37Zm6.93-9.31a7.36,7.36,0,1,0,1.78-.22,7.6,7.6,0,0,0-1.78.21Z"/><path class="cls-6" d="M55.06,187.37h-.2a.81.81,0,0,1-.58-1l.37-1.51-.21-.21a.58.58,0,0,0-.64-.21.82.82,0,0,1-1.13-.24.81.81,0,0,1,.24-1.13.62.62,0,0,1,.22-.1,2.21,2.21,0,0,1,2.46.56.9.9,0,0,0,.93.34,1.39,1.39,0,0,0,.9-.91c.12-.49.26-1-1.5-1.5a2.2,2.2,0,0,1,.13-4.38l.35-1.41a.82.82,0,1,1,1.57.39l-.31,1.26a3.41,3.41,0,0,1,1.32,1,.82.82,0,0,1-.45,1.07.81.81,0,0,1-.78-.09,1.92,1.92,0,0,0-1.53-.62.67.67,0,0,0-.58.58c0,.38.43.57.71.63,2.19.59,3.08,1.75,2.66,3.46A3,3,0,0,1,57,185.41a2.49,2.49,0,0,1-.82.08l-.32,1.25A.81.81,0,0,1,55.06,187.37Z"/><path class="cls-6" d="M90.75,121.15a9,9,0,1,1,9,9A9,9,0,0,1,90.75,121.15Zm1.64,0a7.37,7.37,0,1,0,7.37-7.4,7.37,7.37,0,0,0-7.37,7.4Z"/><path class="cls-6" d="M99.78,127.08a.82.82,0,0,1-.82-.82v-1.45a1.13,1.13,0,0,1-.21-.12.53.53,0,0,0-.58,0,.82.82,0,0,1-1.12-.3.83.83,0,0,1,.11-1,2.15,2.15,0,0,1,2.46-.05.81.81,0,0,0,.88.09,1.22,1.22,0,0,0,.59-1c0-.47,0-1-1.63-1a2.12,2.12,0,0,1-.94-4.09V116a.82.82,0,0,1,1.64,0v1.18a3.29,3.29,0,0,1,1.41.57.82.82,0,0,1-1,1.29,1.78,1.78,0,0,0-1.49-.21.59.59,0,0,0-.37.61c.06.33.49.38.75.38,2.16,0,3.27.9,3.27,2.6a2.86,2.86,0,0,1-1.42,2.41,2.64,2.64,0,0,1-.68.25v1.18a.82.82,0,0,1-.83.8Z"/><path class="cls-6" d="M87.2,184.7a.66.66,0,0,1-.65-.66h0v-1.16l-.18-.11a.45.45,0,0,0-.47,0,.65.65,0,0,1-.82-1,1.71,1.71,0,0,1,2,0,.66.66,0,0,0,.71.07,1,1,0,0,0,.49-.82c0-.37,0-.77-1.35-.82A1.75,1.75,0,0,1,85,178.69a1.78,1.78,0,0,1,1.13-1.92v-1.08a.66.66,0,0,1,.66-.65.65.65,0,0,1,.65.65v1a2.53,2.53,0,0,1,1.15.47.66.66,0,0,1-.82,1h0a1.43,1.43,0,0,0-1.21-.16.46.46,0,0,0-.3.48c0,.27.4.31.61.31,1.75,0,2.64.73,2.64,2.11a2.28,2.28,0,0,1-1.15,1.95,1.9,1.9,0,0,1-.56.21V184a.66.66,0,0,1-.62.69Z"/><path class="cls-1" d="M99.56,109.05a.82.82,0,0,0,.82-.81v-4.1a.82.82,0,0,0-1.64,0v4.1A.82.82,0,0,0,99.56,109.05Z"/><path class="cls-1" d="M81.86,121.08a.82.82,0,0,1,.82-.82h4.09a.82.82,0,0,1,0,1.64H82.68A.82.82,0,0,1,81.86,121.08Zm29.77,0a.82.82,0,0,1,.82-.82h4.09a.82.82,0,1,1,0,1.64h-4.09a.82.82,0,0,1-.86-.78v0Z"/><path class="cls-1" d="M108.64,112.81a.76.76,0,0,0,.57-.24l2.94-2.88a.81.81,0,0,0-.21-1.13.8.8,0,0,0-.93,0l-3,2.88a.8.8,0,0,0,0,1.13A.78.78,0,0,0,108.64,112.81Z"/><path class="cls-1" d="M90.49,112.81a.76.76,0,0,0,.57-.24.8.8,0,0,0,0-1.13l-2.9-2.91A.82.82,0,0,0,87,109.67l2.91,2.9A.78.78,0,0,0,90.49,112.81Z"/><path class="cls-1" d="M117.17,211.93a1,1,0,0,0,.21-2.07.74.74,0,0,0-.21,0,1,1,0,0,0-1,1.06,1,1,0,0,0,.82,1Z"/><path class="cls-1" d="M63.13,166.42a1.08,1.08,0,0,0,1-.82,1,1,0,0,0-.81-1.23h-.23a1,1,0,0,0-.2,2.07h.21Z"/><path class="cls-1" d="M140.56,147.52a.9.9,0,0,0,.87-.71.84.84,0,0,0-.13-.67.92.92,0,0,0-.57-.39h-.18a.89.89,0,0,0-.17,1.77Z"/><path class="cls-1" d="M78.06,238.58a.89.89,0,0,0,.18-1.77h-.18a.89.89,0,0,0-.18,1.77Z"/><g class="cls-7"><path class="cls-8" d="M233,240.15h0s-1.92-7.93-13.84-14.83a22.23,22.23,0,0,1-4.83-3.74h39.56c-.18,1.08-.33,2.2-.46,3.31-.23.15-.46.29-.71.43-11.91,6.9-13.84,14.83-13.84,14.83h0a1.28,1.28,0,0,0-1.29,1.28.28.28,0,0,0,0,.09l1,15.8a23.82,23.82,0,0,0,1.36,6.78,13.18,13.18,0,0,0,3.8,5.64,21.55,21.55,0,0,1,5.39,7.84H222.4c-.15-2.77.87-4.23,5.63-9,.17-.16.34-.33.5-.5a19,19,0,0,0,5-12l.77-14.55a1.33,1.33,0,0,0-1.25-1.4Z"/><polygon class="cls-6" points="257.53 221.56 257.54 221.56 257.53 221.57 257.53 221.56"/><path class="cls-1" d="M218.74,254.3c10.49-6.06,13-13,13.42-14.15-.36-1.16-2.89-8.06-13.42-14.15-11.42-6.61-12.44-19.27-12-26.26a.82.82,0,1,1,1.63.1c-.4,6.55.53,18.55,11.19,24.73,12.08,7,14.15,15,14.23,15.33a.6.6,0,0,1,0,.19v0a.61.61,0,0,1,0,.19c-.08.34-2.15,8.35-14.23,15.34-9.18,5.31-11.2,14.84-11.26,21.88h-1.64C206.74,270.14,208.89,260,218.74,254.3Z"/><path class="cls-1" d="M221.75,189.29h30.48a.82.82,0,0,0,0-1.64H221.75a.82.82,0,0,0,0,1.64Z"/><path class="cls-1" d="M255.29,257.54a.84.84,0,0,0,.63-.31.82.82,0,0,0-.14-1.13,24,24,0,0,0-2.67-1.8c-10.53-6.09-13.05-13-13.41-14.14.36-1.16,2.92-8.09,13.41-14.16l.73-.44a.82.82,0,0,0-.86-1.36l-.68.4c-12.07,7-14.14,15-14.23,15.34v.42c.09.35,2.16,8.35,14.23,15.34a21.47,21.47,0,0,1,2.46,1.64A.81.81,0,0,0,255.29,257.54Z"/><path class="cls-5" d="M205,194.22h53.71c-.21,2.45-.44,4.7-.65,6.69H205a3.35,3.35,0,0,1,0-6.69Z"/><path class="cls-1" d="M200.83,197.57a4.15,4.15,0,0,1,4.15-4.16h53.71a.82.82,0,0,1,.82.82v.06c-.18,2.18-.4,4.44-.65,6.71a.82.82,0,0,1-.82.71H205A4.15,4.15,0,0,1,200.83,197.57Zm57-2.54H205a2.54,2.54,0,0,0,0,5.07h52.34c.18-1.71.35-3.41.49-5.07Z"/><path class="cls-1" d="M205.31,206.48h50a.82.82,0,0,0,0-1.64h-50a.82.82,0,0,0,0,1.64Z"/><path class="cls-1" d="M216,189.37a.9.9,0,0,0,.88-.71.85.85,0,0,0-.13-.66.89.89,0,0,0-.57-.39H216a.89.89,0,0,0-.85.93.87.87,0,0,0,.68.83Z"/></g><path class="cls-3" d="M203.45,195.65a9.55,9.55,0,0,0,5.3-1.64l.87-.56a9.65,9.65,0,0,0,4.2-10,.82.82,0,0,0-1.58.31,8,8,0,0,1-3.49,8.38l-.87.57a8.07,8.07,0,0,1-11.18-2.35l-3.34-5.11a8.09,8.09,0,0,1,2.29-11.18l.87-.56a8.08,8.08,0,0,1,9.82.73.82.82,0,1,0,1.29-1,1,1,0,0,0-.21-.19,9.7,9.7,0,0,0-11.77-.88l-.86.56A9.69,9.69,0,0,0,192,186.12l3.34,5.12a9.91,9.91,0,0,0,8.13,4.41Z"/><path class="cls-3" d="M177.76,177.28l-1-2.64a5,5,0,0,1,2.82-6.45h0l3.73-1.44a5,5,0,0,1,6.46,2.85h0l1,2.63a5,5,0,0,1-2.86,6.47l-3.76,1.41a5,5,0,0,1-1.8.34h0A5,5,0,0,1,177.76,177.28Zm6.15-9.05-3.74,1.45a3.37,3.37,0,0,0-1.93,4.37h0l1,2.64a3.41,3.41,0,0,0,3.16,2.16,3.35,3.35,0,0,0,1.22-.23l3.73-1.45a3.39,3.39,0,0,0,1.94-4.38l-1-2.63a3.43,3.43,0,0,0-3.16-2.17A3.62,3.62,0,0,0,183.91,168.23Z"/><path class="cls-1" d="M302.52,149a.7.7,0,0,0,.31-.07.82.82,0,0,0,.42-1c0-.05-2.22-5.73-1.52-25.06A34.24,34.24,0,0,0,292.1,98c-5-5.17-11-8.26-16.16-8.26-10.74,0-12.28,4.86-12.33,5.06a.81.81,0,0,0,1.54.46c0-.09,1.46-3.9,10.79-3.9,4.63,0,10.38,3,15,7.76a32.54,32.54,0,0,1,9.19,23.67c-.72,19.87,1.55,25.52,1.64,25.75A.83.83,0,0,0,302.52,149Z"/><path class="cls-1" d="M257.12,145.06a.8.8,0,0,0,.45-1.47c-.09-.06-8.73-6-12.07-15.86s-1.64-22,3.9-28.55c5.24-6.18,15.06-4,15.16-4a.82.82,0,0,0,.86-.77.85.85,0,0,0-.5-.8c-.44-.1-10.87-2.37-16.75,4.56s-7.71,19.65-4.19,30.1,12.32,16.43,12.69,16.69A.9.9,0,0,0,257.12,145.06Z"/><path class="cls-1" d="M268.18,130.74a9.82,9.82,0,0,0,1.21-.07l1.79-.22a10,10,0,0,0,8.7-11.11l-1-8.09a.8.8,0,1,0-1.59.19l1,8.09a8.38,8.38,0,0,1-7.3,9.32h0l-1.8.22a8.38,8.38,0,0,1-9.31-7.29l-1.13-9.34c4.65-3.27,6.34-9.29,6.42-9.55a.82.82,0,0,0-1.56-.43c0,.07-1.72,6.1-6.15,8.9a.82.82,0,0,0-.37.82l1.19,9.83A10,10,0,0,0,268.18,130.74Z"/><path class="cls-1" d="M282.15,112.84h0a.82.82,0,1,0,0-1.63h0c-.1,0-6.23,0-13.92-5.83-4.49-3.38-4.81-6.84-4.81-6.87a.82.82,0,0,0-1.64.11c0,.17.31,4.19,5.45,8C275.3,112.72,281.65,112.84,282.15,112.84Z"/><path class="cls-1" d="M254.36,114a7.39,7.39,0,0,0,4-1.33.82.82,0,0,0-1-1.29h0a5.46,5.46,0,0,1-3.74.95.82.82,0,0,0-.6,1.53,1.06,1.06,0,0,0,.31.05A4.06,4.06,0,0,0,254.36,114Z"/><path class="cls-1" d="M295.87,134.05H296a.81.81,0,0,0,.71-.89,38.12,38.12,0,0,1-.14-5,77.33,77.33,0,0,0-.56-11.68c-1.12-9.31-8.9-15.7-9.24-16a.81.81,0,0,0-1.1.34.8.8,0,0,0,.1.91c.07.07,7.61,6.26,8.63,14.91a75.67,75.67,0,0,1,.56,11.46,41.38,41.38,0,0,0,.15,5.22A.82.82,0,0,0,295.87,134.05Z"/><path class="cls-1" d="M271.32,144.85h.05a3.29,3.29,0,0,0,2.4-1.1,20.89,20.89,0,0,0,3.54-5.95,5.07,5.07,0,0,0,.21-3.17L275.81,128a.82.82,0,0,0-1.56.4L276,135a3.4,3.4,0,0,1-.16,2.16,19.55,19.55,0,0,1-3.23,5.48,1.67,1.67,0,0,1-2.45.05,13.53,13.53,0,0,1-3.27-5,1.73,1.73,0,0,1-.05-.45v-7.56a.82.82,0,1,0-1.64,0v7.56a3.23,3.23,0,0,0,.1.82,14.8,14.8,0,0,0,3.65,5.73A3.23,3.23,0,0,0,271.32,144.85Z"/><path class="cls-1" d="M301,200.38a.84.84,0,0,0,.56-.22c7.28-7,18.37-24.89,21.69-30.61a3.85,3.85,0,0,0-.25-4.23c-6.5-8.77-27.28-23.16-30.83-25.44-4.65-3-14.8-4.1-15.22-4.17a.82.82,0,1,0-.17,1.64c.09,0,10.18,1.13,14.52,3.91,3.51,2.26,24.05,16.48,30.4,25.05a2.23,2.23,0,0,1,.15,2.46c-4,7-14.32,23.15-21,29.81l-3.43-2.17,1.22-2.35c2.77-5.32,8.55-16.37,10.88-21a3.21,3.21,0,0,0-1.21-4.21l-16.89-10.38a.81.81,0,0,0-1.15,0,.82.82,0,0,0,0,1.16.64.64,0,0,0,.3.17l16.88,10.38a1.64,1.64,0,0,1,.61,2.12c-2.32,4.6-8.09,15.67-10.86,21l-1.58,3a.83.83,0,0,0,.3,1l4.6,2.9A.86.86,0,0,0,301,200.38Z"/><path class="cls-1" d="M218.12,180.26h0l20.7-.16a5,5,0,0,0,2.73-.92l17-12.44a.82.82,0,1,0-.68-1.49.81.81,0,0,0-.24.17l-16.92,12.44a3.26,3.26,0,0,1-1.85.62l-19.86.14v-4.68l15.6-5a9,9,0,0,0,4.79-2.6c4.49-4.63,10.17-12.68,16.09-19.19,7-7.69,11-7.2,11-7.19a.83.83,0,0,0,.92-.67.82.82,0,0,0-.65-.92c-.19,0-4.81-.77-12.5,7.7-5.89,6.49-11.56,14.52-16,19.16a7.45,7.45,0,0,1-3.94,2.12L218,172.48a.83.83,0,0,0-.66.82v6.17a.83.83,0,0,0,.25.58A.85.85,0,0,0,218.12,180.26Z"/><path class="cls-1" d="M249.18,144.17a.78.78,0,0,0,.64-.32.82.82,0,0,0-.15-1.12c-.09-.06-8.33-6.49-10-16.79a.83.83,0,0,0-1.64.26c1.77,10.94,10.24,17.53,10.64,17.81A.84.84,0,0,0,249.18,144.17Z"/><path class="cls-1" d="M264.74,170.61a10.24,10.24,0,0,0,6.91-2.68,23.15,23.15,0,0,0,9.12,1.7c4.46-.34,6-2.17,6.1-2.38a.82.82,0,1,0-1.1-1.21.76.76,0,0,0-.18.25s-1.21,1.44-4.91,1.73c-4,.31-8.83-1.75-8.88-1.78a.82.82,0,0,0-.92.22,8.6,8.6,0,0,1-6.11,2.53c-2.65,0-4.52-.81-5.55-2.53a8,8,0,0,1-.19-7c1.52-3,.75-6.79.72-7a.82.82,0,1,0-1.63.06.86.86,0,0,0,.05.27h0s.68,3.43-.57,5.9a9.66,9.66,0,0,0,.24,8.55C258.74,168.81,260.69,170.61,264.74,170.61Z"/><path class="cls-1" d="M267.38,201.79a.83.83,0,0,0,.82-.64c1.31-6.11.62-23.39.6-24.12a.82.82,0,0,0-1.64.06c0,.18.7,17.81-.56,23.74a.83.83,0,0,0,.62,1Z"/><path class="cls-1" d="M260.12,211.91a.8.8,0,1,1,1.52.5c0,.12-3.94,11.9-4,21.29-.05,18,6.2,47.19,6.26,47.48a.49.49,0,0,1,0,.17h-1.63c-.51-2.4-6.31-30.16-6.27-47.64C256.09,224,260,212.4,260.12,211.91Z"/><path class="cls-1" d="M307.5,236.71c-1.13-13.84-10.43-26-10.53-26.11a.81.81,0,0,1,1.27-1c.4.5,9.7,12.64,10.87,27,.82,9.95-4.91,42.06-5.38,44.78h-1.64a.33.33,0,0,1,0-.14C302.18,280.88,308.32,246.67,307.5,236.71Z"/><path class="cls-1" d="M301.4,260.63a.81.81,0,0,0,.81-.66,125.23,125.23,0,0,0,1.64-18.44c.09-12.91-3.93-18.56-4.09-18.83a.8.8,0,1,0-1.3.94c.05.07,3.88,5.54,3.79,17.83a124.27,124.27,0,0,1-1.59,18.17.83.83,0,0,0,.65.94Z"/><path class="cls-1" d="M277.26,235.34a.82.82,0,0,1,1.64.09,1,1,0,0,1-.07.28c0,.11-2.57,11.19-2.45,19.3s2.45,26.07,2.45,26.25v.1H277.2C277,279.9,274.89,263,274.74,255,274.64,246.73,277.16,235.8,277.26,235.34Z"/><path class="cls-1" d="M304.73,212.46h.45a3.25,3.25,0,0,0,2.54-1.38,2,2,0,0,0-.5-2.71l-.08-.05a43.18,43.18,0,0,0-4.57-2.4,2.73,2.73,0,0,1-1.55-1.64c-.61-1.85.69-4.29.7-4.32a.81.81,0,0,0-.34-1.1.82.82,0,0,0-1.07.28c-.07.14-1.64,3.07-.82,5.59a4.27,4.27,0,0,0,2.4,2.59,41,41,0,0,1,4.4,2.32.36.36,0,0,1,.16.22.31.31,0,0,1-.05.25,1.62,1.62,0,0,1-1.27.7c-1.71.05-4.91-.2-7.14-2.41a.82.82,0,0,0-1.13,1.14A11.11,11.11,0,0,0,304.73,212.46Z"/><polygon class="cls-4" points="174.96 177.03 183.84 173.59 192.71 170.16 213.05 199.47 196.85 207.17 179.7 212.41 174.96 177.03"/><circle class="cls-2" cx="189.01" cy="187.96" r="6.34"/><path class="cls-1" d="M182.34,190.52a7.12,7.12,0,1,1,6.66,4.56h0A7.2,7.2,0,0,1,182.34,190.52Zm4.66-7.74a5.52,5.52,0,0,0,2,10.68,5.4,5.4,0,0,0,2-.37,5.53,5.53,0,1,0-4-10.31Z"/><path class="cls-1" d="M195.33,203.79a.85.85,0,0,0,.35-.08l11.65-5.52a.82.82,0,0,0,.57-1,.81.81,0,0,0-1-.57.68.68,0,0,0-.26.12L195,202.26a.82.82,0,0,0-.31,1.11.85.85,0,0,0,.66.42Z"/><polygon class="cls-3" points="176.87 191.29 158.66 190.5 160.98 196.48 178.95 206.86 176.87 191.29"/><path class="cls-4" d="M155.63,185.83a7.88,7.88,0,1,1,.23,15.76h0Z"/><path class="cls-1" d="M144.28,192.48a.81.81,0,0,0,.61-.28c3.27-3.84,7-1.93,7.16-1.85a.82.82,0,0,0,1-.53.84.84,0,0,0-.27-.89,7.54,7.54,0,0,0-9.15,2.23.81.81,0,0,0,.09,1.13A.78.78,0,0,0,144.28,192.48Z"/><path class="cls-1" d="M143.38,202.32a.81.81,0,0,0,.82-.66c1-5.38,8.9-6.55,9-6.59a.81.81,0,0,0-.22-1.6c-.38.05-9.14,1.38-10.34,7.89a.82.82,0,0,0,.65.94Z"/><path class="cls-1" d="M145.27,216.12h.18a.82.82,0,0,0,.61-1c-1.64-7.53,8.32-14.25,8.42-14.31a.82.82,0,0,0,0-1.16.81.81,0,0,0-.92-.18c-.45.3-11,7.36-9.1,16A.82.82,0,0,0,145.27,216.12Z"/><path class="cls-1" d="M175.1,210.62a.82.82,0,0,0,.78-.85.8.8,0,0,0-.37-.65l-10.65-6.19a.81.81,0,0,0-1.1.29.83.83,0,0,0,.29,1.1l10.65,6.19A.8.8,0,0,0,175.1,210.62Z"/><path class="cls-1" d="M216.28,180h1.84a.82.82,0,0,0,.82-.82v-5.36a.82.82,0,0,0-.82-.82h-6.73a.82.82,0,0,0,0,1.64h5.93v3.75h-1a.82.82,0,1,0,0,1.63Z"/><path class="cls-1" d="M211.39,174.63a.88.88,0,0,0,.53-.21.82.82,0,0,0,.07-1.14l-3.13-3.55a2.38,2.38,0,0,0-3.64,3.06l1.18,1.41a.82.82,0,0,0,1.24-1l-1.18-1.41a.77.77,0,1,1,1.1-1.07l.08.09,3.14,3.57A.85.85,0,0,0,211.39,174.63Z"/><path class="cls-1" d="M212.25,184.43l-1.12-.1c-1.44-.12-2.57-.21-3.17-1a1.71,1.71,0,0,1-.32-1.38c.09-.63.54-1.39,2.14-1.39q.67,0,1.35.09c.45,0,.92.08,1.35.08a3,3,0,0,0,.89-.1l.65-.24a5.93,5.93,0,0,1,1.85-.47,1.54,1.54,0,0,1,1.26.58,1.63,1.63,0,0,1-.31,2.23,7,7,0,0,1-4.09,1.64Zm2.33-2.46-.69.25a4.49,4.49,0,0,1-1.41.19,14.91,14.91,0,0,1-1.5-.1,11,11,0,0,0-1.2-.07,1.72,1.72,0,0,0-.55.06.14.14,0,0,0,0,.09,5.56,5.56,0,0,0,2,.35l1.17.11a5.16,5.16,0,0,0,3.27-1.24,6.29,6.29,0,0,0-1.12.34Z"/><path class="cls-1" d="M208.66,182.49a.82.82,0,0,0,.84-.8.81.81,0,0,0-.79-.84c-.25,0-.7-.08-.82-.34a1,1,0,0,1,.17-.82c.23-.27,1-.13,1.81,0a8.5,8.5,0,0,0,4-.1c.63-.14,1.36-.3,1.58-.12s.19.23.19.24a1.12,1.12,0,0,1-.39.36.82.82,0,0,0,.77,1.42,2.4,2.4,0,0,0,1.22-1.64,1.82,1.82,0,0,0-.75-1.64c-.82-.7-1.91-.46-3-.23a10.91,10.91,0,0,1-1.7.26,10.76,10.76,0,0,1-1.7-.17c-1.22-.2-2.45-.41-3.27.56a2.54,2.54,0,0,0-.43,2.51,2.3,2.3,0,0,0,2.2,1.31Z"/><path class="cls-1" d="M207.78,179.73a.82.82,0,0,0,0-1.64.48.48,0,0,1-.32-.15,1,1,0,0,1-.13-.72c.25-.29,1.83-.19,2.67-.15a11.67,11.67,0,0,0,2.77,0,3.79,3.79,0,0,1,2.51.14h0a1.77,1.77,0,0,1-.36.77.82.82,0,0,0,1.31.94,2.28,2.28,0,0,0,.41-2.57c-.89-1.39-3.62-1-4.16-.82a11.73,11.73,0,0,1-2.37,0c-1.88-.12-4.22-.26-4.38,1.63a2.42,2.42,0,0,0,.54,2,2.12,2.12,0,0,0,1.47.68Z"/><path class="cls-1" d="M207,177.3a.82.82,0,0,0,.78-.85.8.8,0,0,0-.26-.56.93.93,0,0,1-.21-1.29l.07-.09c.54-.68,2.46-.21,3.64.07.41.1.77.19,1.08.24s.63.05,1,.07,1.74.08,1.9.34a2,2,0,0,1-.2.7.81.81,0,0,0,.14,1.15.82.82,0,0,0,1.15-.14,1,1,0,0,0,.14-.28,2.3,2.3,0,0,0,.16-2.24c-.6-1-2.06-1.09-3.22-1.14-.27,0-.55,0-.82-.06a5.22,5.22,0,0,1-1-.21c-1.64-.39-4.09-1-5.27.51a2.51,2.51,0,0,0,.31,3.55l.05.05A.75.75,0,0,0,207,177.3Z"/><path class="cls-1" d="M276.5,215.76a48.58,48.58,0,0,0,21.48-5,.8.8,0,0,0,.4-.82c-.05-.32-5.42-32.56-6.39-38.55a27.84,27.84,0,0,1,.82-11.41.82.82,0,1,0-1.44-.78.71.71,0,0,0-.09.28,29.07,29.07,0,0,0-.9,12.16c.89,5.55,5.56,33.56,6.29,38-2.88,1.42-17.83,8.05-34.95,2,.67-4.71,4.28-32.08.41-42.65a.81.81,0,1,0-1.51.56c4,10.94-.53,42.18-.58,42.5a.81.81,0,0,0,.52.87A45.4,45.4,0,0,0,276.5,215.76Z"/><path class="cls-1" d="M300.51,264.32a.88.88,0,0,0,.87-.71.9.9,0,0,0-.7-1.05h-.17a.89.89,0,0,0-.86.92.88.88,0,0,0,.68.84Z"/><path class="cls-1" d="M266.87,205.19a.89.89,0,0,0,.87-.91.9.9,0,0,0-.69-.85h-.18a.89.89,0,0,0-.85.93.87.87,0,0,0,.68.83Z"/><path class="cls-1" d="M282.17,100a.88.88,0,0,0,.86-.92.89.89,0,0,0-.68-.84.54.54,0,0,0-.18,0A.89.89,0,0,0,282,100Z"/><path class="cls-1" d="M238.88,120.79a.88.88,0,0,0,.87-.91.9.9,0,0,0-.68-.85h-.19a.88.88,0,0,0-.86.72.86.86,0,0,0,.13.66.85.85,0,0,0,.56.38Z"/><path class="cls-1" d="M161.33,203a.89.89,0,0,0,.88-.9.86.86,0,0,0-.15-.49.87.87,0,0,0-.56-.37h-.18a.89.89,0,0,0-.87.71.85.85,0,0,0,.13.66.92.92,0,0,0,.57.39Z"/><path class="cls-1" d="M191.7,205.19a.9.9,0,0,0,.87-.71.89.89,0,0,0-.13-.67.86.86,0,0,0-.57-.38h-.18a.91.91,0,0,0-.87.72.89.89,0,0,0,.13.67.9.9,0,0,0,.57.38h.18Z"/><g class="cls-7"><path class="cls-6" d="M49,83.66A13.53,13.53,0,1,0,34.23,98.45,19,19,0,0,1,49,83.66Z"/></g><g class="cls-7"><path class="cls-1" d="M67,101.11H34.68a.86.86,0,0,1-.87-.86A17,17,0,0,1,63.7,89.07a.87.87,0,1,1-1.22,1.24l-.09-.11a15.31,15.31,0,0,0-26.83,9.18H67a.87.87,0,0,1,0,1.73Z"/></g><g class="cls-7"><path class="cls-1" d="M28,86.22a1,1,0,0,1-1-1,8.54,8.54,0,0,1,8.53-8.53,1,1,0,1,1,0,2h0a6.55,6.55,0,0,0-6.5,6.5A1,1,0,0,1,28,86.22Z"/></g><g class="cls-7"><path class="cls-1" d="M35.46,65.59a1,1,0,0,1-1-1V51.74a1,1,0,0,1,2,0V64.57a1,1,0,0,1-1,1Z"/></g><g class="cls-7"><path class="cls-1" d="M13.84,87.21H1a1,1,0,1,1,0-2H13.84a1,1,0,1,1,0,2Z"/></g><g class="cls-7"><path class="cls-1" d="M20.17,71.91a1,1,0,0,1-.71-.29l-9.07-9.07a1,1,0,0,1,1.43-1.43l9.07,9.07a1,1,0,0,1,0,1.42h0A1,1,0,0,1,20.17,71.91Z"/></g><g class="cls-7"><path class="cls-1" d="M11.11,111.56a1,1,0,0,1-.72-.3,1,1,0,0,1,0-1.42h0l9.07-9.07a1,1,0,0,1,1.43,1.43l-9.07,9.07A1,1,0,0,1,11.11,111.56ZM50.76,71.91a1.05,1.05,0,0,1-.73-.29,1,1,0,0,1,0-1.43h0l9.08-9.07a1,1,0,0,1,1.47,1.43l-9.11,9.07A1,1,0,0,1,50.76,71.91Z"/></g><g class="cls-7"><path class="cls-1" d="M29.89,91.34a1.12,1.12,0,0,1-1.12-1.12A1.06,1.06,0,0,1,29,89.6a1.11,1.11,0,0,1,.71-.48.88.88,0,0,1,.23,0,1.11,1.11,0,0,1,.93,1.72,1.06,1.06,0,0,1-.71.47h-.23Z"/></g></g></g></g></g></svg>