<?xml version="1.0" encoding="utf-8"?>
<!-- Generator: Adobe Illustrator 23.0.1, SVG Export Plug-In . SVG Version: 6.00 Build 0)  -->
<svg version="1.1" id="Layer_1" xmlns="http://www.w3.org/2000/svg" xmlns:xlink="http://www.w3.org/1999/xlink" x="0px" y="0px"
	 viewBox="0 0 366 307" style="enable-background:new 0 0 366 307;" xml:space="preserve">
<style type="text/css">
	.st0{fill:#045473;}
	.st1{fill:#47A5B5;}
	.st2{fill:#B57947;}
</style>
<title>1_corpus</title>
<g>
	<g id="pic">
		<g id="Equalizer">
			<polygon class="st0" points="170.7,251.3 193.7,238 193.7,97.8 170.7,111.1 			"/>
			<path class="st1" d="M170.7,252.3c-0.2,0-0.4,0-0.5-0.1c-0.3-0.2-0.5-0.5-0.5-0.9V111.1c0-0.4,0.2-0.7,0.5-0.9l23-13.3
				c0.5-0.3,1.1-0.1,1.4,0.4c0.1,0.1,0.1,0.3,0.1,0.5V238c0,0.4-0.2,0.7-0.5,0.9l-23,13.3C171.1,252.3,170.9,252.3,170.7,252.3z
				 M171.8,111.7v137.9l21-12.1V99.5L171.8,111.7z"/>
			<polygon class="st0" points="147.7,238 170.7,251.3 170.7,111.1 147.7,97.8 			"/>
			<path class="st1" d="M170.7,252.3c-0.2,0-0.4,0-0.5-0.1l-23-13.3c-0.3-0.2-0.5-0.5-0.5-0.9V97.8c0-0.4,0.2-0.7,0.5-0.9
				c0.3-0.2,0.7-0.2,1,0l23,13.3c0.3,0.2,0.5,0.5,0.5,0.9v140.2c0,0.4-0.2,0.7-0.5,0.9C171.1,252.3,170.9,252.3,170.7,252.3z
				 M148.7,237.5l21,12.1V111.7l-21-12.1V237.5z"/>
			<polygon class="st0" points="147.7,97.8 170.7,84.5 193.7,97.8 170.7,111.1 			"/>
			<path class="st1" d="M170.7,112.1c-0.2,0-0.4,0-0.5-0.1l-23-13.3c-0.3-0.2-0.5-0.5-0.5-0.9c0-0.4,0.2-0.7,0.5-0.9l23-13.3
				c0.3-0.2,0.7-0.2,1,0l23,13.3c0.3,0.2,0.5,0.5,0.5,0.9c0,0.4-0.2,0.7-0.5,0.9l-23,13.3C171.1,112.1,170.9,112.1,170.7,112.1z
				 M149.7,97.8l21,12.1l21-12.1l-21-12.1L149.7,97.8z"/>
			<polygon class="st0" points="216.6,251.3 239.6,238 239.6,97.8 216.6,111.1 			"/>
			<path class="st1" d="M216.6,252.3c-0.2,0-0.3,0-0.5-0.1c-0.3-0.2-0.5-0.5-0.5-0.9V111.1c0-0.4,0.2-0.7,0.5-0.9l23-13.3
				c0.3-0.2,0.7-0.2,1,0c0.3,0.2,0.5,0.5,0.5,0.9V238c0,0.4-0.2,0.7-0.5,0.9l-23,13.3C217,252.3,216.8,252.3,216.6,252.3z
				 M217.6,111.7v137.9l21-12.1V99.5L217.6,111.7z"/>
			<polygon class="st0" points="193.6,238 216.6,251.3 216.6,111.1 193.6,97.8 			"/>
			<path class="st1" d="M216.6,252.3c-0.2,0-0.3,0-0.5-0.1l-23-13.3c-0.3-0.2-0.5-0.5-0.5-0.9V97.8c0-0.4,0.2-0.7,0.5-0.9
				c0.3-0.2,0.7-0.2,1,0l23,13.3c0.3,0.2,0.5,0.5,0.5,0.9v140.2c0,0.4-0.2,0.7-0.5,0.9C217,252.3,216.8,252.3,216.6,252.3z
				 M194.7,237.5l21,12.1V111.7l-21-12.1L194.7,237.5z"/>
			<polygon class="st0" points="193.6,97.8 216.6,84.5 239.6,97.8 216.6,111.1 			"/>
			<path class="st1" d="M216.6,112.1c-0.2,0-0.3,0-0.5-0.1l-23-13.3c-0.3-0.2-0.5-0.5-0.5-0.9c0-0.4,0.2-0.7,0.5-0.9l23-13.3
				c0.3-0.2,0.7-0.2,1,0l23,13.3c0.3,0.2,0.5,0.5,0.5,0.9c0,0.4-0.2,0.7-0.5,0.9l-23,13.3C217,112.1,216.8,112.1,216.6,112.1z
				 M195.6,97.8l21,12.1l21-12.1l-21-12.1L195.6,97.8z"/>
			<polygon class="st0" points="262.7,247.4 285.7,234.1 285.7,136.7 262.7,150 			"/>
			<path class="st1" d="M262.7,248.4c-0.2,0-0.3,0-0.5-0.1c-0.3-0.2-0.5-0.5-0.5-0.9V150c0-0.4,0.2-0.7,0.5-0.9l23-13.3
				c0.5-0.2,1.1,0,1.4,0.5c0.1,0.1,0.1,0.2,0.1,0.4v97.4c0,0.4-0.2,0.7-0.5,0.9l-23,13.3C263,248.3,262.8,248.4,262.7,248.4z
				 M263.7,150.6v95.1l21-12.1v-95.1L263.7,150.6z"/>
			<polygon class="st0" points="239.7,234.1 262.7,247.4 262.7,150 239.7,136.7 			"/>
			<path class="st1" d="M262.7,248.4c-0.2,0-0.3,0-0.5-0.1l-23-13.3c-0.3-0.2-0.5-0.5-0.5-0.9v-97.4c0-0.4,0.2-0.7,0.5-0.9
				c0.3-0.2,0.7-0.2,1,0l23,13.3c0.3,0.2,0.5,0.5,0.5,0.9v97.4c0,0.4-0.2,0.7-0.5,0.9C263,248.3,262.8,248.4,262.7,248.4z
				 M240.7,233.5l21,12.1v-95.1l-21-12.1V233.5z"/>
			<polygon class="st0" points="239.7,136.7 262.7,123.4 285.7,136.7 262.7,150 			"/>
			<path class="st1" d="M262.7,151c-0.2,0-0.3,0-0.5-0.1l-23-13.3c-0.3-0.2-0.5-0.5-0.5-0.9c0-0.4,0.2-0.7,0.5-0.9l23-13.3
				c0.3-0.2,0.7-0.2,1,0l23,13.3c0.3,0.2,0.5,0.5,0.5,0.9c0,0.4-0.2,0.7-0.5,0.9l-23,13.3C263,150.9,262.8,151,262.7,151z
				 M241.6,136.7l21,12.1l21-12.1l-21-12.1L241.6,136.7z"/>
			<polygon class="st0" points="147.4,259.5 170.4,246.2 170.4,148.8 147.4,162.1 			"/>
			<path class="st1" d="M147.4,260.5c-0.2,0-0.3,0-0.5-0.1c-0.3-0.2-0.5-0.5-0.5-0.9v-97.4c0-0.4,0.2-0.7,0.5-0.9l23-13.3
				c0.3-0.2,0.7-0.2,1,0c0.3,0.2,0.5,0.5,0.5,0.9v97.4c0,0.4-0.2,0.7-0.5,0.9l-23.1,13.3C147.7,260.5,147.5,260.5,147.4,260.5z
				 M148.4,162.7v95.1l20.9-12.1v-95.1L148.4,162.7z"/>
			<polygon class="st0" points="124.3,246.2 147.4,259.5 147.4,162.1 124.3,148.8 			"/>
			<path class="st1" d="M147.4,260.5c-0.2,0-0.3,0-0.5-0.1l-23-13.3c-0.3-0.2-0.5-0.5-0.5-0.9v-97.4c0-0.4,0.2-0.7,0.5-0.9
				c0.3-0.2,0.7-0.2,1,0l23,13.3c0.3,0.2,0.5,0.5,0.5,0.9v97.4c0,0.4-0.2,0.7-0.5,0.9C147.7,260.5,147.6,260.5,147.4,260.5z
				 M125.4,245.7l20.9,12.1v-95.1l-21-12.1L125.4,245.7z"/>
			<polygon class="st0" points="124.3,148.8 147.4,135.5 170.4,148.8 147.4,162.1 			"/>
			<path class="st1" d="M147.4,163.2c-0.2,0-0.3,0-0.5-0.1l-23-13.3c-0.3-0.2-0.5-0.5-0.5-0.9c0-0.4,0.2-0.7,0.5-0.9l23-13.3
				c0.3-0.2,0.7-0.2,1,0l23,13.3c0.3,0.2,0.5,0.5,0.5,0.9c0,0.4-0.2,0.7-0.5,0.9l-23,13.3C147.8,163.1,147.6,163.2,147.4,163.2z
				 M126.3,148.8l21.1,12.1l21-12.1l-21-12.1L126.3,148.8z"/>
			<polygon class="st0" points="193.4,286.1 216.4,272.8 216.4,175.4 193.4,188.7 			"/>
			<path class="st1" d="M193.4,287.1c-0.2,0-0.3-0.1-0.5-0.1c-0.3-0.2-0.5-0.5-0.5-0.9v-97.4c0-0.4,0.2-0.7,0.5-0.9l23-13.3
				c0.3-0.2,0.7-0.2,1,0c0.3,0.2,0.5,0.5,0.5,0.9v97.4c0,0.4-0.2,0.7-0.5,0.9L194,287C193.8,287.1,193.6,287.1,193.4,287.1z
				 M194.5,189.3v95.1l20.9-12.1v-95.1L194.5,189.3z"/>
			<polygon class="st0" points="170.4,272.8 193.4,286.1 193.4,188.7 170.4,175.4 			"/>
			<path class="st1" d="M193.4,287.1c-0.2,0-0.3-0.1-0.5-0.1l-23-13.3c-0.3-0.2-0.5-0.5-0.5-0.9v-97.4c0-0.4,0.2-0.7,0.5-0.9
				c0.3-0.2,0.7-0.2,1,0l23,13.3c0.3,0.2,0.5,0.5,0.5,0.9v97.4c0,0.4-0.2,0.7-0.5,0.9C193.8,287.1,193.6,287.1,193.4,287.1z
				 M171.4,272.2l20.9,12.1v-95.1l-21-12.1L171.4,272.2z"/>
			<polygon class="st0" points="170.4,175.4 193.4,162.1 216.4,175.4 193.4,188.7 			"/>
			<path class="st1" d="M193.4,189.7c-0.2,0-0.3,0-0.5-0.1l-23-13.3c-0.3-0.2-0.5-0.5-0.5-0.9c0-0.4,0.2-0.7,0.5-0.9l23-13.3
				c0.3-0.2,0.7-0.2,1,0l23,13.3c0.3,0.2,0.5,0.5,0.5,0.9c0,0.4-0.2,0.7-0.5,0.9l-23,13.3C193.8,189.6,193.6,189.7,193.4,189.7z
				 M172.4,175.4l21,12.1l21-12.1l-21-12.1L172.4,175.4z"/>
			<polygon class="st0" points="170.4,299.4 193.4,286.1 193.4,245.1 170.4,258.4 			"/>
			<path class="st1" d="M170.4,300.4c-0.2,0-0.4,0-0.5-0.1c-0.3-0.2-0.5-0.5-0.5-0.9v-41.1c0-0.4,0.2-0.7,0.5-0.9l23-13.3
				c0.5-0.3,1.1-0.1,1.4,0.4c0.1,0.1,0.1,0.3,0.1,0.5v41c0,0.4-0.2,0.7-0.5,0.9l-23,13.3C170.7,300.3,170.6,300.4,170.4,300.4z
				 M171.4,258.9v38.7l20.9-12.1v-38.7L171.4,258.9z"/>
			<polygon class="st0" points="147.4,286.1 170.4,299.4 170.4,258.4 147.4,245.1 			"/>
			<path class="st1" d="M170.4,300.4c-0.2,0-0.4,0-0.5-0.1l-23-13.3c-0.3-0.2-0.5-0.5-0.5-0.9v-41c0-0.4,0.2-0.7,0.5-0.9
				c0.3-0.2,0.7-0.2,1,0l23,13.3c0.3,0.2,0.5,0.5,0.5,0.9v41c0,0.4-0.2,0.7-0.5,0.9C170.8,300.4,170.6,300.4,170.4,300.4z
				 M148.3,285.5l21,12.1V259l-21-12.1V285.5z"/>
			<polygon class="st0" points="147.4,245.1 170.4,231.8 193.4,245.1 170.4,258.4 			"/>
			<path class="st1" d="M170.4,259.4c-0.2,0-0.4,0-0.5-0.1l-23-13.3c-0.3-0.2-0.5-0.5-0.5-0.9c0-0.4,0.2-0.7,0.5-0.9l23-13.3
				c0.3-0.2,0.7-0.2,1,0l23,13.3c0.3,0.2,0.5,0.5,0.5,0.9c0,0.4-0.2,0.7-0.5,0.9l-23,13.3C170.8,259.3,170.6,259.4,170.4,259.4z
				 M149.3,245.1l21.1,12.1l21-12.1l-21-12.1L149.3,245.1z"/>
			<polygon class="st0" points="239.4,286.1 262.4,272.8 262.4,231.8 239.4,245.1 			"/>
			<path class="st1" d="M239.4,287.1c-0.2,0-0.3-0.1-0.5-0.1c-0.3-0.2-0.5-0.5-0.5-0.9v-41c0-0.4,0.2-0.7,0.5-0.9l23-13.3
				c0.5-0.2,1.1,0,1.4,0.5c0.1,0.1,0.1,0.2,0.1,0.4v41c0,0.4-0.2,0.7-0.5,0.9l-23,13.3C239.8,287.1,239.6,287.1,239.4,287.1z
				 M240.5,245.6v38.8l21-12.1v-38.7L240.5,245.6z"/>
			<polygon class="st0" points="216.4,272.8 239.4,286.1 239.4,245.1 216.4,231.8 			"/>
			<path class="st1" d="M239.4,287.1c-0.2,0-0.3-0.1-0.5-0.1l-23-13.3c-0.3-0.2-0.5-0.5-0.5-0.9v-41c0-0.4,0.2-0.7,0.5-0.9
				c0.3-0.2,0.7-0.2,1,0l23,13.3c0.3,0.2,0.5,0.5,0.5,0.9v41c0,0.4-0.2,0.7-0.5,0.9C239.8,287.1,239.6,287.1,239.4,287.1z
				 M217.4,272.2l21,12.1v-38.8l-21-12.1L217.4,272.2z"/>
			<polygon class="st0" points="216.4,231.8 239.4,218.5 262.4,231.8 239.4,245.1 			"/>
			<path class="st1" d="M239.4,246.1c-0.2,0-0.3,0-0.5-0.1l-23-13.3c-0.3-0.2-0.5-0.5-0.5-0.9c0-0.4,0.2-0.7,0.5-0.9l23-13.3
				c0.3-0.2,0.7-0.2,1,0l23,13.3c0.3,0.2,0.5,0.5,0.5,0.9c0,0.4-0.2,0.7-0.5,0.9l-23,13.3C239.8,246,239.6,246.1,239.4,246.1z
				 M218.4,231.8l21,12.1l21-12.1l-21-12.1L218.4,231.8z"/>
			<polygon class="st0" points="262.7,137.6 285.7,124.3 285.7,111.1 262.7,124.4 			"/>
			<path class="st1" d="M262.7,138.6c-0.2,0-0.3,0-0.5-0.1c-0.3-0.2-0.5-0.5-0.5-0.9v-13.2c0-0.4,0.2-0.7,0.5-0.9l23-13.3
				c0.5-0.2,1.1,0,1.4,0.5c0.1,0.1,0.1,0.2,0.1,0.4v13.2c0,0.4-0.2,0.7-0.5,0.9l-23,13.3C263,138.5,262.8,138.6,262.7,138.6z
				 M263.7,125v10.9l21-12.1v-10.9L263.7,125z"/>
			<polygon class="st0" points="239.7,124.3 262.7,137.6 262.7,124.4 239.7,111.1 			"/>
			<path class="st1" d="M262.7,138.6c-0.2,0-0.3,0-0.5-0.1l-23-13.3c-0.3-0.2-0.5-0.5-0.5-0.9v-13.2c0-0.4,0.2-0.7,0.5-0.9
				c0.3-0.2,0.7-0.2,1,0l23,13.3c0.3,0.2,0.5,0.5,0.5,0.9v13.2c0,0.4-0.2,0.7-0.5,0.9C263,138.5,262.8,138.6,262.7,138.6z
				 M240.7,123.7l21,12.1V125l-21-12.1V123.7z"/>
			<polygon class="st0" points="239.7,111.1 262.7,97.8 285.7,111.1 262.7,124.4 			"/>
			<path class="st1" d="M262.7,125.4c-0.2,0-0.3-0.1-0.5-0.1l-23-13.3c-0.3-0.2-0.5-0.5-0.5-0.9c0-0.4,0.2-0.7,0.5-0.9l23-13.3
				c0.3-0.2,0.7-0.2,1,0l23,13.3c0.3,0.2,0.5,0.5,0.5,0.9c0,0.4-0.2,0.7-0.5,0.9l-23,13.3C263,125.3,262.8,125.4,262.7,125.4z
				 M241.6,111.1l21,12.1l21-12.1l-21-12.1L241.6,111.1z"/>
			<polygon class="st0" points="170.7,99 193.7,85.8 193.7,72.6 170.7,85.8 			"/>
			<path class="st1" d="M170.7,100c-0.2,0-0.3,0-0.5-0.1c-0.3-0.2-0.5-0.5-0.5-0.9V85.8c0-0.4,0.2-0.7,0.5-0.9l23-13.3
				c0.3-0.2,0.7-0.2,1,0c0.3,0.2,0.5,0.5,0.5,0.9v13.2c0,0.4-0.2,0.7-0.5,0.9l-23,13.3C171.1,100,170.9,100,170.7,100z M171.8,86.4
				v10.9l21-12.1V74.2L171.8,86.4z"/>
			<polygon class="st0" points="147.7,85.8 170.7,99 170.7,85.8 147.7,72.6 			"/>
			<path class="st1" d="M170.7,100c-0.2,0-0.3,0-0.5-0.1l-23-13.3c-0.3-0.2-0.5-0.5-0.5-0.9V72.6c0-0.6,0.5-1,1.1-1
				c0.1,0,0.3,0,0.4,0.1l23,13.3c0.3,0.2,0.5,0.5,0.5,0.9V99c0,0.4-0.2,0.7-0.5,0.9C171.1,100,170.9,100,170.7,100z M148.7,85.2
				l21,12.1V86.4l-21-12.2V85.2z"/>
			<polygon class="st0" points="147.7,72.6 170.7,59.3 193.7,72.6 170.7,85.8 			"/>
			<path class="st1" d="M170.7,86.8c-0.2,0-0.3,0-0.5-0.1l-23-13.3c-0.3-0.2-0.5-0.5-0.5-0.9c0-0.4,0.2-0.7,0.5-0.9l23-13.3
				c0.3-0.2,0.7-0.2,1,0l23,13.3c0.3,0.2,0.5,0.5,0.5,0.9c0,0.4-0.2,0.7-0.5,0.9l-23,13.3C171.1,86.8,170.9,86.8,170.7,86.8z
				 M149.7,72.6l21,12.2l21-12.1l-21-12.2L149.7,72.6z"/>
			<polygon class="st0" points="147.7,150.5 170.7,137.2 170.7,124 147.7,137.3 			"/>
			<path class="st1" d="M147.7,151.5c-0.2,0-0.3,0-0.5-0.1c-0.3-0.2-0.5-0.5-0.5-0.9v-13.2c0-0.4,0.2-0.7,0.5-0.9l23-13.3
				c0.3-0.2,0.7-0.2,1,0c0.3,0.2,0.5,0.5,0.5,0.9v13.2c0,0.4-0.2,0.7-0.5,0.9l-23,13.3C148.1,151.4,147.9,151.5,147.7,151.5z
				 M148.7,137.9v10.9l21-12.1v-10.9L148.7,137.9z"/>
			<polygon class="st0" points="124.7,137.2 147.7,150.5 147.7,137.3 124.7,124 			"/>
			<path class="st1" d="M147.7,151.5c-0.2,0-0.3,0-0.5-0.1l-23-13.3c-0.3-0.2-0.5-0.5-0.5-0.9V124c0-0.4,0.2-0.7,0.5-0.9
				c0.3-0.2,0.7-0.2,1,0l23,13.3c0.3,0.2,0.5,0.5,0.5,0.9v13.2c0,0.4-0.2,0.7-0.5,0.9C148,151.4,147.9,151.5,147.7,151.5z
				 M125.7,136.6l21,12.1v-10.9l-21-12.1L125.7,136.6z"/>
			<polygon class="st0" points="124.7,124 147.7,110.7 170.7,124 147.7,137.3 			"/>
			<path class="st1" d="M147.7,138.3c-0.2,0-0.3,0-0.5-0.1l-23-13.3c-0.3-0.2-0.5-0.5-0.5-0.9c0-0.4,0.2-0.7,0.5-0.9l23-13.3
				c0.3-0.2,0.7-0.2,1,0l23,13.3c0.3,0.2,0.5,0.5,0.5,0.9c0,0.4-0.2,0.7-0.5,0.9l-23,13.3C148.1,138.2,147.9,138.3,147.7,138.3z
				 M126.7,124l21,12.1l21-12.1l-21-12.1L126.7,124z"/>
			<polygon class="st0" points="262.7,114.1 285.7,100.8 285.7,87.6 262.7,100.9 			"/>
			<path class="st2" d="M262.7,115.1c-0.2,0-0.3-0.1-0.5-0.1c-0.3-0.2-0.5-0.5-0.5-0.9v-13.2c0-0.4,0.2-0.7,0.5-0.9l23-13.3
				c0.5-0.2,1.1,0,1.4,0.5c0.1,0.1,0.1,0.2,0.1,0.4v13.2c0,0.4-0.2,0.7-0.5,0.9l-23,13.3C263,115.1,262.8,115.1,262.7,115.1z
				 M263.7,101.5v10.9l21-12.1V89.3L263.7,101.5z"/>
			<polygon class="st0" points="239.7,100.8 262.7,114.1 262.7,100.9 239.7,87.6 			"/>
			<path class="st2" d="M262.7,115.1c-0.2,0-0.3-0.1-0.5-0.1l-23-13.3c-0.3-0.2-0.5-0.5-0.5-0.9V87.6c0-0.4,0.2-0.7,0.5-0.9
				c0.3-0.2,0.7-0.2,1,0l23,13.3c0.3,0.2,0.5,0.5,0.5,0.9v13.2c0,0.4-0.2,0.7-0.5,0.9C263,115.1,262.8,115.1,262.7,115.1z
				 M240.7,100.3l21,12.1v-11l-21-12.1V100.3z"/>
			<polygon class="st0" points="239.7,87.6 262.7,74.3 285.7,87.6 262.7,100.9 			"/>
			<path class="st2" d="M262.7,101.9c-0.2,0-0.3,0-0.5-0.1l-23-13.3c-0.3-0.2-0.5-0.5-0.5-0.9c0-0.4,0.2-0.7,0.5-0.9l23-13.3
				c0.3-0.2,0.7-0.2,1,0l23,13.3c0.3,0.2,0.5,0.5,0.5,0.9c0,0.4-0.2,0.7-0.5,0.9l-23,13.3C263,101.9,262.8,101.9,262.7,101.9z
				 M241.6,87.6l21,12.1l21-12.1l-21-12.1L241.6,87.6z"/>
			<polygon class="st0" points="239.3,233.9 262.3,220.7 262.3,207.5 239.3,220.7 			"/>
			<path class="st1" d="M239.3,234.9c-0.2,0-0.3,0-0.5-0.1c-0.3-0.2-0.5-0.5-0.5-0.9v-13.2c0-0.4,0.2-0.7,0.5-0.9l23-13.3
				c0.5-0.2,1.1,0,1.4,0.5c0.1,0.1,0.1,0.2,0.1,0.4v13.2c0,0.4-0.2,0.7-0.5,0.9l-23,13.3C239.6,234.9,239.4,234.9,239.3,234.9z
				 M240.3,221.3v10.8l21-12.1v-10.9L240.3,221.3z"/>
			<polygon class="st0" points="216.2,220.7 239.3,233.9 239.3,220.7 216.2,207.5 			"/>
			<path class="st1" d="M239.3,234.9c-0.2,0-0.3,0-0.5-0.1l-23-13.3c-0.3-0.2-0.5-0.5-0.5-0.9v-13.2c0-0.6,0.5-1,1.1-1
				c0.1,0,0.3,0,0.4,0.1l23,13.3c0.3,0.2,0.5,0.5,0.5,0.9v13.2c0,0.4-0.2,0.7-0.5,0.9C239.6,234.9,239.4,234.9,239.3,234.9z
				 M217.3,220.1l21,12.1v-10.9l-21-12.1L217.3,220.1z"/>
			<polygon class="st0" points="216.2,207.5 239.3,194.2 262.3,207.5 239.3,220.7 			"/>
			<path class="st1" d="M239.3,221.7c-0.2,0-0.3,0-0.5-0.1l-23-13.3c-0.3-0.2-0.5-0.5-0.5-0.9c0-0.4,0.2-0.7,0.5-0.9l23-13.3
				c0.3-0.2,0.7-0.2,1,0l23,13.3c0.3,0.2,0.5,0.5,0.5,0.9c0,0.4-0.2,0.7-0.5,0.9l-23,13.3C239.6,221.7,239.5,221.7,239.3,221.7z
				 M218.2,207.5l21,12.1l21-12.1l-21-12.1L218.2,207.5z"/>
			<polygon class="st0" points="239.3,210.5 262.3,197.2 262.3,184 239.3,197.3 			"/>
			<path class="st1" d="M239.3,211.5c-0.2,0-0.3,0-0.5-0.1c-0.3-0.2-0.5-0.5-0.5-0.9v-13.2c0-0.4,0.2-0.7,0.5-0.9l23-13.3
				c0.5-0.2,1.1,0,1.4,0.5c0.1,0.1,0.1,0.2,0.1,0.4v13.2c0,0.4-0.2,0.7-0.5,0.9l-23,13.3C239.6,211.4,239.4,211.5,239.3,211.5z
				 M240.3,197.9v10.9l21-12.1v-10.9L240.3,197.9z"/>
			<polygon class="st0" points="216.2,197.2 239.3,210.5 239.3,197.3 216.2,184 			"/>
			<path class="st1" d="M239.3,211.5c-0.2,0-0.3,0-0.5-0.1l-23-13.3c-0.3-0.2-0.5-0.5-0.5-0.9V184c0-0.6,0.5-1,1.1-1
				c0.1,0,0.3,0,0.4,0.1l23,13.3c0.3,0.2,0.5,0.5,0.5,0.9v13.2c0,0.4-0.2,0.7-0.5,0.9C239.6,211.4,239.4,211.5,239.3,211.5z
				 M217.3,196.6l21,12.1v-10.9l-21-12.1V196.6z"/>
			<polygon class="st0" points="216.2,184 239.3,170.7 262.3,184 239.3,197.3 			"/>
			<path class="st1" d="M239.3,198.3c-0.2,0-0.3,0-0.5-0.1l-23-13.3c-0.5-0.3-0.6-0.9-0.4-1.4c0.1-0.2,0.2-0.3,0.4-0.4l23-13.3
				c0.3-0.2,0.7-0.2,1,0l23,13.3c0.5,0.3,0.6,0.9,0.4,1.4c-0.1,0.2-0.2,0.3-0.4,0.4l-23,13.3C239.6,198.2,239.5,198.3,239.3,198.3z
				 M218.2,184l21,12.1l21-12.1l-21-12.1L218.2,184z"/>
			<polygon class="st0" points="170.4,247.7 193.4,234.4 193.4,221.2 170.4,234.5 			"/>
			<path class="st1" d="M170.4,248.7c-0.2,0-0.4,0-0.5-0.1c-0.3-0.2-0.5-0.5-0.5-0.9v-13.2c0-0.4,0.2-0.7,0.5-0.9l23-13.3
				c0.3-0.2,0.7-0.2,1,0c0.3,0.2,0.5,0.5,0.5,0.9v13.2c0,0.4-0.2,0.7-0.5,0.9l-23,13.3C170.7,248.7,170.6,248.7,170.4,248.7z
				 M171.4,235.1V246l20.9-12.2V223L171.4,235.1z"/>
			<polygon class="st0" points="147.4,234.4 170.4,247.7 170.4,234.5 147.4,221.2 			"/>
			<path class="st1" d="M170.4,248.7c-0.2,0-0.4,0-0.5-0.1l-23-13.3c-0.3-0.2-0.5-0.5-0.5-0.9v-13.2c0-0.6,0.5-1,1.1-1
				c0.1,0,0.3,0,0.4,0.1l23,13.3c0.3,0.2,0.5,0.5,0.5,0.9v13.2c0,0.4-0.2,0.7-0.5,0.9C170.7,248.7,170.6,248.7,170.4,248.7z
				 M148.3,233.9l21,12.1v-10.9l-21-12.1L148.3,233.9z"/>
			<polygon class="st0" points="147.4,221.2 170.4,208 193.4,221.2 170.4,234.5 			"/>
			<path class="st1" d="M170.4,235.5c-0.2,0-0.3,0-0.5-0.1l-23-13.3c-0.3-0.2-0.5-0.5-0.5-0.9c0-0.4,0.2-0.7,0.5-0.9l23-13.3
				c0.3-0.2,0.7-0.2,1,0l23,13.3c0.3,0.2,0.5,0.5,0.5,0.9c0,0.4-0.2,0.7-0.5,0.9l-23,13.3C170.8,235.5,170.6,235.5,170.4,235.5z
				 M149.3,221.2l21.1,12.1l21-12.1l-21-12.1L149.3,221.2z"/>
			<polygon class="st0" points="193.7,178.7 216.7,165.4 216.7,152.2 193.7,165.5 			"/>
			<path class="st1" d="M193.7,179.6c-0.2,0-0.3,0-0.5-0.1c-0.3-0.2-0.5-0.5-0.5-0.9v-13.2c0-0.4,0.2-0.7,0.5-0.9l23-13.3
				c0.3-0.2,0.7-0.2,1,0c0.3,0.2,0.5,0.5,0.5,0.9v13.2c0,0.4-0.2,0.7-0.5,0.9l-23,13.3C194.1,179.6,193.9,179.7,193.7,179.6z
				 M194.8,166.1V177l21-12.1v-10.9L194.8,166.1z"/>
			<polygon class="st0" points="170.7,165.4 193.7,178.7 193.7,165.5 170.7,152.2 			"/>
			<path class="st1" d="M193.7,179.6c-0.2,0-0.3,0-0.5-0.1l-23-13.3c-0.3-0.2-0.5-0.5-0.5-0.9v-13.2c0-0.4,0.2-0.7,0.5-0.9
				c0.3-0.2,0.7-0.2,1,0l23,13.3c0.3,0.2,0.5,0.5,0.5,0.9v13.2c0,0.4-0.2,0.7-0.5,0.9C194.1,179.6,193.9,179.7,193.7,179.6z
				 M171.8,164.8l21,12.1V166l-21-12.1V164.8z"/>
			<polygon class="st0" points="170.7,152.2 193.7,138.9 216.7,152.2 193.7,165.5 			"/>
			<path class="st1" d="M193.7,166.4c-0.2,0-0.3,0-0.5-0.1l-23-13.3c-0.3-0.2-0.5-0.5-0.5-0.9c0-0.4,0.2-0.7,0.5-0.9l23-13.3
				c0.3-0.2,0.7-0.2,1,0l23,13.3c0.3,0.2,0.5,0.5,0.5,0.9c0,0.4-0.2,0.7-0.5,0.9l-23,13.3C194.1,166.4,193.9,166.5,193.7,166.4z
				 M172.7,152.2l21,12.1l21-12.1l-21-12.1L172.7,152.2z"/>
			<polygon class="st0" points="216.4,97.8 239.4,84.5 239.4,71.3 216.4,84.6 			"/>
			<path class="st1" d="M216.4,98.8c-0.2,0-0.3,0-0.5-0.1c-0.3-0.2-0.5-0.5-0.5-0.9V84.6c0-0.4,0.2-0.7,0.5-0.9l23-13.3
				c0.3-0.2,0.7-0.2,1,0c0.3,0.2,0.5,0.5,0.5,0.9v13.2c0,0.4-0.2,0.7-0.5,0.9l-23,13.3C216.8,98.8,216.6,98.8,216.4,98.8z
				 M217.4,85.2v10.9l21-12.1V73L217.4,85.2z"/>
			<polygon class="st0" points="193.4,84.5 216.4,97.8 216.4,84.6 193.4,71.3 			"/>
			<path class="st1" d="M216.4,98.8c-0.2,0-0.3,0-0.5-0.1l-23-13.3c-0.3-0.2-0.5-0.5-0.5-0.9V71.3c0-0.4,0.2-0.7,0.5-0.9
				c0.3-0.2,0.7-0.2,1,0l23,13.3c0.3,0.2,0.5,0.5,0.5,0.9v13.2c0,0.4-0.2,0.7-0.5,0.9C216.8,98.8,216.6,98.8,216.4,98.8z
				 M194.4,83.9l21,12.1V85.2l-21-12.1V83.9z"/>
			<polygon class="st0" points="193.4,71.3 216.4,58 239.4,71.3 216.4,84.6 			"/>
			<path class="st1" d="M216.4,85.6c-0.2,0-0.4,0-0.5-0.1l-23-13.3c-0.5-0.3-0.6-0.9-0.4-1.4c0.1-0.2,0.2-0.3,0.4-0.4l23-13.3
				c0.3-0.2,0.7-0.2,1,0l23,13.3c0.5,0.3,0.6,0.9,0.4,1.4c-0.1,0.2-0.2,0.3-0.4,0.4l-23,13.3C216.8,85.6,216.6,85.6,216.4,85.6z
				 M195.4,71.3l21,12.1l21-12.1l-21-12.1L195.4,71.3z"/>
			<polygon class="st0" points="216.4,74.3 239.4,61 239.4,47.8 216.4,61.1 			"/>
			<path class="st1" d="M216.4,75.3c-0.2,0-0.3,0-0.5-0.1c-0.3-0.2-0.5-0.5-0.5-0.9V61.1c0-0.4,0.2-0.7,0.5-0.9l23-13.3
				c0.3-0.2,0.7-0.2,1,0c0.3,0.2,0.5,0.5,0.5,0.9V61c0,0.4-0.2,0.7-0.5,0.9l-23,13.3C216.8,75.3,216.6,75.3,216.4,75.3z M217.4,61.7
				v10.9l21-12.1V49.6L217.4,61.7z"/>
			<polygon class="st0" points="193.4,61 216.4,74.3 216.4,61.1 193.4,47.8 			"/>
			<path class="st1" d="M216.4,75.3c-0.2,0-0.3,0-0.5-0.1l-23-13.3c-0.3-0.2-0.5-0.5-0.5-0.9V47.8c0-0.4,0.2-0.7,0.5-0.9
				c0.3-0.2,0.7-0.2,1,0l23,13.3c0.3,0.2,0.5,0.5,0.5,0.9v13.2c0,0.4-0.2,0.7-0.5,0.9C216.8,75.3,216.6,75.3,216.4,75.3z
				 M194.4,60.4l21,12.2V61.7l-21-12.1L194.4,60.4z"/>
			<polygon class="st0" points="193.4,47.8 216.4,34.6 239.4,47.8 216.4,61.1 			"/>
			<path class="st1" d="M216.4,62.1c-0.2,0-0.4,0-0.5-0.1l-23-13.3c-0.3-0.2-0.5-0.5-0.5-0.9c0-0.4,0.2-0.7,0.5-0.9l23-13.3
				c0.3-0.2,0.7-0.2,1,0L240,47c0.3,0.2,0.5,0.5,0.5,0.9c0,0.4-0.2,0.7-0.5,0.9L217,62C216.8,62.1,216.6,62.1,216.4,62.1z
				 M195.4,47.8l21,12.1l21-12.1l-21-12.1L195.4,47.8z"/>
			<polygon class="st0" points="170.4,74.3 193.4,61 193.4,47.8 170.4,61.1 			"/>
			<path class="st2" d="M170.4,75.3c-0.2,0-0.3,0-0.5-0.1c-0.3-0.2-0.5-0.5-0.5-0.9V61.1c0-0.4,0.2-0.7,0.5-0.9l23-13.3
				c0.5-0.3,1.1-0.1,1.4,0.4c0.1,0.1,0.1,0.3,0.1,0.5V61c0,0.4-0.2,0.7-0.5,0.9l-23,13.3C170.7,75.3,170.6,75.3,170.4,75.3z
				 M171.4,61.7v10.9l20.9-12.1V49.6L171.4,61.7z"/>
			<polygon class="st0" points="147.4,61 170.4,74.3 170.4,61.1 147.4,47.8 			"/>
			<path class="st2" d="M170.4,75.3c-0.2,0-0.3,0-0.5-0.1l-23-13.3c-0.3-0.2-0.5-0.5-0.5-0.9V47.8c0-0.4,0.2-0.7,0.5-0.9
				c0.3-0.2,0.7-0.2,1,0l23,13.3c0.3,0.2,0.5,0.5,0.5,0.9v13.2c0,0.4-0.2,0.7-0.5,0.9C170.8,75.3,170.6,75.3,170.4,75.3z
				 M148.3,60.5l21,12.1V61.7l-21-12.1V60.5z"/>
			<polygon class="st0" points="147.4,47.8 170.4,34.6 193.4,47.8 170.4,61.1 			"/>
			<path class="st2" d="M170.4,62.1c-0.2,0-0.4,0-0.5-0.1l-23-13.3c-0.3-0.2-0.5-0.5-0.5-0.9c0-0.4,0.2-0.7,0.5-0.9l23-13.3
				c0.3-0.2,0.7-0.2,1,0l23,13.3c0.3,0.2,0.5,0.5,0.5,0.9c0,0.4-0.2,0.7-0.5,0.9l-23,13.3C170.8,62.1,170.6,62.1,170.4,62.1z
				 M149.3,47.8L170.4,60l21-12.1l-21-12.1L149.3,47.8z"/>
			<polygon class="st0" points="216.4,50.2 239.4,36.9 239.4,23.7 216.4,37 			"/>
			<path class="st2" d="M216.4,51.2c-0.2,0-0.4,0-0.5-0.1c-0.3-0.2-0.5-0.5-0.5-0.8V37c0-0.4,0.2-0.7,0.5-0.9l23-13.3
				c0.3-0.2,0.7-0.2,1,0c0.3,0.2,0.5,0.5,0.5,0.9v13.2c0,0.4-0.2,0.7-0.5,0.9l-23,13.3C216.7,51.1,216.6,51.2,216.4,51.2z
				 M217.4,37.6v10.9l21-12.1V25.4L217.4,37.6z"/>
			<polygon class="st0" points="193.4,36.9 216.4,50.2 216.4,37 193.4,23.7 			"/>
			<path class="st2" d="M216.4,51.2c-0.2,0-0.4,0-0.5-0.1l-23-13.3c-0.3-0.2-0.5-0.5-0.5-0.9V23.7c0-0.6,0.5-1,1.1-1
				c0.1,0,0.3,0,0.4,0.1l23,13.3c0.3,0.2,0.5,0.5,0.5,0.9v13.2c0,0.4-0.2,0.7-0.5,0.9C216.8,51.1,216.6,51.2,216.4,51.2z
				 M194.4,36.3l21,12.1V37.5l-21-12.1L194.4,36.3z"/>
			<polygon class="st0" points="193.4,23.7 216.4,10.4 239.4,23.7 216.4,37 			"/>
			<path class="st2" d="M216.4,38c-0.2,0-0.3,0-0.5-0.1l-23-13.3c-0.3-0.2-0.5-0.5-0.5-0.9c0-0.4,0.2-0.7,0.5-0.9l23-13.3
				c0.3-0.2,0.7-0.2,1,0l23,13.3c0.3,0.2,0.5,0.5,0.5,0.9c0,0.4-0.2,0.7-0.5,0.9l-23,13.3C216.8,37.9,216.6,38,216.4,38z
				 M195.4,23.7l21,12.1l21-12.1l-21-12.1L195.4,23.7z"/>
			<polygon class="st0" points="101.3,258.7 124.3,245.4 124.3,204.4 101.3,217.7 			"/>
			<path class="st1" d="M101.4,259.7c-0.2,0-0.3,0-0.5-0.1c-0.3-0.2-0.5-0.5-0.5-0.9v-41c0-0.4,0.2-0.7,0.5-0.9l23-13.3
				c0.3-0.2,0.7-0.2,1,0c0.3,0.2,0.5,0.5,0.5,0.9v41.1c0,0.4-0.2,0.7-0.5,0.9l-23,13.3C101.7,259.7,101.5,259.7,101.4,259.7z
				 M102.4,218.3V257l21-12.1v-38.8L102.4,218.3z"/>
			<polygon class="st0" points="78.3,245.4 101.3,258.7 101.3,217.7 78.3,204.4 			"/>
			<path class="st1" d="M101.4,259.7c-0.2,0-0.3,0-0.5-0.1l-23-13.3c-0.3-0.2-0.5-0.5-0.5-0.9v-41.1c0-0.4,0.2-0.7,0.5-0.9
				c0.3-0.2,0.7-0.2,1,0l23,13.3c0.3,0.2,0.5,0.5,0.5,0.9v41c0,0.4-0.2,0.7-0.5,0.9C101.7,259.7,101.6,259.7,101.4,259.7z
				 M79.3,244.9l21,12.1v-38.7l-21-12.2V244.9z"/>
			<polygon class="st0" points="78.3,204.4 101.3,191.1 124.3,204.4 101.3,217.7 			"/>
			<path class="st1" d="M101.4,218.7c-0.2,0-0.4,0-0.5-0.1l-23-13.3c-0.3-0.2-0.5-0.5-0.5-0.9c0-0.4,0.2-0.7,0.5-0.9l23-13.3
				c0.3-0.2,0.7-0.2,1,0l23,13.3c0.3,0.2,0.5,0.5,0.5,0.9c0,0.4-0.2,0.7-0.5,0.9l-23,13.3C101.7,218.6,101.5,218.7,101.4,218.7z
				 M80.3,204.4l21.1,12.1l21-12.1l-21-12.1L80.3,204.4z"/>
			<polygon class="st0" points="101.3,204.2 124.3,190.9 124.3,177.7 101.3,191 			"/>
			<path class="st1" d="M101.4,205.2c-0.2,0-0.3,0-0.5-0.1c-0.3-0.2-0.5-0.5-0.5-0.9V191c0-0.4,0.2-0.7,0.5-0.9l23-13.3
				c0.3-0.2,0.7-0.2,1,0c0.3,0.2,0.5,0.5,0.5,0.9v13.2c0,0.4-0.2,0.7-0.5,0.9l-23,13.3C101.7,205.1,101.5,205.2,101.4,205.2z
				 M102.4,191.6v10.9l21-12.1v-10.9L102.4,191.6z"/>
			<polygon class="st0" points="78.3,190.9 101.3,204.2 101.3,191 78.3,177.7 			"/>
			<path class="st1" d="M101.4,205.2c-0.2,0-0.3,0-0.5-0.1l-23-13.3c-0.3-0.2-0.5-0.5-0.5-0.9v-13.2c0-0.4,0.2-0.7,0.5-0.9
				c0.3-0.2,0.7-0.2,1,0l23,13.3c0.3,0.2,0.5,0.5,0.5,0.9v13.2c0,0.4-0.2,0.7-0.5,0.9C101.7,205.1,101.6,205.2,101.4,205.2z
				 M79.3,190.3l21,12.1v-10.9l-21-12.1V190.3z"/>
			<polygon class="st0" points="78.3,177.7 101.3,164.4 124.3,177.7 101.3,191 			"/>
			<path class="st1" d="M101.4,192c-0.2,0-0.4,0-0.5-0.1l-23-13.3c-0.3-0.2-0.5-0.5-0.5-0.9c0-0.4,0.2-0.7,0.5-0.9l23-13.3
				c0.3-0.2,0.7-0.2,1,0l23,13.3c0.3,0.2,0.5,0.5,0.5,0.9c0,0.4-0.2,0.7-0.5,0.9l-23,13.3C101.7,191.9,101.5,192,101.4,192z
				 M80.3,177.7l21.1,12.1l21-12.1l-21-12.1L80.3,177.7z"/>
			<polygon class="st0" points="101.3,180.7 124.3,167.4 124.3,154.2 101.3,167.5 			"/>
			<path class="st1" d="M101.4,181.7c-0.2,0-0.4,0-0.5-0.1c-0.3-0.2-0.5-0.5-0.5-0.9v-13.2c0-0.4,0.2-0.7,0.5-0.9l23-13.3
				c0.3-0.2,0.7-0.2,1,0c0.3,0.2,0.5,0.5,0.5,0.9v13.2c0,0.4-0.2,0.7-0.5,0.9l-23,13.3C101.7,181.7,101.5,181.7,101.4,181.7z
				 M102.4,168.1V179l21-12.2v-10.9L102.4,168.1z"/>
			<polygon class="st0" points="78.3,167.4 101.3,180.7 101.3,167.5 78.3,154.2 			"/>
			<path class="st1" d="M101.4,181.7c-0.2,0-0.4,0-0.5-0.1l-23-13.3c-0.3-0.2-0.5-0.5-0.5-0.9v-13.2c0-0.4,0.2-0.7,0.5-0.9
				c0.3-0.2,0.7-0.2,1,0l23,13.3c0.3,0.2,0.5,0.5,0.5,0.9v13.2c0,0.4-0.2,0.7-0.5,0.9C101.7,181.7,101.6,181.7,101.4,181.7z
				 M79.3,166.8l21,12.1v-10.9l-21-12.1V166.8z"/>
			<polygon class="st0" points="78.3,154.2 101.3,140.9 124.3,154.2 101.3,167.5 			"/>
			<path class="st1" d="M101.4,168.5c-0.2,0-0.4,0-0.5-0.1l-23-13.3c-0.3-0.2-0.5-0.5-0.5-0.9c0-0.4,0.2-0.7,0.5-0.9l23-13.3
				c0.3-0.2,0.7-0.2,1,0l23,13.3c0.3,0.2,0.5,0.5,0.5,0.9c0,0.4-0.2,0.7-0.5,0.9l-23,13.3C101.7,168.5,101.5,168.5,101.4,168.5z
				 M80.3,154.2l21.1,12.1l21-12.1l-21-12.1L80.3,154.2z"/>
		</g>
	</g>
</g>
</svg>
