<svg xmlns="http://www.w3.org/2000/svg" viewBox="0 0 366.66 306.68"><defs><style>.cls-1{isolation:isolate;}.cls-2,.cls-21,.cls-22,.cls-24,.cls-26,.cls-27,.cls-28,.cls-30,.cls-7{fill:#045473;}.cls-17,.cls-2,.cls-24,.cls-28,.cls-29,.cls-30,.cls-5,.cls-6,.cls-7{stroke:#47a5b5;}.cls-16,.cls-17,.cls-2,.cls-20,.cls-21,.cls-22,.cls-24,.cls-28,.cls-29,.cls-30{stroke-linecap:round;stroke-linejoin:round;}.cls-16,.cls-17,.cls-2,.cls-20,.cls-21,.cls-22,.cls-24,.cls-29,.cls-30,.cls-5,.cls-6,.cls-7{stroke-width:2px;}.cls-3{opacity:0.7;}.cls-4{opacity:0.15;}.cls-5{fill:#044b66;}.cls-13,.cls-5,.cls-6,.cls-7{stroke-miterlimit:10;}.cls-21,.cls-24,.cls-26,.cls-29,.cls-5,.cls-7{fill-rule:evenodd;}.cls-6{fill:#055f82;}.cls-8{opacity:0.3;}.cls-9{opacity:0.4;}.cls-10,.cls-13,.cls-23{opacity:0.5;}.cls-11{opacity:0.6;}.cls-12{opacity:0.8;}.cls-13,.cls-15{fill:#337782;}.cls-13,.cls-16{stroke:#337782;}.cls-14,.cls-23{fill:#47a5b5;}.cls-16,.cls-17,.cls-20,.cls-29{fill:none;}.cls-18,.cls-19{fill:#83e1e5;}.cls-18{opacity:0.2;}.cls-20,.cls-21,.cls-22{stroke:#b57947;}.cls-25{fill:#b57947;}.cls-30{mix-blend-mode:screen;}</style></defs><title>2_ai_platform</title><g class="cls-1"><g id="Layer_2" data-name="Layer 2"><g id="pic"><line class="cls-2" x1="308.33" y1="213.24" x2="289.3" y2="225.35"/><line class="cls-2" x1="349.84" y1="234" x2="250.38" y2="182.97"/><g class="cls-3"><g class="cls-4"><polygon class="cls-5" points="2.01 122.09 23.43 134.22 23.5 167.75 2.08 155.62 2.01 122.09"/><polygon class="cls-6" points="2.01 122.09 28.95 106.54 50.37 118.67 23.43 134.22 2.01 122.09"/><polygon class="cls-7" points="23.43 134.22 50.37 118.67 50.44 152.2 23.5 167.75 23.43 134.22"/></g><g class="cls-8"><polygon class="cls-5" points="29.6 139.24 51.02 151.38 51.08 184.9 29.66 172.77 29.6 139.24"/><polygon class="cls-6" points="29.6 139.24 56.54 123.69 77.96 135.82 51.02 151.38 29.6 139.24"/><polygon class="cls-7" points="51.02 151.38 77.96 135.82 78.02 169.35 51.08 184.9 51.02 151.38"/></g><g class="cls-9"><polygon class="cls-5" points="57.18 156.39 78.6 168.53 78.67 202.05 57.25 189.92 57.18 156.39"/><polygon class="cls-6" points="57.18 156.39 84.12 140.84 105.54 152.97 78.6 168.53 57.18 156.39"/><polygon class="cls-7" points="78.6 168.53 105.54 152.97 105.6 186.5 78.67 202.05 78.6 168.53"/></g><g class="cls-10"><polygon class="cls-5" points="84.77 173.54 106.18 185.68 106.25 219.2 84.83 207.07 84.77 173.54"/><polygon class="cls-6" points="84.77 173.54 111.7 157.99 133.12 170.12 106.18 185.68 84.77 173.54"/><polygon class="cls-7" points="106.18 185.68 133.12 170.12 133.19 203.65 106.25 219.2 106.18 185.68"/></g><g class="cls-11"><polygon class="cls-5" points="112.35 190.7 133.77 202.83 133.83 236.35 112.41 224.22 112.35 190.7"/><polygon class="cls-6" points="112.35 190.7 139.29 175.14 160.71 187.27 133.77 202.83 112.35 190.7"/><polygon class="cls-7" points="133.77 202.83 160.71 187.27 160.77 220.8 133.83 236.35 133.77 202.83"/></g><g class="cls-12"><polygon class="cls-5" points="139.93 207.85 161.35 219.98 161.42 253.5 140 241.37 139.93 207.85"/><polygon class="cls-6" points="139.93 207.85 166.87 192.29 188.29 204.43 161.35 219.98 139.93 207.85"/><polygon class="cls-7" points="161.35 219.98 188.29 204.43 188.35 237.95 161.42 253.5 161.35 219.98"/></g><polygon class="cls-5" points="167.51 225 188.93 237.13 189 270.65 167.58 258.52 167.51 225"/><polygon class="cls-6" points="167.51 225 194.45 209.44 215.87 221.58 188.93 237.13 167.51 225"/><polygon class="cls-7" points="188.93 237.13 215.87 221.58 215.94 255.1 189 270.65 188.93 237.13"/><polygon class="cls-5" points="195.1 242.15 216.52 254.28 216.58 287.8 195.16 275.67 195.1 242.15"/><polygon class="cls-6" points="195.1 242.15 222.04 226.59 243.46 238.73 216.52 254.28 195.1 242.15"/><polygon class="cls-7" points="216.52 254.28 243.46 238.73 243.52 272.25 216.58 287.8 216.52 254.28"/><polygon class="cls-5" points="222.68 259.3 244.1 271.43 244.17 304.95 222.75 292.82 222.68 259.3"/><polygon class="cls-6" points="222.68 259.3 249.62 243.75 271.04 255.88 244.1 271.43 222.68 259.3"/><polygon class="cls-7" points="244.1 271.43 271.04 255.88 271.11 289.4 244.17 304.95 244.1 271.43"/></g><polygon class="cls-13" points="330.66 107.56 299.92 89.81 324.35 75.71 355.09 93.45 330.66 107.56"/><path class="cls-14" d="M331.87,114.24l-.27-.16-43.24-25L323.15,69l.26.15,43.25,25ZM290.46,89.12,331.87,113l32.68-18.87-41.4-23.91Z"/><polygon class="cls-2" points="330.66 66.52 299.92 48.77 324.35 34.66 355.09 52.41 330.66 66.52"/><polygon class="cls-2" points="355.09 71.45 355.09 52.41 330.66 66.52 330.66 85.56 355.09 71.45"/><polygon class="cls-2" points="299.92 48.77 299.92 67.81 330.66 85.56 330.66 66.52 299.92 48.77"/><polygon class="cls-15" points="318.82 44.32 305.51 52 305.51 56.12 309.46 58.4 309.46 54.28 322.77 46.6 318.82 44.32"/><polygon class="cls-15" points="327.28 49.19 313.97 56.88 313.97 61 317.92 63.28 317.92 59.16 331.23 51.48 327.28 49.19"/><polygon class="cls-15" points="335.74 54.08 322.43 61.76 322.43 65.88 326.38 68.16 326.38 64.05 339.69 56.36 335.74 54.08"/><polyline class="cls-16" points="255.64 171.94 360.61 111.33 334.16 96.06"/><polyline class="cls-2" points="175.39 127.35 280.37 66.75 253.91 51.47"/><path class="cls-2" d="M157.92,13.19l-17.22-10h0c-2.57-1.53-6.14-1.34-10.09.95a22.5,22.5,0,0,0-3.73,2.73l-6.94-4h0c-3.81-2.68-9.32-2.56-15.46,1C96.71,8.33,89.94,17.15,86.36,26.49a8.47,8.47,0,0,0-3.91,1.24c-5.06,2.92-9.17,10-9.17,15.89,0,.13,0,.24,0,.37a11.11,11.11,0,0,0-4.72,1.58C62.09,49.31,56.83,58.41,56.83,65.9c0,3.7,1.3,6.32,3.39,7.56h0l.06,0h0l17,9.86L81,65.51l49.63-28.66c6.34-3.66,11.71-11.57,13.51-19.25Z"/><path class="cls-2" d="M57.3,66.3C57.3,58.82,62.55,49.71,69,46a11.06,11.06,0,0,1,4.72-1.58c0-.12,0-.24,0-.36,0-5.86,4.11-13,9.18-15.9a8.3,8.3,0,0,1,3.91-1.23c3.58-9.35,10.35-18.17,18.11-22.65,6.14-3.55,11.66-3.66,15.47-1h0l6.94,4a23,23,0,0,1,3.72-2.73c4-2.28,7.53-2.47,10.1-.94h0l16.6,9.65.15-.05-17.22-10h0c-2.57-1.53-6.14-1.34-10.09.95a22.5,22.5,0,0,0-3.73,2.73l-6.94-4h0c-3.81-2.68-9.32-2.56-15.46,1C96.71,8.33,89.94,17.15,86.36,26.49a8.47,8.47,0,0,0-3.91,1.24c-5.06,2.92-9.17,10-9.17,15.89,0,.13,0,.24,0,.37a11.11,11.11,0,0,0-4.72,1.58C62.09,49.31,56.83,58.41,56.83,65.9c0,3.36,1.08,5.82,2.84,7.17C58.19,71.66,57.3,69.36,57.3,66.3Z"/><path class="cls-2" d="M147.65,14a25.25,25.25,0,0,0-6.2,5.24c-2.6-8.36-10.54-10.95-19.93-5.53C113.76,18.22,107,27,103.41,36.39a8.3,8.3,0,0,0-3.91,1.23c-5.07,2.93-9.18,10-9.18,15.9,0,.12,0,.24,0,.36a11.06,11.06,0,0,0-4.72,1.58C79.13,59.2,73.88,68.31,73.88,75.79s5.25,10.52,11.74,6.78l62-35.82c7.83-4.52,14.17-15.51,14.17-24.54S155.48,9.51,147.65,14Z"/><polygon class="cls-2" points="100.62 82.33 116.66 73.07 116.66 65.95 100.62 75.22 100.62 82.33"/><polygon class="cls-2" points="100.62 75.22 116.66 65.95 100.62 56.69 84.57 65.95 100.62 75.22"/><polygon class="cls-2" points="84.57 73.07 100.62 82.33 100.62 75.22 84.57 65.95 84.57 73.07"/><polyline class="cls-17" points="113.02 71.04 120.86 77.32 121.53 82.74 121.53 87.69 194.73 130.85 202.48 135.43 201.3 138.97 195.91 141.11 151.99 117.85 133.14 106.05 116.66 96.91 112.05 93.36 111.75 85.84 111.16 81.27 103.71 76.48"/><path class="cls-17" d="M199,141.62l3.7-4.62.52-5.48V118.24l0-4.93,9.69,1.65v-4.51a1.22,1.22,0,0,1,2.44,0V129.1a8.81,8.81,0,0,1-4.46,7.71,8.63,8.63,0,0,1-1.55.71h0Z"/><polygon class="cls-18" points="97.23 78.92 98.87 79.86 98.87 76.58 97.23 75.63 97.23 78.92"/><polygon class="cls-18" points="94.5 77.34 96.14 78.29 96.14 75 94.5 74.05 94.5 77.34"/><polygon class="cls-18" points="91.78 75.77 93.41 76.72 93.41 73.42 91.78 72.48 91.78 75.77"/><polygon class="cls-19" points="89.05 74.19 90.69 75.14 90.69 71.85 89.05 70.91 89.05 74.19"/><polygon class="cls-19" points="86.32 72.62 87.96 73.56 87.96 70.28 86.32 69.33 86.32 72.62"/><polygon class="cls-2" points="126.41 67.38 142.45 58.12 142.45 51.01 126.41 60.27 126.41 67.38"/><polygon class="cls-2" points="126.41 60.27 142.45 51.01 126.41 41.74 110.36 51.01 126.41 60.27"/><polygon class="cls-2" points="110.36 58.12 126.41 67.38 126.41 60.27 110.36 51.01 110.36 58.12"/><polyline class="cls-20" points="138.81 56.09 146.65 62.37 147.31 67.8 147.31 72.74 220.52 115.91 228.27 120.48 227.09 124.02 221.7 126.16 214.25 123.95 195.41 112.15 142.45 81.96 137.83 78.42 137.54 70.89 136.95 66.32 129.5 61.53"/><path class="cls-17" d="M224.81,126.68l3.71-4.63.52-5.48V103.29l0-4.93,9.7,1.65V95.5a1.22,1.22,0,1,1,2.44,0v18.65a8.84,8.84,0,0,1-4.46,7.72,10.29,10.29,0,0,1-1.55.71h0Z"/><polygon class="cls-18" points="123.02 63.97 124.66 64.92 124.66 61.63 123.02 60.68 123.02 63.97"/><polygon class="cls-18" points="120.29 62.4 121.93 63.34 121.93 60.05 120.29 59.11 120.29 62.4"/><polygon class="cls-19" points="117.56 60.82 119.2 61.77 119.2 58.48 117.56 57.53 117.56 60.82"/><polygon class="cls-19" points="114.84 59.25 116.47 60.19 116.47 56.9 114.84 55.96 114.84 59.25"/><polygon class="cls-19" points="112.11 57.67 113.75 58.62 113.75 55.33 112.11 54.38 112.11 57.67"/><polygon class="cls-2" points="152.19 52.44 168.24 43.17 168.24 36.06 152.19 45.32 152.19 52.44"/><polygon class="cls-2" points="152.19 45.32 168.24 36.06 152.19 26.79 136.15 36.06 152.19 45.32"/><polygon class="cls-2" points="136.15 43.17 152.19 52.44 152.19 45.32 136.15 36.06 136.15 43.17"/><polyline class="cls-17" points="164.59 41.15 172.44 47.43 173.1 52.85 173.1 57.79 246.31 100.96 254.05 105.53 252.87 109.07 247.49 111.21 240.04 109 221.2 97.2 168.24 67.01 163.62 63.47 163.33 55.95 162.74 51.37 155.28 46.58"/><path class="cls-17" d="M250.6,111.73l3.7-4.63.53-5.48V88.35l0-4.94,9.7,1.65V80.55a1.22,1.22,0,1,1,2.43,0V99.2a8.82,8.82,0,0,1-4.45,7.72,9.12,9.12,0,0,1-1.56.71h0Z"/><polygon class="cls-18" points="148.81 49.02 150.44 49.97 150.44 46.68 148.81 45.73 148.81 49.02"/><polygon class="cls-19" points="146.08 47.45 147.72 48.4 147.72 45.1 146.08 44.16 146.08 47.45"/><polygon class="cls-19" points="143.35 45.87 144.99 46.82 144.99 43.53 143.35 42.59 143.35 45.87"/><polygon class="cls-19" points="140.62 44.3 142.26 45.24 142.26 41.95 140.62 41.01 140.62 44.3"/><polygon class="cls-19" points="137.9 42.72 139.53 43.67 139.53 40.38 137.9 39.44 137.9 42.72"/><polygon class="cls-21" points="214.77 225.01 73.5 143.22 73.5 133.71 214.77 215.51 214.77 225.01"/><polygon class="cls-21" points="214.77 225.01 358.85 141.83 358.85 132.32 214.77 215.51 214.77 225.01"/><polygon class="cls-22" points="214.77 215.51 73.5 133.71 217.58 50.53 358.85 132.32 214.77 215.51"/><path class="cls-23" d="M216.64,118.84l-16.73,9.66,16.73,9.65,16.72-9.65Zm12.89,9.66-12.89,7.44-12.9-7.44,12.9-7.45Zm-18.34,18.81-4.89-2.82,7-4L210.75,139l-7,4.05-2.39-1.38,7-4-2.55-1.48-7,4-2.38-1.38,7-4-2.55-1.47-7,4-2.38-1.38,7-4.05-2.56-1.47-7,4.05-4.89-2.83V128.5l8.38-4.83-2.55-1.48-9.44,5.45v4.87l29.25,16.89h8.43l9.44-5.45L225,142.48l-8.38,4.83Zm10.67-37.49,4.88,2.82-7,4,2.55,1.48,7-4,2.38,1.38-7,4,2.55,1.48,7-4.05,2.39,1.38-7,4,2.56,1.48,7-4,2.39,1.38-7,4,2.55,1.48,7-4,4.89,2.82v3.15l-8.37,4.83,2.55,1.48,9.43-5.45v-4.87l-29.25-16.89h-8.43l-9.43,5.45,2.55,1.47,8.38-4.83Zm29.23-20.34c0-.52-.72-.94-1.62-.94s-1.63.42-1.63.94.73.93,1.63.93S251.09,90,251.09,89.48Zm31.51,20.06c0,.52.72.94,1.62.94s1.63-.42,1.63-.94-.73-.94-1.63-.94S282.6,109,282.6,109.54Zm0-3.12c0,.51.72.93,1.62.93s1.62-.42,1.62-.93-.72-.94-1.62-.94S282.6,105.9,282.6,106.42Zm0,6.25c0,.52.73.94,1.62.94s1.63-.42,1.63-.94-.73-.94-1.63-.94S282.6,112.15,282.6,112.67ZM245.68,89.48c0-.52-.73-.94-1.62-.94s-1.63.42-1.63.94.73.93,1.63.93S245.68,90,245.68,89.48Zm21.89,22.67-8.17,4.71-2.56-1.47,9.23-5.33h15.44v-1H265.32l-9.75,5.63L253,113.18l10.81-6.24h17.68v-1H263.08l-11.34,6.54-7.3-4.21,11.34-6.55V91H254v10.21l-10.81,6.24L240.61,106l9.76-5.63V91h-1.8V100l-9.23,5.32-2.55-1.47L245,99.09V91h-1.81v7.62l-7.64,4.41-6.23-3.6H209l-5.33,3.08L196,98.14V90.52h-1.8v8l8.17,4.72-2.55,1.47-9.23-5.33V90.52h-1.8v9.35l9.75,5.63L196,107l-10.81-6.24V90.52h-1.81v10.64l12,6.92.64-.37.64.37,13.09-7.56h18.79l36.57,21.11v10.85L252,140l.63.37-.63.36,12,6.92h18.43v-1H264.73l-10.81-6.24,2.55-1.48,9.76,5.64h16.19v-1H267l-9.23-5.32,2.55-1.48,8.17,4.72h13.95v-1h-13.2L261.58,136l5.33-3.08V121.2l-6.24-3.6,7.64-4.41h13.2v-1ZM256.51,89.48c0-.52-.73-.94-1.63-.94s-1.62.42-1.62.94.72.94,1.62.94S256.51,90,256.51,89.48Zm-80,78.17c0,.52.73.94,1.62.94s1.63-.42,1.63-.94-.73-.94-1.63-.94S176.54,167.13,176.54,167.65Zm10.83,0c0,.52.72.94,1.62.94s1.62-.42,1.62-.94-.72-.94-1.62-.94S187.37,167.13,187.37,167.65Zm-5.42,0c0,.52.73.94,1.63.94s1.62-.42,1.62-.94-.73-.94-1.62-.94S182,167.13,182,167.65Zm-31.5-16.94c0-.52-.73-.94-1.63-.94s-1.62.42-1.62.94.73.94,1.62.94S150.45,151.23,150.45,150.71Zm0-3.12c0-.52-.73-.94-1.63-.94s-1.62.42-1.62.94.73.93,1.62.93S150.45,148.1,150.45,147.59Zm0-3.13c0-.52-.73-.94-1.63-.94s-1.62.42-1.62.94.73.94,1.62.94S150.45,145,150.45,144.46Zm-.91-28.25c0-.52-.72-.94-1.62-.94s-1.63.42-1.63.94.73.94,1.63.94S149.54,116.73,149.54,116.21Zm0-6.25c0-.52-.72-.94-1.62-.94s-1.62.42-1.62.94.72.94,1.62.94S149.54,110.48,149.54,110Zm0,3.12c0-.51-.72-.93-1.62-.93s-1.62.42-1.62.93.72.94,1.62.94S149.54,113.6,149.54,113.08ZM185.92,89c0-.52-.73-.94-1.62-.94s-1.63.42-1.63.94.73.93,1.63.93S185.92,89.47,185.92,89Zm5.41,0c0-.51-.72-.93-1.62-.93s-1.62.42-1.62.93.72.94,1.62.94S191.33,89.47,191.33,89Zm5.42,0c0-.51-.73-.93-1.63-.93s-1.62.42-1.62.93.73.94,1.62.94S196.75,89.47,196.75,89Zm86.75,58.22c0,.52.73.94,1.62.94s1.63-.42,1.63-.94-.73-.94-1.62-.94S283.5,146.65,283.5,147.17Zm0-3.12c0,.51.73.93,1.63.93s1.62-.42,1.62-.93-.73-.94-1.62-.94S283.5,143.53,283.5,144.05Zm0-3.13c0,.52.73.94,1.63.94s1.62-.42,1.62-.94-.73-.94-1.62-.94S283.5,140.4,283.5,140.92Zm-39.26,2.78c1.55-1.23,1.46-2.94-.28-4.12l14.89-8.6v-7.85l-32.91-19H212.33l-14.89,8.6a9.32,9.32,0,0,0-7.13-.16l-13.77-8V94.4h-1.81v9.91H157.58v1h17.68l13.77,8c-1.55,1.23-1.45,2.94.29,4.11l-15.13,8.74V134l32.92,19h13.6l15.13-8.73a9.2,9.2,0,0,0,7.12.16l13.77,8V162.6h1.81v-9.91H275.7v-1H258Zm-53.35-30.07a6.23,6.23,0,0,1,5.61,0c1.54.9,1.54,2.35,0,3.24a6.23,6.23,0,0,1-5.61,0C189.35,116,189.35,114.53,190.89,113.63ZM235.2,143.9l-14.86,8.58H207.48l-32.39-18.69v-7.43L190,117.78a9.11,9.11,0,0,0,7.82-.17c2.14-1.24,2.24-3.21.31-4.52l14.63-8.45h12.86L258,123.34v7.43l-14.63,8.44a9.11,9.11,0,0,0-7.82.18C233.36,140.63,233.26,142.6,235.2,143.9Zm1.58-.54c-1.55-.89-1.55-2.34,0-3.23a6.14,6.14,0,0,1,5.6,0c1.55.89,1.55,2.34,0,3.23A6.21,6.21,0,0,1,236.78,143.36Zm-.48,24.81c0,.52.73.94,1.62.94s1.63-.42,1.63-.94-.73-.93-1.63-.93S236.3,167.66,236.3,168.17Zm5.41,0c0,.52.73.94,1.63.94s1.62-.42,1.62-.94-.73-.93-1.62-.93S241.71,167.66,241.71,168.17Zm5.42,0c0,.52.72.94,1.62.94s1.62-.42,1.62-.94-.72-.93-1.62-.93S247.13,167.66,247.13,168.17Zm-9.46-19.12-.64.37-.63-.37-13.1,7.56H204.52L167.94,135.5V124.65l13.1-7.56-.64-.37.64-.37-12-6.91H150.63v1h17.68l10.81,6.24-2.55,1.47-9.75-5.63H150.63v1h15.44l9.23,5.33-2.56,1.47-8.16-4.71h-14v1h13.2l7.64,4.41-5.33,3.08v11.71l6.23,3.6-7.64,4.41h-13.2v1h13.95l8.17-4.72,2.55,1.48L167,147.06H151.53v1h16.19l9.76-5.64L180,144l-10.81,6.24H151.53v1H170l11.35-6.55,7.29,4.22-11.34,6.55v10.64h1.81V155.88l10.81-6.25,2.55,1.48-9.75,5.63v9.35h1.81v-8.92l9.23-5.33,2.55,1.48L188.09,158v8.06h1.8v-7.62l7.64-4.42,6.24,3.6h20.28l5.33-3.07L237,159v7.62h1.8v-8.05l-8.17-4.72,2.56-1.47,9.22,5.32v8.92h1.81v-9.35l-9.76-5.63,2.55-1.47,10.82,6.24v10.21h1.8V156Z"/><polygon class="cls-24" points="338.78 191.24 321.43 181.23 321.35 231.33 338.7 241.35 338.78 191.24"/><polygon class="cls-2" points="360.46 178.69 343.11 168.67 321.43 181.23 338.78 191.24 360.46 178.69"/><polygon class="cls-24" points="338.7 241.35 360.37 228.79 360.46 178.69 338.78 191.24 338.7 241.35"/><path class="cls-14" d="M354.37,190.86a1.29,1.29,0,0,0,.57-1V187c0-.37-.25-.52-.57-.34a1.3,1.3,0,0,0-.58,1v2.82C353.79,190.89,354.05,191,354.37,190.86Zm0,7.15a1.26,1.26,0,0,0,.57-1v-2.92c0-.37-.25-.52-.57-.33a1.27,1.27,0,0,0-.58,1v2.92C353.79,198,354.05,198.19,354.37,198Zm0,23a1.27,1.27,0,0,0,.58-1v-8.48c0-.37-.26-.52-.58-.33a1.27,1.27,0,0,0-.58,1v8.48C353.79,221,354.05,221.19,354.37,221Zm0,3.84a1.3,1.3,0,0,0,.58-1v-.68c0-.37-.26-.52-.58-.34a1.3,1.3,0,0,0-.58,1v.69C353.79,224.87,354.05,225,354.37,224.84Zm0-14.73a1.3,1.3,0,0,0,.58-1v-2.92c0-.37-.26-.52-.58-.33a1.27,1.27,0,0,0-.58,1v2.91C353.79,210.14,354.05,210.29,354.37,210.11Zm-2.51.49c0-.37-.25-.52-.57-.33a1.27,1.27,0,0,0-.58,1v2.91c0,.37.26.52.58.34a1.29,1.29,0,0,0,.57-1Zm-.57,16a1.26,1.26,0,0,0,.57-1V222.7c0-.37-.25-.52-.57-.34a1.3,1.3,0,0,0-.58,1v2.91C350.71,226.65,351,226.8,351.29,226.61Zm-3.42-17.26a1.3,1.3,0,0,0,.58-1v-2.92c0-.37-.26-.52-.58-.33a1.27,1.27,0,0,0-.58,1V209C347.29,209.38,347.55,209.53,347.87,209.35Zm.58-9c0-.37-.26-.52-.58-.34a1.28,1.28,0,0,0-.58,1v2.92c0,.37.26.52.58.33a1.27,1.27,0,0,0,.58-1Zm-1.16-9v5.62c0,.36.26.51.58.33a1.27,1.27,0,0,0,.58-1v-5.62c0-.37-.26-.52-.58-.34A1.3,1.3,0,0,0,347.29,191.3Zm0,23.2v13.75c0,.37.26.52.58.34a1.3,1.3,0,0,0,.58-1V213.83c0-.37-.26-.52-.58-.34A1.3,1.3,0,0,0,347.29,214.5Zm-2.5,11.14a1.27,1.27,0,0,0-.58,1v2.91c0,.37.26.52.58.34a1.3,1.3,0,0,0,.58-1V226C345.37,225.6,345.11,225.45,344.79,225.64Zm0-33.49a1.27,1.27,0,0,0-.58,1v2.91c0,.37.26.52.58.34a1.3,1.3,0,0,0,.58-1v-2.91C345.37,192.11,345.11,192,344.79,192.15Zm0,8.39a1.3,1.3,0,0,0-.58,1V215.3c0,.37.26.52.58.34a1.3,1.3,0,0,0,.58-1V200.88C345.37,200.51,345.11,200.36,344.79,200.54Z"/><path class="cls-25" d="M354.37,203.12a1.27,1.27,0,0,0,.58-1v-2.91c0-.37-.25-.52-.57-.34a1.3,1.3,0,0,0-.58,1v2.91C353.79,203.16,354.05,203.31,354.37,203.12Z"/><path class="cls-25" d="M351.29,206.12a1.26,1.26,0,0,0,.57-1V188.77c0-.37-.25-.52-.57-.34a1.3,1.3,0,0,0-.58,1v16.35C350.71,206.16,351,206.31,351.29,206.12Z"/><path class="cls-25" d="M351.86,215.72c0-.37-.25-.52-.57-.34a1.28,1.28,0,0,0-.58,1v2.92c0,.37.26.52.58.33a1.26,1.26,0,0,0,.57-1Z"/><path class="cls-25" d="M344.79,222.72a1.27,1.27,0,0,0-.58,1v.69c0,.36.26.51.58.33a1.27,1.27,0,0,0,.58-1v-.69C345.37,222.68,345.11,222.53,344.79,222.72Z"/><polygon class="cls-26" points="277 197.72 294.35 187.7 294.43 237.8 277.08 247.82 277 197.72"/><polygon class="cls-27" points="255.32 185.16 272.67 175.14 294.35 187.7 277 197.72 255.32 185.16"/><polygon class="cls-26" points="255.32 185.16 277 197.72 277.08 247.82 255.4 235.26 255.32 185.16"/><g class="cls-10"><polygon class="cls-28" points="264.1 229.65 274.42 223.68 287.32 231.16 277 237.12 264.1 229.65"/><polygon class="cls-28" points="277.09 239.63 264.19 232.16 264.1 229.65 277 237.12 277.09 239.63"/><polygon class="cls-28" points="277 237.12 287.32 231.16 287.42 233.67 277.09 239.63 277 237.12"/></g><g class="cls-10"><polygon class="cls-28" points="264.1 223.96 274.42 218 287.32 225.47 277 231.43 264.1 223.96"/><polygon class="cls-28" points="277.09 233.94 264.19 226.47 264.1 223.96 277 231.43 277.09 233.94"/><polygon class="cls-28" points="277 231.43 287.32 225.47 287.42 227.98 277.09 233.94 277 231.43"/></g><g class="cls-10"><polygon class="cls-28" points="264.1 218.27 274.42 212.31 287.32 219.79 277 225.75 264.1 218.27"/><polygon class="cls-28" points="277.09 228.26 264.19 220.78 264.1 218.27 277 225.75 277.09 228.26"/><polygon class="cls-28" points="277 225.75 287.32 219.79 287.42 222.3 277.09 228.26 277 225.75"/></g><g class="cls-10"><polygon class="cls-28" points="264.1 212.59 274.42 206.62 287.32 214.1 277 220.06 264.1 212.59"/><polygon class="cls-28" points="277.09 222.57 264.19 215.1 264.1 212.59 277 220.06 277.09 222.57"/><polygon class="cls-28" points="277 220.06 287.32 214.1 287.42 216.61 277.09 222.57 277 220.06"/></g><g class="cls-10"><polygon class="cls-28" points="264.1 206.9 274.42 200.94 287.32 208.41 277 214.37 264.1 206.9"/><polygon class="cls-28" points="277.09 216.88 264.19 209.41 264.1 206.9 277 214.37 277.09 216.88"/><polygon class="cls-28" points="277 214.37 287.32 208.41 287.42 210.92 277.09 216.88 277 214.37"/></g><g class="cls-10"><polygon class="cls-28" points="264.1 201.21 274.42 195.25 287.32 202.73 277 208.69 264.1 201.21"/><polygon class="cls-28" points="277.09 211.2 264.19 203.72 264.1 201.21 277 208.69 277.09 211.2"/><polygon class="cls-28" points="277 208.69 287.32 202.73 287.42 205.24 277.09 211.2 277 208.69"/></g><g class="cls-10"><polygon class="cls-28" points="264.1 195.53 274.42 189.56 287.32 197.04 277 203 264.1 195.53"/><polygon class="cls-28" points="277.09 205.51 264.19 198.04 264.1 195.53 277 203 277.09 205.51"/><polygon class="cls-28" points="277 203 287.32 197.04 287.42 199.55 277.09 205.51 277 203"/></g><polygon class="cls-29" points="277 197.72 294.35 187.7 294.43 237.8 277.08 247.82 277 197.72"/><polygon class="cls-17" points="255.32 185.16 272.67 175.14 294.35 187.7 277 197.72 255.32 185.16"/><polygon class="cls-29" points="255.32 185.16 277 197.72 277.08 247.82 255.4 235.26 255.32 185.16"/><path class="cls-2" d="M276.69,50.06c-2.69-2.19-7.1-3.61-12.1-3.61s-9.4,1.42-12.09,3.61h-2.74v4c0,4.73,6.64,8.56,14.83,8.56s14.84-3.83,14.84-8.56v-4Z"/><path class="cls-24" d="M278.37,43.82c-3.06-2.48-8.09-4.11-13.78-4.11s-10.71,1.63-13.77,4.11h-3.13V50.1c0,5.38,7.57,9.75,16.9,9.75s16.9-4.37,16.9-9.75V43.82Z"/><ellipse class="cls-30" cx="264.59" cy="43.82" rx="16.9" ry="9.76"/><ellipse class="cls-2" cx="264.59" cy="43.82" rx="16.9" ry="9.76"/><path class="cls-27" d="M276.69,39.05c-2.69-2.18-7.1-3.61-12.1-3.61s-9.4,1.43-12.09,3.61h-2.74v4c0,4.73,6.64,8.57,14.83,8.57s14.84-3.84,14.84-8.57v-4Z"/><path class="cls-21" d="M278.37,32.82c-3.06-2.49-8.09-4.11-13.78-4.11s-10.71,1.62-13.77,4.11h-3.13v6.27c0,5.39,7.57,9.76,16.9,9.76s16.9-4.37,16.9-9.76V32.82Z"/><ellipse class="cls-30" cx="264.59" cy="32.82" rx="16.9" ry="9.76"/><ellipse class="cls-22" cx="264.59" cy="32.82" rx="16.9" ry="9.76"/><path class="cls-27" d="M276.69,28.05c-2.69-2.18-7.1-3.61-12.1-3.61s-9.4,1.43-12.09,3.61h-2.74v4c0,4.73,6.64,8.57,14.83,8.57s14.84-3.84,14.84-8.57v-4Z"/><path class="cls-24" d="M278.37,21.82c-3.06-2.49-8.09-4.12-13.78-4.12s-10.71,1.63-13.77,4.12h-3.13v6.27c0,5.38,7.57,9.75,16.9,9.75s16.9-4.37,16.9-9.75V21.82Z"/><ellipse class="cls-30" cx="264.59" cy="21.82" rx="16.9" ry="9.76"/><ellipse class="cls-2" cx="264.59" cy="21.82" rx="16.9" ry="9.76"/></g></g></g></svg>