<svg xmlns="http://www.w3.org/2000/svg" viewBox="0 0 179.72 46.72"><defs><style>.cls-1{fill:#045473;}</style></defs><title>logo_briko</title><g id="Layer_2" data-name="Layer 2"><g id="pic"><path class="cls-1" d="M0,.65H26q6.36,0,9.35,2.89t3,8.79a10.82,10.82,0,0,1-1.69,6.32,9,9,0,0,1-4.15,3.41,11.93,11.93,0,0,1,2.86,1.23,8.63,8.63,0,0,1,2.49,2.27A12.28,12.28,0,0,1,39.55,29a15.08,15.08,0,0,1,.68,4.71q0,6.36-3,9.34t-9.34,3H0Zm26.6,13q0-3.9-3.89-3.9h-11v9.09h11q3.88,0,3.89-3.9Zm1.95,18.16q0-3.88-3.89-3.89h-13V37h13c2.59,0,3.89-1.29,3.89-3.89Z"/><path class="cls-1" d="M58.07,11.68l.65,4.22A23,23,0,0,1,62,13.5a23.26,23.26,0,0,1,3.66-1.69A13.53,13.53,0,0,1,70.4,11h2.92V21.09H67.8a15.88,15.88,0,0,0-3.21.32c-1,.22-1.91.43-2.69.65s-1.75.63-2.53,1v23H48V11.68Z"/><polygon class="cls-1" points="94.73 12.98 94.73 46.07 83.37 46.07 83.37 21.74 78.51 21.74 78.51 12.98 94.73 12.98"/><polygon class="cls-1" points="85.59 0 96.95 0 94.73 9.08 83.37 9.08 85.59 0"/><path class="cls-1" d="M115.17,32.44V46.07H103.81V.65h11.36v23h5.19l7.13-12h12l-9.74,16.54,9.74,17.85h-12L120,32.44Z"/><path class="cls-1" d="M179.72,36.33A10.34,10.34,0,0,1,177,44a10.31,10.31,0,0,1-7.63,2.76H154.42A10.27,10.27,0,0,1,146.8,44,10.31,10.31,0,0,1,144,36.33V21.41a10.3,10.3,0,0,1,2.76-7.62A10.27,10.27,0,0,1,154.42,11h14.92A10.31,10.31,0,0,1,177,13.79a10.33,10.33,0,0,1,2.75,7.62ZM168.37,22.38a2.3,2.3,0,0,0-2.6-2.59H158a2.3,2.3,0,0,0-2.6,2.59v13A2.3,2.3,0,0,0,158,38h7.78a2.3,2.3,0,0,0,2.6-2.6Z"/></g></g></svg>