<svg xmlns="http://www.w3.org/2000/svg" width="33" height="48" viewBox="0 0 33 48">
    <g fill="#045473" fill-rule="nonzero" stroke="#47A5B5" stroke-linecap="round" stroke-linejoin="round">
        <path d="M14.06 42.68l-8.7-5.03 3.44-1.99 8.71 5.03zM17.51 36.71L8.8 31.69l3.45-1.99 8.7 5.02zM20.72 13.48l-8.71-5.02 3.45-1.99 8.71 5.02zM24.17 7.52l-8.71-5.03L18.91.5l8.7 5.03zM20.95 30.75L.5 18.99l11.51-6.56 20.46 11.76z"/>
        <path d="M17.51 40.69L8.8 35.66v-3.97l8.71 5.02zM14.06 46.66l-8.7-5.03v-3.98l8.7 5.03zM24.17 11.49l-8.71-5.02V2.49l8.71 5.03zM20.72 13.48l-8.71-5.02v3.97l8.71 5.01zM12.25 29.7l8.7 5.02v-3.97l-8.7-5z"/>
        <path d="M27.61 21.4V5.53l-3.44 1.99v3.97l-3.45 1.99v3.96zM32.47 24.19l-11.52 6.56v3.97l-3.44 1.99v3.98l-3.45 1.99v3.98l18.41-10.61V24.19zM12.25 29.7v-3.95L.5 18.99v5.69l10.21 5.9z"/>
    </g>
</svg>
